%TF.GenerationSoftware,KiCad,Pcbnew,7.0.5*%
%TF.CreationDate,2023-07-02T17:57:48+02:00*%
%TF.ProjectId,eink-NFC,65696e6b-2d4e-4464-932e-6b696361645f,rev?*%
%TF.SameCoordinates,Original*%
%TF.FileFunction,Soldermask,Top*%
%TF.FilePolarity,Negative*%
%FSLAX46Y46*%
G04 Gerber Fmt 4.6, Leading zero omitted, Abs format (unit mm)*
G04 Created by KiCad (PCBNEW 7.0.5) date 2023-07-02 17:57:48*
%MOMM*%
%LPD*%
G01*
G04 APERTURE LIST*
G04 APERTURE END LIST*
G36*
X115178613Y-93084930D02*
G01*
X115225576Y-93084930D01*
X115266122Y-93093548D01*
X115307026Y-93097577D01*
X115358416Y-93113166D01*
X115409615Y-93124049D01*
X115442379Y-93138636D01*
X115475804Y-93148776D01*
X115528920Y-93177166D01*
X115581500Y-93200577D01*
X115605945Y-93218337D01*
X115631349Y-93231916D01*
X115683169Y-93274444D01*
X115733718Y-93311170D01*
X115750131Y-93329398D01*
X115767690Y-93343809D01*
X115814879Y-93401308D01*
X115859615Y-93450993D01*
X115869012Y-93467269D01*
X115879583Y-93480150D01*
X115918683Y-93553302D01*
X115953691Y-93613937D01*
X115957718Y-93626331D01*
X115962723Y-93635695D01*
X115990321Y-93726672D01*
X116011833Y-93792879D01*
X116012590Y-93800082D01*
X116013922Y-93804473D01*
X116026877Y-93936021D01*
X116031500Y-93980000D01*
X116026877Y-94023982D01*
X116013922Y-94155526D01*
X116012590Y-94159916D01*
X116011833Y-94167121D01*
X115990316Y-94233341D01*
X115962723Y-94324304D01*
X115957719Y-94333665D01*
X115953691Y-94346063D01*
X115918676Y-94406709D01*
X115879583Y-94479849D01*
X115869014Y-94492726D01*
X115859615Y-94509007D01*
X115814869Y-94558701D01*
X115767690Y-94616190D01*
X115750134Y-94630597D01*
X115733718Y-94648830D01*
X115683159Y-94685563D01*
X115631349Y-94728083D01*
X115605950Y-94741658D01*
X115581500Y-94759423D01*
X115528908Y-94782838D01*
X115475804Y-94811223D01*
X115442386Y-94821360D01*
X115409615Y-94835951D01*
X115358405Y-94846836D01*
X115307026Y-94862422D01*
X115266131Y-94866449D01*
X115225576Y-94875070D01*
X115178602Y-94875070D01*
X115131499Y-94879709D01*
X115084396Y-94875070D01*
X115037424Y-94875070D01*
X114996869Y-94866449D01*
X114955973Y-94862422D01*
X114904591Y-94846835D01*
X114853385Y-94835951D01*
X114820615Y-94821361D01*
X114787195Y-94811223D01*
X114734085Y-94782835D01*
X114681500Y-94759423D01*
X114657052Y-94741660D01*
X114631650Y-94728083D01*
X114579832Y-94685556D01*
X114529282Y-94648830D01*
X114512868Y-94630600D01*
X114495309Y-94616190D01*
X114448118Y-94558688D01*
X114403385Y-94509007D01*
X114393987Y-94492730D01*
X114383416Y-94479849D01*
X114344310Y-94406686D01*
X114309309Y-94346063D01*
X114305282Y-94333670D01*
X114300276Y-94324304D01*
X114272668Y-94233294D01*
X114251167Y-94167121D01*
X114250410Y-94159921D01*
X114249077Y-94155526D01*
X114236106Y-94023831D01*
X114231500Y-93980000D01*
X114236106Y-93936172D01*
X114249077Y-93804473D01*
X114250410Y-93800077D01*
X114251167Y-93792879D01*
X114272663Y-93726719D01*
X114300276Y-93635695D01*
X114305283Y-93626327D01*
X114309309Y-93613937D01*
X114344302Y-93553326D01*
X114383416Y-93480150D01*
X114393989Y-93467265D01*
X114403385Y-93450993D01*
X114448109Y-93401321D01*
X114495309Y-93343809D01*
X114512871Y-93329395D01*
X114529282Y-93311170D01*
X114579821Y-93274450D01*
X114631650Y-93231916D01*
X114657057Y-93218335D01*
X114681500Y-93200577D01*
X114734073Y-93177169D01*
X114787195Y-93148776D01*
X114820622Y-93138635D01*
X114853385Y-93124049D01*
X114904580Y-93113166D01*
X114955973Y-93097577D01*
X114996877Y-93093548D01*
X115037424Y-93084930D01*
X115084387Y-93084930D01*
X115131500Y-93080290D01*
X115178613Y-93084930D01*
G37*
G36*
X121578613Y-93084930D02*
G01*
X121625576Y-93084930D01*
X121666122Y-93093548D01*
X121707026Y-93097577D01*
X121758416Y-93113166D01*
X121809615Y-93124049D01*
X121842379Y-93138636D01*
X121875804Y-93148776D01*
X121928920Y-93177166D01*
X121981500Y-93200577D01*
X122005945Y-93218337D01*
X122031349Y-93231916D01*
X122083169Y-93274444D01*
X122133718Y-93311170D01*
X122150131Y-93329398D01*
X122167690Y-93343809D01*
X122214879Y-93401308D01*
X122259615Y-93450993D01*
X122269012Y-93467269D01*
X122279583Y-93480150D01*
X122318683Y-93553302D01*
X122353691Y-93613937D01*
X122357718Y-93626331D01*
X122362723Y-93635695D01*
X122390321Y-93726672D01*
X122411833Y-93792879D01*
X122412590Y-93800082D01*
X122413922Y-93804473D01*
X122426877Y-93936021D01*
X122431500Y-93980000D01*
X122426877Y-94023982D01*
X122413922Y-94155526D01*
X122412590Y-94159916D01*
X122411833Y-94167121D01*
X122390316Y-94233341D01*
X122362723Y-94324304D01*
X122357719Y-94333665D01*
X122353691Y-94346063D01*
X122318676Y-94406709D01*
X122279583Y-94479849D01*
X122269014Y-94492726D01*
X122259615Y-94509007D01*
X122214869Y-94558701D01*
X122167690Y-94616190D01*
X122150134Y-94630597D01*
X122133718Y-94648830D01*
X122083159Y-94685563D01*
X122031349Y-94728083D01*
X122005950Y-94741658D01*
X121981500Y-94759423D01*
X121928908Y-94782838D01*
X121875804Y-94811223D01*
X121842386Y-94821360D01*
X121809615Y-94835951D01*
X121758405Y-94846836D01*
X121707026Y-94862422D01*
X121666131Y-94866449D01*
X121625576Y-94875070D01*
X121578602Y-94875070D01*
X121531499Y-94879709D01*
X121484396Y-94875070D01*
X121437424Y-94875070D01*
X121396869Y-94866449D01*
X121355973Y-94862422D01*
X121304591Y-94846835D01*
X121253385Y-94835951D01*
X121220615Y-94821361D01*
X121187195Y-94811223D01*
X121134085Y-94782835D01*
X121081500Y-94759423D01*
X121057052Y-94741660D01*
X121031650Y-94728083D01*
X120979832Y-94685556D01*
X120929282Y-94648830D01*
X120912868Y-94630600D01*
X120895309Y-94616190D01*
X120848118Y-94558688D01*
X120803385Y-94509007D01*
X120793987Y-94492730D01*
X120783416Y-94479849D01*
X120744310Y-94406686D01*
X120709309Y-94346063D01*
X120705282Y-94333670D01*
X120700276Y-94324304D01*
X120672668Y-94233294D01*
X120651167Y-94167121D01*
X120650410Y-94159921D01*
X120649077Y-94155526D01*
X120636106Y-94023831D01*
X120631500Y-93980000D01*
X120636106Y-93936172D01*
X120649077Y-93804473D01*
X120650410Y-93800077D01*
X120651167Y-93792879D01*
X120672663Y-93726719D01*
X120700276Y-93635695D01*
X120705283Y-93626327D01*
X120709309Y-93613937D01*
X120744302Y-93553326D01*
X120783416Y-93480150D01*
X120793989Y-93467265D01*
X120803385Y-93450993D01*
X120848109Y-93401321D01*
X120895309Y-93343809D01*
X120912871Y-93329395D01*
X120929282Y-93311170D01*
X120979821Y-93274450D01*
X121031650Y-93231916D01*
X121057057Y-93218335D01*
X121081500Y-93200577D01*
X121134073Y-93177169D01*
X121187195Y-93148776D01*
X121220622Y-93138635D01*
X121253385Y-93124049D01*
X121304580Y-93113166D01*
X121355973Y-93097577D01*
X121396877Y-93093548D01*
X121437424Y-93084930D01*
X121484387Y-93084930D01*
X121531500Y-93080290D01*
X121578613Y-93084930D01*
G37*
G36*
X126347500Y-94576000D02*
G01*
X124647500Y-94576000D01*
X124647500Y-92876000D01*
X126347500Y-92876000D01*
X126347500Y-94576000D01*
G37*
G36*
X128300164Y-92917602D02*
G01*
X128462500Y-92989878D01*
X128606261Y-93094327D01*
X128725164Y-93226383D01*
X128814014Y-93380274D01*
X128868925Y-93549275D01*
X128887500Y-93726000D01*
X128868925Y-93902725D01*
X128814014Y-94071726D01*
X128725164Y-94225617D01*
X128606261Y-94357673D01*
X128462500Y-94462122D01*
X128300164Y-94534398D01*
X128126349Y-94571344D01*
X127948651Y-94571344D01*
X127774836Y-94534398D01*
X127612500Y-94462122D01*
X127468739Y-94357673D01*
X127349836Y-94225617D01*
X127260986Y-94071726D01*
X127206075Y-93902725D01*
X127187500Y-93726000D01*
X127206075Y-93549275D01*
X127260986Y-93380274D01*
X127349836Y-93226383D01*
X127468739Y-93094327D01*
X127612500Y-92989878D01*
X127774836Y-92917602D01*
X127948651Y-92880656D01*
X128126349Y-92880656D01*
X128300164Y-92917602D01*
G37*
G36*
X130840164Y-92917602D02*
G01*
X131002500Y-92989878D01*
X131146261Y-93094327D01*
X131265164Y-93226383D01*
X131354014Y-93380274D01*
X131408925Y-93549275D01*
X131427500Y-93726000D01*
X131408925Y-93902725D01*
X131354014Y-94071726D01*
X131265164Y-94225617D01*
X131146261Y-94357673D01*
X131002500Y-94462122D01*
X130840164Y-94534398D01*
X130666349Y-94571344D01*
X130488651Y-94571344D01*
X130314836Y-94534398D01*
X130152500Y-94462122D01*
X130008739Y-94357673D01*
X129889836Y-94225617D01*
X129800986Y-94071726D01*
X129746075Y-93902725D01*
X129727500Y-93726000D01*
X129746075Y-93549275D01*
X129800986Y-93380274D01*
X129889836Y-93226383D01*
X130008739Y-93094327D01*
X130152500Y-92989878D01*
X130314836Y-92917602D01*
X130488651Y-92880656D01*
X130666349Y-92880656D01*
X130840164Y-92917602D01*
G37*
G36*
X133380164Y-92917602D02*
G01*
X133542500Y-92989878D01*
X133686261Y-93094327D01*
X133805164Y-93226383D01*
X133894014Y-93380274D01*
X133948925Y-93549275D01*
X133967500Y-93726000D01*
X133948925Y-93902725D01*
X133894014Y-94071726D01*
X133805164Y-94225617D01*
X133686261Y-94357673D01*
X133542500Y-94462122D01*
X133380164Y-94534398D01*
X133206349Y-94571344D01*
X133028651Y-94571344D01*
X132854836Y-94534398D01*
X132692500Y-94462122D01*
X132548739Y-94357673D01*
X132429836Y-94225617D01*
X132340986Y-94071726D01*
X132286075Y-93902725D01*
X132267500Y-93726000D01*
X132286075Y-93549275D01*
X132340986Y-93380274D01*
X132429836Y-93226383D01*
X132548739Y-93094327D01*
X132692500Y-92989878D01*
X132854836Y-92917602D01*
X133028651Y-92880656D01*
X133206349Y-92880656D01*
X133380164Y-92917602D01*
G37*
G36*
X135920164Y-92917602D02*
G01*
X136082500Y-92989878D01*
X136226261Y-93094327D01*
X136345164Y-93226383D01*
X136434014Y-93380274D01*
X136488925Y-93549275D01*
X136507500Y-93726000D01*
X136488925Y-93902725D01*
X136434014Y-94071726D01*
X136345164Y-94225617D01*
X136226261Y-94357673D01*
X136082500Y-94462122D01*
X135920164Y-94534398D01*
X135746349Y-94571344D01*
X135568651Y-94571344D01*
X135394836Y-94534398D01*
X135232500Y-94462122D01*
X135088739Y-94357673D01*
X134969836Y-94225617D01*
X134880986Y-94071726D01*
X134826075Y-93902725D01*
X134807500Y-93726000D01*
X134826075Y-93549275D01*
X134880986Y-93380274D01*
X134969836Y-93226383D01*
X135088739Y-93094327D01*
X135232500Y-92989878D01*
X135394836Y-92917602D01*
X135568651Y-92880656D01*
X135746349Y-92880656D01*
X135920164Y-92917602D01*
G37*
G36*
X138460164Y-92917602D02*
G01*
X138622500Y-92989878D01*
X138766261Y-93094327D01*
X138885164Y-93226383D01*
X138974014Y-93380274D01*
X139028925Y-93549275D01*
X139047500Y-93726000D01*
X139028925Y-93902725D01*
X138974014Y-94071726D01*
X138885164Y-94225617D01*
X138766261Y-94357673D01*
X138622500Y-94462122D01*
X138460164Y-94534398D01*
X138286349Y-94571344D01*
X138108651Y-94571344D01*
X137934836Y-94534398D01*
X137772500Y-94462122D01*
X137628739Y-94357673D01*
X137509836Y-94225617D01*
X137420986Y-94071726D01*
X137366075Y-93902725D01*
X137347500Y-93726000D01*
X137366075Y-93549275D01*
X137420986Y-93380274D01*
X137509836Y-93226383D01*
X137628739Y-93094327D01*
X137772500Y-92989878D01*
X137934836Y-92917602D01*
X138108651Y-92880656D01*
X138286349Y-92880656D01*
X138460164Y-92917602D01*
G37*
G36*
X141000164Y-92917602D02*
G01*
X141162500Y-92989878D01*
X141306261Y-93094327D01*
X141425164Y-93226383D01*
X141514014Y-93380274D01*
X141568925Y-93549275D01*
X141587500Y-93726000D01*
X141568925Y-93902725D01*
X141514014Y-94071726D01*
X141425164Y-94225617D01*
X141306261Y-94357673D01*
X141162500Y-94462122D01*
X141000164Y-94534398D01*
X140826349Y-94571344D01*
X140648651Y-94571344D01*
X140474836Y-94534398D01*
X140312500Y-94462122D01*
X140168739Y-94357673D01*
X140049836Y-94225617D01*
X139960986Y-94071726D01*
X139906075Y-93902725D01*
X139887500Y-93726000D01*
X139906075Y-93549275D01*
X139960986Y-93380274D01*
X140049836Y-93226383D01*
X140168739Y-93094327D01*
X140312500Y-92989878D01*
X140474836Y-92917602D01*
X140648651Y-92880656D01*
X140826349Y-92880656D01*
X141000164Y-92917602D01*
G37*
G36*
X143540164Y-92917602D02*
G01*
X143702500Y-92989878D01*
X143846261Y-93094327D01*
X143965164Y-93226383D01*
X144054014Y-93380274D01*
X144108925Y-93549275D01*
X144127500Y-93726000D01*
X144108925Y-93902725D01*
X144054014Y-94071726D01*
X143965164Y-94225617D01*
X143846261Y-94357673D01*
X143702500Y-94462122D01*
X143540164Y-94534398D01*
X143366349Y-94571344D01*
X143188651Y-94571344D01*
X143014836Y-94534398D01*
X142852500Y-94462122D01*
X142708739Y-94357673D01*
X142589836Y-94225617D01*
X142500986Y-94071726D01*
X142446075Y-93902725D01*
X142427500Y-93726000D01*
X142446075Y-93549275D01*
X142500986Y-93380274D01*
X142589836Y-93226383D01*
X142708739Y-93094327D01*
X142852500Y-92989878D01*
X143014836Y-92917602D01*
X143188651Y-92880656D01*
X143366349Y-92880656D01*
X143540164Y-92917602D01*
G37*
G36*
X165859440Y-86157067D02*
G01*
X165875921Y-86168079D01*
X165886933Y-86184560D01*
X165890800Y-86204000D01*
X165890800Y-86404000D01*
X165886933Y-86423440D01*
X165875921Y-86439921D01*
X165859440Y-86450933D01*
X165840000Y-86454800D01*
X165640000Y-86454800D01*
X165620560Y-86450933D01*
X165604079Y-86439921D01*
X165593067Y-86423440D01*
X165589200Y-86404000D01*
X165589200Y-86204000D01*
X165593067Y-86184560D01*
X165604079Y-86168079D01*
X165620560Y-86157067D01*
X165640000Y-86153200D01*
X165840000Y-86153200D01*
X165859440Y-86157067D01*
G37*
G36*
X116669500Y-83284000D02*
G01*
X114069500Y-83284000D01*
X114069500Y-79784000D01*
X116669500Y-79784000D01*
X116669500Y-83284000D01*
G37*
G36*
X146069500Y-83284000D02*
G01*
X143469500Y-83284000D01*
X143469500Y-79784000D01*
X146069500Y-79784000D01*
X146069500Y-83284000D01*
G37*
G36*
X159859440Y-77357067D02*
G01*
X159875921Y-77368079D01*
X159886933Y-77384560D01*
X159890800Y-77404000D01*
X159890800Y-77604000D01*
X159886933Y-77623440D01*
X159875921Y-77639921D01*
X159859440Y-77650933D01*
X159840000Y-77654800D01*
X159640000Y-77654800D01*
X159620560Y-77650933D01*
X159604079Y-77639921D01*
X159593067Y-77623440D01*
X159589200Y-77604000D01*
X159589200Y-77404000D01*
X159593067Y-77384560D01*
X159604079Y-77368079D01*
X159620560Y-77357067D01*
X159640000Y-77353200D01*
X159840000Y-77353200D01*
X159859440Y-77357067D01*
G37*
G36*
X151451011Y-72276000D02*
G01*
X151470221Y-72276000D01*
X151490495Y-72283854D01*
X151520144Y-72289752D01*
X151540045Y-72303049D01*
X151557525Y-72309821D01*
X151597120Y-72341185D01*
X151601250Y-72343945D01*
X152078547Y-72821242D01*
X152081293Y-72825353D01*
X152112669Y-72864964D01*
X152119441Y-72882444D01*
X152132740Y-72902348D01*
X152138637Y-72931997D01*
X152146492Y-72952271D01*
X152146492Y-72971480D01*
X152151771Y-72998019D01*
X152146492Y-73024557D01*
X152146492Y-73043766D01*
X152138638Y-73064038D01*
X152132740Y-73093690D01*
X152119440Y-73113594D01*
X152112669Y-73131073D01*
X152081310Y-73170660D01*
X152078547Y-73174796D01*
X151406796Y-73846547D01*
X151402672Y-73849301D01*
X151363073Y-73880669D01*
X151345594Y-73887440D01*
X151325690Y-73900740D01*
X151296040Y-73906637D01*
X151275767Y-73914492D01*
X151256557Y-73914492D01*
X151230019Y-73919771D01*
X151203481Y-73914492D01*
X151184271Y-73914492D01*
X151163996Y-73906637D01*
X151134348Y-73900740D01*
X151114445Y-73887441D01*
X151096966Y-73880670D01*
X151057373Y-73849307D01*
X151053242Y-73846547D01*
X150575945Y-73369250D01*
X150573199Y-73365140D01*
X150541822Y-73325527D01*
X150535049Y-73308045D01*
X150521752Y-73288144D01*
X150515853Y-73258494D01*
X150508000Y-73238220D01*
X150508000Y-73219011D01*
X150502721Y-73192473D01*
X150508000Y-73165934D01*
X150508000Y-73146725D01*
X150515854Y-73126449D01*
X150521752Y-73096802D01*
X150535049Y-73076901D01*
X150541822Y-73059418D01*
X150573191Y-73019816D01*
X150575945Y-73015696D01*
X151247696Y-72343945D01*
X151251804Y-72341199D01*
X151291418Y-72309822D01*
X151308901Y-72303049D01*
X151328802Y-72289752D01*
X151358449Y-72283854D01*
X151378725Y-72276000D01*
X151397935Y-72276000D01*
X151424473Y-72270721D01*
X151451011Y-72276000D01*
G37*
G36*
X149983765Y-70808754D02*
G01*
X150002975Y-70808754D01*
X150023249Y-70816608D01*
X150052898Y-70822506D01*
X150072799Y-70835803D01*
X150090279Y-70842575D01*
X150129874Y-70873939D01*
X150134004Y-70876699D01*
X150611301Y-71353996D01*
X150614047Y-71358107D01*
X150645423Y-71397718D01*
X150652195Y-71415198D01*
X150665494Y-71435102D01*
X150671391Y-71464751D01*
X150679246Y-71485025D01*
X150679246Y-71504234D01*
X150684525Y-71530773D01*
X150679246Y-71557311D01*
X150679246Y-71576520D01*
X150671392Y-71596792D01*
X150665494Y-71626444D01*
X150652194Y-71646348D01*
X150645423Y-71663827D01*
X150614064Y-71703414D01*
X150611301Y-71707550D01*
X149939550Y-72379301D01*
X149935426Y-72382055D01*
X149895827Y-72413423D01*
X149878348Y-72420194D01*
X149858444Y-72433494D01*
X149828794Y-72439391D01*
X149808521Y-72447246D01*
X149789311Y-72447246D01*
X149762773Y-72452525D01*
X149736235Y-72447246D01*
X149717025Y-72447246D01*
X149696750Y-72439391D01*
X149667102Y-72433494D01*
X149647199Y-72420195D01*
X149629720Y-72413424D01*
X149590127Y-72382061D01*
X149585996Y-72379301D01*
X149108699Y-71902004D01*
X149105953Y-71897894D01*
X149074576Y-71858281D01*
X149067803Y-71840799D01*
X149054506Y-71820898D01*
X149048607Y-71791248D01*
X149040754Y-71770974D01*
X149040754Y-71751765D01*
X149035475Y-71725227D01*
X149040754Y-71698688D01*
X149040754Y-71679479D01*
X149048608Y-71659203D01*
X149054506Y-71629556D01*
X149067803Y-71609655D01*
X149074576Y-71592172D01*
X149105945Y-71552570D01*
X149108699Y-71548450D01*
X149780450Y-70876699D01*
X149784558Y-70873953D01*
X149824172Y-70842576D01*
X149841655Y-70835803D01*
X149861556Y-70822506D01*
X149891203Y-70816608D01*
X149911479Y-70808754D01*
X149930689Y-70808754D01*
X149957227Y-70803475D01*
X149983765Y-70808754D01*
G37*
M02*
