%TF.GenerationSoftware,KiCad,Pcbnew,7.0.5*%
%TF.CreationDate,2023-07-02T17:57:48+02:00*%
%TF.ProjectId,eink-NFC,65696e6b-2d4e-4464-932e-6b696361645f,rev?*%
%TF.SameCoordinates,Original*%
%TF.FileFunction,Copper,L1,Top*%
%TF.FilePolarity,Positive*%
%FSLAX46Y46*%
G04 Gerber Fmt 4.6, Leading zero omitted, Abs format (unit mm)*
G04 Created by KiCad (PCBNEW 7.0.5) date 2023-07-02 17:57:48*
%MOMM*%
%LPD*%
G01*
G04 APERTURE LIST*
G04 Aperture macros list*
%AMRoundRect*
0 Rectangle with rounded corners*
0 $1 Rounding radius*
0 $2 $3 $4 $5 $6 $7 $8 $9 X,Y pos of 4 corners*
0 Add a 4 corners polygon primitive as box body*
4,1,4,$2,$3,$4,$5,$6,$7,$8,$9,$2,$3,0*
0 Add four circle primitives for the rounded corners*
1,1,$1+$1,$2,$3*
1,1,$1+$1,$4,$5*
1,1,$1+$1,$6,$7*
1,1,$1+$1,$8,$9*
0 Add four rect primitives between the rounded corners*
20,1,$1+$1,$2,$3,$4,$5,0*
20,1,$1+$1,$4,$5,$6,$7,0*
20,1,$1+$1,$6,$7,$8,$9,0*
20,1,$1+$1,$8,$9,$2,$3,0*%
G04 Aperture macros list end*
%TA.AperFunction,EtchedComponent*%
%ADD10C,0.200000*%
%TD*%
%TA.AperFunction,SMDPad,CuDef*%
%ADD11R,0.200000X0.200000*%
%TD*%
%TA.AperFunction,SMDPad,CuDef*%
%ADD12RoundRect,0.250000X0.574524X0.097227X0.097227X0.574524X-0.574524X-0.097227X-0.097227X-0.574524X0*%
%TD*%
%TA.AperFunction,ComponentPad*%
%ADD13C,1.800000*%
%TD*%
%TA.AperFunction,ComponentPad*%
%ADD14R,1.700000X1.700000*%
%TD*%
%TA.AperFunction,ComponentPad*%
%ADD15O,1.700000X1.700000*%
%TD*%
%TA.AperFunction,SMDPad,CuDef*%
%ADD16R,2.600000X3.500000*%
%TD*%
%TA.AperFunction,ViaPad*%
%ADD17C,0.600000*%
%TD*%
%TA.AperFunction,Conductor*%
%ADD18C,0.200000*%
%TD*%
%TA.AperFunction,Conductor*%
%ADD19C,0.600000*%
%TD*%
%TA.AperFunction,Conductor*%
%ADD20C,0.150000*%
%TD*%
G04 APERTURE END LIST*
D10*
%TO.C,ANT1*%
X175140000Y-70504000D02*
X175140000Y-95104000D01*
X159740000Y-70504000D02*
X175140000Y-70504000D01*
X159740000Y-70504000D02*
X159740000Y-77404000D01*
X174740000Y-70904000D02*
X174740000Y-94704000D01*
X160140000Y-70904000D02*
X174740000Y-70904000D01*
X174340000Y-71304000D02*
X174340000Y-94304000D01*
X160540000Y-71304000D02*
X174340000Y-71304000D01*
X173940000Y-71704000D02*
X173940000Y-93904000D01*
X160940000Y-71704000D02*
X173940000Y-71704000D01*
X173540000Y-72104000D02*
X173540000Y-93504000D01*
X161340000Y-72104000D02*
X173540000Y-72104000D01*
X173140000Y-72504000D02*
X173140000Y-93104000D01*
X161740000Y-72504000D02*
X173140000Y-72504000D01*
X172740000Y-72904000D02*
X172740000Y-92704000D01*
X162140000Y-72904000D02*
X172740000Y-72904000D01*
X172340000Y-73304000D02*
X172340000Y-92304000D01*
X162540000Y-73304000D02*
X172340000Y-73304000D01*
X171940000Y-73704000D02*
X171940000Y-91904000D01*
X162940000Y-73704000D02*
X171940000Y-73704000D01*
X171540000Y-74104000D02*
X171540000Y-91504000D01*
X163340000Y-74104000D02*
X171540000Y-74104000D01*
X171140000Y-74504000D02*
X171140000Y-91104000D01*
X163740000Y-74504000D02*
X171140000Y-74504000D01*
X170740000Y-74904000D02*
X170740000Y-90704000D01*
X164140000Y-74904000D02*
X170740000Y-74904000D01*
X170340000Y-75304000D02*
X170340000Y-90304000D01*
X164540000Y-75304000D02*
X170340000Y-75304000D01*
X169940000Y-75704000D02*
X169940000Y-89904000D01*
X164940000Y-75704000D02*
X169940000Y-75704000D01*
X169540000Y-76104000D02*
X169540000Y-89504000D01*
X165340000Y-76104000D02*
X169540000Y-76104000D01*
X169540000Y-89504000D02*
X165740000Y-89504000D01*
X165740000Y-89504000D02*
X165740000Y-86304000D01*
X169940000Y-89904000D02*
X165340000Y-89904000D01*
X165340000Y-89904000D02*
X165340000Y-76104000D01*
X170340000Y-90304000D02*
X164940000Y-90304000D01*
X164940000Y-90304000D02*
X164940000Y-75704000D01*
X170740000Y-90704000D02*
X164540000Y-90704000D01*
X164540000Y-90704000D02*
X164540000Y-75304000D01*
X171140000Y-91104000D02*
X164140000Y-91104000D01*
X164140000Y-91104000D02*
X164140000Y-74904000D01*
X171540000Y-91504000D02*
X163740000Y-91504000D01*
X163740000Y-91504000D02*
X163740000Y-74504000D01*
X171940000Y-91904000D02*
X163340000Y-91904000D01*
X163340000Y-91904000D02*
X163340000Y-74104000D01*
X172340000Y-92304000D02*
X162940000Y-92304000D01*
X162940000Y-92304000D02*
X162940000Y-73704000D01*
X172740000Y-92704000D02*
X162540000Y-92704000D01*
X162540000Y-92704000D02*
X162540000Y-73304000D01*
X173140000Y-93104000D02*
X162140000Y-93104000D01*
X162140000Y-93104000D02*
X162140000Y-72904000D01*
X173540000Y-93504000D02*
X161740000Y-93504000D01*
X161740000Y-93504000D02*
X161740000Y-72504000D01*
X173940000Y-93904000D02*
X161340000Y-93904000D01*
X161340000Y-93904000D02*
X161340000Y-72104000D01*
X174340000Y-94304000D02*
X160940000Y-94304000D01*
X160940000Y-94304000D02*
X160940000Y-71704000D01*
X174740000Y-94704000D02*
X160540000Y-94704000D01*
X160540000Y-94704000D02*
X160540000Y-71304000D01*
X175140000Y-95104000D02*
X160140000Y-95104000D01*
X160140000Y-95104000D02*
X160140000Y-70904000D01*
%TD*%
D11*
%TO.P,ANT1,P$1,1*%
%TO.N,Net-(ANT1-1)*%
X165740000Y-86304000D03*
%TO.P,ANT1,P$2,2*%
%TO.N,Net-(ANT1-2)*%
X159740000Y-77504000D03*
%TD*%
D12*
%TO.P,C4,2*%
%TO.N,GND*%
X149860000Y-71628000D03*
%TO.P,C4,1*%
%TO.N,+3V0*%
X151327246Y-73095246D03*
%TD*%
D13*
%TO.P,S1,1,COM*%
%TO.N,NRST*%
X115131500Y-93980000D03*
%TO.P,S1,2,NO*%
%TO.N,GND*%
X121531500Y-93980000D03*
%TD*%
D14*
%TO.P,J2,1,Pin_1*%
%TO.N,+3V0*%
X125497500Y-93726000D03*
D15*
%TO.P,J2,2,Pin_2*%
%TO.N,SWDIO*%
X128037500Y-93726000D03*
%TO.P,J2,3,Pin_3*%
%TO.N,SWCLK*%
X130577500Y-93726000D03*
%TO.P,J2,4,Pin_4*%
%TO.N,NRST*%
X133117500Y-93726000D03*
%TO.P,J2,5,Pin_5*%
%TO.N,USART_TX*%
X135657500Y-93726000D03*
%TO.P,J2,6,Pin_6*%
%TO.N,USART_RX*%
X138197500Y-93726000D03*
%TO.P,J2,7,Pin_7*%
%TO.N,GND*%
X140737500Y-93726000D03*
%TO.P,J2,8,Pin_8*%
X143277500Y-93726000D03*
%TD*%
D16*
%TO.P,BT1,1,+*%
%TO.N,+BATT*%
X144769500Y-81534000D03*
%TO.P,BT1,2,-*%
%TO.N,GND*%
X115369500Y-81534000D03*
%TD*%
D17*
%TO.N,GND*%
X125730000Y-85598000D03*
X129032000Y-74422000D03*
X125984000Y-74930000D03*
X130048000Y-74422000D03*
X135382000Y-87884000D03*
X134620000Y-87884000D03*
X133858000Y-87884000D03*
X116840000Y-78486000D03*
X146558000Y-73660000D03*
X150622000Y-83312000D03*
X125730000Y-86614000D03*
X125476000Y-89408000D03*
X133604000Y-83058000D03*
X131064000Y-74422000D03*
X114808000Y-77216000D03*
X114808000Y-78740000D03*
X114808000Y-85852000D03*
X114808000Y-85090000D03*
X114808000Y-84328000D03*
X114808000Y-77978000D03*
X116840000Y-84582000D03*
%TO.N,Net-(ANT1-1)*%
X166116000Y-85852000D03*
%TO.N,Net-(ANT1-2)*%
X159512000Y-77978000D03*
%TO.N,+BATT*%
X142748000Y-81534000D03*
%TO.N,NRST*%
X146558000Y-78342500D03*
%TO.N,+3V0*%
X129010500Y-81026000D03*
X150622000Y-74422000D03*
X125476000Y-91440000D03*
X133604000Y-78994000D03*
X154686000Y-92202000D03*
%TO.N,SWDIO*%
X154422959Y-74395544D03*
%TO.N,SWCLK*%
X154686000Y-79502000D03*
%TO.N,USART_TX*%
X154432000Y-72898000D03*
%TO.N,USART_RX*%
X154432000Y-73660000D03*
%TO.N,GDR*%
X132588000Y-90170000D03*
X118872000Y-87376000D03*
%TO.N,ePaper_BUSY*%
X118872000Y-84328000D03*
X154432000Y-72171497D03*
%TO.N,ePaper_RESET#*%
X152400000Y-71628000D03*
X119380000Y-83784503D03*
%TO.N,ePaper_D{slash}C#*%
X153486166Y-71698165D03*
X118872000Y-83058000D03*
%TO.N,ePaper_CS#*%
X154432000Y-76962000D03*
X118853500Y-82296000D03*
%TO.N,ePaper_SCK*%
X153670000Y-76962000D03*
X118853500Y-81534000D03*
%TO.N,ePaper_MOSI*%
X152943497Y-76962000D03*
X118853500Y-80576052D03*
%TO.N,SYS_WKUP1*%
X152908000Y-87122000D03*
X150876000Y-85090000D03*
%TD*%
D18*
%TO.N,ePaper_SCK*%
X153670000Y-76980788D02*
X153670000Y-76962000D01*
X122422000Y-77470000D02*
X122428000Y-77470000D01*
X119380000Y-80512000D02*
X122422000Y-77470000D01*
X122428000Y-77470000D02*
X122447000Y-77489000D01*
X119380000Y-81007500D02*
X119380000Y-80512000D01*
X122447000Y-77489000D02*
X153161788Y-77489000D01*
X153161788Y-77489000D02*
X153670000Y-76980788D01*
X118853500Y-81534000D02*
X119380000Y-81007500D01*
%TO.N,+3V0*%
X150622000Y-74422000D02*
X150622000Y-73957000D01*
X150622000Y-73800492D02*
X151327246Y-73095246D01*
X150622000Y-74422000D02*
X150622000Y-73800492D01*
%TO.N,SYS_WKUP1*%
X150876000Y-85090000D02*
X152908000Y-87122000D01*
%TO.N,+3V0*%
X126746000Y-83290500D02*
X129010500Y-81026000D01*
X126746000Y-90170000D02*
X126746000Y-83290500D01*
X125476000Y-91440000D02*
X126746000Y-90170000D01*
%TO.N,Net-(ANT1-1)*%
X165740000Y-86228000D02*
X166116000Y-85852000D01*
%TO.N,Net-(ANT1-2)*%
X159740000Y-77504000D02*
X159740000Y-77750000D01*
X159740000Y-77750000D02*
X159512000Y-77978000D01*
D19*
%TO.N,+BATT*%
X144769500Y-81534000D02*
X142748000Y-81534000D01*
D18*
%TO.N,NRST*%
X147361315Y-79145815D02*
X146558000Y-78342500D01*
X133117500Y-93726000D02*
X135253724Y-91589776D01*
X137055776Y-91589776D02*
X144863552Y-83782000D01*
X147361315Y-83099315D02*
X147361315Y-79145815D01*
X146678630Y-83782000D02*
X147361315Y-83099315D01*
X144863552Y-83782000D02*
X145542000Y-83782000D01*
X135253724Y-91589776D02*
X137055776Y-91589776D01*
X145542000Y-83782000D02*
X146678630Y-83782000D01*
%TO.N,+3V0*%
X154686000Y-92964000D02*
X152193000Y-95457000D01*
X133604000Y-78994000D02*
X131042500Y-78994000D01*
X127228500Y-95457000D02*
X125497500Y-93726000D01*
X131042500Y-78994000D02*
X129010500Y-81026000D01*
X154686000Y-92202000D02*
X154686000Y-92964000D01*
X152193000Y-95457000D02*
X127228500Y-95457000D01*
%TO.N,SWDIO*%
X129114500Y-92649000D02*
X128037500Y-93726000D01*
X131826000Y-93218000D02*
X131257000Y-92649000D01*
X145134448Y-84436000D02*
X136906000Y-92664448D01*
X131826000Y-93980000D02*
X131826000Y-93218000D01*
X146949526Y-84436000D02*
X145134448Y-84436000D01*
X136906000Y-94172109D02*
X136275109Y-94803000D01*
X154240261Y-78740000D02*
X152645526Y-78740000D01*
X154422959Y-74395544D02*
X155375000Y-75347585D01*
X136906000Y-92664448D02*
X136906000Y-94172109D01*
X152645526Y-78740000D02*
X146949526Y-84436000D01*
X155375000Y-75347585D02*
X155375000Y-78096552D01*
X155375000Y-78096552D02*
X154823552Y-78648000D01*
X136275109Y-94803000D02*
X132649000Y-94803000D01*
X132649000Y-94803000D02*
X131826000Y-93980000D01*
X131257000Y-92649000D02*
X129114500Y-92649000D01*
X154332261Y-78648000D02*
X154240261Y-78740000D01*
X154823552Y-78648000D02*
X154332261Y-78648000D01*
%TO.N,SWCLK*%
X139274500Y-94172109D02*
X139274500Y-91220844D01*
X147220422Y-85090000D02*
X152808422Y-79502000D01*
X138316609Y-95130000D02*
X139274500Y-94172109D01*
X130577500Y-94001500D02*
X131706000Y-95130000D01*
X145405344Y-85090000D02*
X147220422Y-85090000D01*
X152808422Y-79502000D02*
X154686000Y-79502000D01*
X131706000Y-95130000D02*
X138316609Y-95130000D01*
X139274500Y-91220844D02*
X145405344Y-85090000D01*
X130577500Y-93726000D02*
X130577500Y-94001500D01*
%TO.N,USART_TX*%
X153895959Y-73434041D02*
X154432000Y-72898000D01*
X135657500Y-93450500D02*
X144999000Y-84109000D01*
X153895959Y-74613835D02*
X153895959Y-73434041D01*
X146814078Y-84109000D02*
X152602078Y-78321000D01*
X154467709Y-78321000D02*
X154959000Y-77829709D01*
X154959000Y-75676876D02*
X153895959Y-74613835D01*
X135657500Y-93726000D02*
X135657500Y-93450500D01*
X154959000Y-77829709D02*
X154959000Y-75676876D01*
X144999000Y-84109000D02*
X146814078Y-84109000D01*
X152602078Y-78321000D02*
X154467709Y-78321000D01*
%TO.N,USART_RX*%
X145269896Y-84763000D02*
X147084974Y-84763000D01*
X152672974Y-79175000D02*
X154267709Y-79175000D01*
X155702000Y-74930000D02*
X154432000Y-73660000D01*
X138197500Y-93726000D02*
X138197500Y-91835396D01*
X155702000Y-78232000D02*
X155702000Y-74930000D01*
X154959000Y-78975000D02*
X155702000Y-78232000D01*
X154267709Y-79175000D02*
X154467709Y-78975000D01*
X154467709Y-78975000D02*
X154959000Y-78975000D01*
X138197500Y-91835396D02*
X145269896Y-84763000D01*
X147084974Y-84763000D02*
X152672974Y-79175000D01*
D20*
%TO.N,GDR*%
X123438000Y-91942000D02*
X130816000Y-91942000D01*
X118872000Y-87376000D02*
X123438000Y-91942000D01*
X130816000Y-91942000D02*
X132588000Y-90170000D01*
D18*
%TO.N,ePaper_BUSY*%
X117672500Y-83066239D02*
X117672500Y-79303813D01*
X153924000Y-70866000D02*
X154178000Y-71120000D01*
X122969792Y-76162000D02*
X122988792Y-76181000D01*
X154178000Y-71120000D02*
X154178000Y-71917497D01*
X120814313Y-76162000D02*
X122969792Y-76162000D01*
X118934261Y-84328000D02*
X117672500Y-83066239D01*
X117672500Y-79303813D02*
X120814313Y-76162000D01*
X118872000Y-84328000D02*
X118934261Y-84328000D01*
X148101000Y-76181000D02*
X148844000Y-75438000D01*
X154178000Y-71917497D02*
X154432000Y-72171497D01*
X148844000Y-73914000D02*
X151892000Y-70866000D01*
X148844000Y-75438000D02*
X148844000Y-73914000D01*
X151892000Y-70866000D02*
X153924000Y-70866000D01*
X122988792Y-76181000D02*
X148101000Y-76181000D01*
%TO.N,ePaper_RESET#*%
X122853344Y-76508000D02*
X152189758Y-76508000D01*
X153159166Y-72387166D02*
X152400000Y-71628000D01*
X119380000Y-83784503D02*
X118853212Y-83784503D01*
X152189758Y-76508000D02*
X152589758Y-76108000D01*
X118853212Y-83784503D02*
X117999500Y-82930791D01*
X152589758Y-76108000D02*
X152791552Y-76108000D01*
X153159166Y-75740386D02*
X153159166Y-72387166D01*
X122834344Y-76489000D02*
X122853344Y-76508000D01*
X117999500Y-79439261D02*
X120949761Y-76489000D01*
X117999500Y-82930791D02*
X117999500Y-79439261D01*
X152791552Y-76108000D02*
X153159166Y-75740386D01*
X120949761Y-76489000D02*
X122834344Y-76489000D01*
%TO.N,ePaper_D{slash}C#*%
X119719104Y-79248000D02*
X118653209Y-79248000D01*
X122698896Y-76816000D02*
X122151104Y-76816000D01*
X118326500Y-79574709D02*
X118326500Y-82514291D01*
X118326500Y-82514291D02*
X118870209Y-83058000D01*
X122717896Y-76835000D02*
X122698896Y-76816000D01*
X118870209Y-83058000D02*
X118872000Y-83058000D01*
X152927000Y-76435000D02*
X152725206Y-76435000D01*
X118653209Y-79248000D02*
X118326500Y-79574709D01*
X152725206Y-76435000D02*
X152325206Y-76835000D01*
X153486166Y-75875834D02*
X152927000Y-76435000D01*
X122151104Y-76816000D02*
X119719104Y-79248000D01*
X153486166Y-71698165D02*
X153486166Y-75875834D01*
X152325206Y-76835000D02*
X122717896Y-76835000D01*
%TO.N,ePaper_CS#*%
X120085000Y-80269448D02*
X120085000Y-81064500D01*
X120085000Y-81064500D02*
X118853500Y-82296000D01*
X122538448Y-77816000D02*
X120085000Y-80269448D01*
X153561291Y-77816000D02*
X122538448Y-77816000D01*
X154197000Y-77180291D02*
X153561291Y-77816000D01*
%TO.N,ePaper_MOSI*%
X122563448Y-77143000D02*
X122286552Y-77143000D01*
X122286552Y-77143000D02*
X118853500Y-80576052D01*
X152943497Y-76962000D02*
X152743497Y-77162000D01*
X122582448Y-77162000D02*
X122563448Y-77143000D01*
X152743497Y-77162000D02*
X122582448Y-77162000D01*
%TD*%
%TA.AperFunction,Conductor*%
%TO.N,GND*%
G36*
X142818007Y-93516156D02*
G01*
X142777500Y-93654111D01*
X142777500Y-93797889D01*
X142818007Y-93935844D01*
X142843814Y-93976000D01*
X141171186Y-93976000D01*
X141196993Y-93935844D01*
X141237500Y-93797889D01*
X141237500Y-93654111D01*
X141196993Y-93516156D01*
X141171186Y-93476000D01*
X142843814Y-93476000D01*
X142818007Y-93516156D01*
G37*
%TD.AperFunction*%
%TA.AperFunction,Conductor*%
G36*
X145716998Y-78436185D02*
G01*
X145762753Y-78488989D01*
X145770020Y-78515210D01*
X145771083Y-78514968D01*
X145772631Y-78521754D01*
X145832211Y-78692023D01*
X145877041Y-78763369D01*
X145928184Y-78844762D01*
X146055738Y-78972316D01*
X146090248Y-78994000D01*
X146186542Y-79054506D01*
X146232833Y-79106841D01*
X146243481Y-79175895D01*
X146215106Y-79239743D01*
X146156716Y-79278115D01*
X146120570Y-79283500D01*
X143421629Y-79283500D01*
X143421623Y-79283501D01*
X143362016Y-79289908D01*
X143227171Y-79340202D01*
X143227164Y-79340206D01*
X143111955Y-79426452D01*
X143111952Y-79426455D01*
X143025706Y-79541664D01*
X143025702Y-79541671D01*
X142975408Y-79676517D01*
X142969001Y-79736116D01*
X142969000Y-79736135D01*
X142969000Y-80262806D01*
X142949315Y-80329845D01*
X142931345Y-80351803D01*
X142515751Y-80755013D01*
X142470362Y-80783057D01*
X142398476Y-80808211D01*
X142398475Y-80808212D01*
X142245737Y-80904184D01*
X142118184Y-81031737D01*
X142022211Y-81184476D01*
X141962631Y-81354745D01*
X141962630Y-81354750D01*
X141942435Y-81533996D01*
X141942435Y-81534003D01*
X141962630Y-81713249D01*
X141962631Y-81713254D01*
X142022211Y-81883523D01*
X142118184Y-82036262D01*
X142245738Y-82163816D01*
X142302504Y-82199484D01*
X142398477Y-82259789D01*
X142428752Y-82270382D01*
X142470361Y-82284942D01*
X142515749Y-82312984D01*
X142808918Y-82597416D01*
X142931345Y-82716195D01*
X142965754Y-82777005D01*
X142969000Y-82805192D01*
X142969000Y-83331870D01*
X142969001Y-83331876D01*
X142975408Y-83391483D01*
X143025702Y-83526328D01*
X143025706Y-83526335D01*
X143111952Y-83641544D01*
X143111955Y-83641547D01*
X143227164Y-83727793D01*
X143227171Y-83727797D01*
X143272118Y-83744560D01*
X143362017Y-83778091D01*
X143421627Y-83784500D01*
X143712455Y-83784499D01*
X143779493Y-83804183D01*
X143825248Y-83856987D01*
X143835192Y-83926146D01*
X143806167Y-83989701D01*
X143800135Y-83996180D01*
X136843360Y-90952957D01*
X136782037Y-90986442D01*
X136755679Y-90989276D01*
X135297152Y-90989276D01*
X135289053Y-90988745D01*
X135253724Y-90984094D01*
X135214363Y-90989276D01*
X135096963Y-91004731D01*
X135096961Y-91004732D01*
X134950884Y-91065239D01*
X134825438Y-91161497D01*
X134803748Y-91189766D01*
X134798395Y-91195870D01*
X133793924Y-92200339D01*
X133732601Y-92233824D01*
X133730929Y-92234176D01*
X133021110Y-92378375D01*
X133014165Y-92379381D01*
X132882096Y-92390936D01*
X132882086Y-92390938D01*
X132653844Y-92452094D01*
X132653834Y-92452098D01*
X132568223Y-92492018D01*
X132566039Y-92492986D01*
X132562166Y-92494613D01*
X132557714Y-92496919D01*
X132439668Y-92551966D01*
X132271713Y-92669568D01*
X132205506Y-92691896D01*
X132137739Y-92674884D01*
X132112909Y-92655674D01*
X131914981Y-92457746D01*
X131712320Y-92255085D01*
X131706980Y-92248995D01*
X131685282Y-92220718D01*
X131658723Y-92200339D01*
X131608403Y-92161727D01*
X131567200Y-92105299D01*
X131563045Y-92035553D01*
X131596206Y-91975672D01*
X132534160Y-91037718D01*
X132587589Y-91006225D01*
X132752846Y-90958739D01*
X132760521Y-90957220D01*
X132760453Y-90956921D01*
X132767245Y-90955370D01*
X132767248Y-90955368D01*
X132767255Y-90955368D01*
X132777884Y-90951647D01*
X132781191Y-90950594D01*
X132836536Y-90934692D01*
X132849785Y-90930487D01*
X132857562Y-90927782D01*
X132899171Y-90909412D01*
X132903725Y-90907614D01*
X132937519Y-90895790D01*
X132937518Y-90895790D01*
X132937522Y-90895789D01*
X133090262Y-90799816D01*
X133217816Y-90672262D01*
X133313789Y-90519522D01*
X133373368Y-90349255D01*
X133373369Y-90349249D01*
X133393565Y-90170003D01*
X133393565Y-90169996D01*
X133373369Y-89990750D01*
X133373368Y-89990745D01*
X133354541Y-89936941D01*
X133313789Y-89820478D01*
X133217816Y-89667738D01*
X133090262Y-89540184D01*
X132937523Y-89444211D01*
X132767254Y-89384631D01*
X132767249Y-89384630D01*
X132588004Y-89364435D01*
X132587996Y-89364435D01*
X132408750Y-89384630D01*
X132408745Y-89384631D01*
X132238476Y-89444211D01*
X132085737Y-89540184D01*
X131958184Y-89667737D01*
X131862212Y-89820475D01*
X131862211Y-89820476D01*
X131836464Y-89894058D01*
X131834488Y-89899009D01*
X131821392Y-89928132D01*
X131821389Y-89928140D01*
X131807412Y-89976778D01*
X131806346Y-89980128D01*
X131802632Y-89990740D01*
X131801082Y-89997535D01*
X131800785Y-89997467D01*
X131799259Y-90005152D01*
X131751773Y-90170406D01*
X131720277Y-90223841D01*
X130613939Y-91330181D01*
X130552616Y-91363666D01*
X130526258Y-91366500D01*
X126698097Y-91366500D01*
X126631058Y-91346815D01*
X126585303Y-91294011D01*
X126575359Y-91224853D01*
X126604384Y-91161297D01*
X126610416Y-91154819D01*
X126676244Y-91088990D01*
X127139923Y-90625310D01*
X127145998Y-90619984D01*
X127174282Y-90598282D01*
X127270536Y-90472841D01*
X127331044Y-90326762D01*
X127346500Y-90209361D01*
X127351682Y-90170000D01*
X127351681Y-90169996D01*
X127347031Y-90134673D01*
X127346500Y-90126571D01*
X127346500Y-86873737D01*
X127346500Y-83590592D01*
X127366184Y-83523557D01*
X127382809Y-83502925D01*
X128986150Y-81899583D01*
X129033210Y-81870107D01*
X129282614Y-81783644D01*
X129289416Y-81781176D01*
X129293411Y-81779662D01*
X129333023Y-81761517D01*
X129338353Y-81759370D01*
X129360022Y-81751789D01*
X129512762Y-81655816D01*
X129640316Y-81528262D01*
X129736289Y-81375522D01*
X129753126Y-81327399D01*
X129756550Y-81319447D01*
X129769329Y-81294695D01*
X129854608Y-81048709D01*
X129884082Y-81001651D01*
X131254915Y-79630819D01*
X131316239Y-79597334D01*
X131342597Y-79594500D01*
X132969061Y-79594500D01*
X133023184Y-79606935D01*
X133246899Y-79715464D01*
X133252826Y-79718751D01*
X133254478Y-79719789D01*
X133256125Y-79720365D01*
X133261914Y-79722726D01*
X133266917Y-79725067D01*
X133270704Y-79726777D01*
X133334780Y-79750624D01*
X133336517Y-79750879D01*
X133359456Y-79756522D01*
X133424748Y-79779369D01*
X133603996Y-79799565D01*
X133604000Y-79799565D01*
X133604004Y-79799565D01*
X133783249Y-79779369D01*
X133783252Y-79779368D01*
X133783255Y-79779368D01*
X133953522Y-79719789D01*
X134106262Y-79623816D01*
X134233816Y-79496262D01*
X134329789Y-79343522D01*
X134389368Y-79173255D01*
X134390105Y-79166715D01*
X134409565Y-78994003D01*
X134409565Y-78993996D01*
X134389369Y-78814750D01*
X134389368Y-78814745D01*
X134329788Y-78644475D01*
X134305909Y-78606473D01*
X134286908Y-78539236D01*
X134307275Y-78472401D01*
X134360543Y-78427187D01*
X134410902Y-78416500D01*
X145649959Y-78416500D01*
X145716998Y-78436185D01*
G37*
%TD.AperFunction*%
%TA.AperFunction,Conductor*%
G36*
X176442539Y-68520185D02*
G01*
X176488294Y-68572989D01*
X176499500Y-68624500D01*
X176499500Y-96375500D01*
X176479815Y-96442539D01*
X176427011Y-96488294D01*
X176375500Y-96499500D01*
X112624500Y-96499500D01*
X112557461Y-96479815D01*
X112511706Y-96427011D01*
X112500500Y-96375500D01*
X112500500Y-93980006D01*
X113726200Y-93980006D01*
X113745364Y-94211297D01*
X113745366Y-94211308D01*
X113802342Y-94436300D01*
X113895575Y-94648848D01*
X114022516Y-94843147D01*
X114022519Y-94843151D01*
X114022521Y-94843153D01*
X114179716Y-95013913D01*
X114179719Y-95013915D01*
X114179722Y-95013918D01*
X114362865Y-95156464D01*
X114362871Y-95156468D01*
X114362874Y-95156470D01*
X114472244Y-95215658D01*
X114566152Y-95266479D01*
X114566997Y-95266936D01*
X114680987Y-95306068D01*
X114786515Y-95342297D01*
X114786517Y-95342297D01*
X114786519Y-95342298D01*
X115015451Y-95380500D01*
X115015452Y-95380500D01*
X115247548Y-95380500D01*
X115247549Y-95380500D01*
X115476481Y-95342298D01*
X115696003Y-95266936D01*
X115900126Y-95156470D01*
X116083284Y-95013913D01*
X116240479Y-94843153D01*
X116367424Y-94648849D01*
X116460657Y-94436300D01*
X116517634Y-94211305D01*
X116517635Y-94211297D01*
X116536800Y-93980006D01*
X116536800Y-93980005D01*
X120126702Y-93980005D01*
X120145861Y-94211218D01*
X120202817Y-94436135D01*
X120296016Y-94648609D01*
X120380311Y-94777633D01*
X120968726Y-94189219D01*
X121007401Y-94282588D01*
X121103575Y-94407925D01*
X121228912Y-94504099D01*
X121322279Y-94542772D01*
X120732699Y-95132351D01*
X120763150Y-95156050D01*
X120967197Y-95266476D01*
X120967206Y-95266479D01*
X121186639Y-95341811D01*
X121415493Y-95380000D01*
X121647507Y-95380000D01*
X121876360Y-95341811D01*
X122095793Y-95266479D01*
X122095802Y-95266476D01*
X122299850Y-95156050D01*
X122330298Y-95132351D01*
X121740720Y-94542773D01*
X121834088Y-94504099D01*
X121959425Y-94407925D01*
X122055599Y-94282589D01*
X122094272Y-94189220D01*
X122682686Y-94777634D01*
X122766984Y-94648606D01*
X122860182Y-94436135D01*
X122917138Y-94211218D01*
X122936298Y-93980005D01*
X122936298Y-93979994D01*
X122917138Y-93748781D01*
X122860182Y-93523864D01*
X122766983Y-93311390D01*
X122682686Y-93182364D01*
X122094272Y-93770778D01*
X122055599Y-93677412D01*
X121959425Y-93552075D01*
X121834088Y-93455901D01*
X121740720Y-93417227D01*
X122330299Y-92827648D01*
X122330299Y-92827647D01*
X122299849Y-92803949D01*
X122095802Y-92693523D01*
X122095793Y-92693520D01*
X121876360Y-92618188D01*
X121647507Y-92580000D01*
X121415493Y-92580000D01*
X121186639Y-92618188D01*
X120967206Y-92693520D01*
X120967198Y-92693523D01*
X120763144Y-92803952D01*
X120732700Y-92827646D01*
X120732700Y-92827647D01*
X121322279Y-93417226D01*
X121228912Y-93455901D01*
X121103575Y-93552075D01*
X121007401Y-93677411D01*
X120968726Y-93770779D01*
X120380312Y-93182365D01*
X120296016Y-93311391D01*
X120296014Y-93311395D01*
X120202817Y-93523864D01*
X120145861Y-93748781D01*
X120126702Y-93979994D01*
X120126702Y-93980005D01*
X116536800Y-93980005D01*
X116536800Y-93979993D01*
X116517635Y-93748702D01*
X116517633Y-93748691D01*
X116460657Y-93523699D01*
X116367424Y-93311151D01*
X116240483Y-93116852D01*
X116240480Y-93116849D01*
X116240479Y-93116847D01*
X116083284Y-92946087D01*
X116083279Y-92946083D01*
X116083277Y-92946081D01*
X115900134Y-92803535D01*
X115900128Y-92803531D01*
X115696004Y-92693064D01*
X115695995Y-92693061D01*
X115476484Y-92617702D01*
X115304782Y-92589050D01*
X115247549Y-92579500D01*
X115015451Y-92579500D01*
X114969664Y-92587140D01*
X114786515Y-92617702D01*
X114567004Y-92693061D01*
X114566995Y-92693064D01*
X114362871Y-92803531D01*
X114362865Y-92803535D01*
X114179722Y-92946081D01*
X114179719Y-92946084D01*
X114022516Y-93116852D01*
X113895575Y-93311151D01*
X113802342Y-93523699D01*
X113745366Y-93748691D01*
X113745364Y-93748702D01*
X113726200Y-93979993D01*
X113726200Y-93980006D01*
X112500500Y-93980006D01*
X112500500Y-81784000D01*
X113569500Y-81784000D01*
X113569500Y-83331844D01*
X113575901Y-83391372D01*
X113575903Y-83391379D01*
X113626145Y-83526086D01*
X113626149Y-83526093D01*
X113712309Y-83641187D01*
X113712312Y-83641190D01*
X113827406Y-83727350D01*
X113827413Y-83727354D01*
X113962120Y-83777596D01*
X113962127Y-83777598D01*
X114021655Y-83783999D01*
X114021672Y-83784000D01*
X115119500Y-83784000D01*
X115619500Y-83784000D01*
X116717328Y-83784000D01*
X116717344Y-83783999D01*
X116776872Y-83777598D01*
X116776879Y-83777596D01*
X116911586Y-83727354D01*
X116911593Y-83727350D01*
X117026686Y-83641191D01*
X117099985Y-83543277D01*
X117155919Y-83501406D01*
X117225611Y-83496422D01*
X117286933Y-83529907D01*
X118012707Y-84255681D01*
X118045761Y-84315093D01*
X118081973Y-84469752D01*
X118083217Y-84476949D01*
X118086633Y-84507261D01*
X118098000Y-84539747D01*
X118099845Y-84546082D01*
X118101819Y-84554508D01*
X118101828Y-84554544D01*
X118107190Y-84573925D01*
X118107206Y-84573980D01*
X118110837Y-84585318D01*
X118110840Y-84585327D01*
X118110842Y-84585332D01*
X118123642Y-84615336D01*
X118127331Y-84623984D01*
X118128825Y-84627837D01*
X118146211Y-84677521D01*
X118146211Y-84677522D01*
X118242184Y-84830262D01*
X118369738Y-84957816D01*
X118522478Y-85053789D01*
X118692744Y-85113368D01*
X118692745Y-85113368D01*
X118692750Y-85113369D01*
X118871996Y-85133565D01*
X118872000Y-85133565D01*
X118872004Y-85133565D01*
X119051249Y-85113369D01*
X119051252Y-85113368D01*
X119051255Y-85113368D01*
X119221522Y-85053789D01*
X119374262Y-84957816D01*
X119501816Y-84830262D01*
X119597789Y-84677522D01*
X119626366Y-84595849D01*
X119667087Y-84539075D01*
X119702455Y-84519763D01*
X119729522Y-84510292D01*
X119882262Y-84414319D01*
X120009816Y-84286765D01*
X120105789Y-84134025D01*
X120165368Y-83963758D01*
X120185565Y-83784503D01*
X120185508Y-83784000D01*
X120165369Y-83605253D01*
X120165368Y-83605248D01*
X120105788Y-83434979D01*
X120041000Y-83331870D01*
X120009816Y-83282241D01*
X119882262Y-83154687D01*
X119882261Y-83154687D01*
X119724255Y-83055404D01*
X119677964Y-83003069D01*
X119667007Y-82964293D01*
X119657369Y-82878750D01*
X119657366Y-82878737D01*
X119597791Y-82708484D01*
X119597789Y-82708478D01*
X119597785Y-82708471D01*
X119596603Y-82706016D01*
X119596313Y-82704260D01*
X119595490Y-82701906D01*
X119595902Y-82701761D01*
X119585247Y-82637075D01*
X119591273Y-82611268D01*
X119596129Y-82597391D01*
X119599547Y-82589453D01*
X119612329Y-82564695D01*
X119697608Y-82318709D01*
X119727082Y-82271651D01*
X120478922Y-81519811D01*
X120484999Y-81514483D01*
X120513282Y-81492782D01*
X120609536Y-81367341D01*
X120670044Y-81221262D01*
X120685500Y-81103861D01*
X120690682Y-81064500D01*
X120686028Y-81029152D01*
X120685500Y-81021087D01*
X120685500Y-80569545D01*
X120705185Y-80502505D01*
X120721819Y-80481864D01*
X122750865Y-78452819D01*
X122812188Y-78419334D01*
X122838546Y-78416500D01*
X130471402Y-78416500D01*
X130538441Y-78436185D01*
X130584196Y-78488989D01*
X130594140Y-78558147D01*
X130565115Y-78621703D01*
X130559083Y-78628181D01*
X129034851Y-80152412D01*
X128987788Y-80181890D01*
X128738295Y-80268387D01*
X128738272Y-80268395D01*
X128738273Y-80268395D01*
X128731326Y-80270918D01*
X128731286Y-80270933D01*
X128731270Y-80270939D01*
X128727305Y-80272444D01*
X128727292Y-80272449D01*
X128687910Y-80290501D01*
X128682555Y-80292659D01*
X128660982Y-80300209D01*
X128660975Y-80300212D01*
X128508237Y-80396184D01*
X128380684Y-80523737D01*
X128284711Y-80676478D01*
X128284709Y-80676482D01*
X128267880Y-80724574D01*
X128264450Y-80732541D01*
X128251670Y-80757301D01*
X128166389Y-81003289D01*
X128136911Y-81050352D01*
X126352096Y-82835168D01*
X126345994Y-82840519D01*
X126317720Y-82862215D01*
X126295640Y-82890989D01*
X126239538Y-82964104D01*
X126239537Y-82964104D01*
X126221464Y-82987657D01*
X126160956Y-83133737D01*
X126160955Y-83133739D01*
X126140318Y-83290498D01*
X126140318Y-83290499D01*
X126144969Y-83325826D01*
X126145500Y-83333928D01*
X126145500Y-89869902D01*
X126125815Y-89936941D01*
X126109181Y-89957583D01*
X125500351Y-90566412D01*
X125453288Y-90595890D01*
X125203795Y-90682387D01*
X125203772Y-90682395D01*
X125203773Y-90682395D01*
X125196826Y-90684918D01*
X125196786Y-90684933D01*
X125196770Y-90684939D01*
X125192805Y-90686444D01*
X125192792Y-90686449D01*
X125153410Y-90704501D01*
X125148055Y-90706659D01*
X125126482Y-90714209D01*
X125126475Y-90714212D01*
X124973737Y-90810184D01*
X124846184Y-90937737D01*
X124750210Y-91090478D01*
X124690629Y-91260753D01*
X124689080Y-91267541D01*
X124686663Y-91266989D01*
X124664066Y-91320785D01*
X124606477Y-91360348D01*
X124567903Y-91366500D01*
X123727742Y-91366500D01*
X123660703Y-91346815D01*
X123640061Y-91330181D01*
X119739720Y-87429840D01*
X119708225Y-87376407D01*
X119660738Y-87211149D01*
X119659217Y-87203468D01*
X119658918Y-87203537D01*
X119657368Y-87196745D01*
X119653647Y-87186113D01*
X119652592Y-87182799D01*
X119636692Y-87127463D01*
X119632487Y-87114214D01*
X119629782Y-87106437D01*
X119611411Y-87064824D01*
X119609620Y-87060289D01*
X119597789Y-87026478D01*
X119501816Y-86873738D01*
X119374262Y-86746184D01*
X119374262Y-86746183D01*
X119221523Y-86650211D01*
X119051254Y-86590631D01*
X119051249Y-86590630D01*
X118872004Y-86570435D01*
X118871996Y-86570435D01*
X118692750Y-86590630D01*
X118692745Y-86590631D01*
X118522476Y-86650211D01*
X118369737Y-86746184D01*
X118242184Y-86873737D01*
X118146211Y-87026476D01*
X118086631Y-87196745D01*
X118086630Y-87196750D01*
X118066435Y-87375996D01*
X118066435Y-87376003D01*
X118086630Y-87555249D01*
X118086631Y-87555254D01*
X118146211Y-87725523D01*
X118242183Y-87878262D01*
X118242184Y-87878262D01*
X118369738Y-88005816D01*
X118522478Y-88101788D01*
X118522478Y-88101789D01*
X118596069Y-88127539D01*
X118601024Y-88129516D01*
X118630142Y-88142611D01*
X118678793Y-88156590D01*
X118682121Y-88157650D01*
X118692745Y-88161368D01*
X118699537Y-88162918D01*
X118699468Y-88163216D01*
X118707157Y-88164740D01*
X118872405Y-88212224D01*
X118925840Y-88243720D01*
X123001520Y-92319400D01*
X123006861Y-92325490D01*
X123027549Y-92352451D01*
X123038911Y-92361169D01*
X123055497Y-92373897D01*
X123055514Y-92373911D01*
X123083473Y-92395364D01*
X123140946Y-92439464D01*
X123147767Y-92444698D01*
X123287764Y-92502687D01*
X123400280Y-92517500D01*
X123400281Y-92517500D01*
X123402294Y-92517765D01*
X123402313Y-92517766D01*
X123438000Y-92522465D01*
X123438001Y-92522465D01*
X123451265Y-92520718D01*
X123471682Y-92518030D01*
X123479781Y-92517500D01*
X124068439Y-92517500D01*
X124135478Y-92537185D01*
X124181233Y-92589989D01*
X124191177Y-92659147D01*
X124184621Y-92684833D01*
X124153408Y-92768517D01*
X124147001Y-92828116D01*
X124147000Y-92828135D01*
X124147000Y-94623870D01*
X124147001Y-94623876D01*
X124153408Y-94683483D01*
X124203702Y-94818328D01*
X124203706Y-94818335D01*
X124289952Y-94933544D01*
X124289955Y-94933547D01*
X124405164Y-95019793D01*
X124405171Y-95019797D01*
X124450118Y-95036561D01*
X124540017Y-95070091D01*
X124599627Y-95076500D01*
X125038953Y-95076499D01*
X125073391Y-95081377D01*
X126351277Y-95450814D01*
X126404519Y-95482254D01*
X126773169Y-95850904D01*
X126778520Y-95857005D01*
X126800218Y-95885282D01*
X126925659Y-95981536D01*
X127071738Y-96042044D01*
X127150118Y-96052362D01*
X127228499Y-96062682D01*
X127228500Y-96062682D01*
X127263829Y-96058030D01*
X127271928Y-96057500D01*
X152149572Y-96057500D01*
X152157670Y-96058030D01*
X152193000Y-96062682D01*
X152193001Y-96062682D01*
X152245253Y-96055802D01*
X152349762Y-96042044D01*
X152495841Y-95981536D01*
X152495840Y-95981536D01*
X152533362Y-95965994D01*
X152557013Y-95934596D01*
X152621282Y-95885282D01*
X152642983Y-95856999D01*
X152648311Y-95850922D01*
X155079922Y-93419311D01*
X155085999Y-93413983D01*
X155114282Y-93392282D01*
X155210536Y-93266841D01*
X155271044Y-93120762D01*
X155286500Y-93003361D01*
X155291682Y-92964000D01*
X155287030Y-92928669D01*
X155286500Y-92920571D01*
X155286500Y-92836937D01*
X155298935Y-92782815D01*
X155344984Y-92687891D01*
X155407468Y-92559089D01*
X155410754Y-92553167D01*
X155411789Y-92551522D01*
X155412367Y-92549867D01*
X155414724Y-92544086D01*
X155417067Y-92539082D01*
X155418777Y-92535295D01*
X155442624Y-92471219D01*
X155442877Y-92469489D01*
X155448519Y-92446549D01*
X155471368Y-92381255D01*
X155471614Y-92379075D01*
X155491565Y-92202003D01*
X155491565Y-92201996D01*
X155471369Y-92022750D01*
X155471368Y-92022745D01*
X155411788Y-91852476D01*
X155315815Y-91699737D01*
X155188262Y-91572184D01*
X155035523Y-91476211D01*
X154865254Y-91416631D01*
X154865249Y-91416630D01*
X154686004Y-91396435D01*
X154685996Y-91396435D01*
X154506750Y-91416630D01*
X154506745Y-91416631D01*
X154336476Y-91476211D01*
X154183737Y-91572184D01*
X154056184Y-91699737D01*
X153960211Y-91852476D01*
X153900631Y-92022745D01*
X153900630Y-92022750D01*
X153880435Y-92201996D01*
X153880435Y-92202003D01*
X153900630Y-92381249D01*
X153900633Y-92381262D01*
X153958077Y-92545424D01*
X153960211Y-92551522D01*
X153960489Y-92551965D01*
X153961250Y-92553176D01*
X153964533Y-92559099D01*
X154016540Y-92666304D01*
X154028090Y-92735213D01*
X154000552Y-92799426D01*
X153992656Y-92808107D01*
X151980584Y-94820181D01*
X151919261Y-94853666D01*
X151892903Y-94856500D01*
X144355550Y-94856500D01*
X144288511Y-94836815D01*
X144242756Y-94784011D01*
X144232812Y-94714853D01*
X144261837Y-94651297D01*
X144267869Y-94644819D01*
X144315605Y-94597082D01*
X144451100Y-94403578D01*
X144550929Y-94189492D01*
X144550932Y-94189486D01*
X144608136Y-93976000D01*
X143711186Y-93976000D01*
X143736993Y-93935844D01*
X143777500Y-93797889D01*
X143777500Y-93654111D01*
X143736993Y-93516156D01*
X143711186Y-93476000D01*
X144608136Y-93476000D01*
X144608135Y-93475999D01*
X144550932Y-93262513D01*
X144550929Y-93262507D01*
X144451100Y-93048422D01*
X144451099Y-93048420D01*
X144315613Y-92854926D01*
X144315608Y-92854920D01*
X144148582Y-92687894D01*
X143955078Y-92552399D01*
X143740992Y-92452570D01*
X143740986Y-92452567D01*
X143527500Y-92395364D01*
X143527500Y-93290498D01*
X143419815Y-93241320D01*
X143313263Y-93226000D01*
X143241737Y-93226000D01*
X143135185Y-93241320D01*
X143027500Y-93290498D01*
X143027500Y-92395364D01*
X143027499Y-92395364D01*
X142814013Y-92452567D01*
X142814007Y-92452570D01*
X142599922Y-92552399D01*
X142599920Y-92552400D01*
X142406426Y-92687886D01*
X142406420Y-92687891D01*
X142239391Y-92854920D01*
X142239390Y-92854922D01*
X142109075Y-93041031D01*
X142054498Y-93084655D01*
X141984999Y-93091848D01*
X141922645Y-93060326D01*
X141905925Y-93041031D01*
X141775609Y-92854922D01*
X141775608Y-92854920D01*
X141608582Y-92687894D01*
X141415078Y-92552399D01*
X141200992Y-92452570D01*
X141200986Y-92452567D01*
X140987500Y-92395364D01*
X140987500Y-93290498D01*
X140879815Y-93241320D01*
X140773263Y-93226000D01*
X140701737Y-93226000D01*
X140595185Y-93241320D01*
X140487500Y-93290498D01*
X140487500Y-92395364D01*
X140487499Y-92395364D01*
X140274013Y-92452567D01*
X140274007Y-92452570D01*
X140055016Y-92554688D01*
X140054406Y-92553381D01*
X139993079Y-92568249D01*
X139927056Y-92545385D01*
X139883875Y-92490457D01*
X139875000Y-92444390D01*
X139875000Y-91520940D01*
X139894685Y-91453901D01*
X139911319Y-91433259D01*
X145617760Y-85726819D01*
X145679083Y-85693334D01*
X145705441Y-85690500D01*
X147176994Y-85690500D01*
X147185092Y-85691030D01*
X147220422Y-85695682D01*
X147220423Y-85695682D01*
X147272675Y-85688802D01*
X147377184Y-85675044D01*
X147523263Y-85614536D01*
X147552291Y-85592262D01*
X147648704Y-85518282D01*
X147670406Y-85489998D01*
X147675732Y-85483923D01*
X148069652Y-85090003D01*
X150070435Y-85090003D01*
X150090630Y-85269249D01*
X150090631Y-85269254D01*
X150150211Y-85439523D01*
X150189769Y-85502478D01*
X150246184Y-85592262D01*
X150373738Y-85719816D01*
X150430504Y-85755484D01*
X150526477Y-85815789D01*
X150539859Y-85820471D01*
X150574595Y-85832625D01*
X150582554Y-85836053D01*
X150607302Y-85848828D01*
X150853288Y-85934108D01*
X150900351Y-85963586D01*
X152034411Y-87097646D01*
X152063889Y-87144709D01*
X152150367Y-87394146D01*
X152152801Y-87400856D01*
X152152805Y-87400866D01*
X152154299Y-87404809D01*
X152172478Y-87444513D01*
X152174623Y-87449838D01*
X152182209Y-87471518D01*
X152182210Y-87471519D01*
X152182211Y-87471522D01*
X152278184Y-87624262D01*
X152405738Y-87751816D01*
X152558478Y-87847789D01*
X152645565Y-87878262D01*
X152728745Y-87907368D01*
X152728750Y-87907369D01*
X152907996Y-87927565D01*
X152908000Y-87927565D01*
X152908004Y-87927565D01*
X153087249Y-87907369D01*
X153087252Y-87907368D01*
X153087255Y-87907368D01*
X153257522Y-87847789D01*
X153410262Y-87751816D01*
X153537816Y-87624262D01*
X153633789Y-87471522D01*
X153693368Y-87301255D01*
X153693369Y-87301249D01*
X153713565Y-87122003D01*
X153713565Y-87121996D01*
X153693369Y-86942750D01*
X153693368Y-86942745D01*
X153633788Y-86772476D01*
X153556963Y-86650211D01*
X153537816Y-86619738D01*
X153410262Y-86492184D01*
X153257524Y-86396212D01*
X153257523Y-86396211D01*
X153227066Y-86385553D01*
X153209414Y-86379376D01*
X153201446Y-86375946D01*
X153176705Y-86363175D01*
X153176703Y-86363174D01*
X153176697Y-86363171D01*
X153075899Y-86328225D01*
X152930709Y-86277889D01*
X152883646Y-86248411D01*
X151749585Y-85114350D01*
X151720108Y-85067288D01*
X151665837Y-84910745D01*
X151633644Y-84817883D01*
X151632532Y-84814821D01*
X151631176Y-84811083D01*
X151629662Y-84807088D01*
X151625725Y-84798494D01*
X151611519Y-84767474D01*
X151609365Y-84762130D01*
X151601789Y-84740479D01*
X151601789Y-84740478D01*
X151505816Y-84587738D01*
X151378262Y-84460184D01*
X151225523Y-84364211D01*
X151055254Y-84304631D01*
X151055249Y-84304630D01*
X150876004Y-84284435D01*
X150875996Y-84284435D01*
X150696750Y-84304630D01*
X150696745Y-84304631D01*
X150526476Y-84364211D01*
X150373737Y-84460184D01*
X150246184Y-84587737D01*
X150150211Y-84740476D01*
X150090631Y-84910745D01*
X150090630Y-84910750D01*
X150070435Y-85089996D01*
X150070435Y-85090003D01*
X148069652Y-85090003D01*
X153020837Y-80138819D01*
X153082161Y-80105334D01*
X153108519Y-80102500D01*
X154051063Y-80102500D01*
X154105185Y-80114934D01*
X154223968Y-80172559D01*
X154328892Y-80223460D01*
X154334816Y-80226745D01*
X154336478Y-80227789D01*
X154336481Y-80227790D01*
X154338127Y-80228366D01*
X154343940Y-80230737D01*
X154348880Y-80233050D01*
X154348899Y-80233058D01*
X154348917Y-80233067D01*
X154352704Y-80234777D01*
X154416780Y-80258624D01*
X154418517Y-80258879D01*
X154441456Y-80264522D01*
X154506748Y-80287369D01*
X154685996Y-80307565D01*
X154686000Y-80307565D01*
X154686004Y-80307565D01*
X154865249Y-80287369D01*
X154865252Y-80287368D01*
X154865255Y-80287368D01*
X155035522Y-80227789D01*
X155188262Y-80131816D01*
X155315816Y-80004262D01*
X155411789Y-79851522D01*
X155471368Y-79681255D01*
X155471369Y-79681249D01*
X155491565Y-79502003D01*
X155491565Y-79501997D01*
X155476952Y-79372307D01*
X155489006Y-79303485D01*
X155512488Y-79270745D01*
X156095922Y-78687311D01*
X156101999Y-78681983D01*
X156130282Y-78660282D01*
X156226536Y-78534841D01*
X156287044Y-78388762D01*
X156302500Y-78271361D01*
X156307682Y-78232000D01*
X156303030Y-78196669D01*
X156302500Y-78188571D01*
X156302500Y-77978003D01*
X158706435Y-77978003D01*
X158726630Y-78157249D01*
X158726631Y-78157254D01*
X158786211Y-78327523D01*
X158857660Y-78441233D01*
X158882184Y-78480262D01*
X159009738Y-78607816D01*
X159068085Y-78644478D01*
X159143752Y-78692023D01*
X159162478Y-78703789D01*
X159332745Y-78763367D01*
X159332745Y-78763368D01*
X159332750Y-78763369D01*
X159392155Y-78770061D01*
X159429382Y-78774256D01*
X159493796Y-78801322D01*
X159533352Y-78858916D01*
X159539500Y-78897476D01*
X159539500Y-95060571D01*
X159538969Y-95068669D01*
X159537296Y-95081377D01*
X159534318Y-95103999D01*
X159534317Y-95104001D01*
X159547485Y-95204022D01*
X159549018Y-95215659D01*
X159554956Y-95260762D01*
X159615464Y-95406841D01*
X159711718Y-95532282D01*
X159837159Y-95628536D01*
X159983238Y-95689044D01*
X160061619Y-95699363D01*
X160139999Y-95709682D01*
X160140000Y-95709682D01*
X160175329Y-95705030D01*
X160183428Y-95704500D01*
X175096572Y-95704500D01*
X175104670Y-95705030D01*
X175140000Y-95709682D01*
X175140001Y-95709682D01*
X175192253Y-95702802D01*
X175296762Y-95689044D01*
X175442841Y-95628536D01*
X175568282Y-95532282D01*
X175664536Y-95406841D01*
X175725044Y-95260762D01*
X175730982Y-95215659D01*
X175745682Y-95104000D01*
X175741217Y-95070089D01*
X175741030Y-95068669D01*
X175740499Y-95060567D01*
X175740499Y-70547431D01*
X175741030Y-70539328D01*
X175745682Y-70503999D01*
X175745682Y-70503998D01*
X175725044Y-70347239D01*
X175725044Y-70347238D01*
X175664536Y-70201159D01*
X175568282Y-70075718D01*
X175442841Y-69979464D01*
X175296762Y-69918956D01*
X175296760Y-69918955D01*
X175179361Y-69903500D01*
X175140000Y-69898318D01*
X175104670Y-69902969D01*
X175096572Y-69903500D01*
X159783428Y-69903500D01*
X159775329Y-69902969D01*
X159740000Y-69898318D01*
X159700639Y-69903500D01*
X159583239Y-69918955D01*
X159583237Y-69918956D01*
X159437160Y-69979463D01*
X159311718Y-70075718D01*
X159215463Y-70201160D01*
X159154956Y-70347237D01*
X159154955Y-70347239D01*
X159134318Y-70503998D01*
X159134318Y-70504000D01*
X159138969Y-70539326D01*
X159139500Y-70547427D01*
X159139500Y-77198116D01*
X159119815Y-77265155D01*
X159081473Y-77303109D01*
X159009739Y-77348182D01*
X158882184Y-77475737D01*
X158786211Y-77628476D01*
X158726631Y-77798745D01*
X158726630Y-77798750D01*
X158706435Y-77977996D01*
X158706435Y-77978003D01*
X156302500Y-77978003D01*
X156302500Y-74973428D01*
X156303031Y-74965326D01*
X156307682Y-74929999D01*
X156307682Y-74929998D01*
X156287044Y-74773239D01*
X156287042Y-74773234D01*
X156286333Y-74771523D01*
X156226536Y-74627159D01*
X156206659Y-74601255D01*
X156130282Y-74501718D01*
X156102005Y-74480020D01*
X156095904Y-74474669D01*
X155305585Y-73684350D01*
X155276108Y-73637288D01*
X155215182Y-73461548D01*
X155189644Y-73387883D01*
X155188532Y-73384821D01*
X155187176Y-73381083D01*
X155185662Y-73377088D01*
X155167518Y-73337475D01*
X155165367Y-73332135D01*
X155164924Y-73330871D01*
X155161105Y-73319957D01*
X155157541Y-73250181D01*
X155161105Y-73238045D01*
X155217366Y-73077262D01*
X155217369Y-73077249D01*
X155237565Y-72898003D01*
X155237565Y-72897996D01*
X155217369Y-72718750D01*
X155217368Y-72718745D01*
X155167315Y-72575702D01*
X155163754Y-72505923D01*
X155167316Y-72493792D01*
X155217366Y-72350759D01*
X155217369Y-72350746D01*
X155237565Y-72171500D01*
X155237565Y-72171493D01*
X155217369Y-71992247D01*
X155217368Y-71992242D01*
X155157788Y-71821973D01*
X155061815Y-71669234D01*
X154934260Y-71541679D01*
X154836527Y-71480269D01*
X154790237Y-71427935D01*
X154778500Y-71375276D01*
X154778500Y-71163428D01*
X154779031Y-71155326D01*
X154783682Y-71119999D01*
X154783682Y-71119998D01*
X154763044Y-70963239D01*
X154763042Y-70963234D01*
X154702538Y-70817163D01*
X154702535Y-70817158D01*
X154630451Y-70723216D01*
X154630450Y-70723215D01*
X154616761Y-70705375D01*
X154606281Y-70691716D01*
X154578009Y-70670023D01*
X154571912Y-70664677D01*
X154379320Y-70472085D01*
X154373979Y-70465994D01*
X154352282Y-70437718D01*
X154226841Y-70341464D01*
X154080762Y-70280956D01*
X154080760Y-70280955D01*
X153963361Y-70265500D01*
X153924000Y-70260318D01*
X153888670Y-70264969D01*
X153880572Y-70265500D01*
X151935428Y-70265500D01*
X151927329Y-70264969D01*
X151892000Y-70260318D01*
X151852639Y-70265500D01*
X151735239Y-70280955D01*
X151735237Y-70280956D01*
X151589157Y-70341464D01*
X151463719Y-70437716D01*
X151442019Y-70465994D01*
X151436668Y-70472096D01*
X151006512Y-70902251D01*
X150945189Y-70935736D01*
X150918831Y-70938570D01*
X150902982Y-70938570D01*
X149860000Y-71981553D01*
X149170571Y-72670982D01*
X149170571Y-72686830D01*
X149150886Y-72753869D01*
X149134252Y-72774511D01*
X148450096Y-73458668D01*
X148443994Y-73464019D01*
X148415717Y-73485718D01*
X148357039Y-73562190D01*
X148343385Y-73579985D01*
X148337820Y-73587237D01*
X148319464Y-73611158D01*
X148319461Y-73611163D01*
X148258957Y-73757234D01*
X148258955Y-73757239D01*
X148238318Y-73913998D01*
X148238318Y-73914000D01*
X148242969Y-73949326D01*
X148243500Y-73957427D01*
X148243500Y-75137903D01*
X148223815Y-75204942D01*
X148207181Y-75225584D01*
X147888584Y-75544181D01*
X147827261Y-75577666D01*
X147800903Y-75580500D01*
X123156104Y-75580500D01*
X123134656Y-75577676D01*
X123134612Y-75578017D01*
X123126554Y-75576956D01*
X123009153Y-75561500D01*
X122969792Y-75556318D01*
X122934462Y-75560969D01*
X122926364Y-75561500D01*
X120857747Y-75561500D01*
X120849647Y-75560969D01*
X120814313Y-75556317D01*
X120814312Y-75556317D01*
X120643744Y-75578772D01*
X120630838Y-75588020D01*
X120511469Y-75637465D01*
X120386032Y-75733716D01*
X120364332Y-75761994D01*
X120358981Y-75768096D01*
X117278596Y-78848481D01*
X117272494Y-78853832D01*
X117244220Y-78875528D01*
X117244217Y-78875531D01*
X117244218Y-78875531D01*
X117168795Y-78973824D01*
X117168794Y-78973824D01*
X117147964Y-79000970D01*
X117087456Y-79147050D01*
X117087456Y-79147051D01*
X117075261Y-79239680D01*
X117046994Y-79303576D01*
X116988670Y-79342047D01*
X116918805Y-79342878D01*
X116908989Y-79339676D01*
X116776880Y-79290403D01*
X116776872Y-79290401D01*
X116717344Y-79284000D01*
X115619500Y-79284000D01*
X115619500Y-83784000D01*
X115119500Y-83784000D01*
X115119500Y-81784000D01*
X113569500Y-81784000D01*
X112500500Y-81784000D01*
X112500500Y-81284000D01*
X113569500Y-81284000D01*
X115119500Y-81284000D01*
X115119500Y-79284000D01*
X114021655Y-79284000D01*
X113962127Y-79290401D01*
X113962120Y-79290403D01*
X113827413Y-79340645D01*
X113827406Y-79340649D01*
X113712312Y-79426809D01*
X113712309Y-79426812D01*
X113626149Y-79541906D01*
X113626145Y-79541913D01*
X113575903Y-79676620D01*
X113575901Y-79676627D01*
X113569500Y-79736155D01*
X113569500Y-81284000D01*
X112500500Y-81284000D01*
X112500500Y-71812887D01*
X148535475Y-71812887D01*
X148575909Y-71983491D01*
X148654594Y-72140167D01*
X148719795Y-72220205D01*
X148719802Y-72220213D01*
X148817017Y-72317428D01*
X149506447Y-71628000D01*
X149506447Y-71627999D01*
X148914245Y-71035798D01*
X148719805Y-71230240D01*
X148719795Y-71230251D01*
X148654599Y-71310282D01*
X148654590Y-71310295D01*
X148575909Y-71466962D01*
X148535475Y-71637566D01*
X148535475Y-71812887D01*
X112500500Y-71812887D01*
X112500500Y-70682244D01*
X149267798Y-70682244D01*
X149860000Y-71274446D01*
X149860001Y-71274446D01*
X150549428Y-70585017D01*
X150452214Y-70487805D01*
X150452203Y-70487795D01*
X150372172Y-70422599D01*
X150372159Y-70422590D01*
X150215491Y-70343909D01*
X150044887Y-70303475D01*
X149869567Y-70303475D01*
X149698962Y-70343909D01*
X149542295Y-70422590D01*
X149542288Y-70422595D01*
X149462241Y-70487801D01*
X149462225Y-70487816D01*
X149267798Y-70682243D01*
X149267798Y-70682244D01*
X112500500Y-70682244D01*
X112500500Y-68624500D01*
X112520185Y-68557461D01*
X112572989Y-68511706D01*
X112624500Y-68500500D01*
X176375500Y-68500500D01*
X176442539Y-68520185D01*
G37*
%TD.AperFunction*%
%TD*%
%TA.AperFunction,Conductor*%
%TO.N,ePaper_SCK*%
G36*
X153404641Y-76852042D02*
G01*
X153568397Y-76919283D01*
X153666184Y-76959436D01*
X153672536Y-76965748D01*
X153672563Y-76965815D01*
X153780231Y-77228025D01*
X153780204Y-77236980D01*
X153773852Y-77243292D01*
X153773539Y-77243415D01*
X153419627Y-77376979D01*
X153410677Y-77376694D01*
X153407223Y-77374306D01*
X153278130Y-77245213D01*
X153274703Y-77236940D01*
X153277559Y-77229282D01*
X153306831Y-77195501D01*
X153357898Y-77083679D01*
X153375393Y-76962000D01*
X153369990Y-76924422D01*
X153370399Y-76919288D01*
X153389040Y-76859391D01*
X153394769Y-76852512D01*
X153403687Y-76851699D01*
X153404641Y-76852042D01*
G37*
%TD.AperFunction*%
%TD*%
%TA.AperFunction,Conductor*%
%TO.N,ePaper_SCK*%
G36*
X119124216Y-81126807D02*
G01*
X119127382Y-81129061D01*
X119258438Y-81260117D01*
X119261865Y-81268390D01*
X119261220Y-81272222D01*
X119134717Y-81637114D01*
X119128769Y-81643809D01*
X119119830Y-81644337D01*
X119119218Y-81644105D01*
X118857315Y-81536563D01*
X118850963Y-81530251D01*
X118850936Y-81530184D01*
X118818435Y-81451033D01*
X118743394Y-81268279D01*
X118743421Y-81259326D01*
X118749773Y-81253014D01*
X118750347Y-81252796D01*
X119115277Y-81126279D01*
X119124216Y-81126807D01*
G37*
%TD.AperFunction*%
%TD*%
%TA.AperFunction,Conductor*%
%TO.N,+3V0*%
G36*
X150723080Y-73960427D02*
G01*
X150725247Y-73963418D01*
X150893483Y-74295967D01*
X150894160Y-74304897D01*
X150888325Y-74311689D01*
X150887554Y-74312045D01*
X150626511Y-74421115D01*
X150617556Y-74421142D01*
X150617489Y-74421115D01*
X150356445Y-74312045D01*
X150350133Y-74305693D01*
X150350160Y-74296738D01*
X150350516Y-74295967D01*
X150518753Y-73963418D01*
X150525545Y-73957583D01*
X150529193Y-73957000D01*
X150714807Y-73957000D01*
X150723080Y-73960427D01*
G37*
%TD.AperFunction*%
%TD*%
%TA.AperFunction,Conductor*%
%TO.N,+3V0*%
G36*
X151321125Y-73098426D02*
G01*
X151325507Y-73106236D01*
X151325509Y-73108989D01*
X151231333Y-73908611D01*
X151226962Y-73916426D01*
X151218814Y-73918907D01*
X150722023Y-73880626D01*
X150722004Y-73880625D01*
X150722000Y-73880625D01*
X150721995Y-73880625D01*
X150533376Y-73880625D01*
X150525103Y-73877198D01*
X150521681Y-73869253D01*
X150503020Y-73203154D01*
X150506213Y-73194788D01*
X150513328Y-73191209D01*
X151312505Y-73096002D01*
X151321125Y-73098426D01*
G37*
%TD.AperFunction*%
%TD*%
%TA.AperFunction,Conductor*%
%TO.N,+3V0*%
G36*
X150722944Y-73945427D02*
G01*
X150725198Y-73948593D01*
X150893763Y-74296062D01*
X150894291Y-74305001D01*
X150888343Y-74311696D01*
X150887747Y-74311965D01*
X150626511Y-74421115D01*
X150617556Y-74421142D01*
X150617489Y-74421115D01*
X150356252Y-74311965D01*
X150349940Y-74305613D01*
X150349967Y-74296658D01*
X150350224Y-74296087D01*
X150518801Y-73948593D01*
X150525497Y-73942645D01*
X150529329Y-73942000D01*
X150714671Y-73942000D01*
X150722944Y-73945427D01*
G37*
%TD.AperFunction*%
%TD*%
%TA.AperFunction,Conductor*%
%TO.N,SYS_WKUP1*%
G36*
X152646222Y-86714279D02*
G01*
X152654247Y-86717061D01*
X153011115Y-86840783D01*
X153017809Y-86846730D01*
X153018337Y-86855669D01*
X153018105Y-86856281D01*
X152910563Y-87118184D01*
X152904251Y-87124536D01*
X152904184Y-87124563D01*
X152642281Y-87232105D01*
X152633326Y-87232078D01*
X152627014Y-87225726D01*
X152626792Y-87225140D01*
X152500278Y-86860222D01*
X152500807Y-86851283D01*
X152503058Y-86848120D01*
X152634118Y-86717060D01*
X152642390Y-86713634D01*
X152646222Y-86714279D01*
G37*
%TD.AperFunction*%
%TD*%
%TA.AperFunction,Conductor*%
%TO.N,SYS_WKUP1*%
G36*
X151150673Y-84979921D02*
G01*
X151156985Y-84986273D01*
X151157217Y-84986885D01*
X151283720Y-85351777D01*
X151283192Y-85360716D01*
X151280938Y-85363882D01*
X151149882Y-85494938D01*
X151141609Y-85498365D01*
X151137777Y-85497720D01*
X150842245Y-85395263D01*
X150772884Y-85371216D01*
X150766190Y-85365269D01*
X150765662Y-85356330D01*
X150765883Y-85355746D01*
X150873436Y-85093814D01*
X150879746Y-85087464D01*
X151141720Y-84979894D01*
X151150673Y-84979921D01*
G37*
%TD.AperFunction*%
%TD*%
%TA.AperFunction,Conductor*%
%TO.N,+3V0*%
G36*
X128744765Y-80915888D02*
G01*
X128927533Y-80990935D01*
X129006684Y-81023436D01*
X129013036Y-81029748D01*
X129013063Y-81029815D01*
X129120605Y-81291718D01*
X129120578Y-81300673D01*
X129114226Y-81306985D01*
X129113614Y-81307217D01*
X128748722Y-81433720D01*
X128739783Y-81433192D01*
X128736617Y-81430938D01*
X128605561Y-81299882D01*
X128602134Y-81291609D01*
X128602779Y-81287777D01*
X128729283Y-80922882D01*
X128735230Y-80916190D01*
X128744169Y-80915662D01*
X128744765Y-80915888D01*
G37*
%TD.AperFunction*%
%TD*%
%TA.AperFunction,Conductor*%
%TO.N,+3V0*%
G36*
X125746716Y-91032807D02*
G01*
X125749882Y-91035061D01*
X125880938Y-91166117D01*
X125884365Y-91174390D01*
X125883720Y-91178222D01*
X125757217Y-91543114D01*
X125751269Y-91549809D01*
X125742330Y-91550337D01*
X125741718Y-91550105D01*
X125479815Y-91442563D01*
X125473463Y-91436251D01*
X125473436Y-91436184D01*
X125440935Y-91357033D01*
X125365894Y-91174279D01*
X125365921Y-91165326D01*
X125372273Y-91159014D01*
X125372847Y-91158796D01*
X125737777Y-91032279D01*
X125746716Y-91032807D01*
G37*
%TD.AperFunction*%
%TD*%
%TA.AperFunction,Conductor*%
%TO.N,Net-(ANT1-1)*%
G36*
X165850265Y-85741888D02*
G01*
X166033033Y-85816935D01*
X166112184Y-85849436D01*
X166118536Y-85855748D01*
X166118563Y-85855815D01*
X166226105Y-86117718D01*
X166226078Y-86126673D01*
X166219726Y-86132985D01*
X166219114Y-86133217D01*
X165968213Y-86220200D01*
X165959274Y-86219672D01*
X165953326Y-86212977D01*
X165952938Y-86211584D01*
X165952474Y-86209400D01*
X165895628Y-86131158D01*
X165811872Y-86082801D01*
X165807311Y-86082321D01*
X165736941Y-86074924D01*
X165729071Y-86070651D01*
X165726528Y-86062065D01*
X165727106Y-86059470D01*
X165834783Y-85748882D01*
X165840730Y-85742190D01*
X165849670Y-85741663D01*
X165850265Y-85741888D01*
G37*
%TD.AperFunction*%
%TD*%
%TA.AperFunction,Conductor*%
%TO.N,Net-(ANT1-2)*%
G36*
X159629034Y-77602628D02*
G01*
X159654330Y-77617233D01*
X159668128Y-77625199D01*
X159764311Y-77635308D01*
X159822099Y-77616531D01*
X159831022Y-77617233D01*
X159836838Y-77624042D01*
X159837380Y-77628505D01*
X159812785Y-77967183D01*
X159808768Y-77975187D01*
X159801155Y-77978036D01*
X159519856Y-77978973D01*
X159511571Y-77975574D01*
X159509002Y-77971737D01*
X159401533Y-77711346D01*
X159401544Y-77702393D01*
X159407576Y-77696201D01*
X159618415Y-77602075D01*
X159627366Y-77601833D01*
X159629034Y-77602628D01*
G37*
%TD.AperFunction*%
%TD*%
%TA.AperFunction,Conductor*%
%TO.N,+BATT*%
G36*
X143477518Y-80540163D02*
G01*
X144758431Y-81524724D01*
X144762902Y-81532482D01*
X144760577Y-81541130D01*
X144758431Y-81543276D01*
X143477518Y-82527836D01*
X143468870Y-82530161D01*
X143462241Y-82526957D01*
X142751553Y-81837447D01*
X142748001Y-81829227D01*
X142748000Y-81829050D01*
X142748000Y-81238949D01*
X142751427Y-81230676D01*
X142751490Y-81230613D01*
X143462242Y-80541041D01*
X143470565Y-80537740D01*
X143477518Y-80540163D01*
G37*
%TD.AperFunction*%
%TD*%
%TA.AperFunction,Conductor*%
%TO.N,NRST*%
G36*
X146832673Y-78232421D02*
G01*
X146838985Y-78238773D01*
X146839217Y-78239385D01*
X146965720Y-78604277D01*
X146965192Y-78613216D01*
X146962938Y-78616382D01*
X146831882Y-78747438D01*
X146823609Y-78750865D01*
X146819777Y-78750220D01*
X146524245Y-78647763D01*
X146454884Y-78623716D01*
X146448190Y-78617769D01*
X146447662Y-78608830D01*
X146447883Y-78608246D01*
X146555436Y-78346314D01*
X146561746Y-78339964D01*
X146823720Y-78232394D01*
X146832673Y-78232421D01*
G37*
%TD.AperFunction*%
%TD*%
%TA.AperFunction,Conductor*%
%TO.N,NRST*%
G36*
X134011084Y-92696585D02*
G01*
X134012897Y-92698067D01*
X134145432Y-92830602D01*
X134148859Y-92838875D01*
X134148625Y-92841204D01*
X133905621Y-94037382D01*
X133900615Y-94044808D01*
X133891826Y-94046519D01*
X133889689Y-94045867D01*
X133121285Y-93728562D01*
X133114947Y-93722238D01*
X132797631Y-92953810D01*
X132797641Y-92944855D01*
X132803980Y-92938530D01*
X132806110Y-92937879D01*
X134002298Y-92694874D01*
X134011084Y-92696585D01*
G37*
%TD.AperFunction*%
%TD*%
%TA.AperFunction,Conductor*%
%TO.N,+3V0*%
G36*
X133493696Y-78727656D02*
G01*
X133493965Y-78728252D01*
X133603115Y-78989489D01*
X133603142Y-78998444D01*
X133603115Y-78998511D01*
X133493965Y-79259747D01*
X133487613Y-79266059D01*
X133478658Y-79266032D01*
X133478062Y-79265763D01*
X133130592Y-79097198D01*
X133124645Y-79090504D01*
X133124000Y-79086676D01*
X133124000Y-78901325D01*
X133127426Y-78893055D01*
X133130587Y-78890804D01*
X133478064Y-78722235D01*
X133487002Y-78721709D01*
X133493696Y-78727656D01*
G37*
%TD.AperFunction*%
%TD*%
%TA.AperFunction,Conductor*%
%TO.N,+3V0*%
G36*
X126344377Y-93378915D02*
G01*
X126350703Y-93385253D01*
X126351129Y-93386471D01*
X126776916Y-94859276D01*
X126775921Y-94868175D01*
X126773949Y-94870798D01*
X126642298Y-95002449D01*
X126634025Y-95005876D01*
X126630776Y-95005416D01*
X125157972Y-94579629D01*
X125150976Y-94574039D01*
X125149981Y-94565140D01*
X125150403Y-94563932D01*
X125494938Y-93729782D01*
X125501261Y-93723447D01*
X126335423Y-93378906D01*
X126344377Y-93378915D01*
G37*
%TD.AperFunction*%
%TD*%
%TA.AperFunction,Conductor*%
%TO.N,+3V0*%
G36*
X129281216Y-80618807D02*
G01*
X129284382Y-80621061D01*
X129415438Y-80752117D01*
X129418865Y-80760390D01*
X129418220Y-80764222D01*
X129291717Y-81129114D01*
X129285769Y-81135809D01*
X129276830Y-81136337D01*
X129276218Y-81136105D01*
X129014315Y-81028563D01*
X129007963Y-81022251D01*
X129007936Y-81022184D01*
X128975435Y-80943033D01*
X128900394Y-80760279D01*
X128900421Y-80751326D01*
X128906773Y-80745014D01*
X128907347Y-80744796D01*
X129272277Y-80618279D01*
X129281216Y-80618807D01*
G37*
%TD.AperFunction*%
%TD*%
%TA.AperFunction,Conductor*%
%TO.N,+3V0*%
G36*
X154690484Y-92202873D02*
G01*
X154951748Y-92312035D01*
X154958059Y-92318386D01*
X154958032Y-92327341D01*
X154957763Y-92327937D01*
X154789198Y-92675407D01*
X154782504Y-92681354D01*
X154778671Y-92682000D01*
X154593329Y-92682000D01*
X154585056Y-92678573D01*
X154582802Y-92675407D01*
X154414236Y-92327937D01*
X154413708Y-92318998D01*
X154419656Y-92312303D01*
X154420217Y-92312049D01*
X154681490Y-92202883D01*
X154690443Y-92202857D01*
X154690484Y-92202873D01*
G37*
%TD.AperFunction*%
%TD*%
%TA.AperFunction,Conductor*%
%TO.N,SWDIO*%
G36*
X128931084Y-92696585D02*
G01*
X128932897Y-92698067D01*
X129065432Y-92830602D01*
X129068859Y-92838875D01*
X129068625Y-92841204D01*
X128825621Y-94037382D01*
X128820615Y-94044808D01*
X128811826Y-94046519D01*
X128809689Y-94045867D01*
X128041285Y-93728562D01*
X128034947Y-93722238D01*
X127717631Y-92953810D01*
X127717641Y-92944855D01*
X127723980Y-92938530D01*
X127726110Y-92937879D01*
X128922298Y-92694874D01*
X128931084Y-92696585D01*
G37*
%TD.AperFunction*%
%TD*%
%TA.AperFunction,Conductor*%
%TO.N,SWDIO*%
G36*
X154697632Y-74285465D02*
G01*
X154703944Y-74291817D01*
X154704176Y-74292429D01*
X154830679Y-74657321D01*
X154830151Y-74666260D01*
X154827897Y-74669426D01*
X154696841Y-74800482D01*
X154688568Y-74803909D01*
X154684736Y-74803264D01*
X154389204Y-74700807D01*
X154319843Y-74676760D01*
X154313149Y-74670813D01*
X154312621Y-74661874D01*
X154312842Y-74661290D01*
X154420395Y-74399358D01*
X154426705Y-74393008D01*
X154688679Y-74285438D01*
X154697632Y-74285465D01*
G37*
%TD.AperFunction*%
%TD*%
%TA.AperFunction,Conductor*%
%TO.N,SWCLK*%
G36*
X131416010Y-93725990D02*
G01*
X131424279Y-93729424D01*
X131427697Y-93737489D01*
X131444640Y-94722340D01*
X131441356Y-94730671D01*
X131441215Y-94730814D01*
X131308451Y-94863578D01*
X131300178Y-94867005D01*
X131296411Y-94866382D01*
X130264026Y-94515313D01*
X130257297Y-94509405D01*
X130256716Y-94500469D01*
X130256979Y-94499770D01*
X130571757Y-93737489D01*
X130573803Y-93732532D01*
X130580128Y-93726194D01*
X130584624Y-93725299D01*
X131416010Y-93725990D01*
G37*
%TD.AperFunction*%
%TD*%
%TA.AperFunction,Conductor*%
%TO.N,SWCLK*%
G36*
X154575696Y-79235656D02*
G01*
X154575965Y-79236252D01*
X154685115Y-79497489D01*
X154685142Y-79506444D01*
X154685115Y-79506511D01*
X154575965Y-79767747D01*
X154569613Y-79774059D01*
X154560658Y-79774032D01*
X154560062Y-79773763D01*
X154212593Y-79605198D01*
X154206645Y-79598503D01*
X154206000Y-79594671D01*
X154206000Y-79414200D01*
X154209427Y-79405927D01*
X154217700Y-79402500D01*
X154261612Y-79402500D01*
X154261918Y-79402508D01*
X154263342Y-79402582D01*
X154304093Y-79404718D01*
X154331678Y-79394128D01*
X154333414Y-79393615D01*
X154353800Y-79389282D01*
X154362306Y-79387475D01*
X154362306Y-79387474D01*
X154362309Y-79387474D01*
X154375958Y-79377556D01*
X154378633Y-79376104D01*
X154394382Y-79370060D01*
X154415272Y-79349168D01*
X154416648Y-79347993D01*
X154440551Y-79330628D01*
X154448987Y-79316014D01*
X154450841Y-79313599D01*
X154508454Y-79255986D01*
X154511603Y-79253745D01*
X154560064Y-79230235D01*
X154569002Y-79229709D01*
X154575696Y-79235656D01*
G37*
%TD.AperFunction*%
%TD*%
%TA.AperFunction,Conductor*%
%TO.N,USART_TX*%
G36*
X154166265Y-72787888D02*
G01*
X154349033Y-72862935D01*
X154428184Y-72895436D01*
X154434536Y-72901748D01*
X154434563Y-72901815D01*
X154542105Y-73163718D01*
X154542078Y-73172673D01*
X154535726Y-73178985D01*
X154535114Y-73179217D01*
X154383283Y-73231855D01*
X154379451Y-73232500D01*
X154370534Y-73232500D01*
X154252585Y-73267133D01*
X154252583Y-73267134D01*
X154219856Y-73288165D01*
X154217364Y-73289376D01*
X154170224Y-73305720D01*
X154161284Y-73305193D01*
X154158118Y-73302939D01*
X154027061Y-73171882D01*
X154023634Y-73163609D01*
X154024279Y-73159777D01*
X154150783Y-72794882D01*
X154156730Y-72788190D01*
X154165669Y-72787662D01*
X154166265Y-72787888D01*
G37*
%TD.AperFunction*%
%TD*%
%TA.AperFunction,Conductor*%
%TO.N,USART_TX*%
G36*
X136385347Y-92586198D02*
G01*
X136388451Y-92588421D01*
X136521215Y-92721185D01*
X136524642Y-92729458D01*
X136524640Y-92729659D01*
X136507697Y-93714510D01*
X136504129Y-93722723D01*
X136496009Y-93726009D01*
X135664627Y-93726700D01*
X135656351Y-93723280D01*
X135653803Y-93719466D01*
X135336979Y-92952229D01*
X135336988Y-92943274D01*
X135343327Y-92936949D01*
X135343999Y-92936695D01*
X136376413Y-92585617D01*
X136385347Y-92586198D01*
G37*
%TD.AperFunction*%
%TD*%
%TA.AperFunction,Conductor*%
%TO.N,USART_RX*%
G36*
X154706673Y-73549921D02*
G01*
X154712985Y-73556273D01*
X154713217Y-73556885D01*
X154839720Y-73921777D01*
X154839192Y-73930716D01*
X154836938Y-73933882D01*
X154709955Y-74060864D01*
X154701682Y-74064291D01*
X154695359Y-74062434D01*
X154602375Y-74002678D01*
X154543399Y-73985360D01*
X154484425Y-73968044D01*
X154484424Y-73968044D01*
X154408238Y-73968044D01*
X154404406Y-73967399D01*
X154379217Y-73958666D01*
X154328884Y-73941216D01*
X154322190Y-73935269D01*
X154321662Y-73926330D01*
X154321883Y-73925746D01*
X154429436Y-73663814D01*
X154435746Y-73657464D01*
X154697720Y-73549894D01*
X154706673Y-73549921D01*
G37*
%TD.AperFunction*%
%TD*%
%TA.AperFunction,Conductor*%
%TO.N,USART_RX*%
G36*
X138299488Y-92369427D02*
G01*
X138300968Y-92371237D01*
X138974967Y-93388895D01*
X138976678Y-93397684D01*
X138971673Y-93405110D01*
X138969701Y-93406160D01*
X138201988Y-93725134D01*
X138193033Y-93725143D01*
X138193010Y-93725134D01*
X137425298Y-93406160D01*
X137418973Y-93399821D01*
X137418982Y-93390866D01*
X137420024Y-93388907D01*
X138094030Y-92371238D01*
X138101456Y-92366234D01*
X138103785Y-92366000D01*
X138291215Y-92366000D01*
X138299488Y-92369427D01*
G37*
%TD.AperFunction*%
%TD*%
%TA.AperFunction,Conductor*%
%TO.N,GDR*%
G36*
X119146037Y-87266183D02*
G01*
X119152349Y-87272535D01*
X119152771Y-87273748D01*
X119262539Y-87655750D01*
X119261530Y-87664648D01*
X119259567Y-87667254D01*
X119163254Y-87763567D01*
X119154981Y-87766994D01*
X119151750Y-87766539D01*
X118769748Y-87656771D01*
X118762743Y-87651193D01*
X118761734Y-87642295D01*
X118762156Y-87641082D01*
X118869436Y-87379815D01*
X118875746Y-87373464D01*
X119137082Y-87266156D01*
X119146037Y-87266183D01*
G37*
%TD.AperFunction*%
%TD*%
%TA.AperFunction,Conductor*%
%TO.N,GDR*%
G36*
X132322917Y-90060156D02*
G01*
X132584184Y-90167436D01*
X132590536Y-90173748D01*
X132590563Y-90173815D01*
X132697843Y-90435082D01*
X132697816Y-90444037D01*
X132691464Y-90450349D01*
X132690251Y-90450771D01*
X132308249Y-90560539D01*
X132299351Y-90559530D01*
X132296745Y-90557567D01*
X132200432Y-90461254D01*
X132197005Y-90452981D01*
X132197459Y-90449753D01*
X132307229Y-90067746D01*
X132312806Y-90060743D01*
X132321704Y-90059734D01*
X132322917Y-90060156D01*
G37*
%TD.AperFunction*%
%TD*%
%TA.AperFunction,Conductor*%
%TO.N,ePaper_BUSY*%
G36*
X118648542Y-83901567D02*
G01*
X118688026Y-83941051D01*
X118688237Y-83941273D01*
X118716503Y-83972665D01*
X118716504Y-83972666D01*
X118743483Y-83984678D01*
X118745096Y-83985554D01*
X118769861Y-84001637D01*
X118778046Y-84002932D01*
X118786518Y-84004274D01*
X118789444Y-84005141D01*
X118797590Y-84008768D01*
X118804852Y-84012002D01*
X118804855Y-84012003D01*
X118834390Y-84012003D01*
X118836220Y-84012147D01*
X118865384Y-84016766D01*
X118881671Y-84012401D01*
X118884699Y-84012003D01*
X118899122Y-84012003D01*
X118903977Y-84013058D01*
X118976559Y-84046163D01*
X118982664Y-84052714D01*
X118982527Y-84061252D01*
X118874563Y-84324184D01*
X118868251Y-84330536D01*
X118868184Y-84330563D01*
X118607540Y-84437588D01*
X118598585Y-84437561D01*
X118592273Y-84431209D01*
X118591707Y-84429441D01*
X118500685Y-84040697D01*
X118502136Y-84031863D01*
X118503800Y-84029763D01*
X118631997Y-83901566D01*
X118640269Y-83898140D01*
X118648542Y-83901567D01*
G37*
%TD.AperFunction*%
%TD*%
%TA.AperFunction,Conductor*%
%TO.N,ePaper_BUSY*%
G36*
X154279935Y-71797409D02*
G01*
X154427441Y-71850981D01*
X154535323Y-71890163D01*
X154541929Y-71896208D01*
X154542326Y-71905154D01*
X154542144Y-71905624D01*
X154434997Y-72165234D01*
X154428673Y-72171574D01*
X154424143Y-72172470D01*
X154142100Y-72171530D01*
X154133838Y-72168076D01*
X154130559Y-72161499D01*
X154079926Y-71810076D01*
X154082138Y-71801398D01*
X154089837Y-71796827D01*
X154091506Y-71796707D01*
X154275942Y-71796707D01*
X154279935Y-71797409D01*
G37*
%TD.AperFunction*%
%TD*%
%TA.AperFunction,Conductor*%
%TO.N,ePaper_RESET#*%
G36*
X152674673Y-71517921D02*
G01*
X152680985Y-71524273D01*
X152681217Y-71524885D01*
X152807720Y-71889777D01*
X152807192Y-71898716D01*
X152804938Y-71901882D01*
X152673882Y-72032938D01*
X152665609Y-72036365D01*
X152661777Y-72035720D01*
X152366245Y-71933263D01*
X152296884Y-71909216D01*
X152290190Y-71903269D01*
X152289662Y-71894330D01*
X152289883Y-71893746D01*
X152397436Y-71631814D01*
X152403746Y-71625464D01*
X152665720Y-71517894D01*
X152674673Y-71517921D01*
G37*
%TD.AperFunction*%
%TD*%
%TA.AperFunction,Conductor*%
%TO.N,ePaper_RESET#*%
G36*
X119269696Y-83518159D02*
G01*
X119269965Y-83518755D01*
X119379115Y-83779992D01*
X119379142Y-83788947D01*
X119379115Y-83789014D01*
X119269965Y-84050250D01*
X119263613Y-84056562D01*
X119254658Y-84056535D01*
X119254062Y-84056266D01*
X119166757Y-84013912D01*
X119163022Y-84011047D01*
X119154832Y-84001595D01*
X119051416Y-83935134D01*
X119042106Y-83932400D01*
X119038565Y-83930668D01*
X119031545Y-83925611D01*
X119031544Y-83925610D01*
X118958962Y-83892505D01*
X118932113Y-83883580D01*
X118932107Y-83883578D01*
X118932099Y-83883576D01*
X118927263Y-83882525D01*
X118927253Y-83882524D01*
X118910449Y-83880719D01*
X118902590Y-83876428D01*
X118900000Y-83869088D01*
X118900000Y-83691831D01*
X118903427Y-83683558D01*
X118906590Y-83681305D01*
X119254064Y-83512738D01*
X119263001Y-83512211D01*
X119269696Y-83518159D01*
G37*
%TD.AperFunction*%
%TD*%
%TA.AperFunction,Conductor*%
%TO.N,ePaper_D{slash}C#*%
G36*
X118609485Y-82651322D02*
G01*
X118621412Y-82655416D01*
X118623929Y-82656633D01*
X118674084Y-82688866D01*
X118765261Y-82715638D01*
X118792034Y-82723500D01*
X118817814Y-82723500D01*
X118821611Y-82724133D01*
X118975065Y-82776806D01*
X118981778Y-82782733D01*
X118982333Y-82791670D01*
X118982090Y-82792316D01*
X118874563Y-83054184D01*
X118868251Y-83060536D01*
X118868184Y-83060563D01*
X118606252Y-83168117D01*
X118597297Y-83168090D01*
X118590985Y-83161738D01*
X118590773Y-83161183D01*
X118463586Y-82797309D01*
X118464091Y-82788370D01*
X118466355Y-82785180D01*
X118597420Y-82654115D01*
X118605692Y-82650689D01*
X118609485Y-82651322D01*
G37*
%TD.AperFunction*%
%TD*%
%TA.AperFunction,Conductor*%
%TO.N,ePaper_D{slash}C#*%
G36*
X153751914Y-71808200D02*
G01*
X153758225Y-71814551D01*
X153758198Y-71823506D01*
X153757929Y-71824102D01*
X153589364Y-72171572D01*
X153582670Y-72177519D01*
X153578837Y-72178165D01*
X153393495Y-72178165D01*
X153385222Y-72174738D01*
X153382968Y-72171572D01*
X153214402Y-71824102D01*
X153213874Y-71815163D01*
X153219822Y-71808468D01*
X153220383Y-71808214D01*
X153481656Y-71699048D01*
X153490610Y-71699022D01*
X153751914Y-71808200D01*
G37*
%TD.AperFunction*%
%TD*%
%TA.AperFunction,Conductor*%
%TO.N,ePaper_CS#*%
G36*
X119124216Y-81888807D02*
G01*
X119127382Y-81891061D01*
X119258438Y-82022117D01*
X119261865Y-82030390D01*
X119261220Y-82034222D01*
X119134717Y-82399114D01*
X119128769Y-82405809D01*
X119119830Y-82406337D01*
X119119218Y-82406105D01*
X118857315Y-82298563D01*
X118850963Y-82292251D01*
X118850936Y-82292184D01*
X118818435Y-82213033D01*
X118743394Y-82030279D01*
X118743421Y-82021326D01*
X118749773Y-82015014D01*
X118750347Y-82014796D01*
X118872460Y-81972460D01*
X118902217Y-81962145D01*
X118906049Y-81961500D01*
X118914965Y-81961500D01*
X119032916Y-81926866D01*
X119065647Y-81905830D01*
X119068129Y-81904624D01*
X119115277Y-81888279D01*
X119124216Y-81888807D01*
G37*
%TD.AperFunction*%
%TD*%
%TA.AperFunction,Conductor*%
%TO.N,ePaper_MOSI*%
G36*
X119124216Y-80168859D02*
G01*
X119127382Y-80171113D01*
X119254994Y-80298725D01*
X119258421Y-80306998D01*
X119254994Y-80315271D01*
X119223449Y-80346815D01*
X119223227Y-80347026D01*
X119191837Y-80375291D01*
X119191836Y-80375292D01*
X119179826Y-80402266D01*
X119178951Y-80403879D01*
X119162865Y-80428651D01*
X119162865Y-80428652D01*
X119160228Y-80445302D01*
X119159361Y-80448230D01*
X119152500Y-80463640D01*
X119152500Y-80493178D01*
X119152356Y-80495008D01*
X119147737Y-80524173D01*
X119152101Y-80540457D01*
X119152500Y-80543486D01*
X119152500Y-80625900D01*
X119151855Y-80629732D01*
X119134717Y-80679166D01*
X119128769Y-80685861D01*
X119119830Y-80686389D01*
X119119218Y-80686157D01*
X118857315Y-80578615D01*
X118850963Y-80572303D01*
X118850936Y-80572236D01*
X118791978Y-80428652D01*
X118743394Y-80310331D01*
X118743421Y-80301378D01*
X118749773Y-80295066D01*
X118750347Y-80294848D01*
X119115277Y-80168331D01*
X119124216Y-80168859D01*
G37*
%TD.AperFunction*%
%TD*%
%TA.AperFunction,Conductor*%
%TO.N,ePaper_MOSI*%
G36*
X152675835Y-76851116D02*
G01*
X152937234Y-76959002D01*
X152943574Y-76965326D01*
X152944470Y-76969856D01*
X152943538Y-77249839D01*
X152940084Y-77258101D01*
X152931838Y-77261500D01*
X152554959Y-77261500D01*
X152546686Y-77258073D01*
X152543259Y-77249800D01*
X152543259Y-77065115D01*
X152544807Y-77059299D01*
X152591945Y-76977026D01*
X152661222Y-76856115D01*
X152668307Y-76850641D01*
X152675835Y-76851116D01*
G37*
%TD.AperFunction*%
%TD*%
M02*
