%TF.GenerationSoftware,KiCad,Pcbnew,7.0.5*%
%TF.CreationDate,2023-07-02T17:57:48+02:00*%
%TF.ProjectId,eink-NFC,65696e6b-2d4e-4464-932e-6b696361645f,rev?*%
%TF.SameCoordinates,Original*%
%TF.FileFunction,Paste,Bot*%
%TF.FilePolarity,Positive*%
%FSLAX46Y46*%
G04 Gerber Fmt 4.6, Leading zero omitted, Abs format (unit mm)*
G04 Created by KiCad (PCBNEW 7.0.5) date 2023-07-02 17:57:48*
%MOMM*%
%LPD*%
G01*
G04 APERTURE LIST*
G04 Aperture macros list*
%AMRoundRect*
0 Rectangle with rounded corners*
0 $1 Rounding radius*
0 $2 $3 $4 $5 $6 $7 $8 $9 X,Y pos of 4 corners*
0 Add a 4 corners polygon primitive as box body*
4,1,4,$2,$3,$4,$5,$6,$7,$8,$9,$2,$3,0*
0 Add four circle primitives for the rounded corners*
1,1,$1+$1,$2,$3*
1,1,$1+$1,$4,$5*
1,1,$1+$1,$6,$7*
1,1,$1+$1,$8,$9*
0 Add four rect primitives between the rounded corners*
20,1,$1+$1,$2,$3,$4,$5,0*
20,1,$1+$1,$4,$5,$6,$7,0*
20,1,$1+$1,$6,$7,$8,$9,0*
20,1,$1+$1,$8,$9,$2,$3,0*%
G04 Aperture macros list end*
%ADD10RoundRect,0.250000X0.337500X0.475000X-0.337500X0.475000X-0.337500X-0.475000X0.337500X-0.475000X0*%
%ADD11R,3.600000X1.500000*%
%ADD12RoundRect,0.250000X-0.350000X-0.450000X0.350000X-0.450000X0.350000X0.450000X-0.350000X0.450000X0*%
%ADD13RoundRect,0.250000X-0.475000X0.337500X-0.475000X-0.337500X0.475000X-0.337500X0.475000X0.337500X0*%
%ADD14R,0.800000X0.300000*%
%ADD15R,1.000000X0.950000*%
%ADD16RoundRect,0.250000X0.400000X0.625000X-0.400000X0.625000X-0.400000X-0.625000X0.400000X-0.625000X0*%
%ADD17RoundRect,0.225000X-0.225000X-0.375000X0.225000X-0.375000X0.225000X0.375000X-0.225000X0.375000X0*%
%ADD18R,1.500000X0.450000*%
%ADD19RoundRect,0.250000X0.450000X-0.350000X0.450000X0.350000X-0.450000X0.350000X-0.450000X-0.350000X0*%
%ADD20RoundRect,0.250001X0.624999X-0.462499X0.624999X0.462499X-0.624999X0.462499X-0.624999X-0.462499X0*%
%ADD21R,1.701800X2.209800*%
%ADD22RoundRect,0.075000X-0.662500X-0.075000X0.662500X-0.075000X0.662500X0.075000X-0.662500X0.075000X0*%
%ADD23RoundRect,0.075000X-0.075000X-0.662500X0.075000X-0.662500X0.075000X0.662500X-0.075000X0.662500X0*%
%ADD24RoundRect,0.250000X0.350000X0.450000X-0.350000X0.450000X-0.350000X-0.450000X0.350000X-0.450000X0*%
%ADD25RoundRect,0.250000X1.050000X0.550000X-1.050000X0.550000X-1.050000X-0.550000X1.050000X-0.550000X0*%
%ADD26R,0.400000X1.100000*%
%ADD27RoundRect,0.250000X-0.337500X-0.475000X0.337500X-0.475000X0.337500X0.475000X-0.337500X0.475000X0*%
%ADD28RoundRect,0.225000X0.225000X0.375000X-0.225000X0.375000X-0.225000X-0.375000X0.225000X-0.375000X0*%
G04 APERTURE END LIST*
D10*
%TO.C,C15*%
X151913500Y-88900000D03*
X149838500Y-88900000D03*
%TD*%
D11*
%TO.C,L1*%
X136927500Y-78232000D03*
X136927500Y-81282000D03*
%TD*%
D10*
%TO.C,C12*%
X123719500Y-69850000D03*
X121644500Y-69850000D03*
%TD*%
D12*
%TO.C,R4*%
X143309500Y-71120000D03*
X145309500Y-71120000D03*
%TD*%
D10*
%TO.C,C7*%
X123762500Y-81280000D03*
X121687500Y-81280000D03*
%TD*%
D13*
%TO.C,C13*%
X118893500Y-69574500D03*
X118893500Y-71649500D03*
%TD*%
D10*
%TO.C,C6*%
X123719500Y-83566000D03*
X121644500Y-83566000D03*
%TD*%
D14*
%TO.C,J3*%
X117762000Y-87655000D03*
X117762000Y-87155000D03*
X117762000Y-86655000D03*
X117762000Y-86155000D03*
X117762000Y-85655000D03*
X117762000Y-85155000D03*
X117762000Y-84655000D03*
X117762000Y-84155000D03*
X117762000Y-83655000D03*
X117762000Y-83155000D03*
X117762000Y-82655000D03*
X117762000Y-82155000D03*
X117762000Y-81655000D03*
X117762000Y-81155000D03*
X117762000Y-80655000D03*
X117762000Y-80155000D03*
X117762000Y-79655000D03*
X117762000Y-79155000D03*
X117762000Y-78655000D03*
X117762000Y-78155000D03*
X117762000Y-77655000D03*
X117762000Y-77155000D03*
X117762000Y-76655000D03*
X117762000Y-76155000D03*
D15*
X115062000Y-88880000D03*
X115062000Y-74930000D03*
%TD*%
D16*
%TO.C,R7*%
X138731500Y-71882000D03*
X135631500Y-71882000D03*
%TD*%
D17*
%TO.C,D3*%
X127890000Y-84328000D03*
X131190000Y-84328000D03*
%TD*%
D18*
%TO.C,Q1*%
X128210000Y-76708000D03*
X130870000Y-77358000D03*
X130870000Y-76058000D03*
%TD*%
D19*
%TO.C,R5*%
X153183500Y-93186000D03*
X153183500Y-91186000D03*
%TD*%
D20*
%TO.C,F1*%
X140991500Y-74893500D03*
X140991500Y-71918500D03*
%TD*%
D10*
%TO.C,C10*%
X123719500Y-74422000D03*
X121644500Y-74422000D03*
%TD*%
%TO.C,C3*%
X137711000Y-83820000D03*
X135636000Y-83820000D03*
%TD*%
D21*
%TO.C,CR1*%
X140991500Y-81534000D03*
X140991500Y-77673200D03*
%TD*%
D19*
%TO.C,R6*%
X155977500Y-93186000D03*
X155977500Y-91186000D03*
%TD*%
D22*
%TO.C,U1*%
X147751000Y-76918000D03*
X147751000Y-76418000D03*
X147751000Y-75918000D03*
X147751000Y-75418000D03*
X147751000Y-74918000D03*
X147751000Y-74418000D03*
X147751000Y-73918000D03*
X147751000Y-73418000D03*
X147751000Y-72918000D03*
X147751000Y-72418000D03*
X147751000Y-71918000D03*
X147751000Y-71418000D03*
D23*
X149163500Y-70005500D03*
X149663500Y-70005500D03*
X150163500Y-70005500D03*
X150663500Y-70005500D03*
X151163500Y-70005500D03*
X151663500Y-70005500D03*
X152163500Y-70005500D03*
X152663500Y-70005500D03*
X153163500Y-70005500D03*
X153663500Y-70005500D03*
X154163500Y-70005500D03*
X154663500Y-70005500D03*
D22*
X156076000Y-71418000D03*
X156076000Y-71918000D03*
X156076000Y-72418000D03*
X156076000Y-72918000D03*
X156076000Y-73418000D03*
X156076000Y-73918000D03*
X156076000Y-74418000D03*
X156076000Y-74918000D03*
X156076000Y-75418000D03*
X156076000Y-75918000D03*
X156076000Y-76418000D03*
X156076000Y-76918000D03*
D23*
X154663500Y-78330500D03*
X154163500Y-78330500D03*
X153663500Y-78330500D03*
X153163500Y-78330500D03*
X152663500Y-78330500D03*
X152163500Y-78330500D03*
X151663500Y-78330500D03*
X151163500Y-78330500D03*
X150663500Y-78330500D03*
X150163500Y-78330500D03*
X149663500Y-78330500D03*
X149163500Y-78330500D03*
%TD*%
D10*
%TO.C,C9*%
X123719500Y-76708000D03*
X121644500Y-76708000D03*
%TD*%
D24*
%TO.C,R3*%
X150844000Y-80518000D03*
X148844000Y-80518000D03*
%TD*%
D25*
%TO.C,C16*%
X132885500Y-71882000D03*
X129285500Y-71882000D03*
%TD*%
D17*
%TO.C,D1*%
X127890000Y-89662000D03*
X131190000Y-89662000D03*
%TD*%
D10*
%TO.C,C14*%
X123719500Y-88646000D03*
X121644500Y-88646000D03*
%TD*%
%TO.C,C8*%
X123762500Y-78994000D03*
X121687500Y-78994000D03*
%TD*%
%TO.C,C5*%
X123719500Y-85852000D03*
X121644500Y-85852000D03*
%TD*%
D19*
%TO.C,R2*%
X143023500Y-88868000D03*
X143023500Y-86868000D03*
%TD*%
D10*
%TO.C,C2*%
X131085500Y-79248000D03*
X129010500Y-79248000D03*
%TD*%
D19*
%TO.C,R1*%
X140737500Y-88868000D03*
X140737500Y-86868000D03*
%TD*%
D26*
%TO.C,RF1*%
X153986500Y-84464000D03*
X154636500Y-84464000D03*
X155286500Y-84464000D03*
X155936500Y-84464000D03*
X155936500Y-88764000D03*
X155286500Y-88764000D03*
X154636500Y-88764000D03*
X153986500Y-88764000D03*
%TD*%
D27*
%TO.C,C1*%
X117348000Y-93980000D03*
X119423000Y-93980000D03*
%TD*%
D28*
%TO.C,D2*%
X131190000Y-87122000D03*
X127890000Y-87122000D03*
%TD*%
D10*
%TO.C,C11*%
X123719500Y-72136000D03*
X121644500Y-72136000D03*
%TD*%
M02*
