%TF.GenerationSoftware,KiCad,Pcbnew,7.0.5*%
%TF.CreationDate,2023-07-22T13:56:16+02:00*%
%TF.ProjectId,eink-NFC,65696e6b-2d4e-4464-932e-6b696361645f,rev?*%
%TF.SameCoordinates,Original*%
%TF.FileFunction,Copper,L2,Bot*%
%TF.FilePolarity,Positive*%
%FSLAX46Y46*%
G04 Gerber Fmt 4.6, Leading zero omitted, Abs format (unit mm)*
G04 Created by KiCad (PCBNEW 7.0.5) date 2023-07-22 13:56:16*
%MOMM*%
%LPD*%
G01*
G04 APERTURE LIST*
G04 Aperture macros list*
%AMRoundRect*
0 Rectangle with rounded corners*
0 $1 Rounding radius*
0 $2 $3 $4 $5 $6 $7 $8 $9 X,Y pos of 4 corners*
0 Add a 4 corners polygon primitive as box body*
4,1,4,$2,$3,$4,$5,$6,$7,$8,$9,$2,$3,0*
0 Add four circle primitives for the rounded corners*
1,1,$1+$1,$2,$3*
1,1,$1+$1,$4,$5*
1,1,$1+$1,$6,$7*
1,1,$1+$1,$8,$9*
0 Add four rect primitives between the rounded corners*
20,1,$1+$1,$2,$3,$4,$5,0*
20,1,$1+$1,$4,$5,$6,$7,0*
20,1,$1+$1,$6,$7,$8,$9,0*
20,1,$1+$1,$8,$9,$2,$3,0*%
G04 Aperture macros list end*
%TA.AperFunction,SMDPad,CuDef*%
%ADD10RoundRect,0.075000X-0.075000X-0.662500X0.075000X-0.662500X0.075000X0.662500X-0.075000X0.662500X0*%
%TD*%
%TA.AperFunction,SMDPad,CuDef*%
%ADD11RoundRect,0.075000X-0.662500X-0.075000X0.662500X-0.075000X0.662500X0.075000X-0.662500X0.075000X0*%
%TD*%
%TA.AperFunction,SMDPad,CuDef*%
%ADD12R,1.500000X0.450000*%
%TD*%
%TA.AperFunction,SMDPad,CuDef*%
%ADD13RoundRect,0.150000X0.150000X-0.512500X0.150000X0.512500X-0.150000X0.512500X-0.150000X-0.512500X0*%
%TD*%
%TA.AperFunction,SMDPad,CuDef*%
%ADD14RoundRect,0.150000X-0.150000X0.825000X-0.150000X-0.825000X0.150000X-0.825000X0.150000X0.825000X0*%
%TD*%
%TA.AperFunction,ComponentPad*%
%ADD15C,1.800000*%
%TD*%
%TA.AperFunction,ComponentPad*%
%ADD16O,1.700000X1.700000*%
%TD*%
%TA.AperFunction,ComponentPad*%
%ADD17R,1.700000X1.700000*%
%TD*%
%TA.AperFunction,SMDPad,CuDef*%
%ADD18RoundRect,0.250000X0.337500X0.475000X-0.337500X0.475000X-0.337500X-0.475000X0.337500X-0.475000X0*%
%TD*%
%TA.AperFunction,SMDPad,CuDef*%
%ADD19R,3.600000X1.500000*%
%TD*%
%TA.AperFunction,SMDPad,CuDef*%
%ADD20RoundRect,0.250000X-0.350000X-0.450000X0.350000X-0.450000X0.350000X0.450000X-0.350000X0.450000X0*%
%TD*%
%TA.AperFunction,SMDPad,CuDef*%
%ADD21RoundRect,0.250000X-0.475000X0.337500X-0.475000X-0.337500X0.475000X-0.337500X0.475000X0.337500X0*%
%TD*%
%TA.AperFunction,SMDPad,CuDef*%
%ADD22R,0.800000X0.300000*%
%TD*%
%TA.AperFunction,SMDPad,CuDef*%
%ADD23R,1.000000X0.950000*%
%TD*%
%TA.AperFunction,SMDPad,CuDef*%
%ADD24RoundRect,0.250000X0.400000X0.625000X-0.400000X0.625000X-0.400000X-0.625000X0.400000X-0.625000X0*%
%TD*%
%TA.AperFunction,SMDPad,CuDef*%
%ADD25RoundRect,0.225000X-0.225000X-0.375000X0.225000X-0.375000X0.225000X0.375000X-0.225000X0.375000X0*%
%TD*%
%TA.AperFunction,SMDPad,CuDef*%
%ADD26RoundRect,0.250000X0.450000X-0.350000X0.450000X0.350000X-0.450000X0.350000X-0.450000X-0.350000X0*%
%TD*%
%TA.AperFunction,SMDPad,CuDef*%
%ADD27RoundRect,0.250001X0.624999X-0.462499X0.624999X0.462499X-0.624999X0.462499X-0.624999X-0.462499X0*%
%TD*%
%TA.AperFunction,SMDPad,CuDef*%
%ADD28R,1.701800X2.209800*%
%TD*%
%TA.AperFunction,SMDPad,CuDef*%
%ADD29R,1.000000X1.500000*%
%TD*%
%TA.AperFunction,SMDPad,CuDef*%
%ADD30RoundRect,0.250000X-0.450000X0.350000X-0.450000X-0.350000X0.450000X-0.350000X0.450000X0.350000X0*%
%TD*%
%TA.AperFunction,SMDPad,CuDef*%
%ADD31C,3.000000*%
%TD*%
%TA.AperFunction,SMDPad,CuDef*%
%ADD32RoundRect,0.250000X-0.337500X-0.475000X0.337500X-0.475000X0.337500X0.475000X-0.337500X0.475000X0*%
%TD*%
%TA.AperFunction,SMDPad,CuDef*%
%ADD33RoundRect,0.225000X0.225000X0.375000X-0.225000X0.375000X-0.225000X-0.375000X0.225000X-0.375000X0*%
%TD*%
%TA.AperFunction,ViaPad*%
%ADD34C,0.600000*%
%TD*%
%TA.AperFunction,Conductor*%
%ADD35C,0.200000*%
%TD*%
%TA.AperFunction,Conductor*%
%ADD36C,0.150000*%
%TD*%
%TA.AperFunction,Conductor*%
%ADD37C,0.600000*%
%TD*%
%TA.AperFunction,Conductor*%
%ADD38C,0.400000*%
%TD*%
%TA.AperFunction,Conductor*%
%ADD39C,0.127000*%
%TD*%
G04 APERTURE END LIST*
D10*
%TO.P,U1,48,VDD*%
%TO.N,VDD*%
X149163500Y-78329500D03*
%TO.P,U1,47,VSS*%
%TO.N,GND*%
X149663500Y-78329500D03*
%TO.P,U1,46,PB9*%
%TO.N,unconnected-(U1-PB9-Pad46)*%
X150163500Y-78329500D03*
%TO.P,U1,45,PB8*%
%TO.N,unconnected-(U1-PB8-Pad45)*%
X150663500Y-78329500D03*
%TO.P,U1,44,BOOT0*%
%TO.N,/BOOT0*%
X151163500Y-78329500D03*
%TO.P,U1,43,PB7*%
%TO.N,ST25DV_SDA*%
X151663500Y-78329500D03*
%TO.P,U1,42,PB6*%
%TO.N,ST25DV_SCL*%
X152163500Y-78329500D03*
%TO.P,U1,41,PB5*%
%TO.N,ePaper_MOSI*%
X152663500Y-78329500D03*
%TO.P,U1,40,PB4*%
%TO.N,unconnected-(U1-PB4-Pad40)*%
X153163500Y-78329500D03*
%TO.P,U1,39,PB3*%
%TO.N,ePaper_SCK*%
X153663500Y-78329500D03*
%TO.P,U1,38,PA15*%
%TO.N,ePaper_CS#*%
X154163500Y-78329500D03*
%TO.P,U1,37,PA14*%
%TO.N,SWCLK*%
X154663500Y-78329500D03*
D11*
%TO.P,U1,36,VDD_USB*%
%TO.N,VDD*%
X156076000Y-76917000D03*
%TO.P,U1,35,VSS*%
%TO.N,GND*%
X156076000Y-76417000D03*
%TO.P,U1,34,PA13*%
%TO.N,SWDIO*%
X156076000Y-75917000D03*
%TO.P,U1,33,PA12*%
%TO.N,unconnected-(U1-PA12-Pad33)*%
X156076000Y-75417000D03*
%TO.P,U1,32,PA11*%
%TO.N,unconnected-(U1-PA11-Pad32)*%
X156076000Y-74917000D03*
%TO.P,U1,31,PA10*%
%TO.N,USART_RX*%
X156076000Y-74417000D03*
%TO.P,U1,30,PA9*%
%TO.N,USART_TX*%
X156076000Y-73917000D03*
%TO.P,U1,29,PA8*%
%TO.N,ePaper_BUSY*%
X156076000Y-73417000D03*
%TO.P,U1,28,PB15*%
%TO.N,unconnected-(U1-PB15-Pad28)*%
X156076000Y-72917000D03*
%TO.P,U1,27,PB14*%
%TO.N,unconnected-(U1-PB14-Pad27)*%
X156076000Y-72417000D03*
%TO.P,U1,26,PB13*%
%TO.N,unconnected-(U1-PB13-Pad26)*%
X156076000Y-71917000D03*
%TO.P,U1,25,PB12*%
%TO.N,unconnected-(U1-PB12-Pad25)*%
X156076000Y-71417000D03*
D10*
%TO.P,U1,24,VDD*%
%TO.N,VDD*%
X154663500Y-70004500D03*
%TO.P,U1,23,VSS*%
%TO.N,GND*%
X154163500Y-70004500D03*
%TO.P,U1,22,PB11*%
%TO.N,ePaper_D{slash}C#*%
X153663500Y-70004500D03*
%TO.P,U1,21,PB10*%
%TO.N,unconnected-(U1-PB10-Pad21)*%
X153163500Y-70004500D03*
%TO.P,U1,20,PB2*%
%TO.N,ePaper_RESET#*%
X152663500Y-70004500D03*
%TO.P,U1,19,PB1*%
%TO.N,unconnected-(U1-PB1-Pad19)*%
X152163500Y-70004500D03*
%TO.P,U1,18,PB0*%
%TO.N,unconnected-(U1-PB0-Pad18)*%
X151663500Y-70004500D03*
%TO.P,U1,17,PA7*%
%TO.N,unconnected-(U1-PA7-Pad17)*%
X151163500Y-70004500D03*
%TO.P,U1,16,PA6*%
%TO.N,unconnected-(U1-PA6-Pad16)*%
X150663500Y-70004500D03*
%TO.P,U1,15,PA5*%
%TO.N,unconnected-(U1-PA5-Pad15)*%
X150163500Y-70004500D03*
%TO.P,U1,14,PA4*%
%TO.N,unconnected-(U1-PA4-Pad14)*%
X149663500Y-70004500D03*
%TO.P,U1,13,PA3*%
%TO.N,unconnected-(U1-PA3-Pad13)*%
X149163500Y-70004500D03*
D11*
%TO.P,U1,12,PA2*%
%TO.N,unconnected-(U1-PA2-Pad12)*%
X147751000Y-71417000D03*
%TO.P,U1,11,PA1*%
%TO.N,unconnected-(U1-PA1-Pad11)*%
X147751000Y-71917000D03*
%TO.P,U1,10,PA0*%
%TO.N,SYS_WKUP1*%
X147751000Y-72417000D03*
%TO.P,U1,9,VDDA*%
%TO.N,VDD*%
X147751000Y-72917000D03*
%TO.P,U1,8,VSSA*%
%TO.N,GND*%
X147751000Y-73417000D03*
%TO.P,U1,7,NRST*%
%TO.N,NRST*%
X147751000Y-73917000D03*
%TO.P,U1,6,PH1*%
%TO.N,unconnected-(U1-PH1-Pad6)*%
X147751000Y-74417000D03*
%TO.P,U1,5,PH0*%
%TO.N,unconnected-(U1-PH0-Pad5)*%
X147751000Y-74917000D03*
%TO.P,U1,4,PC15*%
%TO.N,unconnected-(U1-PC15-Pad4)*%
X147751000Y-75417000D03*
%TO.P,U1,3,PC14*%
%TO.N,unconnected-(U1-PC14-Pad3)*%
X147751000Y-75917000D03*
%TO.P,U1,2,PC13*%
%TO.N,unconnected-(U1-PC13-Pad2)*%
X147751000Y-76417000D03*
%TO.P,U1,1,VLCD*%
%TO.N,VDD*%
X147751000Y-76917000D03*
%TD*%
D12*
%TO.P,Q1,1,G*%
%TO.N,GDR*%
X128210000Y-77358000D03*
%TO.P,Q1,2,S*%
%TO.N,RESE*%
X128210000Y-76058000D03*
%TO.P,Q1,3,D*%
%TO.N,Net-(D3-A)*%
X130870000Y-76708000D03*
%TD*%
D13*
%TO.P,U2,1,VIN*%
%TO.N,Net-(U2-EN)*%
X132080000Y-72379000D03*
%TO.P,U2,2,GND*%
%TO.N,GND*%
X131130000Y-72379000D03*
%TO.P,U2,3,EN*%
%TO.N,Net-(U2-EN)*%
X130180000Y-72379000D03*
%TO.P,U2,4,NC*%
%TO.N,unconnected-(U2-NC-Pad4)*%
X130180000Y-70104000D03*
%TO.P,U2,5,VOUT*%
%TO.N,VDD*%
X132080000Y-70104000D03*
%TD*%
D14*
%TO.P,RF1,8,VCC*%
%TO.N,VDD*%
X153949400Y-88987400D03*
%TO.P,RF1,7,GPO*%
%TO.N,SYS_WKUP1*%
X155219400Y-88987400D03*
%TO.P,RF1,6,SCL*%
%TO.N,ST25DV_SCL*%
X156489400Y-88987400D03*
%TO.P,RF1,5,SDA*%
%TO.N,ST25DV_SDA*%
X157759400Y-88987400D03*
%TO.P,RF1,4,GND*%
%TO.N,GND*%
X157759400Y-84037400D03*
%TO.P,RF1,3,AC1*%
%TO.N,Net-(ANT1-1)*%
X156489400Y-84037400D03*
%TO.P,RF1,2,AC0*%
%TO.N,Net-(ANT1-2)*%
X155219400Y-84037400D03*
%TO.P,RF1,1,V_EH*%
%TO.N,Net-(JP1-B)*%
X153949400Y-84037400D03*
%TD*%
D15*
%TO.P,S1,1,COM*%
%TO.N,NRST*%
X115131500Y-93980000D03*
%TO.P,S1,2,NO*%
%TO.N,GND*%
X121531500Y-93980000D03*
%TD*%
D16*
%TO.P,J2,8,Pin_8*%
%TO.N,GND*%
X143276793Y-93725293D03*
%TO.P,J2,7,Pin_7*%
X140736793Y-93725293D03*
%TO.P,J2,6,Pin_6*%
%TO.N,USART_RX*%
X138196793Y-93725293D03*
%TO.P,J2,5,Pin_5*%
%TO.N,USART_TX*%
X135656793Y-93725293D03*
%TO.P,J2,4,Pin_4*%
%TO.N,NRST*%
X133116793Y-93725293D03*
%TO.P,J2,3,Pin_3*%
%TO.N,SWCLK*%
X130576793Y-93725293D03*
%TO.P,J2,2,Pin_2*%
%TO.N,SWDIO*%
X128036793Y-93725293D03*
D17*
%TO.P,J2,1,Pin_1*%
%TO.N,VDD*%
X125496793Y-93725293D03*
%TD*%
D18*
%TO.P,C15,1*%
%TO.N,VDD*%
X151913500Y-88900000D03*
%TO.P,C15,2*%
%TO.N,GND*%
X149838500Y-88900000D03*
%TD*%
D19*
%TO.P,L1,1,1*%
%TO.N,VDD*%
X136927500Y-78232000D03*
%TO.P,L1,2,2*%
%TO.N,Net-(D3-A)*%
X136927500Y-81282000D03*
%TD*%
D18*
%TO.P,C12,1*%
%TO.N,GND*%
X123719500Y-69850000D03*
%TO.P,C12,2*%
%TO.N,/VCOM*%
X121644500Y-69850000D03*
%TD*%
D20*
%TO.P,R4,1*%
%TO.N,VDD*%
X143309500Y-71120000D03*
%TO.P,R4,2*%
%TO.N,SYS_WKUP1*%
X145309500Y-71120000D03*
%TD*%
D18*
%TO.P,C7,1*%
%TO.N,GND*%
X123762500Y-81280000D03*
%TO.P,C7,2*%
%TO.N,/VPP*%
X121687500Y-81280000D03*
%TD*%
D21*
%TO.P,C13,1*%
%TO.N,GND*%
X118893500Y-69574500D03*
%TO.P,C13,2*%
%TO.N,/VGL*%
X118893500Y-71649500D03*
%TD*%
D18*
%TO.P,C6,1*%
%TO.N,GND*%
X123719500Y-83566000D03*
%TO.P,C6,2*%
%TO.N,/VDD_eink*%
X121644500Y-83566000D03*
%TD*%
D22*
%TO.P,J3,1,1*%
%TO.N,/HLT_CTL*%
X117762000Y-87655000D03*
%TO.P,J3,2,2*%
%TO.N,GDR*%
X117762000Y-87155000D03*
%TO.P,J3,3,3*%
%TO.N,RESE*%
X117762000Y-86655000D03*
%TO.P,J3,4,4*%
%TO.N,/VGL*%
X117762000Y-86155000D03*
%TO.P,J3,5,5*%
%TO.N,/VGH*%
X117762000Y-85655000D03*
%TO.P,J3,6,6*%
%TO.N,/TSCL*%
X117762000Y-85155000D03*
%TO.P,J3,7,7*%
%TO.N,/TSDA*%
X117762000Y-84655000D03*
%TO.P,J3,8,8*%
%TO.N,GND*%
X117762000Y-84155000D03*
%TO.P,J3,9,9*%
%TO.N,ePaper_BUSY*%
X117762000Y-83655000D03*
%TO.P,J3,10,10*%
%TO.N,ePaper_RESET#*%
X117762000Y-83155000D03*
%TO.P,J3,11,11*%
%TO.N,ePaper_D{slash}C#*%
X117762000Y-82655000D03*
%TO.P,J3,12,12*%
%TO.N,ePaper_CS#*%
X117762000Y-82155000D03*
%TO.P,J3,13,13*%
%TO.N,ePaper_SCK*%
X117762000Y-81655000D03*
%TO.P,J3,14,14*%
%TO.N,ePaper_MOSI*%
X117762000Y-81155000D03*
%TO.P,J3,15,15*%
%TO.N,VDD*%
X117762000Y-80655000D03*
%TO.P,J3,16,16*%
X117762000Y-80155000D03*
%TO.P,J3,17,17*%
%TO.N,GND*%
X117762000Y-79655000D03*
%TO.P,J3,18,18*%
%TO.N,/VDD_eink*%
X117762000Y-79155000D03*
%TO.P,J3,19,19*%
%TO.N,/VPP*%
X117762000Y-78655000D03*
%TO.P,J3,20,20*%
%TO.N,/VSH*%
X117762000Y-78155000D03*
%TO.P,J3,21,21*%
%TO.N,PREVGH*%
X117762000Y-77655000D03*
%TO.P,J3,22,22*%
%TO.N,/VSL*%
X117762000Y-77155000D03*
%TO.P,J3,23,23*%
%TO.N,PREVGL*%
X117762000Y-76655000D03*
%TO.P,J3,24,24*%
%TO.N,/VCOM*%
X117762000Y-76155000D03*
D23*
%TO.P,J3,MP1,MP1*%
%TO.N,GND*%
X115062000Y-88880000D03*
%TO.P,J3,MP2,MP2*%
X115062000Y-74930000D03*
%TD*%
D24*
%TO.P,R7,1*%
%TO.N,Net-(F1-Pad2)*%
X138731500Y-71882000D03*
%TO.P,R7,2*%
%TO.N,Net-(U2-EN)*%
X135631500Y-71882000D03*
%TD*%
D25*
%TO.P,D3,1,K*%
%TO.N,PREVGH*%
X127890000Y-84328000D03*
%TO.P,D3,2,A*%
%TO.N,Net-(D3-A)*%
X131190000Y-84328000D03*
%TD*%
D26*
%TO.P,R5,1*%
%TO.N,VDD*%
X154940000Y-93186000D03*
%TO.P,R5,2*%
%TO.N,ST25DV_SCL*%
X154940000Y-91186000D03*
%TD*%
D27*
%TO.P,F1,1*%
%TO.N,+3V8*%
X140991500Y-74893500D03*
%TO.P,F1,2*%
%TO.N,Net-(F1-Pad2)*%
X140991500Y-71918500D03*
%TD*%
D18*
%TO.P,C10,1*%
%TO.N,GND*%
X123719500Y-74422000D03*
%TO.P,C10,2*%
%TO.N,/VSL*%
X121644500Y-74422000D03*
%TD*%
%TO.P,C3,1*%
%TO.N,Net-(D1-A)*%
X137711000Y-83820000D03*
%TO.P,C3,2*%
%TO.N,Net-(D3-A)*%
X135636000Y-83820000D03*
%TD*%
D28*
%TO.P,CR1,1*%
%TO.N,+BATT*%
X140991500Y-81534000D03*
%TO.P,CR1,2*%
%TO.N,+3V8*%
X140991500Y-77673200D03*
%TD*%
D29*
%TO.P,JP1,1,A*%
%TO.N,+3V8*%
X153274000Y-81280000D03*
%TO.P,JP1,2,B*%
%TO.N,Net-(JP1-B)*%
X154574000Y-81280000D03*
%TD*%
D26*
%TO.P,R6,1*%
%TO.N,VDD*%
X157480000Y-93186000D03*
%TO.P,R6,2*%
%TO.N,ST25DV_SDA*%
X157480000Y-91186000D03*
%TD*%
D18*
%TO.P,C9,1*%
%TO.N,GND*%
X123719500Y-76708000D03*
%TO.P,C9,2*%
%TO.N,PREVGH*%
X121644500Y-76708000D03*
%TD*%
D30*
%TO.P,R3,1*%
%TO.N,/BOOT0*%
X150495000Y-80686400D03*
%TO.P,R3,2*%
%TO.N,GND*%
X150495000Y-82686400D03*
%TD*%
D25*
%TO.P,D1,1,K*%
%TO.N,GND*%
X127890000Y-89662000D03*
%TO.P,D1,2,A*%
%TO.N,Net-(D1-A)*%
X131190000Y-89662000D03*
%TD*%
D18*
%TO.P,C14,1*%
%TO.N,GND*%
X123719500Y-88646000D03*
%TO.P,C14,2*%
%TO.N,/VGH*%
X121644500Y-88646000D03*
%TD*%
%TO.P,C8,1*%
%TO.N,GND*%
X123762500Y-78994000D03*
%TO.P,C8,2*%
%TO.N,/VSH*%
X121687500Y-78994000D03*
%TD*%
%TO.P,C5,1*%
%TO.N,GND*%
X123719500Y-85852000D03*
%TO.P,C5,2*%
%TO.N,VDD*%
X121644500Y-85852000D03*
%TD*%
D31*
%TO.P,TP1,1,1*%
%TO.N,Net-(F1-Pad2)*%
X144293500Y-75184000D03*
%TD*%
D26*
%TO.P,R2,1*%
%TO.N,GND*%
X143023500Y-88868000D03*
%TO.P,R2,2*%
%TO.N,RESE*%
X143023500Y-86868000D03*
%TD*%
D18*
%TO.P,C2,1*%
%TO.N,GND*%
X131085500Y-79248000D03*
%TO.P,C2,2*%
%TO.N,VDD*%
X129010500Y-79248000D03*
%TD*%
D31*
%TO.P,TP2,1,1*%
%TO.N,Net-(U2-EN)*%
X134620000Y-75184000D03*
%TD*%
D26*
%TO.P,R1,1*%
%TO.N,GND*%
X140737500Y-88868000D03*
%TO.P,R1,2*%
%TO.N,GDR*%
X140737500Y-86868000D03*
%TD*%
D32*
%TO.P,C1,1*%
%TO.N,NRST*%
X117348000Y-93980000D03*
%TO.P,C1,2*%
%TO.N,GND*%
X119423000Y-93980000D03*
%TD*%
D33*
%TO.P,D2,1,K*%
%TO.N,Net-(D1-A)*%
X131190000Y-87122000D03*
%TO.P,D2,2,A*%
%TO.N,PREVGL*%
X127890000Y-87122000D03*
%TD*%
D18*
%TO.P,C11,1*%
%TO.N,GND*%
X123719500Y-72136000D03*
%TO.P,C11,2*%
%TO.N,PREVGL*%
X121644500Y-72136000D03*
%TD*%
D34*
%TO.N,GND*%
X147320000Y-88900000D03*
X146050000Y-88900000D03*
X147320000Y-87630000D03*
X146050000Y-87630000D03*
X114808000Y-86360000D03*
X114808000Y-85344000D03*
X114808000Y-84328000D03*
X114808000Y-78740000D03*
X114808000Y-77724000D03*
X114808000Y-76708000D03*
X135890000Y-88900000D03*
X134620000Y-88900000D03*
X135890000Y-87630000D03*
X134620000Y-87630000D03*
X150114000Y-75158600D03*
X158165800Y-81864200D03*
X149860000Y-84124800D03*
%TO.N,+3V8*%
X151310500Y-81686400D03*
X145592800Y-78892400D03*
X148386800Y-79121000D03*
X152908000Y-82753200D03*
%TO.N,VDD*%
X151892000Y-91948000D03*
X151130000Y-74422000D03*
X139700000Y-69850000D03*
%TO.N,Net-(ANT1-1)*%
X166116000Y-85852000D03*
%TO.N,Net-(ANT1-2)*%
X159512000Y-77978000D03*
%TO.N,+BATT*%
X142748000Y-81534000D03*
%TO.N,GND*%
X146558000Y-73660000D03*
X125501400Y-75031600D03*
X116840000Y-84582000D03*
X125730000Y-86614000D03*
X125476000Y-89408000D03*
X133604000Y-83058000D03*
X130048000Y-74422000D03*
X116840000Y-78486000D03*
X129032000Y-74422000D03*
X125730000Y-85598000D03*
X131064000Y-74422000D03*
%TO.N,NRST*%
X147059100Y-79629000D03*
%TO.N,VDD*%
X129010500Y-81026000D03*
X125476000Y-91440000D03*
X133604000Y-78994000D03*
%TO.N,SWDIO*%
X154422959Y-74395544D03*
%TO.N,SWCLK*%
X156210000Y-79502000D03*
%TO.N,USART_TX*%
X154432000Y-72898000D03*
%TO.N,USART_RX*%
X154432000Y-73660000D03*
%TO.N,GDR*%
X132588000Y-90170000D03*
X118872000Y-87376000D03*
%TO.N,ePaper_BUSY*%
X118872000Y-84328000D03*
X154432000Y-72171497D03*
%TO.N,ePaper_RESET#*%
X152400000Y-71628000D03*
X119380000Y-83784503D03*
%TO.N,ePaper_D{slash}C#*%
X153486166Y-71698165D03*
X118872000Y-83058000D03*
%TO.N,ePaper_CS#*%
X153650538Y-76923565D03*
X118853500Y-82296000D03*
%TO.N,ePaper_SCK*%
X152698540Y-76958783D03*
X118853500Y-81534000D03*
%TO.N,ePaper_MOSI*%
X151790400Y-76962500D03*
X118853500Y-80576052D03*
%TO.N,SYS_WKUP1*%
X152908000Y-87122000D03*
X150876000Y-85090000D03*
%TD*%
D35*
%TO.N,GND*%
X155807043Y-78054200D02*
X156438600Y-78054200D01*
X152911443Y-75158600D02*
X155807043Y-78054200D01*
X150114000Y-75158600D02*
X152911443Y-75158600D01*
X150114000Y-75158600D02*
X149663500Y-75609100D01*
X149663500Y-75609100D02*
X149663500Y-78329500D01*
D36*
%TO.N,VDD*%
X149377400Y-72918000D02*
X147751000Y-72918000D01*
X149626000Y-72918000D02*
X149377400Y-72918000D01*
X149163500Y-76454000D02*
X149163500Y-73131900D01*
X149163500Y-73131900D02*
X149377400Y-72918000D01*
D35*
X149163500Y-76606400D02*
X149163500Y-76454000D01*
X149163500Y-78330500D02*
X149163500Y-76606400D01*
X142138400Y-69948900D02*
X142138400Y-69850000D01*
X143309500Y-71120000D02*
X142138400Y-69948900D01*
X139700000Y-69850000D02*
X142138400Y-69850000D01*
X142138400Y-69850000D02*
X147574000Y-69850000D01*
X151130000Y-73406000D02*
X151130000Y-74422000D01*
X147574000Y-69850000D02*
X151130000Y-73406000D01*
%TO.N,SYS_WKUP1*%
X154406600Y-87122000D02*
X152908000Y-87122000D01*
X155219400Y-87934800D02*
X154406600Y-87122000D01*
X155219400Y-88987400D02*
X155219400Y-87934800D01*
%TO.N,ST25DV_SCL*%
X152163500Y-85361500D02*
X152163500Y-78330500D01*
X152400000Y-85598000D02*
X152163500Y-85361500D01*
X156489400Y-87122000D02*
X154965400Y-85598000D01*
X156489400Y-88987400D02*
X156489400Y-87122000D01*
X154965400Y-85598000D02*
X152400000Y-85598000D01*
%TO.N,ePaper_CS#*%
X154163500Y-77436527D02*
X154163500Y-78329500D01*
X153650538Y-76923565D02*
X154163500Y-77436527D01*
%TO.N,ePaper_SCK*%
X153663500Y-77664908D02*
X153363592Y-77365000D01*
X153363592Y-77365000D02*
X153104757Y-77365000D01*
X153663500Y-78329500D02*
X153663500Y-77664908D01*
X153104757Y-77365000D02*
X152698540Y-76958783D01*
%TO.N,PREVGL*%
X122682000Y-73173500D02*
X121644500Y-72136000D01*
X122682000Y-75317580D02*
X122682000Y-73173500D01*
X122738420Y-75374000D02*
X122682000Y-75317580D01*
X124254580Y-75374000D02*
X122738420Y-75374000D01*
X124534000Y-75094580D02*
X124254580Y-75374000D01*
X124534000Y-74043199D02*
X124534000Y-75094580D01*
X124764799Y-73812400D02*
X124534000Y-74043199D01*
X126492000Y-78531552D02*
X126492000Y-74168000D01*
X126819000Y-78858552D02*
X126492000Y-78531552D01*
X126492000Y-74168000D02*
X126136400Y-73812400D01*
X126819000Y-82017775D02*
X126819000Y-78858552D01*
X126136400Y-73812400D02*
X124764799Y-73812400D01*
X128567000Y-83765775D02*
X126819000Y-82017775D01*
X127890000Y-87122000D02*
X128567000Y-86445000D01*
X128567000Y-86445000D02*
X128567000Y-83765775D01*
%TO.N,SYS_WKUP1*%
X146607500Y-72418000D02*
X147750000Y-72418000D01*
X147750000Y-72418000D02*
X147751000Y-72417000D01*
%TO.N,+3V8*%
X141374222Y-77673200D02*
X140991500Y-77673200D01*
X142593422Y-78892400D02*
X141374222Y-77673200D01*
X145592800Y-78892400D02*
X142593422Y-78892400D01*
%TO.N,ST25DV_SDA*%
X158724600Y-92430600D02*
X157480000Y-91186000D01*
X158724600Y-93726000D02*
X158724600Y-92430600D01*
X157708600Y-94742000D02*
X158724600Y-93726000D01*
X153264920Y-94742000D02*
X157708600Y-94742000D01*
X150876000Y-92353080D02*
X153264920Y-94742000D01*
X151663500Y-87096500D02*
X150876000Y-87884000D01*
X151837000Y-82006291D02*
X151663500Y-82179791D01*
X150876000Y-87884000D02*
X150876000Y-92353080D01*
X151837000Y-80036420D02*
X151837000Y-82006291D01*
X151663500Y-79862920D02*
X151837000Y-80036420D01*
X151663500Y-82179791D02*
X151663500Y-87096500D01*
X151663500Y-78330500D02*
X151663500Y-79862920D01*
%TO.N,+3V8*%
X149809200Y-81686400D02*
X151310500Y-81686400D01*
X148386800Y-80264000D02*
X149809200Y-81686400D01*
X148386800Y-79121000D02*
X148386800Y-80264000D01*
%TO.N,/BOOT0*%
X150495000Y-79662592D02*
X151163500Y-78994092D01*
X150495000Y-80686400D02*
X150495000Y-79662592D01*
X151163500Y-78994092D02*
X151163500Y-78329500D01*
%TO.N,ePaper_SCK*%
X153663500Y-77664908D02*
X153663500Y-78330500D01*
%TO.N,ePaper_MOSI*%
X152663500Y-77664908D02*
X152663500Y-78330500D01*
X152363592Y-77365000D02*
X152663500Y-77664908D01*
X152192900Y-77365000D02*
X152363592Y-77365000D01*
X151790400Y-76962500D02*
X152192900Y-77365000D01*
%TO.N,SYS_WKUP1*%
X146607500Y-72418000D02*
X145309500Y-71120000D01*
X146530000Y-72418000D02*
X146607500Y-72418000D01*
X146031000Y-78560791D02*
X146031000Y-72917000D01*
X146031000Y-72917000D02*
X146530000Y-72418000D01*
X150876000Y-85090000D02*
X149402800Y-85090000D01*
X149402800Y-85090000D02*
X146532600Y-82219800D01*
X146532600Y-82219800D02*
X146532600Y-79062391D01*
X146532600Y-79062391D02*
X146031000Y-78560791D01*
%TO.N,NRST*%
X146786500Y-78063000D02*
X146786500Y-74193500D01*
X147059100Y-79629000D02*
X147059100Y-78335600D01*
X147059100Y-78335600D02*
X146786500Y-78063000D01*
X146786500Y-74193500D02*
X147062000Y-73918000D01*
X147062000Y-73918000D02*
X147751000Y-73918000D01*
%TO.N,+3V8*%
X153274000Y-82387200D02*
X152908000Y-82753200D01*
X153274000Y-81280000D02*
X153274000Y-82387200D01*
%TO.N,Net-(JP1-B)*%
X154574000Y-82154000D02*
X154574000Y-81280000D01*
X153924000Y-84012000D02*
X153924000Y-82804000D01*
X153949400Y-84037400D02*
X153924000Y-84012000D01*
X153924000Y-82804000D02*
X154574000Y-82154000D01*
%TO.N,SWCLK*%
X155835000Y-79502000D02*
X154663500Y-78330500D01*
X156210000Y-79502000D02*
X155835000Y-79502000D01*
%TO.N,Net-(U2-EN)*%
X132069000Y-71374000D02*
X132577000Y-71882000D01*
X130302000Y-71374000D02*
X132069000Y-71374000D01*
X130180000Y-72379000D02*
X130180000Y-71496000D01*
X130180000Y-71496000D02*
X130302000Y-71374000D01*
D37*
X135631500Y-71882000D02*
X132577000Y-71882000D01*
X132577000Y-71882000D02*
X132080000Y-72379000D01*
D38*
%TO.N,VDD*%
X137668000Y-69850000D02*
X132334000Y-69850000D01*
X132334000Y-69850000D02*
X132080000Y-70104000D01*
D35*
%TO.N,RESE*%
X127396000Y-76058000D02*
X127000000Y-76454000D01*
X128210000Y-76058000D02*
X127396000Y-76058000D01*
X127000000Y-77905000D02*
X127000000Y-76454000D01*
X127391000Y-78296000D02*
X127000000Y-77905000D01*
X129798000Y-78296000D02*
X127391000Y-78296000D01*
X129825000Y-78323000D02*
X129798000Y-78296000D01*
%TO.N,GDR*%
X129322448Y-77358000D02*
X128210000Y-77358000D01*
X130152000Y-78187552D02*
X129322448Y-77358000D01*
%TO.N,Net-(D3-A)*%
X130870000Y-77276000D02*
X134876000Y-81282000D01*
X134876000Y-81282000D02*
X136927500Y-81282000D01*
X130870000Y-76708000D02*
X130870000Y-77276000D01*
%TO.N,VDD*%
X151945500Y-91948000D02*
X153183500Y-93186000D01*
X151892000Y-91948000D02*
X151945500Y-91948000D01*
X151892000Y-91894500D02*
X151892000Y-91948000D01*
X125497500Y-91461500D02*
X125476000Y-91440000D01*
X125497500Y-93726000D02*
X125497500Y-91461500D01*
X157480000Y-93186000D02*
X154940000Y-93186000D01*
X153183500Y-93186000D02*
X154940000Y-93186000D01*
X151913500Y-91916000D02*
X151892000Y-91894500D01*
%TO.N,ST25DV_SCL*%
X154940000Y-91186000D02*
X156489400Y-89636600D01*
X156489400Y-89636600D02*
X156489400Y-88987400D01*
%TO.N,ST25DV_SDA*%
X157480000Y-91186000D02*
X157759400Y-90906600D01*
X157759400Y-90906600D02*
X157759400Y-88987400D01*
%TO.N,Net-(ANT1-1)*%
X157734000Y-85852000D02*
X166116000Y-85852000D01*
X156489400Y-84607400D02*
X157734000Y-85852000D01*
X156489400Y-84037400D02*
X156489400Y-84607400D01*
%TO.N,Net-(ANT1-2)*%
X155219400Y-83032600D02*
X155219400Y-84037400D01*
X159512000Y-78740000D02*
X155219400Y-83032600D01*
X159512000Y-77978000D02*
X159512000Y-78740000D01*
%TO.N,VDD*%
X136927500Y-70590500D02*
X137668000Y-69850000D01*
X136927500Y-78232000D02*
X136927500Y-70590500D01*
D38*
X137668000Y-69850000D02*
X139700000Y-69850000D01*
D37*
%TO.N,Net-(U2-EN)*%
X135631500Y-74172500D02*
X134620000Y-75184000D01*
X135631500Y-71882000D02*
X135631500Y-74172500D01*
D36*
%TO.N,VDD*%
X152908000Y-74151291D02*
X152637291Y-74422000D01*
X152908000Y-72985561D02*
X152908000Y-74151291D01*
D35*
X152637291Y-74422000D02*
X151130000Y-74422000D01*
X155133291Y-76918000D02*
X152637291Y-74422000D01*
X156076000Y-76918000D02*
X155133291Y-76918000D01*
D36*
X151130000Y-74422000D02*
X149626000Y-72918000D01*
D37*
%TO.N,+BATT*%
X142748000Y-81534000D02*
X140991500Y-81534000D01*
D35*
%TO.N,GND*%
X117762000Y-79655000D02*
X117162000Y-79655000D01*
X147751000Y-73418000D02*
X146800000Y-73418000D01*
X116840000Y-79333000D02*
X116840000Y-78486000D01*
X146800000Y-73418000D02*
X146558000Y-73660000D01*
X156076000Y-76418000D02*
X157444000Y-76418000D01*
D39*
X117762000Y-84155000D02*
X117267000Y-84155000D01*
X117267000Y-84155000D02*
X116840000Y-84582000D01*
D35*
X157444000Y-76418000D02*
X157480000Y-76454000D01*
X154163500Y-68600000D02*
X154178000Y-68600000D01*
X154163500Y-70005500D02*
X154163500Y-68600000D01*
X117162000Y-79655000D02*
X116840000Y-79333000D01*
%TO.N,NRST*%
X116258500Y-95107000D02*
X115131500Y-93980000D01*
X133117500Y-93726000D02*
X131736500Y-95107000D01*
X131736500Y-95107000D02*
X116258500Y-95107000D01*
D38*
X117348000Y-93980000D02*
X115131500Y-93980000D01*
D35*
%TO.N,VDD*%
X129010500Y-79248000D02*
X129010500Y-81026000D01*
D36*
X154390503Y-71669497D02*
X154224064Y-71669497D01*
D35*
X119380000Y-82296000D02*
X120396000Y-83312000D01*
X136927500Y-78232000D02*
X134366000Y-78232000D01*
D36*
X154663500Y-70005500D02*
X154663500Y-71396500D01*
D35*
X120396000Y-84603500D02*
X122596500Y-86804000D01*
D36*
X147751000Y-76918000D02*
X148699500Y-76918000D01*
D35*
X120396000Y-83312000D02*
X120396000Y-84603500D01*
X123444000Y-86804000D02*
X122596500Y-86804000D01*
X117762000Y-80655000D02*
X117762000Y-80155000D01*
X118491500Y-80155000D02*
X118597448Y-80049052D01*
X118491500Y-80155000D02*
X117762000Y-80155000D01*
X129010500Y-87240725D02*
X128302225Y-87949000D01*
D36*
X154224064Y-71669497D02*
X152908000Y-72985561D01*
X154663500Y-71396500D02*
X154390503Y-71669497D01*
D35*
X119380000Y-80282500D02*
X119380000Y-82296000D01*
X118597448Y-80049052D02*
X119146552Y-80049052D01*
D36*
X148699500Y-76918000D02*
X149163500Y-76454000D01*
D35*
X151913500Y-88900000D02*
X151913500Y-91916000D01*
X128302225Y-87949000D02*
X124589000Y-87949000D01*
X151913500Y-88900000D02*
X152049500Y-88764000D01*
X134366000Y-78232000D02*
X133604000Y-78994000D01*
X119146552Y-80049052D02*
X119380000Y-80282500D01*
X152049500Y-88764000D02*
X153986500Y-88764000D01*
X124589000Y-87949000D02*
X123444000Y-86804000D01*
X129010500Y-81026000D02*
X129010500Y-87240725D01*
%TO.N,Net-(D1-A)*%
X132206000Y-86106000D02*
X131190000Y-87122000D01*
X135425000Y-86106000D02*
X132206000Y-86106000D01*
X137711000Y-83820000D02*
X135425000Y-86106000D01*
X131190000Y-87122000D02*
X131190000Y-89662000D01*
%TO.N,Net-(D3-A)*%
X136144000Y-82065500D02*
X136927500Y-81282000D01*
X136144000Y-83312000D02*
X136144000Y-82065500D01*
X135128000Y-84328000D02*
X131190000Y-84328000D01*
X135636000Y-83820000D02*
X135128000Y-84328000D01*
X135636000Y-83820000D02*
X136144000Y-83312000D01*
%TO.N,/VDD_eink*%
X121644500Y-83566000D02*
X119888000Y-81809500D01*
X119888000Y-81809500D02*
X119888000Y-79502000D01*
X119461000Y-79075000D02*
X117529500Y-79075000D01*
X119888000Y-79502000D02*
X119461000Y-79075000D01*
%TO.N,/VPP*%
X121687500Y-81280000D02*
X120396000Y-79988500D01*
X120396000Y-79988500D02*
X120396000Y-78994000D01*
X120396000Y-78994000D02*
X120057000Y-78655000D01*
X120057000Y-78655000D02*
X117762000Y-78655000D01*
%TO.N,/VSH*%
X117762000Y-78155000D02*
X120848500Y-78155000D01*
X120848500Y-78155000D02*
X121687500Y-78994000D01*
%TO.N,PREVGH*%
X126492000Y-78994000D02*
X125158000Y-77660000D01*
X125158000Y-77660000D02*
X122596500Y-77660000D01*
X120697500Y-77655000D02*
X121644500Y-76708000D01*
X126492000Y-82930000D02*
X126492000Y-78994000D01*
X127890000Y-84328000D02*
X126492000Y-82930000D01*
X122596500Y-77660000D02*
X121644500Y-76708000D01*
X117762000Y-77655000D02*
X120697500Y-77655000D01*
%TO.N,/VSL*%
X118911500Y-77155000D02*
X121644500Y-74422000D01*
X117762000Y-77155000D02*
X118911500Y-77155000D01*
%TO.N,PREVGL*%
X120723000Y-74294000D02*
X120723000Y-73057500D01*
X118362000Y-76655000D02*
X120723000Y-74294000D01*
X120723000Y-73057500D02*
X121644500Y-72136000D01*
X117762000Y-76655000D02*
X118362000Y-76655000D01*
%TO.N,/VCOM*%
X120396000Y-70104000D02*
X120396000Y-72898000D01*
X117762000Y-75532000D02*
X120396000Y-72898000D01*
X120650000Y-69850000D02*
X120396000Y-70104000D01*
X117762000Y-76155000D02*
X117762000Y-75532000D01*
X121644500Y-69850000D02*
X120650000Y-69850000D01*
%TO.N,/VGL*%
X116078000Y-76200000D02*
X118893500Y-73384500D01*
X116381000Y-86155000D02*
X116078000Y-85852000D01*
X118893500Y-73384500D02*
X118893500Y-71649500D01*
X117762000Y-86155000D02*
X116381000Y-86155000D01*
X116078000Y-85852000D02*
X116078000Y-76200000D01*
%TO.N,/VGH*%
X119161500Y-85655000D02*
X121644500Y-88138000D01*
X117762000Y-85655000D02*
X119161500Y-85655000D01*
D37*
%TO.N,+3V8*%
X140991500Y-77673200D02*
X140991500Y-74893500D01*
%TO.N,Net-(F1-Pad2)*%
X138768000Y-71918500D02*
X138731500Y-71882000D01*
X140991500Y-71918500D02*
X138768000Y-71918500D01*
X141028000Y-71918500D02*
X144293500Y-75184000D01*
X140991500Y-71918500D02*
X141028000Y-71918500D01*
D35*
%TO.N,SWDIO*%
X154422959Y-74929551D02*
X155411408Y-75918000D01*
X155411408Y-75918000D02*
X156076000Y-75918000D01*
X154422959Y-74395544D02*
X154422959Y-74929551D01*
%TO.N,USART_TX*%
X154959000Y-73465592D02*
X155411408Y-73918000D01*
X154432000Y-72914709D02*
X154959000Y-73441709D01*
X155411408Y-73918000D02*
X156076000Y-73918000D01*
X154959000Y-73441709D02*
X154959000Y-73465592D01*
X154432000Y-72898000D02*
X154432000Y-72914709D01*
%TO.N,USART_RX*%
X156076000Y-74418000D02*
X155190000Y-74418000D01*
X155190000Y-74418000D02*
X154432000Y-73660000D01*
%TO.N,GDR*%
X140737500Y-86868000D02*
X137435500Y-90170000D01*
D36*
X117762000Y-87155000D02*
X118651000Y-87155000D01*
D35*
X132588000Y-90170000D02*
X131921225Y-90170000D01*
X129613000Y-87884000D02*
X129664500Y-87832500D01*
D36*
X118651000Y-87155000D02*
X118872000Y-87376000D01*
D35*
X129664500Y-81579739D02*
X130152000Y-81092239D01*
X130777775Y-90489000D02*
X129613000Y-89324225D01*
X129664500Y-87832500D02*
X129664500Y-81579739D01*
X130152000Y-81092239D02*
X130152000Y-78187552D01*
X129613000Y-89324225D02*
X129613000Y-87884000D01*
X131921225Y-90170000D02*
X131602225Y-90489000D01*
X137435500Y-90170000D02*
X132588000Y-90170000D01*
X131602225Y-90489000D02*
X130777775Y-90489000D01*
%TO.N,RESE*%
X120830000Y-89318580D02*
X122327420Y-90816000D01*
X130810000Y-90816000D02*
X130642327Y-90816000D01*
X143023500Y-86868000D02*
X142007500Y-87884000D01*
X129286000Y-89459673D02*
X129286000Y-87748552D01*
X129337500Y-87697052D02*
X129337500Y-81444291D01*
X117762000Y-86655000D02*
X119675000Y-86655000D01*
X119675000Y-86655000D02*
X120830000Y-87810000D01*
X129286000Y-87748552D02*
X129337500Y-87697052D01*
X129337500Y-81444291D02*
X129825000Y-80956791D01*
X137251948Y-90816000D02*
X130810000Y-90816000D01*
X129825000Y-80956791D02*
X129825000Y-78323000D01*
X142007500Y-87884000D02*
X140183948Y-87884000D01*
X122327420Y-90816000D02*
X130810000Y-90816000D01*
X130642327Y-90816000D02*
X129286000Y-89459673D01*
X120830000Y-87810000D02*
X120830000Y-89318580D01*
X140183948Y-87884000D02*
X137251948Y-90816000D01*
%TO.N,ePaper_BUSY*%
X156076000Y-73418000D02*
X155411408Y-73418000D01*
X155111500Y-73118092D02*
X155111500Y-72832209D01*
X117762000Y-83655000D02*
X118199000Y-83655000D01*
X118199000Y-83655000D02*
X118872000Y-84328000D01*
X155111500Y-72832209D02*
X154677645Y-72398355D01*
X154677645Y-72398355D02*
X154658858Y-72398355D01*
X155411408Y-73418000D02*
X155111500Y-73118092D01*
X154658858Y-72398355D02*
X154432000Y-72171497D01*
%TO.N,ePaper_RESET#*%
X118223709Y-83155000D02*
X117762000Y-83155000D01*
X119380000Y-83784503D02*
X118853212Y-83784503D01*
X118853212Y-83784503D02*
X118223709Y-83155000D01*
X152663500Y-70005500D02*
X152663500Y-71364500D01*
X152663500Y-71364500D02*
X152400000Y-71628000D01*
%TO.N,ePaper_D{slash}C#*%
X118765000Y-83058000D02*
X118872000Y-83058000D01*
X153663500Y-70005500D02*
X153663500Y-71520831D01*
X153663500Y-71520831D02*
X153486166Y-71698165D01*
X118362000Y-82655000D02*
X118765000Y-83058000D01*
X117762000Y-82655000D02*
X118362000Y-82655000D01*
%TO.N,ePaper_CS#*%
X118712500Y-82155000D02*
X118853500Y-82296000D01*
X117762000Y-82155000D02*
X118712500Y-82155000D01*
%TO.N,ePaper_SCK*%
X118732500Y-81655000D02*
X117762000Y-81655000D01*
X118853500Y-81534000D02*
X118732500Y-81655000D01*
%TO.N,ePaper_MOSI*%
X118274552Y-81155000D02*
X117762000Y-81155000D01*
X118853500Y-80576052D02*
X118274552Y-81155000D01*
%TD*%
%TA.AperFunction,Conductor*%
%TO.N,GND*%
G36*
X158943039Y-67520185D02*
G01*
X158988794Y-67572989D01*
X159000000Y-67624500D01*
X159000000Y-77306560D01*
X158980315Y-77373599D01*
X158963681Y-77394241D01*
X158882184Y-77475737D01*
X158786211Y-77628476D01*
X158726631Y-77798745D01*
X158726630Y-77798750D01*
X158706435Y-77977996D01*
X158706435Y-77978003D01*
X158726630Y-78157249D01*
X158726631Y-78157254D01*
X158786211Y-78327524D01*
X158845130Y-78421291D01*
X158864131Y-78488528D01*
X158843764Y-78555363D01*
X158827818Y-78574945D01*
X155786180Y-81616584D01*
X155724857Y-81650069D01*
X155655165Y-81645085D01*
X155599232Y-81603213D01*
X155574815Y-81537749D01*
X155574499Y-81528903D01*
X155574499Y-80482129D01*
X155574498Y-80482123D01*
X155573517Y-80472999D01*
X155568091Y-80422517D01*
X155567436Y-80420762D01*
X155517797Y-80287671D01*
X155515183Y-80282884D01*
X155500329Y-80214612D01*
X155524743Y-80149146D01*
X155580675Y-80107273D01*
X155650366Y-80102286D01*
X155700537Y-80129678D01*
X155702295Y-80127475D01*
X155707737Y-80131815D01*
X155707738Y-80131816D01*
X155792087Y-80184816D01*
X155855531Y-80224681D01*
X155860478Y-80227789D01*
X156022303Y-80284414D01*
X156030745Y-80287368D01*
X156030750Y-80287369D01*
X156209996Y-80307565D01*
X156210000Y-80307565D01*
X156210004Y-80307565D01*
X156389249Y-80287369D01*
X156389252Y-80287368D01*
X156389255Y-80287368D01*
X156559522Y-80227789D01*
X156712262Y-80131816D01*
X156839816Y-80004262D01*
X156935789Y-79851522D01*
X156995368Y-79681255D01*
X156995638Y-79678858D01*
X157015565Y-79502003D01*
X157015565Y-79501996D01*
X156995369Y-79322750D01*
X156995368Y-79322745D01*
X156985344Y-79294097D01*
X156935789Y-79152478D01*
X156916638Y-79122000D01*
X156884272Y-79070489D01*
X156839816Y-78999738D01*
X156712262Y-78872184D01*
X156681527Y-78852872D01*
X156559523Y-78776211D01*
X156389254Y-78716631D01*
X156389249Y-78716630D01*
X156210004Y-78696435D01*
X156209996Y-78696435D01*
X156030746Y-78716631D01*
X156030745Y-78716631D01*
X156006591Y-78725083D01*
X155936812Y-78728644D01*
X155877957Y-78695722D01*
X155350319Y-78168084D01*
X155316834Y-78106761D01*
X155314000Y-78080403D01*
X155314000Y-77691500D01*
X155333685Y-77624461D01*
X155386489Y-77578706D01*
X155438000Y-77567500D01*
X156776213Y-77567500D01*
X156776220Y-77567500D01*
X156888736Y-77552687D01*
X157028733Y-77494698D01*
X157148951Y-77402451D01*
X157241198Y-77282233D01*
X157299187Y-77142236D01*
X157314000Y-77029720D01*
X157314000Y-76804280D01*
X157299187Y-76691764D01*
X157299186Y-76691763D01*
X157298126Y-76683705D01*
X157299906Y-76683470D01*
X157297696Y-76649729D01*
X157308588Y-76567000D01*
X157306698Y-76564845D01*
X157246998Y-76547315D01*
X157215662Y-76518488D01*
X157199484Y-76497405D01*
X157195710Y-76492486D01*
X157170516Y-76427319D01*
X157184554Y-76358874D01*
X157195711Y-76341512D01*
X157215662Y-76315512D01*
X157272090Y-76274310D01*
X157307605Y-76268120D01*
X157308588Y-76266999D01*
X157297696Y-76184270D01*
X157299909Y-76150529D01*
X157298126Y-76150295D01*
X157301396Y-76125454D01*
X157314000Y-76029720D01*
X157314000Y-75804280D01*
X157299187Y-75691764D01*
X157299186Y-75691763D01*
X157298126Y-75683705D01*
X157301189Y-75683301D01*
X157301189Y-75650698D01*
X157298126Y-75650295D01*
X157299840Y-75637279D01*
X157314000Y-75529720D01*
X157314000Y-75304280D01*
X157299187Y-75191764D01*
X157299186Y-75191763D01*
X157298126Y-75183707D01*
X157301176Y-75183305D01*
X157301185Y-75150697D01*
X157298126Y-75150295D01*
X157305461Y-75094579D01*
X157314000Y-75029720D01*
X157314000Y-74804280D01*
X157299187Y-74691764D01*
X157299186Y-74691763D01*
X157298126Y-74683705D01*
X157301189Y-74683301D01*
X157301189Y-74650698D01*
X157298126Y-74650295D01*
X157304583Y-74601249D01*
X157314000Y-74529720D01*
X157314000Y-74304280D01*
X157299187Y-74191764D01*
X157299186Y-74191763D01*
X157298126Y-74183707D01*
X157301176Y-74183305D01*
X157301185Y-74150697D01*
X157298126Y-74150295D01*
X157302960Y-74113576D01*
X157314000Y-74029720D01*
X157314000Y-73804280D01*
X157299187Y-73691764D01*
X157299186Y-73691763D01*
X157298126Y-73683705D01*
X157301189Y-73683301D01*
X157301189Y-73650698D01*
X157298126Y-73650295D01*
X157299187Y-73642236D01*
X157314000Y-73529720D01*
X157314000Y-73304280D01*
X157299187Y-73191764D01*
X157299186Y-73191763D01*
X157298126Y-73183705D01*
X157301189Y-73183301D01*
X157301189Y-73150698D01*
X157298126Y-73150295D01*
X157300600Y-73131500D01*
X157314000Y-73029720D01*
X157314000Y-72804280D01*
X157299187Y-72691764D01*
X157299186Y-72691763D01*
X157298126Y-72683705D01*
X157301189Y-72683301D01*
X157301189Y-72650698D01*
X157298126Y-72650295D01*
X157302883Y-72614159D01*
X157314000Y-72529720D01*
X157314000Y-72304280D01*
X157299187Y-72191764D01*
X157299186Y-72191763D01*
X157298126Y-72183705D01*
X157301189Y-72183301D01*
X157301189Y-72150698D01*
X157298126Y-72150295D01*
X157300763Y-72130262D01*
X157314000Y-72029720D01*
X157314000Y-71804280D01*
X157299187Y-71691764D01*
X157299186Y-71691763D01*
X157298126Y-71683705D01*
X157301189Y-71683301D01*
X157301189Y-71650698D01*
X157298126Y-71650295D01*
X157301062Y-71627996D01*
X157314000Y-71529720D01*
X157314000Y-71304280D01*
X157299187Y-71191764D01*
X157241198Y-71051767D01*
X157148951Y-70931549D01*
X157028733Y-70839302D01*
X157028729Y-70839300D01*
X156918534Y-70793656D01*
X156888736Y-70781313D01*
X156874671Y-70779461D01*
X156776227Y-70766500D01*
X156776220Y-70766500D01*
X155438000Y-70766500D01*
X155370961Y-70746815D01*
X155325206Y-70694011D01*
X155314000Y-70642500D01*
X155314000Y-69304286D01*
X155313999Y-69304272D01*
X155308823Y-69264956D01*
X155299187Y-69191764D01*
X155241198Y-69051767D01*
X155148951Y-68931549D01*
X155028733Y-68839302D01*
X155028729Y-68839300D01*
X154965301Y-68813027D01*
X154888736Y-68781313D01*
X154874099Y-68779386D01*
X154776227Y-68766500D01*
X154776220Y-68766500D01*
X154550780Y-68766500D01*
X154550772Y-68766500D01*
X154455292Y-68779071D01*
X154438264Y-68781313D01*
X154438263Y-68781313D01*
X154430207Y-68782374D01*
X154429972Y-68780595D01*
X154396229Y-68782804D01*
X154313500Y-68771911D01*
X154311345Y-68773801D01*
X154293815Y-68833502D01*
X154264987Y-68864838D01*
X154238986Y-68884789D01*
X154173819Y-68909984D01*
X154105374Y-68895946D01*
X154088015Y-68884790D01*
X154062012Y-68864838D01*
X154020810Y-68808410D01*
X154014620Y-68772894D01*
X154013499Y-68771911D01*
X153930770Y-68782804D01*
X153897027Y-68780593D01*
X153896793Y-68782374D01*
X153888736Y-68781313D01*
X153868951Y-68778708D01*
X153776227Y-68766500D01*
X153776220Y-68766500D01*
X153550780Y-68766500D01*
X153550772Y-68766500D01*
X153463893Y-68777938D01*
X153438264Y-68781313D01*
X153438262Y-68781313D01*
X153430208Y-68782374D01*
X153429816Y-68779399D01*
X153397184Y-68779399D01*
X153396792Y-68782374D01*
X153388737Y-68781313D01*
X153388736Y-68781313D01*
X153359771Y-68777499D01*
X153276227Y-68766500D01*
X153276220Y-68766500D01*
X153050780Y-68766500D01*
X153050772Y-68766500D01*
X152963893Y-68777938D01*
X152938264Y-68781313D01*
X152938262Y-68781313D01*
X152930208Y-68782374D01*
X152929816Y-68779399D01*
X152897184Y-68779399D01*
X152896792Y-68782374D01*
X152888737Y-68781313D01*
X152888736Y-68781313D01*
X152859771Y-68777499D01*
X152776227Y-68766500D01*
X152776220Y-68766500D01*
X152550780Y-68766500D01*
X152550772Y-68766500D01*
X152463893Y-68777938D01*
X152438264Y-68781313D01*
X152438262Y-68781313D01*
X152430208Y-68782374D01*
X152429816Y-68779399D01*
X152397184Y-68779399D01*
X152396792Y-68782374D01*
X152388737Y-68781313D01*
X152388736Y-68781313D01*
X152359771Y-68777499D01*
X152276227Y-68766500D01*
X152276220Y-68766500D01*
X152050780Y-68766500D01*
X152050772Y-68766500D01*
X151963893Y-68777938D01*
X151938264Y-68781313D01*
X151938262Y-68781313D01*
X151930208Y-68782374D01*
X151929816Y-68779399D01*
X151897184Y-68779399D01*
X151896792Y-68782374D01*
X151888737Y-68781313D01*
X151888736Y-68781313D01*
X151859771Y-68777499D01*
X151776227Y-68766500D01*
X151776220Y-68766500D01*
X151550780Y-68766500D01*
X151550772Y-68766500D01*
X151463893Y-68777938D01*
X151438264Y-68781313D01*
X151438262Y-68781313D01*
X151430208Y-68782374D01*
X151429816Y-68779399D01*
X151397184Y-68779399D01*
X151396792Y-68782374D01*
X151388737Y-68781313D01*
X151388736Y-68781313D01*
X151359771Y-68777499D01*
X151276227Y-68766500D01*
X151276220Y-68766500D01*
X151050780Y-68766500D01*
X151050772Y-68766500D01*
X150963893Y-68777938D01*
X150938264Y-68781313D01*
X150938262Y-68781313D01*
X150930208Y-68782374D01*
X150929816Y-68779399D01*
X150897184Y-68779399D01*
X150896792Y-68782374D01*
X150888737Y-68781313D01*
X150888736Y-68781313D01*
X150859771Y-68777499D01*
X150776227Y-68766500D01*
X150776220Y-68766500D01*
X150550780Y-68766500D01*
X150550772Y-68766500D01*
X150463893Y-68777938D01*
X150438264Y-68781313D01*
X150438262Y-68781313D01*
X150430208Y-68782374D01*
X150429815Y-68779395D01*
X150397186Y-68779386D01*
X150396793Y-68782374D01*
X150388736Y-68781313D01*
X150368951Y-68778708D01*
X150276227Y-68766500D01*
X150276220Y-68766500D01*
X150050780Y-68766500D01*
X150050772Y-68766500D01*
X149963893Y-68777938D01*
X149938264Y-68781313D01*
X149938262Y-68781313D01*
X149930208Y-68782374D01*
X149929816Y-68779399D01*
X149897184Y-68779399D01*
X149896792Y-68782374D01*
X149888737Y-68781313D01*
X149888736Y-68781313D01*
X149859771Y-68777499D01*
X149776227Y-68766500D01*
X149776220Y-68766500D01*
X149550780Y-68766500D01*
X149550772Y-68766500D01*
X149463893Y-68777938D01*
X149438264Y-68781313D01*
X149438262Y-68781313D01*
X149430208Y-68782374D01*
X149429816Y-68779399D01*
X149397184Y-68779399D01*
X149396792Y-68782374D01*
X149388737Y-68781313D01*
X149388736Y-68781313D01*
X149359771Y-68777499D01*
X149276227Y-68766500D01*
X149276220Y-68766500D01*
X149050780Y-68766500D01*
X149050772Y-68766500D01*
X148938264Y-68781313D01*
X148938263Y-68781313D01*
X148798270Y-68839300D01*
X148798267Y-68839301D01*
X148798267Y-68839302D01*
X148678049Y-68931549D01*
X148633387Y-68989754D01*
X148585800Y-69051770D01*
X148527813Y-69191763D01*
X148527813Y-69191764D01*
X148513000Y-69304272D01*
X148513000Y-69640403D01*
X148493315Y-69707442D01*
X148440511Y-69753197D01*
X148371353Y-69763141D01*
X148307797Y-69734116D01*
X148301319Y-69728084D01*
X148173235Y-69600000D01*
X148029320Y-69456085D01*
X148023980Y-69449995D01*
X148002282Y-69421718D01*
X147876841Y-69325464D01*
X147875788Y-69325028D01*
X147730762Y-69264956D01*
X147730760Y-69264955D01*
X147613361Y-69249500D01*
X147574000Y-69244318D01*
X147538670Y-69248969D01*
X147530572Y-69249500D01*
X142181828Y-69249500D01*
X142173729Y-69248969D01*
X142138400Y-69244318D01*
X142103070Y-69248969D01*
X142094972Y-69249500D01*
X140282412Y-69249500D01*
X140215373Y-69229815D01*
X140205097Y-69222445D01*
X140202263Y-69220185D01*
X140202263Y-69220184D01*
X140202262Y-69220184D01*
X140144620Y-69183965D01*
X140049523Y-69124211D01*
X139879254Y-69064631D01*
X139879249Y-69064630D01*
X139700004Y-69044435D01*
X139699996Y-69044435D01*
X139520750Y-69064630D01*
X139520745Y-69064631D01*
X139350474Y-69124212D01*
X139340477Y-69130494D01*
X139274506Y-69149500D01*
X132759308Y-69149500D01*
X132692269Y-69129815D01*
X132671626Y-69113180D01*
X132631870Y-69073423D01*
X132631862Y-69073417D01*
X132490396Y-68989755D01*
X132490393Y-68989754D01*
X132332573Y-68943902D01*
X132332567Y-68943901D01*
X132295701Y-68941000D01*
X132295694Y-68941000D01*
X131864306Y-68941000D01*
X131864298Y-68941000D01*
X131827432Y-68943901D01*
X131827426Y-68943902D01*
X131669606Y-68989754D01*
X131669603Y-68989755D01*
X131528137Y-69073417D01*
X131528129Y-69073423D01*
X131411923Y-69189629D01*
X131411917Y-69189637D01*
X131328255Y-69331103D01*
X131328254Y-69331106D01*
X131282402Y-69488926D01*
X131282401Y-69488932D01*
X131279500Y-69525798D01*
X131279500Y-70649500D01*
X131259815Y-70716539D01*
X131207011Y-70762294D01*
X131155500Y-70773500D01*
X131104500Y-70773500D01*
X131037461Y-70753815D01*
X130991706Y-70701011D01*
X130980500Y-70649500D01*
X130980500Y-69525813D01*
X130980499Y-69525798D01*
X130977598Y-69488932D01*
X130977597Y-69488926D01*
X130931745Y-69331106D01*
X130931744Y-69331103D01*
X130931744Y-69331102D01*
X130848081Y-69189635D01*
X130848079Y-69189633D01*
X130848076Y-69189629D01*
X130731870Y-69073423D01*
X130731862Y-69073417D01*
X130590396Y-68989755D01*
X130590393Y-68989754D01*
X130432573Y-68943902D01*
X130432567Y-68943901D01*
X130395701Y-68941000D01*
X130395694Y-68941000D01*
X129964306Y-68941000D01*
X129964298Y-68941000D01*
X129927432Y-68943901D01*
X129927426Y-68943902D01*
X129769606Y-68989754D01*
X129769603Y-68989755D01*
X129628137Y-69073417D01*
X129628129Y-69073423D01*
X129511923Y-69189629D01*
X129511917Y-69189637D01*
X129428255Y-69331103D01*
X129428254Y-69331106D01*
X129382402Y-69488926D01*
X129382401Y-69488932D01*
X129379500Y-69525798D01*
X129379500Y-70682201D01*
X129382401Y-70719067D01*
X129382402Y-70719073D01*
X129428254Y-70876893D01*
X129428255Y-70876896D01*
X129511917Y-71018362D01*
X129511923Y-71018370D01*
X129606029Y-71112476D01*
X129639514Y-71173799D01*
X129634530Y-71243491D01*
X129632909Y-71247609D01*
X129594955Y-71339238D01*
X129594955Y-71339239D01*
X129594026Y-71346295D01*
X129565755Y-71410190D01*
X129558772Y-71417780D01*
X129511920Y-71464634D01*
X129511915Y-71464640D01*
X129428255Y-71606103D01*
X129428254Y-71606106D01*
X129382402Y-71763926D01*
X129382401Y-71763932D01*
X129379500Y-71800798D01*
X129379500Y-72957201D01*
X129382401Y-72994067D01*
X129382402Y-72994073D01*
X129428254Y-73151893D01*
X129428255Y-73151896D01*
X129511917Y-73293362D01*
X129511923Y-73293370D01*
X129628129Y-73409576D01*
X129628133Y-73409579D01*
X129628135Y-73409581D01*
X129769602Y-73493244D01*
X129781756Y-73496775D01*
X129927426Y-73539097D01*
X129927429Y-73539097D01*
X129927431Y-73539098D01*
X129964306Y-73542000D01*
X129964314Y-73542000D01*
X130395686Y-73542000D01*
X130395694Y-73542000D01*
X130432569Y-73539098D01*
X130432571Y-73539097D01*
X130432573Y-73539097D01*
X130474191Y-73527005D01*
X130590398Y-73493244D01*
X130591181Y-73492781D01*
X130592369Y-73492079D01*
X130594112Y-73491636D01*
X130597557Y-73490146D01*
X130597797Y-73490701D01*
X130660093Y-73474895D01*
X130712397Y-73490253D01*
X130712644Y-73489684D01*
X130717255Y-73491679D01*
X130718612Y-73492078D01*
X130719801Y-73492781D01*
X130719806Y-73492783D01*
X130877505Y-73538599D01*
X130877511Y-73538600D01*
X130879998Y-73538795D01*
X130880000Y-73538795D01*
X130880000Y-73273314D01*
X130897267Y-73210194D01*
X130931744Y-73151898D01*
X130967242Y-73029713D01*
X130977597Y-72994073D01*
X130977598Y-72994067D01*
X130980500Y-72957194D01*
X130980499Y-72253000D01*
X131000185Y-72185961D01*
X131052989Y-72140206D01*
X131104500Y-72129000D01*
X131155500Y-72129000D01*
X131222539Y-72148685D01*
X131268294Y-72201489D01*
X131279500Y-72253000D01*
X131279500Y-72957201D01*
X131282401Y-72994067D01*
X131282402Y-72994073D01*
X131328254Y-73151893D01*
X131328255Y-73151896D01*
X131328256Y-73151898D01*
X131362732Y-73210194D01*
X131380000Y-73273314D01*
X131380000Y-73538795D01*
X131380001Y-73538795D01*
X131382486Y-73538600D01*
X131540197Y-73492781D01*
X131541382Y-73492081D01*
X131542436Y-73491813D01*
X131547357Y-73489684D01*
X131547700Y-73490477D01*
X131609105Y-73474895D01*
X131662289Y-73490508D01*
X131662446Y-73490147D01*
X131665371Y-73491413D01*
X131667624Y-73492074D01*
X131669602Y-73493244D01*
X131669604Y-73493244D01*
X131669605Y-73493245D01*
X131827426Y-73539097D01*
X131827429Y-73539097D01*
X131827431Y-73539098D01*
X131864306Y-73542000D01*
X131864314Y-73542000D01*
X132295686Y-73542000D01*
X132295694Y-73542000D01*
X132332569Y-73539098D01*
X132332571Y-73539097D01*
X132332573Y-73539097D01*
X132374191Y-73527005D01*
X132490398Y-73493244D01*
X132631865Y-73409581D01*
X132748081Y-73293365D01*
X132831744Y-73151898D01*
X132867242Y-73029713D01*
X132877597Y-72994073D01*
X132877598Y-72994067D01*
X132880500Y-72957194D01*
X132880500Y-72806500D01*
X132900185Y-72739461D01*
X132952989Y-72693706D01*
X133004500Y-72682500D01*
X134409483Y-72682500D01*
X134476522Y-72702185D01*
X134522277Y-72754989D01*
X134527189Y-72767495D01*
X134546686Y-72826333D01*
X134546687Y-72826336D01*
X134564019Y-72854435D01*
X134638788Y-72975656D01*
X134638790Y-72975658D01*
X134643266Y-72981319D01*
X134641014Y-72983099D01*
X134668225Y-73032931D01*
X134663241Y-73102623D01*
X134621369Y-73158556D01*
X134555906Y-73182973D01*
X134334566Y-73198804D01*
X134054962Y-73259628D01*
X133786833Y-73359635D01*
X133535690Y-73496770D01*
X133535682Y-73496775D01*
X133306612Y-73668254D01*
X133306594Y-73668270D01*
X133104270Y-73870594D01*
X133104254Y-73870612D01*
X132932775Y-74099682D01*
X132932770Y-74099690D01*
X132795635Y-74350833D01*
X132695628Y-74618962D01*
X132634804Y-74898566D01*
X132614390Y-75183998D01*
X132614390Y-75184001D01*
X132634804Y-75469433D01*
X132695628Y-75749037D01*
X132695630Y-75749043D01*
X132695631Y-75749046D01*
X132792798Y-76009559D01*
X132795635Y-76017166D01*
X132932770Y-76268309D01*
X132932775Y-76268317D01*
X133104254Y-76497387D01*
X133104270Y-76497405D01*
X133306594Y-76699729D01*
X133306612Y-76699745D01*
X133535682Y-76871224D01*
X133535690Y-76871229D01*
X133786833Y-77008364D01*
X133786832Y-77008364D01*
X133786836Y-77008365D01*
X133786839Y-77008367D01*
X134054954Y-77108369D01*
X134054960Y-77108370D01*
X134054962Y-77108371D01*
X134334566Y-77169195D01*
X134334568Y-77169195D01*
X134334572Y-77169196D01*
X134535013Y-77183531D01*
X134600476Y-77207948D01*
X134642348Y-77263881D01*
X134647332Y-77333573D01*
X134642349Y-77350546D01*
X134633408Y-77374517D01*
X134627001Y-77434116D01*
X134627001Y-77434123D01*
X134627000Y-77434135D01*
X134627000Y-77507500D01*
X134607315Y-77574539D01*
X134554511Y-77620294D01*
X134503000Y-77631500D01*
X134409427Y-77631500D01*
X134401329Y-77630969D01*
X134379207Y-77628056D01*
X134366001Y-77626318D01*
X134365997Y-77626318D01*
X134187911Y-77649762D01*
X134187104Y-77650910D01*
X134157331Y-77668456D01*
X134063156Y-77707465D01*
X133937719Y-77803716D01*
X133916019Y-77831994D01*
X133910668Y-77838096D01*
X133585465Y-78163298D01*
X133524142Y-78196783D01*
X133511668Y-78198837D01*
X133424750Y-78208630D01*
X133254478Y-78268210D01*
X133101739Y-78364183D01*
X133042259Y-78423663D01*
X132980935Y-78457147D01*
X132911244Y-78452162D01*
X132866897Y-78423662D01*
X131939328Y-77496093D01*
X131905843Y-77434770D01*
X131910827Y-77365078D01*
X131952696Y-77309148D01*
X131977546Y-77290546D01*
X132063796Y-77175331D01*
X132114091Y-77040483D01*
X132120500Y-76980873D01*
X132120499Y-76435128D01*
X132114091Y-76375517D01*
X132098115Y-76332684D01*
X132063797Y-76240671D01*
X132063793Y-76240664D01*
X131977547Y-76125455D01*
X131977544Y-76125452D01*
X131862335Y-76039206D01*
X131862328Y-76039202D01*
X131727482Y-75988908D01*
X131727483Y-75988908D01*
X131667883Y-75982501D01*
X131667881Y-75982500D01*
X131667873Y-75982500D01*
X131667864Y-75982500D01*
X130072129Y-75982500D01*
X130072123Y-75982501D01*
X130012516Y-75988908D01*
X129877671Y-76039202D01*
X129877664Y-76039206D01*
X129762455Y-76125452D01*
X129683765Y-76230567D01*
X129627831Y-76272437D01*
X129558139Y-76277421D01*
X129496816Y-76243935D01*
X129463332Y-76182611D01*
X129460499Y-76156261D01*
X129460499Y-75785128D01*
X129454091Y-75725517D01*
X129438345Y-75683301D01*
X129403797Y-75590671D01*
X129403793Y-75590664D01*
X129317547Y-75475455D01*
X129317544Y-75475452D01*
X129202335Y-75389206D01*
X129202328Y-75389202D01*
X129067482Y-75338908D01*
X129067483Y-75338908D01*
X129007883Y-75332501D01*
X129007881Y-75332500D01*
X129007873Y-75332500D01*
X129007864Y-75332500D01*
X127412129Y-75332500D01*
X127412123Y-75332501D01*
X127352514Y-75338909D01*
X127259831Y-75373477D01*
X127190139Y-75378461D01*
X127128817Y-75344975D01*
X127095332Y-75283651D01*
X127092499Y-75257302D01*
X127092499Y-74211430D01*
X127093030Y-74203328D01*
X127097682Y-74167999D01*
X127097682Y-74167998D01*
X127079476Y-74029713D01*
X127077044Y-74011238D01*
X127016536Y-73865159D01*
X127016535Y-73865158D01*
X127016535Y-73865157D01*
X126976346Y-73812782D01*
X126920282Y-73739718D01*
X126892005Y-73718020D01*
X126885904Y-73712669D01*
X126763982Y-73590747D01*
X126591720Y-73418485D01*
X126586380Y-73412395D01*
X126564682Y-73384118D01*
X126439241Y-73287864D01*
X126417841Y-73279000D01*
X126371083Y-73259632D01*
X126293162Y-73227356D01*
X126278836Y-73225470D01*
X126278835Y-73225469D01*
X126136401Y-73206718D01*
X126136400Y-73206718D01*
X126101070Y-73211369D01*
X126092972Y-73211900D01*
X124808226Y-73211900D01*
X124800130Y-73211369D01*
X124775236Y-73208092D01*
X124711340Y-73179824D01*
X124672870Y-73121499D01*
X124672040Y-73051634D01*
X124685886Y-73020056D01*
X124741353Y-72930130D01*
X124741358Y-72930119D01*
X124796505Y-72763697D01*
X124796506Y-72763690D01*
X124806999Y-72660986D01*
X124807000Y-72660973D01*
X124807000Y-72386000D01*
X123969500Y-72386000D01*
X123969500Y-73812174D01*
X123960062Y-73859623D01*
X123955514Y-73870605D01*
X123948955Y-73886439D01*
X123928318Y-74043197D01*
X123932968Y-74078530D01*
X123933499Y-74086630D01*
X123933499Y-74424106D01*
X123933500Y-74649500D01*
X123913816Y-74716539D01*
X123861012Y-74762294D01*
X123809500Y-74773500D01*
X123593500Y-74773500D01*
X123526461Y-74753815D01*
X123480706Y-74701011D01*
X123469500Y-74649500D01*
X123469500Y-70100000D01*
X123969500Y-70100000D01*
X123969500Y-71886000D01*
X124806999Y-71886000D01*
X124806999Y-71611028D01*
X124806998Y-71611013D01*
X124796505Y-71508302D01*
X124741358Y-71341880D01*
X124741356Y-71341875D01*
X124649315Y-71192654D01*
X124537342Y-71080681D01*
X124503857Y-71019358D01*
X124508841Y-70949666D01*
X124537342Y-70905319D01*
X124649315Y-70793345D01*
X124741356Y-70644124D01*
X124741358Y-70644119D01*
X124796505Y-70477697D01*
X124796506Y-70477690D01*
X124806999Y-70374986D01*
X124807000Y-70374973D01*
X124807000Y-70100000D01*
X123969500Y-70100000D01*
X123469500Y-70100000D01*
X123469500Y-68625000D01*
X123969500Y-68625000D01*
X123969500Y-69600000D01*
X124806999Y-69600000D01*
X124806999Y-69325028D01*
X124806998Y-69325013D01*
X124796505Y-69222302D01*
X124741358Y-69055880D01*
X124741356Y-69055875D01*
X124649315Y-68906654D01*
X124525345Y-68782684D01*
X124376124Y-68690643D01*
X124376119Y-68690641D01*
X124209697Y-68635494D01*
X124209690Y-68635493D01*
X124106986Y-68625000D01*
X123969500Y-68625000D01*
X123469500Y-68625000D01*
X123332027Y-68625000D01*
X123332012Y-68625001D01*
X123229302Y-68635494D01*
X123062880Y-68690641D01*
X123062875Y-68690643D01*
X122913654Y-68782684D01*
X122789683Y-68906655D01*
X122789679Y-68906660D01*
X122787826Y-68909665D01*
X122786018Y-68911290D01*
X122785202Y-68912323D01*
X122785025Y-68912183D01*
X122735874Y-68956385D01*
X122666911Y-68967601D01*
X122602831Y-68939752D01*
X122576753Y-68909653D01*
X122576737Y-68909628D01*
X122574712Y-68906344D01*
X122450656Y-68782288D01*
X122301334Y-68690186D01*
X122134797Y-68635001D01*
X122134795Y-68635000D01*
X122032010Y-68624500D01*
X121256998Y-68624500D01*
X121256980Y-68624501D01*
X121154203Y-68635000D01*
X121154200Y-68635001D01*
X120987668Y-68690185D01*
X120987663Y-68690187D01*
X120838342Y-68782289D01*
X120714289Y-68906342D01*
X120622187Y-69055663D01*
X120622185Y-69055668D01*
X120579672Y-69183965D01*
X120539899Y-69241410D01*
X120500571Y-69261423D01*
X120500747Y-69261846D01*
X120495340Y-69264085D01*
X120494064Y-69264735D01*
X120493237Y-69264956D01*
X120347158Y-69325464D01*
X120317984Y-69347850D01*
X120252815Y-69373043D01*
X120184370Y-69359004D01*
X120134381Y-69310189D01*
X120118499Y-69249473D01*
X120118499Y-69187028D01*
X120118498Y-69187013D01*
X120108005Y-69084302D01*
X120052858Y-68917880D01*
X120052856Y-68917875D01*
X119960815Y-68768654D01*
X119836845Y-68644684D01*
X119687624Y-68552643D01*
X119687619Y-68552641D01*
X119521197Y-68497494D01*
X119521190Y-68497493D01*
X119418486Y-68487000D01*
X119143500Y-68487000D01*
X119143500Y-69700500D01*
X119123815Y-69767539D01*
X119071011Y-69813294D01*
X119019500Y-69824500D01*
X117668501Y-69824500D01*
X117668501Y-69961986D01*
X117678994Y-70064697D01*
X117734141Y-70231119D01*
X117734143Y-70231124D01*
X117826184Y-70380345D01*
X117950155Y-70504316D01*
X117950159Y-70504319D01*
X117953156Y-70506168D01*
X117954779Y-70507972D01*
X117955823Y-70508798D01*
X117955681Y-70508976D01*
X117999881Y-70558116D01*
X118011102Y-70627079D01*
X117983259Y-70691161D01*
X117953161Y-70717241D01*
X117949849Y-70719283D01*
X117949843Y-70719288D01*
X117825789Y-70843342D01*
X117733687Y-70992663D01*
X117733685Y-70992668D01*
X117724841Y-71019357D01*
X117678501Y-71159203D01*
X117678501Y-71159204D01*
X117678500Y-71159204D01*
X117668000Y-71261983D01*
X117668000Y-72037001D01*
X117668001Y-72037019D01*
X117678500Y-72139796D01*
X117678501Y-72139799D01*
X117733685Y-72306331D01*
X117733687Y-72306336D01*
X117754564Y-72340183D01*
X117825788Y-72455656D01*
X117949844Y-72579712D01*
X118099166Y-72671814D01*
X118208005Y-72707879D01*
X118265449Y-72747652D01*
X118292272Y-72812167D01*
X118293000Y-72825585D01*
X118293000Y-73084402D01*
X118273315Y-73151441D01*
X118256681Y-73172083D01*
X116243063Y-75185701D01*
X116181740Y-75219186D01*
X116112048Y-75214202D01*
X116067701Y-75185701D01*
X116062000Y-75180000D01*
X115312000Y-75180000D01*
X115312000Y-75905000D01*
X115369761Y-75905000D01*
X115436800Y-75924685D01*
X115482555Y-75977489D01*
X115492699Y-76045184D01*
X115472318Y-76200000D01*
X115476661Y-76232991D01*
X115476969Y-76235326D01*
X115477500Y-76243428D01*
X115477500Y-85808571D01*
X115476969Y-85816673D01*
X115472318Y-85851999D01*
X115472318Y-85852001D01*
X115492394Y-86004498D01*
X115492955Y-86008760D01*
X115531577Y-86102000D01*
X115553464Y-86154841D01*
X115649718Y-86280282D01*
X115677995Y-86301980D01*
X115684085Y-86307320D01*
X115813807Y-86437042D01*
X115925669Y-86548904D01*
X115931020Y-86555005D01*
X115952718Y-86583282D01*
X116056017Y-86662546D01*
X116078159Y-86679536D01*
X116224238Y-86740044D01*
X116302618Y-86750363D01*
X116380999Y-86760682D01*
X116381000Y-86760682D01*
X116416329Y-86756030D01*
X116424428Y-86755500D01*
X116739649Y-86755500D01*
X116806688Y-86775185D01*
X116852443Y-86827989D01*
X116862939Y-86866251D01*
X116865679Y-86891748D01*
X116865679Y-86918250D01*
X116861500Y-86957122D01*
X116861500Y-87352869D01*
X116861501Y-87352878D01*
X116865679Y-87391745D01*
X116865679Y-87418250D01*
X116861500Y-87457122D01*
X116861500Y-87852870D01*
X116861501Y-87852876D01*
X116867908Y-87912483D01*
X116918202Y-88047328D01*
X116918206Y-88047335D01*
X117004452Y-88162544D01*
X117004455Y-88162547D01*
X117119664Y-88248793D01*
X117119671Y-88248797D01*
X117254517Y-88299091D01*
X117254516Y-88299091D01*
X117261444Y-88299835D01*
X117314127Y-88305500D01*
X118209872Y-88305499D01*
X118269483Y-88299091D01*
X118404331Y-88248796D01*
X118519546Y-88162546D01*
X118519546Y-88162545D01*
X118522892Y-88160041D01*
X118588356Y-88135624D01*
X118638157Y-88142266D01*
X118692745Y-88161368D01*
X118692751Y-88161368D01*
X118692753Y-88161369D01*
X118871996Y-88181565D01*
X118872000Y-88181565D01*
X118872004Y-88181565D01*
X119051249Y-88161369D01*
X119051252Y-88161368D01*
X119051255Y-88161368D01*
X119221522Y-88101789D01*
X119374262Y-88005816D01*
X119501816Y-87878262D01*
X119597789Y-87725522D01*
X119604737Y-87705665D01*
X119609984Y-87690671D01*
X119650704Y-87633894D01*
X119715656Y-87608145D01*
X119784218Y-87621600D01*
X119814707Y-87643942D01*
X120193180Y-88022415D01*
X120226665Y-88083738D01*
X120229499Y-88110096D01*
X120229500Y-89275151D01*
X120228969Y-89283253D01*
X120224318Y-89318579D01*
X120224317Y-89318580D01*
X120233014Y-89384631D01*
X120244955Y-89475340D01*
X120244956Y-89475342D01*
X120293725Y-89593082D01*
X120305464Y-89621421D01*
X120401718Y-89746862D01*
X120429995Y-89768560D01*
X120436085Y-89773900D01*
X121157573Y-90495388D01*
X121872089Y-91209904D01*
X121877440Y-91216005D01*
X121899138Y-91244282D01*
X121976161Y-91303383D01*
X121976162Y-91303384D01*
X121976163Y-91303386D01*
X122015439Y-91333522D01*
X122024579Y-91340536D01*
X122024581Y-91340536D01*
X122024583Y-91340538D01*
X122097618Y-91370789D01*
X122170658Y-91401044D01*
X122249038Y-91411362D01*
X122327419Y-91421682D01*
X122327420Y-91421682D01*
X122362749Y-91417030D01*
X122370848Y-91416500D01*
X124556974Y-91416500D01*
X124624013Y-91436185D01*
X124669768Y-91488989D01*
X124680194Y-91526617D01*
X124690630Y-91619249D01*
X124690631Y-91619254D01*
X124750211Y-91789523D01*
X124846184Y-91942262D01*
X124860681Y-91956759D01*
X124894166Y-92018082D01*
X124897000Y-92044440D01*
X124897000Y-92250793D01*
X124877315Y-92317832D01*
X124824511Y-92363587D01*
X124773001Y-92374793D01*
X124598923Y-92374793D01*
X124598916Y-92374794D01*
X124539309Y-92381201D01*
X124404464Y-92431495D01*
X124404457Y-92431499D01*
X124289248Y-92517745D01*
X124289245Y-92517748D01*
X124202999Y-92632957D01*
X124202995Y-92632964D01*
X124152701Y-92767810D01*
X124146294Y-92827409D01*
X124146293Y-92827420D01*
X124146293Y-93653404D01*
X124146294Y-94382500D01*
X124126609Y-94449539D01*
X124073806Y-94495294D01*
X124022294Y-94506500D01*
X123001679Y-94506500D01*
X122934640Y-94486815D01*
X122888885Y-94434011D01*
X122878941Y-94364853D01*
X122881473Y-94352060D01*
X122917138Y-94211218D01*
X122936298Y-93980005D01*
X122936298Y-93979994D01*
X122917138Y-93748781D01*
X122860182Y-93523864D01*
X122766983Y-93311390D01*
X122682686Y-93182364D01*
X122094272Y-93770778D01*
X122055599Y-93677412D01*
X121959425Y-93552075D01*
X121834088Y-93455901D01*
X121740720Y-93417227D01*
X122330299Y-92827648D01*
X122330299Y-92827647D01*
X122299849Y-92803949D01*
X122095802Y-92693523D01*
X122095793Y-92693520D01*
X121876360Y-92618188D01*
X121647507Y-92580000D01*
X121415493Y-92580000D01*
X121186639Y-92618188D01*
X120967206Y-92693520D01*
X120967198Y-92693523D01*
X120763144Y-92803952D01*
X120732700Y-92827646D01*
X120732700Y-92827647D01*
X121322279Y-93417226D01*
X121228912Y-93455901D01*
X121103575Y-93552075D01*
X121007401Y-93677411D01*
X120968726Y-93770779D01*
X120417657Y-93219710D01*
X120384172Y-93158387D01*
X120382177Y-93117632D01*
X120385456Y-93089574D01*
X120352815Y-93036654D01*
X120228845Y-92912684D01*
X120079624Y-92820643D01*
X120079619Y-92820641D01*
X119913197Y-92765494D01*
X119913190Y-92765493D01*
X119810486Y-92755000D01*
X119673000Y-92755000D01*
X119673000Y-94106000D01*
X119653315Y-94173039D01*
X119600511Y-94218794D01*
X119549000Y-94230000D01*
X119297000Y-94230000D01*
X119229961Y-94210315D01*
X119184206Y-94157511D01*
X119173000Y-94106000D01*
X119173000Y-92755000D01*
X119035527Y-92755000D01*
X119035512Y-92755001D01*
X118932802Y-92765494D01*
X118766380Y-92820641D01*
X118766375Y-92820643D01*
X118617154Y-92912684D01*
X118493183Y-93036655D01*
X118493179Y-93036660D01*
X118491326Y-93039665D01*
X118489518Y-93041290D01*
X118488702Y-93042323D01*
X118488525Y-93042183D01*
X118439374Y-93086385D01*
X118370411Y-93097601D01*
X118306331Y-93069752D01*
X118280253Y-93039653D01*
X118280128Y-93039451D01*
X118278212Y-93036344D01*
X118154156Y-92912288D01*
X118016932Y-92827648D01*
X118004836Y-92820187D01*
X118004831Y-92820185D01*
X117955843Y-92803952D01*
X117838297Y-92765001D01*
X117838295Y-92765000D01*
X117735510Y-92754500D01*
X116960498Y-92754500D01*
X116960480Y-92754501D01*
X116857703Y-92765000D01*
X116857700Y-92765001D01*
X116691168Y-92820185D01*
X116691163Y-92820187D01*
X116541842Y-92912289D01*
X116417787Y-93036344D01*
X116402837Y-93060583D01*
X116350889Y-93107307D01*
X116281926Y-93118528D01*
X116217844Y-93090684D01*
X116206069Y-93079468D01*
X116197125Y-93069752D01*
X116083284Y-92946087D01*
X116083279Y-92946083D01*
X116083277Y-92946081D01*
X115900134Y-92803535D01*
X115900128Y-92803531D01*
X115696004Y-92693064D01*
X115695995Y-92693061D01*
X115476484Y-92617702D01*
X115283505Y-92585500D01*
X115247549Y-92579500D01*
X115015451Y-92579500D01*
X114979495Y-92585500D01*
X114786515Y-92617702D01*
X114567004Y-92693061D01*
X114566995Y-92693064D01*
X114362871Y-92803531D01*
X114362865Y-92803535D01*
X114179722Y-92946081D01*
X114179719Y-92946084D01*
X114022516Y-93116852D01*
X113895575Y-93311151D01*
X113802342Y-93523699D01*
X113745366Y-93748691D01*
X113745364Y-93748702D01*
X113726200Y-93979993D01*
X113726200Y-93980006D01*
X113745364Y-94211297D01*
X113745366Y-94211308D01*
X113802342Y-94436300D01*
X113895575Y-94648848D01*
X114022516Y-94843147D01*
X114022519Y-94843151D01*
X114022521Y-94843153D01*
X114179716Y-95013913D01*
X114179719Y-95013915D01*
X114179722Y-95013918D01*
X114362865Y-95156464D01*
X114362871Y-95156468D01*
X114362874Y-95156470D01*
X114566997Y-95266936D01*
X114680987Y-95306068D01*
X114786515Y-95342297D01*
X114786517Y-95342297D01*
X114786519Y-95342298D01*
X115015451Y-95380500D01*
X115015452Y-95380500D01*
X115247548Y-95380500D01*
X115247549Y-95380500D01*
X115476481Y-95342298D01*
X115528397Y-95324474D01*
X115598193Y-95321324D01*
X115656340Y-95354075D01*
X115803169Y-95500904D01*
X115808522Y-95507007D01*
X115830218Y-95535282D01*
X115955837Y-95631674D01*
X115957532Y-95632312D01*
X116101738Y-95692044D01*
X116180118Y-95702362D01*
X116258499Y-95712682D01*
X116258500Y-95712682D01*
X116293829Y-95708030D01*
X116301928Y-95707500D01*
X131693072Y-95707500D01*
X131701170Y-95708030D01*
X131736500Y-95712682D01*
X131736501Y-95712682D01*
X131788754Y-95705802D01*
X131893262Y-95692044D01*
X132039341Y-95631536D01*
X132039340Y-95631535D01*
X132058281Y-95623690D01*
X132062617Y-95615401D01*
X132076359Y-95603129D01*
X132164782Y-95535282D01*
X132186483Y-95506999D01*
X132191811Y-95500922D01*
X132634378Y-95058355D01*
X132695699Y-95024872D01*
X132754146Y-95026262D01*
X132881385Y-95060356D01*
X133069711Y-95076832D01*
X133116792Y-95080952D01*
X133116793Y-95080952D01*
X133116794Y-95080952D01*
X133156027Y-95077519D01*
X133352201Y-95060356D01*
X133580456Y-94999196D01*
X133794623Y-94899328D01*
X133988194Y-94763788D01*
X134155288Y-94596694D01*
X134285217Y-94411135D01*
X134339795Y-94367510D01*
X134409293Y-94360316D01*
X134471648Y-94391839D01*
X134488368Y-94411135D01*
X134618074Y-94596375D01*
X134618298Y-94596694D01*
X134785392Y-94763788D01*
X134882177Y-94831558D01*
X134978958Y-94899325D01*
X134978960Y-94899326D01*
X134978963Y-94899328D01*
X135193130Y-94999196D01*
X135421385Y-95060356D01*
X135609711Y-95076832D01*
X135656792Y-95080952D01*
X135656793Y-95080952D01*
X135656794Y-95080952D01*
X135696027Y-95077519D01*
X135892201Y-95060356D01*
X136120456Y-94999196D01*
X136334623Y-94899328D01*
X136528194Y-94763788D01*
X136695288Y-94596694D01*
X136825217Y-94411135D01*
X136879795Y-94367510D01*
X136949293Y-94360316D01*
X137011648Y-94391839D01*
X137028368Y-94411135D01*
X137158074Y-94596375D01*
X137158298Y-94596694D01*
X137325392Y-94763788D01*
X137422177Y-94831558D01*
X137518958Y-94899325D01*
X137518960Y-94899326D01*
X137518963Y-94899328D01*
X137733130Y-94999196D01*
X137961385Y-95060356D01*
X138149711Y-95076832D01*
X138196792Y-95080952D01*
X138196793Y-95080952D01*
X138196794Y-95080952D01*
X138236027Y-95077519D01*
X138432201Y-95060356D01*
X138660456Y-94999196D01*
X138874623Y-94899328D01*
X139068194Y-94763788D01*
X139235288Y-94596694D01*
X139365523Y-94410698D01*
X139420100Y-94367074D01*
X139489598Y-94359880D01*
X139551953Y-94391403D01*
X139568672Y-94410698D01*
X139698683Y-94596371D01*
X139865710Y-94763398D01*
X140059214Y-94898893D01*
X140273300Y-94998722D01*
X140273309Y-94998726D01*
X140486793Y-95055927D01*
X140486793Y-94160794D01*
X140594478Y-94209973D01*
X140701030Y-94225293D01*
X140772556Y-94225293D01*
X140879108Y-94209973D01*
X140986793Y-94160794D01*
X140986793Y-95055926D01*
X141200276Y-94998726D01*
X141200285Y-94998722D01*
X141414371Y-94898893D01*
X141607875Y-94763398D01*
X141774898Y-94596375D01*
X141905218Y-94410261D01*
X141959795Y-94366637D01*
X142029294Y-94359444D01*
X142091648Y-94390966D01*
X142108368Y-94410261D01*
X142238687Y-94596375D01*
X142405710Y-94763398D01*
X142599214Y-94898893D01*
X142813300Y-94998722D01*
X142813309Y-94998726D01*
X143026793Y-95055927D01*
X143026793Y-94160794D01*
X143134478Y-94209973D01*
X143241030Y-94225293D01*
X143312556Y-94225293D01*
X143419108Y-94209973D01*
X143526793Y-94160794D01*
X143526793Y-95055926D01*
X143740276Y-94998726D01*
X143740285Y-94998722D01*
X143954371Y-94898893D01*
X144147875Y-94763398D01*
X144314898Y-94596375D01*
X144450393Y-94402871D01*
X144550222Y-94188785D01*
X144550225Y-94188779D01*
X144607429Y-93975293D01*
X143710479Y-93975293D01*
X143736286Y-93935137D01*
X143776793Y-93797182D01*
X143776793Y-93653404D01*
X143736286Y-93515449D01*
X143710479Y-93475293D01*
X144607429Y-93475293D01*
X144607428Y-93475292D01*
X144550225Y-93261806D01*
X144550222Y-93261800D01*
X144450393Y-93047715D01*
X144450392Y-93047713D01*
X144314906Y-92854219D01*
X144314901Y-92854213D01*
X144147875Y-92687187D01*
X143954371Y-92551692D01*
X143740285Y-92451863D01*
X143740279Y-92451860D01*
X143526793Y-92394657D01*
X143526793Y-93289791D01*
X143419108Y-93240613D01*
X143312556Y-93225293D01*
X143241030Y-93225293D01*
X143134478Y-93240613D01*
X143026793Y-93289791D01*
X143026793Y-92394657D01*
X143026792Y-92394657D01*
X142813306Y-92451860D01*
X142813300Y-92451863D01*
X142599215Y-92551692D01*
X142599213Y-92551693D01*
X142405719Y-92687179D01*
X142405713Y-92687184D01*
X142238684Y-92854213D01*
X142238683Y-92854215D01*
X142108368Y-93040324D01*
X142053791Y-93083948D01*
X141984292Y-93091141D01*
X141921938Y-93059619D01*
X141905218Y-93040324D01*
X141774902Y-92854215D01*
X141774901Y-92854213D01*
X141607875Y-92687187D01*
X141414371Y-92551692D01*
X141200285Y-92451863D01*
X141200279Y-92451860D01*
X140986793Y-92394657D01*
X140986793Y-93289791D01*
X140879108Y-93240613D01*
X140772556Y-93225293D01*
X140701030Y-93225293D01*
X140594478Y-93240613D01*
X140486793Y-93289791D01*
X140486793Y-92394657D01*
X140486792Y-92394657D01*
X140273306Y-92451860D01*
X140273300Y-92451863D01*
X140059215Y-92551692D01*
X140059213Y-92551693D01*
X139865719Y-92687179D01*
X139865713Y-92687184D01*
X139698684Y-92854213D01*
X139698683Y-92854215D01*
X139568673Y-93039888D01*
X139514096Y-93083512D01*
X139444597Y-93090705D01*
X139382243Y-93059183D01*
X139365523Y-93039887D01*
X139235287Y-92853890D01*
X139068195Y-92686799D01*
X139068188Y-92686794D01*
X138874627Y-92551260D01*
X138874623Y-92551258D01*
X138870169Y-92549181D01*
X138660456Y-92451390D01*
X138660452Y-92451389D01*
X138660448Y-92451387D01*
X138432206Y-92390231D01*
X138432196Y-92390229D01*
X138196794Y-92369634D01*
X138196792Y-92369634D01*
X137961389Y-92390229D01*
X137961379Y-92390231D01*
X137733137Y-92451387D01*
X137733128Y-92451391D01*
X137518964Y-92551257D01*
X137518962Y-92551258D01*
X137325390Y-92686798D01*
X137158298Y-92853890D01*
X137028368Y-93039451D01*
X136973791Y-93083076D01*
X136904293Y-93090270D01*
X136841938Y-93058747D01*
X136825218Y-93039451D01*
X136695287Y-92853890D01*
X136528195Y-92686799D01*
X136528188Y-92686794D01*
X136334627Y-92551260D01*
X136334623Y-92551258D01*
X136330169Y-92549181D01*
X136120456Y-92451390D01*
X136120452Y-92451389D01*
X136120448Y-92451387D01*
X135892206Y-92390231D01*
X135892196Y-92390229D01*
X135656794Y-92369634D01*
X135656792Y-92369634D01*
X135421389Y-92390229D01*
X135421379Y-92390231D01*
X135193137Y-92451387D01*
X135193128Y-92451391D01*
X134978964Y-92551257D01*
X134978962Y-92551258D01*
X134785390Y-92686798D01*
X134618298Y-92853890D01*
X134488368Y-93039451D01*
X134433791Y-93083076D01*
X134364293Y-93090270D01*
X134301938Y-93058747D01*
X134285218Y-93039451D01*
X134155287Y-92853890D01*
X133988195Y-92686799D01*
X133988188Y-92686794D01*
X133794627Y-92551260D01*
X133794623Y-92551258D01*
X133790169Y-92549181D01*
X133580456Y-92451390D01*
X133580452Y-92451389D01*
X133580448Y-92451387D01*
X133352206Y-92390231D01*
X133352196Y-92390229D01*
X133116794Y-92369634D01*
X133116792Y-92369634D01*
X132881389Y-92390229D01*
X132881379Y-92390231D01*
X132653137Y-92451387D01*
X132653128Y-92451391D01*
X132438964Y-92551257D01*
X132438962Y-92551258D01*
X132245390Y-92686798D01*
X132078298Y-92853890D01*
X131948368Y-93039451D01*
X131893791Y-93083076D01*
X131824293Y-93090270D01*
X131761938Y-93058747D01*
X131745218Y-93039451D01*
X131615287Y-92853890D01*
X131448195Y-92686799D01*
X131448188Y-92686794D01*
X131254627Y-92551260D01*
X131254623Y-92551258D01*
X131250169Y-92549181D01*
X131040456Y-92451390D01*
X131040452Y-92451389D01*
X131040448Y-92451387D01*
X130812206Y-92390231D01*
X130812196Y-92390229D01*
X130576794Y-92369634D01*
X130576792Y-92369634D01*
X130341389Y-92390229D01*
X130341379Y-92390231D01*
X130113137Y-92451387D01*
X130113128Y-92451391D01*
X129898964Y-92551257D01*
X129898962Y-92551258D01*
X129705390Y-92686798D01*
X129538301Y-92853887D01*
X129408367Y-93039453D01*
X129353790Y-93083077D01*
X129284291Y-93090270D01*
X129221937Y-93058748D01*
X129205222Y-93039457D01*
X129075288Y-92853892D01*
X129075286Y-92853889D01*
X128908195Y-92686799D01*
X128908188Y-92686794D01*
X128714627Y-92551260D01*
X128714623Y-92551258D01*
X128710169Y-92549181D01*
X128500456Y-92451390D01*
X128500452Y-92451389D01*
X128500448Y-92451387D01*
X128272206Y-92390231D01*
X128272196Y-92390229D01*
X128036794Y-92369634D01*
X128036792Y-92369634D01*
X127801389Y-92390229D01*
X127801379Y-92390231D01*
X127573137Y-92451387D01*
X127573128Y-92451391D01*
X127358964Y-92551257D01*
X127358962Y-92551258D01*
X127165393Y-92686796D01*
X127043466Y-92808723D01*
X126982143Y-92842207D01*
X126912451Y-92837223D01*
X126856518Y-92795351D01*
X126839603Y-92764374D01*
X126790590Y-92632964D01*
X126790586Y-92632957D01*
X126704340Y-92517748D01*
X126704337Y-92517745D01*
X126589128Y-92431499D01*
X126589121Y-92431495D01*
X126454275Y-92381201D01*
X126454276Y-92381201D01*
X126394676Y-92374794D01*
X126394674Y-92374793D01*
X126394666Y-92374793D01*
X126394658Y-92374793D01*
X126222000Y-92374793D01*
X126154961Y-92355108D01*
X126109206Y-92302304D01*
X126098000Y-92250793D01*
X126098000Y-91990425D01*
X126117006Y-91924453D01*
X126201789Y-91789522D01*
X126261368Y-91619255D01*
X126271805Y-91526617D01*
X126298872Y-91462203D01*
X126356467Y-91422648D01*
X126395026Y-91416500D01*
X130598899Y-91416500D01*
X130606997Y-91417030D01*
X130642327Y-91421682D01*
X130677656Y-91417030D01*
X130685755Y-91416500D01*
X130770639Y-91416500D01*
X137208520Y-91416500D01*
X137216618Y-91417030D01*
X137251948Y-91421682D01*
X137251949Y-91421682D01*
X137304202Y-91414802D01*
X137408710Y-91401044D01*
X137554789Y-91340536D01*
X137603205Y-91303385D01*
X137680230Y-91244282D01*
X137701931Y-91215999D01*
X137707259Y-91209922D01*
X139407148Y-89510034D01*
X139468468Y-89476551D01*
X139538160Y-89481535D01*
X139594093Y-89523407D01*
X139600364Y-89532620D01*
X139695180Y-89686340D01*
X139695183Y-89686344D01*
X139819154Y-89810315D01*
X139968375Y-89902356D01*
X139968380Y-89902358D01*
X140134802Y-89957505D01*
X140134809Y-89957506D01*
X140237519Y-89967999D01*
X140487499Y-89967999D01*
X140487500Y-89967998D01*
X140487500Y-89118000D01*
X140987500Y-89118000D01*
X140987500Y-89967999D01*
X141237472Y-89967999D01*
X141237486Y-89967998D01*
X141340197Y-89957505D01*
X141506619Y-89902358D01*
X141506624Y-89902356D01*
X141655845Y-89810315D01*
X141779813Y-89686347D01*
X141783232Y-89682024D01*
X141840253Y-89641646D01*
X141910052Y-89638506D01*
X141970468Y-89673600D01*
X141977768Y-89682024D01*
X141981186Y-89686347D01*
X142105154Y-89810315D01*
X142254375Y-89902356D01*
X142254380Y-89902358D01*
X142420802Y-89957505D01*
X142420809Y-89957506D01*
X142523519Y-89967999D01*
X142773499Y-89967999D01*
X142773500Y-89967998D01*
X142773500Y-89118000D01*
X143273500Y-89118000D01*
X143273500Y-89967999D01*
X143523472Y-89967999D01*
X143523486Y-89967998D01*
X143626197Y-89957505D01*
X143792619Y-89902358D01*
X143792624Y-89902356D01*
X143941845Y-89810315D01*
X144065815Y-89686345D01*
X144157856Y-89537124D01*
X144157858Y-89537119D01*
X144213005Y-89370697D01*
X144213006Y-89370690D01*
X144223499Y-89267986D01*
X144223500Y-89267973D01*
X144223500Y-89150000D01*
X148751001Y-89150000D01*
X148751001Y-89424986D01*
X148761494Y-89527697D01*
X148816641Y-89694119D01*
X148816643Y-89694124D01*
X148908684Y-89843345D01*
X149032654Y-89967315D01*
X149181875Y-90059356D01*
X149181880Y-90059358D01*
X149348302Y-90114505D01*
X149348309Y-90114506D01*
X149451019Y-90124999D01*
X149588499Y-90124999D01*
X149588500Y-90124998D01*
X149588500Y-89150000D01*
X148751001Y-89150000D01*
X144223500Y-89150000D01*
X144223500Y-89118000D01*
X143273500Y-89118000D01*
X142773500Y-89118000D01*
X140987500Y-89118000D01*
X140487500Y-89118000D01*
X140487500Y-88742000D01*
X140507185Y-88674961D01*
X140535991Y-88650000D01*
X148751000Y-88650000D01*
X149588500Y-88650000D01*
X149588500Y-87675000D01*
X149451027Y-87675000D01*
X149451012Y-87675001D01*
X149348302Y-87685494D01*
X149181880Y-87740641D01*
X149181875Y-87740643D01*
X149032654Y-87832684D01*
X148908684Y-87956654D01*
X148816643Y-88105875D01*
X148816641Y-88105880D01*
X148761494Y-88272302D01*
X148761493Y-88272309D01*
X148751000Y-88375013D01*
X148751000Y-88650000D01*
X140535991Y-88650000D01*
X140559989Y-88629206D01*
X140611500Y-88618000D01*
X144223499Y-88618000D01*
X144223499Y-88468028D01*
X144223498Y-88468013D01*
X144213005Y-88365302D01*
X144157858Y-88198880D01*
X144157856Y-88198875D01*
X144065815Y-88049654D01*
X143972195Y-87956034D01*
X143938710Y-87894711D01*
X143943694Y-87825019D01*
X143972191Y-87780676D01*
X144066212Y-87686656D01*
X144158314Y-87537334D01*
X144213499Y-87370797D01*
X144224000Y-87268009D01*
X144223999Y-86467992D01*
X144222416Y-86452500D01*
X144213499Y-86365203D01*
X144213498Y-86365200D01*
X144193916Y-86306105D01*
X144158314Y-86198666D01*
X144066212Y-86049344D01*
X143942156Y-85925288D01*
X143792834Y-85833186D01*
X143626297Y-85778001D01*
X143626295Y-85778000D01*
X143523510Y-85767500D01*
X142523498Y-85767500D01*
X142523480Y-85767501D01*
X142420703Y-85778000D01*
X142420700Y-85778001D01*
X142254168Y-85833185D01*
X142254163Y-85833187D01*
X142104842Y-85925289D01*
X141980786Y-86049345D01*
X141977762Y-86053170D01*
X141920739Y-86093544D01*
X141850939Y-86096679D01*
X141790525Y-86061580D01*
X141783238Y-86053170D01*
X141780213Y-86049345D01*
X141656157Y-85925289D01*
X141656156Y-85925288D01*
X141506834Y-85833186D01*
X141340297Y-85778001D01*
X141340295Y-85778000D01*
X141237510Y-85767500D01*
X140237498Y-85767500D01*
X140237480Y-85767501D01*
X140134703Y-85778000D01*
X140134700Y-85778001D01*
X139968168Y-85833185D01*
X139968163Y-85833187D01*
X139818842Y-85925289D01*
X139694789Y-86049342D01*
X139602687Y-86198663D01*
X139602685Y-86198668D01*
X139575912Y-86279464D01*
X139547501Y-86365203D01*
X139547501Y-86365204D01*
X139547500Y-86365204D01*
X139537000Y-86467983D01*
X139537000Y-87167902D01*
X139517315Y-87234941D01*
X139500681Y-87255583D01*
X137223084Y-89533181D01*
X137161761Y-89566666D01*
X137135403Y-89569500D01*
X133170412Y-89569500D01*
X133103373Y-89549815D01*
X133093097Y-89542445D01*
X133090263Y-89540185D01*
X133090262Y-89540184D01*
X132987067Y-89475342D01*
X132937523Y-89444211D01*
X132767254Y-89384631D01*
X132767249Y-89384630D01*
X132588004Y-89364435D01*
X132587996Y-89364435D01*
X132408750Y-89384630D01*
X132408745Y-89384631D01*
X132305454Y-89420775D01*
X132235675Y-89424336D01*
X132175047Y-89389607D01*
X132142820Y-89327614D01*
X132140499Y-89303733D01*
X132140499Y-89238662D01*
X132140498Y-89238644D01*
X132130349Y-89139292D01*
X132130348Y-89139289D01*
X132123467Y-89118523D01*
X132077003Y-88978303D01*
X132076999Y-88978297D01*
X132076998Y-88978294D01*
X131987970Y-88833959D01*
X131987967Y-88833955D01*
X131868044Y-88714032D01*
X131849399Y-88702531D01*
X131802676Y-88650581D01*
X131790499Y-88596994D01*
X131790499Y-88187005D01*
X131810184Y-88119966D01*
X131849400Y-88081467D01*
X131868044Y-88069968D01*
X131987968Y-87950044D01*
X132077003Y-87805697D01*
X132130349Y-87644708D01*
X132140500Y-87545345D01*
X132140499Y-87072096D01*
X132160183Y-87005058D01*
X132176818Y-86984416D01*
X132418416Y-86742819D01*
X132479739Y-86709334D01*
X132506097Y-86706500D01*
X135381572Y-86706500D01*
X135389670Y-86707030D01*
X135425000Y-86711682D01*
X135425001Y-86711682D01*
X135523950Y-86698655D01*
X135581762Y-86691044D01*
X135727841Y-86630536D01*
X135779845Y-86590632D01*
X135853282Y-86534282D01*
X135874983Y-86505999D01*
X135880319Y-86499914D01*
X137298416Y-85081818D01*
X137359739Y-85048333D01*
X137386097Y-85045499D01*
X138098502Y-85045499D01*
X138098508Y-85045499D01*
X138201297Y-85034999D01*
X138367834Y-84979814D01*
X138517156Y-84887712D01*
X138641212Y-84763656D01*
X138733314Y-84614334D01*
X138788499Y-84447797D01*
X138799000Y-84345009D01*
X138798999Y-83294992D01*
X138798591Y-83291001D01*
X138788499Y-83192203D01*
X138788498Y-83192200D01*
X138768878Y-83132991D01*
X138733314Y-83025666D01*
X138641212Y-82876344D01*
X138517156Y-82752288D01*
X138512049Y-82747181D01*
X138513402Y-82745827D01*
X138478646Y-82696740D01*
X138475510Y-82626940D01*
X138510607Y-82566526D01*
X138572796Y-82534677D01*
X138595935Y-82532499D01*
X138775371Y-82532499D01*
X138775372Y-82532499D01*
X138834983Y-82526091D01*
X138969831Y-82475796D01*
X139085046Y-82389546D01*
X139171296Y-82274331D01*
X139221591Y-82139483D01*
X139228000Y-82079873D01*
X139227999Y-80484128D01*
X139221591Y-80424517D01*
X139220190Y-80420762D01*
X139171297Y-80289671D01*
X139171293Y-80289664D01*
X139085047Y-80174455D01*
X139085044Y-80174452D01*
X138969835Y-80088206D01*
X138969828Y-80088202D01*
X138834982Y-80037908D01*
X138834983Y-80037908D01*
X138775383Y-80031501D01*
X138775381Y-80031500D01*
X138775373Y-80031500D01*
X138775364Y-80031500D01*
X135079629Y-80031500D01*
X135079623Y-80031501D01*
X135020016Y-80037908D01*
X134885171Y-80088202D01*
X134885169Y-80088203D01*
X134768891Y-80175250D01*
X134703427Y-80199667D01*
X134635154Y-80184816D01*
X134606899Y-80163664D01*
X134174337Y-79731102D01*
X134140852Y-79669779D01*
X134145836Y-79600087D01*
X134174333Y-79555744D01*
X134233816Y-79496262D01*
X134329789Y-79343522D01*
X134389368Y-79173255D01*
X134395144Y-79121983D01*
X134422208Y-79057572D01*
X134479802Y-79018015D01*
X134549639Y-79015876D01*
X134609546Y-79051833D01*
X134634546Y-79092534D01*
X134683702Y-79224328D01*
X134683706Y-79224335D01*
X134769952Y-79339544D01*
X134769955Y-79339547D01*
X134885164Y-79425793D01*
X134885171Y-79425797D01*
X135020017Y-79476091D01*
X135020016Y-79476091D01*
X135026944Y-79476835D01*
X135079627Y-79482500D01*
X138775372Y-79482499D01*
X138834983Y-79476091D01*
X138969831Y-79425796D01*
X139085046Y-79339546D01*
X139171296Y-79224331D01*
X139221591Y-79089483D01*
X139228000Y-79029873D01*
X139227999Y-77434128D01*
X139221591Y-77374517D01*
X139219026Y-77367641D01*
X139171297Y-77239671D01*
X139171293Y-77239664D01*
X139085047Y-77124455D01*
X139085044Y-77124452D01*
X138969835Y-77038206D01*
X138969828Y-77038202D01*
X138834982Y-76987908D01*
X138834983Y-76987908D01*
X138775383Y-76981501D01*
X138775381Y-76981500D01*
X138775373Y-76981500D01*
X138775365Y-76981500D01*
X137652000Y-76981500D01*
X137584961Y-76961815D01*
X137539206Y-76909011D01*
X137528000Y-76857500D01*
X137528000Y-73064230D01*
X137547685Y-72997191D01*
X137600489Y-72951436D01*
X137669647Y-72941492D01*
X137733203Y-72970517D01*
X137739681Y-72976549D01*
X137862844Y-73099712D01*
X138012166Y-73191814D01*
X138178703Y-73246999D01*
X138281491Y-73257500D01*
X139181508Y-73257499D01*
X139181516Y-73257498D01*
X139181519Y-73257498D01*
X139237802Y-73251748D01*
X139284297Y-73246999D01*
X139450834Y-73191814D01*
X139600156Y-73099712D01*
X139724212Y-72975656D01*
X139724212Y-72975655D01*
X139724320Y-72975548D01*
X139785643Y-72942063D01*
X139855335Y-72947047D01*
X139891398Y-72970224D01*
X139892182Y-72969233D01*
X139897848Y-72973713D01*
X140047162Y-73065812D01*
X140047164Y-73065813D01*
X140047166Y-73065814D01*
X140213703Y-73120999D01*
X140316492Y-73131500D01*
X141057560Y-73131500D01*
X141124599Y-73151185D01*
X141145241Y-73167819D01*
X141446241Y-73468819D01*
X141479726Y-73530142D01*
X141474742Y-73599834D01*
X141432870Y-73655767D01*
X141367406Y-73680184D01*
X141358560Y-73680500D01*
X140316484Y-73680500D01*
X140213704Y-73691000D01*
X140213703Y-73691001D01*
X140047164Y-73746186D01*
X140047162Y-73746187D01*
X139897848Y-73838286D01*
X139897844Y-73838289D01*
X139773789Y-73962344D01*
X139773786Y-73962348D01*
X139681687Y-74111662D01*
X139681686Y-74111664D01*
X139626501Y-74278203D01*
X139626500Y-74278204D01*
X139616000Y-74380984D01*
X139616000Y-75406015D01*
X139626500Y-75508795D01*
X139626501Y-75508796D01*
X139681686Y-75675335D01*
X139681687Y-75675337D01*
X139773786Y-75824651D01*
X139773789Y-75824655D01*
X139897371Y-75948237D01*
X139930856Y-76009560D01*
X139925872Y-76079252D01*
X139884001Y-76135184D01*
X139783055Y-76210752D01*
X139783052Y-76210755D01*
X139696806Y-76325964D01*
X139696802Y-76325971D01*
X139646508Y-76460817D01*
X139642577Y-76497387D01*
X139640101Y-76520423D01*
X139640100Y-76520435D01*
X139640100Y-78731937D01*
X139620415Y-78798976D01*
X139603782Y-78819617D01*
X139594500Y-78828899D01*
X139594500Y-80378300D01*
X139603781Y-80387581D01*
X139637266Y-80448904D01*
X139640100Y-80475262D01*
X139640100Y-82686770D01*
X139640101Y-82686776D01*
X139646508Y-82746383D01*
X139696802Y-82881228D01*
X139696806Y-82881235D01*
X139783052Y-82996444D01*
X139783055Y-82996447D01*
X139898264Y-83082693D01*
X139898271Y-83082697D01*
X140033117Y-83132991D01*
X140033116Y-83132991D01*
X140040044Y-83133735D01*
X140092727Y-83139400D01*
X141890272Y-83139399D01*
X141949883Y-83132991D01*
X142084731Y-83082696D01*
X142199946Y-82996446D01*
X142286196Y-82881231D01*
X142336491Y-82746383D01*
X142342900Y-82686773D01*
X142342900Y-82458499D01*
X142362585Y-82391461D01*
X142415389Y-82345706D01*
X142466900Y-82334500D01*
X142699564Y-82334500D01*
X142706502Y-82334889D01*
X142735400Y-82338145D01*
X142747998Y-82339565D01*
X142748000Y-82339565D01*
X142748003Y-82339565D01*
X142813270Y-82332211D01*
X142927247Y-82319369D01*
X142927248Y-82319368D01*
X142927255Y-82319368D01*
X143097522Y-82259789D01*
X143250262Y-82163816D01*
X143377816Y-82036262D01*
X143473789Y-81883522D01*
X143533368Y-81713255D01*
X143537252Y-81678783D01*
X143553565Y-81534003D01*
X143553565Y-81533996D01*
X143533369Y-81354750D01*
X143533368Y-81354745D01*
X143532713Y-81352872D01*
X143473789Y-81184478D01*
X143377816Y-81031738D01*
X143250262Y-80904184D01*
X143168600Y-80852872D01*
X143097523Y-80808211D01*
X142927254Y-80748631D01*
X142927249Y-80748630D01*
X142803485Y-80734686D01*
X142792954Y-80733500D01*
X142777969Y-80731811D01*
X142748002Y-80728435D01*
X142747998Y-80728435D01*
X142735400Y-80729854D01*
X142706502Y-80733110D01*
X142699564Y-80733500D01*
X142466899Y-80733500D01*
X142399860Y-80713815D01*
X142354105Y-80661011D01*
X142342899Y-80609500D01*
X142342899Y-80475263D01*
X142362584Y-80408224D01*
X142379218Y-80387582D01*
X142388499Y-80378300D01*
X142388500Y-80378300D01*
X142388500Y-79612498D01*
X142408185Y-79545459D01*
X142460989Y-79499704D01*
X142528684Y-79489559D01*
X142593422Y-79498082D01*
X142628751Y-79493430D01*
X142636850Y-79492900D01*
X145010388Y-79492900D01*
X145077427Y-79512585D01*
X145087703Y-79519955D01*
X145090536Y-79522214D01*
X145090538Y-79522216D01*
X145204070Y-79593552D01*
X145242674Y-79617810D01*
X145243278Y-79618189D01*
X145341556Y-79652578D01*
X145413545Y-79677768D01*
X145413550Y-79677769D01*
X145592796Y-79697965D01*
X145592800Y-79697965D01*
X145592804Y-79697965D01*
X145772051Y-79677769D01*
X145778837Y-79676220D01*
X145779439Y-79678858D01*
X145836918Y-79675922D01*
X145897547Y-79710648D01*
X145929778Y-79772640D01*
X145932100Y-79796527D01*
X145932100Y-82176371D01*
X145931569Y-82184469D01*
X145928726Y-82206066D01*
X145926918Y-82219799D01*
X145926918Y-82219800D01*
X145932100Y-82259160D01*
X145947555Y-82376560D01*
X145947556Y-82376562D01*
X145997976Y-82498288D01*
X146008064Y-82522641D01*
X146104318Y-82648082D01*
X146132595Y-82669780D01*
X146138685Y-82675120D01*
X147554538Y-84090973D01*
X148947469Y-85483904D01*
X148952820Y-85490005D01*
X148974518Y-85518282D01*
X149041861Y-85569956D01*
X149099959Y-85614536D01*
X149246038Y-85675044D01*
X149324419Y-85685363D01*
X149402799Y-85695682D01*
X149402800Y-85695682D01*
X149438129Y-85691030D01*
X149446228Y-85690500D01*
X150293588Y-85690500D01*
X150360627Y-85710185D01*
X150370903Y-85717555D01*
X150373736Y-85719814D01*
X150373738Y-85719816D01*
X150466337Y-85778000D01*
X150514990Y-85808571D01*
X150526478Y-85815789D01*
X150629963Y-85852000D01*
X150696745Y-85875368D01*
X150696750Y-85875369D01*
X150875996Y-85895565D01*
X150876000Y-85895565D01*
X150876002Y-85895565D01*
X150925116Y-85890031D01*
X150993938Y-85902085D01*
X151045317Y-85949434D01*
X151063000Y-86013251D01*
X151063000Y-86796402D01*
X151043315Y-86863441D01*
X151026681Y-86884083D01*
X150482096Y-87428668D01*
X150475994Y-87434019D01*
X150447720Y-87455715D01*
X150446637Y-87457127D01*
X150363517Y-87565451D01*
X150361269Y-87568381D01*
X150351462Y-87581161D01*
X150344286Y-87598486D01*
X150300443Y-87652888D01*
X150234148Y-87674951D01*
X150229136Y-87674913D01*
X150229136Y-87675000D01*
X150088500Y-87675000D01*
X150088500Y-90124999D01*
X150151500Y-90124999D01*
X150218539Y-90144684D01*
X150264294Y-90197488D01*
X150275500Y-90248999D01*
X150275500Y-92309651D01*
X150274969Y-92317749D01*
X150272126Y-92339346D01*
X150270318Y-92353079D01*
X150270318Y-92353080D01*
X150275500Y-92392440D01*
X150290955Y-92509840D01*
X150290956Y-92509842D01*
X150351464Y-92655921D01*
X150447718Y-92781362D01*
X150475995Y-92803060D01*
X150482085Y-92808400D01*
X151648978Y-93975293D01*
X152809589Y-95135904D01*
X152814940Y-95142005D01*
X152836638Y-95170282D01*
X152958464Y-95263761D01*
X152958464Y-95263762D01*
X152958463Y-95263763D01*
X152958468Y-95263765D01*
X152962079Y-95266536D01*
X152962081Y-95266537D01*
X152962085Y-95266539D01*
X153049726Y-95302840D01*
X153108158Y-95327044D01*
X153186538Y-95337363D01*
X153264919Y-95347682D01*
X153264920Y-95347682D01*
X153300249Y-95343030D01*
X153308348Y-95342500D01*
X157665172Y-95342500D01*
X157673270Y-95343030D01*
X157708600Y-95347682D01*
X157708601Y-95347682D01*
X157760853Y-95340802D01*
X157865362Y-95327044D01*
X157994321Y-95273627D01*
X158011434Y-95266539D01*
X158011434Y-95266538D01*
X158011441Y-95266536D01*
X158015051Y-95263765D01*
X158015057Y-95263763D01*
X158015056Y-95263762D01*
X158015055Y-95263762D01*
X158136882Y-95170282D01*
X158158583Y-95141999D01*
X158163911Y-95135922D01*
X158788321Y-94511512D01*
X158849642Y-94478029D01*
X158919334Y-94483013D01*
X158975267Y-94524885D01*
X158999684Y-94590349D01*
X159000000Y-94599195D01*
X159000000Y-96375500D01*
X158980315Y-96442539D01*
X158927511Y-96488294D01*
X158876000Y-96499500D01*
X112624500Y-96499500D01*
X112557461Y-96479815D01*
X112511706Y-96427011D01*
X112500500Y-96375500D01*
X112500500Y-89130000D01*
X114062000Y-89130000D01*
X114062000Y-89402844D01*
X114068401Y-89462372D01*
X114068403Y-89462379D01*
X114118645Y-89597086D01*
X114118649Y-89597093D01*
X114204809Y-89712187D01*
X114204812Y-89712190D01*
X114319906Y-89798350D01*
X114319913Y-89798354D01*
X114454620Y-89848596D01*
X114454627Y-89848598D01*
X114514155Y-89854999D01*
X114514172Y-89855000D01*
X114812000Y-89855000D01*
X114812000Y-89130000D01*
X115312000Y-89130000D01*
X115312000Y-89855000D01*
X115609828Y-89855000D01*
X115609844Y-89854999D01*
X115669372Y-89848598D01*
X115669379Y-89848596D01*
X115804086Y-89798354D01*
X115804093Y-89798350D01*
X115919187Y-89712190D01*
X115919190Y-89712187D01*
X116005350Y-89597093D01*
X116005354Y-89597086D01*
X116055596Y-89462379D01*
X116055598Y-89462372D01*
X116061999Y-89402844D01*
X116062000Y-89402827D01*
X116062000Y-89130000D01*
X115312000Y-89130000D01*
X114812000Y-89130000D01*
X114062000Y-89130000D01*
X112500500Y-89130000D01*
X112500500Y-88630000D01*
X114062000Y-88630000D01*
X114812000Y-88630000D01*
X114812000Y-87905000D01*
X115312000Y-87905000D01*
X115312000Y-88630000D01*
X116062000Y-88630000D01*
X116062000Y-88357172D01*
X116061999Y-88357155D01*
X116055598Y-88297627D01*
X116055596Y-88297620D01*
X116005354Y-88162913D01*
X116005350Y-88162906D01*
X115919190Y-88047812D01*
X115919187Y-88047809D01*
X115804093Y-87961649D01*
X115804086Y-87961645D01*
X115669379Y-87911403D01*
X115669372Y-87911401D01*
X115609844Y-87905000D01*
X115312000Y-87905000D01*
X114812000Y-87905000D01*
X114514155Y-87905000D01*
X114454627Y-87911401D01*
X114454620Y-87911403D01*
X114319913Y-87961645D01*
X114319906Y-87961649D01*
X114204812Y-88047809D01*
X114204809Y-88047812D01*
X114118649Y-88162906D01*
X114118645Y-88162913D01*
X114068403Y-88297620D01*
X114068401Y-88297627D01*
X114062000Y-88357155D01*
X114062000Y-88630000D01*
X112500500Y-88630000D01*
X112500500Y-75180000D01*
X114062000Y-75180000D01*
X114062000Y-75452844D01*
X114068401Y-75512372D01*
X114068403Y-75512379D01*
X114118645Y-75647086D01*
X114118649Y-75647093D01*
X114204809Y-75762187D01*
X114204812Y-75762190D01*
X114319906Y-75848350D01*
X114319913Y-75848354D01*
X114454620Y-75898596D01*
X114454627Y-75898598D01*
X114514155Y-75904999D01*
X114514172Y-75905000D01*
X114812000Y-75905000D01*
X114812000Y-75180000D01*
X114062000Y-75180000D01*
X112500500Y-75180000D01*
X112500500Y-74680000D01*
X114062000Y-74680000D01*
X114812000Y-74680000D01*
X114812000Y-73955000D01*
X115312000Y-73955000D01*
X115312000Y-74680000D01*
X116062000Y-74680000D01*
X116062000Y-74407172D01*
X116061999Y-74407155D01*
X116055598Y-74347627D01*
X116055596Y-74347620D01*
X116005354Y-74212913D01*
X116005350Y-74212906D01*
X115919190Y-74097812D01*
X115919187Y-74097809D01*
X115804093Y-74011649D01*
X115804086Y-74011645D01*
X115669379Y-73961403D01*
X115669372Y-73961401D01*
X115609844Y-73955000D01*
X115312000Y-73955000D01*
X114812000Y-73955000D01*
X114514155Y-73955000D01*
X114454627Y-73961401D01*
X114454620Y-73961403D01*
X114319913Y-74011645D01*
X114319906Y-74011649D01*
X114204812Y-74097809D01*
X114204809Y-74097812D01*
X114118649Y-74212906D01*
X114118645Y-74212913D01*
X114068403Y-74347620D01*
X114068401Y-74347627D01*
X114062000Y-74407155D01*
X114062000Y-74680000D01*
X112500500Y-74680000D01*
X112500500Y-69324500D01*
X117668500Y-69324500D01*
X118643500Y-69324500D01*
X118643500Y-68487000D01*
X118368529Y-68487000D01*
X118368512Y-68487001D01*
X118265802Y-68497494D01*
X118099380Y-68552641D01*
X118099375Y-68552643D01*
X117950154Y-68644684D01*
X117826184Y-68768654D01*
X117734143Y-68917875D01*
X117734141Y-68917880D01*
X117678994Y-69084302D01*
X117678993Y-69084309D01*
X117668500Y-69187013D01*
X117668500Y-69324500D01*
X112500500Y-69324500D01*
X112500500Y-67624500D01*
X112520185Y-67557461D01*
X112572989Y-67511706D01*
X112624500Y-67500500D01*
X158876000Y-67500500D01*
X158943039Y-67520185D01*
G37*
%TD.AperFunction*%
%TA.AperFunction,Conductor*%
G36*
X142817300Y-93515449D02*
G01*
X142776793Y-93653404D01*
X142776793Y-93797182D01*
X142817300Y-93935137D01*
X142843107Y-93975293D01*
X141170479Y-93975293D01*
X141196286Y-93935137D01*
X141236793Y-93797182D01*
X141236793Y-93653404D01*
X141196286Y-93515449D01*
X141170479Y-93475293D01*
X142843107Y-93475293D01*
X142817300Y-93515449D01*
G37*
%TD.AperFunction*%
%TA.AperFunction,Conductor*%
G36*
X124210059Y-88415685D02*
G01*
X124218492Y-88421613D01*
X124286159Y-88473536D01*
X124398333Y-88520000D01*
X124432238Y-88534044D01*
X124588999Y-88554683D01*
X124589000Y-88554683D01*
X124624334Y-88550030D01*
X124632434Y-88549500D01*
X127077833Y-88549500D01*
X127144872Y-88569185D01*
X127190627Y-88621989D01*
X127200571Y-88691147D01*
X127171546Y-88754703D01*
X127165514Y-88761181D01*
X127092427Y-88834267D01*
X127092424Y-88834271D01*
X127003457Y-88978507D01*
X127003452Y-88978518D01*
X126950144Y-89139393D01*
X126940000Y-89238677D01*
X126940000Y-89238690D01*
X126939999Y-89411999D01*
X126940000Y-89412000D01*
X128016000Y-89412000D01*
X128083039Y-89431685D01*
X128128794Y-89484489D01*
X128140000Y-89536000D01*
X128140000Y-89788000D01*
X128120315Y-89855039D01*
X128067511Y-89900794D01*
X128016000Y-89912000D01*
X126940001Y-89912000D01*
X126940001Y-90088470D01*
X126939214Y-90088470D01*
X126923739Y-90153158D01*
X126873325Y-90201534D01*
X126816155Y-90215500D01*
X122627517Y-90215500D01*
X122560478Y-90195815D01*
X122539836Y-90179181D01*
X122328810Y-89968155D01*
X122295325Y-89906832D01*
X122300309Y-89837140D01*
X122342181Y-89781207D01*
X122351385Y-89774942D01*
X122450656Y-89713712D01*
X122574712Y-89589656D01*
X122576752Y-89586347D01*
X122578745Y-89584555D01*
X122579193Y-89583989D01*
X122579289Y-89584065D01*
X122628694Y-89539623D01*
X122697656Y-89528395D01*
X122761740Y-89556234D01*
X122787829Y-89586339D01*
X122789681Y-89589341D01*
X122789683Y-89589344D01*
X122913654Y-89713315D01*
X123062875Y-89805356D01*
X123062880Y-89805358D01*
X123229302Y-89860505D01*
X123229309Y-89860506D01*
X123332019Y-89870999D01*
X123469499Y-89870999D01*
X123469500Y-89870998D01*
X123469500Y-88896000D01*
X123969500Y-88896000D01*
X123969500Y-89870999D01*
X124106972Y-89870999D01*
X124106986Y-89870998D01*
X124209697Y-89860505D01*
X124376119Y-89805358D01*
X124376124Y-89805356D01*
X124525345Y-89713315D01*
X124649315Y-89589345D01*
X124741356Y-89440124D01*
X124741358Y-89440119D01*
X124796505Y-89273697D01*
X124796506Y-89273690D01*
X124806999Y-89170986D01*
X124807000Y-89170973D01*
X124807000Y-88896000D01*
X123969500Y-88896000D01*
X123469500Y-88896000D01*
X123469500Y-88520000D01*
X123489185Y-88452961D01*
X123541989Y-88407206D01*
X123593500Y-88396000D01*
X124143020Y-88396000D01*
X124210059Y-88415685D01*
G37*
%TD.AperFunction*%
%TA.AperFunction,Conductor*%
G36*
X123955539Y-78280185D02*
G01*
X124001294Y-78332989D01*
X124012500Y-78384500D01*
X124012500Y-78744000D01*
X124849999Y-78744000D01*
X124849999Y-78500596D01*
X124869684Y-78433557D01*
X124922488Y-78387802D01*
X124991646Y-78377858D01*
X125055202Y-78406883D01*
X125061680Y-78412915D01*
X125855181Y-79206416D01*
X125888666Y-79267739D01*
X125891500Y-79294097D01*
X125891500Y-82886571D01*
X125890969Y-82894673D01*
X125886318Y-82929999D01*
X125886318Y-82930000D01*
X125892761Y-82978938D01*
X125906955Y-83086760D01*
X125906956Y-83086762D01*
X125950631Y-83192204D01*
X125967464Y-83232841D01*
X126063718Y-83358282D01*
X126091995Y-83379980D01*
X126098085Y-83385320D01*
X126518849Y-83806084D01*
X126903181Y-84190416D01*
X126936666Y-84251739D01*
X126939500Y-84278097D01*
X126939500Y-84751337D01*
X126939501Y-84751355D01*
X126949650Y-84850707D01*
X126949651Y-84850710D01*
X127002996Y-85011694D01*
X127003001Y-85011705D01*
X127092029Y-85156040D01*
X127092032Y-85156044D01*
X127211955Y-85275967D01*
X127211959Y-85275970D01*
X127356294Y-85364998D01*
X127356297Y-85364999D01*
X127356303Y-85365003D01*
X127517292Y-85418349D01*
X127616655Y-85428500D01*
X127842500Y-85428499D01*
X127909539Y-85448183D01*
X127955294Y-85500987D01*
X127966500Y-85552499D01*
X127966500Y-85897500D01*
X127946815Y-85964539D01*
X127894011Y-86010294D01*
X127842501Y-86021500D01*
X127616663Y-86021500D01*
X127616644Y-86021501D01*
X127517292Y-86031650D01*
X127517289Y-86031651D01*
X127356305Y-86084996D01*
X127356294Y-86085001D01*
X127211959Y-86174029D01*
X127211955Y-86174032D01*
X127092032Y-86293955D01*
X127092029Y-86293959D01*
X127003001Y-86438294D01*
X127002996Y-86438305D01*
X126949651Y-86599290D01*
X126939500Y-86698647D01*
X126939500Y-86698655D01*
X126939500Y-87020735D01*
X126939501Y-87224500D01*
X126919817Y-87291539D01*
X126867013Y-87337294D01*
X126815501Y-87348500D01*
X124889097Y-87348500D01*
X124822058Y-87328815D01*
X124801416Y-87312181D01*
X124554629Y-87065393D01*
X124521144Y-87004070D01*
X124526128Y-86934378D01*
X124554629Y-86890030D01*
X124649317Y-86795342D01*
X124741356Y-86646124D01*
X124741358Y-86646119D01*
X124796505Y-86479697D01*
X124796506Y-86479690D01*
X124806999Y-86376986D01*
X124807000Y-86376973D01*
X124807000Y-86102000D01*
X123593500Y-86102000D01*
X123526461Y-86082315D01*
X123480706Y-86029511D01*
X123469500Y-85978000D01*
X123469500Y-83816000D01*
X123969500Y-83816000D01*
X123969500Y-85602000D01*
X124806999Y-85602000D01*
X124806999Y-85327028D01*
X124806998Y-85327013D01*
X124796505Y-85224302D01*
X124741358Y-85057880D01*
X124741356Y-85057875D01*
X124649315Y-84908654D01*
X124537342Y-84796681D01*
X124503857Y-84735358D01*
X124508841Y-84665666D01*
X124537342Y-84621319D01*
X124649315Y-84509345D01*
X124741356Y-84360124D01*
X124741358Y-84360119D01*
X124796505Y-84193697D01*
X124796506Y-84193690D01*
X124806999Y-84090986D01*
X124807000Y-84090973D01*
X124807000Y-83816000D01*
X123969500Y-83816000D01*
X123469500Y-83816000D01*
X123469500Y-83316000D01*
X123969500Y-83316000D01*
X124806999Y-83316000D01*
X124806999Y-83041028D01*
X124806998Y-83041013D01*
X124796505Y-82938302D01*
X124741358Y-82771880D01*
X124741356Y-82771875D01*
X124649315Y-82622654D01*
X124558328Y-82531667D01*
X124524843Y-82470344D01*
X124529827Y-82400652D01*
X124564226Y-82353413D01*
X124563237Y-82352424D01*
X124692315Y-82223345D01*
X124784356Y-82074124D01*
X124784358Y-82074119D01*
X124839505Y-81907697D01*
X124839506Y-81907690D01*
X124849999Y-81804986D01*
X124850000Y-81804973D01*
X124850000Y-81530000D01*
X124012500Y-81530000D01*
X124012499Y-82450638D01*
X123992814Y-82517678D01*
X123976181Y-82538318D01*
X123969500Y-82544999D01*
X123969500Y-83316000D01*
X123469500Y-83316000D01*
X123469500Y-82395362D01*
X123489185Y-82328323D01*
X123505819Y-82307681D01*
X123512500Y-82300999D01*
X123512500Y-79244000D01*
X124012500Y-79244000D01*
X124012500Y-81030000D01*
X124849999Y-81030000D01*
X124849999Y-80755028D01*
X124849998Y-80755013D01*
X124839505Y-80652302D01*
X124784358Y-80485880D01*
X124784356Y-80485875D01*
X124692315Y-80336654D01*
X124580342Y-80224681D01*
X124546857Y-80163358D01*
X124551841Y-80093666D01*
X124580342Y-80049319D01*
X124692315Y-79937345D01*
X124784356Y-79788124D01*
X124784358Y-79788119D01*
X124839505Y-79621697D01*
X124839506Y-79621690D01*
X124849999Y-79518986D01*
X124850000Y-79518973D01*
X124850000Y-79244000D01*
X124012500Y-79244000D01*
X123512500Y-79244000D01*
X123512500Y-78384500D01*
X123532185Y-78317461D01*
X123584989Y-78271706D01*
X123636500Y-78260500D01*
X123888500Y-78260500D01*
X123955539Y-78280185D01*
G37*
%TD.AperFunction*%
%TA.AperFunction,Conductor*%
G36*
X158919334Y-80284414D02*
G01*
X158975267Y-80326286D01*
X158999684Y-80391750D01*
X159000000Y-80400596D01*
X159000000Y-85127500D01*
X158980315Y-85194539D01*
X158927511Y-85240294D01*
X158876000Y-85251500D01*
X158638385Y-85251500D01*
X158571346Y-85231815D01*
X158525591Y-85179011D01*
X158515647Y-85109853D01*
X158519309Y-85092905D01*
X158556499Y-84964895D01*
X158556500Y-84964889D01*
X158559399Y-84928049D01*
X158559400Y-84928034D01*
X158559400Y-84287400D01*
X157633400Y-84287400D01*
X157566361Y-84267715D01*
X157520606Y-84214911D01*
X157509400Y-84163400D01*
X157509400Y-82565103D01*
X158009400Y-82565103D01*
X158009400Y-83787400D01*
X158559400Y-83787400D01*
X158559400Y-83146765D01*
X158559399Y-83146750D01*
X158556500Y-83109910D01*
X158556499Y-83109904D01*
X158510683Y-82952206D01*
X158510682Y-82952203D01*
X158427085Y-82810847D01*
X158427078Y-82810838D01*
X158310961Y-82694721D01*
X158310952Y-82694714D01*
X158169596Y-82611117D01*
X158169593Y-82611116D01*
X158011894Y-82565300D01*
X158011897Y-82565300D01*
X158009400Y-82565103D01*
X157509400Y-82565103D01*
X157506903Y-82565300D01*
X157349206Y-82611116D01*
X157349203Y-82611117D01*
X157207849Y-82694713D01*
X157201683Y-82699497D01*
X157199789Y-82697055D01*
X157150980Y-82723639D01*
X157081294Y-82718579D01*
X157048627Y-82697559D01*
X157047431Y-82699102D01*
X157041262Y-82694317D01*
X156929671Y-82628323D01*
X156899798Y-82610656D01*
X156899797Y-82610655D01*
X156899796Y-82610655D01*
X156899793Y-82610653D01*
X156784050Y-82577027D01*
X156725164Y-82539421D01*
X156695958Y-82475948D01*
X156705704Y-82406761D01*
X156730961Y-82370273D01*
X158788319Y-80312914D01*
X158849642Y-80279430D01*
X158919334Y-80284414D01*
G37*
%TD.AperFunction*%
%TA.AperFunction,Conductor*%
G36*
X147708161Y-80214526D02*
G01*
X147764095Y-80256396D01*
X147787769Y-80314523D01*
X147801756Y-80420761D01*
X147801756Y-80420762D01*
X147837672Y-80507472D01*
X147862264Y-80566841D01*
X147958518Y-80692282D01*
X147986795Y-80713980D01*
X147992885Y-80719320D01*
X148649087Y-81375522D01*
X149289186Y-82015621D01*
X149322671Y-82076944D01*
X149319211Y-82142304D01*
X149305494Y-82183699D01*
X149295000Y-82286413D01*
X149295000Y-82436400D01*
X150621000Y-82436400D01*
X150688039Y-82456085D01*
X150733794Y-82508889D01*
X150745000Y-82560400D01*
X150745000Y-83786399D01*
X150939000Y-83786399D01*
X151006039Y-83806084D01*
X151051794Y-83858888D01*
X151063000Y-83910399D01*
X151063000Y-84166748D01*
X151043315Y-84233787D01*
X150990511Y-84279542D01*
X150925118Y-84289968D01*
X150876006Y-84284435D01*
X150875996Y-84284435D01*
X150696750Y-84304630D01*
X150696745Y-84304631D01*
X150526476Y-84364211D01*
X150373736Y-84460185D01*
X150370903Y-84462445D01*
X150368724Y-84463334D01*
X150367842Y-84463889D01*
X150367744Y-84463734D01*
X150306217Y-84488855D01*
X150293588Y-84489500D01*
X149702897Y-84489500D01*
X149635858Y-84469815D01*
X149615216Y-84453181D01*
X148098435Y-82936400D01*
X149295001Y-82936400D01*
X149295001Y-83086386D01*
X149305494Y-83189097D01*
X149360641Y-83355519D01*
X149360643Y-83355524D01*
X149452684Y-83504745D01*
X149576654Y-83628715D01*
X149725875Y-83720756D01*
X149725880Y-83720758D01*
X149892302Y-83775905D01*
X149892309Y-83775906D01*
X149995019Y-83786399D01*
X150244999Y-83786399D01*
X150245000Y-83786398D01*
X150245000Y-82936400D01*
X149295001Y-82936400D01*
X148098435Y-82936400D01*
X147169419Y-82007384D01*
X147135934Y-81946061D01*
X147133100Y-81919703D01*
X147133100Y-80537040D01*
X147152785Y-80470001D01*
X147205589Y-80424246D01*
X147231811Y-80416985D01*
X147231568Y-80415917D01*
X147238353Y-80414368D01*
X147238355Y-80414368D01*
X147408622Y-80354789D01*
X147561362Y-80258816D01*
X147577149Y-80243028D01*
X147638469Y-80209543D01*
X147708161Y-80214526D01*
G37*
%TD.AperFunction*%
%TA.AperFunction,Conductor*%
G36*
X131278539Y-79017685D02*
G01*
X131324294Y-79070489D01*
X131335500Y-79122000D01*
X131335499Y-80472998D01*
X131335500Y-80472999D01*
X131472972Y-80472999D01*
X131472986Y-80472998D01*
X131575697Y-80462505D01*
X131742119Y-80407358D01*
X131742124Y-80407356D01*
X131891345Y-80315315D01*
X132015315Y-80191345D01*
X132107356Y-80042124D01*
X132107358Y-80042119D01*
X132162505Y-79875697D01*
X132162506Y-79875690D01*
X132172999Y-79772986D01*
X132172999Y-79727599D01*
X132192682Y-79660559D01*
X132245485Y-79614803D01*
X132314644Y-79604858D01*
X132378200Y-79633881D01*
X132384680Y-79639915D01*
X134420669Y-81675904D01*
X134426022Y-81682007D01*
X134447717Y-81710281D01*
X134554414Y-81792153D01*
X134567451Y-81802156D01*
X134573159Y-81806536D01*
X134573161Y-81806536D01*
X134578484Y-81810621D01*
X134619688Y-81867048D01*
X134627000Y-81908998D01*
X134627000Y-82079869D01*
X134627001Y-82079876D01*
X134633408Y-82139483D01*
X134683702Y-82274328D01*
X134683706Y-82274335D01*
X134769952Y-82389544D01*
X134769955Y-82389547D01*
X134885164Y-82475793D01*
X134885171Y-82475797D01*
X134892466Y-82478518D01*
X134948400Y-82520389D01*
X134972817Y-82585853D01*
X134957966Y-82654126D01*
X134914230Y-82700238D01*
X134876292Y-82723639D01*
X134829842Y-82752289D01*
X134705789Y-82876342D01*
X134613687Y-83025663D01*
X134613685Y-83025668D01*
X134594789Y-83082693D01*
X134558501Y-83192203D01*
X134558501Y-83192204D01*
X134558500Y-83192204D01*
X134548000Y-83294983D01*
X134548000Y-83603500D01*
X134528315Y-83670539D01*
X134475511Y-83716294D01*
X134424000Y-83727500D01*
X132194113Y-83727500D01*
X132127074Y-83707815D01*
X132081319Y-83655011D01*
X132077704Y-83645807D01*
X132077000Y-83644297D01*
X131987968Y-83499956D01*
X131868044Y-83380032D01*
X131868040Y-83380029D01*
X131723705Y-83291001D01*
X131723699Y-83290998D01*
X131723697Y-83290997D01*
X131723694Y-83290996D01*
X131562709Y-83237651D01*
X131463346Y-83227500D01*
X130916662Y-83227500D01*
X130916644Y-83227501D01*
X130817292Y-83237650D01*
X130817289Y-83237651D01*
X130656305Y-83290996D01*
X130656294Y-83291001D01*
X130511959Y-83380029D01*
X130511955Y-83380032D01*
X130476681Y-83415307D01*
X130415358Y-83448792D01*
X130345666Y-83443808D01*
X130289733Y-83401936D01*
X130265316Y-83336472D01*
X130265000Y-83327626D01*
X130265000Y-81879834D01*
X130284685Y-81812795D01*
X130301314Y-81792158D01*
X130545922Y-81547550D01*
X130551999Y-81542222D01*
X130580282Y-81520521D01*
X130676536Y-81395080D01*
X130737044Y-81249001D01*
X130752500Y-81131600D01*
X130757682Y-81092239D01*
X130753030Y-81056908D01*
X130752500Y-81048810D01*
X130752500Y-80596999D01*
X130772185Y-80529960D01*
X130819782Y-80488716D01*
X130835500Y-80472999D01*
X130835500Y-79122000D01*
X130855185Y-79054961D01*
X130907989Y-79009206D01*
X130959500Y-78998000D01*
X131211500Y-78998000D01*
X131278539Y-79017685D01*
G37*
%TD.AperFunction*%
%TA.AperFunction,Conductor*%
G36*
X125834539Y-74432585D02*
G01*
X125880294Y-74485389D01*
X125891500Y-74536900D01*
X125891499Y-77244903D01*
X125871814Y-77311942D01*
X125819010Y-77357697D01*
X125749852Y-77367641D01*
X125686296Y-77338616D01*
X125679845Y-77332610D01*
X125613319Y-77266084D01*
X125607974Y-77259988D01*
X125586286Y-77231722D01*
X125586283Y-77231720D01*
X125586282Y-77231718D01*
X125460841Y-77135464D01*
X125390464Y-77106313D01*
X125314762Y-77074956D01*
X125314760Y-77074955D01*
X125263718Y-77068236D01*
X125158001Y-77054318D01*
X125158000Y-77054318D01*
X125122670Y-77058969D01*
X125114572Y-77059500D01*
X124931000Y-77059500D01*
X124863961Y-77039815D01*
X124818206Y-76987011D01*
X124813255Y-76964255D01*
X124807000Y-76958000D01*
X123969500Y-76958000D01*
X123960146Y-76967353D01*
X123949815Y-77002539D01*
X123897011Y-77048294D01*
X123845500Y-77059500D01*
X123593500Y-77059500D01*
X123526461Y-77039815D01*
X123480706Y-76987011D01*
X123469500Y-76935500D01*
X123469500Y-76098500D01*
X123489185Y-76031461D01*
X123541989Y-75985706D01*
X123593500Y-75974500D01*
X123845500Y-75974500D01*
X123912539Y-75994185D01*
X123958294Y-76046989D01*
X123969500Y-76098500D01*
X123969499Y-76457999D01*
X123969500Y-76458000D01*
X124806999Y-76458000D01*
X124806999Y-76183028D01*
X124806998Y-76183013D01*
X124796505Y-76080302D01*
X124741358Y-75913880D01*
X124741356Y-75913875D01*
X124725143Y-75887590D01*
X124706703Y-75820197D01*
X124727626Y-75753534D01*
X124742996Y-75734817D01*
X124927922Y-75549891D01*
X124933999Y-75544563D01*
X124962282Y-75522862D01*
X125058536Y-75397421D01*
X125119044Y-75251342D01*
X125121539Y-75232392D01*
X125139683Y-75094580D01*
X125135031Y-75059245D01*
X125134500Y-75051143D01*
X125134500Y-74536900D01*
X125154185Y-74469861D01*
X125206989Y-74424106D01*
X125258500Y-74412900D01*
X125767500Y-74412900D01*
X125834539Y-74432585D01*
G37*
%TD.AperFunction*%
%TA.AperFunction,Conductor*%
G36*
X149944203Y-74050529D02*
G01*
X149950681Y-74056561D01*
X150294808Y-74400688D01*
X150328293Y-74462011D01*
X150330347Y-74474485D01*
X150344630Y-74601249D01*
X150404210Y-74771521D01*
X150424788Y-74804270D01*
X150500184Y-74924262D01*
X150627738Y-75051816D01*
X150780478Y-75147789D01*
X150950745Y-75207367D01*
X150950745Y-75207368D01*
X150950750Y-75207369D01*
X151129996Y-75227565D01*
X151130000Y-75227565D01*
X151130004Y-75227565D01*
X151309249Y-75207369D01*
X151309252Y-75207368D01*
X151309255Y-75207368D01*
X151479522Y-75147789D01*
X151632262Y-75051816D01*
X151632267Y-75051810D01*
X151635097Y-75049555D01*
X151637275Y-75048665D01*
X151638158Y-75048111D01*
X151638255Y-75048265D01*
X151699783Y-75023145D01*
X151712412Y-75022500D01*
X152337194Y-75022500D01*
X152404233Y-75042185D01*
X152424875Y-75058819D01*
X153356162Y-75990106D01*
X153389647Y-76051429D01*
X153384663Y-76121121D01*
X153342791Y-76177054D01*
X153309441Y-76194827D01*
X153301014Y-76197775D01*
X153212485Y-76253402D01*
X153145248Y-76272402D01*
X153080542Y-76253402D01*
X153048062Y-76232994D01*
X153048058Y-76232992D01*
X152877802Y-76173416D01*
X152877789Y-76173413D01*
X152698544Y-76153218D01*
X152698536Y-76153218D01*
X152519290Y-76173413D01*
X152519277Y-76173416D01*
X152349022Y-76232991D01*
X152307483Y-76259092D01*
X152240246Y-76278091D01*
X152175540Y-76259091D01*
X152139922Y-76236711D01*
X152139918Y-76236709D01*
X151969662Y-76177133D01*
X151969649Y-76177130D01*
X151790404Y-76156935D01*
X151790396Y-76156935D01*
X151611150Y-76177130D01*
X151611145Y-76177131D01*
X151440876Y-76236711D01*
X151288137Y-76332684D01*
X151160584Y-76460237D01*
X151064611Y-76612976D01*
X151005031Y-76783245D01*
X151005030Y-76783250D01*
X150984835Y-76962496D01*
X150984835Y-76962504D01*
X150984982Y-76963809D01*
X150984835Y-76964648D01*
X150984835Y-76969464D01*
X150983991Y-76969464D01*
X150972927Y-77032631D01*
X150925578Y-77084010D01*
X150857967Y-77101634D01*
X150845578Y-77100631D01*
X150837761Y-77099602D01*
X150776227Y-77091500D01*
X150776220Y-77091500D01*
X150550780Y-77091500D01*
X150550772Y-77091500D01*
X150463893Y-77102938D01*
X150438264Y-77106313D01*
X150438262Y-77106313D01*
X150430208Y-77107374D01*
X150429815Y-77104395D01*
X150397186Y-77104386D01*
X150396793Y-77107374D01*
X150388736Y-77106313D01*
X150368951Y-77103708D01*
X150276227Y-77091500D01*
X150276220Y-77091500D01*
X150050780Y-77091500D01*
X150050772Y-77091500D01*
X149955292Y-77104071D01*
X149938264Y-77106313D01*
X149938263Y-77106313D01*
X149930207Y-77107374D01*
X149929972Y-77105595D01*
X149896226Y-77107804D01*
X149871811Y-77104589D01*
X149807915Y-77076320D01*
X149769446Y-77017995D01*
X149764000Y-76981650D01*
X149764000Y-76414645D01*
X149764000Y-76414639D01*
X149748544Y-76297238D01*
X149748543Y-76297235D01*
X149748437Y-76296978D01*
X149748328Y-76296431D01*
X149746440Y-76289383D01*
X149746901Y-76289259D01*
X149739000Y-76249530D01*
X149739000Y-74144242D01*
X149758685Y-74077203D01*
X149811489Y-74031448D01*
X149880647Y-74021504D01*
X149944203Y-74050529D01*
G37*
%TD.AperFunction*%
%TD*%
M02*
