%TF.GenerationSoftware,KiCad,Pcbnew,7.0.5*%
%TF.CreationDate,2023-07-22T13:56:16+02:00*%
%TF.ProjectId,eink-NFC,65696e6b-2d4e-4464-932e-6b696361645f,rev?*%
%TF.SameCoordinates,Original*%
%TF.FileFunction,Legend,Bot*%
%TF.FilePolarity,Positive*%
%FSLAX46Y46*%
G04 Gerber Fmt 4.6, Leading zero omitted, Abs format (unit mm)*
G04 Created by KiCad (PCBNEW 7.0.5) date 2023-07-22 13:56:16*
%MOMM*%
%LPD*%
G01*
G04 APERTURE LIST*
G04 Aperture macros list*
%AMRoundRect*
0 Rectangle with rounded corners*
0 $1 Rounding radius*
0 $2 $3 $4 $5 $6 $7 $8 $9 X,Y pos of 4 corners*
0 Add a 4 corners polygon primitive as box body*
4,1,4,$2,$3,$4,$5,$6,$7,$8,$9,$2,$3,0*
0 Add four circle primitives for the rounded corners*
1,1,$1+$1,$2,$3*
1,1,$1+$1,$4,$5*
1,1,$1+$1,$6,$7*
1,1,$1+$1,$8,$9*
0 Add four rect primitives between the rounded corners*
20,1,$1+$1,$2,$3,$4,$5,0*
20,1,$1+$1,$4,$5,$6,$7,0*
20,1,$1+$1,$6,$7,$8,$9,0*
20,1,$1+$1,$8,$9,$2,$3,0*%
G04 Aperture macros list end*
%ADD10C,0.150000*%
%ADD11C,0.254000*%
%ADD12C,0.125000*%
%ADD13C,0.120000*%
%ADD14C,0.200000*%
%ADD15C,0.100000*%
%ADD16C,0.152400*%
%ADD17RoundRect,0.075000X-0.075000X-0.662500X0.075000X-0.662500X0.075000X0.662500X-0.075000X0.662500X0*%
%ADD18RoundRect,0.075000X-0.662500X-0.075000X0.662500X-0.075000X0.662500X0.075000X-0.662500X0.075000X0*%
%ADD19R,1.500000X0.450000*%
%ADD20RoundRect,0.150000X0.150000X-0.512500X0.150000X0.512500X-0.150000X0.512500X-0.150000X-0.512500X0*%
%ADD21RoundRect,0.150000X-0.150000X0.825000X-0.150000X-0.825000X0.150000X-0.825000X0.150000X0.825000X0*%
%ADD22C,1.800000*%
%ADD23O,1.700000X1.700000*%
%ADD24R,1.700000X1.700000*%
%ADD25RoundRect,0.250000X0.337500X0.475000X-0.337500X0.475000X-0.337500X-0.475000X0.337500X-0.475000X0*%
%ADD26R,3.600000X1.500000*%
%ADD27RoundRect,0.250000X-0.350000X-0.450000X0.350000X-0.450000X0.350000X0.450000X-0.350000X0.450000X0*%
%ADD28RoundRect,0.250000X-0.475000X0.337500X-0.475000X-0.337500X0.475000X-0.337500X0.475000X0.337500X0*%
%ADD29R,0.800000X0.300000*%
%ADD30R,1.000000X0.950000*%
%ADD31RoundRect,0.250000X0.400000X0.625000X-0.400000X0.625000X-0.400000X-0.625000X0.400000X-0.625000X0*%
%ADD32RoundRect,0.225000X-0.225000X-0.375000X0.225000X-0.375000X0.225000X0.375000X-0.225000X0.375000X0*%
%ADD33RoundRect,0.250000X0.450000X-0.350000X0.450000X0.350000X-0.450000X0.350000X-0.450000X-0.350000X0*%
%ADD34RoundRect,0.250001X0.624999X-0.462499X0.624999X0.462499X-0.624999X0.462499X-0.624999X-0.462499X0*%
%ADD35R,1.701800X2.209800*%
%ADD36R,1.000000X1.500000*%
%ADD37RoundRect,0.250000X-0.450000X0.350000X-0.450000X-0.350000X0.450000X-0.350000X0.450000X0.350000X0*%
%ADD38C,3.000000*%
%ADD39RoundRect,0.250000X-0.337500X-0.475000X0.337500X-0.475000X0.337500X0.475000X-0.337500X0.475000X0*%
%ADD40RoundRect,0.225000X0.225000X0.375000X-0.225000X0.375000X-0.225000X-0.375000X0.225000X-0.375000X0*%
G04 APERTURE END LIST*
D10*
%TO.C,U1*%
X147573904Y-77940819D02*
X147573904Y-78750342D01*
X147573904Y-78750342D02*
X147526285Y-78845580D01*
X147526285Y-78845580D02*
X147478666Y-78893200D01*
X147478666Y-78893200D02*
X147383428Y-78940819D01*
X147383428Y-78940819D02*
X147192952Y-78940819D01*
X147192952Y-78940819D02*
X147097714Y-78893200D01*
X147097714Y-78893200D02*
X147050095Y-78845580D01*
X147050095Y-78845580D02*
X147002476Y-78750342D01*
X147002476Y-78750342D02*
X147002476Y-77940819D01*
X146002476Y-78940819D02*
X146573904Y-78940819D01*
X146288190Y-78940819D02*
X146288190Y-77940819D01*
X146288190Y-77940819D02*
X146383428Y-78083676D01*
X146383428Y-78083676D02*
X146478666Y-78178914D01*
X146478666Y-78178914D02*
X146573904Y-78226533D01*
%TO.C,Q1*%
X128568438Y-73803657D02*
X128663676Y-73756038D01*
X128663676Y-73756038D02*
X128758914Y-73660800D01*
X128758914Y-73660800D02*
X128901771Y-73517942D01*
X128901771Y-73517942D02*
X128997009Y-73470323D01*
X128997009Y-73470323D02*
X129092247Y-73470323D01*
X129044628Y-73708419D02*
X129139866Y-73660800D01*
X129139866Y-73660800D02*
X129235104Y-73565561D01*
X129235104Y-73565561D02*
X129282723Y-73375085D01*
X129282723Y-73375085D02*
X129282723Y-73041752D01*
X129282723Y-73041752D02*
X129235104Y-72851276D01*
X129235104Y-72851276D02*
X129139866Y-72756038D01*
X129139866Y-72756038D02*
X129044628Y-72708419D01*
X129044628Y-72708419D02*
X128854152Y-72708419D01*
X128854152Y-72708419D02*
X128758914Y-72756038D01*
X128758914Y-72756038D02*
X128663676Y-72851276D01*
X128663676Y-72851276D02*
X128616057Y-73041752D01*
X128616057Y-73041752D02*
X128616057Y-73375085D01*
X128616057Y-73375085D02*
X128663676Y-73565561D01*
X128663676Y-73565561D02*
X128758914Y-73660800D01*
X128758914Y-73660800D02*
X128854152Y-73708419D01*
X128854152Y-73708419D02*
X129044628Y-73708419D01*
X127663676Y-73708419D02*
X128235104Y-73708419D01*
X127949390Y-73708419D02*
X127949390Y-72708419D01*
X127949390Y-72708419D02*
X128044628Y-72851276D01*
X128044628Y-72851276D02*
X128139866Y-72946514D01*
X128139866Y-72946514D02*
X128235104Y-72994133D01*
%TO.C,U2*%
X134873904Y-68034819D02*
X134873904Y-68844342D01*
X134873904Y-68844342D02*
X134826285Y-68939580D01*
X134826285Y-68939580D02*
X134778666Y-68987200D01*
X134778666Y-68987200D02*
X134683428Y-69034819D01*
X134683428Y-69034819D02*
X134492952Y-69034819D01*
X134492952Y-69034819D02*
X134397714Y-68987200D01*
X134397714Y-68987200D02*
X134350095Y-68939580D01*
X134350095Y-68939580D02*
X134302476Y-68844342D01*
X134302476Y-68844342D02*
X134302476Y-68034819D01*
X133873904Y-68130057D02*
X133826285Y-68082438D01*
X133826285Y-68082438D02*
X133731047Y-68034819D01*
X133731047Y-68034819D02*
X133492952Y-68034819D01*
X133492952Y-68034819D02*
X133397714Y-68082438D01*
X133397714Y-68082438D02*
X133350095Y-68130057D01*
X133350095Y-68130057D02*
X133302476Y-68225295D01*
X133302476Y-68225295D02*
X133302476Y-68320533D01*
X133302476Y-68320533D02*
X133350095Y-68463390D01*
X133350095Y-68463390D02*
X133921523Y-69034819D01*
X133921523Y-69034819D02*
X133302476Y-69034819D01*
%TO.C,RF1*%
X152909219Y-85917161D02*
X152433028Y-85583828D01*
X152909219Y-85345733D02*
X151909219Y-85345733D01*
X151909219Y-85345733D02*
X151909219Y-85726685D01*
X151909219Y-85726685D02*
X151956838Y-85821923D01*
X151956838Y-85821923D02*
X152004457Y-85869542D01*
X152004457Y-85869542D02*
X152099695Y-85917161D01*
X152099695Y-85917161D02*
X152242552Y-85917161D01*
X152242552Y-85917161D02*
X152337790Y-85869542D01*
X152337790Y-85869542D02*
X152385409Y-85821923D01*
X152385409Y-85821923D02*
X152433028Y-85726685D01*
X152433028Y-85726685D02*
X152433028Y-85345733D01*
X152385409Y-86679066D02*
X152385409Y-86345733D01*
X152909219Y-86345733D02*
X151909219Y-86345733D01*
X151909219Y-86345733D02*
X151909219Y-86821923D01*
X152909219Y-87726685D02*
X152909219Y-87155257D01*
X152909219Y-87440971D02*
X151909219Y-87440971D01*
X151909219Y-87440971D02*
X152052076Y-87345733D01*
X152052076Y-87345733D02*
X152147314Y-87250495D01*
X152147314Y-87250495D02*
X152194933Y-87155257D01*
%TO.C,C15*%
X149642857Y-91359580D02*
X149690476Y-91407200D01*
X149690476Y-91407200D02*
X149833333Y-91454819D01*
X149833333Y-91454819D02*
X149928571Y-91454819D01*
X149928571Y-91454819D02*
X150071428Y-91407200D01*
X150071428Y-91407200D02*
X150166666Y-91311961D01*
X150166666Y-91311961D02*
X150214285Y-91216723D01*
X150214285Y-91216723D02*
X150261904Y-91026247D01*
X150261904Y-91026247D02*
X150261904Y-90883390D01*
X150261904Y-90883390D02*
X150214285Y-90692914D01*
X150214285Y-90692914D02*
X150166666Y-90597676D01*
X150166666Y-90597676D02*
X150071428Y-90502438D01*
X150071428Y-90502438D02*
X149928571Y-90454819D01*
X149928571Y-90454819D02*
X149833333Y-90454819D01*
X149833333Y-90454819D02*
X149690476Y-90502438D01*
X149690476Y-90502438D02*
X149642857Y-90550057D01*
X148690476Y-91454819D02*
X149261904Y-91454819D01*
X148976190Y-91454819D02*
X148976190Y-90454819D01*
X148976190Y-90454819D02*
X149071428Y-90597676D01*
X149071428Y-90597676D02*
X149166666Y-90692914D01*
X149166666Y-90692914D02*
X149261904Y-90740533D01*
X147785714Y-90454819D02*
X148261904Y-90454819D01*
X148261904Y-90454819D02*
X148309523Y-90931009D01*
X148309523Y-90931009D02*
X148261904Y-90883390D01*
X148261904Y-90883390D02*
X148166666Y-90835771D01*
X148166666Y-90835771D02*
X147928571Y-90835771D01*
X147928571Y-90835771D02*
X147833333Y-90883390D01*
X147833333Y-90883390D02*
X147785714Y-90931009D01*
X147785714Y-90931009D02*
X147738095Y-91026247D01*
X147738095Y-91026247D02*
X147738095Y-91264342D01*
X147738095Y-91264342D02*
X147785714Y-91359580D01*
X147785714Y-91359580D02*
X147833333Y-91407200D01*
X147833333Y-91407200D02*
X147928571Y-91454819D01*
X147928571Y-91454819D02*
X148166666Y-91454819D01*
X148166666Y-91454819D02*
X148261904Y-91407200D01*
X148261904Y-91407200D02*
X148309523Y-91359580D01*
%TO.C,L1*%
X134254819Y-81763333D02*
X134254819Y-81287143D01*
X134254819Y-81287143D02*
X133254819Y-81287143D01*
X134254819Y-82620476D02*
X134254819Y-82049048D01*
X134254819Y-82334762D02*
X133254819Y-82334762D01*
X133254819Y-82334762D02*
X133397676Y-82239524D01*
X133397676Y-82239524D02*
X133492914Y-82144286D01*
X133492914Y-82144286D02*
X133540533Y-82049048D01*
%TO.C,C12*%
X126642857Y-70359580D02*
X126690476Y-70407200D01*
X126690476Y-70407200D02*
X126833333Y-70454819D01*
X126833333Y-70454819D02*
X126928571Y-70454819D01*
X126928571Y-70454819D02*
X127071428Y-70407200D01*
X127071428Y-70407200D02*
X127166666Y-70311961D01*
X127166666Y-70311961D02*
X127214285Y-70216723D01*
X127214285Y-70216723D02*
X127261904Y-70026247D01*
X127261904Y-70026247D02*
X127261904Y-69883390D01*
X127261904Y-69883390D02*
X127214285Y-69692914D01*
X127214285Y-69692914D02*
X127166666Y-69597676D01*
X127166666Y-69597676D02*
X127071428Y-69502438D01*
X127071428Y-69502438D02*
X126928571Y-69454819D01*
X126928571Y-69454819D02*
X126833333Y-69454819D01*
X126833333Y-69454819D02*
X126690476Y-69502438D01*
X126690476Y-69502438D02*
X126642857Y-69550057D01*
X125690476Y-70454819D02*
X126261904Y-70454819D01*
X125976190Y-70454819D02*
X125976190Y-69454819D01*
X125976190Y-69454819D02*
X126071428Y-69597676D01*
X126071428Y-69597676D02*
X126166666Y-69692914D01*
X126166666Y-69692914D02*
X126261904Y-69740533D01*
X125309523Y-69550057D02*
X125261904Y-69502438D01*
X125261904Y-69502438D02*
X125166666Y-69454819D01*
X125166666Y-69454819D02*
X124928571Y-69454819D01*
X124928571Y-69454819D02*
X124833333Y-69502438D01*
X124833333Y-69502438D02*
X124785714Y-69550057D01*
X124785714Y-69550057D02*
X124738095Y-69645295D01*
X124738095Y-69645295D02*
X124738095Y-69740533D01*
X124738095Y-69740533D02*
X124785714Y-69883390D01*
X124785714Y-69883390D02*
X125357142Y-70454819D01*
X125357142Y-70454819D02*
X124738095Y-70454819D01*
%TO.C,R4*%
X144476166Y-69454819D02*
X144809499Y-68978628D01*
X145047594Y-69454819D02*
X145047594Y-68454819D01*
X145047594Y-68454819D02*
X144666642Y-68454819D01*
X144666642Y-68454819D02*
X144571404Y-68502438D01*
X144571404Y-68502438D02*
X144523785Y-68550057D01*
X144523785Y-68550057D02*
X144476166Y-68645295D01*
X144476166Y-68645295D02*
X144476166Y-68788152D01*
X144476166Y-68788152D02*
X144523785Y-68883390D01*
X144523785Y-68883390D02*
X144571404Y-68931009D01*
X144571404Y-68931009D02*
X144666642Y-68978628D01*
X144666642Y-68978628D02*
X145047594Y-68978628D01*
X143619023Y-68788152D02*
X143619023Y-69454819D01*
X143857118Y-68407200D02*
X144095213Y-69121485D01*
X144095213Y-69121485D02*
X143476166Y-69121485D01*
%TO.C,C7*%
X126166666Y-81359580D02*
X126214285Y-81407200D01*
X126214285Y-81407200D02*
X126357142Y-81454819D01*
X126357142Y-81454819D02*
X126452380Y-81454819D01*
X126452380Y-81454819D02*
X126595237Y-81407200D01*
X126595237Y-81407200D02*
X126690475Y-81311961D01*
X126690475Y-81311961D02*
X126738094Y-81216723D01*
X126738094Y-81216723D02*
X126785713Y-81026247D01*
X126785713Y-81026247D02*
X126785713Y-80883390D01*
X126785713Y-80883390D02*
X126738094Y-80692914D01*
X126738094Y-80692914D02*
X126690475Y-80597676D01*
X126690475Y-80597676D02*
X126595237Y-80502438D01*
X126595237Y-80502438D02*
X126452380Y-80454819D01*
X126452380Y-80454819D02*
X126357142Y-80454819D01*
X126357142Y-80454819D02*
X126214285Y-80502438D01*
X126214285Y-80502438D02*
X126166666Y-80550057D01*
X125833332Y-80454819D02*
X125166666Y-80454819D01*
X125166666Y-80454819D02*
X125595237Y-81454819D01*
%TO.C,C13*%
X117573080Y-69969142D02*
X117620700Y-69921523D01*
X117620700Y-69921523D02*
X117668319Y-69778666D01*
X117668319Y-69778666D02*
X117668319Y-69683428D01*
X117668319Y-69683428D02*
X117620700Y-69540571D01*
X117620700Y-69540571D02*
X117525461Y-69445333D01*
X117525461Y-69445333D02*
X117430223Y-69397714D01*
X117430223Y-69397714D02*
X117239747Y-69350095D01*
X117239747Y-69350095D02*
X117096890Y-69350095D01*
X117096890Y-69350095D02*
X116906414Y-69397714D01*
X116906414Y-69397714D02*
X116811176Y-69445333D01*
X116811176Y-69445333D02*
X116715938Y-69540571D01*
X116715938Y-69540571D02*
X116668319Y-69683428D01*
X116668319Y-69683428D02*
X116668319Y-69778666D01*
X116668319Y-69778666D02*
X116715938Y-69921523D01*
X116715938Y-69921523D02*
X116763557Y-69969142D01*
X117668319Y-70921523D02*
X117668319Y-70350095D01*
X117668319Y-70635809D02*
X116668319Y-70635809D01*
X116668319Y-70635809D02*
X116811176Y-70540571D01*
X116811176Y-70540571D02*
X116906414Y-70445333D01*
X116906414Y-70445333D02*
X116954033Y-70350095D01*
X116668319Y-71254857D02*
X116668319Y-71873904D01*
X116668319Y-71873904D02*
X117049271Y-71540571D01*
X117049271Y-71540571D02*
X117049271Y-71683428D01*
X117049271Y-71683428D02*
X117096890Y-71778666D01*
X117096890Y-71778666D02*
X117144509Y-71826285D01*
X117144509Y-71826285D02*
X117239747Y-71873904D01*
X117239747Y-71873904D02*
X117477842Y-71873904D01*
X117477842Y-71873904D02*
X117573080Y-71826285D01*
X117573080Y-71826285D02*
X117620700Y-71778666D01*
X117620700Y-71778666D02*
X117668319Y-71683428D01*
X117668319Y-71683428D02*
X117668319Y-71397714D01*
X117668319Y-71397714D02*
X117620700Y-71302476D01*
X117620700Y-71302476D02*
X117573080Y-71254857D01*
%TO.C,C6*%
X126166666Y-83359580D02*
X126214285Y-83407200D01*
X126214285Y-83407200D02*
X126357142Y-83454819D01*
X126357142Y-83454819D02*
X126452380Y-83454819D01*
X126452380Y-83454819D02*
X126595237Y-83407200D01*
X126595237Y-83407200D02*
X126690475Y-83311961D01*
X126690475Y-83311961D02*
X126738094Y-83216723D01*
X126738094Y-83216723D02*
X126785713Y-83026247D01*
X126785713Y-83026247D02*
X126785713Y-82883390D01*
X126785713Y-82883390D02*
X126738094Y-82692914D01*
X126738094Y-82692914D02*
X126690475Y-82597676D01*
X126690475Y-82597676D02*
X126595237Y-82502438D01*
X126595237Y-82502438D02*
X126452380Y-82454819D01*
X126452380Y-82454819D02*
X126357142Y-82454819D01*
X126357142Y-82454819D02*
X126214285Y-82502438D01*
X126214285Y-82502438D02*
X126166666Y-82550057D01*
X125309523Y-82454819D02*
X125499999Y-82454819D01*
X125499999Y-82454819D02*
X125595237Y-82502438D01*
X125595237Y-82502438D02*
X125642856Y-82550057D01*
X125642856Y-82550057D02*
X125738094Y-82692914D01*
X125738094Y-82692914D02*
X125785713Y-82883390D01*
X125785713Y-82883390D02*
X125785713Y-83264342D01*
X125785713Y-83264342D02*
X125738094Y-83359580D01*
X125738094Y-83359580D02*
X125690475Y-83407200D01*
X125690475Y-83407200D02*
X125595237Y-83454819D01*
X125595237Y-83454819D02*
X125404761Y-83454819D01*
X125404761Y-83454819D02*
X125309523Y-83407200D01*
X125309523Y-83407200D02*
X125261904Y-83359580D01*
X125261904Y-83359580D02*
X125214285Y-83264342D01*
X125214285Y-83264342D02*
X125214285Y-83026247D01*
X125214285Y-83026247D02*
X125261904Y-82931009D01*
X125261904Y-82931009D02*
X125309523Y-82883390D01*
X125309523Y-82883390D02*
X125404761Y-82835771D01*
X125404761Y-82835771D02*
X125595237Y-82835771D01*
X125595237Y-82835771D02*
X125690475Y-82883390D01*
X125690475Y-82883390D02*
X125738094Y-82931009D01*
X125738094Y-82931009D02*
X125785713Y-83026247D01*
D11*
%TO.C,J3*%
X113350318Y-90762667D02*
X114257461Y-90762667D01*
X114257461Y-90762667D02*
X114438889Y-90702190D01*
X114438889Y-90702190D02*
X114559842Y-90581238D01*
X114559842Y-90581238D02*
X114620318Y-90399809D01*
X114620318Y-90399809D02*
X114620318Y-90278857D01*
X113350318Y-91246476D02*
X113350318Y-92032667D01*
X113350318Y-92032667D02*
X113834127Y-91609333D01*
X113834127Y-91609333D02*
X113834127Y-91790762D01*
X113834127Y-91790762D02*
X113894603Y-91911714D01*
X113894603Y-91911714D02*
X113955080Y-91972190D01*
X113955080Y-91972190D02*
X114076032Y-92032667D01*
X114076032Y-92032667D02*
X114378413Y-92032667D01*
X114378413Y-92032667D02*
X114499365Y-91972190D01*
X114499365Y-91972190D02*
X114559842Y-91911714D01*
X114559842Y-91911714D02*
X114620318Y-91790762D01*
X114620318Y-91790762D02*
X114620318Y-91427905D01*
X114620318Y-91427905D02*
X114559842Y-91306952D01*
X114559842Y-91306952D02*
X114499365Y-91246476D01*
D10*
%TO.C,R7*%
X137348166Y-70516819D02*
X137681499Y-70040628D01*
X137919594Y-70516819D02*
X137919594Y-69516819D01*
X137919594Y-69516819D02*
X137538642Y-69516819D01*
X137538642Y-69516819D02*
X137443404Y-69564438D01*
X137443404Y-69564438D02*
X137395785Y-69612057D01*
X137395785Y-69612057D02*
X137348166Y-69707295D01*
X137348166Y-69707295D02*
X137348166Y-69850152D01*
X137348166Y-69850152D02*
X137395785Y-69945390D01*
X137395785Y-69945390D02*
X137443404Y-69993009D01*
X137443404Y-69993009D02*
X137538642Y-70040628D01*
X137538642Y-70040628D02*
X137919594Y-70040628D01*
X137014832Y-69516819D02*
X136348166Y-69516819D01*
X136348166Y-69516819D02*
X136776737Y-70516819D01*
%TO.C,D3*%
X133910294Y-84859019D02*
X133910294Y-83859019D01*
X133910294Y-83859019D02*
X133672199Y-83859019D01*
X133672199Y-83859019D02*
X133529342Y-83906638D01*
X133529342Y-83906638D02*
X133434104Y-84001876D01*
X133434104Y-84001876D02*
X133386485Y-84097114D01*
X133386485Y-84097114D02*
X133338866Y-84287590D01*
X133338866Y-84287590D02*
X133338866Y-84430447D01*
X133338866Y-84430447D02*
X133386485Y-84620923D01*
X133386485Y-84620923D02*
X133434104Y-84716161D01*
X133434104Y-84716161D02*
X133529342Y-84811400D01*
X133529342Y-84811400D02*
X133672199Y-84859019D01*
X133672199Y-84859019D02*
X133910294Y-84859019D01*
X133005532Y-83859019D02*
X132386485Y-83859019D01*
X132386485Y-83859019D02*
X132719818Y-84239971D01*
X132719818Y-84239971D02*
X132576961Y-84239971D01*
X132576961Y-84239971D02*
X132481723Y-84287590D01*
X132481723Y-84287590D02*
X132434104Y-84335209D01*
X132434104Y-84335209D02*
X132386485Y-84430447D01*
X132386485Y-84430447D02*
X132386485Y-84668542D01*
X132386485Y-84668542D02*
X132434104Y-84763780D01*
X132434104Y-84763780D02*
X132481723Y-84811400D01*
X132481723Y-84811400D02*
X132576961Y-84859019D01*
X132576961Y-84859019D02*
X132862675Y-84859019D01*
X132862675Y-84859019D02*
X132957913Y-84811400D01*
X132957913Y-84811400D02*
X133005532Y-84763780D01*
%TO.C,R5*%
X155394819Y-95083333D02*
X154918628Y-94750000D01*
X155394819Y-94511905D02*
X154394819Y-94511905D01*
X154394819Y-94511905D02*
X154394819Y-94892857D01*
X154394819Y-94892857D02*
X154442438Y-94988095D01*
X154442438Y-94988095D02*
X154490057Y-95035714D01*
X154490057Y-95035714D02*
X154585295Y-95083333D01*
X154585295Y-95083333D02*
X154728152Y-95083333D01*
X154728152Y-95083333D02*
X154823390Y-95035714D01*
X154823390Y-95035714D02*
X154871009Y-94988095D01*
X154871009Y-94988095D02*
X154918628Y-94892857D01*
X154918628Y-94892857D02*
X154918628Y-94511905D01*
X154394819Y-95988095D02*
X154394819Y-95511905D01*
X154394819Y-95511905D02*
X154871009Y-95464286D01*
X154871009Y-95464286D02*
X154823390Y-95511905D01*
X154823390Y-95511905D02*
X154775771Y-95607143D01*
X154775771Y-95607143D02*
X154775771Y-95845238D01*
X154775771Y-95845238D02*
X154823390Y-95940476D01*
X154823390Y-95940476D02*
X154871009Y-95988095D01*
X154871009Y-95988095D02*
X154966247Y-96035714D01*
X154966247Y-96035714D02*
X155204342Y-96035714D01*
X155204342Y-96035714D02*
X155299580Y-95988095D01*
X155299580Y-95988095D02*
X155347200Y-95940476D01*
X155347200Y-95940476D02*
X155394819Y-95845238D01*
X155394819Y-95845238D02*
X155394819Y-95607143D01*
X155394819Y-95607143D02*
X155347200Y-95511905D01*
X155347200Y-95511905D02*
X155299580Y-95464286D01*
%TO.C,F1*%
X138869009Y-74088666D02*
X138869009Y-73755333D01*
X139392819Y-73755333D02*
X138392819Y-73755333D01*
X138392819Y-73755333D02*
X138392819Y-74231523D01*
X139392819Y-75136285D02*
X139392819Y-74564857D01*
X139392819Y-74850571D02*
X138392819Y-74850571D01*
X138392819Y-74850571D02*
X138535676Y-74755333D01*
X138535676Y-74755333D02*
X138630914Y-74660095D01*
X138630914Y-74660095D02*
X138678533Y-74564857D01*
%TO.C,C10*%
X126642857Y-74359580D02*
X126690476Y-74407200D01*
X126690476Y-74407200D02*
X126833333Y-74454819D01*
X126833333Y-74454819D02*
X126928571Y-74454819D01*
X126928571Y-74454819D02*
X127071428Y-74407200D01*
X127071428Y-74407200D02*
X127166666Y-74311961D01*
X127166666Y-74311961D02*
X127214285Y-74216723D01*
X127214285Y-74216723D02*
X127261904Y-74026247D01*
X127261904Y-74026247D02*
X127261904Y-73883390D01*
X127261904Y-73883390D02*
X127214285Y-73692914D01*
X127214285Y-73692914D02*
X127166666Y-73597676D01*
X127166666Y-73597676D02*
X127071428Y-73502438D01*
X127071428Y-73502438D02*
X126928571Y-73454819D01*
X126928571Y-73454819D02*
X126833333Y-73454819D01*
X126833333Y-73454819D02*
X126690476Y-73502438D01*
X126690476Y-73502438D02*
X126642857Y-73550057D01*
X125690476Y-74454819D02*
X126261904Y-74454819D01*
X125976190Y-74454819D02*
X125976190Y-73454819D01*
X125976190Y-73454819D02*
X126071428Y-73597676D01*
X126071428Y-73597676D02*
X126166666Y-73692914D01*
X126166666Y-73692914D02*
X126261904Y-73740533D01*
X125071428Y-73454819D02*
X124976190Y-73454819D01*
X124976190Y-73454819D02*
X124880952Y-73502438D01*
X124880952Y-73502438D02*
X124833333Y-73550057D01*
X124833333Y-73550057D02*
X124785714Y-73645295D01*
X124785714Y-73645295D02*
X124738095Y-73835771D01*
X124738095Y-73835771D02*
X124738095Y-74073866D01*
X124738095Y-74073866D02*
X124785714Y-74264342D01*
X124785714Y-74264342D02*
X124833333Y-74359580D01*
X124833333Y-74359580D02*
X124880952Y-74407200D01*
X124880952Y-74407200D02*
X124976190Y-74454819D01*
X124976190Y-74454819D02*
X125071428Y-74454819D01*
X125071428Y-74454819D02*
X125166666Y-74407200D01*
X125166666Y-74407200D02*
X125214285Y-74359580D01*
X125214285Y-74359580D02*
X125261904Y-74264342D01*
X125261904Y-74264342D02*
X125309523Y-74073866D01*
X125309523Y-74073866D02*
X125309523Y-73835771D01*
X125309523Y-73835771D02*
X125261904Y-73645295D01*
X125261904Y-73645295D02*
X125214285Y-73550057D01*
X125214285Y-73550057D02*
X125166666Y-73502438D01*
X125166666Y-73502438D02*
X125071428Y-73454819D01*
%TO.C,C3*%
X138676666Y-86019580D02*
X138724285Y-86067200D01*
X138724285Y-86067200D02*
X138867142Y-86114819D01*
X138867142Y-86114819D02*
X138962380Y-86114819D01*
X138962380Y-86114819D02*
X139105237Y-86067200D01*
X139105237Y-86067200D02*
X139200475Y-85971961D01*
X139200475Y-85971961D02*
X139248094Y-85876723D01*
X139248094Y-85876723D02*
X139295713Y-85686247D01*
X139295713Y-85686247D02*
X139295713Y-85543390D01*
X139295713Y-85543390D02*
X139248094Y-85352914D01*
X139248094Y-85352914D02*
X139200475Y-85257676D01*
X139200475Y-85257676D02*
X139105237Y-85162438D01*
X139105237Y-85162438D02*
X138962380Y-85114819D01*
X138962380Y-85114819D02*
X138867142Y-85114819D01*
X138867142Y-85114819D02*
X138724285Y-85162438D01*
X138724285Y-85162438D02*
X138676666Y-85210057D01*
X138343332Y-85114819D02*
X137724285Y-85114819D01*
X137724285Y-85114819D02*
X138057618Y-85495771D01*
X138057618Y-85495771D02*
X137914761Y-85495771D01*
X137914761Y-85495771D02*
X137819523Y-85543390D01*
X137819523Y-85543390D02*
X137771904Y-85591009D01*
X137771904Y-85591009D02*
X137724285Y-85686247D01*
X137724285Y-85686247D02*
X137724285Y-85924342D01*
X137724285Y-85924342D02*
X137771904Y-86019580D01*
X137771904Y-86019580D02*
X137819523Y-86067200D01*
X137819523Y-86067200D02*
X137914761Y-86114819D01*
X137914761Y-86114819D02*
X138200475Y-86114819D01*
X138200475Y-86114819D02*
X138295713Y-86067200D01*
X138295713Y-86067200D02*
X138343332Y-86019580D01*
%TO.C,CR1*%
X142388419Y-84994666D02*
X142340800Y-85042285D01*
X142340800Y-85042285D02*
X142293180Y-85185142D01*
X142293180Y-85185142D02*
X142293180Y-85280380D01*
X142293180Y-85280380D02*
X142340800Y-85423237D01*
X142340800Y-85423237D02*
X142436038Y-85518475D01*
X142436038Y-85518475D02*
X142531276Y-85566094D01*
X142531276Y-85566094D02*
X142721752Y-85613713D01*
X142721752Y-85613713D02*
X142864609Y-85613713D01*
X142864609Y-85613713D02*
X143055085Y-85566094D01*
X143055085Y-85566094D02*
X143150323Y-85518475D01*
X143150323Y-85518475D02*
X143245561Y-85423237D01*
X143245561Y-85423237D02*
X143293180Y-85280380D01*
X143293180Y-85280380D02*
X143293180Y-85185142D01*
X143293180Y-85185142D02*
X143245561Y-85042285D01*
X143245561Y-85042285D02*
X143197942Y-84994666D01*
X142293180Y-83994666D02*
X142769371Y-84327999D01*
X142293180Y-84566094D02*
X143293180Y-84566094D01*
X143293180Y-84566094D02*
X143293180Y-84185142D01*
X143293180Y-84185142D02*
X143245561Y-84089904D01*
X143245561Y-84089904D02*
X143197942Y-84042285D01*
X143197942Y-84042285D02*
X143102704Y-83994666D01*
X143102704Y-83994666D02*
X142959847Y-83994666D01*
X142959847Y-83994666D02*
X142864609Y-84042285D01*
X142864609Y-84042285D02*
X142816990Y-84089904D01*
X142816990Y-84089904D02*
X142769371Y-84185142D01*
X142769371Y-84185142D02*
X142769371Y-84566094D01*
X142293180Y-83042285D02*
X142293180Y-83613713D01*
X142293180Y-83327999D02*
X143293180Y-83327999D01*
X143293180Y-83327999D02*
X143150323Y-83423237D01*
X143150323Y-83423237D02*
X143055085Y-83518475D01*
X143055085Y-83518475D02*
X143007466Y-83613713D01*
%TO.C,JP1*%
X157833333Y-80454819D02*
X157833333Y-81169104D01*
X157833333Y-81169104D02*
X157880952Y-81311961D01*
X157880952Y-81311961D02*
X157976190Y-81407200D01*
X157976190Y-81407200D02*
X158119047Y-81454819D01*
X158119047Y-81454819D02*
X158214285Y-81454819D01*
X157357142Y-81454819D02*
X157357142Y-80454819D01*
X157357142Y-80454819D02*
X156976190Y-80454819D01*
X156976190Y-80454819D02*
X156880952Y-80502438D01*
X156880952Y-80502438D02*
X156833333Y-80550057D01*
X156833333Y-80550057D02*
X156785714Y-80645295D01*
X156785714Y-80645295D02*
X156785714Y-80788152D01*
X156785714Y-80788152D02*
X156833333Y-80883390D01*
X156833333Y-80883390D02*
X156880952Y-80931009D01*
X156880952Y-80931009D02*
X156976190Y-80978628D01*
X156976190Y-80978628D02*
X157357142Y-80978628D01*
X155833333Y-81454819D02*
X156404761Y-81454819D01*
X156119047Y-81454819D02*
X156119047Y-80454819D01*
X156119047Y-80454819D02*
X156214285Y-80597676D01*
X156214285Y-80597676D02*
X156309523Y-80692914D01*
X156309523Y-80692914D02*
X156404761Y-80740533D01*
%TO.C,R6*%
X157934819Y-95083333D02*
X157458628Y-94750000D01*
X157934819Y-94511905D02*
X156934819Y-94511905D01*
X156934819Y-94511905D02*
X156934819Y-94892857D01*
X156934819Y-94892857D02*
X156982438Y-94988095D01*
X156982438Y-94988095D02*
X157030057Y-95035714D01*
X157030057Y-95035714D02*
X157125295Y-95083333D01*
X157125295Y-95083333D02*
X157268152Y-95083333D01*
X157268152Y-95083333D02*
X157363390Y-95035714D01*
X157363390Y-95035714D02*
X157411009Y-94988095D01*
X157411009Y-94988095D02*
X157458628Y-94892857D01*
X157458628Y-94892857D02*
X157458628Y-94511905D01*
X156934819Y-95940476D02*
X156934819Y-95750000D01*
X156934819Y-95750000D02*
X156982438Y-95654762D01*
X156982438Y-95654762D02*
X157030057Y-95607143D01*
X157030057Y-95607143D02*
X157172914Y-95511905D01*
X157172914Y-95511905D02*
X157363390Y-95464286D01*
X157363390Y-95464286D02*
X157744342Y-95464286D01*
X157744342Y-95464286D02*
X157839580Y-95511905D01*
X157839580Y-95511905D02*
X157887200Y-95559524D01*
X157887200Y-95559524D02*
X157934819Y-95654762D01*
X157934819Y-95654762D02*
X157934819Y-95845238D01*
X157934819Y-95845238D02*
X157887200Y-95940476D01*
X157887200Y-95940476D02*
X157839580Y-95988095D01*
X157839580Y-95988095D02*
X157744342Y-96035714D01*
X157744342Y-96035714D02*
X157506247Y-96035714D01*
X157506247Y-96035714D02*
X157411009Y-95988095D01*
X157411009Y-95988095D02*
X157363390Y-95940476D01*
X157363390Y-95940476D02*
X157315771Y-95845238D01*
X157315771Y-95845238D02*
X157315771Y-95654762D01*
X157315771Y-95654762D02*
X157363390Y-95559524D01*
X157363390Y-95559524D02*
X157411009Y-95511905D01*
X157411009Y-95511905D02*
X157506247Y-95464286D01*
%TO.C,C9*%
X126166666Y-77359580D02*
X126214285Y-77407200D01*
X126214285Y-77407200D02*
X126357142Y-77454819D01*
X126357142Y-77454819D02*
X126452380Y-77454819D01*
X126452380Y-77454819D02*
X126595237Y-77407200D01*
X126595237Y-77407200D02*
X126690475Y-77311961D01*
X126690475Y-77311961D02*
X126738094Y-77216723D01*
X126738094Y-77216723D02*
X126785713Y-77026247D01*
X126785713Y-77026247D02*
X126785713Y-76883390D01*
X126785713Y-76883390D02*
X126738094Y-76692914D01*
X126738094Y-76692914D02*
X126690475Y-76597676D01*
X126690475Y-76597676D02*
X126595237Y-76502438D01*
X126595237Y-76502438D02*
X126452380Y-76454819D01*
X126452380Y-76454819D02*
X126357142Y-76454819D01*
X126357142Y-76454819D02*
X126214285Y-76502438D01*
X126214285Y-76502438D02*
X126166666Y-76550057D01*
X125690475Y-77454819D02*
X125499999Y-77454819D01*
X125499999Y-77454819D02*
X125404761Y-77407200D01*
X125404761Y-77407200D02*
X125357142Y-77359580D01*
X125357142Y-77359580D02*
X125261904Y-77216723D01*
X125261904Y-77216723D02*
X125214285Y-77026247D01*
X125214285Y-77026247D02*
X125214285Y-76645295D01*
X125214285Y-76645295D02*
X125261904Y-76550057D01*
X125261904Y-76550057D02*
X125309523Y-76502438D01*
X125309523Y-76502438D02*
X125404761Y-76454819D01*
X125404761Y-76454819D02*
X125595237Y-76454819D01*
X125595237Y-76454819D02*
X125690475Y-76502438D01*
X125690475Y-76502438D02*
X125738094Y-76550057D01*
X125738094Y-76550057D02*
X125785713Y-76645295D01*
X125785713Y-76645295D02*
X125785713Y-76883390D01*
X125785713Y-76883390D02*
X125738094Y-76978628D01*
X125738094Y-76978628D02*
X125690475Y-77026247D01*
X125690475Y-77026247D02*
X125595237Y-77073866D01*
X125595237Y-77073866D02*
X125404761Y-77073866D01*
X125404761Y-77073866D02*
X125309523Y-77026247D01*
X125309523Y-77026247D02*
X125261904Y-76978628D01*
X125261904Y-76978628D02*
X125214285Y-76883390D01*
%TO.C,R3*%
X149044819Y-81519733D02*
X148568628Y-81186400D01*
X149044819Y-80948305D02*
X148044819Y-80948305D01*
X148044819Y-80948305D02*
X148044819Y-81329257D01*
X148044819Y-81329257D02*
X148092438Y-81424495D01*
X148092438Y-81424495D02*
X148140057Y-81472114D01*
X148140057Y-81472114D02*
X148235295Y-81519733D01*
X148235295Y-81519733D02*
X148378152Y-81519733D01*
X148378152Y-81519733D02*
X148473390Y-81472114D01*
X148473390Y-81472114D02*
X148521009Y-81424495D01*
X148521009Y-81424495D02*
X148568628Y-81329257D01*
X148568628Y-81329257D02*
X148568628Y-80948305D01*
X148044819Y-81853067D02*
X148044819Y-82472114D01*
X148044819Y-82472114D02*
X148425771Y-82138781D01*
X148425771Y-82138781D02*
X148425771Y-82281638D01*
X148425771Y-82281638D02*
X148473390Y-82376876D01*
X148473390Y-82376876D02*
X148521009Y-82424495D01*
X148521009Y-82424495D02*
X148616247Y-82472114D01*
X148616247Y-82472114D02*
X148854342Y-82472114D01*
X148854342Y-82472114D02*
X148949580Y-82424495D01*
X148949580Y-82424495D02*
X148997200Y-82376876D01*
X148997200Y-82376876D02*
X149044819Y-82281638D01*
X149044819Y-82281638D02*
X149044819Y-81995924D01*
X149044819Y-81995924D02*
X148997200Y-81900686D01*
X148997200Y-81900686D02*
X148949580Y-81853067D01*
%TO.C,D1*%
X133681694Y-89202419D02*
X133681694Y-88202419D01*
X133681694Y-88202419D02*
X133443599Y-88202419D01*
X133443599Y-88202419D02*
X133300742Y-88250038D01*
X133300742Y-88250038D02*
X133205504Y-88345276D01*
X133205504Y-88345276D02*
X133157885Y-88440514D01*
X133157885Y-88440514D02*
X133110266Y-88630990D01*
X133110266Y-88630990D02*
X133110266Y-88773847D01*
X133110266Y-88773847D02*
X133157885Y-88964323D01*
X133157885Y-88964323D02*
X133205504Y-89059561D01*
X133205504Y-89059561D02*
X133300742Y-89154800D01*
X133300742Y-89154800D02*
X133443599Y-89202419D01*
X133443599Y-89202419D02*
X133681694Y-89202419D01*
X132157885Y-89202419D02*
X132729313Y-89202419D01*
X132443599Y-89202419D02*
X132443599Y-88202419D01*
X132443599Y-88202419D02*
X132538837Y-88345276D01*
X132538837Y-88345276D02*
X132634075Y-88440514D01*
X132634075Y-88440514D02*
X132729313Y-88488133D01*
%TO.C,C14*%
X123451857Y-91037580D02*
X123499476Y-91085200D01*
X123499476Y-91085200D02*
X123642333Y-91132819D01*
X123642333Y-91132819D02*
X123737571Y-91132819D01*
X123737571Y-91132819D02*
X123880428Y-91085200D01*
X123880428Y-91085200D02*
X123975666Y-90989961D01*
X123975666Y-90989961D02*
X124023285Y-90894723D01*
X124023285Y-90894723D02*
X124070904Y-90704247D01*
X124070904Y-90704247D02*
X124070904Y-90561390D01*
X124070904Y-90561390D02*
X124023285Y-90370914D01*
X124023285Y-90370914D02*
X123975666Y-90275676D01*
X123975666Y-90275676D02*
X123880428Y-90180438D01*
X123880428Y-90180438D02*
X123737571Y-90132819D01*
X123737571Y-90132819D02*
X123642333Y-90132819D01*
X123642333Y-90132819D02*
X123499476Y-90180438D01*
X123499476Y-90180438D02*
X123451857Y-90228057D01*
X122499476Y-91132819D02*
X123070904Y-91132819D01*
X122785190Y-91132819D02*
X122785190Y-90132819D01*
X122785190Y-90132819D02*
X122880428Y-90275676D01*
X122880428Y-90275676D02*
X122975666Y-90370914D01*
X122975666Y-90370914D02*
X123070904Y-90418533D01*
X121642333Y-90466152D02*
X121642333Y-91132819D01*
X121880428Y-90085200D02*
X122118523Y-90799485D01*
X122118523Y-90799485D02*
X121499476Y-90799485D01*
%TO.C,C8*%
X126166666Y-79359580D02*
X126214285Y-79407200D01*
X126214285Y-79407200D02*
X126357142Y-79454819D01*
X126357142Y-79454819D02*
X126452380Y-79454819D01*
X126452380Y-79454819D02*
X126595237Y-79407200D01*
X126595237Y-79407200D02*
X126690475Y-79311961D01*
X126690475Y-79311961D02*
X126738094Y-79216723D01*
X126738094Y-79216723D02*
X126785713Y-79026247D01*
X126785713Y-79026247D02*
X126785713Y-78883390D01*
X126785713Y-78883390D02*
X126738094Y-78692914D01*
X126738094Y-78692914D02*
X126690475Y-78597676D01*
X126690475Y-78597676D02*
X126595237Y-78502438D01*
X126595237Y-78502438D02*
X126452380Y-78454819D01*
X126452380Y-78454819D02*
X126357142Y-78454819D01*
X126357142Y-78454819D02*
X126214285Y-78502438D01*
X126214285Y-78502438D02*
X126166666Y-78550057D01*
X125595237Y-78883390D02*
X125690475Y-78835771D01*
X125690475Y-78835771D02*
X125738094Y-78788152D01*
X125738094Y-78788152D02*
X125785713Y-78692914D01*
X125785713Y-78692914D02*
X125785713Y-78645295D01*
X125785713Y-78645295D02*
X125738094Y-78550057D01*
X125738094Y-78550057D02*
X125690475Y-78502438D01*
X125690475Y-78502438D02*
X125595237Y-78454819D01*
X125595237Y-78454819D02*
X125404761Y-78454819D01*
X125404761Y-78454819D02*
X125309523Y-78502438D01*
X125309523Y-78502438D02*
X125261904Y-78550057D01*
X125261904Y-78550057D02*
X125214285Y-78645295D01*
X125214285Y-78645295D02*
X125214285Y-78692914D01*
X125214285Y-78692914D02*
X125261904Y-78788152D01*
X125261904Y-78788152D02*
X125309523Y-78835771D01*
X125309523Y-78835771D02*
X125404761Y-78883390D01*
X125404761Y-78883390D02*
X125595237Y-78883390D01*
X125595237Y-78883390D02*
X125690475Y-78931009D01*
X125690475Y-78931009D02*
X125738094Y-78978628D01*
X125738094Y-78978628D02*
X125785713Y-79073866D01*
X125785713Y-79073866D02*
X125785713Y-79264342D01*
X125785713Y-79264342D02*
X125738094Y-79359580D01*
X125738094Y-79359580D02*
X125690475Y-79407200D01*
X125690475Y-79407200D02*
X125595237Y-79454819D01*
X125595237Y-79454819D02*
X125404761Y-79454819D01*
X125404761Y-79454819D02*
X125309523Y-79407200D01*
X125309523Y-79407200D02*
X125261904Y-79359580D01*
X125261904Y-79359580D02*
X125214285Y-79264342D01*
X125214285Y-79264342D02*
X125214285Y-79073866D01*
X125214285Y-79073866D02*
X125261904Y-78978628D01*
X125261904Y-78978628D02*
X125309523Y-78931009D01*
X125309523Y-78931009D02*
X125404761Y-78883390D01*
%TO.C,C5*%
X126166666Y-86359580D02*
X126214285Y-86407200D01*
X126214285Y-86407200D02*
X126357142Y-86454819D01*
X126357142Y-86454819D02*
X126452380Y-86454819D01*
X126452380Y-86454819D02*
X126595237Y-86407200D01*
X126595237Y-86407200D02*
X126690475Y-86311961D01*
X126690475Y-86311961D02*
X126738094Y-86216723D01*
X126738094Y-86216723D02*
X126785713Y-86026247D01*
X126785713Y-86026247D02*
X126785713Y-85883390D01*
X126785713Y-85883390D02*
X126738094Y-85692914D01*
X126738094Y-85692914D02*
X126690475Y-85597676D01*
X126690475Y-85597676D02*
X126595237Y-85502438D01*
X126595237Y-85502438D02*
X126452380Y-85454819D01*
X126452380Y-85454819D02*
X126357142Y-85454819D01*
X126357142Y-85454819D02*
X126214285Y-85502438D01*
X126214285Y-85502438D02*
X126166666Y-85550057D01*
X125261904Y-85454819D02*
X125738094Y-85454819D01*
X125738094Y-85454819D02*
X125785713Y-85931009D01*
X125785713Y-85931009D02*
X125738094Y-85883390D01*
X125738094Y-85883390D02*
X125642856Y-85835771D01*
X125642856Y-85835771D02*
X125404761Y-85835771D01*
X125404761Y-85835771D02*
X125309523Y-85883390D01*
X125309523Y-85883390D02*
X125261904Y-85931009D01*
X125261904Y-85931009D02*
X125214285Y-86026247D01*
X125214285Y-86026247D02*
X125214285Y-86264342D01*
X125214285Y-86264342D02*
X125261904Y-86359580D01*
X125261904Y-86359580D02*
X125309523Y-86407200D01*
X125309523Y-86407200D02*
X125404761Y-86454819D01*
X125404761Y-86454819D02*
X125642856Y-86454819D01*
X125642856Y-86454819D02*
X125738094Y-86407200D01*
X125738094Y-86407200D02*
X125785713Y-86359580D01*
D12*
%TO.C,TP1*%
X144219523Y-72333595D02*
X143762380Y-72333595D01*
X143990952Y-73133595D02*
X143990952Y-72333595D01*
X143495713Y-73133595D02*
X143495713Y-72333595D01*
X143495713Y-72333595D02*
X143190951Y-72333595D01*
X143190951Y-72333595D02*
X143114761Y-72371690D01*
X143114761Y-72371690D02*
X143076666Y-72409785D01*
X143076666Y-72409785D02*
X143038570Y-72485976D01*
X143038570Y-72485976D02*
X143038570Y-72600261D01*
X143038570Y-72600261D02*
X143076666Y-72676452D01*
X143076666Y-72676452D02*
X143114761Y-72714547D01*
X143114761Y-72714547D02*
X143190951Y-72752642D01*
X143190951Y-72752642D02*
X143495713Y-72752642D01*
X142276666Y-73133595D02*
X142733809Y-73133595D01*
X142505237Y-73133595D02*
X142505237Y-72333595D01*
X142505237Y-72333595D02*
X142581428Y-72447880D01*
X142581428Y-72447880D02*
X142657618Y-72524071D01*
X142657618Y-72524071D02*
X142733809Y-72562166D01*
D10*
%TO.C,R2*%
X145128319Y-87701333D02*
X144652128Y-87368000D01*
X145128319Y-87129905D02*
X144128319Y-87129905D01*
X144128319Y-87129905D02*
X144128319Y-87510857D01*
X144128319Y-87510857D02*
X144175938Y-87606095D01*
X144175938Y-87606095D02*
X144223557Y-87653714D01*
X144223557Y-87653714D02*
X144318795Y-87701333D01*
X144318795Y-87701333D02*
X144461652Y-87701333D01*
X144461652Y-87701333D02*
X144556890Y-87653714D01*
X144556890Y-87653714D02*
X144604509Y-87606095D01*
X144604509Y-87606095D02*
X144652128Y-87510857D01*
X144652128Y-87510857D02*
X144652128Y-87129905D01*
X144223557Y-88082286D02*
X144175938Y-88129905D01*
X144175938Y-88129905D02*
X144128319Y-88225143D01*
X144128319Y-88225143D02*
X144128319Y-88463238D01*
X144128319Y-88463238D02*
X144175938Y-88558476D01*
X144175938Y-88558476D02*
X144223557Y-88606095D01*
X144223557Y-88606095D02*
X144318795Y-88653714D01*
X144318795Y-88653714D02*
X144414033Y-88653714D01*
X144414033Y-88653714D02*
X144556890Y-88606095D01*
X144556890Y-88606095D02*
X145128319Y-88034667D01*
X145128319Y-88034667D02*
X145128319Y-88653714D01*
%TO.C,C2*%
X132986666Y-80739580D02*
X133034285Y-80787200D01*
X133034285Y-80787200D02*
X133177142Y-80834819D01*
X133177142Y-80834819D02*
X133272380Y-80834819D01*
X133272380Y-80834819D02*
X133415237Y-80787200D01*
X133415237Y-80787200D02*
X133510475Y-80691961D01*
X133510475Y-80691961D02*
X133558094Y-80596723D01*
X133558094Y-80596723D02*
X133605713Y-80406247D01*
X133605713Y-80406247D02*
X133605713Y-80263390D01*
X133605713Y-80263390D02*
X133558094Y-80072914D01*
X133558094Y-80072914D02*
X133510475Y-79977676D01*
X133510475Y-79977676D02*
X133415237Y-79882438D01*
X133415237Y-79882438D02*
X133272380Y-79834819D01*
X133272380Y-79834819D02*
X133177142Y-79834819D01*
X133177142Y-79834819D02*
X133034285Y-79882438D01*
X133034285Y-79882438D02*
X132986666Y-79930057D01*
X132605713Y-79930057D02*
X132558094Y-79882438D01*
X132558094Y-79882438D02*
X132462856Y-79834819D01*
X132462856Y-79834819D02*
X132224761Y-79834819D01*
X132224761Y-79834819D02*
X132129523Y-79882438D01*
X132129523Y-79882438D02*
X132081904Y-79930057D01*
X132081904Y-79930057D02*
X132034285Y-80025295D01*
X132034285Y-80025295D02*
X132034285Y-80120533D01*
X132034285Y-80120533D02*
X132081904Y-80263390D01*
X132081904Y-80263390D02*
X132653332Y-80834819D01*
X132653332Y-80834819D02*
X132034285Y-80834819D01*
%TO.C,TP2*%
X132757704Y-73978419D02*
X132186276Y-73978419D01*
X132471990Y-74978419D02*
X132471990Y-73978419D01*
X131852942Y-74978419D02*
X131852942Y-73978419D01*
X131852942Y-73978419D02*
X131471990Y-73978419D01*
X131471990Y-73978419D02*
X131376752Y-74026038D01*
X131376752Y-74026038D02*
X131329133Y-74073657D01*
X131329133Y-74073657D02*
X131281514Y-74168895D01*
X131281514Y-74168895D02*
X131281514Y-74311752D01*
X131281514Y-74311752D02*
X131329133Y-74406990D01*
X131329133Y-74406990D02*
X131376752Y-74454609D01*
X131376752Y-74454609D02*
X131471990Y-74502228D01*
X131471990Y-74502228D02*
X131852942Y-74502228D01*
X130900561Y-74073657D02*
X130852942Y-74026038D01*
X130852942Y-74026038D02*
X130757704Y-73978419D01*
X130757704Y-73978419D02*
X130519609Y-73978419D01*
X130519609Y-73978419D02*
X130424371Y-74026038D01*
X130424371Y-74026038D02*
X130376752Y-74073657D01*
X130376752Y-74073657D02*
X130329133Y-74168895D01*
X130329133Y-74168895D02*
X130329133Y-74264133D01*
X130329133Y-74264133D02*
X130376752Y-74406990D01*
X130376752Y-74406990D02*
X130948180Y-74978419D01*
X130948180Y-74978419D02*
X130329133Y-74978419D01*
%TO.C,R1*%
X139484819Y-90183333D02*
X139008628Y-89850000D01*
X139484819Y-89611905D02*
X138484819Y-89611905D01*
X138484819Y-89611905D02*
X138484819Y-89992857D01*
X138484819Y-89992857D02*
X138532438Y-90088095D01*
X138532438Y-90088095D02*
X138580057Y-90135714D01*
X138580057Y-90135714D02*
X138675295Y-90183333D01*
X138675295Y-90183333D02*
X138818152Y-90183333D01*
X138818152Y-90183333D02*
X138913390Y-90135714D01*
X138913390Y-90135714D02*
X138961009Y-90088095D01*
X138961009Y-90088095D02*
X139008628Y-89992857D01*
X139008628Y-89992857D02*
X139008628Y-89611905D01*
X139484819Y-91135714D02*
X139484819Y-90564286D01*
X139484819Y-90850000D02*
X138484819Y-90850000D01*
X138484819Y-90850000D02*
X138627676Y-90754762D01*
X138627676Y-90754762D02*
X138722914Y-90659524D01*
X138722914Y-90659524D02*
X138770533Y-90564286D01*
%TO.C,C1*%
X118552166Y-92307580D02*
X118599785Y-92355200D01*
X118599785Y-92355200D02*
X118742642Y-92402819D01*
X118742642Y-92402819D02*
X118837880Y-92402819D01*
X118837880Y-92402819D02*
X118980737Y-92355200D01*
X118980737Y-92355200D02*
X119075975Y-92259961D01*
X119075975Y-92259961D02*
X119123594Y-92164723D01*
X119123594Y-92164723D02*
X119171213Y-91974247D01*
X119171213Y-91974247D02*
X119171213Y-91831390D01*
X119171213Y-91831390D02*
X119123594Y-91640914D01*
X119123594Y-91640914D02*
X119075975Y-91545676D01*
X119075975Y-91545676D02*
X118980737Y-91450438D01*
X118980737Y-91450438D02*
X118837880Y-91402819D01*
X118837880Y-91402819D02*
X118742642Y-91402819D01*
X118742642Y-91402819D02*
X118599785Y-91450438D01*
X118599785Y-91450438D02*
X118552166Y-91498057D01*
X117599785Y-92402819D02*
X118171213Y-92402819D01*
X117885499Y-92402819D02*
X117885499Y-91402819D01*
X117885499Y-91402819D02*
X117980737Y-91545676D01*
X117980737Y-91545676D02*
X118075975Y-91640914D01*
X118075975Y-91640914D02*
X118171213Y-91688533D01*
%TO.C,D2*%
X133808694Y-87018019D02*
X133808694Y-86018019D01*
X133808694Y-86018019D02*
X133570599Y-86018019D01*
X133570599Y-86018019D02*
X133427742Y-86065638D01*
X133427742Y-86065638D02*
X133332504Y-86160876D01*
X133332504Y-86160876D02*
X133284885Y-86256114D01*
X133284885Y-86256114D02*
X133237266Y-86446590D01*
X133237266Y-86446590D02*
X133237266Y-86589447D01*
X133237266Y-86589447D02*
X133284885Y-86779923D01*
X133284885Y-86779923D02*
X133332504Y-86875161D01*
X133332504Y-86875161D02*
X133427742Y-86970400D01*
X133427742Y-86970400D02*
X133570599Y-87018019D01*
X133570599Y-87018019D02*
X133808694Y-87018019D01*
X132856313Y-86113257D02*
X132808694Y-86065638D01*
X132808694Y-86065638D02*
X132713456Y-86018019D01*
X132713456Y-86018019D02*
X132475361Y-86018019D01*
X132475361Y-86018019D02*
X132380123Y-86065638D01*
X132380123Y-86065638D02*
X132332504Y-86113257D01*
X132332504Y-86113257D02*
X132284885Y-86208495D01*
X132284885Y-86208495D02*
X132284885Y-86303733D01*
X132284885Y-86303733D02*
X132332504Y-86446590D01*
X132332504Y-86446590D02*
X132903932Y-87018019D01*
X132903932Y-87018019D02*
X132284885Y-87018019D01*
%TO.C,C11*%
X126642857Y-72359580D02*
X126690476Y-72407200D01*
X126690476Y-72407200D02*
X126833333Y-72454819D01*
X126833333Y-72454819D02*
X126928571Y-72454819D01*
X126928571Y-72454819D02*
X127071428Y-72407200D01*
X127071428Y-72407200D02*
X127166666Y-72311961D01*
X127166666Y-72311961D02*
X127214285Y-72216723D01*
X127214285Y-72216723D02*
X127261904Y-72026247D01*
X127261904Y-72026247D02*
X127261904Y-71883390D01*
X127261904Y-71883390D02*
X127214285Y-71692914D01*
X127214285Y-71692914D02*
X127166666Y-71597676D01*
X127166666Y-71597676D02*
X127071428Y-71502438D01*
X127071428Y-71502438D02*
X126928571Y-71454819D01*
X126928571Y-71454819D02*
X126833333Y-71454819D01*
X126833333Y-71454819D02*
X126690476Y-71502438D01*
X126690476Y-71502438D02*
X126642857Y-71550057D01*
X125690476Y-72454819D02*
X126261904Y-72454819D01*
X125976190Y-72454819D02*
X125976190Y-71454819D01*
X125976190Y-71454819D02*
X126071428Y-71597676D01*
X126071428Y-71597676D02*
X126166666Y-71692914D01*
X126166666Y-71692914D02*
X126261904Y-71740533D01*
X124738095Y-72454819D02*
X125309523Y-72454819D01*
X125023809Y-72454819D02*
X125023809Y-71454819D01*
X125023809Y-71454819D02*
X125119047Y-71597676D01*
X125119047Y-71597676D02*
X125214285Y-71692914D01*
X125214285Y-71692914D02*
X125309523Y-71740533D01*
D13*
%TO.C,U1*%
X155523500Y-77777000D02*
X155523500Y-77327000D01*
X155523500Y-70557000D02*
X155523500Y-71007000D01*
X155073500Y-77777000D02*
X155523500Y-77777000D01*
X155073500Y-70557000D02*
X155523500Y-70557000D01*
X148753500Y-77777000D02*
X148303500Y-77777000D01*
X148753500Y-70557000D02*
X148303500Y-70557000D01*
X148303500Y-77777000D02*
X148303500Y-77327000D01*
X148303500Y-77327000D02*
X147013500Y-77327000D01*
X148303500Y-70557000D02*
X148303500Y-71007000D01*
%TO.C,Q1*%
X128865000Y-75548000D02*
X130275000Y-75548000D01*
X130275000Y-76208000D02*
X130275000Y-75548000D01*
X130275000Y-77868000D02*
X127540000Y-77868000D01*
X130275000Y-77878000D02*
X130275000Y-77208000D01*
%TO.C,U2*%
X129570000Y-71241500D02*
X129570000Y-72041500D01*
X132690000Y-71241500D02*
X132690000Y-73041500D01*
X132690000Y-71241500D02*
X132690000Y-70441500D01*
X129570000Y-71241500D02*
X129570000Y-70441500D01*
%TO.C,RF1*%
X158414400Y-86512400D02*
X158414400Y-84562400D01*
X153294400Y-86512400D02*
X153294400Y-83062400D01*
X158414400Y-86512400D02*
X158414400Y-88462400D01*
X153294400Y-86512400D02*
X153294400Y-88462400D01*
%TO.C,C15*%
X151137252Y-89635000D02*
X150614748Y-89635000D01*
X151137252Y-88165000D02*
X150614748Y-88165000D01*
%TO.C,L1*%
X139037500Y-77372000D02*
X138012500Y-77372000D01*
X139037500Y-77372000D02*
X139037500Y-78397000D01*
X134817500Y-77372000D02*
X135842500Y-77372000D01*
X134817500Y-77372000D02*
X134817500Y-78397000D01*
X139037500Y-82142000D02*
X139037500Y-81117000D01*
X139037500Y-82142000D02*
X138012500Y-82142000D01*
X134817500Y-82142000D02*
X134817500Y-81117000D01*
X134817500Y-82142000D02*
X135842500Y-82142000D01*
%TO.C,C12*%
X122943252Y-70585000D02*
X122420748Y-70585000D01*
X122943252Y-69115000D02*
X122420748Y-69115000D01*
%TO.C,R4*%
X144082436Y-70385000D02*
X144536564Y-70385000D01*
X144082436Y-71855000D02*
X144536564Y-71855000D01*
%TO.C,C7*%
X122986252Y-82015000D02*
X122463748Y-82015000D01*
X122986252Y-80545000D02*
X122463748Y-80545000D01*
%TO.C,C13*%
X119628500Y-70350748D02*
X119628500Y-70873252D01*
X118158500Y-70350748D02*
X118158500Y-70873252D01*
%TO.C,C6*%
X122943252Y-84301000D02*
X122420748Y-84301000D01*
X122943252Y-82831000D02*
X122420748Y-82831000D01*
D14*
%TO.C,J3*%
X115787000Y-89155000D02*
X117612000Y-89155000D01*
X117612000Y-89155000D02*
X117612000Y-88105000D01*
X114212000Y-88105000D02*
X114212000Y-75705000D01*
D15*
X118612000Y-87655000D02*
X118612000Y-87655000D01*
X118712000Y-87655000D02*
X118712000Y-87655000D01*
D14*
X115787000Y-74655000D02*
X117612000Y-74655000D01*
X117612000Y-74655000D02*
X117612000Y-75705000D01*
D15*
X118712000Y-87655000D02*
G75*
G03*
X118612000Y-87655000I-50000J0D01*
G01*
X118612000Y-87655000D02*
G75*
G03*
X118712000Y-87655000I50000J0D01*
G01*
D13*
%TO.C,R7*%
X137908564Y-72792000D02*
X136454436Y-72792000D01*
X137908564Y-70972000D02*
X136454436Y-70972000D01*
%TO.C,D3*%
X127180000Y-83328000D02*
X131190000Y-83328000D01*
X127180000Y-85328000D02*
X127180000Y-83328000D01*
X127180000Y-85328000D02*
X131190000Y-85328000D01*
%TO.C,R5*%
X154205000Y-92413064D02*
X154205000Y-91958936D01*
X155675000Y-92413064D02*
X155675000Y-91958936D01*
%TO.C,F1*%
X140081500Y-74008064D02*
X140081500Y-72803936D01*
X141901500Y-74008064D02*
X141901500Y-72803936D01*
%TO.C,C10*%
X122943252Y-75157000D02*
X122420748Y-75157000D01*
X122943252Y-73687000D02*
X122420748Y-73687000D01*
%TO.C,C3*%
X136934752Y-84555000D02*
X136412248Y-84555000D01*
X136934752Y-83085000D02*
X136412248Y-83085000D01*
D16*
%TO.C,CR1*%
X140991500Y-84289900D02*
X140356500Y-83527900D01*
X140991500Y-84289900D02*
X140483500Y-83527900D01*
X140991500Y-84289900D02*
X140610500Y-83527900D01*
X140991500Y-84289900D02*
X140737500Y-83527900D01*
X140991500Y-84289900D02*
X140864500Y-83527900D01*
X140991500Y-84289900D02*
X141118500Y-83527900D01*
X140991500Y-84289900D02*
X141245500Y-83527900D01*
X140991500Y-84289900D02*
X141372500Y-83527900D01*
X140991500Y-84289900D02*
X141499500Y-83527900D01*
X140991500Y-84289900D02*
X141626500Y-83527900D01*
X141626500Y-84289900D02*
X140356500Y-84289900D01*
X141626500Y-83527900D02*
X140356500Y-83527900D01*
X140991500Y-83273900D02*
X140991500Y-84543900D01*
X139416700Y-82029300D02*
X139416700Y-77177900D01*
X139807860Y-82029300D02*
X139416700Y-82029300D01*
X142566300Y-82029300D02*
X142175140Y-82029300D01*
X139416700Y-77177900D02*
X139807860Y-77177900D01*
X142175140Y-77177900D02*
X142566300Y-77177900D01*
X142566300Y-77177900D02*
X142566300Y-82029300D01*
D13*
%TO.C,JP1*%
X152524000Y-80280000D02*
X152524000Y-82280000D01*
X152524000Y-82280000D02*
X155324000Y-82280000D01*
X155324000Y-80280000D02*
X152524000Y-80280000D01*
X155324000Y-82280000D02*
X155324000Y-80280000D01*
%TO.C,R6*%
X156745000Y-92413064D02*
X156745000Y-91958936D01*
X158215000Y-92413064D02*
X158215000Y-91958936D01*
%TO.C,C9*%
X122943252Y-77443000D02*
X122420748Y-77443000D01*
X122943252Y-75973000D02*
X122420748Y-75973000D01*
%TO.C,R3*%
X151230000Y-81459336D02*
X151230000Y-81913464D01*
X149760000Y-81459336D02*
X149760000Y-81913464D01*
%TO.C,D1*%
X127180000Y-88662000D02*
X131190000Y-88662000D01*
X127180000Y-90662000D02*
X127180000Y-88662000D01*
X127180000Y-90662000D02*
X131190000Y-90662000D01*
%TO.C,C14*%
X122943252Y-89381000D02*
X122420748Y-89381000D01*
X122943252Y-87911000D02*
X122420748Y-87911000D01*
%TO.C,C8*%
X122986252Y-79729000D02*
X122463748Y-79729000D01*
X122986252Y-78259000D02*
X122463748Y-78259000D01*
%TO.C,C5*%
X122943252Y-86587000D02*
X122420748Y-86587000D01*
X122943252Y-85117000D02*
X122420748Y-85117000D01*
%TO.C,TP1*%
X146043500Y-75184000D02*
G75*
G03*
X146043500Y-75184000I-1750000J0D01*
G01*
%TO.C,R2*%
X142288500Y-88095064D02*
X142288500Y-87640936D01*
X143758500Y-88095064D02*
X143758500Y-87640936D01*
%TO.C,C2*%
X130309252Y-79983000D02*
X129786748Y-79983000D01*
X130309252Y-78513000D02*
X129786748Y-78513000D01*
%TO.C,TP2*%
X136370000Y-75184000D02*
G75*
G03*
X136370000Y-75184000I-1750000J0D01*
G01*
%TO.C,R1*%
X140002500Y-88095064D02*
X140002500Y-87640936D01*
X141472500Y-88095064D02*
X141472500Y-87640936D01*
%TO.C,C1*%
X118124248Y-93245000D02*
X118646752Y-93245000D01*
X118124248Y-94715000D02*
X118646752Y-94715000D01*
%TO.C,D2*%
X131900000Y-88122000D02*
X127890000Y-88122000D01*
X131900000Y-86122000D02*
X131900000Y-88122000D01*
X131900000Y-86122000D02*
X127890000Y-86122000D01*
%TO.C,C11*%
X122943252Y-72871000D02*
X122420748Y-72871000D01*
X122943252Y-71401000D02*
X122420748Y-71401000D01*
%TD*%
%LPC*%
D17*
%TO.C,U1*%
X149163500Y-78329500D03*
X149663500Y-78329500D03*
X150163500Y-78329500D03*
X150663500Y-78329500D03*
X151163500Y-78329500D03*
X151663500Y-78329500D03*
X152163500Y-78329500D03*
X152663500Y-78329500D03*
X153163500Y-78329500D03*
X153663500Y-78329500D03*
X154163500Y-78329500D03*
X154663500Y-78329500D03*
D18*
X156076000Y-76917000D03*
X156076000Y-76417000D03*
X156076000Y-75917000D03*
X156076000Y-75417000D03*
X156076000Y-74917000D03*
X156076000Y-74417000D03*
X156076000Y-73917000D03*
X156076000Y-73417000D03*
X156076000Y-72917000D03*
X156076000Y-72417000D03*
X156076000Y-71917000D03*
X156076000Y-71417000D03*
D17*
X154663500Y-70004500D03*
X154163500Y-70004500D03*
X153663500Y-70004500D03*
X153163500Y-70004500D03*
X152663500Y-70004500D03*
X152163500Y-70004500D03*
X151663500Y-70004500D03*
X151163500Y-70004500D03*
X150663500Y-70004500D03*
X150163500Y-70004500D03*
X149663500Y-70004500D03*
X149163500Y-70004500D03*
D18*
X147751000Y-71417000D03*
X147751000Y-71917000D03*
X147751000Y-72417000D03*
X147751000Y-72917000D03*
X147751000Y-73417000D03*
X147751000Y-73917000D03*
X147751000Y-74417000D03*
X147751000Y-74917000D03*
X147751000Y-75417000D03*
X147751000Y-75917000D03*
X147751000Y-76417000D03*
X147751000Y-76917000D03*
%TD*%
D19*
%TO.C,Q1*%
X128210000Y-77358000D03*
X128210000Y-76058000D03*
X130870000Y-76708000D03*
%TD*%
D20*
%TO.C,U2*%
X132080000Y-72379000D03*
X131130000Y-72379000D03*
X130180000Y-72379000D03*
X130180000Y-70104000D03*
X132080000Y-70104000D03*
%TD*%
D21*
%TO.C,RF1*%
X153949400Y-88987400D03*
X155219400Y-88987400D03*
X156489400Y-88987400D03*
X157759400Y-88987400D03*
X157759400Y-84037400D03*
X156489400Y-84037400D03*
X155219400Y-84037400D03*
X153949400Y-84037400D03*
%TD*%
D22*
%TO.C,S1*%
X115131500Y-93980000D03*
X121531500Y-93980000D03*
%TD*%
D23*
%TO.C,J2*%
X143276793Y-93725293D03*
X140736793Y-93725293D03*
X138196793Y-93725293D03*
X135656793Y-93725293D03*
X133116793Y-93725293D03*
X130576793Y-93725293D03*
X128036793Y-93725293D03*
D24*
X125496793Y-93725293D03*
%TD*%
D25*
%TO.C,C15*%
X151913500Y-88900000D03*
X149838500Y-88900000D03*
%TD*%
D26*
%TO.C,L1*%
X136927500Y-78232000D03*
X136927500Y-81282000D03*
%TD*%
D25*
%TO.C,C12*%
X123719500Y-69850000D03*
X121644500Y-69850000D03*
%TD*%
D27*
%TO.C,R4*%
X143309500Y-71120000D03*
X145309500Y-71120000D03*
%TD*%
D25*
%TO.C,C7*%
X123762500Y-81280000D03*
X121687500Y-81280000D03*
%TD*%
D28*
%TO.C,C13*%
X118893500Y-69574500D03*
X118893500Y-71649500D03*
%TD*%
D25*
%TO.C,C6*%
X123719500Y-83566000D03*
X121644500Y-83566000D03*
%TD*%
D29*
%TO.C,J3*%
X117762000Y-87655000D03*
X117762000Y-87155000D03*
X117762000Y-86655000D03*
X117762000Y-86155000D03*
X117762000Y-85655000D03*
X117762000Y-85155000D03*
X117762000Y-84655000D03*
X117762000Y-84155000D03*
X117762000Y-83655000D03*
X117762000Y-83155000D03*
X117762000Y-82655000D03*
X117762000Y-82155000D03*
X117762000Y-81655000D03*
X117762000Y-81155000D03*
X117762000Y-80655000D03*
X117762000Y-80155000D03*
X117762000Y-79655000D03*
X117762000Y-79155000D03*
X117762000Y-78655000D03*
X117762000Y-78155000D03*
X117762000Y-77655000D03*
X117762000Y-77155000D03*
X117762000Y-76655000D03*
X117762000Y-76155000D03*
D30*
X115062000Y-88880000D03*
X115062000Y-74930000D03*
%TD*%
D31*
%TO.C,R7*%
X138731500Y-71882000D03*
X135631500Y-71882000D03*
%TD*%
D32*
%TO.C,D3*%
X127890000Y-84328000D03*
X131190000Y-84328000D03*
%TD*%
D33*
%TO.C,R5*%
X154940000Y-93186000D03*
X154940000Y-91186000D03*
%TD*%
D34*
%TO.C,F1*%
X140991500Y-74893500D03*
X140991500Y-71918500D03*
%TD*%
D25*
%TO.C,C10*%
X123719500Y-74422000D03*
X121644500Y-74422000D03*
%TD*%
%TO.C,C3*%
X137711000Y-83820000D03*
X135636000Y-83820000D03*
%TD*%
D35*
%TO.C,CR1*%
X140991500Y-81534000D03*
X140991500Y-77673200D03*
%TD*%
D36*
%TO.C,JP1*%
X153274000Y-81280000D03*
X154574000Y-81280000D03*
%TD*%
D33*
%TO.C,R6*%
X157480000Y-93186000D03*
X157480000Y-91186000D03*
%TD*%
D25*
%TO.C,C9*%
X123719500Y-76708000D03*
X121644500Y-76708000D03*
%TD*%
D37*
%TO.C,R3*%
X150495000Y-80686400D03*
X150495000Y-82686400D03*
%TD*%
D32*
%TO.C,D1*%
X127890000Y-89662000D03*
X131190000Y-89662000D03*
%TD*%
D25*
%TO.C,C14*%
X123719500Y-88646000D03*
X121644500Y-88646000D03*
%TD*%
%TO.C,C8*%
X123762500Y-78994000D03*
X121687500Y-78994000D03*
%TD*%
%TO.C,C5*%
X123719500Y-85852000D03*
X121644500Y-85852000D03*
%TD*%
D38*
%TO.C,TP1*%
X144293500Y-75184000D03*
%TD*%
D33*
%TO.C,R2*%
X143023500Y-88868000D03*
X143023500Y-86868000D03*
%TD*%
D25*
%TO.C,C2*%
X131085500Y-79248000D03*
X129010500Y-79248000D03*
%TD*%
D38*
%TO.C,TP2*%
X134620000Y-75184000D03*
%TD*%
D33*
%TO.C,R1*%
X140737500Y-88868000D03*
X140737500Y-86868000D03*
%TD*%
D39*
%TO.C,C1*%
X117348000Y-93980000D03*
X119423000Y-93980000D03*
%TD*%
D40*
%TO.C,D2*%
X131190000Y-87122000D03*
X127890000Y-87122000D03*
%TD*%
D25*
%TO.C,C11*%
X123719500Y-72136000D03*
X121644500Y-72136000D03*
%TD*%
%LPD*%
M02*
