%TF.GenerationSoftware,KiCad,Pcbnew,7.0.5*%
%TF.CreationDate,2023-07-22T13:56:16+02:00*%
%TF.ProjectId,eink-NFC,65696e6b-2d4e-4464-932e-6b696361645f,rev?*%
%TF.SameCoordinates,Original*%
%TF.FileFunction,Copper,L1,Top*%
%TF.FilePolarity,Positive*%
%FSLAX46Y46*%
G04 Gerber Fmt 4.6, Leading zero omitted, Abs format (unit mm)*
G04 Created by KiCad (PCBNEW 7.0.5) date 2023-07-22 13:56:16*
%MOMM*%
%LPD*%
G01*
G04 APERTURE LIST*
G04 Aperture macros list*
%AMRoundRect*
0 Rectangle with rounded corners*
0 $1 Rounding radius*
0 $2 $3 $4 $5 $6 $7 $8 $9 X,Y pos of 4 corners*
0 Add a 4 corners polygon primitive as box body*
4,1,4,$2,$3,$4,$5,$6,$7,$8,$9,$2,$3,0*
0 Add four circle primitives for the rounded corners*
1,1,$1+$1,$2,$3*
1,1,$1+$1,$4,$5*
1,1,$1+$1,$6,$7*
1,1,$1+$1,$8,$9*
0 Add four rect primitives between the rounded corners*
20,1,$1+$1,$2,$3,$4,$5,0*
20,1,$1+$1,$4,$5,$6,$7,0*
20,1,$1+$1,$6,$7,$8,$9,0*
20,1,$1+$1,$8,$9,$2,$3,0*%
G04 Aperture macros list end*
%TA.AperFunction,EtchedComponent*%
%ADD10C,0.200000*%
%TD*%
%TA.AperFunction,SMDPad,CuDef*%
%ADD11R,0.200000X0.200000*%
%TD*%
%TA.AperFunction,SMDPad,CuDef*%
%ADD12RoundRect,0.250000X0.574524X0.097227X0.097227X0.574524X-0.574524X-0.097227X-0.097227X-0.574524X0*%
%TD*%
%TA.AperFunction,ComponentPad*%
%ADD13C,1.800000*%
%TD*%
%TA.AperFunction,ComponentPad*%
%ADD14O,1.700000X1.700000*%
%TD*%
%TA.AperFunction,ComponentPad*%
%ADD15R,1.700000X1.700000*%
%TD*%
%TA.AperFunction,SMDPad,CuDef*%
%ADD16R,2.600000X3.500000*%
%TD*%
%TA.AperFunction,SMDPad,CuDef*%
%ADD17RoundRect,0.250000X-1.050000X-0.550000X1.050000X-0.550000X1.050000X0.550000X-1.050000X0.550000X0*%
%TD*%
%TA.AperFunction,ViaPad*%
%ADD18C,0.600000*%
%TD*%
%TA.AperFunction,Conductor*%
%ADD19C,0.200000*%
%TD*%
%TA.AperFunction,Conductor*%
%ADD20C,0.400000*%
%TD*%
%TA.AperFunction,Conductor*%
%ADD21C,0.600000*%
%TD*%
%TA.AperFunction,Conductor*%
%ADD22C,0.150000*%
%TD*%
G04 APERTURE END LIST*
D10*
%TO.C,ANT1*%
X175140000Y-70504000D02*
X175140000Y-95104000D01*
X159740000Y-70504000D02*
X175140000Y-70504000D01*
X159740000Y-70504000D02*
X159740000Y-77404000D01*
X174740000Y-70904000D02*
X174740000Y-94704000D01*
X160140000Y-70904000D02*
X174740000Y-70904000D01*
X174340000Y-71304000D02*
X174340000Y-94304000D01*
X160540000Y-71304000D02*
X174340000Y-71304000D01*
X173940000Y-71704000D02*
X173940000Y-93904000D01*
X160940000Y-71704000D02*
X173940000Y-71704000D01*
X173540000Y-72104000D02*
X173540000Y-93504000D01*
X161340000Y-72104000D02*
X173540000Y-72104000D01*
X173140000Y-72504000D02*
X173140000Y-93104000D01*
X161740000Y-72504000D02*
X173140000Y-72504000D01*
X172740000Y-72904000D02*
X172740000Y-92704000D01*
X162140000Y-72904000D02*
X172740000Y-72904000D01*
X172340000Y-73304000D02*
X172340000Y-92304000D01*
X162540000Y-73304000D02*
X172340000Y-73304000D01*
X171940000Y-73704000D02*
X171940000Y-91904000D01*
X162940000Y-73704000D02*
X171940000Y-73704000D01*
X171540000Y-74104000D02*
X171540000Y-91504000D01*
X163340000Y-74104000D02*
X171540000Y-74104000D01*
X171140000Y-74504000D02*
X171140000Y-91104000D01*
X163740000Y-74504000D02*
X171140000Y-74504000D01*
X170740000Y-74904000D02*
X170740000Y-90704000D01*
X164140000Y-74904000D02*
X170740000Y-74904000D01*
X170340000Y-75304000D02*
X170340000Y-90304000D01*
X164540000Y-75304000D02*
X170340000Y-75304000D01*
X169940000Y-75704000D02*
X169940000Y-89904000D01*
X164940000Y-75704000D02*
X169940000Y-75704000D01*
X169540000Y-76104000D02*
X169540000Y-89504000D01*
X165340000Y-76104000D02*
X169540000Y-76104000D01*
X169540000Y-89504000D02*
X165740000Y-89504000D01*
X165740000Y-89504000D02*
X165740000Y-86304000D01*
X169940000Y-89904000D02*
X165340000Y-89904000D01*
X165340000Y-89904000D02*
X165340000Y-76104000D01*
X170340000Y-90304000D02*
X164940000Y-90304000D01*
X164940000Y-90304000D02*
X164940000Y-75704000D01*
X170740000Y-90704000D02*
X164540000Y-90704000D01*
X164540000Y-90704000D02*
X164540000Y-75304000D01*
X171140000Y-91104000D02*
X164140000Y-91104000D01*
X164140000Y-91104000D02*
X164140000Y-74904000D01*
X171540000Y-91504000D02*
X163740000Y-91504000D01*
X163740000Y-91504000D02*
X163740000Y-74504000D01*
X171940000Y-91904000D02*
X163340000Y-91904000D01*
X163340000Y-91904000D02*
X163340000Y-74104000D01*
X172340000Y-92304000D02*
X162940000Y-92304000D01*
X162940000Y-92304000D02*
X162940000Y-73704000D01*
X172740000Y-92704000D02*
X162540000Y-92704000D01*
X162540000Y-92704000D02*
X162540000Y-73304000D01*
X173140000Y-93104000D02*
X162140000Y-93104000D01*
X162140000Y-93104000D02*
X162140000Y-72904000D01*
X173540000Y-93504000D02*
X161740000Y-93504000D01*
X161740000Y-93504000D02*
X161740000Y-72504000D01*
X173940000Y-93904000D02*
X161340000Y-93904000D01*
X161340000Y-93904000D02*
X161340000Y-72104000D01*
X174340000Y-94304000D02*
X160940000Y-94304000D01*
X160940000Y-94304000D02*
X160940000Y-71704000D01*
X174740000Y-94704000D02*
X160540000Y-94704000D01*
X160540000Y-94704000D02*
X160540000Y-71304000D01*
X175140000Y-95104000D02*
X160140000Y-95104000D01*
X160140000Y-95104000D02*
X160140000Y-70904000D01*
%TD*%
D11*
%TO.P,ANT1,P$1,1*%
%TO.N,Net-(ANT1-1)*%
X165740000Y-86304000D03*
%TO.P,ANT1,P$2,2*%
%TO.N,Net-(ANT1-2)*%
X159740000Y-77504000D03*
%TD*%
D12*
%TO.P,C4,1*%
%TO.N,VDD*%
X151327246Y-73094246D03*
%TO.P,C4,2*%
%TO.N,GND*%
X149860000Y-71627000D03*
%TD*%
D13*
%TO.P,S1,1,COM*%
%TO.N,NRST*%
X115131500Y-93980000D03*
%TO.P,S1,2,NO*%
%TO.N,GND*%
X121531500Y-93980000D03*
%TD*%
D14*
%TO.P,J2,8,Pin_8*%
%TO.N,GND*%
X143276793Y-93725293D03*
%TO.P,J2,7,Pin_7*%
X140736793Y-93725293D03*
%TO.P,J2,6,Pin_6*%
%TO.N,USART_RX*%
X138196793Y-93725293D03*
%TO.P,J2,5,Pin_5*%
%TO.N,USART_TX*%
X135656793Y-93725293D03*
%TO.P,J2,4,Pin_4*%
%TO.N,NRST*%
X133116793Y-93725293D03*
%TO.P,J2,3,Pin_3*%
%TO.N,SWCLK*%
X130576793Y-93725293D03*
%TO.P,J2,2,Pin_2*%
%TO.N,SWDIO*%
X128036793Y-93725293D03*
D15*
%TO.P,J2,1,Pin_1*%
%TO.N,VDD*%
X125496793Y-93725293D03*
%TD*%
D16*
%TO.P,BT1,1,+*%
%TO.N,+BATT*%
X144769500Y-81534000D03*
%TO.P,BT1,2,-*%
%TO.N,GND*%
X115369500Y-81534000D03*
%TD*%
D17*
%TO.P,C16,2*%
%TO.N,GND*%
X146094000Y-70000000D03*
%TO.P,C16,1*%
%TO.N,VDD*%
X142494000Y-70000000D03*
%TD*%
D18*
%TO.N,GND*%
X147320000Y-88900000D03*
X146050000Y-88900000D03*
X147320000Y-87630000D03*
X146050000Y-87630000D03*
X114808000Y-86360000D03*
X114808000Y-85344000D03*
X114808000Y-84328000D03*
X114808000Y-78740000D03*
X114808000Y-77724000D03*
X114808000Y-76708000D03*
X135890000Y-88900000D03*
X134620000Y-88900000D03*
X135890000Y-87630000D03*
X134620000Y-87630000D03*
X150114000Y-75158600D03*
X158165800Y-81864200D03*
X149860000Y-84124800D03*
%TO.N,+3V8*%
X151310500Y-81686400D03*
X145592800Y-78892400D03*
X148386800Y-79121000D03*
X152908000Y-82753200D03*
%TO.N,VDD*%
X151892000Y-91948000D03*
X151130000Y-74422000D03*
X139700000Y-69850000D03*
%TO.N,Net-(ANT1-1)*%
X166116000Y-85852000D03*
%TO.N,Net-(ANT1-2)*%
X159512000Y-77978000D03*
%TO.N,+BATT*%
X142748000Y-81534000D03*
%TO.N,GND*%
X146558000Y-73660000D03*
X125501400Y-75031600D03*
X116840000Y-84582000D03*
X125730000Y-86614000D03*
X125476000Y-89408000D03*
X133604000Y-83058000D03*
X130048000Y-74422000D03*
X116840000Y-78486000D03*
X129032000Y-74422000D03*
X125730000Y-85598000D03*
X131064000Y-74422000D03*
%TO.N,NRST*%
X147059100Y-79629000D03*
%TO.N,VDD*%
X129010500Y-81026000D03*
X125476000Y-91440000D03*
X133604000Y-78994000D03*
%TO.N,SWDIO*%
X154422959Y-74395544D03*
%TO.N,SWCLK*%
X156210000Y-79502000D03*
%TO.N,USART_TX*%
X154432000Y-72898000D03*
%TO.N,USART_RX*%
X154432000Y-73660000D03*
%TO.N,GDR*%
X132588000Y-90170000D03*
X118872000Y-87376000D03*
%TO.N,ePaper_BUSY*%
X118872000Y-84328000D03*
X154432000Y-72171497D03*
%TO.N,ePaper_RESET#*%
X152400000Y-71628000D03*
X119380000Y-83784503D03*
%TO.N,ePaper_D{slash}C#*%
X153486166Y-71698165D03*
X118872000Y-83058000D03*
%TO.N,ePaper_CS#*%
X153650538Y-76923565D03*
X118853500Y-82296000D03*
%TO.N,ePaper_SCK*%
X152698540Y-76958783D03*
X118853500Y-81534000D03*
%TO.N,ePaper_MOSI*%
X151790400Y-76962500D03*
X118853500Y-80576052D03*
%TO.N,SYS_WKUP1*%
X152908000Y-87122000D03*
X150876000Y-85090000D03*
%TD*%
D19*
%TO.N,ePaper_BUSY*%
X118934261Y-84328000D02*
X118872000Y-84328000D01*
X117672500Y-83066239D02*
X118934261Y-84328000D01*
X117672500Y-79303813D02*
X117672500Y-83066239D01*
X122988792Y-76181000D02*
X122969792Y-76162000D01*
X150782904Y-76181000D02*
X122988792Y-76181000D01*
X151649704Y-75314200D02*
X150782904Y-76181000D01*
X152193600Y-75314200D02*
X151649704Y-75314200D01*
X152832166Y-74675634D02*
X152193600Y-75314200D01*
X120814313Y-76162000D02*
X117672500Y-79303813D01*
X152831800Y-74675268D02*
X152832166Y-74675634D01*
X152831800Y-72694800D02*
X152831800Y-74675268D01*
X152704800Y-72694800D02*
X152831800Y-72694800D01*
X122969792Y-76162000D02*
X120814313Y-76162000D01*
X151885600Y-71101000D02*
X151866600Y-71120000D01*
X153634292Y-71101000D02*
X151885600Y-71101000D01*
X151866600Y-71856600D02*
X152704800Y-72694800D01*
X154432000Y-71898708D02*
X153634292Y-71101000D01*
X154432000Y-72171497D02*
X154432000Y-71898708D01*
X151866600Y-71120000D02*
X151866600Y-71856600D01*
%TO.N,ePaper_RESET#*%
X153159166Y-72387166D02*
X152400000Y-71628000D01*
X153159166Y-74958234D02*
X153159166Y-72387166D01*
X152476200Y-75641200D02*
X153159166Y-74958234D01*
X151785152Y-75641200D02*
X152476200Y-75641200D01*
X150918352Y-76508000D02*
X151785152Y-75641200D01*
X122853344Y-76508000D02*
X150918352Y-76508000D01*
X122834344Y-76489000D02*
X122853344Y-76508000D01*
X120949761Y-76489000D02*
X122834344Y-76489000D01*
X117999500Y-79439261D02*
X120949761Y-76489000D01*
X118853212Y-83784503D02*
X117999500Y-82930791D01*
X117999500Y-82930791D02*
X117999500Y-79439261D01*
X119380000Y-83784503D02*
X118853212Y-83784503D01*
%TO.N,ePaper_D{slash}C#*%
X118870209Y-83058000D02*
X118872000Y-83058000D01*
X118326500Y-82514291D02*
X118870209Y-83058000D01*
X118326500Y-79574709D02*
X118326500Y-82514291D01*
X118653209Y-79248000D02*
X118326500Y-79574709D01*
X119719104Y-79248000D02*
X118653209Y-79248000D01*
X122698896Y-76816000D02*
X122151104Y-76816000D01*
X122717896Y-76835000D02*
X122698896Y-76816000D01*
X151053800Y-76835000D02*
X122717896Y-76835000D01*
X122151104Y-76816000D02*
X119719104Y-79248000D01*
X152202048Y-76377800D02*
X151511000Y-76377800D01*
X151511000Y-76377800D02*
X151053800Y-76835000D01*
X153486166Y-75093682D02*
X152202048Y-76377800D01*
X153486166Y-71698165D02*
X153486166Y-75093682D01*
%TO.N,SWDIO*%
X129282100Y-92481400D02*
X128037500Y-93726000D01*
X131368800Y-92481400D02*
X129282100Y-92481400D01*
X131826000Y-92938600D02*
X131368800Y-92481400D01*
X131826000Y-93980000D02*
X131826000Y-92938600D01*
X132649000Y-94803000D02*
X131826000Y-93980000D01*
X136275109Y-94803000D02*
X132649000Y-94803000D01*
X136906000Y-94172109D02*
X136275109Y-94803000D01*
X136906000Y-92664448D02*
X136906000Y-94172109D01*
X145134448Y-84436000D02*
X136906000Y-92664448D01*
X146949526Y-84436000D02*
X145134448Y-84436000D01*
X147720000Y-83665526D02*
X146949526Y-84436000D01*
X147720000Y-81020939D02*
X147720000Y-83665526D01*
X154332261Y-78648000D02*
X154240261Y-78740000D01*
X154823552Y-78648000D02*
X154332261Y-78648000D01*
X155375000Y-75347585D02*
X155375000Y-78096552D01*
X150000939Y-78740000D02*
X147720000Y-81020939D01*
X154422959Y-74395544D02*
X155375000Y-75347585D01*
X154240261Y-78740000D02*
X150000939Y-78740000D01*
X155375000Y-78096552D02*
X154823552Y-78648000D01*
%TO.N,ePaper_CS#*%
X122538448Y-77816000D02*
X120085000Y-80269448D01*
X152303771Y-77816000D02*
X122538448Y-77816000D01*
X120085000Y-81064500D02*
X118853500Y-82296000D01*
X153088320Y-77485783D02*
X152633988Y-77485783D01*
X120085000Y-80269448D02*
X120085000Y-81064500D01*
X153650538Y-76923565D02*
X153088320Y-77485783D01*
X152633988Y-77485783D02*
X152303771Y-77816000D01*
%TO.N,+3V8*%
X148107400Y-78841600D02*
X148386800Y-79121000D01*
X146558697Y-78841600D02*
X148107400Y-78841600D01*
X146507897Y-78892400D02*
X146558697Y-78841600D01*
X145592800Y-78892400D02*
X146507897Y-78892400D01*
X151841200Y-81686400D02*
X152908000Y-82753200D01*
X151310500Y-81686400D02*
X151841200Y-81686400D01*
%TO.N,ePaper_SCK*%
X119380000Y-81007500D02*
X118853500Y-81534000D01*
X122422000Y-77470000D02*
X119380000Y-80512000D01*
X122428000Y-77470000D02*
X122422000Y-77470000D01*
X152168323Y-77489000D02*
X122447000Y-77489000D01*
X152698540Y-76958783D02*
X152168323Y-77489000D01*
X122447000Y-77489000D02*
X122428000Y-77470000D01*
X119380000Y-80512000D02*
X119380000Y-81007500D01*
%TO.N,ePaper_MOSI*%
X122286552Y-77143000D02*
X118853500Y-80576052D01*
X151790400Y-76962500D02*
X151590900Y-77162000D01*
X122582448Y-77162000D02*
X122563448Y-77143000D01*
X151590900Y-77162000D02*
X122582448Y-77162000D01*
X122563448Y-77143000D02*
X122286552Y-77143000D01*
%TO.N,SWCLK*%
X130577500Y-94001500D02*
X130577500Y-93726000D01*
X131706000Y-95130000D02*
X130577500Y-94001500D01*
X138316609Y-95130000D02*
X131706000Y-95130000D01*
X139274500Y-91220844D02*
X139274500Y-94172109D01*
X147220422Y-85090000D02*
X145405344Y-85090000D01*
X148374000Y-83936422D02*
X147220422Y-85090000D01*
X139274500Y-94172109D02*
X138316609Y-95130000D01*
X148374000Y-81291835D02*
X148374000Y-83936422D01*
X150163835Y-79502000D02*
X148374000Y-81291835D01*
X145405344Y-85090000D02*
X139274500Y-91220844D01*
X156210000Y-79502000D02*
X150163835Y-79502000D01*
%TO.N,USART_RX*%
X155702000Y-74930000D02*
X154432000Y-73660000D01*
X154959000Y-78975000D02*
X155702000Y-78232000D01*
X154467709Y-78975000D02*
X154959000Y-78975000D01*
X154267709Y-79175000D02*
X154467709Y-78975000D01*
X148047000Y-81156387D02*
X150028387Y-79175000D01*
X148047000Y-83800974D02*
X148047000Y-81156387D01*
X155702000Y-78232000D02*
X155702000Y-74930000D01*
X150028387Y-79175000D02*
X154267709Y-79175000D01*
X147084974Y-84763000D02*
X148047000Y-83800974D01*
X145269896Y-84763000D02*
X147084974Y-84763000D01*
X138197500Y-91835396D02*
X145269896Y-84763000D01*
X138197500Y-93726000D02*
X138197500Y-91835396D01*
%TO.N,USART_TX*%
X153895959Y-73434041D02*
X154432000Y-72898000D01*
X154959000Y-75676876D02*
X153895959Y-74613835D01*
X154959000Y-77829709D02*
X154959000Y-75676876D01*
X147393000Y-80885491D02*
X149957491Y-78321000D01*
X147393000Y-83530078D02*
X147393000Y-80885491D01*
X153895959Y-74613835D02*
X153895959Y-73434041D01*
X146814078Y-84109000D02*
X147393000Y-83530078D01*
X144999000Y-84109000D02*
X146814078Y-84109000D01*
X135657500Y-93450500D02*
X144999000Y-84109000D01*
X154467709Y-78321000D02*
X154959000Y-77829709D01*
X135657500Y-93726000D02*
X135657500Y-93450500D01*
X149957491Y-78321000D02*
X154467709Y-78321000D01*
%TO.N,NRST*%
X137055776Y-91589776D02*
X135253724Y-91589776D01*
X146678630Y-83782000D02*
X144863552Y-83782000D01*
X144863552Y-83782000D02*
X137055776Y-91589776D01*
X135253724Y-91589776D02*
X133117500Y-93726000D01*
X147066000Y-79635900D02*
X147066000Y-83394630D01*
X147059100Y-79629000D02*
X147066000Y-79635900D01*
X147066000Y-83394630D02*
X146678630Y-83782000D01*
%TO.N,VDD*%
X127228500Y-95457000D02*
X148383000Y-95457000D01*
X148383000Y-95457000D02*
X151892000Y-91948000D01*
X125497500Y-93726000D02*
X127228500Y-95457000D01*
D20*
X151327246Y-74224754D02*
X151130000Y-74422000D01*
X151327246Y-73094246D02*
X151327246Y-74224754D01*
X139700000Y-69850000D02*
X142344000Y-69850000D01*
X142344000Y-69850000D02*
X142494000Y-70000000D01*
D19*
%TO.N,Net-(ANT1-1)*%
X165740000Y-86228000D02*
X166116000Y-85852000D01*
%TO.N,Net-(ANT1-2)*%
X159740000Y-77504000D02*
X159740000Y-77750000D01*
X159740000Y-77750000D02*
X159512000Y-77978000D01*
D21*
%TO.N,+BATT*%
X144769500Y-81534000D02*
X142748000Y-81534000D01*
D19*
%TO.N,VDD*%
X126746000Y-90170000D02*
X126746000Y-83290500D01*
X133604000Y-78994000D02*
X131042500Y-78994000D01*
X125476000Y-91440000D02*
X126746000Y-90170000D01*
X131042500Y-78994000D02*
X129010500Y-81026000D01*
X126746000Y-83290500D02*
X129010500Y-81026000D01*
D22*
%TO.N,GDR*%
X123438000Y-91942000D02*
X130816000Y-91942000D01*
X118872000Y-87376000D02*
X123438000Y-91942000D01*
X130816000Y-91942000D02*
X132588000Y-90170000D01*
D19*
%TO.N,SYS_WKUP1*%
X150876000Y-85090000D02*
X152908000Y-87122000D01*
%TD*%
%TA.AperFunction,Conductor*%
%TO.N,GND*%
G36*
X142817300Y-93515449D02*
G01*
X142776793Y-93653404D01*
X142776793Y-93797182D01*
X142817300Y-93935137D01*
X142843107Y-93975293D01*
X141170479Y-93975293D01*
X141196286Y-93935137D01*
X141236793Y-93797182D01*
X141236793Y-93653404D01*
X141196286Y-93515449D01*
X141170479Y-93475293D01*
X142843107Y-93475293D01*
X142817300Y-93515449D01*
G37*
%TD.AperFunction*%
%TA.AperFunction,Conductor*%
G36*
X144803509Y-78436185D02*
G01*
X144849264Y-78488989D01*
X144859208Y-78558147D01*
X144853512Y-78581454D01*
X144807432Y-78713142D01*
X144807430Y-78713150D01*
X144787235Y-78892396D01*
X144787235Y-78892403D01*
X144807430Y-79071649D01*
X144807432Y-79071657D01*
X144823839Y-79118546D01*
X144827400Y-79188325D01*
X144792671Y-79248952D01*
X144730677Y-79281179D01*
X144706797Y-79283500D01*
X143421629Y-79283500D01*
X143421623Y-79283501D01*
X143362016Y-79289908D01*
X143227171Y-79340202D01*
X143227164Y-79340206D01*
X143111955Y-79426452D01*
X143111952Y-79426455D01*
X143025706Y-79541664D01*
X143025702Y-79541671D01*
X142975408Y-79676517D01*
X142969001Y-79736116D01*
X142969000Y-79736135D01*
X142969000Y-80609500D01*
X142949315Y-80676539D01*
X142896511Y-80722294D01*
X142845000Y-80733500D01*
X142796436Y-80733500D01*
X142789497Y-80733110D01*
X142760599Y-80729854D01*
X142748002Y-80728435D01*
X142747998Y-80728435D01*
X142718030Y-80731811D01*
X142703046Y-80733500D01*
X142693280Y-80734600D01*
X142568750Y-80748630D01*
X142568745Y-80748631D01*
X142398476Y-80808211D01*
X142245737Y-80904184D01*
X142118184Y-81031737D01*
X142022211Y-81184476D01*
X141962631Y-81354745D01*
X141962630Y-81354750D01*
X141942435Y-81533996D01*
X141942435Y-81534003D01*
X141962630Y-81713249D01*
X141962631Y-81713254D01*
X142022211Y-81883523D01*
X142112622Y-82027410D01*
X142118184Y-82036262D01*
X142245738Y-82163816D01*
X142398478Y-82259789D01*
X142568745Y-82319368D01*
X142568749Y-82319368D01*
X142568752Y-82319369D01*
X142682730Y-82332211D01*
X142747997Y-82339565D01*
X142748000Y-82339565D01*
X142748002Y-82339565D01*
X142760599Y-82338145D01*
X142789497Y-82334889D01*
X142796436Y-82334500D01*
X142845001Y-82334500D01*
X142912040Y-82354185D01*
X142957795Y-82406989D01*
X142969001Y-82458500D01*
X142969001Y-83331876D01*
X142975408Y-83391483D01*
X143025702Y-83526328D01*
X143025706Y-83526335D01*
X143111952Y-83641544D01*
X143111955Y-83641547D01*
X143227164Y-83727793D01*
X143227171Y-83727797D01*
X143272118Y-83744560D01*
X143362017Y-83778091D01*
X143421627Y-83784500D01*
X143712455Y-83784499D01*
X143779493Y-83804183D01*
X143825248Y-83856987D01*
X143835192Y-83926146D01*
X143806167Y-83989701D01*
X143800135Y-83996180D01*
X136843360Y-90952957D01*
X136782037Y-90986442D01*
X136755679Y-90989276D01*
X135297152Y-90989276D01*
X135289053Y-90988745D01*
X135253724Y-90984094D01*
X135214363Y-90989276D01*
X135096963Y-91004731D01*
X135096961Y-91004732D01*
X134950884Y-91065239D01*
X134825438Y-91161497D01*
X134803748Y-91189766D01*
X134798395Y-91195870D01*
X133601438Y-92392825D01*
X133540115Y-92426310D01*
X133481664Y-92424919D01*
X133352206Y-92390231D01*
X133352196Y-92390229D01*
X133116794Y-92369634D01*
X133116792Y-92369634D01*
X132881389Y-92390229D01*
X132881379Y-92390231D01*
X132653137Y-92451387D01*
X132653128Y-92451390D01*
X132438959Y-92551260D01*
X132438955Y-92551262D01*
X132436485Y-92552992D01*
X132435222Y-92553417D01*
X132434269Y-92553968D01*
X132434158Y-92553776D01*
X132370276Y-92575310D01*
X132302511Y-92558290D01*
X132267000Y-92526893D01*
X132263602Y-92522465D01*
X132254282Y-92510318D01*
X132244335Y-92502686D01*
X132226010Y-92488625D01*
X132219914Y-92483279D01*
X131824120Y-92087485D01*
X131818780Y-92081395D01*
X131797082Y-92053118D01*
X131751775Y-92018353D01*
X131710573Y-91961926D01*
X131706418Y-91892180D01*
X131739579Y-91832299D01*
X132566690Y-91005188D01*
X132628011Y-90971705D01*
X132640483Y-90969651D01*
X132665210Y-90966865D01*
X132767250Y-90955369D01*
X132767253Y-90955368D01*
X132767255Y-90955368D01*
X132937522Y-90895789D01*
X133090262Y-90799816D01*
X133217816Y-90672262D01*
X133313789Y-90519522D01*
X133373368Y-90349255D01*
X133373369Y-90349249D01*
X133393565Y-90170003D01*
X133393565Y-90169996D01*
X133373369Y-89990750D01*
X133373368Y-89990745D01*
X133313788Y-89820476D01*
X133217815Y-89667737D01*
X133090262Y-89540184D01*
X132937523Y-89444211D01*
X132767254Y-89384631D01*
X132767249Y-89384630D01*
X132588004Y-89364435D01*
X132587996Y-89364435D01*
X132408750Y-89384630D01*
X132408745Y-89384631D01*
X132238476Y-89444211D01*
X132085737Y-89540184D01*
X131958184Y-89667737D01*
X131862210Y-89820478D01*
X131802630Y-89990750D01*
X131788347Y-90117513D01*
X131761280Y-90181927D01*
X131752808Y-90191310D01*
X130613939Y-91330181D01*
X130552616Y-91363666D01*
X130526258Y-91366500D01*
X126698097Y-91366500D01*
X126631058Y-91346815D01*
X126585303Y-91294011D01*
X126575359Y-91224853D01*
X126604384Y-91161297D01*
X126610416Y-91154819D01*
X126676244Y-91088990D01*
X127139923Y-90625310D01*
X127145998Y-90619984D01*
X127174282Y-90598282D01*
X127270536Y-90472841D01*
X127331044Y-90326762D01*
X127346500Y-90209361D01*
X127351682Y-90170000D01*
X127351681Y-90169996D01*
X127347031Y-90134673D01*
X127346500Y-90126571D01*
X127346500Y-83590596D01*
X127366185Y-83523557D01*
X127382814Y-83502920D01*
X129029035Y-81856698D01*
X129090356Y-81823215D01*
X129102811Y-81821163D01*
X129189755Y-81811368D01*
X129360022Y-81751789D01*
X129512762Y-81655816D01*
X129640316Y-81528262D01*
X129736289Y-81375522D01*
X129795868Y-81205255D01*
X129805661Y-81118329D01*
X129832726Y-81053918D01*
X129841190Y-81044543D01*
X131254915Y-79630819D01*
X131316239Y-79597334D01*
X131342597Y-79594500D01*
X133021588Y-79594500D01*
X133088627Y-79614185D01*
X133098903Y-79621555D01*
X133101736Y-79623814D01*
X133101738Y-79623816D01*
X133254478Y-79719789D01*
X133424744Y-79779367D01*
X133424745Y-79779368D01*
X133424750Y-79779369D01*
X133603996Y-79799565D01*
X133604000Y-79799565D01*
X133604004Y-79799565D01*
X133783249Y-79779369D01*
X133783252Y-79779368D01*
X133783255Y-79779368D01*
X133953522Y-79719789D01*
X134106262Y-79623816D01*
X134233816Y-79496262D01*
X134329789Y-79343522D01*
X134389368Y-79173255D01*
X134391709Y-79152478D01*
X134409565Y-78994003D01*
X134409565Y-78993996D01*
X134389369Y-78814750D01*
X134389368Y-78814745D01*
X134329788Y-78644475D01*
X134305909Y-78606473D01*
X134286908Y-78539236D01*
X134307275Y-78472401D01*
X134360543Y-78427187D01*
X134410902Y-78416500D01*
X144736470Y-78416500D01*
X144803509Y-78436185D01*
G37*
%TD.AperFunction*%
%TA.AperFunction,Conductor*%
G36*
X158943039Y-67520185D02*
G01*
X158988794Y-67572989D01*
X159000000Y-67624500D01*
X159000000Y-77306560D01*
X158980315Y-77373599D01*
X158963681Y-77394241D01*
X158882184Y-77475737D01*
X158786211Y-77628476D01*
X158726631Y-77798745D01*
X158726630Y-77798750D01*
X158706435Y-77977996D01*
X158706435Y-77978003D01*
X158726630Y-78157249D01*
X158726631Y-78157254D01*
X158786211Y-78327523D01*
X158882184Y-78480262D01*
X158963681Y-78561759D01*
X158997166Y-78623082D01*
X159000000Y-78649440D01*
X159000000Y-96375500D01*
X158980315Y-96442539D01*
X158927511Y-96488294D01*
X158876000Y-96499500D01*
X112624500Y-96499500D01*
X112557461Y-96479815D01*
X112511706Y-96427011D01*
X112500500Y-96375500D01*
X112500500Y-93980006D01*
X113726200Y-93980006D01*
X113745364Y-94211297D01*
X113745366Y-94211308D01*
X113802342Y-94436300D01*
X113895575Y-94648848D01*
X114022516Y-94843147D01*
X114022519Y-94843151D01*
X114022521Y-94843153D01*
X114179716Y-95013913D01*
X114179719Y-95013915D01*
X114179722Y-95013918D01*
X114362865Y-95156464D01*
X114362871Y-95156468D01*
X114362874Y-95156470D01*
X114530360Y-95247109D01*
X114566152Y-95266479D01*
X114566997Y-95266936D01*
X114680987Y-95306068D01*
X114786515Y-95342297D01*
X114786517Y-95342297D01*
X114786519Y-95342298D01*
X115015451Y-95380500D01*
X115015452Y-95380500D01*
X115247548Y-95380500D01*
X115247549Y-95380500D01*
X115476481Y-95342298D01*
X115696003Y-95266936D01*
X115900126Y-95156470D01*
X116083284Y-95013913D01*
X116240479Y-94843153D01*
X116367424Y-94648849D01*
X116460657Y-94436300D01*
X116517634Y-94211305D01*
X116517635Y-94211297D01*
X116536800Y-93980006D01*
X116536800Y-93980005D01*
X120126702Y-93980005D01*
X120145861Y-94211218D01*
X120202817Y-94436135D01*
X120296016Y-94648609D01*
X120380311Y-94777633D01*
X120968726Y-94189219D01*
X121007401Y-94282588D01*
X121103575Y-94407925D01*
X121228912Y-94504099D01*
X121322279Y-94542772D01*
X120732699Y-95132351D01*
X120763150Y-95156050D01*
X120967197Y-95266476D01*
X120967206Y-95266479D01*
X121186639Y-95341811D01*
X121415493Y-95380000D01*
X121647507Y-95380000D01*
X121876360Y-95341811D01*
X122095793Y-95266479D01*
X122095802Y-95266476D01*
X122299850Y-95156050D01*
X122330298Y-95132351D01*
X121740720Y-94542773D01*
X121834088Y-94504099D01*
X121959425Y-94407925D01*
X122055599Y-94282589D01*
X122094272Y-94189220D01*
X122682686Y-94777634D01*
X122766984Y-94648606D01*
X122860182Y-94436135D01*
X122917138Y-94211218D01*
X122936298Y-93980005D01*
X122936298Y-93979994D01*
X122917138Y-93748781D01*
X122860182Y-93523864D01*
X122766983Y-93311390D01*
X122682686Y-93182364D01*
X122094272Y-93770778D01*
X122055599Y-93677412D01*
X121959425Y-93552075D01*
X121834088Y-93455901D01*
X121740720Y-93417227D01*
X122330299Y-92827648D01*
X122330299Y-92827647D01*
X122299849Y-92803949D01*
X122095802Y-92693523D01*
X122095793Y-92693520D01*
X121876360Y-92618188D01*
X121647507Y-92580000D01*
X121415493Y-92580000D01*
X121186639Y-92618188D01*
X120967206Y-92693520D01*
X120967198Y-92693523D01*
X120763144Y-92803952D01*
X120732700Y-92827646D01*
X120732700Y-92827647D01*
X121322279Y-93417226D01*
X121228912Y-93455901D01*
X121103575Y-93552075D01*
X121007401Y-93677411D01*
X120968726Y-93770779D01*
X120380312Y-93182365D01*
X120296016Y-93311391D01*
X120296014Y-93311395D01*
X120202817Y-93523864D01*
X120145861Y-93748781D01*
X120126702Y-93979994D01*
X120126702Y-93980005D01*
X116536800Y-93980005D01*
X116536800Y-93979993D01*
X116517635Y-93748702D01*
X116517633Y-93748691D01*
X116460657Y-93523699D01*
X116367424Y-93311151D01*
X116240483Y-93116852D01*
X116240480Y-93116849D01*
X116240479Y-93116847D01*
X116083284Y-92946087D01*
X116083279Y-92946083D01*
X116083277Y-92946081D01*
X115900134Y-92803535D01*
X115900128Y-92803531D01*
X115696004Y-92693064D01*
X115695995Y-92693061D01*
X115476484Y-92617702D01*
X115304782Y-92589050D01*
X115247549Y-92579500D01*
X115015451Y-92579500D01*
X114969664Y-92587140D01*
X114786515Y-92617702D01*
X114567004Y-92693061D01*
X114566995Y-92693064D01*
X114362871Y-92803531D01*
X114362865Y-92803535D01*
X114179722Y-92946081D01*
X114179719Y-92946084D01*
X114022516Y-93116852D01*
X113895575Y-93311151D01*
X113802342Y-93523699D01*
X113745366Y-93748691D01*
X113745364Y-93748702D01*
X113726200Y-93979993D01*
X113726200Y-93980006D01*
X112500500Y-93980006D01*
X112500500Y-81784000D01*
X113569500Y-81784000D01*
X113569500Y-83331844D01*
X113575901Y-83391372D01*
X113575903Y-83391379D01*
X113626145Y-83526086D01*
X113626149Y-83526093D01*
X113712309Y-83641187D01*
X113712312Y-83641190D01*
X113827406Y-83727350D01*
X113827413Y-83727354D01*
X113962120Y-83777596D01*
X113962127Y-83777598D01*
X114021655Y-83783999D01*
X114021672Y-83784000D01*
X115119500Y-83784000D01*
X115619500Y-83784000D01*
X116717328Y-83784000D01*
X116717344Y-83783999D01*
X116776872Y-83777598D01*
X116776879Y-83777596D01*
X116911586Y-83727354D01*
X116911593Y-83727350D01*
X117026686Y-83641191D01*
X117099985Y-83543277D01*
X117155919Y-83501406D01*
X117225611Y-83496422D01*
X117286933Y-83529907D01*
X118033392Y-84276366D01*
X118066877Y-84337689D01*
X118068931Y-84350163D01*
X118086630Y-84507250D01*
X118086631Y-84507254D01*
X118146211Y-84677523D01*
X118185769Y-84740478D01*
X118242184Y-84830262D01*
X118369738Y-84957816D01*
X118433159Y-84997666D01*
X118501780Y-85040784D01*
X118522478Y-85053789D01*
X118625952Y-85089996D01*
X118692745Y-85113368D01*
X118692750Y-85113369D01*
X118871996Y-85133565D01*
X118872000Y-85133565D01*
X118872004Y-85133565D01*
X119051249Y-85113369D01*
X119051252Y-85113368D01*
X119051255Y-85113368D01*
X119221522Y-85053789D01*
X119374262Y-84957816D01*
X119501816Y-84830262D01*
X119597789Y-84677522D01*
X119626366Y-84595849D01*
X119667087Y-84539075D01*
X119702455Y-84519763D01*
X119729522Y-84510292D01*
X119882262Y-84414319D01*
X120009816Y-84286765D01*
X120105789Y-84134025D01*
X120165368Y-83963758D01*
X120169606Y-83926146D01*
X120185565Y-83784506D01*
X120185565Y-83784499D01*
X120165369Y-83605253D01*
X120165368Y-83605248D01*
X120121188Y-83478989D01*
X120105789Y-83434981D01*
X120009816Y-83282241D01*
X119882262Y-83154687D01*
X119882261Y-83154687D01*
X119724255Y-83055404D01*
X119677964Y-83003069D01*
X119667007Y-82964293D01*
X119657369Y-82878750D01*
X119657366Y-82878737D01*
X119597793Y-82708490D01*
X119597789Y-82708478D01*
X119597781Y-82708465D01*
X119596605Y-82706022D01*
X119596315Y-82704265D01*
X119595490Y-82701906D01*
X119595903Y-82701761D01*
X119585246Y-82637082D01*
X119591276Y-82611263D01*
X119638868Y-82475255D01*
X119648661Y-82388329D01*
X119675726Y-82323918D01*
X119684190Y-82314543D01*
X120478922Y-81519811D01*
X120484999Y-81514483D01*
X120513282Y-81492782D01*
X120609536Y-81367341D01*
X120670044Y-81221262D01*
X120685500Y-81103861D01*
X120690682Y-81064500D01*
X120686028Y-81029152D01*
X120685500Y-81021087D01*
X120685500Y-80569545D01*
X120705185Y-80502505D01*
X120721819Y-80481864D01*
X122750865Y-78452819D01*
X122812188Y-78419334D01*
X122838546Y-78416500D01*
X130471402Y-78416500D01*
X130538441Y-78436185D01*
X130584196Y-78488989D01*
X130594140Y-78558147D01*
X130565115Y-78621703D01*
X130559083Y-78628181D01*
X128991965Y-80195298D01*
X128930642Y-80228783D01*
X128918168Y-80230837D01*
X128831250Y-80240630D01*
X128660978Y-80300210D01*
X128508237Y-80396184D01*
X128380684Y-80523737D01*
X128284710Y-80676478D01*
X128225130Y-80846750D01*
X128215337Y-80933668D01*
X128188270Y-80998082D01*
X128179798Y-81007465D01*
X126352096Y-82835168D01*
X126345994Y-82840519D01*
X126317716Y-82862219D01*
X126234898Y-82970151D01*
X126221464Y-82987656D01*
X126221462Y-82987659D01*
X126160957Y-83133734D01*
X126160955Y-83133739D01*
X126140318Y-83290498D01*
X126140318Y-83290499D01*
X126144969Y-83325826D01*
X126145500Y-83333928D01*
X126145500Y-89869902D01*
X126125815Y-89936941D01*
X126109181Y-89957583D01*
X125457465Y-90609298D01*
X125396142Y-90642783D01*
X125383668Y-90644837D01*
X125296750Y-90654630D01*
X125126478Y-90714210D01*
X124973737Y-90810184D01*
X124846184Y-90937737D01*
X124750210Y-91090478D01*
X124690629Y-91260753D01*
X124689080Y-91267541D01*
X124686663Y-91266989D01*
X124664066Y-91320785D01*
X124606477Y-91360348D01*
X124567903Y-91366500D01*
X123727742Y-91366500D01*
X123660703Y-91346815D01*
X123640061Y-91330181D01*
X119707190Y-87397310D01*
X119673705Y-87335987D01*
X119671651Y-87323512D01*
X119657369Y-87196750D01*
X119657368Y-87196745D01*
X119648435Y-87171215D01*
X119597789Y-87026478D01*
X119501816Y-86873738D01*
X119374262Y-86746184D01*
X119374262Y-86746183D01*
X119221523Y-86650211D01*
X119051254Y-86590631D01*
X119051249Y-86590630D01*
X118872004Y-86570435D01*
X118871996Y-86570435D01*
X118692750Y-86590630D01*
X118692745Y-86590631D01*
X118522476Y-86650211D01*
X118369737Y-86746184D01*
X118242184Y-86873737D01*
X118146211Y-87026476D01*
X118086631Y-87196745D01*
X118086630Y-87196750D01*
X118066435Y-87375996D01*
X118066435Y-87376003D01*
X118086630Y-87555249D01*
X118086631Y-87555254D01*
X118146211Y-87725523D01*
X118242183Y-87878262D01*
X118242184Y-87878262D01*
X118369738Y-88005816D01*
X118522478Y-88101789D01*
X118692744Y-88161368D01*
X118692745Y-88161368D01*
X118692750Y-88161369D01*
X118819512Y-88175651D01*
X118883926Y-88202717D01*
X118893309Y-88211190D01*
X123001520Y-92319400D01*
X123006861Y-92325490D01*
X123027549Y-92352451D01*
X123038911Y-92361169D01*
X123055497Y-92373897D01*
X123055514Y-92373911D01*
X123130563Y-92431497D01*
X123147766Y-92444698D01*
X123188770Y-92461682D01*
X123287764Y-92502687D01*
X123400280Y-92517500D01*
X123400281Y-92517500D01*
X123402294Y-92517765D01*
X123402313Y-92517766D01*
X123438000Y-92522465D01*
X123438001Y-92522465D01*
X123451265Y-92520718D01*
X123471682Y-92518030D01*
X123479781Y-92517500D01*
X124067468Y-92517500D01*
X124134507Y-92537185D01*
X124180262Y-92589989D01*
X124190206Y-92659147D01*
X124183650Y-92684833D01*
X124152701Y-92767810D01*
X124146294Y-92827409D01*
X124146293Y-92827428D01*
X124146293Y-94623163D01*
X124146294Y-94623169D01*
X124152701Y-94682776D01*
X124202995Y-94817621D01*
X124202999Y-94817628D01*
X124289245Y-94932837D01*
X124289248Y-94932840D01*
X124404457Y-95019086D01*
X124404464Y-95019090D01*
X124539310Y-95069384D01*
X124539309Y-95069384D01*
X124546237Y-95070128D01*
X124598920Y-95075793D01*
X125946695Y-95075792D01*
X126013734Y-95095477D01*
X126034376Y-95112111D01*
X126773169Y-95850904D01*
X126778520Y-95857005D01*
X126800218Y-95885282D01*
X126925659Y-95981536D01*
X127071738Y-96042044D01*
X127150118Y-96052362D01*
X127228499Y-96062682D01*
X127228500Y-96062682D01*
X127263829Y-96058030D01*
X127271928Y-96057500D01*
X148339572Y-96057500D01*
X148347670Y-96058030D01*
X148383000Y-96062682D01*
X148383001Y-96062682D01*
X148435254Y-96055802D01*
X148539762Y-96042044D01*
X148685841Y-95981536D01*
X148685841Y-95981535D01*
X148685841Y-95981534D01*
X148693305Y-95978443D01*
X148702082Y-95969072D01*
X148811282Y-95885282D01*
X148832983Y-95856999D01*
X148838311Y-95850922D01*
X151910535Y-92778698D01*
X151971856Y-92745215D01*
X151984311Y-92743163D01*
X152071255Y-92733368D01*
X152241522Y-92673789D01*
X152394262Y-92577816D01*
X152521816Y-92450262D01*
X152617789Y-92297522D01*
X152677368Y-92127255D01*
X152681848Y-92087494D01*
X152697565Y-91948003D01*
X152697565Y-91947996D01*
X152677369Y-91768750D01*
X152677368Y-91768745D01*
X152617788Y-91598476D01*
X152569069Y-91520940D01*
X152521816Y-91445738D01*
X152394262Y-91318184D01*
X152355791Y-91294011D01*
X152241523Y-91222211D01*
X152071254Y-91162631D01*
X152071249Y-91162630D01*
X151892004Y-91142435D01*
X151891996Y-91142435D01*
X151712750Y-91162630D01*
X151712745Y-91162631D01*
X151542476Y-91222211D01*
X151389737Y-91318184D01*
X151262184Y-91445737D01*
X151166210Y-91598478D01*
X151106630Y-91768750D01*
X151096837Y-91855668D01*
X151069770Y-91920082D01*
X151061298Y-91929465D01*
X148170584Y-94820181D01*
X148109261Y-94853666D01*
X148082903Y-94856500D01*
X144354136Y-94856500D01*
X144287097Y-94836815D01*
X144241342Y-94784011D01*
X144231398Y-94714853D01*
X144260423Y-94651297D01*
X144266455Y-94644819D01*
X144314898Y-94596375D01*
X144450393Y-94402871D01*
X144550222Y-94188785D01*
X144550225Y-94188779D01*
X144607429Y-93975293D01*
X143710479Y-93975293D01*
X143736286Y-93935137D01*
X143776793Y-93797182D01*
X143776793Y-93653404D01*
X143736286Y-93515449D01*
X143710479Y-93475293D01*
X144607429Y-93475293D01*
X144607428Y-93475292D01*
X144550225Y-93261806D01*
X144550222Y-93261800D01*
X144450393Y-93047715D01*
X144450392Y-93047713D01*
X144314906Y-92854219D01*
X144314901Y-92854213D01*
X144147875Y-92687187D01*
X143954371Y-92551692D01*
X143740285Y-92451863D01*
X143740279Y-92451860D01*
X143526793Y-92394657D01*
X143526793Y-93289791D01*
X143419108Y-93240613D01*
X143312556Y-93225293D01*
X143241030Y-93225293D01*
X143134478Y-93240613D01*
X143026793Y-93289791D01*
X143026793Y-92394657D01*
X143026792Y-92394657D01*
X142813306Y-92451860D01*
X142813300Y-92451863D01*
X142599215Y-92551692D01*
X142599213Y-92551693D01*
X142405719Y-92687179D01*
X142405713Y-92687184D01*
X142238684Y-92854213D01*
X142238683Y-92854215D01*
X142108368Y-93040324D01*
X142053791Y-93083948D01*
X141984292Y-93091141D01*
X141921938Y-93059619D01*
X141905218Y-93040324D01*
X141774902Y-92854215D01*
X141774901Y-92854213D01*
X141607875Y-92687187D01*
X141414371Y-92551692D01*
X141200285Y-92451863D01*
X141200279Y-92451860D01*
X140986793Y-92394657D01*
X140986793Y-93289791D01*
X140879108Y-93240613D01*
X140772556Y-93225293D01*
X140701030Y-93225293D01*
X140594478Y-93240613D01*
X140486793Y-93289791D01*
X140486793Y-92394657D01*
X140486792Y-92394657D01*
X140273306Y-92451860D01*
X140273300Y-92451863D01*
X140054309Y-92553981D01*
X140053600Y-92552461D01*
X139993080Y-92567134D01*
X139927057Y-92544271D01*
X139883875Y-92489343D01*
X139875000Y-92443275D01*
X139875000Y-91520940D01*
X139894685Y-91453901D01*
X139911319Y-91433259D01*
X145617760Y-85726819D01*
X145679083Y-85693334D01*
X145705441Y-85690500D01*
X147176994Y-85690500D01*
X147185092Y-85691030D01*
X147220422Y-85695682D01*
X147220423Y-85695682D01*
X147272675Y-85688802D01*
X147377184Y-85675044D01*
X147523263Y-85614536D01*
X147552291Y-85592262D01*
X147648704Y-85518282D01*
X147670405Y-85489999D01*
X147675733Y-85483922D01*
X148069652Y-85090003D01*
X150070435Y-85090003D01*
X150090630Y-85269249D01*
X150090631Y-85269254D01*
X150150211Y-85439523D01*
X150178099Y-85483906D01*
X150246184Y-85592262D01*
X150373738Y-85719816D01*
X150526478Y-85815789D01*
X150696745Y-85875368D01*
X150783669Y-85885161D01*
X150848080Y-85912226D01*
X150857465Y-85920700D01*
X152077298Y-87140533D01*
X152110783Y-87201856D01*
X152112837Y-87214330D01*
X152122630Y-87301249D01*
X152182210Y-87471521D01*
X152234820Y-87555249D01*
X152278184Y-87624262D01*
X152405738Y-87751816D01*
X152558478Y-87847789D01*
X152645565Y-87878262D01*
X152728745Y-87907368D01*
X152728750Y-87907369D01*
X152907996Y-87927565D01*
X152908000Y-87927565D01*
X152908004Y-87927565D01*
X153087249Y-87907369D01*
X153087252Y-87907368D01*
X153087255Y-87907368D01*
X153257522Y-87847789D01*
X153410262Y-87751816D01*
X153537816Y-87624262D01*
X153633789Y-87471522D01*
X153693368Y-87301255D01*
X153703162Y-87214330D01*
X153713565Y-87122003D01*
X153713565Y-87121996D01*
X153693369Y-86942750D01*
X153693368Y-86942745D01*
X153633788Y-86772476D01*
X153537815Y-86619737D01*
X153410262Y-86492184D01*
X153257521Y-86396210D01*
X153087249Y-86336630D01*
X153000330Y-86326837D01*
X152935916Y-86299770D01*
X152926533Y-86291298D01*
X151706700Y-85071465D01*
X151673215Y-85010142D01*
X151671163Y-84997686D01*
X151661368Y-84910745D01*
X151601789Y-84740478D01*
X151505816Y-84587738D01*
X151378262Y-84460184D01*
X151225523Y-84364211D01*
X151055254Y-84304631D01*
X151055249Y-84304630D01*
X150876004Y-84284435D01*
X150875996Y-84284435D01*
X150696750Y-84304630D01*
X150696745Y-84304631D01*
X150526476Y-84364211D01*
X150373737Y-84460184D01*
X150246184Y-84587737D01*
X150150211Y-84740476D01*
X150090631Y-84910745D01*
X150090630Y-84910750D01*
X150070435Y-85089996D01*
X150070435Y-85090003D01*
X148069652Y-85090003D01*
X148767922Y-84391733D01*
X148773999Y-84386405D01*
X148802282Y-84364704D01*
X148898536Y-84239263D01*
X148959044Y-84093184D01*
X148971271Y-84000312D01*
X148979682Y-83936422D01*
X148975030Y-83901091D01*
X148974500Y-83892993D01*
X148974500Y-81686403D01*
X150504935Y-81686403D01*
X150525130Y-81865649D01*
X150525131Y-81865654D01*
X150584711Y-82035923D01*
X150665072Y-82163816D01*
X150680684Y-82188662D01*
X150808238Y-82316216D01*
X150845398Y-82339565D01*
X150947429Y-82403676D01*
X150960978Y-82412189D01*
X151093327Y-82458500D01*
X151131245Y-82471768D01*
X151131250Y-82471769D01*
X151310496Y-82491965D01*
X151310500Y-82491965D01*
X151310504Y-82491965D01*
X151489749Y-82471769D01*
X151489752Y-82471768D01*
X151489755Y-82471768D01*
X151489756Y-82471767D01*
X151489759Y-82471767D01*
X151527673Y-82458500D01*
X151629249Y-82422956D01*
X151699024Y-82419394D01*
X151757882Y-82452317D01*
X152077298Y-82771733D01*
X152110783Y-82833056D01*
X152112837Y-82845530D01*
X152122630Y-82932449D01*
X152182210Y-83102721D01*
X152201700Y-83133739D01*
X152278184Y-83255462D01*
X152405738Y-83383016D01*
X152558478Y-83478989D01*
X152693765Y-83526328D01*
X152728745Y-83538568D01*
X152728750Y-83538569D01*
X152907996Y-83558765D01*
X152908000Y-83558765D01*
X152908004Y-83558765D01*
X153087249Y-83538569D01*
X153087252Y-83538568D01*
X153087255Y-83538568D01*
X153257522Y-83478989D01*
X153410262Y-83383016D01*
X153537816Y-83255462D01*
X153633789Y-83102722D01*
X153693368Y-82932455D01*
X153704330Y-82835168D01*
X153713565Y-82753203D01*
X153713565Y-82753196D01*
X153693369Y-82573950D01*
X153693368Y-82573945D01*
X153652972Y-82458500D01*
X153633789Y-82403678D01*
X153602690Y-82354185D01*
X153537815Y-82250937D01*
X153410262Y-82123384D01*
X153257521Y-82027410D01*
X153087249Y-81967830D01*
X153000330Y-81958037D01*
X152935916Y-81930970D01*
X152926533Y-81922498D01*
X152659850Y-81655815D01*
X152296520Y-81292485D01*
X152291180Y-81286395D01*
X152269482Y-81258118D01*
X152144041Y-81161864D01*
X151997962Y-81101356D01*
X151997960Y-81101355D01*
X151929496Y-81092342D01*
X151880561Y-81085900D01*
X151878522Y-81085631D01*
X151877555Y-81085504D01*
X151816431Y-81059511D01*
X151812758Y-81056581D01*
X151660023Y-80960611D01*
X151489754Y-80901031D01*
X151489749Y-80901030D01*
X151310504Y-80880835D01*
X151310496Y-80880835D01*
X151131250Y-80901030D01*
X151131245Y-80901031D01*
X150960976Y-80960611D01*
X150808237Y-81056584D01*
X150680684Y-81184137D01*
X150584711Y-81336876D01*
X150525131Y-81507145D01*
X150525130Y-81507150D01*
X150504935Y-81686396D01*
X150504935Y-81686403D01*
X148974500Y-81686403D01*
X148974500Y-81591931D01*
X148994185Y-81524892D01*
X149010819Y-81504250D01*
X150376251Y-80138819D01*
X150437574Y-80105334D01*
X150463932Y-80102500D01*
X155627588Y-80102500D01*
X155694627Y-80122185D01*
X155704903Y-80129555D01*
X155707736Y-80131814D01*
X155707738Y-80131816D01*
X155860478Y-80227789D01*
X156030744Y-80287367D01*
X156030745Y-80287368D01*
X156030750Y-80287369D01*
X156209996Y-80307565D01*
X156210000Y-80307565D01*
X156210004Y-80307565D01*
X156389249Y-80287369D01*
X156389252Y-80287368D01*
X156389255Y-80287368D01*
X156559522Y-80227789D01*
X156712262Y-80131816D01*
X156839816Y-80004262D01*
X156935789Y-79851522D01*
X156995368Y-79681255D01*
X156995369Y-79681249D01*
X157015565Y-79502003D01*
X157015565Y-79501996D01*
X156995369Y-79322750D01*
X156995368Y-79322745D01*
X156983878Y-79289908D01*
X156935789Y-79152478D01*
X156932376Y-79147047D01*
X156840591Y-79000972D01*
X156839816Y-78999738D01*
X156712262Y-78872184D01*
X156683055Y-78853832D01*
X156559523Y-78776211D01*
X156389254Y-78716631D01*
X156389249Y-78716630D01*
X156325580Y-78709457D01*
X156261166Y-78682391D01*
X156221610Y-78624796D01*
X156219473Y-78554959D01*
X156224902Y-78538784D01*
X156226534Y-78534843D01*
X156226536Y-78534841D01*
X156287044Y-78388762D01*
X156302500Y-78271361D01*
X156307682Y-78232000D01*
X156303030Y-78196669D01*
X156302500Y-78188571D01*
X156302500Y-74973428D01*
X156303031Y-74965326D01*
X156307682Y-74929999D01*
X156307682Y-74929998D01*
X156287044Y-74773239D01*
X156287042Y-74773234D01*
X156286333Y-74771523D01*
X156226536Y-74627159D01*
X156154450Y-74533215D01*
X156140761Y-74515375D01*
X156130281Y-74501716D01*
X156102009Y-74480023D01*
X156095912Y-74474677D01*
X155262700Y-73641465D01*
X155229215Y-73580142D01*
X155227163Y-73567686D01*
X155217368Y-73480745D01*
X155161105Y-73319954D01*
X155157544Y-73250176D01*
X155161106Y-73238045D01*
X155217366Y-73077262D01*
X155217369Y-73077249D01*
X155237565Y-72898003D01*
X155237565Y-72897996D01*
X155217369Y-72718750D01*
X155217368Y-72718745D01*
X155167315Y-72575702D01*
X155163754Y-72505923D01*
X155167316Y-72493792D01*
X155217366Y-72350759D01*
X155217369Y-72350746D01*
X155237565Y-72171500D01*
X155237565Y-72171493D01*
X155217369Y-71992247D01*
X155217368Y-71992242D01*
X155157788Y-71821973D01*
X155061815Y-71669234D01*
X154934261Y-71541680D01*
X154915836Y-71530103D01*
X154888874Y-71505548D01*
X154888187Y-71506167D01*
X154886553Y-71504352D01*
X154883448Y-71500617D01*
X154860281Y-71470425D01*
X154832013Y-71448734D01*
X154825917Y-71443389D01*
X154089612Y-70707085D01*
X154084272Y-70700995D01*
X154062574Y-70672718D01*
X153937133Y-70576464D01*
X153935503Y-70575789D01*
X153791054Y-70515956D01*
X153791052Y-70515955D01*
X153673653Y-70500500D01*
X153634292Y-70495318D01*
X153598962Y-70499969D01*
X153590864Y-70500500D01*
X151929028Y-70500500D01*
X151920929Y-70499969D01*
X151885600Y-70495318D01*
X151846239Y-70500500D01*
X151728839Y-70515955D01*
X151728837Y-70515956D01*
X151582757Y-70576464D01*
X151457316Y-70672718D01*
X151451571Y-70678464D01*
X151451317Y-70678210D01*
X151443809Y-70685718D01*
X151444063Y-70685972D01*
X151438322Y-70691713D01*
X151438318Y-70691717D01*
X151438318Y-70691718D01*
X151414150Y-70723215D01*
X151414149Y-70723214D01*
X151342064Y-70817158D01*
X151342061Y-70817163D01*
X151281557Y-70963234D01*
X151281556Y-70963238D01*
X151271823Y-71037164D01*
X151243556Y-71101060D01*
X151185231Y-71139530D01*
X151115366Y-71140361D01*
X151056143Y-71103288D01*
X151052745Y-71099293D01*
X151000194Y-71034782D01*
X150902982Y-70937570D01*
X150902981Y-70937570D01*
X149860000Y-71980553D01*
X149170571Y-72669981D01*
X149267785Y-72767194D01*
X149267796Y-72767204D01*
X149347827Y-72832400D01*
X149347840Y-72832409D01*
X149504508Y-72911090D01*
X149675113Y-72951525D01*
X149850433Y-72951525D01*
X149853854Y-72950714D01*
X149856279Y-72950842D01*
X149857608Y-72950687D01*
X149857634Y-72950913D01*
X149923626Y-72954402D01*
X149980329Y-72995226D01*
X150005958Y-73060225D01*
X150003119Y-73099958D01*
X150002222Y-73103740D01*
X150002221Y-73103755D01*
X150002221Y-73279190D01*
X150002222Y-73279201D01*
X150042681Y-73449907D01*
X150121417Y-73606683D01*
X150121421Y-73606689D01*
X150186668Y-73686786D01*
X150186682Y-73686801D01*
X150399172Y-73899290D01*
X150432657Y-73960613D01*
X150427673Y-74030304D01*
X150416485Y-74052942D01*
X150404212Y-74072474D01*
X150344631Y-74242745D01*
X150344630Y-74242750D01*
X150324435Y-74421996D01*
X150324435Y-74422003D01*
X150344630Y-74601249D01*
X150344631Y-74601254D01*
X150404211Y-74771523D01*
X150500184Y-74924262D01*
X150627738Y-75051816D01*
X150743886Y-75124796D01*
X150763293Y-75136991D01*
X150809584Y-75189326D01*
X150820232Y-75258379D01*
X150791857Y-75322228D01*
X150785002Y-75329666D01*
X150570488Y-75544181D01*
X150509165Y-75577666D01*
X150482807Y-75580500D01*
X123156104Y-75580500D01*
X123134656Y-75577676D01*
X123134612Y-75578017D01*
X123126554Y-75576956D01*
X123009153Y-75561500D01*
X122969792Y-75556318D01*
X122934462Y-75560969D01*
X122926364Y-75561500D01*
X120857747Y-75561500D01*
X120849647Y-75560969D01*
X120814313Y-75556317D01*
X120814312Y-75556317D01*
X120643744Y-75578772D01*
X120630838Y-75588020D01*
X120511469Y-75637465D01*
X120386032Y-75733716D01*
X120364332Y-75761994D01*
X120358981Y-75768096D01*
X117278596Y-78848481D01*
X117272494Y-78853832D01*
X117244216Y-78875532D01*
X117190791Y-78945158D01*
X117147964Y-79000971D01*
X117147961Y-79000976D01*
X117087457Y-79147047D01*
X117087456Y-79147051D01*
X117075261Y-79239680D01*
X117046994Y-79303576D01*
X116988670Y-79342047D01*
X116918805Y-79342878D01*
X116908989Y-79339676D01*
X116776880Y-79290403D01*
X116776872Y-79290401D01*
X116717344Y-79284000D01*
X115619500Y-79284000D01*
X115619500Y-83784000D01*
X115119500Y-83784000D01*
X115119500Y-81784000D01*
X113569500Y-81784000D01*
X112500500Y-81784000D01*
X112500500Y-81284000D01*
X113569500Y-81284000D01*
X115119500Y-81284000D01*
X115119500Y-79284000D01*
X114021655Y-79284000D01*
X113962127Y-79290401D01*
X113962120Y-79290403D01*
X113827413Y-79340645D01*
X113827406Y-79340649D01*
X113712312Y-79426809D01*
X113712309Y-79426812D01*
X113626149Y-79541906D01*
X113626145Y-79541913D01*
X113575903Y-79676620D01*
X113575901Y-79676627D01*
X113569500Y-79736155D01*
X113569500Y-81284000D01*
X112500500Y-81284000D01*
X112500500Y-71811887D01*
X148535475Y-71811887D01*
X148575909Y-71982491D01*
X148654594Y-72139167D01*
X148719795Y-72219205D01*
X148719802Y-72219213D01*
X148817017Y-72316428D01*
X149506447Y-71627000D01*
X149506447Y-71626999D01*
X148914245Y-71034798D01*
X148719805Y-71229240D01*
X148719795Y-71229251D01*
X148654599Y-71309282D01*
X148654590Y-71309295D01*
X148575909Y-71465962D01*
X148535475Y-71636566D01*
X148535475Y-71811887D01*
X112500500Y-71811887D01*
X112500500Y-69850003D01*
X138894435Y-69850003D01*
X138914630Y-70029249D01*
X138914631Y-70029254D01*
X138974211Y-70199523D01*
X139005928Y-70250000D01*
X139070184Y-70352262D01*
X139197738Y-70479816D01*
X139288080Y-70536582D01*
X139350474Y-70575787D01*
X139350478Y-70575789D01*
X139419692Y-70600008D01*
X139520745Y-70635368D01*
X139520750Y-70635369D01*
X139699996Y-70655565D01*
X139700000Y-70655565D01*
X139700004Y-70655565D01*
X139879249Y-70635369D01*
X139879252Y-70635368D01*
X139879255Y-70635368D01*
X140049522Y-70575789D01*
X140050488Y-70575181D01*
X140059523Y-70569506D01*
X140125494Y-70550500D01*
X140576465Y-70550500D01*
X140643504Y-70570185D01*
X140689259Y-70622989D01*
X140699823Y-70661898D01*
X140704001Y-70702797D01*
X140704001Y-70702799D01*
X140741897Y-70817159D01*
X140759186Y-70869334D01*
X140851288Y-71018656D01*
X140975344Y-71142712D01*
X141124666Y-71234814D01*
X141291203Y-71289999D01*
X141393991Y-71300500D01*
X143594008Y-71300499D01*
X143696797Y-71289999D01*
X143863334Y-71234814D01*
X144012656Y-71142712D01*
X144136712Y-71018656D01*
X144188755Y-70934279D01*
X144240701Y-70887556D01*
X144309664Y-70876333D01*
X144373746Y-70904176D01*
X144399831Y-70934280D01*
X144451680Y-71018340D01*
X144451683Y-71018344D01*
X144575654Y-71142315D01*
X144724875Y-71234356D01*
X144724880Y-71234358D01*
X144891302Y-71289505D01*
X144891309Y-71289506D01*
X144994019Y-71299999D01*
X145843999Y-71299999D01*
X145844000Y-71299998D01*
X145844000Y-70250000D01*
X146344000Y-70250000D01*
X146344000Y-71299999D01*
X147193972Y-71299999D01*
X147193986Y-71299998D01*
X147296697Y-71289505D01*
X147463119Y-71234358D01*
X147463124Y-71234356D01*
X147612345Y-71142315D01*
X147736315Y-71018345D01*
X147828356Y-70869124D01*
X147828358Y-70869119D01*
X147883505Y-70702697D01*
X147883506Y-70702690D01*
X147885697Y-70681244D01*
X149267798Y-70681244D01*
X149860000Y-71273446D01*
X149860001Y-71273446D01*
X150549428Y-70584017D01*
X150452214Y-70486805D01*
X150452203Y-70486795D01*
X150372172Y-70421599D01*
X150372159Y-70421590D01*
X150215491Y-70342909D01*
X150044887Y-70302475D01*
X149869567Y-70302475D01*
X149698962Y-70342909D01*
X149542295Y-70421590D01*
X149542288Y-70421595D01*
X149462241Y-70486801D01*
X149462225Y-70486816D01*
X149267798Y-70681243D01*
X149267798Y-70681244D01*
X147885697Y-70681244D01*
X147893999Y-70599986D01*
X147894000Y-70599973D01*
X147894000Y-70250000D01*
X146344000Y-70250000D01*
X145844000Y-70250000D01*
X145844000Y-68700000D01*
X146344000Y-68700000D01*
X146344000Y-69750000D01*
X147893999Y-69750000D01*
X147893999Y-69400028D01*
X147893998Y-69400013D01*
X147883505Y-69297302D01*
X147828358Y-69130880D01*
X147828356Y-69130875D01*
X147736315Y-68981654D01*
X147612345Y-68857684D01*
X147463124Y-68765643D01*
X147463119Y-68765641D01*
X147296697Y-68710494D01*
X147296690Y-68710493D01*
X147193986Y-68700000D01*
X146344000Y-68700000D01*
X145844000Y-68700000D01*
X144994028Y-68700000D01*
X144994012Y-68700001D01*
X144891302Y-68710494D01*
X144724880Y-68765641D01*
X144724875Y-68765643D01*
X144575654Y-68857684D01*
X144451682Y-68981656D01*
X144399831Y-69065720D01*
X144347883Y-69112444D01*
X144278920Y-69123665D01*
X144214838Y-69095822D01*
X144188754Y-69065718D01*
X144136712Y-68981344D01*
X144012657Y-68857289D01*
X144012656Y-68857288D01*
X143863334Y-68765186D01*
X143696797Y-68710001D01*
X143696795Y-68710000D01*
X143594010Y-68699500D01*
X141393998Y-68699500D01*
X141393981Y-68699501D01*
X141291203Y-68710000D01*
X141291200Y-68710001D01*
X141124668Y-68765185D01*
X141124663Y-68765187D01*
X140975342Y-68857289D01*
X140851289Y-68981342D01*
X140826033Y-69022288D01*
X140799917Y-69064631D01*
X140783901Y-69090597D01*
X140731953Y-69137321D01*
X140678362Y-69149500D01*
X140125494Y-69149500D01*
X140059523Y-69130494D01*
X140049525Y-69124212D01*
X139879254Y-69064631D01*
X139879249Y-69064630D01*
X139700004Y-69044435D01*
X139699996Y-69044435D01*
X139520750Y-69064630D01*
X139520745Y-69064631D01*
X139350476Y-69124211D01*
X139197737Y-69220184D01*
X139070184Y-69347737D01*
X138974211Y-69500476D01*
X138914631Y-69670745D01*
X138914630Y-69670750D01*
X138894435Y-69849996D01*
X138894435Y-69850003D01*
X112500500Y-69850003D01*
X112500500Y-67624500D01*
X112520185Y-67557461D01*
X112572989Y-67511706D01*
X112624500Y-67500500D01*
X158876000Y-67500500D01*
X158943039Y-67520185D01*
G37*
%TD.AperFunction*%
%TD*%
M02*
