M48
; DRILL file {KiCad 7.0.5} date Sat Jul 22 13:56:24 2023
; FORMAT={-:-/ absolute / metric / decimal}
; #@! TF.CreationDate,2023-07-22T13:56:24+02:00
; #@! TF.GenerationSoftware,Kicad,Pcbnew,7.0.5
; #@! TF.FileFunction,Plated,1,2,PTH
FMAT,2
METRIC
; #@! TA.AperFunction,Plated,PTH,ViaDrill
T1C0.300
; #@! TA.AperFunction,Plated,PTH,ComponentDrill
T2C1.000
; #@! TA.AperFunction,Plated,PTH,ComponentDrill
T3C1.200
%
G90
G05
T1
X114.808Y-76.708
X114.808Y-77.724
X114.808Y-78.74
X114.808Y-84.328
X114.808Y-85.344
X114.808Y-86.36
X116.84Y-78.486
X116.84Y-84.582
X118.853Y-80.576
X118.853Y-81.534
X118.853Y-82.296
X118.872Y-83.058
X118.872Y-84.328
X118.872Y-87.376
X119.38Y-83.785
X125.476Y-89.408
X125.476Y-91.44
X125.501Y-75.032
X125.73Y-85.598
X125.73Y-86.614
X129.011Y-81.026
X129.032Y-74.422
X130.048Y-74.422
X131.064Y-74.422
X132.588Y-90.17
X133.604Y-78.994
X133.604Y-83.058
X134.62Y-87.63
X134.62Y-88.9
X135.89Y-87.63
X135.89Y-88.9
X139.7Y-69.85
X142.748Y-81.534
X145.593Y-78.892
X146.05Y-87.63
X146.05Y-88.9
X146.558Y-73.66
X147.059Y-79.629
X147.32Y-87.63
X147.32Y-88.9
X148.387Y-79.121
X149.86Y-84.125
X150.114Y-75.159
X150.876Y-85.09
X151.13Y-74.422
X151.31Y-81.686
X151.79Y-76.962
X151.892Y-91.948
X152.4Y-71.628
X152.699Y-76.959
X152.908Y-82.753
X152.908Y-87.122
X153.486Y-71.698
X153.651Y-76.924
X154.423Y-74.396
X154.432Y-72.171
X154.432Y-72.898
X154.432Y-73.66
X156.21Y-79.502
X158.166Y-81.864
X159.512Y-77.978
X166.116Y-85.852
T2
X125.497Y-93.725
X128.037Y-93.725
X130.577Y-93.725
X133.117Y-93.725
X135.657Y-93.725
X138.197Y-93.725
X140.737Y-93.725
X143.277Y-93.725
T3
X115.131Y-93.98
X121.531Y-93.98
T0
M30
