%TF.GenerationSoftware,KiCad,Pcbnew,7.0.5*%
%TF.CreationDate,2023-07-22T13:56:30+02:00*%
%TF.ProjectId,eink-NFC,65696e6b-2d4e-4464-932e-6b696361645f,rev?*%
%TF.SameCoordinates,Original*%
%TF.FileFunction,Drillmap*%
%TF.FilePolarity,Positive*%
%FSLAX45Y45*%
G04 Gerber Fmt 4.5, Leading zero omitted, Abs format (unit mm)*
G04 Created by KiCad (PCBNEW 7.0.5) date 2023-07-22 13:56:30*
%MOMM*%
%LPD*%
G01*
G04 APERTURE LIST*
%ADD10C,0.038100*%
%ADD11C,0.200000*%
%ADD12C,0.030000*%
%ADD13C,0.100000*%
%ADD14C,0.120000*%
G04 APERTURE END LIST*
D10*
X11200000Y-6700000D02*
X17700000Y-6700000D01*
X17700000Y-9700000D01*
X11200000Y-9700000D01*
X11200000Y-6700000D01*
D11*
D12*
X11465800Y-7655800D02*
X11495800Y-7685800D01*
X11495800Y-7655800D02*
X11465800Y-7685800D01*
X11465800Y-7757400D02*
X11495800Y-7787400D01*
X11495800Y-7757400D02*
X11465800Y-7787400D01*
X11465800Y-7859000D02*
X11495800Y-7889000D01*
X11495800Y-7859000D02*
X11465800Y-7889000D01*
X11465800Y-8417800D02*
X11495800Y-8447800D01*
X11495800Y-8417800D02*
X11465800Y-8447800D01*
X11465800Y-8519400D02*
X11495800Y-8549400D01*
X11495800Y-8519400D02*
X11465800Y-8549400D01*
X11465800Y-8621000D02*
X11495800Y-8651000D01*
X11495800Y-8621000D02*
X11465800Y-8651000D01*
X11669000Y-7833600D02*
X11699000Y-7863600D01*
X11699000Y-7833600D02*
X11669000Y-7863600D01*
X11669000Y-8443200D02*
X11699000Y-8473200D01*
X11699000Y-8443200D02*
X11669000Y-8473200D01*
X11870350Y-8042605D02*
X11900350Y-8072605D01*
X11900350Y-8042605D02*
X11870350Y-8072605D01*
X11870350Y-8138400D02*
X11900350Y-8168400D01*
X11900350Y-8138400D02*
X11870350Y-8168400D01*
X11870350Y-8214600D02*
X11900350Y-8244600D01*
X11900350Y-8214600D02*
X11870350Y-8244600D01*
X11872200Y-8290800D02*
X11902200Y-8320800D01*
X11902200Y-8290800D02*
X11872200Y-8320800D01*
X11872200Y-8417800D02*
X11902200Y-8447800D01*
X11902200Y-8417800D02*
X11872200Y-8447800D01*
X11872200Y-8722600D02*
X11902200Y-8752600D01*
X11902200Y-8722600D02*
X11872200Y-8752600D01*
X11923000Y-8363450D02*
X11953000Y-8393450D01*
X11953000Y-8363450D02*
X11923000Y-8393450D01*
X12532600Y-8925800D02*
X12562600Y-8955800D01*
X12562600Y-8925800D02*
X12532600Y-8955800D01*
X12532600Y-9129000D02*
X12562600Y-9159000D01*
X12562600Y-9129000D02*
X12532600Y-9159000D01*
X12535140Y-7488160D02*
X12565140Y-7518160D01*
X12565140Y-7488160D02*
X12535140Y-7518160D01*
X12558000Y-8544800D02*
X12588000Y-8574800D01*
X12588000Y-8544800D02*
X12558000Y-8574800D01*
X12558000Y-8646400D02*
X12588000Y-8676400D01*
X12588000Y-8646400D02*
X12558000Y-8676400D01*
X12886050Y-8087600D02*
X12916050Y-8117600D01*
X12916050Y-8087600D02*
X12886050Y-8117600D01*
X12888200Y-7427200D02*
X12918200Y-7457200D01*
X12918200Y-7427200D02*
X12888200Y-7457200D01*
X12989800Y-7427200D02*
X13019800Y-7457200D01*
X13019800Y-7427200D02*
X12989800Y-7457200D01*
X13091400Y-7427200D02*
X13121400Y-7457200D01*
X13121400Y-7427200D02*
X13091400Y-7457200D01*
X13243800Y-9002000D02*
X13273800Y-9032000D01*
X13273800Y-9002000D02*
X13243800Y-9032000D01*
X13345400Y-7884400D02*
X13375400Y-7914400D01*
X13375400Y-7884400D02*
X13345400Y-7914400D01*
X13345400Y-8290800D02*
X13375400Y-8320800D01*
X13375400Y-8290800D02*
X13345400Y-8320800D01*
X13447000Y-8748000D02*
X13477000Y-8778000D01*
X13477000Y-8748000D02*
X13447000Y-8778000D01*
X13447000Y-8875000D02*
X13477000Y-8905000D01*
X13477000Y-8875000D02*
X13447000Y-8905000D01*
X13574000Y-8748000D02*
X13604000Y-8778000D01*
X13604000Y-8748000D02*
X13574000Y-8778000D01*
X13574000Y-8875000D02*
X13604000Y-8905000D01*
X13604000Y-8875000D02*
X13574000Y-8905000D01*
X13955000Y-6970000D02*
X13985000Y-7000000D01*
X13985000Y-6970000D02*
X13955000Y-7000000D01*
X14259800Y-8138400D02*
X14289800Y-8168400D01*
X14289800Y-8138400D02*
X14259800Y-8168400D01*
X14544280Y-7874240D02*
X14574280Y-7904240D01*
X14574280Y-7874240D02*
X14544280Y-7904240D01*
X14590000Y-8748000D02*
X14620000Y-8778000D01*
X14620000Y-8748000D02*
X14590000Y-8778000D01*
X14590000Y-8875000D02*
X14620000Y-8905000D01*
X14620000Y-8875000D02*
X14590000Y-8905000D01*
X14640800Y-7351000D02*
X14670800Y-7381000D01*
X14670800Y-7351000D02*
X14640800Y-7381000D01*
X14690910Y-7947900D02*
X14720910Y-7977900D01*
X14720910Y-7947900D02*
X14690910Y-7977900D01*
X14717000Y-8748000D02*
X14747000Y-8778000D01*
X14747000Y-8748000D02*
X14717000Y-8778000D01*
X14717000Y-8875000D02*
X14747000Y-8905000D01*
X14747000Y-8875000D02*
X14717000Y-8905000D01*
X14823680Y-7897100D02*
X14853680Y-7927100D01*
X14853680Y-7897100D02*
X14823680Y-7927100D01*
X14971000Y-8397480D02*
X15001000Y-8427480D01*
X15001000Y-8397480D02*
X14971000Y-8427480D01*
X14996400Y-7500860D02*
X15026400Y-7530860D01*
X15026400Y-7500860D02*
X14996400Y-7530860D01*
X15072600Y-8494000D02*
X15102600Y-8524000D01*
X15102600Y-8494000D02*
X15072600Y-8524000D01*
X15098000Y-7427200D02*
X15128000Y-7457200D01*
X15128000Y-7427200D02*
X15098000Y-7457200D01*
X15116050Y-8153640D02*
X15146050Y-8183640D01*
X15146050Y-8153640D02*
X15116050Y-8183640D01*
X15164040Y-7681250D02*
X15194040Y-7711250D01*
X15194040Y-7681250D02*
X15164040Y-7711250D01*
X15174200Y-9179800D02*
X15204200Y-9209800D01*
X15204200Y-9179800D02*
X15174200Y-9209800D01*
X15225000Y-7147800D02*
X15255000Y-7177800D01*
X15255000Y-7147800D02*
X15225000Y-7177800D01*
X15254854Y-7680878D02*
X15284854Y-7710878D01*
X15284854Y-7680878D02*
X15254854Y-7710878D01*
X15275800Y-8260320D02*
X15305800Y-8290320D01*
X15305800Y-8260320D02*
X15275800Y-8290320D01*
X15275800Y-8697200D02*
X15305800Y-8727200D01*
X15305800Y-8697200D02*
X15275800Y-8727200D01*
X15333617Y-7154816D02*
X15363617Y-7184816D01*
X15363617Y-7154816D02*
X15333617Y-7184816D01*
X15350054Y-7677356D02*
X15380054Y-7707356D01*
X15380054Y-7677356D02*
X15350054Y-7707356D01*
X15427296Y-7424554D02*
X15457296Y-7454554D01*
X15457296Y-7424554D02*
X15427296Y-7454554D01*
X15428200Y-7202150D02*
X15458200Y-7232150D01*
X15458200Y-7202150D02*
X15428200Y-7232150D01*
X15428200Y-7274800D02*
X15458200Y-7304800D01*
X15458200Y-7274800D02*
X15428200Y-7304800D01*
X15428200Y-7351000D02*
X15458200Y-7381000D01*
X15458200Y-7351000D02*
X15428200Y-7381000D01*
X15606000Y-7935200D02*
X15636000Y-7965200D01*
X15636000Y-7935200D02*
X15606000Y-7965200D01*
X15801580Y-8171420D02*
X15831580Y-8201420D01*
X15831580Y-8171420D02*
X15801580Y-8201420D01*
X15936200Y-7782800D02*
X15966200Y-7812800D01*
X15966200Y-7782800D02*
X15936200Y-7812800D01*
X16596600Y-8570200D02*
X16626600Y-8600200D01*
X16626600Y-8570200D02*
X16596600Y-8600200D01*
D13*
X12599679Y-9372529D02*
G75*
G03*
X12599679Y-9372529I-50000J0D01*
G01*
X12853679Y-9372529D02*
G75*
G03*
X12853679Y-9372529I-50000J0D01*
G01*
X13107679Y-9372529D02*
G75*
G03*
X13107679Y-9372529I-50000J0D01*
G01*
X13361679Y-9372529D02*
G75*
G03*
X13361679Y-9372529I-50000J0D01*
G01*
X13615679Y-9372529D02*
G75*
G03*
X13615679Y-9372529I-50000J0D01*
G01*
X13869679Y-9372529D02*
G75*
G03*
X13869679Y-9372529I-50000J0D01*
G01*
X14123679Y-9372529D02*
G75*
G03*
X14123679Y-9372529I-50000J0D01*
G01*
X14377679Y-9372529D02*
G75*
G03*
X14377679Y-9372529I-50000J0D01*
G01*
D14*
X11513150Y-9338000D02*
X11513150Y-9458000D01*
X11453150Y-9398000D02*
X11573150Y-9398000D01*
X12153150Y-9338000D02*
X12153150Y-9458000D01*
X12093150Y-9398000D02*
X12213150Y-9398000D01*
D11*
X11458872Y-10013389D02*
X11458872Y-9813389D01*
X11458872Y-9813389D02*
X11506491Y-9813389D01*
X11506491Y-9813389D02*
X11535062Y-9822913D01*
X11535062Y-9822913D02*
X11554110Y-9841960D01*
X11554110Y-9841960D02*
X11563634Y-9861008D01*
X11563634Y-9861008D02*
X11573157Y-9899103D01*
X11573157Y-9899103D02*
X11573157Y-9927675D01*
X11573157Y-9927675D02*
X11563634Y-9965770D01*
X11563634Y-9965770D02*
X11554110Y-9984817D01*
X11554110Y-9984817D02*
X11535062Y-10003865D01*
X11535062Y-10003865D02*
X11506491Y-10013389D01*
X11506491Y-10013389D02*
X11458872Y-10013389D01*
X11658872Y-10013389D02*
X11658872Y-9880055D01*
X11658872Y-9918151D02*
X11668396Y-9899103D01*
X11668396Y-9899103D02*
X11677919Y-9889579D01*
X11677919Y-9889579D02*
X11696967Y-9880055D01*
X11696967Y-9880055D02*
X11716015Y-9880055D01*
X11782681Y-10013389D02*
X11782681Y-9880055D01*
X11782681Y-9813389D02*
X11773157Y-9822913D01*
X11773157Y-9822913D02*
X11782681Y-9832436D01*
X11782681Y-9832436D02*
X11792205Y-9822913D01*
X11792205Y-9822913D02*
X11782681Y-9813389D01*
X11782681Y-9813389D02*
X11782681Y-9832436D01*
X11906491Y-10013389D02*
X11887443Y-10003865D01*
X11887443Y-10003865D02*
X11877919Y-9984817D01*
X11877919Y-9984817D02*
X11877919Y-9813389D01*
X12011253Y-10013389D02*
X11992205Y-10003865D01*
X11992205Y-10003865D02*
X11982681Y-9984817D01*
X11982681Y-9984817D02*
X11982681Y-9813389D01*
X12239824Y-10013389D02*
X12239824Y-9813389D01*
X12239824Y-9813389D02*
X12306491Y-9956246D01*
X12306491Y-9956246D02*
X12373157Y-9813389D01*
X12373157Y-9813389D02*
X12373157Y-10013389D01*
X12554110Y-10013389D02*
X12554110Y-9908627D01*
X12554110Y-9908627D02*
X12544586Y-9889579D01*
X12544586Y-9889579D02*
X12525538Y-9880055D01*
X12525538Y-9880055D02*
X12487443Y-9880055D01*
X12487443Y-9880055D02*
X12468396Y-9889579D01*
X12554110Y-10003865D02*
X12535062Y-10013389D01*
X12535062Y-10013389D02*
X12487443Y-10013389D01*
X12487443Y-10013389D02*
X12468396Y-10003865D01*
X12468396Y-10003865D02*
X12458872Y-9984817D01*
X12458872Y-9984817D02*
X12458872Y-9965770D01*
X12458872Y-9965770D02*
X12468396Y-9946722D01*
X12468396Y-9946722D02*
X12487443Y-9937198D01*
X12487443Y-9937198D02*
X12535062Y-9937198D01*
X12535062Y-9937198D02*
X12554110Y-9927675D01*
X12649348Y-9880055D02*
X12649348Y-10080055D01*
X12649348Y-9889579D02*
X12668396Y-9880055D01*
X12668396Y-9880055D02*
X12706491Y-9880055D01*
X12706491Y-9880055D02*
X12725538Y-9889579D01*
X12725538Y-9889579D02*
X12735062Y-9899103D01*
X12735062Y-9899103D02*
X12744586Y-9918151D01*
X12744586Y-9918151D02*
X12744586Y-9975294D01*
X12744586Y-9975294D02*
X12735062Y-9994341D01*
X12735062Y-9994341D02*
X12725538Y-10003865D01*
X12725538Y-10003865D02*
X12706491Y-10013389D01*
X12706491Y-10013389D02*
X12668396Y-10013389D01*
X12668396Y-10013389D02*
X12649348Y-10003865D01*
X12830300Y-9994341D02*
X12839824Y-10003865D01*
X12839824Y-10003865D02*
X12830300Y-10013389D01*
X12830300Y-10013389D02*
X12820777Y-10003865D01*
X12820777Y-10003865D02*
X12830300Y-9994341D01*
X12830300Y-9994341D02*
X12830300Y-10013389D01*
X12830300Y-9889579D02*
X12839824Y-9899103D01*
X12839824Y-9899103D02*
X12830300Y-9908627D01*
X12830300Y-9908627D02*
X12820777Y-9899103D01*
X12820777Y-9899103D02*
X12830300Y-9889579D01*
X12830300Y-9889579D02*
X12830300Y-9908627D01*
D12*
X11168095Y-10326905D02*
X11198095Y-10356905D01*
X11198095Y-10326905D02*
X11168095Y-10356905D01*
D11*
X11496967Y-10233389D02*
X11516015Y-10233389D01*
X11516015Y-10233389D02*
X11535062Y-10242913D01*
X11535062Y-10242913D02*
X11544586Y-10252436D01*
X11544586Y-10252436D02*
X11554110Y-10271484D01*
X11554110Y-10271484D02*
X11563634Y-10309579D01*
X11563634Y-10309579D02*
X11563634Y-10357198D01*
X11563634Y-10357198D02*
X11554110Y-10395294D01*
X11554110Y-10395294D02*
X11544586Y-10414341D01*
X11544586Y-10414341D02*
X11535062Y-10423865D01*
X11535062Y-10423865D02*
X11516015Y-10433389D01*
X11516015Y-10433389D02*
X11496967Y-10433389D01*
X11496967Y-10433389D02*
X11477919Y-10423865D01*
X11477919Y-10423865D02*
X11468396Y-10414341D01*
X11468396Y-10414341D02*
X11458872Y-10395294D01*
X11458872Y-10395294D02*
X11449348Y-10357198D01*
X11449348Y-10357198D02*
X11449348Y-10309579D01*
X11449348Y-10309579D02*
X11458872Y-10271484D01*
X11458872Y-10271484D02*
X11468396Y-10252436D01*
X11468396Y-10252436D02*
X11477919Y-10242913D01*
X11477919Y-10242913D02*
X11496967Y-10233389D01*
X11649348Y-10414341D02*
X11658872Y-10423865D01*
X11658872Y-10423865D02*
X11649348Y-10433389D01*
X11649348Y-10433389D02*
X11639824Y-10423865D01*
X11639824Y-10423865D02*
X11649348Y-10414341D01*
X11649348Y-10414341D02*
X11649348Y-10433389D01*
X11725538Y-10233389D02*
X11849348Y-10233389D01*
X11849348Y-10233389D02*
X11782681Y-10309579D01*
X11782681Y-10309579D02*
X11811253Y-10309579D01*
X11811253Y-10309579D02*
X11830300Y-10319103D01*
X11830300Y-10319103D02*
X11839824Y-10328627D01*
X11839824Y-10328627D02*
X11849348Y-10347675D01*
X11849348Y-10347675D02*
X11849348Y-10395294D01*
X11849348Y-10395294D02*
X11839824Y-10414341D01*
X11839824Y-10414341D02*
X11830300Y-10423865D01*
X11830300Y-10423865D02*
X11811253Y-10433389D01*
X11811253Y-10433389D02*
X11754110Y-10433389D01*
X11754110Y-10433389D02*
X11735062Y-10423865D01*
X11735062Y-10423865D02*
X11725538Y-10414341D01*
X11973157Y-10233389D02*
X11992205Y-10233389D01*
X11992205Y-10233389D02*
X12011253Y-10242913D01*
X12011253Y-10242913D02*
X12020777Y-10252436D01*
X12020777Y-10252436D02*
X12030300Y-10271484D01*
X12030300Y-10271484D02*
X12039824Y-10309579D01*
X12039824Y-10309579D02*
X12039824Y-10357198D01*
X12039824Y-10357198D02*
X12030300Y-10395294D01*
X12030300Y-10395294D02*
X12020777Y-10414341D01*
X12020777Y-10414341D02*
X12011253Y-10423865D01*
X12011253Y-10423865D02*
X11992205Y-10433389D01*
X11992205Y-10433389D02*
X11973157Y-10433389D01*
X11973157Y-10433389D02*
X11954110Y-10423865D01*
X11954110Y-10423865D02*
X11944586Y-10414341D01*
X11944586Y-10414341D02*
X11935062Y-10395294D01*
X11935062Y-10395294D02*
X11925538Y-10357198D01*
X11925538Y-10357198D02*
X11925538Y-10309579D01*
X11925538Y-10309579D02*
X11935062Y-10271484D01*
X11935062Y-10271484D02*
X11944586Y-10252436D01*
X11944586Y-10252436D02*
X11954110Y-10242913D01*
X11954110Y-10242913D02*
X11973157Y-10233389D01*
X12163634Y-10233389D02*
X12182681Y-10233389D01*
X12182681Y-10233389D02*
X12201729Y-10242913D01*
X12201729Y-10242913D02*
X12211253Y-10252436D01*
X12211253Y-10252436D02*
X12220777Y-10271484D01*
X12220777Y-10271484D02*
X12230300Y-10309579D01*
X12230300Y-10309579D02*
X12230300Y-10357198D01*
X12230300Y-10357198D02*
X12220777Y-10395294D01*
X12220777Y-10395294D02*
X12211253Y-10414341D01*
X12211253Y-10414341D02*
X12201729Y-10423865D01*
X12201729Y-10423865D02*
X12182681Y-10433389D01*
X12182681Y-10433389D02*
X12163634Y-10433389D01*
X12163634Y-10433389D02*
X12144586Y-10423865D01*
X12144586Y-10423865D02*
X12135062Y-10414341D01*
X12135062Y-10414341D02*
X12125538Y-10395294D01*
X12125538Y-10395294D02*
X12116015Y-10357198D01*
X12116015Y-10357198D02*
X12116015Y-10309579D01*
X12116015Y-10309579D02*
X12125538Y-10271484D01*
X12125538Y-10271484D02*
X12135062Y-10252436D01*
X12135062Y-10252436D02*
X12144586Y-10242913D01*
X12144586Y-10242913D02*
X12163634Y-10233389D01*
X12316015Y-10433389D02*
X12316015Y-10300055D01*
X12316015Y-10319103D02*
X12325538Y-10309579D01*
X12325538Y-10309579D02*
X12344586Y-10300055D01*
X12344586Y-10300055D02*
X12373158Y-10300055D01*
X12373158Y-10300055D02*
X12392205Y-10309579D01*
X12392205Y-10309579D02*
X12401729Y-10328627D01*
X12401729Y-10328627D02*
X12401729Y-10433389D01*
X12401729Y-10328627D02*
X12411253Y-10309579D01*
X12411253Y-10309579D02*
X12430300Y-10300055D01*
X12430300Y-10300055D02*
X12458872Y-10300055D01*
X12458872Y-10300055D02*
X12477919Y-10309579D01*
X12477919Y-10309579D02*
X12487443Y-10328627D01*
X12487443Y-10328627D02*
X12487443Y-10433389D01*
X12582681Y-10433389D02*
X12582681Y-10300055D01*
X12582681Y-10319103D02*
X12592205Y-10309579D01*
X12592205Y-10309579D02*
X12611253Y-10300055D01*
X12611253Y-10300055D02*
X12639824Y-10300055D01*
X12639824Y-10300055D02*
X12658872Y-10309579D01*
X12658872Y-10309579D02*
X12668396Y-10328627D01*
X12668396Y-10328627D02*
X12668396Y-10433389D01*
X12668396Y-10328627D02*
X12677919Y-10309579D01*
X12677919Y-10309579D02*
X12696967Y-10300055D01*
X12696967Y-10300055D02*
X12725538Y-10300055D01*
X12725538Y-10300055D02*
X12744586Y-10309579D01*
X12744586Y-10309579D02*
X12754110Y-10328627D01*
X12754110Y-10328627D02*
X12754110Y-10433389D01*
X13144586Y-10223865D02*
X12973158Y-10481008D01*
X13401729Y-10233389D02*
X13420777Y-10233389D01*
X13420777Y-10233389D02*
X13439824Y-10242913D01*
X13439824Y-10242913D02*
X13449348Y-10252436D01*
X13449348Y-10252436D02*
X13458872Y-10271484D01*
X13458872Y-10271484D02*
X13468396Y-10309579D01*
X13468396Y-10309579D02*
X13468396Y-10357198D01*
X13468396Y-10357198D02*
X13458872Y-10395294D01*
X13458872Y-10395294D02*
X13449348Y-10414341D01*
X13449348Y-10414341D02*
X13439824Y-10423865D01*
X13439824Y-10423865D02*
X13420777Y-10433389D01*
X13420777Y-10433389D02*
X13401729Y-10433389D01*
X13401729Y-10433389D02*
X13382681Y-10423865D01*
X13382681Y-10423865D02*
X13373158Y-10414341D01*
X13373158Y-10414341D02*
X13363634Y-10395294D01*
X13363634Y-10395294D02*
X13354110Y-10357198D01*
X13354110Y-10357198D02*
X13354110Y-10309579D01*
X13354110Y-10309579D02*
X13363634Y-10271484D01*
X13363634Y-10271484D02*
X13373158Y-10252436D01*
X13373158Y-10252436D02*
X13382681Y-10242913D01*
X13382681Y-10242913D02*
X13401729Y-10233389D01*
X13554110Y-10414341D02*
X13563634Y-10423865D01*
X13563634Y-10423865D02*
X13554110Y-10433389D01*
X13554110Y-10433389D02*
X13544586Y-10423865D01*
X13544586Y-10423865D02*
X13554110Y-10414341D01*
X13554110Y-10414341D02*
X13554110Y-10433389D01*
X13687443Y-10233389D02*
X13706491Y-10233389D01*
X13706491Y-10233389D02*
X13725539Y-10242913D01*
X13725539Y-10242913D02*
X13735062Y-10252436D01*
X13735062Y-10252436D02*
X13744586Y-10271484D01*
X13744586Y-10271484D02*
X13754110Y-10309579D01*
X13754110Y-10309579D02*
X13754110Y-10357198D01*
X13754110Y-10357198D02*
X13744586Y-10395294D01*
X13744586Y-10395294D02*
X13735062Y-10414341D01*
X13735062Y-10414341D02*
X13725539Y-10423865D01*
X13725539Y-10423865D02*
X13706491Y-10433389D01*
X13706491Y-10433389D02*
X13687443Y-10433389D01*
X13687443Y-10433389D02*
X13668396Y-10423865D01*
X13668396Y-10423865D02*
X13658872Y-10414341D01*
X13658872Y-10414341D02*
X13649348Y-10395294D01*
X13649348Y-10395294D02*
X13639824Y-10357198D01*
X13639824Y-10357198D02*
X13639824Y-10309579D01*
X13639824Y-10309579D02*
X13649348Y-10271484D01*
X13649348Y-10271484D02*
X13658872Y-10252436D01*
X13658872Y-10252436D02*
X13668396Y-10242913D01*
X13668396Y-10242913D02*
X13687443Y-10233389D01*
X13944586Y-10433389D02*
X13830301Y-10433389D01*
X13887443Y-10433389D02*
X13887443Y-10233389D01*
X13887443Y-10233389D02*
X13868396Y-10261960D01*
X13868396Y-10261960D02*
X13849348Y-10281008D01*
X13849348Y-10281008D02*
X13830301Y-10290532D01*
X14135062Y-10433389D02*
X14020777Y-10433389D01*
X14077920Y-10433389D02*
X14077920Y-10233389D01*
X14077920Y-10233389D02*
X14058872Y-10261960D01*
X14058872Y-10261960D02*
X14039824Y-10281008D01*
X14039824Y-10281008D02*
X14020777Y-10290532D01*
X14249348Y-10319103D02*
X14230301Y-10309579D01*
X14230301Y-10309579D02*
X14220777Y-10300055D01*
X14220777Y-10300055D02*
X14211253Y-10281008D01*
X14211253Y-10281008D02*
X14211253Y-10271484D01*
X14211253Y-10271484D02*
X14220777Y-10252436D01*
X14220777Y-10252436D02*
X14230301Y-10242913D01*
X14230301Y-10242913D02*
X14249348Y-10233389D01*
X14249348Y-10233389D02*
X14287443Y-10233389D01*
X14287443Y-10233389D02*
X14306491Y-10242913D01*
X14306491Y-10242913D02*
X14316015Y-10252436D01*
X14316015Y-10252436D02*
X14325539Y-10271484D01*
X14325539Y-10271484D02*
X14325539Y-10281008D01*
X14325539Y-10281008D02*
X14316015Y-10300055D01*
X14316015Y-10300055D02*
X14306491Y-10309579D01*
X14306491Y-10309579D02*
X14287443Y-10319103D01*
X14287443Y-10319103D02*
X14249348Y-10319103D01*
X14249348Y-10319103D02*
X14230301Y-10328627D01*
X14230301Y-10328627D02*
X14220777Y-10338151D01*
X14220777Y-10338151D02*
X14211253Y-10357198D01*
X14211253Y-10357198D02*
X14211253Y-10395294D01*
X14211253Y-10395294D02*
X14220777Y-10414341D01*
X14220777Y-10414341D02*
X14230301Y-10423865D01*
X14230301Y-10423865D02*
X14249348Y-10433389D01*
X14249348Y-10433389D02*
X14287443Y-10433389D01*
X14287443Y-10433389D02*
X14306491Y-10423865D01*
X14306491Y-10423865D02*
X14316015Y-10414341D01*
X14316015Y-10414341D02*
X14325539Y-10395294D01*
X14325539Y-10395294D02*
X14325539Y-10357198D01*
X14325539Y-10357198D02*
X14316015Y-10338151D01*
X14316015Y-10338151D02*
X14306491Y-10328627D01*
X14306491Y-10328627D02*
X14287443Y-10319103D01*
X14401729Y-10233389D02*
X14401729Y-10271484D01*
X14477920Y-10233389D02*
X14477920Y-10271484D01*
X14773158Y-10509579D02*
X14763634Y-10500055D01*
X14763634Y-10500055D02*
X14744586Y-10471484D01*
X14744586Y-10471484D02*
X14735063Y-10452436D01*
X14735063Y-10452436D02*
X14725539Y-10423865D01*
X14725539Y-10423865D02*
X14716015Y-10376246D01*
X14716015Y-10376246D02*
X14716015Y-10338151D01*
X14716015Y-10338151D02*
X14725539Y-10290532D01*
X14725539Y-10290532D02*
X14735063Y-10261960D01*
X14735063Y-10261960D02*
X14744586Y-10242913D01*
X14744586Y-10242913D02*
X14763634Y-10214341D01*
X14763634Y-10214341D02*
X14773158Y-10204817D01*
X14935063Y-10233389D02*
X14896967Y-10233389D01*
X14896967Y-10233389D02*
X14877920Y-10242913D01*
X14877920Y-10242913D02*
X14868396Y-10252436D01*
X14868396Y-10252436D02*
X14849348Y-10281008D01*
X14849348Y-10281008D02*
X14839824Y-10319103D01*
X14839824Y-10319103D02*
X14839824Y-10395294D01*
X14839824Y-10395294D02*
X14849348Y-10414341D01*
X14849348Y-10414341D02*
X14858872Y-10423865D01*
X14858872Y-10423865D02*
X14877920Y-10433389D01*
X14877920Y-10433389D02*
X14916015Y-10433389D01*
X14916015Y-10433389D02*
X14935063Y-10423865D01*
X14935063Y-10423865D02*
X14944586Y-10414341D01*
X14944586Y-10414341D02*
X14954110Y-10395294D01*
X14954110Y-10395294D02*
X14954110Y-10347675D01*
X14954110Y-10347675D02*
X14944586Y-10328627D01*
X14944586Y-10328627D02*
X14935063Y-10319103D01*
X14935063Y-10319103D02*
X14916015Y-10309579D01*
X14916015Y-10309579D02*
X14877920Y-10309579D01*
X14877920Y-10309579D02*
X14858872Y-10319103D01*
X14858872Y-10319103D02*
X14849348Y-10328627D01*
X14849348Y-10328627D02*
X14839824Y-10347675D01*
X15030301Y-10252436D02*
X15039824Y-10242913D01*
X15039824Y-10242913D02*
X15058872Y-10233389D01*
X15058872Y-10233389D02*
X15106491Y-10233389D01*
X15106491Y-10233389D02*
X15125539Y-10242913D01*
X15125539Y-10242913D02*
X15135063Y-10252436D01*
X15135063Y-10252436D02*
X15144586Y-10271484D01*
X15144586Y-10271484D02*
X15144586Y-10290532D01*
X15144586Y-10290532D02*
X15135063Y-10319103D01*
X15135063Y-10319103D02*
X15020777Y-10433389D01*
X15020777Y-10433389D02*
X15144586Y-10433389D01*
X15382682Y-10433389D02*
X15382682Y-10233389D01*
X15468396Y-10433389D02*
X15468396Y-10328627D01*
X15468396Y-10328627D02*
X15458872Y-10309579D01*
X15458872Y-10309579D02*
X15439825Y-10300055D01*
X15439825Y-10300055D02*
X15411253Y-10300055D01*
X15411253Y-10300055D02*
X15392205Y-10309579D01*
X15392205Y-10309579D02*
X15382682Y-10319103D01*
X15592205Y-10433389D02*
X15573158Y-10423865D01*
X15573158Y-10423865D02*
X15563634Y-10414341D01*
X15563634Y-10414341D02*
X15554110Y-10395294D01*
X15554110Y-10395294D02*
X15554110Y-10338151D01*
X15554110Y-10338151D02*
X15563634Y-10319103D01*
X15563634Y-10319103D02*
X15573158Y-10309579D01*
X15573158Y-10309579D02*
X15592205Y-10300055D01*
X15592205Y-10300055D02*
X15620777Y-10300055D01*
X15620777Y-10300055D02*
X15639825Y-10309579D01*
X15639825Y-10309579D02*
X15649348Y-10319103D01*
X15649348Y-10319103D02*
X15658872Y-10338151D01*
X15658872Y-10338151D02*
X15658872Y-10395294D01*
X15658872Y-10395294D02*
X15649348Y-10414341D01*
X15649348Y-10414341D02*
X15639825Y-10423865D01*
X15639825Y-10423865D02*
X15620777Y-10433389D01*
X15620777Y-10433389D02*
X15592205Y-10433389D01*
X15773158Y-10433389D02*
X15754110Y-10423865D01*
X15754110Y-10423865D02*
X15744586Y-10404817D01*
X15744586Y-10404817D02*
X15744586Y-10233389D01*
X15925539Y-10423865D02*
X15906491Y-10433389D01*
X15906491Y-10433389D02*
X15868396Y-10433389D01*
X15868396Y-10433389D02*
X15849348Y-10423865D01*
X15849348Y-10423865D02*
X15839825Y-10404817D01*
X15839825Y-10404817D02*
X15839825Y-10328627D01*
X15839825Y-10328627D02*
X15849348Y-10309579D01*
X15849348Y-10309579D02*
X15868396Y-10300055D01*
X15868396Y-10300055D02*
X15906491Y-10300055D01*
X15906491Y-10300055D02*
X15925539Y-10309579D01*
X15925539Y-10309579D02*
X15935063Y-10328627D01*
X15935063Y-10328627D02*
X15935063Y-10347675D01*
X15935063Y-10347675D02*
X15839825Y-10366722D01*
X16011253Y-10423865D02*
X16030301Y-10433389D01*
X16030301Y-10433389D02*
X16068396Y-10433389D01*
X16068396Y-10433389D02*
X16087444Y-10423865D01*
X16087444Y-10423865D02*
X16096967Y-10404817D01*
X16096967Y-10404817D02*
X16096967Y-10395294D01*
X16096967Y-10395294D02*
X16087444Y-10376246D01*
X16087444Y-10376246D02*
X16068396Y-10366722D01*
X16068396Y-10366722D02*
X16039825Y-10366722D01*
X16039825Y-10366722D02*
X16020777Y-10357198D01*
X16020777Y-10357198D02*
X16011253Y-10338151D01*
X16011253Y-10338151D02*
X16011253Y-10328627D01*
X16011253Y-10328627D02*
X16020777Y-10309579D01*
X16020777Y-10309579D02*
X16039825Y-10300055D01*
X16039825Y-10300055D02*
X16068396Y-10300055D01*
X16068396Y-10300055D02*
X16087444Y-10309579D01*
X16163634Y-10509579D02*
X16173158Y-10500055D01*
X16173158Y-10500055D02*
X16192206Y-10471484D01*
X16192206Y-10471484D02*
X16201729Y-10452436D01*
X16201729Y-10452436D02*
X16211253Y-10423865D01*
X16211253Y-10423865D02*
X16220777Y-10376246D01*
X16220777Y-10376246D02*
X16220777Y-10338151D01*
X16220777Y-10338151D02*
X16211253Y-10290532D01*
X16211253Y-10290532D02*
X16201729Y-10261960D01*
X16201729Y-10261960D02*
X16192206Y-10242913D01*
X16192206Y-10242913D02*
X16173158Y-10214341D01*
X16173158Y-10214341D02*
X16163634Y-10204817D01*
D13*
X11198095Y-10605905D02*
G75*
G03*
X11198095Y-10605905I-50000J0D01*
G01*
D11*
X11563634Y-10697389D02*
X11449348Y-10697389D01*
X11506491Y-10697389D02*
X11506491Y-10497389D01*
X11506491Y-10497389D02*
X11487443Y-10525960D01*
X11487443Y-10525960D02*
X11468396Y-10545008D01*
X11468396Y-10545008D02*
X11449348Y-10554532D01*
X11649348Y-10678341D02*
X11658872Y-10687865D01*
X11658872Y-10687865D02*
X11649348Y-10697389D01*
X11649348Y-10697389D02*
X11639824Y-10687865D01*
X11639824Y-10687865D02*
X11649348Y-10678341D01*
X11649348Y-10678341D02*
X11649348Y-10697389D01*
X11782681Y-10497389D02*
X11801729Y-10497389D01*
X11801729Y-10497389D02*
X11820777Y-10506913D01*
X11820777Y-10506913D02*
X11830300Y-10516436D01*
X11830300Y-10516436D02*
X11839824Y-10535484D01*
X11839824Y-10535484D02*
X11849348Y-10573579D01*
X11849348Y-10573579D02*
X11849348Y-10621198D01*
X11849348Y-10621198D02*
X11839824Y-10659294D01*
X11839824Y-10659294D02*
X11830300Y-10678341D01*
X11830300Y-10678341D02*
X11820777Y-10687865D01*
X11820777Y-10687865D02*
X11801729Y-10697389D01*
X11801729Y-10697389D02*
X11782681Y-10697389D01*
X11782681Y-10697389D02*
X11763634Y-10687865D01*
X11763634Y-10687865D02*
X11754110Y-10678341D01*
X11754110Y-10678341D02*
X11744586Y-10659294D01*
X11744586Y-10659294D02*
X11735062Y-10621198D01*
X11735062Y-10621198D02*
X11735062Y-10573579D01*
X11735062Y-10573579D02*
X11744586Y-10535484D01*
X11744586Y-10535484D02*
X11754110Y-10516436D01*
X11754110Y-10516436D02*
X11763634Y-10506913D01*
X11763634Y-10506913D02*
X11782681Y-10497389D01*
X11973157Y-10497389D02*
X11992205Y-10497389D01*
X11992205Y-10497389D02*
X12011253Y-10506913D01*
X12011253Y-10506913D02*
X12020777Y-10516436D01*
X12020777Y-10516436D02*
X12030300Y-10535484D01*
X12030300Y-10535484D02*
X12039824Y-10573579D01*
X12039824Y-10573579D02*
X12039824Y-10621198D01*
X12039824Y-10621198D02*
X12030300Y-10659294D01*
X12030300Y-10659294D02*
X12020777Y-10678341D01*
X12020777Y-10678341D02*
X12011253Y-10687865D01*
X12011253Y-10687865D02*
X11992205Y-10697389D01*
X11992205Y-10697389D02*
X11973157Y-10697389D01*
X11973157Y-10697389D02*
X11954110Y-10687865D01*
X11954110Y-10687865D02*
X11944586Y-10678341D01*
X11944586Y-10678341D02*
X11935062Y-10659294D01*
X11935062Y-10659294D02*
X11925538Y-10621198D01*
X11925538Y-10621198D02*
X11925538Y-10573579D01*
X11925538Y-10573579D02*
X11935062Y-10535484D01*
X11935062Y-10535484D02*
X11944586Y-10516436D01*
X11944586Y-10516436D02*
X11954110Y-10506913D01*
X11954110Y-10506913D02*
X11973157Y-10497389D01*
X12163634Y-10497389D02*
X12182681Y-10497389D01*
X12182681Y-10497389D02*
X12201729Y-10506913D01*
X12201729Y-10506913D02*
X12211253Y-10516436D01*
X12211253Y-10516436D02*
X12220777Y-10535484D01*
X12220777Y-10535484D02*
X12230300Y-10573579D01*
X12230300Y-10573579D02*
X12230300Y-10621198D01*
X12230300Y-10621198D02*
X12220777Y-10659294D01*
X12220777Y-10659294D02*
X12211253Y-10678341D01*
X12211253Y-10678341D02*
X12201729Y-10687865D01*
X12201729Y-10687865D02*
X12182681Y-10697389D01*
X12182681Y-10697389D02*
X12163634Y-10697389D01*
X12163634Y-10697389D02*
X12144586Y-10687865D01*
X12144586Y-10687865D02*
X12135062Y-10678341D01*
X12135062Y-10678341D02*
X12125538Y-10659294D01*
X12125538Y-10659294D02*
X12116015Y-10621198D01*
X12116015Y-10621198D02*
X12116015Y-10573579D01*
X12116015Y-10573579D02*
X12125538Y-10535484D01*
X12125538Y-10535484D02*
X12135062Y-10516436D01*
X12135062Y-10516436D02*
X12144586Y-10506913D01*
X12144586Y-10506913D02*
X12163634Y-10497389D01*
X12316015Y-10697389D02*
X12316015Y-10564055D01*
X12316015Y-10583103D02*
X12325538Y-10573579D01*
X12325538Y-10573579D02*
X12344586Y-10564055D01*
X12344586Y-10564055D02*
X12373158Y-10564055D01*
X12373158Y-10564055D02*
X12392205Y-10573579D01*
X12392205Y-10573579D02*
X12401729Y-10592627D01*
X12401729Y-10592627D02*
X12401729Y-10697389D01*
X12401729Y-10592627D02*
X12411253Y-10573579D01*
X12411253Y-10573579D02*
X12430300Y-10564055D01*
X12430300Y-10564055D02*
X12458872Y-10564055D01*
X12458872Y-10564055D02*
X12477919Y-10573579D01*
X12477919Y-10573579D02*
X12487443Y-10592627D01*
X12487443Y-10592627D02*
X12487443Y-10697389D01*
X12582681Y-10697389D02*
X12582681Y-10564055D01*
X12582681Y-10583103D02*
X12592205Y-10573579D01*
X12592205Y-10573579D02*
X12611253Y-10564055D01*
X12611253Y-10564055D02*
X12639824Y-10564055D01*
X12639824Y-10564055D02*
X12658872Y-10573579D01*
X12658872Y-10573579D02*
X12668396Y-10592627D01*
X12668396Y-10592627D02*
X12668396Y-10697389D01*
X12668396Y-10592627D02*
X12677919Y-10573579D01*
X12677919Y-10573579D02*
X12696967Y-10564055D01*
X12696967Y-10564055D02*
X12725538Y-10564055D01*
X12725538Y-10564055D02*
X12744586Y-10573579D01*
X12744586Y-10573579D02*
X12754110Y-10592627D01*
X12754110Y-10592627D02*
X12754110Y-10697389D01*
X13144586Y-10487865D02*
X12973158Y-10745008D01*
X13401729Y-10497389D02*
X13420777Y-10497389D01*
X13420777Y-10497389D02*
X13439824Y-10506913D01*
X13439824Y-10506913D02*
X13449348Y-10516436D01*
X13449348Y-10516436D02*
X13458872Y-10535484D01*
X13458872Y-10535484D02*
X13468396Y-10573579D01*
X13468396Y-10573579D02*
X13468396Y-10621198D01*
X13468396Y-10621198D02*
X13458872Y-10659294D01*
X13458872Y-10659294D02*
X13449348Y-10678341D01*
X13449348Y-10678341D02*
X13439824Y-10687865D01*
X13439824Y-10687865D02*
X13420777Y-10697389D01*
X13420777Y-10697389D02*
X13401729Y-10697389D01*
X13401729Y-10697389D02*
X13382681Y-10687865D01*
X13382681Y-10687865D02*
X13373158Y-10678341D01*
X13373158Y-10678341D02*
X13363634Y-10659294D01*
X13363634Y-10659294D02*
X13354110Y-10621198D01*
X13354110Y-10621198D02*
X13354110Y-10573579D01*
X13354110Y-10573579D02*
X13363634Y-10535484D01*
X13363634Y-10535484D02*
X13373158Y-10516436D01*
X13373158Y-10516436D02*
X13382681Y-10506913D01*
X13382681Y-10506913D02*
X13401729Y-10497389D01*
X13554110Y-10678341D02*
X13563634Y-10687865D01*
X13563634Y-10687865D02*
X13554110Y-10697389D01*
X13554110Y-10697389D02*
X13544586Y-10687865D01*
X13544586Y-10687865D02*
X13554110Y-10678341D01*
X13554110Y-10678341D02*
X13554110Y-10697389D01*
X13687443Y-10497389D02*
X13706491Y-10497389D01*
X13706491Y-10497389D02*
X13725539Y-10506913D01*
X13725539Y-10506913D02*
X13735062Y-10516436D01*
X13735062Y-10516436D02*
X13744586Y-10535484D01*
X13744586Y-10535484D02*
X13754110Y-10573579D01*
X13754110Y-10573579D02*
X13754110Y-10621198D01*
X13754110Y-10621198D02*
X13744586Y-10659294D01*
X13744586Y-10659294D02*
X13735062Y-10678341D01*
X13735062Y-10678341D02*
X13725539Y-10687865D01*
X13725539Y-10687865D02*
X13706491Y-10697389D01*
X13706491Y-10697389D02*
X13687443Y-10697389D01*
X13687443Y-10697389D02*
X13668396Y-10687865D01*
X13668396Y-10687865D02*
X13658872Y-10678341D01*
X13658872Y-10678341D02*
X13649348Y-10659294D01*
X13649348Y-10659294D02*
X13639824Y-10621198D01*
X13639824Y-10621198D02*
X13639824Y-10573579D01*
X13639824Y-10573579D02*
X13649348Y-10535484D01*
X13649348Y-10535484D02*
X13658872Y-10516436D01*
X13658872Y-10516436D02*
X13668396Y-10506913D01*
X13668396Y-10506913D02*
X13687443Y-10497389D01*
X13820777Y-10497389D02*
X13944586Y-10497389D01*
X13944586Y-10497389D02*
X13877920Y-10573579D01*
X13877920Y-10573579D02*
X13906491Y-10573579D01*
X13906491Y-10573579D02*
X13925539Y-10583103D01*
X13925539Y-10583103D02*
X13935062Y-10592627D01*
X13935062Y-10592627D02*
X13944586Y-10611675D01*
X13944586Y-10611675D02*
X13944586Y-10659294D01*
X13944586Y-10659294D02*
X13935062Y-10678341D01*
X13935062Y-10678341D02*
X13925539Y-10687865D01*
X13925539Y-10687865D02*
X13906491Y-10697389D01*
X13906491Y-10697389D02*
X13849348Y-10697389D01*
X13849348Y-10697389D02*
X13830301Y-10687865D01*
X13830301Y-10687865D02*
X13820777Y-10678341D01*
X14039824Y-10697389D02*
X14077920Y-10697389D01*
X14077920Y-10697389D02*
X14096967Y-10687865D01*
X14096967Y-10687865D02*
X14106491Y-10678341D01*
X14106491Y-10678341D02*
X14125539Y-10649770D01*
X14125539Y-10649770D02*
X14135062Y-10611675D01*
X14135062Y-10611675D02*
X14135062Y-10535484D01*
X14135062Y-10535484D02*
X14125539Y-10516436D01*
X14125539Y-10516436D02*
X14116015Y-10506913D01*
X14116015Y-10506913D02*
X14096967Y-10497389D01*
X14096967Y-10497389D02*
X14058872Y-10497389D01*
X14058872Y-10497389D02*
X14039824Y-10506913D01*
X14039824Y-10506913D02*
X14030301Y-10516436D01*
X14030301Y-10516436D02*
X14020777Y-10535484D01*
X14020777Y-10535484D02*
X14020777Y-10583103D01*
X14020777Y-10583103D02*
X14030301Y-10602151D01*
X14030301Y-10602151D02*
X14039824Y-10611675D01*
X14039824Y-10611675D02*
X14058872Y-10621198D01*
X14058872Y-10621198D02*
X14096967Y-10621198D01*
X14096967Y-10621198D02*
X14116015Y-10611675D01*
X14116015Y-10611675D02*
X14125539Y-10602151D01*
X14125539Y-10602151D02*
X14135062Y-10583103D01*
X14306491Y-10564055D02*
X14306491Y-10697389D01*
X14258872Y-10487865D02*
X14211253Y-10630722D01*
X14211253Y-10630722D02*
X14335062Y-10630722D01*
X14401729Y-10497389D02*
X14401729Y-10535484D01*
X14477920Y-10497389D02*
X14477920Y-10535484D01*
X14773158Y-10773579D02*
X14763634Y-10764055D01*
X14763634Y-10764055D02*
X14744586Y-10735484D01*
X14744586Y-10735484D02*
X14735063Y-10716436D01*
X14735063Y-10716436D02*
X14725539Y-10687865D01*
X14725539Y-10687865D02*
X14716015Y-10640246D01*
X14716015Y-10640246D02*
X14716015Y-10602151D01*
X14716015Y-10602151D02*
X14725539Y-10554532D01*
X14725539Y-10554532D02*
X14735063Y-10525960D01*
X14735063Y-10525960D02*
X14744586Y-10506913D01*
X14744586Y-10506913D02*
X14763634Y-10478341D01*
X14763634Y-10478341D02*
X14773158Y-10468817D01*
X14877920Y-10583103D02*
X14858872Y-10573579D01*
X14858872Y-10573579D02*
X14849348Y-10564055D01*
X14849348Y-10564055D02*
X14839824Y-10545008D01*
X14839824Y-10545008D02*
X14839824Y-10535484D01*
X14839824Y-10535484D02*
X14849348Y-10516436D01*
X14849348Y-10516436D02*
X14858872Y-10506913D01*
X14858872Y-10506913D02*
X14877920Y-10497389D01*
X14877920Y-10497389D02*
X14916015Y-10497389D01*
X14916015Y-10497389D02*
X14935063Y-10506913D01*
X14935063Y-10506913D02*
X14944586Y-10516436D01*
X14944586Y-10516436D02*
X14954110Y-10535484D01*
X14954110Y-10535484D02*
X14954110Y-10545008D01*
X14954110Y-10545008D02*
X14944586Y-10564055D01*
X14944586Y-10564055D02*
X14935063Y-10573579D01*
X14935063Y-10573579D02*
X14916015Y-10583103D01*
X14916015Y-10583103D02*
X14877920Y-10583103D01*
X14877920Y-10583103D02*
X14858872Y-10592627D01*
X14858872Y-10592627D02*
X14849348Y-10602151D01*
X14849348Y-10602151D02*
X14839824Y-10621198D01*
X14839824Y-10621198D02*
X14839824Y-10659294D01*
X14839824Y-10659294D02*
X14849348Y-10678341D01*
X14849348Y-10678341D02*
X14858872Y-10687865D01*
X14858872Y-10687865D02*
X14877920Y-10697389D01*
X14877920Y-10697389D02*
X14916015Y-10697389D01*
X14916015Y-10697389D02*
X14935063Y-10687865D01*
X14935063Y-10687865D02*
X14944586Y-10678341D01*
X14944586Y-10678341D02*
X14954110Y-10659294D01*
X14954110Y-10659294D02*
X14954110Y-10621198D01*
X14954110Y-10621198D02*
X14944586Y-10602151D01*
X14944586Y-10602151D02*
X14935063Y-10592627D01*
X14935063Y-10592627D02*
X14916015Y-10583103D01*
X15192205Y-10697389D02*
X15192205Y-10497389D01*
X15277920Y-10697389D02*
X15277920Y-10592627D01*
X15277920Y-10592627D02*
X15268396Y-10573579D01*
X15268396Y-10573579D02*
X15249348Y-10564055D01*
X15249348Y-10564055D02*
X15220777Y-10564055D01*
X15220777Y-10564055D02*
X15201729Y-10573579D01*
X15201729Y-10573579D02*
X15192205Y-10583103D01*
X15401729Y-10697389D02*
X15382682Y-10687865D01*
X15382682Y-10687865D02*
X15373158Y-10678341D01*
X15373158Y-10678341D02*
X15363634Y-10659294D01*
X15363634Y-10659294D02*
X15363634Y-10602151D01*
X15363634Y-10602151D02*
X15373158Y-10583103D01*
X15373158Y-10583103D02*
X15382682Y-10573579D01*
X15382682Y-10573579D02*
X15401729Y-10564055D01*
X15401729Y-10564055D02*
X15430301Y-10564055D01*
X15430301Y-10564055D02*
X15449348Y-10573579D01*
X15449348Y-10573579D02*
X15458872Y-10583103D01*
X15458872Y-10583103D02*
X15468396Y-10602151D01*
X15468396Y-10602151D02*
X15468396Y-10659294D01*
X15468396Y-10659294D02*
X15458872Y-10678341D01*
X15458872Y-10678341D02*
X15449348Y-10687865D01*
X15449348Y-10687865D02*
X15430301Y-10697389D01*
X15430301Y-10697389D02*
X15401729Y-10697389D01*
X15582682Y-10697389D02*
X15563634Y-10687865D01*
X15563634Y-10687865D02*
X15554110Y-10668817D01*
X15554110Y-10668817D02*
X15554110Y-10497389D01*
X15735063Y-10687865D02*
X15716015Y-10697389D01*
X15716015Y-10697389D02*
X15677920Y-10697389D01*
X15677920Y-10697389D02*
X15658872Y-10687865D01*
X15658872Y-10687865D02*
X15649348Y-10668817D01*
X15649348Y-10668817D02*
X15649348Y-10592627D01*
X15649348Y-10592627D02*
X15658872Y-10573579D01*
X15658872Y-10573579D02*
X15677920Y-10564055D01*
X15677920Y-10564055D02*
X15716015Y-10564055D01*
X15716015Y-10564055D02*
X15735063Y-10573579D01*
X15735063Y-10573579D02*
X15744586Y-10592627D01*
X15744586Y-10592627D02*
X15744586Y-10611675D01*
X15744586Y-10611675D02*
X15649348Y-10630722D01*
X15820777Y-10687865D02*
X15839825Y-10697389D01*
X15839825Y-10697389D02*
X15877920Y-10697389D01*
X15877920Y-10697389D02*
X15896967Y-10687865D01*
X15896967Y-10687865D02*
X15906491Y-10668817D01*
X15906491Y-10668817D02*
X15906491Y-10659294D01*
X15906491Y-10659294D02*
X15896967Y-10640246D01*
X15896967Y-10640246D02*
X15877920Y-10630722D01*
X15877920Y-10630722D02*
X15849348Y-10630722D01*
X15849348Y-10630722D02*
X15830301Y-10621198D01*
X15830301Y-10621198D02*
X15820777Y-10602151D01*
X15820777Y-10602151D02*
X15820777Y-10592627D01*
X15820777Y-10592627D02*
X15830301Y-10573579D01*
X15830301Y-10573579D02*
X15849348Y-10564055D01*
X15849348Y-10564055D02*
X15877920Y-10564055D01*
X15877920Y-10564055D02*
X15896967Y-10573579D01*
X15973158Y-10773579D02*
X15982682Y-10764055D01*
X15982682Y-10764055D02*
X16001729Y-10735484D01*
X16001729Y-10735484D02*
X16011253Y-10716436D01*
X16011253Y-10716436D02*
X16020777Y-10687865D01*
X16020777Y-10687865D02*
X16030301Y-10640246D01*
X16030301Y-10640246D02*
X16030301Y-10602151D01*
X16030301Y-10602151D02*
X16020777Y-10554532D01*
X16020777Y-10554532D02*
X16011253Y-10525960D01*
X16011253Y-10525960D02*
X16001729Y-10506913D01*
X16001729Y-10506913D02*
X15982682Y-10478341D01*
X15982682Y-10478341D02*
X15973158Y-10468817D01*
D14*
X11138095Y-10809905D02*
X11138095Y-10929905D01*
X11078095Y-10869905D02*
X11198095Y-10869905D01*
D11*
X11563634Y-10961389D02*
X11449348Y-10961389D01*
X11506491Y-10961389D02*
X11506491Y-10761389D01*
X11506491Y-10761389D02*
X11487443Y-10789960D01*
X11487443Y-10789960D02*
X11468396Y-10809008D01*
X11468396Y-10809008D02*
X11449348Y-10818532D01*
X11649348Y-10942341D02*
X11658872Y-10951865D01*
X11658872Y-10951865D02*
X11649348Y-10961389D01*
X11649348Y-10961389D02*
X11639824Y-10951865D01*
X11639824Y-10951865D02*
X11649348Y-10942341D01*
X11649348Y-10942341D02*
X11649348Y-10961389D01*
X11735062Y-10780436D02*
X11744586Y-10770913D01*
X11744586Y-10770913D02*
X11763634Y-10761389D01*
X11763634Y-10761389D02*
X11811253Y-10761389D01*
X11811253Y-10761389D02*
X11830300Y-10770913D01*
X11830300Y-10770913D02*
X11839824Y-10780436D01*
X11839824Y-10780436D02*
X11849348Y-10799484D01*
X11849348Y-10799484D02*
X11849348Y-10818532D01*
X11849348Y-10818532D02*
X11839824Y-10847103D01*
X11839824Y-10847103D02*
X11725538Y-10961389D01*
X11725538Y-10961389D02*
X11849348Y-10961389D01*
X11973157Y-10761389D02*
X11992205Y-10761389D01*
X11992205Y-10761389D02*
X12011253Y-10770913D01*
X12011253Y-10770913D02*
X12020777Y-10780436D01*
X12020777Y-10780436D02*
X12030300Y-10799484D01*
X12030300Y-10799484D02*
X12039824Y-10837579D01*
X12039824Y-10837579D02*
X12039824Y-10885198D01*
X12039824Y-10885198D02*
X12030300Y-10923294D01*
X12030300Y-10923294D02*
X12020777Y-10942341D01*
X12020777Y-10942341D02*
X12011253Y-10951865D01*
X12011253Y-10951865D02*
X11992205Y-10961389D01*
X11992205Y-10961389D02*
X11973157Y-10961389D01*
X11973157Y-10961389D02*
X11954110Y-10951865D01*
X11954110Y-10951865D02*
X11944586Y-10942341D01*
X11944586Y-10942341D02*
X11935062Y-10923294D01*
X11935062Y-10923294D02*
X11925538Y-10885198D01*
X11925538Y-10885198D02*
X11925538Y-10837579D01*
X11925538Y-10837579D02*
X11935062Y-10799484D01*
X11935062Y-10799484D02*
X11944586Y-10780436D01*
X11944586Y-10780436D02*
X11954110Y-10770913D01*
X11954110Y-10770913D02*
X11973157Y-10761389D01*
X12163634Y-10761389D02*
X12182681Y-10761389D01*
X12182681Y-10761389D02*
X12201729Y-10770913D01*
X12201729Y-10770913D02*
X12211253Y-10780436D01*
X12211253Y-10780436D02*
X12220777Y-10799484D01*
X12220777Y-10799484D02*
X12230300Y-10837579D01*
X12230300Y-10837579D02*
X12230300Y-10885198D01*
X12230300Y-10885198D02*
X12220777Y-10923294D01*
X12220777Y-10923294D02*
X12211253Y-10942341D01*
X12211253Y-10942341D02*
X12201729Y-10951865D01*
X12201729Y-10951865D02*
X12182681Y-10961389D01*
X12182681Y-10961389D02*
X12163634Y-10961389D01*
X12163634Y-10961389D02*
X12144586Y-10951865D01*
X12144586Y-10951865D02*
X12135062Y-10942341D01*
X12135062Y-10942341D02*
X12125538Y-10923294D01*
X12125538Y-10923294D02*
X12116015Y-10885198D01*
X12116015Y-10885198D02*
X12116015Y-10837579D01*
X12116015Y-10837579D02*
X12125538Y-10799484D01*
X12125538Y-10799484D02*
X12135062Y-10780436D01*
X12135062Y-10780436D02*
X12144586Y-10770913D01*
X12144586Y-10770913D02*
X12163634Y-10761389D01*
X12316015Y-10961389D02*
X12316015Y-10828055D01*
X12316015Y-10847103D02*
X12325538Y-10837579D01*
X12325538Y-10837579D02*
X12344586Y-10828055D01*
X12344586Y-10828055D02*
X12373158Y-10828055D01*
X12373158Y-10828055D02*
X12392205Y-10837579D01*
X12392205Y-10837579D02*
X12401729Y-10856627D01*
X12401729Y-10856627D02*
X12401729Y-10961389D01*
X12401729Y-10856627D02*
X12411253Y-10837579D01*
X12411253Y-10837579D02*
X12430300Y-10828055D01*
X12430300Y-10828055D02*
X12458872Y-10828055D01*
X12458872Y-10828055D02*
X12477919Y-10837579D01*
X12477919Y-10837579D02*
X12487443Y-10856627D01*
X12487443Y-10856627D02*
X12487443Y-10961389D01*
X12582681Y-10961389D02*
X12582681Y-10828055D01*
X12582681Y-10847103D02*
X12592205Y-10837579D01*
X12592205Y-10837579D02*
X12611253Y-10828055D01*
X12611253Y-10828055D02*
X12639824Y-10828055D01*
X12639824Y-10828055D02*
X12658872Y-10837579D01*
X12658872Y-10837579D02*
X12668396Y-10856627D01*
X12668396Y-10856627D02*
X12668396Y-10961389D01*
X12668396Y-10856627D02*
X12677919Y-10837579D01*
X12677919Y-10837579D02*
X12696967Y-10828055D01*
X12696967Y-10828055D02*
X12725538Y-10828055D01*
X12725538Y-10828055D02*
X12744586Y-10837579D01*
X12744586Y-10837579D02*
X12754110Y-10856627D01*
X12754110Y-10856627D02*
X12754110Y-10961389D01*
X13144586Y-10751865D02*
X12973158Y-11009008D01*
X13401729Y-10761389D02*
X13420777Y-10761389D01*
X13420777Y-10761389D02*
X13439824Y-10770913D01*
X13439824Y-10770913D02*
X13449348Y-10780436D01*
X13449348Y-10780436D02*
X13458872Y-10799484D01*
X13458872Y-10799484D02*
X13468396Y-10837579D01*
X13468396Y-10837579D02*
X13468396Y-10885198D01*
X13468396Y-10885198D02*
X13458872Y-10923294D01*
X13458872Y-10923294D02*
X13449348Y-10942341D01*
X13449348Y-10942341D02*
X13439824Y-10951865D01*
X13439824Y-10951865D02*
X13420777Y-10961389D01*
X13420777Y-10961389D02*
X13401729Y-10961389D01*
X13401729Y-10961389D02*
X13382681Y-10951865D01*
X13382681Y-10951865D02*
X13373158Y-10942341D01*
X13373158Y-10942341D02*
X13363634Y-10923294D01*
X13363634Y-10923294D02*
X13354110Y-10885198D01*
X13354110Y-10885198D02*
X13354110Y-10837579D01*
X13354110Y-10837579D02*
X13363634Y-10799484D01*
X13363634Y-10799484D02*
X13373158Y-10780436D01*
X13373158Y-10780436D02*
X13382681Y-10770913D01*
X13382681Y-10770913D02*
X13401729Y-10761389D01*
X13554110Y-10942341D02*
X13563634Y-10951865D01*
X13563634Y-10951865D02*
X13554110Y-10961389D01*
X13554110Y-10961389D02*
X13544586Y-10951865D01*
X13544586Y-10951865D02*
X13554110Y-10942341D01*
X13554110Y-10942341D02*
X13554110Y-10961389D01*
X13687443Y-10761389D02*
X13706491Y-10761389D01*
X13706491Y-10761389D02*
X13725539Y-10770913D01*
X13725539Y-10770913D02*
X13735062Y-10780436D01*
X13735062Y-10780436D02*
X13744586Y-10799484D01*
X13744586Y-10799484D02*
X13754110Y-10837579D01*
X13754110Y-10837579D02*
X13754110Y-10885198D01*
X13754110Y-10885198D02*
X13744586Y-10923294D01*
X13744586Y-10923294D02*
X13735062Y-10942341D01*
X13735062Y-10942341D02*
X13725539Y-10951865D01*
X13725539Y-10951865D02*
X13706491Y-10961389D01*
X13706491Y-10961389D02*
X13687443Y-10961389D01*
X13687443Y-10961389D02*
X13668396Y-10951865D01*
X13668396Y-10951865D02*
X13658872Y-10942341D01*
X13658872Y-10942341D02*
X13649348Y-10923294D01*
X13649348Y-10923294D02*
X13639824Y-10885198D01*
X13639824Y-10885198D02*
X13639824Y-10837579D01*
X13639824Y-10837579D02*
X13649348Y-10799484D01*
X13649348Y-10799484D02*
X13658872Y-10780436D01*
X13658872Y-10780436D02*
X13668396Y-10770913D01*
X13668396Y-10770913D02*
X13687443Y-10761389D01*
X13925539Y-10828055D02*
X13925539Y-10961389D01*
X13877920Y-10751865D02*
X13830301Y-10894722D01*
X13830301Y-10894722D02*
X13954110Y-10894722D01*
X14011253Y-10761389D02*
X14144586Y-10761389D01*
X14144586Y-10761389D02*
X14058872Y-10961389D01*
X14211253Y-10780436D02*
X14220777Y-10770913D01*
X14220777Y-10770913D02*
X14239824Y-10761389D01*
X14239824Y-10761389D02*
X14287443Y-10761389D01*
X14287443Y-10761389D02*
X14306491Y-10770913D01*
X14306491Y-10770913D02*
X14316015Y-10780436D01*
X14316015Y-10780436D02*
X14325539Y-10799484D01*
X14325539Y-10799484D02*
X14325539Y-10818532D01*
X14325539Y-10818532D02*
X14316015Y-10847103D01*
X14316015Y-10847103D02*
X14201729Y-10961389D01*
X14201729Y-10961389D02*
X14325539Y-10961389D01*
X14401729Y-10761389D02*
X14401729Y-10799484D01*
X14477920Y-10761389D02*
X14477920Y-10799484D01*
X14773158Y-11037579D02*
X14763634Y-11028055D01*
X14763634Y-11028055D02*
X14744586Y-10999484D01*
X14744586Y-10999484D02*
X14735063Y-10980436D01*
X14735063Y-10980436D02*
X14725539Y-10951865D01*
X14725539Y-10951865D02*
X14716015Y-10904246D01*
X14716015Y-10904246D02*
X14716015Y-10866151D01*
X14716015Y-10866151D02*
X14725539Y-10818532D01*
X14725539Y-10818532D02*
X14735063Y-10789960D01*
X14735063Y-10789960D02*
X14744586Y-10770913D01*
X14744586Y-10770913D02*
X14763634Y-10742341D01*
X14763634Y-10742341D02*
X14773158Y-10732817D01*
X14839824Y-10780436D02*
X14849348Y-10770913D01*
X14849348Y-10770913D02*
X14868396Y-10761389D01*
X14868396Y-10761389D02*
X14916015Y-10761389D01*
X14916015Y-10761389D02*
X14935063Y-10770913D01*
X14935063Y-10770913D02*
X14944586Y-10780436D01*
X14944586Y-10780436D02*
X14954110Y-10799484D01*
X14954110Y-10799484D02*
X14954110Y-10818532D01*
X14954110Y-10818532D02*
X14944586Y-10847103D01*
X14944586Y-10847103D02*
X14830301Y-10961389D01*
X14830301Y-10961389D02*
X14954110Y-10961389D01*
X15192205Y-10961389D02*
X15192205Y-10761389D01*
X15277920Y-10961389D02*
X15277920Y-10856627D01*
X15277920Y-10856627D02*
X15268396Y-10837579D01*
X15268396Y-10837579D02*
X15249348Y-10828055D01*
X15249348Y-10828055D02*
X15220777Y-10828055D01*
X15220777Y-10828055D02*
X15201729Y-10837579D01*
X15201729Y-10837579D02*
X15192205Y-10847103D01*
X15401729Y-10961389D02*
X15382682Y-10951865D01*
X15382682Y-10951865D02*
X15373158Y-10942341D01*
X15373158Y-10942341D02*
X15363634Y-10923294D01*
X15363634Y-10923294D02*
X15363634Y-10866151D01*
X15363634Y-10866151D02*
X15373158Y-10847103D01*
X15373158Y-10847103D02*
X15382682Y-10837579D01*
X15382682Y-10837579D02*
X15401729Y-10828055D01*
X15401729Y-10828055D02*
X15430301Y-10828055D01*
X15430301Y-10828055D02*
X15449348Y-10837579D01*
X15449348Y-10837579D02*
X15458872Y-10847103D01*
X15458872Y-10847103D02*
X15468396Y-10866151D01*
X15468396Y-10866151D02*
X15468396Y-10923294D01*
X15468396Y-10923294D02*
X15458872Y-10942341D01*
X15458872Y-10942341D02*
X15449348Y-10951865D01*
X15449348Y-10951865D02*
X15430301Y-10961389D01*
X15430301Y-10961389D02*
X15401729Y-10961389D01*
X15582682Y-10961389D02*
X15563634Y-10951865D01*
X15563634Y-10951865D02*
X15554110Y-10932817D01*
X15554110Y-10932817D02*
X15554110Y-10761389D01*
X15735063Y-10951865D02*
X15716015Y-10961389D01*
X15716015Y-10961389D02*
X15677920Y-10961389D01*
X15677920Y-10961389D02*
X15658872Y-10951865D01*
X15658872Y-10951865D02*
X15649348Y-10932817D01*
X15649348Y-10932817D02*
X15649348Y-10856627D01*
X15649348Y-10856627D02*
X15658872Y-10837579D01*
X15658872Y-10837579D02*
X15677920Y-10828055D01*
X15677920Y-10828055D02*
X15716015Y-10828055D01*
X15716015Y-10828055D02*
X15735063Y-10837579D01*
X15735063Y-10837579D02*
X15744586Y-10856627D01*
X15744586Y-10856627D02*
X15744586Y-10875675D01*
X15744586Y-10875675D02*
X15649348Y-10894722D01*
X15820777Y-10951865D02*
X15839825Y-10961389D01*
X15839825Y-10961389D02*
X15877920Y-10961389D01*
X15877920Y-10961389D02*
X15896967Y-10951865D01*
X15896967Y-10951865D02*
X15906491Y-10932817D01*
X15906491Y-10932817D02*
X15906491Y-10923294D01*
X15906491Y-10923294D02*
X15896967Y-10904246D01*
X15896967Y-10904246D02*
X15877920Y-10894722D01*
X15877920Y-10894722D02*
X15849348Y-10894722D01*
X15849348Y-10894722D02*
X15830301Y-10885198D01*
X15830301Y-10885198D02*
X15820777Y-10866151D01*
X15820777Y-10866151D02*
X15820777Y-10856627D01*
X15820777Y-10856627D02*
X15830301Y-10837579D01*
X15830301Y-10837579D02*
X15849348Y-10828055D01*
X15849348Y-10828055D02*
X15877920Y-10828055D01*
X15877920Y-10828055D02*
X15896967Y-10837579D01*
X15973158Y-11037579D02*
X15982682Y-11028055D01*
X15982682Y-11028055D02*
X16001729Y-10999484D01*
X16001729Y-10999484D02*
X16011253Y-10980436D01*
X16011253Y-10980436D02*
X16020777Y-10951865D01*
X16020777Y-10951865D02*
X16030301Y-10904246D01*
X16030301Y-10904246D02*
X16030301Y-10866151D01*
X16030301Y-10866151D02*
X16020777Y-10818532D01*
X16020777Y-10818532D02*
X16011253Y-10789960D01*
X16011253Y-10789960D02*
X16001729Y-10770913D01*
X16001729Y-10770913D02*
X15982682Y-10742341D01*
X15982682Y-10742341D02*
X15973158Y-10732817D01*
M02*
