%TF.GenerationSoftware,KiCad,Pcbnew,7.0.5*%
%TF.CreationDate,2023-07-22T13:56:16+02:00*%
%TF.ProjectId,eink-NFC,65696e6b-2d4e-4464-932e-6b696361645f,rev?*%
%TF.SameCoordinates,Original*%
%TF.FileFunction,Soldermask,Bot*%
%TF.FilePolarity,Negative*%
%FSLAX46Y46*%
G04 Gerber Fmt 4.6, Leading zero omitted, Abs format (unit mm)*
G04 Created by KiCad (PCBNEW 7.0.5) date 2023-07-22 13:56:16*
%MOMM*%
%LPD*%
G01*
G04 APERTURE LIST*
G04 APERTURE END LIST*
G36*
X115178613Y-93084930D02*
G01*
X115225576Y-93084930D01*
X115266122Y-93093548D01*
X115307026Y-93097577D01*
X115358416Y-93113166D01*
X115409615Y-93124049D01*
X115442379Y-93138636D01*
X115475804Y-93148776D01*
X115528920Y-93177166D01*
X115581500Y-93200577D01*
X115605945Y-93218337D01*
X115631349Y-93231916D01*
X115683169Y-93274444D01*
X115733718Y-93311170D01*
X115750131Y-93329398D01*
X115767690Y-93343809D01*
X115814879Y-93401308D01*
X115859615Y-93450993D01*
X115869012Y-93467269D01*
X115879583Y-93480150D01*
X115918683Y-93553302D01*
X115953691Y-93613937D01*
X115957718Y-93626331D01*
X115962723Y-93635695D01*
X115990321Y-93726672D01*
X116011833Y-93792879D01*
X116012590Y-93800082D01*
X116013922Y-93804473D01*
X116026877Y-93936021D01*
X116031500Y-93980000D01*
X116026877Y-94023982D01*
X116013922Y-94155526D01*
X116012590Y-94159916D01*
X116011833Y-94167121D01*
X115990316Y-94233341D01*
X115962723Y-94324304D01*
X115957719Y-94333665D01*
X115953691Y-94346063D01*
X115918676Y-94406709D01*
X115879583Y-94479849D01*
X115869014Y-94492726D01*
X115859615Y-94509007D01*
X115814869Y-94558701D01*
X115767690Y-94616190D01*
X115750134Y-94630597D01*
X115733718Y-94648830D01*
X115683159Y-94685563D01*
X115631349Y-94728083D01*
X115605950Y-94741658D01*
X115581500Y-94759423D01*
X115528908Y-94782838D01*
X115475804Y-94811223D01*
X115442386Y-94821360D01*
X115409615Y-94835951D01*
X115358405Y-94846836D01*
X115307026Y-94862422D01*
X115266131Y-94866449D01*
X115225576Y-94875070D01*
X115178602Y-94875070D01*
X115131499Y-94879709D01*
X115084396Y-94875070D01*
X115037424Y-94875070D01*
X114996869Y-94866449D01*
X114955973Y-94862422D01*
X114904591Y-94846835D01*
X114853385Y-94835951D01*
X114820615Y-94821361D01*
X114787195Y-94811223D01*
X114734085Y-94782835D01*
X114681500Y-94759423D01*
X114657052Y-94741660D01*
X114631650Y-94728083D01*
X114579832Y-94685556D01*
X114529282Y-94648830D01*
X114512868Y-94630600D01*
X114495309Y-94616190D01*
X114448118Y-94558688D01*
X114403385Y-94509007D01*
X114393987Y-94492730D01*
X114383416Y-94479849D01*
X114344310Y-94406686D01*
X114309309Y-94346063D01*
X114305282Y-94333670D01*
X114300276Y-94324304D01*
X114272668Y-94233294D01*
X114251167Y-94167121D01*
X114250410Y-94159921D01*
X114249077Y-94155526D01*
X114236106Y-94023831D01*
X114231500Y-93980000D01*
X114236106Y-93936172D01*
X114249077Y-93804473D01*
X114250410Y-93800077D01*
X114251167Y-93792879D01*
X114272663Y-93726719D01*
X114300276Y-93635695D01*
X114305283Y-93626327D01*
X114309309Y-93613937D01*
X114344302Y-93553326D01*
X114383416Y-93480150D01*
X114393989Y-93467265D01*
X114403385Y-93450993D01*
X114448109Y-93401321D01*
X114495309Y-93343809D01*
X114512871Y-93329395D01*
X114529282Y-93311170D01*
X114579821Y-93274450D01*
X114631650Y-93231916D01*
X114657057Y-93218335D01*
X114681500Y-93200577D01*
X114734073Y-93177169D01*
X114787195Y-93148776D01*
X114820622Y-93138635D01*
X114853385Y-93124049D01*
X114904580Y-93113166D01*
X114955973Y-93097577D01*
X114996877Y-93093548D01*
X115037424Y-93084930D01*
X115084387Y-93084930D01*
X115131500Y-93080290D01*
X115178613Y-93084930D01*
G37*
G36*
X121578613Y-93084930D02*
G01*
X121625576Y-93084930D01*
X121666122Y-93093548D01*
X121707026Y-93097577D01*
X121758416Y-93113166D01*
X121809615Y-93124049D01*
X121842379Y-93138636D01*
X121875804Y-93148776D01*
X121928920Y-93177166D01*
X121981500Y-93200577D01*
X122005945Y-93218337D01*
X122031349Y-93231916D01*
X122083169Y-93274444D01*
X122133718Y-93311170D01*
X122150131Y-93329398D01*
X122167690Y-93343809D01*
X122214879Y-93401308D01*
X122259615Y-93450993D01*
X122269012Y-93467269D01*
X122279583Y-93480150D01*
X122318683Y-93553302D01*
X122353691Y-93613937D01*
X122357718Y-93626331D01*
X122362723Y-93635695D01*
X122390321Y-93726672D01*
X122411833Y-93792879D01*
X122412590Y-93800082D01*
X122413922Y-93804473D01*
X122426877Y-93936021D01*
X122431500Y-93980000D01*
X122426877Y-94023982D01*
X122413922Y-94155526D01*
X122412590Y-94159916D01*
X122411833Y-94167121D01*
X122390316Y-94233341D01*
X122362723Y-94324304D01*
X122357719Y-94333665D01*
X122353691Y-94346063D01*
X122318676Y-94406709D01*
X122279583Y-94479849D01*
X122269014Y-94492726D01*
X122259615Y-94509007D01*
X122214869Y-94558701D01*
X122167690Y-94616190D01*
X122150134Y-94630597D01*
X122133718Y-94648830D01*
X122083159Y-94685563D01*
X122031349Y-94728083D01*
X122005950Y-94741658D01*
X121981500Y-94759423D01*
X121928908Y-94782838D01*
X121875804Y-94811223D01*
X121842386Y-94821360D01*
X121809615Y-94835951D01*
X121758405Y-94846836D01*
X121707026Y-94862422D01*
X121666131Y-94866449D01*
X121625576Y-94875070D01*
X121578602Y-94875070D01*
X121531499Y-94879709D01*
X121484396Y-94875070D01*
X121437424Y-94875070D01*
X121396869Y-94866449D01*
X121355973Y-94862422D01*
X121304591Y-94846835D01*
X121253385Y-94835951D01*
X121220615Y-94821361D01*
X121187195Y-94811223D01*
X121134085Y-94782835D01*
X121081500Y-94759423D01*
X121057052Y-94741660D01*
X121031650Y-94728083D01*
X120979832Y-94685556D01*
X120929282Y-94648830D01*
X120912868Y-94630600D01*
X120895309Y-94616190D01*
X120848118Y-94558688D01*
X120803385Y-94509007D01*
X120793987Y-94492730D01*
X120783416Y-94479849D01*
X120744310Y-94406686D01*
X120709309Y-94346063D01*
X120705282Y-94333670D01*
X120700276Y-94324304D01*
X120672668Y-94233294D01*
X120651167Y-94167121D01*
X120650410Y-94159921D01*
X120649077Y-94155526D01*
X120636106Y-94023831D01*
X120631500Y-93980000D01*
X120636106Y-93936172D01*
X120649077Y-93804473D01*
X120650410Y-93800077D01*
X120651167Y-93792879D01*
X120672663Y-93726719D01*
X120700276Y-93635695D01*
X120705283Y-93626327D01*
X120709309Y-93613937D01*
X120744302Y-93553326D01*
X120783416Y-93480150D01*
X120793989Y-93467265D01*
X120803385Y-93450993D01*
X120848109Y-93401321D01*
X120895309Y-93343809D01*
X120912871Y-93329395D01*
X120929282Y-93311170D01*
X120979821Y-93274450D01*
X121031650Y-93231916D01*
X121057057Y-93218335D01*
X121081500Y-93200577D01*
X121134073Y-93177169D01*
X121187195Y-93148776D01*
X121220622Y-93138635D01*
X121253385Y-93124049D01*
X121304580Y-93113166D01*
X121355973Y-93097577D01*
X121396877Y-93093548D01*
X121437424Y-93084930D01*
X121484387Y-93084930D01*
X121531500Y-93080290D01*
X121578613Y-93084930D01*
G37*
G36*
X117690350Y-93255964D02*
G01*
X117740540Y-93261787D01*
X117757689Y-93269359D01*
X117781171Y-93274030D01*
X117806310Y-93290827D01*
X117826196Y-93299608D01*
X117839777Y-93313189D01*
X117862277Y-93328223D01*
X117877310Y-93350722D01*
X117890891Y-93364303D01*
X117899670Y-93384186D01*
X117916470Y-93409329D01*
X117921141Y-93432812D01*
X117928712Y-93449959D01*
X117934533Y-93500139D01*
X117935500Y-93505000D01*
X117935500Y-94455000D01*
X117934532Y-94459863D01*
X117928712Y-94510040D01*
X117921141Y-94527185D01*
X117916470Y-94550671D01*
X117899669Y-94575815D01*
X117890891Y-94595696D01*
X117877312Y-94609274D01*
X117862277Y-94631777D01*
X117839774Y-94646812D01*
X117826196Y-94660391D01*
X117806315Y-94669169D01*
X117781171Y-94685970D01*
X117757685Y-94690641D01*
X117740540Y-94698212D01*
X117690361Y-94704032D01*
X117685500Y-94705000D01*
X117010500Y-94705000D01*
X117005638Y-94704032D01*
X116955459Y-94698212D01*
X116938312Y-94690641D01*
X116914829Y-94685970D01*
X116889686Y-94669170D01*
X116869803Y-94660391D01*
X116856222Y-94646810D01*
X116833723Y-94631777D01*
X116818689Y-94609277D01*
X116805108Y-94595696D01*
X116796327Y-94575810D01*
X116779530Y-94550671D01*
X116774859Y-94527189D01*
X116767287Y-94510040D01*
X116761464Y-94459849D01*
X116760500Y-94455000D01*
X116760500Y-93505000D01*
X116761464Y-93500150D01*
X116767287Y-93449959D01*
X116774859Y-93432808D01*
X116779530Y-93409329D01*
X116796326Y-93384191D01*
X116805108Y-93364303D01*
X116818691Y-93350719D01*
X116833723Y-93328223D01*
X116856219Y-93313191D01*
X116869803Y-93299608D01*
X116889691Y-93290826D01*
X116914829Y-93274030D01*
X116938308Y-93269359D01*
X116955459Y-93261787D01*
X117005651Y-93255964D01*
X117010500Y-93255000D01*
X117685500Y-93255000D01*
X117690350Y-93255964D01*
G37*
G36*
X119765350Y-93255964D02*
G01*
X119815540Y-93261787D01*
X119832689Y-93269359D01*
X119856171Y-93274030D01*
X119881310Y-93290827D01*
X119901196Y-93299608D01*
X119914777Y-93313189D01*
X119937277Y-93328223D01*
X119952310Y-93350722D01*
X119965891Y-93364303D01*
X119974670Y-93384186D01*
X119991470Y-93409329D01*
X119996141Y-93432812D01*
X120003712Y-93449959D01*
X120009533Y-93500139D01*
X120010500Y-93505000D01*
X120010500Y-94455000D01*
X120009532Y-94459863D01*
X120003712Y-94510040D01*
X119996141Y-94527185D01*
X119991470Y-94550671D01*
X119974669Y-94575815D01*
X119965891Y-94595696D01*
X119952312Y-94609274D01*
X119937277Y-94631777D01*
X119914774Y-94646812D01*
X119901196Y-94660391D01*
X119881315Y-94669169D01*
X119856171Y-94685970D01*
X119832685Y-94690641D01*
X119815540Y-94698212D01*
X119765361Y-94704032D01*
X119760500Y-94705000D01*
X119085500Y-94705000D01*
X119080638Y-94704032D01*
X119030459Y-94698212D01*
X119013312Y-94690641D01*
X118989829Y-94685970D01*
X118964686Y-94669170D01*
X118944803Y-94660391D01*
X118931222Y-94646810D01*
X118908723Y-94631777D01*
X118893689Y-94609277D01*
X118880108Y-94595696D01*
X118871327Y-94575810D01*
X118854530Y-94550671D01*
X118849859Y-94527189D01*
X118842287Y-94510040D01*
X118836464Y-94459849D01*
X118835500Y-94455000D01*
X118835500Y-93505000D01*
X118836464Y-93500150D01*
X118842287Y-93449959D01*
X118849859Y-93432808D01*
X118854530Y-93409329D01*
X118871326Y-93384191D01*
X118880108Y-93364303D01*
X118893691Y-93350719D01*
X118908723Y-93328223D01*
X118931219Y-93313191D01*
X118944803Y-93299608D01*
X118964691Y-93290826D01*
X118989829Y-93274030D01*
X119013308Y-93269359D01*
X119030459Y-93261787D01*
X119080651Y-93255964D01*
X119085500Y-93255000D01*
X119760500Y-93255000D01*
X119765350Y-93255964D01*
G37*
G36*
X126346793Y-94575293D02*
G01*
X124646793Y-94575293D01*
X124646793Y-92875293D01*
X126346793Y-92875293D01*
X126346793Y-94575293D01*
G37*
G36*
X128299457Y-92916895D02*
G01*
X128461793Y-92989171D01*
X128605554Y-93093620D01*
X128724457Y-93225676D01*
X128813307Y-93379567D01*
X128868218Y-93548568D01*
X128886793Y-93725293D01*
X128868218Y-93902018D01*
X128813307Y-94071019D01*
X128724457Y-94224910D01*
X128605554Y-94356966D01*
X128461793Y-94461415D01*
X128299457Y-94533691D01*
X128125642Y-94570637D01*
X127947944Y-94570637D01*
X127774129Y-94533691D01*
X127611793Y-94461415D01*
X127468032Y-94356966D01*
X127349129Y-94224910D01*
X127260279Y-94071019D01*
X127205368Y-93902018D01*
X127186793Y-93725293D01*
X127205368Y-93548568D01*
X127260279Y-93379567D01*
X127349129Y-93225676D01*
X127468032Y-93093620D01*
X127611793Y-92989171D01*
X127774129Y-92916895D01*
X127947944Y-92879949D01*
X128125642Y-92879949D01*
X128299457Y-92916895D01*
G37*
G36*
X130839457Y-92916895D02*
G01*
X131001793Y-92989171D01*
X131145554Y-93093620D01*
X131264457Y-93225676D01*
X131353307Y-93379567D01*
X131408218Y-93548568D01*
X131426793Y-93725293D01*
X131408218Y-93902018D01*
X131353307Y-94071019D01*
X131264457Y-94224910D01*
X131145554Y-94356966D01*
X131001793Y-94461415D01*
X130839457Y-94533691D01*
X130665642Y-94570637D01*
X130487944Y-94570637D01*
X130314129Y-94533691D01*
X130151793Y-94461415D01*
X130008032Y-94356966D01*
X129889129Y-94224910D01*
X129800279Y-94071019D01*
X129745368Y-93902018D01*
X129726793Y-93725293D01*
X129745368Y-93548568D01*
X129800279Y-93379567D01*
X129889129Y-93225676D01*
X130008032Y-93093620D01*
X130151793Y-92989171D01*
X130314129Y-92916895D01*
X130487944Y-92879949D01*
X130665642Y-92879949D01*
X130839457Y-92916895D01*
G37*
G36*
X133379457Y-92916895D02*
G01*
X133541793Y-92989171D01*
X133685554Y-93093620D01*
X133804457Y-93225676D01*
X133893307Y-93379567D01*
X133948218Y-93548568D01*
X133966793Y-93725293D01*
X133948218Y-93902018D01*
X133893307Y-94071019D01*
X133804457Y-94224910D01*
X133685554Y-94356966D01*
X133541793Y-94461415D01*
X133379457Y-94533691D01*
X133205642Y-94570637D01*
X133027944Y-94570637D01*
X132854129Y-94533691D01*
X132691793Y-94461415D01*
X132548032Y-94356966D01*
X132429129Y-94224910D01*
X132340279Y-94071019D01*
X132285368Y-93902018D01*
X132266793Y-93725293D01*
X132285368Y-93548568D01*
X132340279Y-93379567D01*
X132429129Y-93225676D01*
X132548032Y-93093620D01*
X132691793Y-92989171D01*
X132854129Y-92916895D01*
X133027944Y-92879949D01*
X133205642Y-92879949D01*
X133379457Y-92916895D01*
G37*
G36*
X135919457Y-92916895D02*
G01*
X136081793Y-92989171D01*
X136225554Y-93093620D01*
X136344457Y-93225676D01*
X136433307Y-93379567D01*
X136488218Y-93548568D01*
X136506793Y-93725293D01*
X136488218Y-93902018D01*
X136433307Y-94071019D01*
X136344457Y-94224910D01*
X136225554Y-94356966D01*
X136081793Y-94461415D01*
X135919457Y-94533691D01*
X135745642Y-94570637D01*
X135567944Y-94570637D01*
X135394129Y-94533691D01*
X135231793Y-94461415D01*
X135088032Y-94356966D01*
X134969129Y-94224910D01*
X134880279Y-94071019D01*
X134825368Y-93902018D01*
X134806793Y-93725293D01*
X134825368Y-93548568D01*
X134880279Y-93379567D01*
X134969129Y-93225676D01*
X135088032Y-93093620D01*
X135231793Y-92989171D01*
X135394129Y-92916895D01*
X135567944Y-92879949D01*
X135745642Y-92879949D01*
X135919457Y-92916895D01*
G37*
G36*
X138459457Y-92916895D02*
G01*
X138621793Y-92989171D01*
X138765554Y-93093620D01*
X138884457Y-93225676D01*
X138973307Y-93379567D01*
X139028218Y-93548568D01*
X139046793Y-93725293D01*
X139028218Y-93902018D01*
X138973307Y-94071019D01*
X138884457Y-94224910D01*
X138765554Y-94356966D01*
X138621793Y-94461415D01*
X138459457Y-94533691D01*
X138285642Y-94570637D01*
X138107944Y-94570637D01*
X137934129Y-94533691D01*
X137771793Y-94461415D01*
X137628032Y-94356966D01*
X137509129Y-94224910D01*
X137420279Y-94071019D01*
X137365368Y-93902018D01*
X137346793Y-93725293D01*
X137365368Y-93548568D01*
X137420279Y-93379567D01*
X137509129Y-93225676D01*
X137628032Y-93093620D01*
X137771793Y-92989171D01*
X137934129Y-92916895D01*
X138107944Y-92879949D01*
X138285642Y-92879949D01*
X138459457Y-92916895D01*
G37*
G36*
X140999457Y-92916895D02*
G01*
X141161793Y-92989171D01*
X141305554Y-93093620D01*
X141424457Y-93225676D01*
X141513307Y-93379567D01*
X141568218Y-93548568D01*
X141586793Y-93725293D01*
X141568218Y-93902018D01*
X141513307Y-94071019D01*
X141424457Y-94224910D01*
X141305554Y-94356966D01*
X141161793Y-94461415D01*
X140999457Y-94533691D01*
X140825642Y-94570637D01*
X140647944Y-94570637D01*
X140474129Y-94533691D01*
X140311793Y-94461415D01*
X140168032Y-94356966D01*
X140049129Y-94224910D01*
X139960279Y-94071019D01*
X139905368Y-93902018D01*
X139886793Y-93725293D01*
X139905368Y-93548568D01*
X139960279Y-93379567D01*
X140049129Y-93225676D01*
X140168032Y-93093620D01*
X140311793Y-92989171D01*
X140474129Y-92916895D01*
X140647944Y-92879949D01*
X140825642Y-92879949D01*
X140999457Y-92916895D01*
G37*
G36*
X143539457Y-92916895D02*
G01*
X143701793Y-92989171D01*
X143845554Y-93093620D01*
X143964457Y-93225676D01*
X144053307Y-93379567D01*
X144108218Y-93548568D01*
X144126793Y-93725293D01*
X144108218Y-93902018D01*
X144053307Y-94071019D01*
X143964457Y-94224910D01*
X143845554Y-94356966D01*
X143701793Y-94461415D01*
X143539457Y-94533691D01*
X143365642Y-94570637D01*
X143187944Y-94570637D01*
X143014129Y-94533691D01*
X142851793Y-94461415D01*
X142708032Y-94356966D01*
X142589129Y-94224910D01*
X142500279Y-94071019D01*
X142445368Y-93902018D01*
X142426793Y-93725293D01*
X142445368Y-93548568D01*
X142500279Y-93379567D01*
X142589129Y-93225676D01*
X142708032Y-93093620D01*
X142851793Y-92989171D01*
X143014129Y-92916895D01*
X143187944Y-92879949D01*
X143365642Y-92879949D01*
X143539457Y-92916895D01*
G37*
G36*
X155394850Y-92586964D02*
G01*
X155445040Y-92592787D01*
X155462189Y-92600359D01*
X155485671Y-92605030D01*
X155510810Y-92621827D01*
X155530696Y-92630608D01*
X155544277Y-92644189D01*
X155566777Y-92659223D01*
X155581810Y-92681722D01*
X155595391Y-92695303D01*
X155604170Y-92715186D01*
X155620970Y-92740329D01*
X155625641Y-92763812D01*
X155633212Y-92780959D01*
X155639033Y-92831139D01*
X155640000Y-92836000D01*
X155640000Y-93536000D01*
X155639032Y-93540863D01*
X155633212Y-93591040D01*
X155625641Y-93608185D01*
X155620970Y-93631671D01*
X155604169Y-93656815D01*
X155595391Y-93676696D01*
X155581812Y-93690274D01*
X155566777Y-93712777D01*
X155544274Y-93727812D01*
X155530696Y-93741391D01*
X155510815Y-93750169D01*
X155485671Y-93766970D01*
X155462185Y-93771641D01*
X155445040Y-93779212D01*
X155394861Y-93785032D01*
X155390000Y-93786000D01*
X154490000Y-93786000D01*
X154485138Y-93785032D01*
X154434959Y-93779212D01*
X154417812Y-93771641D01*
X154394329Y-93766970D01*
X154369186Y-93750170D01*
X154349303Y-93741391D01*
X154335722Y-93727810D01*
X154313223Y-93712777D01*
X154298189Y-93690277D01*
X154284608Y-93676696D01*
X154275827Y-93656810D01*
X154259030Y-93631671D01*
X154254359Y-93608189D01*
X154246787Y-93591040D01*
X154240964Y-93540849D01*
X154240000Y-93536000D01*
X154240000Y-92836000D01*
X154240964Y-92831150D01*
X154246787Y-92780959D01*
X154254359Y-92763808D01*
X154259030Y-92740329D01*
X154275826Y-92715191D01*
X154284608Y-92695303D01*
X154298191Y-92681719D01*
X154313223Y-92659223D01*
X154335719Y-92644191D01*
X154349303Y-92630608D01*
X154369191Y-92621826D01*
X154394329Y-92605030D01*
X154417808Y-92600359D01*
X154434959Y-92592787D01*
X154485151Y-92586964D01*
X154490000Y-92586000D01*
X155390000Y-92586000D01*
X155394850Y-92586964D01*
G37*
G36*
X157934850Y-92586964D02*
G01*
X157985040Y-92592787D01*
X158002189Y-92600359D01*
X158025671Y-92605030D01*
X158050810Y-92621827D01*
X158070696Y-92630608D01*
X158084277Y-92644189D01*
X158106777Y-92659223D01*
X158121810Y-92681722D01*
X158135391Y-92695303D01*
X158144170Y-92715186D01*
X158160970Y-92740329D01*
X158165641Y-92763812D01*
X158173212Y-92780959D01*
X158179033Y-92831139D01*
X158180000Y-92836000D01*
X158180000Y-93536000D01*
X158179032Y-93540863D01*
X158173212Y-93591040D01*
X158165641Y-93608185D01*
X158160970Y-93631671D01*
X158144169Y-93656815D01*
X158135391Y-93676696D01*
X158121812Y-93690274D01*
X158106777Y-93712777D01*
X158084274Y-93727812D01*
X158070696Y-93741391D01*
X158050815Y-93750169D01*
X158025671Y-93766970D01*
X158002185Y-93771641D01*
X157985040Y-93779212D01*
X157934861Y-93785032D01*
X157930000Y-93786000D01*
X157030000Y-93786000D01*
X157025138Y-93785032D01*
X156974959Y-93779212D01*
X156957812Y-93771641D01*
X156934329Y-93766970D01*
X156909186Y-93750170D01*
X156889303Y-93741391D01*
X156875722Y-93727810D01*
X156853223Y-93712777D01*
X156838189Y-93690277D01*
X156824608Y-93676696D01*
X156815827Y-93656810D01*
X156799030Y-93631671D01*
X156794359Y-93608189D01*
X156786787Y-93591040D01*
X156780964Y-93540849D01*
X156780000Y-93536000D01*
X156780000Y-92836000D01*
X156780964Y-92831150D01*
X156786787Y-92780959D01*
X156794359Y-92763808D01*
X156799030Y-92740329D01*
X156815826Y-92715191D01*
X156824608Y-92695303D01*
X156838191Y-92681719D01*
X156853223Y-92659223D01*
X156875719Y-92644191D01*
X156889303Y-92630608D01*
X156909191Y-92621826D01*
X156934329Y-92605030D01*
X156957808Y-92600359D01*
X156974959Y-92592787D01*
X157025151Y-92586964D01*
X157030000Y-92586000D01*
X157930000Y-92586000D01*
X157934850Y-92586964D01*
G37*
G36*
X155394850Y-90586964D02*
G01*
X155445040Y-90592787D01*
X155462189Y-90600359D01*
X155485671Y-90605030D01*
X155510810Y-90621827D01*
X155530696Y-90630608D01*
X155544277Y-90644189D01*
X155566777Y-90659223D01*
X155581810Y-90681722D01*
X155595391Y-90695303D01*
X155604170Y-90715186D01*
X155620970Y-90740329D01*
X155625641Y-90763812D01*
X155633212Y-90780959D01*
X155639033Y-90831139D01*
X155640000Y-90836000D01*
X155640000Y-91536000D01*
X155639032Y-91540863D01*
X155633212Y-91591040D01*
X155625641Y-91608185D01*
X155620970Y-91631671D01*
X155604169Y-91656815D01*
X155595391Y-91676696D01*
X155581812Y-91690274D01*
X155566777Y-91712777D01*
X155544274Y-91727812D01*
X155530696Y-91741391D01*
X155510815Y-91750169D01*
X155485671Y-91766970D01*
X155462185Y-91771641D01*
X155445040Y-91779212D01*
X155394861Y-91785032D01*
X155390000Y-91786000D01*
X154490000Y-91786000D01*
X154485138Y-91785032D01*
X154434959Y-91779212D01*
X154417812Y-91771641D01*
X154394329Y-91766970D01*
X154369186Y-91750170D01*
X154349303Y-91741391D01*
X154335722Y-91727810D01*
X154313223Y-91712777D01*
X154298189Y-91690277D01*
X154284608Y-91676696D01*
X154275827Y-91656810D01*
X154259030Y-91631671D01*
X154254359Y-91608189D01*
X154246787Y-91591040D01*
X154240964Y-91540849D01*
X154240000Y-91536000D01*
X154240000Y-90836000D01*
X154240964Y-90831150D01*
X154246787Y-90780959D01*
X154254359Y-90763808D01*
X154259030Y-90740329D01*
X154275826Y-90715191D01*
X154284608Y-90695303D01*
X154298191Y-90681719D01*
X154313223Y-90659223D01*
X154335719Y-90644191D01*
X154349303Y-90630608D01*
X154369191Y-90621826D01*
X154394329Y-90605030D01*
X154417808Y-90600359D01*
X154434959Y-90592787D01*
X154485151Y-90586964D01*
X154490000Y-90586000D01*
X155390000Y-90586000D01*
X155394850Y-90586964D01*
G37*
G36*
X157934850Y-90586964D02*
G01*
X157985040Y-90592787D01*
X158002189Y-90600359D01*
X158025671Y-90605030D01*
X158050810Y-90621827D01*
X158070696Y-90630608D01*
X158084277Y-90644189D01*
X158106777Y-90659223D01*
X158121810Y-90681722D01*
X158135391Y-90695303D01*
X158144170Y-90715186D01*
X158160970Y-90740329D01*
X158165641Y-90763812D01*
X158173212Y-90780959D01*
X158179033Y-90831139D01*
X158180000Y-90836000D01*
X158180000Y-91536000D01*
X158179032Y-91540863D01*
X158173212Y-91591040D01*
X158165641Y-91608185D01*
X158160970Y-91631671D01*
X158144169Y-91656815D01*
X158135391Y-91676696D01*
X158121812Y-91690274D01*
X158106777Y-91712777D01*
X158084274Y-91727812D01*
X158070696Y-91741391D01*
X158050815Y-91750169D01*
X158025671Y-91766970D01*
X158002185Y-91771641D01*
X157985040Y-91779212D01*
X157934861Y-91785032D01*
X157930000Y-91786000D01*
X157030000Y-91786000D01*
X157025138Y-91785032D01*
X156974959Y-91779212D01*
X156957812Y-91771641D01*
X156934329Y-91766970D01*
X156909186Y-91750170D01*
X156889303Y-91741391D01*
X156875722Y-91727810D01*
X156853223Y-91712777D01*
X156838189Y-91690277D01*
X156824608Y-91676696D01*
X156815827Y-91656810D01*
X156799030Y-91631671D01*
X156794359Y-91608189D01*
X156786787Y-91591040D01*
X156780964Y-91540849D01*
X156780000Y-91536000D01*
X156780000Y-90836000D01*
X156780964Y-90831150D01*
X156786787Y-90780959D01*
X156794359Y-90763808D01*
X156799030Y-90740329D01*
X156815826Y-90715191D01*
X156824608Y-90695303D01*
X156838191Y-90681719D01*
X156853223Y-90659223D01*
X156875719Y-90644191D01*
X156889303Y-90630608D01*
X156909191Y-90621826D01*
X156934329Y-90605030D01*
X156957808Y-90600359D01*
X156974959Y-90592787D01*
X157025151Y-90586964D01*
X157030000Y-90586000D01*
X157930000Y-90586000D01*
X157934850Y-90586964D01*
G37*
G36*
X128119850Y-89062964D02*
G01*
X128164317Y-89068123D01*
X128179510Y-89074831D01*
X128201104Y-89079127D01*
X128224222Y-89094574D01*
X128241567Y-89102233D01*
X128253412Y-89114078D01*
X128274099Y-89127901D01*
X128287921Y-89148587D01*
X128299766Y-89160432D01*
X128307423Y-89177774D01*
X128322873Y-89200896D01*
X128327168Y-89222491D01*
X128333876Y-89237682D01*
X128339033Y-89282139D01*
X128340000Y-89287000D01*
X128340000Y-90037000D01*
X128339032Y-90041862D01*
X128333876Y-90086317D01*
X128327168Y-90101506D01*
X128322873Y-90123104D01*
X128307422Y-90146227D01*
X128299766Y-90163567D01*
X128287923Y-90175409D01*
X128274099Y-90196099D01*
X128253409Y-90209923D01*
X128241567Y-90221766D01*
X128224227Y-90229422D01*
X128201104Y-90244873D01*
X128179506Y-90249168D01*
X128164317Y-90255876D01*
X128119861Y-90261032D01*
X128115000Y-90262000D01*
X127665000Y-90262000D01*
X127660138Y-90261033D01*
X127615682Y-90255876D01*
X127600491Y-90249168D01*
X127578896Y-90244873D01*
X127555774Y-90229423D01*
X127538432Y-90221766D01*
X127526587Y-90209921D01*
X127505901Y-90196099D01*
X127492078Y-90175412D01*
X127480233Y-90163567D01*
X127472574Y-90146222D01*
X127457127Y-90123104D01*
X127452831Y-90101510D01*
X127446123Y-90086317D01*
X127440964Y-90041849D01*
X127440000Y-90037000D01*
X127440000Y-89287000D01*
X127440964Y-89282150D01*
X127446123Y-89237682D01*
X127452832Y-89222487D01*
X127457127Y-89200896D01*
X127472573Y-89177779D01*
X127480233Y-89160432D01*
X127492080Y-89148584D01*
X127505901Y-89127901D01*
X127526584Y-89114080D01*
X127538432Y-89102233D01*
X127555779Y-89094573D01*
X127578896Y-89079127D01*
X127600487Y-89074832D01*
X127615682Y-89068123D01*
X127660151Y-89062964D01*
X127665000Y-89062000D01*
X128115000Y-89062000D01*
X128119850Y-89062964D01*
G37*
G36*
X131419850Y-89062964D02*
G01*
X131464317Y-89068123D01*
X131479510Y-89074831D01*
X131501104Y-89079127D01*
X131524222Y-89094574D01*
X131541567Y-89102233D01*
X131553412Y-89114078D01*
X131574099Y-89127901D01*
X131587921Y-89148587D01*
X131599766Y-89160432D01*
X131607423Y-89177774D01*
X131622873Y-89200896D01*
X131627168Y-89222491D01*
X131633876Y-89237682D01*
X131639033Y-89282139D01*
X131640000Y-89287000D01*
X131640000Y-90037000D01*
X131639032Y-90041862D01*
X131633876Y-90086317D01*
X131627168Y-90101506D01*
X131622873Y-90123104D01*
X131607422Y-90146227D01*
X131599766Y-90163567D01*
X131587923Y-90175409D01*
X131574099Y-90196099D01*
X131553409Y-90209923D01*
X131541567Y-90221766D01*
X131524227Y-90229422D01*
X131501104Y-90244873D01*
X131479506Y-90249168D01*
X131464317Y-90255876D01*
X131419861Y-90261032D01*
X131415000Y-90262000D01*
X130965000Y-90262000D01*
X130960138Y-90261033D01*
X130915682Y-90255876D01*
X130900491Y-90249168D01*
X130878896Y-90244873D01*
X130855774Y-90229423D01*
X130838432Y-90221766D01*
X130826587Y-90209921D01*
X130805901Y-90196099D01*
X130792078Y-90175412D01*
X130780233Y-90163567D01*
X130772574Y-90146222D01*
X130757127Y-90123104D01*
X130752831Y-90101510D01*
X130746123Y-90086317D01*
X130740964Y-90041849D01*
X130740000Y-90037000D01*
X130740000Y-89287000D01*
X130740964Y-89282150D01*
X130746123Y-89237682D01*
X130752832Y-89222487D01*
X130757127Y-89200896D01*
X130772573Y-89177779D01*
X130780233Y-89160432D01*
X130792080Y-89148584D01*
X130805901Y-89127901D01*
X130826584Y-89114080D01*
X130838432Y-89102233D01*
X130855779Y-89094573D01*
X130878896Y-89079127D01*
X130900487Y-89074832D01*
X130915682Y-89068123D01*
X130960151Y-89062964D01*
X130965000Y-89062000D01*
X131415000Y-89062000D01*
X131419850Y-89062964D01*
G37*
G36*
X154156803Y-88023818D02*
G01*
X154205466Y-88056334D01*
X154237982Y-88104997D01*
X154249400Y-88162400D01*
X154249400Y-89812400D01*
X154237982Y-89869803D01*
X154205466Y-89918466D01*
X154156803Y-89950982D01*
X154099400Y-89962400D01*
X153799400Y-89962400D01*
X153741997Y-89950982D01*
X153693334Y-89918466D01*
X153660818Y-89869803D01*
X153649400Y-89812400D01*
X153649400Y-88162400D01*
X153660818Y-88104997D01*
X153693334Y-88056334D01*
X153741997Y-88023818D01*
X153799400Y-88012400D01*
X154099400Y-88012400D01*
X154156803Y-88023818D01*
G37*
G36*
X155426803Y-88023818D02*
G01*
X155475466Y-88056334D01*
X155507982Y-88104997D01*
X155519400Y-88162400D01*
X155519400Y-89812400D01*
X155507982Y-89869803D01*
X155475466Y-89918466D01*
X155426803Y-89950982D01*
X155369400Y-89962400D01*
X155069400Y-89962400D01*
X155011997Y-89950982D01*
X154963334Y-89918466D01*
X154930818Y-89869803D01*
X154919400Y-89812400D01*
X154919400Y-88162400D01*
X154930818Y-88104997D01*
X154963334Y-88056334D01*
X155011997Y-88023818D01*
X155069400Y-88012400D01*
X155369400Y-88012400D01*
X155426803Y-88023818D01*
G37*
G36*
X156696803Y-88023818D02*
G01*
X156745466Y-88056334D01*
X156777982Y-88104997D01*
X156789400Y-88162400D01*
X156789400Y-89812400D01*
X156777982Y-89869803D01*
X156745466Y-89918466D01*
X156696803Y-89950982D01*
X156639400Y-89962400D01*
X156339400Y-89962400D01*
X156281997Y-89950982D01*
X156233334Y-89918466D01*
X156200818Y-89869803D01*
X156189400Y-89812400D01*
X156189400Y-88162400D01*
X156200818Y-88104997D01*
X156233334Y-88056334D01*
X156281997Y-88023818D01*
X156339400Y-88012400D01*
X156639400Y-88012400D01*
X156696803Y-88023818D01*
G37*
G36*
X157966803Y-88023818D02*
G01*
X158015466Y-88056334D01*
X158047982Y-88104997D01*
X158059400Y-88162400D01*
X158059400Y-89812400D01*
X158047982Y-89869803D01*
X158015466Y-89918466D01*
X157966803Y-89950982D01*
X157909400Y-89962400D01*
X157609400Y-89962400D01*
X157551997Y-89950982D01*
X157503334Y-89918466D01*
X157470818Y-89869803D01*
X157459400Y-89812400D01*
X157459400Y-88162400D01*
X157470818Y-88104997D01*
X157503334Y-88056334D01*
X157551997Y-88023818D01*
X157609400Y-88012400D01*
X157909400Y-88012400D01*
X157966803Y-88023818D01*
G37*
G36*
X150180850Y-88175964D02*
G01*
X150231040Y-88181787D01*
X150248189Y-88189359D01*
X150271671Y-88194030D01*
X150296810Y-88210827D01*
X150316696Y-88219608D01*
X150330277Y-88233189D01*
X150352777Y-88248223D01*
X150367810Y-88270722D01*
X150381391Y-88284303D01*
X150390170Y-88304186D01*
X150406970Y-88329329D01*
X150411641Y-88352812D01*
X150419212Y-88369959D01*
X150425033Y-88420139D01*
X150426000Y-88425000D01*
X150426000Y-89375000D01*
X150425032Y-89379863D01*
X150419212Y-89430040D01*
X150411641Y-89447185D01*
X150406970Y-89470671D01*
X150390169Y-89495815D01*
X150381391Y-89515696D01*
X150367812Y-89529274D01*
X150352777Y-89551777D01*
X150330274Y-89566812D01*
X150316696Y-89580391D01*
X150296815Y-89589169D01*
X150271671Y-89605970D01*
X150248185Y-89610641D01*
X150231040Y-89618212D01*
X150180861Y-89624032D01*
X150176000Y-89625000D01*
X149501000Y-89625000D01*
X149496138Y-89624032D01*
X149445959Y-89618212D01*
X149428812Y-89610641D01*
X149405329Y-89605970D01*
X149380186Y-89589170D01*
X149360303Y-89580391D01*
X149346722Y-89566810D01*
X149324223Y-89551777D01*
X149309189Y-89529277D01*
X149295608Y-89515696D01*
X149286827Y-89495810D01*
X149270030Y-89470671D01*
X149265359Y-89447189D01*
X149257787Y-89430040D01*
X149251964Y-89379849D01*
X149251000Y-89375000D01*
X149251000Y-88425000D01*
X149251964Y-88420150D01*
X149257787Y-88369959D01*
X149265359Y-88352808D01*
X149270030Y-88329329D01*
X149286826Y-88304191D01*
X149295608Y-88284303D01*
X149309191Y-88270719D01*
X149324223Y-88248223D01*
X149346719Y-88233191D01*
X149360303Y-88219608D01*
X149380191Y-88210826D01*
X149405329Y-88194030D01*
X149428808Y-88189359D01*
X149445959Y-88181787D01*
X149496151Y-88175964D01*
X149501000Y-88175000D01*
X150176000Y-88175000D01*
X150180850Y-88175964D01*
G37*
G36*
X152255850Y-88175964D02*
G01*
X152306040Y-88181787D01*
X152323189Y-88189359D01*
X152346671Y-88194030D01*
X152371810Y-88210827D01*
X152391696Y-88219608D01*
X152405277Y-88233189D01*
X152427777Y-88248223D01*
X152442810Y-88270722D01*
X152456391Y-88284303D01*
X152465170Y-88304186D01*
X152481970Y-88329329D01*
X152486641Y-88352812D01*
X152494212Y-88369959D01*
X152500033Y-88420139D01*
X152501000Y-88425000D01*
X152501000Y-89375000D01*
X152500032Y-89379863D01*
X152494212Y-89430040D01*
X152486641Y-89447185D01*
X152481970Y-89470671D01*
X152465169Y-89495815D01*
X152456391Y-89515696D01*
X152442812Y-89529274D01*
X152427777Y-89551777D01*
X152405274Y-89566812D01*
X152391696Y-89580391D01*
X152371815Y-89589169D01*
X152346671Y-89605970D01*
X152323185Y-89610641D01*
X152306040Y-89618212D01*
X152255861Y-89624032D01*
X152251000Y-89625000D01*
X151576000Y-89625000D01*
X151571138Y-89624032D01*
X151520959Y-89618212D01*
X151503812Y-89610641D01*
X151480329Y-89605970D01*
X151455186Y-89589170D01*
X151435303Y-89580391D01*
X151421722Y-89566810D01*
X151399223Y-89551777D01*
X151384189Y-89529277D01*
X151370608Y-89515696D01*
X151361827Y-89495810D01*
X151345030Y-89470671D01*
X151340359Y-89447189D01*
X151332787Y-89430040D01*
X151326964Y-89379849D01*
X151326000Y-89375000D01*
X151326000Y-88425000D01*
X151326964Y-88420150D01*
X151332787Y-88369959D01*
X151340359Y-88352808D01*
X151345030Y-88329329D01*
X151361826Y-88304191D01*
X151370608Y-88284303D01*
X151384191Y-88270719D01*
X151399223Y-88248223D01*
X151421719Y-88233191D01*
X151435303Y-88219608D01*
X151455191Y-88210826D01*
X151480329Y-88194030D01*
X151503808Y-88189359D01*
X151520959Y-88181787D01*
X151571151Y-88175964D01*
X151576000Y-88175000D01*
X152251000Y-88175000D01*
X152255850Y-88175964D01*
G37*
G36*
X141192350Y-88268964D02*
G01*
X141242540Y-88274787D01*
X141259689Y-88282359D01*
X141283171Y-88287030D01*
X141308310Y-88303827D01*
X141328196Y-88312608D01*
X141341777Y-88326189D01*
X141364277Y-88341223D01*
X141379310Y-88363722D01*
X141392891Y-88377303D01*
X141401670Y-88397186D01*
X141418470Y-88422329D01*
X141423141Y-88445812D01*
X141430712Y-88462959D01*
X141436533Y-88513139D01*
X141437500Y-88518000D01*
X141437500Y-89218000D01*
X141436532Y-89222863D01*
X141430712Y-89273040D01*
X141423141Y-89290185D01*
X141418470Y-89313671D01*
X141401669Y-89338815D01*
X141392891Y-89358696D01*
X141379312Y-89372274D01*
X141364277Y-89394777D01*
X141341774Y-89409812D01*
X141328196Y-89423391D01*
X141308315Y-89432169D01*
X141283171Y-89448970D01*
X141259685Y-89453641D01*
X141242540Y-89461212D01*
X141192361Y-89467032D01*
X141187500Y-89468000D01*
X140287500Y-89468000D01*
X140282638Y-89467032D01*
X140232459Y-89461212D01*
X140215312Y-89453641D01*
X140191829Y-89448970D01*
X140166686Y-89432170D01*
X140146803Y-89423391D01*
X140133222Y-89409810D01*
X140110723Y-89394777D01*
X140095689Y-89372277D01*
X140082108Y-89358696D01*
X140073327Y-89338810D01*
X140056530Y-89313671D01*
X140051859Y-89290189D01*
X140044287Y-89273040D01*
X140038464Y-89222849D01*
X140037500Y-89218000D01*
X140037500Y-88518000D01*
X140038464Y-88513150D01*
X140044287Y-88462959D01*
X140051859Y-88445808D01*
X140056530Y-88422329D01*
X140073326Y-88397191D01*
X140082108Y-88377303D01*
X140095691Y-88363719D01*
X140110723Y-88341223D01*
X140133219Y-88326191D01*
X140146803Y-88312608D01*
X140166691Y-88303826D01*
X140191829Y-88287030D01*
X140215308Y-88282359D01*
X140232459Y-88274787D01*
X140282651Y-88268964D01*
X140287500Y-88268000D01*
X141187500Y-88268000D01*
X141192350Y-88268964D01*
G37*
G36*
X143478350Y-88268964D02*
G01*
X143528540Y-88274787D01*
X143545689Y-88282359D01*
X143569171Y-88287030D01*
X143594310Y-88303827D01*
X143614196Y-88312608D01*
X143627777Y-88326189D01*
X143650277Y-88341223D01*
X143665310Y-88363722D01*
X143678891Y-88377303D01*
X143687670Y-88397186D01*
X143704470Y-88422329D01*
X143709141Y-88445812D01*
X143716712Y-88462959D01*
X143722533Y-88513139D01*
X143723500Y-88518000D01*
X143723500Y-89218000D01*
X143722532Y-89222863D01*
X143716712Y-89273040D01*
X143709141Y-89290185D01*
X143704470Y-89313671D01*
X143687669Y-89338815D01*
X143678891Y-89358696D01*
X143665312Y-89372274D01*
X143650277Y-89394777D01*
X143627774Y-89409812D01*
X143614196Y-89423391D01*
X143594315Y-89432169D01*
X143569171Y-89448970D01*
X143545685Y-89453641D01*
X143528540Y-89461212D01*
X143478361Y-89467032D01*
X143473500Y-89468000D01*
X142573500Y-89468000D01*
X142568638Y-89467032D01*
X142518459Y-89461212D01*
X142501312Y-89453641D01*
X142477829Y-89448970D01*
X142452686Y-89432170D01*
X142432803Y-89423391D01*
X142419222Y-89409810D01*
X142396723Y-89394777D01*
X142381689Y-89372277D01*
X142368108Y-89358696D01*
X142359327Y-89338810D01*
X142342530Y-89313671D01*
X142337859Y-89290189D01*
X142330287Y-89273040D01*
X142324464Y-89222849D01*
X142323500Y-89218000D01*
X142323500Y-88518000D01*
X142324464Y-88513150D01*
X142330287Y-88462959D01*
X142337859Y-88445808D01*
X142342530Y-88422329D01*
X142359326Y-88397191D01*
X142368108Y-88377303D01*
X142381691Y-88363719D01*
X142396723Y-88341223D01*
X142419219Y-88326191D01*
X142432803Y-88312608D01*
X142452691Y-88303826D01*
X142477829Y-88287030D01*
X142501308Y-88282359D01*
X142518459Y-88274787D01*
X142568651Y-88268964D01*
X142573500Y-88268000D01*
X143473500Y-88268000D01*
X143478350Y-88268964D01*
G37*
G36*
X121986850Y-87921964D02*
G01*
X122037040Y-87927787D01*
X122054189Y-87935359D01*
X122077671Y-87940030D01*
X122102810Y-87956827D01*
X122122696Y-87965608D01*
X122136277Y-87979189D01*
X122158777Y-87994223D01*
X122173810Y-88016722D01*
X122187391Y-88030303D01*
X122196170Y-88050186D01*
X122212970Y-88075329D01*
X122217641Y-88098812D01*
X122225212Y-88115959D01*
X122231033Y-88166139D01*
X122232000Y-88171000D01*
X122232000Y-89121000D01*
X122231032Y-89125863D01*
X122225212Y-89176040D01*
X122217641Y-89193185D01*
X122212970Y-89216671D01*
X122196169Y-89241815D01*
X122187391Y-89261696D01*
X122173812Y-89275274D01*
X122158777Y-89297777D01*
X122136274Y-89312812D01*
X122122696Y-89326391D01*
X122102815Y-89335169D01*
X122077671Y-89351970D01*
X122054185Y-89356641D01*
X122037040Y-89364212D01*
X121986861Y-89370032D01*
X121982000Y-89371000D01*
X121307000Y-89371000D01*
X121302138Y-89370032D01*
X121251959Y-89364212D01*
X121234812Y-89356641D01*
X121211329Y-89351970D01*
X121186186Y-89335170D01*
X121166303Y-89326391D01*
X121152722Y-89312810D01*
X121130223Y-89297777D01*
X121115189Y-89275277D01*
X121101608Y-89261696D01*
X121092827Y-89241810D01*
X121076030Y-89216671D01*
X121071359Y-89193189D01*
X121063787Y-89176040D01*
X121057964Y-89125849D01*
X121057000Y-89121000D01*
X121057000Y-88171000D01*
X121057964Y-88166150D01*
X121063787Y-88115959D01*
X121071359Y-88098808D01*
X121076030Y-88075329D01*
X121092826Y-88050191D01*
X121101608Y-88030303D01*
X121115191Y-88016719D01*
X121130223Y-87994223D01*
X121152719Y-87979191D01*
X121166303Y-87965608D01*
X121186191Y-87956826D01*
X121211329Y-87940030D01*
X121234808Y-87935359D01*
X121251959Y-87927787D01*
X121302151Y-87921964D01*
X121307000Y-87921000D01*
X121982000Y-87921000D01*
X121986850Y-87921964D01*
G37*
G36*
X124061850Y-87921964D02*
G01*
X124112040Y-87927787D01*
X124129189Y-87935359D01*
X124152671Y-87940030D01*
X124177810Y-87956827D01*
X124197696Y-87965608D01*
X124211277Y-87979189D01*
X124233777Y-87994223D01*
X124248810Y-88016722D01*
X124262391Y-88030303D01*
X124271170Y-88050186D01*
X124287970Y-88075329D01*
X124292641Y-88098812D01*
X124300212Y-88115959D01*
X124306033Y-88166139D01*
X124307000Y-88171000D01*
X124307000Y-89121000D01*
X124306032Y-89125863D01*
X124300212Y-89176040D01*
X124292641Y-89193185D01*
X124287970Y-89216671D01*
X124271169Y-89241815D01*
X124262391Y-89261696D01*
X124248812Y-89275274D01*
X124233777Y-89297777D01*
X124211274Y-89312812D01*
X124197696Y-89326391D01*
X124177815Y-89335169D01*
X124152671Y-89351970D01*
X124129185Y-89356641D01*
X124112040Y-89364212D01*
X124061861Y-89370032D01*
X124057000Y-89371000D01*
X123382000Y-89371000D01*
X123377138Y-89370032D01*
X123326959Y-89364212D01*
X123309812Y-89356641D01*
X123286329Y-89351970D01*
X123261186Y-89335170D01*
X123241303Y-89326391D01*
X123227722Y-89312810D01*
X123205223Y-89297777D01*
X123190189Y-89275277D01*
X123176608Y-89261696D01*
X123167827Y-89241810D01*
X123151030Y-89216671D01*
X123146359Y-89193189D01*
X123138787Y-89176040D01*
X123132964Y-89125849D01*
X123132000Y-89121000D01*
X123132000Y-88171000D01*
X123132964Y-88166150D01*
X123138787Y-88115959D01*
X123146359Y-88098808D01*
X123151030Y-88075329D01*
X123167826Y-88050191D01*
X123176608Y-88030303D01*
X123190191Y-88016719D01*
X123205223Y-87994223D01*
X123227719Y-87979191D01*
X123241303Y-87965608D01*
X123261191Y-87956826D01*
X123286329Y-87940030D01*
X123309808Y-87935359D01*
X123326959Y-87927787D01*
X123377151Y-87921964D01*
X123382000Y-87921000D01*
X124057000Y-87921000D01*
X124061850Y-87921964D01*
G37*
G36*
X115562000Y-89355000D02*
G01*
X114562000Y-89355000D01*
X114562000Y-88405000D01*
X115562000Y-88405000D01*
X115562000Y-89355000D01*
G37*
G36*
X118162000Y-87805000D02*
G01*
X117362000Y-87805000D01*
X117362000Y-87505000D01*
X118162000Y-87505000D01*
X118162000Y-87805000D01*
G37*
G36*
X128119850Y-86522964D02*
G01*
X128164317Y-86528123D01*
X128179510Y-86534831D01*
X128201104Y-86539127D01*
X128224222Y-86554574D01*
X128241567Y-86562233D01*
X128253412Y-86574078D01*
X128274099Y-86587901D01*
X128287921Y-86608587D01*
X128299766Y-86620432D01*
X128307423Y-86637774D01*
X128322873Y-86660896D01*
X128327168Y-86682491D01*
X128333876Y-86697682D01*
X128339033Y-86742139D01*
X128340000Y-86747000D01*
X128340000Y-87497000D01*
X128339032Y-87501862D01*
X128333876Y-87546317D01*
X128327168Y-87561506D01*
X128322873Y-87583104D01*
X128307422Y-87606227D01*
X128299766Y-87623567D01*
X128287923Y-87635409D01*
X128274099Y-87656099D01*
X128253409Y-87669923D01*
X128241567Y-87681766D01*
X128224227Y-87689422D01*
X128201104Y-87704873D01*
X128179506Y-87709168D01*
X128164317Y-87715876D01*
X128119861Y-87721032D01*
X128115000Y-87722000D01*
X127665000Y-87722000D01*
X127660138Y-87721033D01*
X127615682Y-87715876D01*
X127600491Y-87709168D01*
X127578896Y-87704873D01*
X127555774Y-87689423D01*
X127538432Y-87681766D01*
X127526587Y-87669921D01*
X127505901Y-87656099D01*
X127492078Y-87635412D01*
X127480233Y-87623567D01*
X127472574Y-87606222D01*
X127457127Y-87583104D01*
X127452831Y-87561510D01*
X127446123Y-87546317D01*
X127440964Y-87501849D01*
X127440000Y-87497000D01*
X127440000Y-86747000D01*
X127440964Y-86742150D01*
X127446123Y-86697682D01*
X127452832Y-86682487D01*
X127457127Y-86660896D01*
X127472573Y-86637779D01*
X127480233Y-86620432D01*
X127492080Y-86608584D01*
X127505901Y-86587901D01*
X127526584Y-86574080D01*
X127538432Y-86562233D01*
X127555779Y-86554573D01*
X127578896Y-86539127D01*
X127600487Y-86534832D01*
X127615682Y-86528123D01*
X127660151Y-86522964D01*
X127665000Y-86522000D01*
X128115000Y-86522000D01*
X128119850Y-86522964D01*
G37*
G36*
X131419850Y-86522964D02*
G01*
X131464317Y-86528123D01*
X131479510Y-86534831D01*
X131501104Y-86539127D01*
X131524222Y-86554574D01*
X131541567Y-86562233D01*
X131553412Y-86574078D01*
X131574099Y-86587901D01*
X131587921Y-86608587D01*
X131599766Y-86620432D01*
X131607423Y-86637774D01*
X131622873Y-86660896D01*
X131627168Y-86682491D01*
X131633876Y-86697682D01*
X131639033Y-86742139D01*
X131640000Y-86747000D01*
X131640000Y-87497000D01*
X131639032Y-87501862D01*
X131633876Y-87546317D01*
X131627168Y-87561506D01*
X131622873Y-87583104D01*
X131607422Y-87606227D01*
X131599766Y-87623567D01*
X131587923Y-87635409D01*
X131574099Y-87656099D01*
X131553409Y-87669923D01*
X131541567Y-87681766D01*
X131524227Y-87689422D01*
X131501104Y-87704873D01*
X131479506Y-87709168D01*
X131464317Y-87715876D01*
X131419861Y-87721032D01*
X131415000Y-87722000D01*
X130965000Y-87722000D01*
X130960138Y-87721033D01*
X130915682Y-87715876D01*
X130900491Y-87709168D01*
X130878896Y-87704873D01*
X130855774Y-87689423D01*
X130838432Y-87681766D01*
X130826587Y-87669921D01*
X130805901Y-87656099D01*
X130792078Y-87635412D01*
X130780233Y-87623567D01*
X130772574Y-87606222D01*
X130757127Y-87583104D01*
X130752831Y-87561510D01*
X130746123Y-87546317D01*
X130740964Y-87501849D01*
X130740000Y-87497000D01*
X130740000Y-86747000D01*
X130740964Y-86742150D01*
X130746123Y-86697682D01*
X130752832Y-86682487D01*
X130757127Y-86660896D01*
X130772573Y-86637779D01*
X130780233Y-86620432D01*
X130792080Y-86608584D01*
X130805901Y-86587901D01*
X130826584Y-86574080D01*
X130838432Y-86562233D01*
X130855779Y-86554573D01*
X130878896Y-86539127D01*
X130900487Y-86534832D01*
X130915682Y-86528123D01*
X130960151Y-86522964D01*
X130965000Y-86522000D01*
X131415000Y-86522000D01*
X131419850Y-86522964D01*
G37*
G36*
X141192350Y-86268964D02*
G01*
X141242540Y-86274787D01*
X141259689Y-86282359D01*
X141283171Y-86287030D01*
X141308310Y-86303827D01*
X141328196Y-86312608D01*
X141341777Y-86326189D01*
X141364277Y-86341223D01*
X141379310Y-86363722D01*
X141392891Y-86377303D01*
X141401670Y-86397186D01*
X141418470Y-86422329D01*
X141423141Y-86445812D01*
X141430712Y-86462959D01*
X141436533Y-86513139D01*
X141437500Y-86518000D01*
X141437500Y-87218000D01*
X141436532Y-87222863D01*
X141430712Y-87273040D01*
X141423141Y-87290185D01*
X141418470Y-87313671D01*
X141401669Y-87338815D01*
X141392891Y-87358696D01*
X141379312Y-87372274D01*
X141364277Y-87394777D01*
X141341774Y-87409812D01*
X141328196Y-87423391D01*
X141308315Y-87432169D01*
X141283171Y-87448970D01*
X141259685Y-87453641D01*
X141242540Y-87461212D01*
X141192361Y-87467032D01*
X141187500Y-87468000D01*
X140287500Y-87468000D01*
X140282638Y-87467032D01*
X140232459Y-87461212D01*
X140215312Y-87453641D01*
X140191829Y-87448970D01*
X140166686Y-87432170D01*
X140146803Y-87423391D01*
X140133222Y-87409810D01*
X140110723Y-87394777D01*
X140095689Y-87372277D01*
X140082108Y-87358696D01*
X140073327Y-87338810D01*
X140056530Y-87313671D01*
X140051859Y-87290189D01*
X140044287Y-87273040D01*
X140038464Y-87222849D01*
X140037500Y-87218000D01*
X140037500Y-86518000D01*
X140038464Y-86513150D01*
X140044287Y-86462959D01*
X140051859Y-86445808D01*
X140056530Y-86422329D01*
X140073326Y-86397191D01*
X140082108Y-86377303D01*
X140095691Y-86363719D01*
X140110723Y-86341223D01*
X140133219Y-86326191D01*
X140146803Y-86312608D01*
X140166691Y-86303826D01*
X140191829Y-86287030D01*
X140215308Y-86282359D01*
X140232459Y-86274787D01*
X140282651Y-86268964D01*
X140287500Y-86268000D01*
X141187500Y-86268000D01*
X141192350Y-86268964D01*
G37*
G36*
X143478350Y-86268964D02*
G01*
X143528540Y-86274787D01*
X143545689Y-86282359D01*
X143569171Y-86287030D01*
X143594310Y-86303827D01*
X143614196Y-86312608D01*
X143627777Y-86326189D01*
X143650277Y-86341223D01*
X143665310Y-86363722D01*
X143678891Y-86377303D01*
X143687670Y-86397186D01*
X143704470Y-86422329D01*
X143709141Y-86445812D01*
X143716712Y-86462959D01*
X143722533Y-86513139D01*
X143723500Y-86518000D01*
X143723500Y-87218000D01*
X143722532Y-87222863D01*
X143716712Y-87273040D01*
X143709141Y-87290185D01*
X143704470Y-87313671D01*
X143687669Y-87338815D01*
X143678891Y-87358696D01*
X143665312Y-87372274D01*
X143650277Y-87394777D01*
X143627774Y-87409812D01*
X143614196Y-87423391D01*
X143594315Y-87432169D01*
X143569171Y-87448970D01*
X143545685Y-87453641D01*
X143528540Y-87461212D01*
X143478361Y-87467032D01*
X143473500Y-87468000D01*
X142573500Y-87468000D01*
X142568638Y-87467032D01*
X142518459Y-87461212D01*
X142501312Y-87453641D01*
X142477829Y-87448970D01*
X142452686Y-87432170D01*
X142432803Y-87423391D01*
X142419222Y-87409810D01*
X142396723Y-87394777D01*
X142381689Y-87372277D01*
X142368108Y-87358696D01*
X142359327Y-87338810D01*
X142342530Y-87313671D01*
X142337859Y-87290189D01*
X142330287Y-87273040D01*
X142324464Y-87222849D01*
X142323500Y-87218000D01*
X142323500Y-86518000D01*
X142324464Y-86513150D01*
X142330287Y-86462959D01*
X142337859Y-86445808D01*
X142342530Y-86422329D01*
X142359326Y-86397191D01*
X142368108Y-86377303D01*
X142381691Y-86363719D01*
X142396723Y-86341223D01*
X142419219Y-86326191D01*
X142432803Y-86312608D01*
X142452691Y-86303826D01*
X142477829Y-86287030D01*
X142501308Y-86282359D01*
X142518459Y-86274787D01*
X142568651Y-86268964D01*
X142573500Y-86268000D01*
X143473500Y-86268000D01*
X143478350Y-86268964D01*
G37*
G36*
X118162000Y-87305000D02*
G01*
X117362000Y-87305000D01*
X117362000Y-87005000D01*
X118162000Y-87005000D01*
X118162000Y-87305000D01*
G37*
G36*
X118162000Y-86805000D02*
G01*
X117362000Y-86805000D01*
X117362000Y-86505000D01*
X118162000Y-86505000D01*
X118162000Y-86805000D01*
G37*
G36*
X121986850Y-85127964D02*
G01*
X122037040Y-85133787D01*
X122054189Y-85141359D01*
X122077671Y-85146030D01*
X122102810Y-85162827D01*
X122122696Y-85171608D01*
X122136277Y-85185189D01*
X122158777Y-85200223D01*
X122173810Y-85222722D01*
X122187391Y-85236303D01*
X122196170Y-85256186D01*
X122212970Y-85281329D01*
X122217641Y-85304812D01*
X122225212Y-85321959D01*
X122231033Y-85372139D01*
X122232000Y-85377000D01*
X122232000Y-86327000D01*
X122231032Y-86331863D01*
X122225212Y-86382040D01*
X122217641Y-86399185D01*
X122212970Y-86422671D01*
X122196169Y-86447815D01*
X122187391Y-86467696D01*
X122173812Y-86481274D01*
X122158777Y-86503777D01*
X122136274Y-86518812D01*
X122122696Y-86532391D01*
X122102815Y-86541169D01*
X122077671Y-86557970D01*
X122054185Y-86562641D01*
X122037040Y-86570212D01*
X121986861Y-86576032D01*
X121982000Y-86577000D01*
X121307000Y-86577000D01*
X121302138Y-86576032D01*
X121251959Y-86570212D01*
X121234812Y-86562641D01*
X121211329Y-86557970D01*
X121186186Y-86541170D01*
X121166303Y-86532391D01*
X121152722Y-86518810D01*
X121130223Y-86503777D01*
X121115189Y-86481277D01*
X121101608Y-86467696D01*
X121092827Y-86447810D01*
X121076030Y-86422671D01*
X121071359Y-86399189D01*
X121063787Y-86382040D01*
X121057964Y-86331849D01*
X121057000Y-86327000D01*
X121057000Y-85377000D01*
X121057964Y-85372150D01*
X121063787Y-85321959D01*
X121071359Y-85304808D01*
X121076030Y-85281329D01*
X121092826Y-85256191D01*
X121101608Y-85236303D01*
X121115191Y-85222719D01*
X121130223Y-85200223D01*
X121152719Y-85185191D01*
X121166303Y-85171608D01*
X121186191Y-85162826D01*
X121211329Y-85146030D01*
X121234808Y-85141359D01*
X121251959Y-85133787D01*
X121302151Y-85127964D01*
X121307000Y-85127000D01*
X121982000Y-85127000D01*
X121986850Y-85127964D01*
G37*
G36*
X124061850Y-85127964D02*
G01*
X124112040Y-85133787D01*
X124129189Y-85141359D01*
X124152671Y-85146030D01*
X124177810Y-85162827D01*
X124197696Y-85171608D01*
X124211277Y-85185189D01*
X124233777Y-85200223D01*
X124248810Y-85222722D01*
X124262391Y-85236303D01*
X124271170Y-85256186D01*
X124287970Y-85281329D01*
X124292641Y-85304812D01*
X124300212Y-85321959D01*
X124306033Y-85372139D01*
X124307000Y-85377000D01*
X124307000Y-86327000D01*
X124306032Y-86331863D01*
X124300212Y-86382040D01*
X124292641Y-86399185D01*
X124287970Y-86422671D01*
X124271169Y-86447815D01*
X124262391Y-86467696D01*
X124248812Y-86481274D01*
X124233777Y-86503777D01*
X124211274Y-86518812D01*
X124197696Y-86532391D01*
X124177815Y-86541169D01*
X124152671Y-86557970D01*
X124129185Y-86562641D01*
X124112040Y-86570212D01*
X124061861Y-86576032D01*
X124057000Y-86577000D01*
X123382000Y-86577000D01*
X123377138Y-86576032D01*
X123326959Y-86570212D01*
X123309812Y-86562641D01*
X123286329Y-86557970D01*
X123261186Y-86541170D01*
X123241303Y-86532391D01*
X123227722Y-86518810D01*
X123205223Y-86503777D01*
X123190189Y-86481277D01*
X123176608Y-86467696D01*
X123167827Y-86447810D01*
X123151030Y-86422671D01*
X123146359Y-86399189D01*
X123138787Y-86382040D01*
X123132964Y-86331849D01*
X123132000Y-86327000D01*
X123132000Y-85377000D01*
X123132964Y-85372150D01*
X123138787Y-85321959D01*
X123146359Y-85304808D01*
X123151030Y-85281329D01*
X123167826Y-85256191D01*
X123176608Y-85236303D01*
X123190191Y-85222719D01*
X123205223Y-85200223D01*
X123227719Y-85185191D01*
X123241303Y-85171608D01*
X123261191Y-85162826D01*
X123286329Y-85146030D01*
X123309808Y-85141359D01*
X123326959Y-85133787D01*
X123377151Y-85127964D01*
X123382000Y-85127000D01*
X124057000Y-85127000D01*
X124061850Y-85127964D01*
G37*
G36*
X118162000Y-86305000D02*
G01*
X117362000Y-86305000D01*
X117362000Y-86005000D01*
X118162000Y-86005000D01*
X118162000Y-86305000D01*
G37*
G36*
X118162000Y-85805000D02*
G01*
X117362000Y-85805000D01*
X117362000Y-85505000D01*
X118162000Y-85505000D01*
X118162000Y-85805000D01*
G37*
G36*
X118162000Y-85305000D02*
G01*
X117362000Y-85305000D01*
X117362000Y-85005000D01*
X118162000Y-85005000D01*
X118162000Y-85305000D01*
G37*
G36*
X154156803Y-83073818D02*
G01*
X154205466Y-83106334D01*
X154237982Y-83154997D01*
X154249400Y-83212400D01*
X154249400Y-84862400D01*
X154237982Y-84919803D01*
X154205466Y-84968466D01*
X154156803Y-85000982D01*
X154099400Y-85012400D01*
X153799400Y-85012400D01*
X153741997Y-85000982D01*
X153693334Y-84968466D01*
X153660818Y-84919803D01*
X153649400Y-84862400D01*
X153649400Y-83212400D01*
X153660818Y-83154997D01*
X153693334Y-83106334D01*
X153741997Y-83073818D01*
X153799400Y-83062400D01*
X154099400Y-83062400D01*
X154156803Y-83073818D01*
G37*
G36*
X155426803Y-83073818D02*
G01*
X155475466Y-83106334D01*
X155507982Y-83154997D01*
X155519400Y-83212400D01*
X155519400Y-84862400D01*
X155507982Y-84919803D01*
X155475466Y-84968466D01*
X155426803Y-85000982D01*
X155369400Y-85012400D01*
X155069400Y-85012400D01*
X155011997Y-85000982D01*
X154963334Y-84968466D01*
X154930818Y-84919803D01*
X154919400Y-84862400D01*
X154919400Y-83212400D01*
X154930818Y-83154997D01*
X154963334Y-83106334D01*
X155011997Y-83073818D01*
X155069400Y-83062400D01*
X155369400Y-83062400D01*
X155426803Y-83073818D01*
G37*
G36*
X156696803Y-83073818D02*
G01*
X156745466Y-83106334D01*
X156777982Y-83154997D01*
X156789400Y-83212400D01*
X156789400Y-84862400D01*
X156777982Y-84919803D01*
X156745466Y-84968466D01*
X156696803Y-85000982D01*
X156639400Y-85012400D01*
X156339400Y-85012400D01*
X156281997Y-85000982D01*
X156233334Y-84968466D01*
X156200818Y-84919803D01*
X156189400Y-84862400D01*
X156189400Y-83212400D01*
X156200818Y-83154997D01*
X156233334Y-83106334D01*
X156281997Y-83073818D01*
X156339400Y-83062400D01*
X156639400Y-83062400D01*
X156696803Y-83073818D01*
G37*
G36*
X157966803Y-83073818D02*
G01*
X158015466Y-83106334D01*
X158047982Y-83154997D01*
X158059400Y-83212400D01*
X158059400Y-84862400D01*
X158047982Y-84919803D01*
X158015466Y-84968466D01*
X157966803Y-85000982D01*
X157909400Y-85012400D01*
X157609400Y-85012400D01*
X157551997Y-85000982D01*
X157503334Y-84968466D01*
X157470818Y-84919803D01*
X157459400Y-84862400D01*
X157459400Y-83212400D01*
X157470818Y-83154997D01*
X157503334Y-83106334D01*
X157551997Y-83073818D01*
X157609400Y-83062400D01*
X157909400Y-83062400D01*
X157966803Y-83073818D01*
G37*
G36*
X128119850Y-83728964D02*
G01*
X128164317Y-83734123D01*
X128179510Y-83740831D01*
X128201104Y-83745127D01*
X128224222Y-83760574D01*
X128241567Y-83768233D01*
X128253412Y-83780078D01*
X128274099Y-83793901D01*
X128287921Y-83814587D01*
X128299766Y-83826432D01*
X128307423Y-83843774D01*
X128322873Y-83866896D01*
X128327168Y-83888491D01*
X128333876Y-83903682D01*
X128339033Y-83948139D01*
X128340000Y-83953000D01*
X128340000Y-84703000D01*
X128339032Y-84707862D01*
X128333876Y-84752317D01*
X128327168Y-84767506D01*
X128322873Y-84789104D01*
X128307422Y-84812227D01*
X128299766Y-84829567D01*
X128287923Y-84841409D01*
X128274099Y-84862099D01*
X128253409Y-84875923D01*
X128241567Y-84887766D01*
X128224227Y-84895422D01*
X128201104Y-84910873D01*
X128179506Y-84915168D01*
X128164317Y-84921876D01*
X128119861Y-84927032D01*
X128115000Y-84928000D01*
X127665000Y-84928000D01*
X127660138Y-84927033D01*
X127615682Y-84921876D01*
X127600491Y-84915168D01*
X127578896Y-84910873D01*
X127555774Y-84895423D01*
X127538432Y-84887766D01*
X127526587Y-84875921D01*
X127505901Y-84862099D01*
X127492078Y-84841412D01*
X127480233Y-84829567D01*
X127472574Y-84812222D01*
X127457127Y-84789104D01*
X127452831Y-84767510D01*
X127446123Y-84752317D01*
X127440964Y-84707849D01*
X127440000Y-84703000D01*
X127440000Y-83953000D01*
X127440964Y-83948150D01*
X127446123Y-83903682D01*
X127452832Y-83888487D01*
X127457127Y-83866896D01*
X127472573Y-83843779D01*
X127480233Y-83826432D01*
X127492080Y-83814584D01*
X127505901Y-83793901D01*
X127526584Y-83780080D01*
X127538432Y-83768233D01*
X127555779Y-83760573D01*
X127578896Y-83745127D01*
X127600487Y-83740832D01*
X127615682Y-83734123D01*
X127660151Y-83728964D01*
X127665000Y-83728000D01*
X128115000Y-83728000D01*
X128119850Y-83728964D01*
G37*
G36*
X131419850Y-83728964D02*
G01*
X131464317Y-83734123D01*
X131479510Y-83740831D01*
X131501104Y-83745127D01*
X131524222Y-83760574D01*
X131541567Y-83768233D01*
X131553412Y-83780078D01*
X131574099Y-83793901D01*
X131587921Y-83814587D01*
X131599766Y-83826432D01*
X131607423Y-83843774D01*
X131622873Y-83866896D01*
X131627168Y-83888491D01*
X131633876Y-83903682D01*
X131639033Y-83948139D01*
X131640000Y-83953000D01*
X131640000Y-84703000D01*
X131639032Y-84707862D01*
X131633876Y-84752317D01*
X131627168Y-84767506D01*
X131622873Y-84789104D01*
X131607422Y-84812227D01*
X131599766Y-84829567D01*
X131587923Y-84841409D01*
X131574099Y-84862099D01*
X131553409Y-84875923D01*
X131541567Y-84887766D01*
X131524227Y-84895422D01*
X131501104Y-84910873D01*
X131479506Y-84915168D01*
X131464317Y-84921876D01*
X131419861Y-84927032D01*
X131415000Y-84928000D01*
X130965000Y-84928000D01*
X130960138Y-84927033D01*
X130915682Y-84921876D01*
X130900491Y-84915168D01*
X130878896Y-84910873D01*
X130855774Y-84895423D01*
X130838432Y-84887766D01*
X130826587Y-84875921D01*
X130805901Y-84862099D01*
X130792078Y-84841412D01*
X130780233Y-84829567D01*
X130772574Y-84812222D01*
X130757127Y-84789104D01*
X130752831Y-84767510D01*
X130746123Y-84752317D01*
X130740964Y-84707849D01*
X130740000Y-84703000D01*
X130740000Y-83953000D01*
X130740964Y-83948150D01*
X130746123Y-83903682D01*
X130752832Y-83888487D01*
X130757127Y-83866896D01*
X130772573Y-83843779D01*
X130780233Y-83826432D01*
X130792080Y-83814584D01*
X130805901Y-83793901D01*
X130826584Y-83780080D01*
X130838432Y-83768233D01*
X130855779Y-83760573D01*
X130878896Y-83745127D01*
X130900487Y-83740832D01*
X130915682Y-83734123D01*
X130960151Y-83728964D01*
X130965000Y-83728000D01*
X131415000Y-83728000D01*
X131419850Y-83728964D01*
G37*
G36*
X118162000Y-84805000D02*
G01*
X117362000Y-84805000D01*
X117362000Y-84505000D01*
X118162000Y-84505000D01*
X118162000Y-84805000D01*
G37*
G36*
X135978350Y-83095964D02*
G01*
X136028540Y-83101787D01*
X136045689Y-83109359D01*
X136069171Y-83114030D01*
X136094310Y-83130827D01*
X136114196Y-83139608D01*
X136127777Y-83153189D01*
X136150277Y-83168223D01*
X136165310Y-83190722D01*
X136178891Y-83204303D01*
X136187670Y-83224186D01*
X136204470Y-83249329D01*
X136209141Y-83272812D01*
X136216712Y-83289959D01*
X136222533Y-83340139D01*
X136223500Y-83345000D01*
X136223500Y-84295000D01*
X136222532Y-84299863D01*
X136216712Y-84350040D01*
X136209141Y-84367185D01*
X136204470Y-84390671D01*
X136187669Y-84415815D01*
X136178891Y-84435696D01*
X136165312Y-84449274D01*
X136150277Y-84471777D01*
X136127774Y-84486812D01*
X136114196Y-84500391D01*
X136094315Y-84509169D01*
X136069171Y-84525970D01*
X136045685Y-84530641D01*
X136028540Y-84538212D01*
X135978361Y-84544032D01*
X135973500Y-84545000D01*
X135298500Y-84545000D01*
X135293638Y-84544032D01*
X135243459Y-84538212D01*
X135226312Y-84530641D01*
X135202829Y-84525970D01*
X135177686Y-84509170D01*
X135157803Y-84500391D01*
X135144222Y-84486810D01*
X135121723Y-84471777D01*
X135106689Y-84449277D01*
X135093108Y-84435696D01*
X135084327Y-84415810D01*
X135067530Y-84390671D01*
X135062859Y-84367189D01*
X135055287Y-84350040D01*
X135049464Y-84299849D01*
X135048500Y-84295000D01*
X135048500Y-83345000D01*
X135049464Y-83340150D01*
X135055287Y-83289959D01*
X135062859Y-83272808D01*
X135067530Y-83249329D01*
X135084326Y-83224191D01*
X135093108Y-83204303D01*
X135106691Y-83190719D01*
X135121723Y-83168223D01*
X135144219Y-83153191D01*
X135157803Y-83139608D01*
X135177691Y-83130826D01*
X135202829Y-83114030D01*
X135226308Y-83109359D01*
X135243459Y-83101787D01*
X135293651Y-83095964D01*
X135298500Y-83095000D01*
X135973500Y-83095000D01*
X135978350Y-83095964D01*
G37*
G36*
X138053350Y-83095964D02*
G01*
X138103540Y-83101787D01*
X138120689Y-83109359D01*
X138144171Y-83114030D01*
X138169310Y-83130827D01*
X138189196Y-83139608D01*
X138202777Y-83153189D01*
X138225277Y-83168223D01*
X138240310Y-83190722D01*
X138253891Y-83204303D01*
X138262670Y-83224186D01*
X138279470Y-83249329D01*
X138284141Y-83272812D01*
X138291712Y-83289959D01*
X138297533Y-83340139D01*
X138298500Y-83345000D01*
X138298500Y-84295000D01*
X138297532Y-84299863D01*
X138291712Y-84350040D01*
X138284141Y-84367185D01*
X138279470Y-84390671D01*
X138262669Y-84415815D01*
X138253891Y-84435696D01*
X138240312Y-84449274D01*
X138225277Y-84471777D01*
X138202774Y-84486812D01*
X138189196Y-84500391D01*
X138169315Y-84509169D01*
X138144171Y-84525970D01*
X138120685Y-84530641D01*
X138103540Y-84538212D01*
X138053361Y-84544032D01*
X138048500Y-84545000D01*
X137373500Y-84545000D01*
X137368638Y-84544032D01*
X137318459Y-84538212D01*
X137301312Y-84530641D01*
X137277829Y-84525970D01*
X137252686Y-84509170D01*
X137232803Y-84500391D01*
X137219222Y-84486810D01*
X137196723Y-84471777D01*
X137181689Y-84449277D01*
X137168108Y-84435696D01*
X137159327Y-84415810D01*
X137142530Y-84390671D01*
X137137859Y-84367189D01*
X137130287Y-84350040D01*
X137124464Y-84299849D01*
X137123500Y-84295000D01*
X137123500Y-83345000D01*
X137124464Y-83340150D01*
X137130287Y-83289959D01*
X137137859Y-83272808D01*
X137142530Y-83249329D01*
X137159326Y-83224191D01*
X137168108Y-83204303D01*
X137181691Y-83190719D01*
X137196723Y-83168223D01*
X137219219Y-83153191D01*
X137232803Y-83139608D01*
X137252691Y-83130826D01*
X137277829Y-83114030D01*
X137301308Y-83109359D01*
X137318459Y-83101787D01*
X137368651Y-83095964D01*
X137373500Y-83095000D01*
X138048500Y-83095000D01*
X138053350Y-83095964D01*
G37*
G36*
X118162000Y-84305000D02*
G01*
X117362000Y-84305000D01*
X117362000Y-84005000D01*
X118162000Y-84005000D01*
X118162000Y-84305000D01*
G37*
G36*
X121986850Y-82841964D02*
G01*
X122037040Y-82847787D01*
X122054189Y-82855359D01*
X122077671Y-82860030D01*
X122102810Y-82876827D01*
X122122696Y-82885608D01*
X122136277Y-82899189D01*
X122158777Y-82914223D01*
X122173810Y-82936722D01*
X122187391Y-82950303D01*
X122196170Y-82970186D01*
X122212970Y-82995329D01*
X122217641Y-83018812D01*
X122225212Y-83035959D01*
X122231033Y-83086139D01*
X122232000Y-83091000D01*
X122232000Y-84041000D01*
X122231032Y-84045863D01*
X122225212Y-84096040D01*
X122217641Y-84113185D01*
X122212970Y-84136671D01*
X122196169Y-84161815D01*
X122187391Y-84181696D01*
X122173812Y-84195274D01*
X122158777Y-84217777D01*
X122136274Y-84232812D01*
X122122696Y-84246391D01*
X122102815Y-84255169D01*
X122077671Y-84271970D01*
X122054185Y-84276641D01*
X122037040Y-84284212D01*
X121986861Y-84290032D01*
X121982000Y-84291000D01*
X121307000Y-84291000D01*
X121302138Y-84290032D01*
X121251959Y-84284212D01*
X121234812Y-84276641D01*
X121211329Y-84271970D01*
X121186186Y-84255170D01*
X121166303Y-84246391D01*
X121152722Y-84232810D01*
X121130223Y-84217777D01*
X121115189Y-84195277D01*
X121101608Y-84181696D01*
X121092827Y-84161810D01*
X121076030Y-84136671D01*
X121071359Y-84113189D01*
X121063787Y-84096040D01*
X121057964Y-84045849D01*
X121057000Y-84041000D01*
X121057000Y-83091000D01*
X121057964Y-83086150D01*
X121063787Y-83035959D01*
X121071359Y-83018808D01*
X121076030Y-82995329D01*
X121092826Y-82970191D01*
X121101608Y-82950303D01*
X121115191Y-82936719D01*
X121130223Y-82914223D01*
X121152719Y-82899191D01*
X121166303Y-82885608D01*
X121186191Y-82876826D01*
X121211329Y-82860030D01*
X121234808Y-82855359D01*
X121251959Y-82847787D01*
X121302151Y-82841964D01*
X121307000Y-82841000D01*
X121982000Y-82841000D01*
X121986850Y-82841964D01*
G37*
G36*
X124061850Y-82841964D02*
G01*
X124112040Y-82847787D01*
X124129189Y-82855359D01*
X124152671Y-82860030D01*
X124177810Y-82876827D01*
X124197696Y-82885608D01*
X124211277Y-82899189D01*
X124233777Y-82914223D01*
X124248810Y-82936722D01*
X124262391Y-82950303D01*
X124271170Y-82970186D01*
X124287970Y-82995329D01*
X124292641Y-83018812D01*
X124300212Y-83035959D01*
X124306033Y-83086139D01*
X124307000Y-83091000D01*
X124307000Y-84041000D01*
X124306032Y-84045863D01*
X124300212Y-84096040D01*
X124292641Y-84113185D01*
X124287970Y-84136671D01*
X124271169Y-84161815D01*
X124262391Y-84181696D01*
X124248812Y-84195274D01*
X124233777Y-84217777D01*
X124211274Y-84232812D01*
X124197696Y-84246391D01*
X124177815Y-84255169D01*
X124152671Y-84271970D01*
X124129185Y-84276641D01*
X124112040Y-84284212D01*
X124061861Y-84290032D01*
X124057000Y-84291000D01*
X123382000Y-84291000D01*
X123377138Y-84290032D01*
X123326959Y-84284212D01*
X123309812Y-84276641D01*
X123286329Y-84271970D01*
X123261186Y-84255170D01*
X123241303Y-84246391D01*
X123227722Y-84232810D01*
X123205223Y-84217777D01*
X123190189Y-84195277D01*
X123176608Y-84181696D01*
X123167827Y-84161810D01*
X123151030Y-84136671D01*
X123146359Y-84113189D01*
X123138787Y-84096040D01*
X123132964Y-84045849D01*
X123132000Y-84041000D01*
X123132000Y-83091000D01*
X123132964Y-83086150D01*
X123138787Y-83035959D01*
X123146359Y-83018808D01*
X123151030Y-82995329D01*
X123167826Y-82970191D01*
X123176608Y-82950303D01*
X123190191Y-82936719D01*
X123205223Y-82914223D01*
X123227719Y-82899191D01*
X123241303Y-82885608D01*
X123261191Y-82876826D01*
X123286329Y-82860030D01*
X123309808Y-82855359D01*
X123326959Y-82847787D01*
X123377151Y-82841964D01*
X123382000Y-82841000D01*
X124057000Y-82841000D01*
X124061850Y-82841964D01*
G37*
G36*
X118162000Y-83805000D02*
G01*
X117362000Y-83805000D01*
X117362000Y-83505000D01*
X118162000Y-83505000D01*
X118162000Y-83805000D01*
G37*
G36*
X118162000Y-83305000D02*
G01*
X117362000Y-83305000D01*
X117362000Y-83005000D01*
X118162000Y-83005000D01*
X118162000Y-83305000D01*
G37*
G36*
X150949850Y-82087364D02*
G01*
X151000040Y-82093187D01*
X151017189Y-82100759D01*
X151040671Y-82105430D01*
X151065810Y-82122227D01*
X151085696Y-82131008D01*
X151099277Y-82144589D01*
X151121777Y-82159623D01*
X151136810Y-82182122D01*
X151150391Y-82195703D01*
X151159170Y-82215586D01*
X151175970Y-82240729D01*
X151180641Y-82264212D01*
X151188212Y-82281359D01*
X151194033Y-82331539D01*
X151195000Y-82336400D01*
X151195000Y-83036400D01*
X151194032Y-83041263D01*
X151188212Y-83091440D01*
X151180641Y-83108585D01*
X151175970Y-83132071D01*
X151159169Y-83157215D01*
X151150391Y-83177096D01*
X151136812Y-83190674D01*
X151121777Y-83213177D01*
X151099274Y-83228212D01*
X151085696Y-83241791D01*
X151065815Y-83250569D01*
X151040671Y-83267370D01*
X151017185Y-83272041D01*
X151000040Y-83279612D01*
X150949861Y-83285432D01*
X150945000Y-83286400D01*
X150045000Y-83286400D01*
X150040138Y-83285432D01*
X149989959Y-83279612D01*
X149972812Y-83272041D01*
X149949329Y-83267370D01*
X149924186Y-83250570D01*
X149904303Y-83241791D01*
X149890722Y-83228210D01*
X149868223Y-83213177D01*
X149853189Y-83190677D01*
X149839608Y-83177096D01*
X149830827Y-83157210D01*
X149814030Y-83132071D01*
X149809359Y-83108589D01*
X149801787Y-83091440D01*
X149795964Y-83041249D01*
X149795000Y-83036400D01*
X149795000Y-82336400D01*
X149795964Y-82331550D01*
X149801787Y-82281359D01*
X149809359Y-82264208D01*
X149814030Y-82240729D01*
X149830826Y-82215591D01*
X149839608Y-82195703D01*
X149853191Y-82182119D01*
X149868223Y-82159623D01*
X149890719Y-82144591D01*
X149904303Y-82131008D01*
X149924191Y-82122226D01*
X149949329Y-82105430D01*
X149972808Y-82100759D01*
X149989959Y-82093187D01*
X150040151Y-82087364D01*
X150045000Y-82086400D01*
X150945000Y-82086400D01*
X150949850Y-82087364D01*
G37*
G36*
X118162000Y-82805000D02*
G01*
X117362000Y-82805000D01*
X117362000Y-82505000D01*
X118162000Y-82505000D01*
X118162000Y-82805000D01*
G37*
G36*
X141842400Y-82638900D02*
G01*
X140140600Y-82638900D01*
X140140600Y-80429100D01*
X141842400Y-80429100D01*
X141842400Y-82638900D01*
G37*
G36*
X118162000Y-82305000D02*
G01*
X117362000Y-82305000D01*
X117362000Y-82005000D01*
X118162000Y-82005000D01*
X118162000Y-82305000D01*
G37*
G36*
X138727500Y-82032000D02*
G01*
X135127500Y-82032000D01*
X135127500Y-80532000D01*
X138727500Y-80532000D01*
X138727500Y-82032000D01*
G37*
G36*
X153774000Y-82030000D02*
G01*
X152774000Y-82030000D01*
X152774000Y-80530000D01*
X153774000Y-80530000D01*
X153774000Y-82030000D01*
G37*
G36*
X155074000Y-82030000D02*
G01*
X154074000Y-82030000D01*
X154074000Y-80530000D01*
X155074000Y-80530000D01*
X155074000Y-82030000D01*
G37*
G36*
X122029850Y-80555964D02*
G01*
X122080040Y-80561787D01*
X122097189Y-80569359D01*
X122120671Y-80574030D01*
X122145810Y-80590827D01*
X122165696Y-80599608D01*
X122179277Y-80613189D01*
X122201777Y-80628223D01*
X122216810Y-80650722D01*
X122230391Y-80664303D01*
X122239170Y-80684186D01*
X122255970Y-80709329D01*
X122260641Y-80732812D01*
X122268212Y-80749959D01*
X122274033Y-80800139D01*
X122275000Y-80805000D01*
X122275000Y-81755000D01*
X122274032Y-81759863D01*
X122268212Y-81810040D01*
X122260641Y-81827185D01*
X122255970Y-81850671D01*
X122239169Y-81875815D01*
X122230391Y-81895696D01*
X122216812Y-81909274D01*
X122201777Y-81931777D01*
X122179274Y-81946812D01*
X122165696Y-81960391D01*
X122145815Y-81969169D01*
X122120671Y-81985970D01*
X122097185Y-81990641D01*
X122080040Y-81998212D01*
X122029861Y-82004032D01*
X122025000Y-82005000D01*
X121350000Y-82005000D01*
X121345138Y-82004032D01*
X121294959Y-81998212D01*
X121277812Y-81990641D01*
X121254329Y-81985970D01*
X121229186Y-81969170D01*
X121209303Y-81960391D01*
X121195722Y-81946810D01*
X121173223Y-81931777D01*
X121158189Y-81909277D01*
X121144608Y-81895696D01*
X121135827Y-81875810D01*
X121119030Y-81850671D01*
X121114359Y-81827189D01*
X121106787Y-81810040D01*
X121100964Y-81759849D01*
X121100000Y-81755000D01*
X121100000Y-80805000D01*
X121100964Y-80800150D01*
X121106787Y-80749959D01*
X121114359Y-80732808D01*
X121119030Y-80709329D01*
X121135826Y-80684191D01*
X121144608Y-80664303D01*
X121158191Y-80650719D01*
X121173223Y-80628223D01*
X121195719Y-80613191D01*
X121209303Y-80599608D01*
X121229191Y-80590826D01*
X121254329Y-80574030D01*
X121277808Y-80569359D01*
X121294959Y-80561787D01*
X121345151Y-80555964D01*
X121350000Y-80555000D01*
X122025000Y-80555000D01*
X122029850Y-80555964D01*
G37*
G36*
X124104850Y-80555964D02*
G01*
X124155040Y-80561787D01*
X124172189Y-80569359D01*
X124195671Y-80574030D01*
X124220810Y-80590827D01*
X124240696Y-80599608D01*
X124254277Y-80613189D01*
X124276777Y-80628223D01*
X124291810Y-80650722D01*
X124305391Y-80664303D01*
X124314170Y-80684186D01*
X124330970Y-80709329D01*
X124335641Y-80732812D01*
X124343212Y-80749959D01*
X124349033Y-80800139D01*
X124350000Y-80805000D01*
X124350000Y-81755000D01*
X124349032Y-81759863D01*
X124343212Y-81810040D01*
X124335641Y-81827185D01*
X124330970Y-81850671D01*
X124314169Y-81875815D01*
X124305391Y-81895696D01*
X124291812Y-81909274D01*
X124276777Y-81931777D01*
X124254274Y-81946812D01*
X124240696Y-81960391D01*
X124220815Y-81969169D01*
X124195671Y-81985970D01*
X124172185Y-81990641D01*
X124155040Y-81998212D01*
X124104861Y-82004032D01*
X124100000Y-82005000D01*
X123425000Y-82005000D01*
X123420138Y-82004032D01*
X123369959Y-81998212D01*
X123352812Y-81990641D01*
X123329329Y-81985970D01*
X123304186Y-81969170D01*
X123284303Y-81960391D01*
X123270722Y-81946810D01*
X123248223Y-81931777D01*
X123233189Y-81909277D01*
X123219608Y-81895696D01*
X123210827Y-81875810D01*
X123194030Y-81850671D01*
X123189359Y-81827189D01*
X123181787Y-81810040D01*
X123175964Y-81759849D01*
X123175000Y-81755000D01*
X123175000Y-80805000D01*
X123175964Y-80800150D01*
X123181787Y-80749959D01*
X123189359Y-80732808D01*
X123194030Y-80709329D01*
X123210826Y-80684191D01*
X123219608Y-80664303D01*
X123233191Y-80650719D01*
X123248223Y-80628223D01*
X123270719Y-80613191D01*
X123284303Y-80599608D01*
X123304191Y-80590826D01*
X123329329Y-80574030D01*
X123352808Y-80569359D01*
X123369959Y-80561787D01*
X123420151Y-80555964D01*
X123425000Y-80555000D01*
X124100000Y-80555000D01*
X124104850Y-80555964D01*
G37*
G36*
X118162000Y-81805000D02*
G01*
X117362000Y-81805000D01*
X117362000Y-81505000D01*
X118162000Y-81505000D01*
X118162000Y-81805000D01*
G37*
G36*
X118162000Y-81305000D02*
G01*
X117362000Y-81305000D01*
X117362000Y-81005000D01*
X118162000Y-81005000D01*
X118162000Y-81305000D01*
G37*
G36*
X150949850Y-80087364D02*
G01*
X151000040Y-80093187D01*
X151017189Y-80100759D01*
X151040671Y-80105430D01*
X151065810Y-80122227D01*
X151085696Y-80131008D01*
X151099277Y-80144589D01*
X151121777Y-80159623D01*
X151136810Y-80182122D01*
X151150391Y-80195703D01*
X151159170Y-80215586D01*
X151175970Y-80240729D01*
X151180641Y-80264212D01*
X151188212Y-80281359D01*
X151194033Y-80331539D01*
X151195000Y-80336400D01*
X151195000Y-81036400D01*
X151194032Y-81041263D01*
X151188212Y-81091440D01*
X151180641Y-81108585D01*
X151175970Y-81132071D01*
X151159169Y-81157215D01*
X151150391Y-81177096D01*
X151136812Y-81190674D01*
X151121777Y-81213177D01*
X151099274Y-81228212D01*
X151085696Y-81241791D01*
X151065815Y-81250569D01*
X151040671Y-81267370D01*
X151017185Y-81272041D01*
X151000040Y-81279612D01*
X150949861Y-81285432D01*
X150945000Y-81286400D01*
X150045000Y-81286400D01*
X150040138Y-81285432D01*
X149989959Y-81279612D01*
X149972812Y-81272041D01*
X149949329Y-81267370D01*
X149924186Y-81250570D01*
X149904303Y-81241791D01*
X149890722Y-81228210D01*
X149868223Y-81213177D01*
X149853189Y-81190677D01*
X149839608Y-81177096D01*
X149830827Y-81157210D01*
X149814030Y-81132071D01*
X149809359Y-81108589D01*
X149801787Y-81091440D01*
X149795964Y-81041249D01*
X149795000Y-81036400D01*
X149795000Y-80336400D01*
X149795964Y-80331550D01*
X149801787Y-80281359D01*
X149809359Y-80264208D01*
X149814030Y-80240729D01*
X149830826Y-80215591D01*
X149839608Y-80195703D01*
X149853191Y-80182119D01*
X149868223Y-80159623D01*
X149890719Y-80144591D01*
X149904303Y-80131008D01*
X149924191Y-80122226D01*
X149949329Y-80105430D01*
X149972808Y-80100759D01*
X149989959Y-80093187D01*
X150040151Y-80087364D01*
X150045000Y-80086400D01*
X150945000Y-80086400D01*
X150949850Y-80087364D01*
G37*
G36*
X118162000Y-80805000D02*
G01*
X117362000Y-80805000D01*
X117362000Y-80505000D01*
X118162000Y-80505000D01*
X118162000Y-80805000D01*
G37*
G36*
X118162000Y-80305000D02*
G01*
X117362000Y-80305000D01*
X117362000Y-80005000D01*
X118162000Y-80005000D01*
X118162000Y-80305000D01*
G37*
G36*
X129352850Y-78523964D02*
G01*
X129403040Y-78529787D01*
X129420189Y-78537359D01*
X129443671Y-78542030D01*
X129468810Y-78558827D01*
X129488696Y-78567608D01*
X129502277Y-78581189D01*
X129524777Y-78596223D01*
X129539810Y-78618722D01*
X129553391Y-78632303D01*
X129562170Y-78652186D01*
X129578970Y-78677329D01*
X129583641Y-78700812D01*
X129591212Y-78717959D01*
X129597033Y-78768139D01*
X129598000Y-78773000D01*
X129598000Y-79723000D01*
X129597032Y-79727863D01*
X129591212Y-79778040D01*
X129583641Y-79795185D01*
X129578970Y-79818671D01*
X129562169Y-79843815D01*
X129553391Y-79863696D01*
X129539812Y-79877274D01*
X129524777Y-79899777D01*
X129502274Y-79914812D01*
X129488696Y-79928391D01*
X129468815Y-79937169D01*
X129443671Y-79953970D01*
X129420185Y-79958641D01*
X129403040Y-79966212D01*
X129352861Y-79972032D01*
X129348000Y-79973000D01*
X128673000Y-79973000D01*
X128668138Y-79972032D01*
X128617959Y-79966212D01*
X128600812Y-79958641D01*
X128577329Y-79953970D01*
X128552186Y-79937170D01*
X128532303Y-79928391D01*
X128518722Y-79914810D01*
X128496223Y-79899777D01*
X128481189Y-79877277D01*
X128467608Y-79863696D01*
X128458827Y-79843810D01*
X128442030Y-79818671D01*
X128437359Y-79795189D01*
X128429787Y-79778040D01*
X128423964Y-79727849D01*
X128423000Y-79723000D01*
X128423000Y-78773000D01*
X128423964Y-78768150D01*
X128429787Y-78717959D01*
X128437359Y-78700808D01*
X128442030Y-78677329D01*
X128458826Y-78652191D01*
X128467608Y-78632303D01*
X128481191Y-78618719D01*
X128496223Y-78596223D01*
X128518719Y-78581191D01*
X128532303Y-78567608D01*
X128552191Y-78558826D01*
X128577329Y-78542030D01*
X128600808Y-78537359D01*
X128617959Y-78529787D01*
X128668151Y-78523964D01*
X128673000Y-78523000D01*
X129348000Y-78523000D01*
X129352850Y-78523964D01*
G37*
G36*
X131427850Y-78523964D02*
G01*
X131478040Y-78529787D01*
X131495189Y-78537359D01*
X131518671Y-78542030D01*
X131543810Y-78558827D01*
X131563696Y-78567608D01*
X131577277Y-78581189D01*
X131599777Y-78596223D01*
X131614810Y-78618722D01*
X131628391Y-78632303D01*
X131637170Y-78652186D01*
X131653970Y-78677329D01*
X131658641Y-78700812D01*
X131666212Y-78717959D01*
X131672033Y-78768139D01*
X131673000Y-78773000D01*
X131673000Y-79723000D01*
X131672032Y-79727863D01*
X131666212Y-79778040D01*
X131658641Y-79795185D01*
X131653970Y-79818671D01*
X131637169Y-79843815D01*
X131628391Y-79863696D01*
X131614812Y-79877274D01*
X131599777Y-79899777D01*
X131577274Y-79914812D01*
X131563696Y-79928391D01*
X131543815Y-79937169D01*
X131518671Y-79953970D01*
X131495185Y-79958641D01*
X131478040Y-79966212D01*
X131427861Y-79972032D01*
X131423000Y-79973000D01*
X130748000Y-79973000D01*
X130743138Y-79972032D01*
X130692959Y-79966212D01*
X130675812Y-79958641D01*
X130652329Y-79953970D01*
X130627186Y-79937170D01*
X130607303Y-79928391D01*
X130593722Y-79914810D01*
X130571223Y-79899777D01*
X130556189Y-79877277D01*
X130542608Y-79863696D01*
X130533827Y-79843810D01*
X130517030Y-79818671D01*
X130512359Y-79795189D01*
X130504787Y-79778040D01*
X130498964Y-79727849D01*
X130498000Y-79723000D01*
X130498000Y-78773000D01*
X130498964Y-78768150D01*
X130504787Y-78717959D01*
X130512359Y-78700808D01*
X130517030Y-78677329D01*
X130533826Y-78652191D01*
X130542608Y-78632303D01*
X130556191Y-78618719D01*
X130571223Y-78596223D01*
X130593719Y-78581191D01*
X130607303Y-78567608D01*
X130627191Y-78558826D01*
X130652329Y-78542030D01*
X130675808Y-78537359D01*
X130692959Y-78529787D01*
X130743151Y-78523964D01*
X130748000Y-78523000D01*
X131423000Y-78523000D01*
X131427850Y-78523964D01*
G37*
G36*
X118162000Y-79805000D02*
G01*
X117362000Y-79805000D01*
X117362000Y-79505000D01*
X118162000Y-79505000D01*
X118162000Y-79805000D01*
G37*
G36*
X122029850Y-78269964D02*
G01*
X122080040Y-78275787D01*
X122097189Y-78283359D01*
X122120671Y-78288030D01*
X122145810Y-78304827D01*
X122165696Y-78313608D01*
X122179277Y-78327189D01*
X122201777Y-78342223D01*
X122216810Y-78364722D01*
X122230391Y-78378303D01*
X122239170Y-78398186D01*
X122255970Y-78423329D01*
X122260641Y-78446812D01*
X122268212Y-78463959D01*
X122274033Y-78514139D01*
X122275000Y-78519000D01*
X122275000Y-79469000D01*
X122274032Y-79473863D01*
X122268212Y-79524040D01*
X122260641Y-79541185D01*
X122255970Y-79564671D01*
X122239169Y-79589815D01*
X122230391Y-79609696D01*
X122216812Y-79623274D01*
X122201777Y-79645777D01*
X122179274Y-79660812D01*
X122165696Y-79674391D01*
X122145815Y-79683169D01*
X122120671Y-79699970D01*
X122097185Y-79704641D01*
X122080040Y-79712212D01*
X122029861Y-79718032D01*
X122025000Y-79719000D01*
X121350000Y-79719000D01*
X121345138Y-79718032D01*
X121294959Y-79712212D01*
X121277812Y-79704641D01*
X121254329Y-79699970D01*
X121229186Y-79683170D01*
X121209303Y-79674391D01*
X121195722Y-79660810D01*
X121173223Y-79645777D01*
X121158189Y-79623277D01*
X121144608Y-79609696D01*
X121135827Y-79589810D01*
X121119030Y-79564671D01*
X121114359Y-79541189D01*
X121106787Y-79524040D01*
X121100964Y-79473849D01*
X121100000Y-79469000D01*
X121100000Y-78519000D01*
X121100964Y-78514150D01*
X121106787Y-78463959D01*
X121114359Y-78446808D01*
X121119030Y-78423329D01*
X121135826Y-78398191D01*
X121144608Y-78378303D01*
X121158191Y-78364719D01*
X121173223Y-78342223D01*
X121195719Y-78327191D01*
X121209303Y-78313608D01*
X121229191Y-78304826D01*
X121254329Y-78288030D01*
X121277808Y-78283359D01*
X121294959Y-78275787D01*
X121345151Y-78269964D01*
X121350000Y-78269000D01*
X122025000Y-78269000D01*
X122029850Y-78269964D01*
G37*
G36*
X124104850Y-78269964D02*
G01*
X124155040Y-78275787D01*
X124172189Y-78283359D01*
X124195671Y-78288030D01*
X124220810Y-78304827D01*
X124240696Y-78313608D01*
X124254277Y-78327189D01*
X124276777Y-78342223D01*
X124291810Y-78364722D01*
X124305391Y-78378303D01*
X124314170Y-78398186D01*
X124330970Y-78423329D01*
X124335641Y-78446812D01*
X124343212Y-78463959D01*
X124349033Y-78514139D01*
X124350000Y-78519000D01*
X124350000Y-79469000D01*
X124349032Y-79473863D01*
X124343212Y-79524040D01*
X124335641Y-79541185D01*
X124330970Y-79564671D01*
X124314169Y-79589815D01*
X124305391Y-79609696D01*
X124291812Y-79623274D01*
X124276777Y-79645777D01*
X124254274Y-79660812D01*
X124240696Y-79674391D01*
X124220815Y-79683169D01*
X124195671Y-79699970D01*
X124172185Y-79704641D01*
X124155040Y-79712212D01*
X124104861Y-79718032D01*
X124100000Y-79719000D01*
X123425000Y-79719000D01*
X123420138Y-79718032D01*
X123369959Y-79712212D01*
X123352812Y-79704641D01*
X123329329Y-79699970D01*
X123304186Y-79683170D01*
X123284303Y-79674391D01*
X123270722Y-79660810D01*
X123248223Y-79645777D01*
X123233189Y-79623277D01*
X123219608Y-79609696D01*
X123210827Y-79589810D01*
X123194030Y-79564671D01*
X123189359Y-79541189D01*
X123181787Y-79524040D01*
X123175964Y-79473849D01*
X123175000Y-79469000D01*
X123175000Y-78519000D01*
X123175964Y-78514150D01*
X123181787Y-78463959D01*
X123189359Y-78446808D01*
X123194030Y-78423329D01*
X123210826Y-78398191D01*
X123219608Y-78378303D01*
X123233191Y-78364719D01*
X123248223Y-78342223D01*
X123270719Y-78327191D01*
X123284303Y-78313608D01*
X123304191Y-78304826D01*
X123329329Y-78288030D01*
X123352808Y-78283359D01*
X123369959Y-78275787D01*
X123420151Y-78269964D01*
X123425000Y-78269000D01*
X124100000Y-78269000D01*
X124104850Y-78269964D01*
G37*
G36*
X118162000Y-79305000D02*
G01*
X117362000Y-79305000D01*
X117362000Y-79005000D01*
X118162000Y-79005000D01*
X118162000Y-79305000D01*
G37*
G36*
X149267201Y-77597709D02*
G01*
X149291533Y-77613967D01*
X149307791Y-77638299D01*
X149313500Y-77667000D01*
X149313500Y-78992000D01*
X149307791Y-79020701D01*
X149291533Y-79045033D01*
X149267201Y-79061291D01*
X149238500Y-79067000D01*
X149088500Y-79067000D01*
X149059799Y-79061291D01*
X149035467Y-79045033D01*
X149019209Y-79020701D01*
X149013500Y-78992000D01*
X149013500Y-77667000D01*
X149019209Y-77638299D01*
X149035467Y-77613967D01*
X149059799Y-77597709D01*
X149088500Y-77592000D01*
X149238500Y-77592000D01*
X149267201Y-77597709D01*
G37*
G36*
X149767201Y-77597709D02*
G01*
X149791533Y-77613967D01*
X149807791Y-77638299D01*
X149813500Y-77667000D01*
X149813500Y-78992000D01*
X149807791Y-79020701D01*
X149791533Y-79045033D01*
X149767201Y-79061291D01*
X149738500Y-79067000D01*
X149588500Y-79067000D01*
X149559799Y-79061291D01*
X149535467Y-79045033D01*
X149519209Y-79020701D01*
X149513500Y-78992000D01*
X149513500Y-77667000D01*
X149519209Y-77638299D01*
X149535467Y-77613967D01*
X149559799Y-77597709D01*
X149588500Y-77592000D01*
X149738500Y-77592000D01*
X149767201Y-77597709D01*
G37*
G36*
X150267201Y-77597709D02*
G01*
X150291533Y-77613967D01*
X150307791Y-77638299D01*
X150313500Y-77667000D01*
X150313500Y-78992000D01*
X150307791Y-79020701D01*
X150291533Y-79045033D01*
X150267201Y-79061291D01*
X150238500Y-79067000D01*
X150088500Y-79067000D01*
X150059799Y-79061291D01*
X150035467Y-79045033D01*
X150019209Y-79020701D01*
X150013500Y-78992000D01*
X150013500Y-77667000D01*
X150019209Y-77638299D01*
X150035467Y-77613967D01*
X150059799Y-77597709D01*
X150088500Y-77592000D01*
X150238500Y-77592000D01*
X150267201Y-77597709D01*
G37*
G36*
X150767201Y-77597709D02*
G01*
X150791533Y-77613967D01*
X150807791Y-77638299D01*
X150813500Y-77667000D01*
X150813500Y-78992000D01*
X150807791Y-79020701D01*
X150791533Y-79045033D01*
X150767201Y-79061291D01*
X150738500Y-79067000D01*
X150588500Y-79067000D01*
X150559799Y-79061291D01*
X150535467Y-79045033D01*
X150519209Y-79020701D01*
X150513500Y-78992000D01*
X150513500Y-77667000D01*
X150519209Y-77638299D01*
X150535467Y-77613967D01*
X150559799Y-77597709D01*
X150588500Y-77592000D01*
X150738500Y-77592000D01*
X150767201Y-77597709D01*
G37*
G36*
X151267201Y-77597709D02*
G01*
X151291533Y-77613967D01*
X151307791Y-77638299D01*
X151313500Y-77667000D01*
X151313500Y-78992000D01*
X151307791Y-79020701D01*
X151291533Y-79045033D01*
X151267201Y-79061291D01*
X151238500Y-79067000D01*
X151088500Y-79067000D01*
X151059799Y-79061291D01*
X151035467Y-79045033D01*
X151019209Y-79020701D01*
X151013500Y-78992000D01*
X151013500Y-77667000D01*
X151019209Y-77638299D01*
X151035467Y-77613967D01*
X151059799Y-77597709D01*
X151088500Y-77592000D01*
X151238500Y-77592000D01*
X151267201Y-77597709D01*
G37*
G36*
X151767201Y-77597709D02*
G01*
X151791533Y-77613967D01*
X151807791Y-77638299D01*
X151813500Y-77667000D01*
X151813500Y-78992000D01*
X151807791Y-79020701D01*
X151791533Y-79045033D01*
X151767201Y-79061291D01*
X151738500Y-79067000D01*
X151588500Y-79067000D01*
X151559799Y-79061291D01*
X151535467Y-79045033D01*
X151519209Y-79020701D01*
X151513500Y-78992000D01*
X151513500Y-77667000D01*
X151519209Y-77638299D01*
X151535467Y-77613967D01*
X151559799Y-77597709D01*
X151588500Y-77592000D01*
X151738500Y-77592000D01*
X151767201Y-77597709D01*
G37*
G36*
X152267201Y-77597709D02*
G01*
X152291533Y-77613967D01*
X152307791Y-77638299D01*
X152313500Y-77667000D01*
X152313500Y-78992000D01*
X152307791Y-79020701D01*
X152291533Y-79045033D01*
X152267201Y-79061291D01*
X152238500Y-79067000D01*
X152088500Y-79067000D01*
X152059799Y-79061291D01*
X152035467Y-79045033D01*
X152019209Y-79020701D01*
X152013500Y-78992000D01*
X152013500Y-77667000D01*
X152019209Y-77638299D01*
X152035467Y-77613967D01*
X152059799Y-77597709D01*
X152088500Y-77592000D01*
X152238500Y-77592000D01*
X152267201Y-77597709D01*
G37*
G36*
X152767201Y-77597709D02*
G01*
X152791533Y-77613967D01*
X152807791Y-77638299D01*
X152813500Y-77667000D01*
X152813500Y-78992000D01*
X152807791Y-79020701D01*
X152791533Y-79045033D01*
X152767201Y-79061291D01*
X152738500Y-79067000D01*
X152588500Y-79067000D01*
X152559799Y-79061291D01*
X152535467Y-79045033D01*
X152519209Y-79020701D01*
X152513500Y-78992000D01*
X152513500Y-77667000D01*
X152519209Y-77638299D01*
X152535467Y-77613967D01*
X152559799Y-77597709D01*
X152588500Y-77592000D01*
X152738500Y-77592000D01*
X152767201Y-77597709D01*
G37*
G36*
X153267201Y-77597709D02*
G01*
X153291533Y-77613967D01*
X153307791Y-77638299D01*
X153313500Y-77667000D01*
X153313500Y-78992000D01*
X153307791Y-79020701D01*
X153291533Y-79045033D01*
X153267201Y-79061291D01*
X153238500Y-79067000D01*
X153088500Y-79067000D01*
X153059799Y-79061291D01*
X153035467Y-79045033D01*
X153019209Y-79020701D01*
X153013500Y-78992000D01*
X153013500Y-77667000D01*
X153019209Y-77638299D01*
X153035467Y-77613967D01*
X153059799Y-77597709D01*
X153088500Y-77592000D01*
X153238500Y-77592000D01*
X153267201Y-77597709D01*
G37*
G36*
X153767201Y-77597709D02*
G01*
X153791533Y-77613967D01*
X153807791Y-77638299D01*
X153813500Y-77667000D01*
X153813500Y-78992000D01*
X153807791Y-79020701D01*
X153791533Y-79045033D01*
X153767201Y-79061291D01*
X153738500Y-79067000D01*
X153588500Y-79067000D01*
X153559799Y-79061291D01*
X153535467Y-79045033D01*
X153519209Y-79020701D01*
X153513500Y-78992000D01*
X153513500Y-77667000D01*
X153519209Y-77638299D01*
X153535467Y-77613967D01*
X153559799Y-77597709D01*
X153588500Y-77592000D01*
X153738500Y-77592000D01*
X153767201Y-77597709D01*
G37*
G36*
X154267201Y-77597709D02*
G01*
X154291533Y-77613967D01*
X154307791Y-77638299D01*
X154313500Y-77667000D01*
X154313500Y-78992000D01*
X154307791Y-79020701D01*
X154291533Y-79045033D01*
X154267201Y-79061291D01*
X154238500Y-79067000D01*
X154088500Y-79067000D01*
X154059799Y-79061291D01*
X154035467Y-79045033D01*
X154019209Y-79020701D01*
X154013500Y-78992000D01*
X154013500Y-77667000D01*
X154019209Y-77638299D01*
X154035467Y-77613967D01*
X154059799Y-77597709D01*
X154088500Y-77592000D01*
X154238500Y-77592000D01*
X154267201Y-77597709D01*
G37*
G36*
X154767201Y-77597709D02*
G01*
X154791533Y-77613967D01*
X154807791Y-77638299D01*
X154813500Y-77667000D01*
X154813500Y-78992000D01*
X154807791Y-79020701D01*
X154791533Y-79045033D01*
X154767201Y-79061291D01*
X154738500Y-79067000D01*
X154588500Y-79067000D01*
X154559799Y-79061291D01*
X154535467Y-79045033D01*
X154519209Y-79020701D01*
X154513500Y-78992000D01*
X154513500Y-77667000D01*
X154519209Y-77638299D01*
X154535467Y-77613967D01*
X154559799Y-77597709D01*
X154588500Y-77592000D01*
X154738500Y-77592000D01*
X154767201Y-77597709D01*
G37*
G36*
X138727500Y-78982000D02*
G01*
X135127500Y-78982000D01*
X135127500Y-77482000D01*
X138727500Y-77482000D01*
X138727500Y-78982000D01*
G37*
G36*
X118162000Y-78805000D02*
G01*
X117362000Y-78805000D01*
X117362000Y-78505000D01*
X118162000Y-78505000D01*
X118162000Y-78805000D01*
G37*
G36*
X141842400Y-78778100D02*
G01*
X140140600Y-78778100D01*
X140140600Y-76568300D01*
X141842400Y-76568300D01*
X141842400Y-78778100D01*
G37*
G36*
X118162000Y-78305000D02*
G01*
X117362000Y-78305000D01*
X117362000Y-78005000D01*
X118162000Y-78005000D01*
X118162000Y-78305000D01*
G37*
G36*
X118162000Y-77805000D02*
G01*
X117362000Y-77805000D01*
X117362000Y-77505000D01*
X118162000Y-77505000D01*
X118162000Y-77805000D01*
G37*
G36*
X128960000Y-77583000D02*
G01*
X127460000Y-77583000D01*
X127460000Y-77133000D01*
X128960000Y-77133000D01*
X128960000Y-77583000D01*
G37*
G36*
X121986850Y-75983964D02*
G01*
X122037040Y-75989787D01*
X122054189Y-75997359D01*
X122077671Y-76002030D01*
X122102810Y-76018827D01*
X122122696Y-76027608D01*
X122136277Y-76041189D01*
X122158777Y-76056223D01*
X122173810Y-76078722D01*
X122187391Y-76092303D01*
X122196170Y-76112186D01*
X122212970Y-76137329D01*
X122217641Y-76160812D01*
X122225212Y-76177959D01*
X122231033Y-76228139D01*
X122232000Y-76233000D01*
X122232000Y-77183000D01*
X122231032Y-77187863D01*
X122225212Y-77238040D01*
X122217641Y-77255185D01*
X122212970Y-77278671D01*
X122196169Y-77303815D01*
X122187391Y-77323696D01*
X122173812Y-77337274D01*
X122158777Y-77359777D01*
X122136274Y-77374812D01*
X122122696Y-77388391D01*
X122102815Y-77397169D01*
X122077671Y-77413970D01*
X122054185Y-77418641D01*
X122037040Y-77426212D01*
X121986861Y-77432032D01*
X121982000Y-77433000D01*
X121307000Y-77433000D01*
X121302138Y-77432032D01*
X121251959Y-77426212D01*
X121234812Y-77418641D01*
X121211329Y-77413970D01*
X121186186Y-77397170D01*
X121166303Y-77388391D01*
X121152722Y-77374810D01*
X121130223Y-77359777D01*
X121115189Y-77337277D01*
X121101608Y-77323696D01*
X121092827Y-77303810D01*
X121076030Y-77278671D01*
X121071359Y-77255189D01*
X121063787Y-77238040D01*
X121057964Y-77187849D01*
X121057000Y-77183000D01*
X121057000Y-76233000D01*
X121057964Y-76228150D01*
X121063787Y-76177959D01*
X121071359Y-76160808D01*
X121076030Y-76137329D01*
X121092826Y-76112191D01*
X121101608Y-76092303D01*
X121115191Y-76078719D01*
X121130223Y-76056223D01*
X121152719Y-76041191D01*
X121166303Y-76027608D01*
X121186191Y-76018826D01*
X121211329Y-76002030D01*
X121234808Y-75997359D01*
X121251959Y-75989787D01*
X121302151Y-75983964D01*
X121307000Y-75983000D01*
X121982000Y-75983000D01*
X121986850Y-75983964D01*
G37*
G36*
X124061850Y-75983964D02*
G01*
X124112040Y-75989787D01*
X124129189Y-75997359D01*
X124152671Y-76002030D01*
X124177810Y-76018827D01*
X124197696Y-76027608D01*
X124211277Y-76041189D01*
X124233777Y-76056223D01*
X124248810Y-76078722D01*
X124262391Y-76092303D01*
X124271170Y-76112186D01*
X124287970Y-76137329D01*
X124292641Y-76160812D01*
X124300212Y-76177959D01*
X124306033Y-76228139D01*
X124307000Y-76233000D01*
X124307000Y-77183000D01*
X124306032Y-77187863D01*
X124300212Y-77238040D01*
X124292641Y-77255185D01*
X124287970Y-77278671D01*
X124271169Y-77303815D01*
X124262391Y-77323696D01*
X124248812Y-77337274D01*
X124233777Y-77359777D01*
X124211274Y-77374812D01*
X124197696Y-77388391D01*
X124177815Y-77397169D01*
X124152671Y-77413970D01*
X124129185Y-77418641D01*
X124112040Y-77426212D01*
X124061861Y-77432032D01*
X124057000Y-77433000D01*
X123382000Y-77433000D01*
X123377138Y-77432032D01*
X123326959Y-77426212D01*
X123309812Y-77418641D01*
X123286329Y-77413970D01*
X123261186Y-77397170D01*
X123241303Y-77388391D01*
X123227722Y-77374810D01*
X123205223Y-77359777D01*
X123190189Y-77337277D01*
X123176608Y-77323696D01*
X123167827Y-77303810D01*
X123151030Y-77278671D01*
X123146359Y-77255189D01*
X123138787Y-77238040D01*
X123132964Y-77187849D01*
X123132000Y-77183000D01*
X123132000Y-76233000D01*
X123132964Y-76228150D01*
X123138787Y-76177959D01*
X123146359Y-76160808D01*
X123151030Y-76137329D01*
X123167826Y-76112191D01*
X123176608Y-76092303D01*
X123190191Y-76078719D01*
X123205223Y-76056223D01*
X123227719Y-76041191D01*
X123241303Y-76027608D01*
X123261191Y-76018826D01*
X123286329Y-76002030D01*
X123309808Y-75997359D01*
X123326959Y-75989787D01*
X123377151Y-75983964D01*
X123382000Y-75983000D01*
X124057000Y-75983000D01*
X124061850Y-75983964D01*
G37*
G36*
X118162000Y-77305000D02*
G01*
X117362000Y-77305000D01*
X117362000Y-77005000D01*
X118162000Y-77005000D01*
X118162000Y-77305000D01*
G37*
G36*
X148442201Y-76772709D02*
G01*
X148466533Y-76788967D01*
X148482791Y-76813299D01*
X148488500Y-76842000D01*
X148488500Y-76992000D01*
X148482791Y-77020701D01*
X148466533Y-77045033D01*
X148442201Y-77061291D01*
X148413500Y-77067000D01*
X147088500Y-77067000D01*
X147059799Y-77061291D01*
X147035467Y-77045033D01*
X147019209Y-77020701D01*
X147013500Y-76992000D01*
X147013500Y-76842000D01*
X147019209Y-76813299D01*
X147035467Y-76788967D01*
X147059799Y-76772709D01*
X147088500Y-76767000D01*
X148413500Y-76767000D01*
X148442201Y-76772709D01*
G37*
G36*
X156767201Y-76772709D02*
G01*
X156791533Y-76788967D01*
X156807791Y-76813299D01*
X156813500Y-76842000D01*
X156813500Y-76992000D01*
X156807791Y-77020701D01*
X156791533Y-77045033D01*
X156767201Y-77061291D01*
X156738500Y-77067000D01*
X155413500Y-77067000D01*
X155384799Y-77061291D01*
X155360467Y-77045033D01*
X155344209Y-77020701D01*
X155338500Y-76992000D01*
X155338500Y-76842000D01*
X155344209Y-76813299D01*
X155360467Y-76788967D01*
X155384799Y-76772709D01*
X155413500Y-76767000D01*
X156738500Y-76767000D01*
X156767201Y-76772709D01*
G37*
G36*
X131620000Y-76933000D02*
G01*
X130120000Y-76933000D01*
X130120000Y-76483000D01*
X131620000Y-76483000D01*
X131620000Y-76933000D01*
G37*
G36*
X118162000Y-76805000D02*
G01*
X117362000Y-76805000D01*
X117362000Y-76505000D01*
X118162000Y-76505000D01*
X118162000Y-76805000D01*
G37*
G36*
X134682744Y-73689123D02*
G01*
X134743869Y-73689123D01*
X134798427Y-73698227D01*
X134854623Y-73702650D01*
X134922304Y-73718899D01*
X134988228Y-73729900D01*
X135034986Y-73745952D01*
X135083465Y-73757591D01*
X135154026Y-73786818D01*
X135222543Y-73810340D01*
X135260813Y-73831050D01*
X135300902Y-73847656D01*
X135371959Y-73891200D01*
X135440422Y-73928250D01*
X135470046Y-73951307D01*
X135501568Y-73970624D01*
X135570449Y-74029454D01*
X135635922Y-74080414D01*
X135657281Y-74103616D01*
X135680528Y-74123471D01*
X135744365Y-74198214D01*
X135803711Y-74262681D01*
X135817659Y-74284030D01*
X135833375Y-74302431D01*
X135889221Y-74393564D01*
X135939211Y-74470079D01*
X135947022Y-74487886D01*
X135956343Y-74503097D01*
X136001261Y-74611540D01*
X136038726Y-74696951D01*
X136042008Y-74709911D01*
X136046408Y-74720534D01*
X136077623Y-74850553D01*
X136099542Y-74937108D01*
X136100141Y-74944348D01*
X136101349Y-74949376D01*
X136116296Y-75139307D01*
X136120000Y-75184000D01*
X136116296Y-75228696D01*
X136101349Y-75418623D01*
X136100142Y-75423650D01*
X136099542Y-75430892D01*
X136077618Y-75517464D01*
X136046408Y-75647465D01*
X136042008Y-75658085D01*
X136038726Y-75671049D01*
X136001254Y-75756476D01*
X135956343Y-75864902D01*
X135947023Y-75880109D01*
X135939211Y-75897921D01*
X135889211Y-75974450D01*
X135833375Y-76065568D01*
X135817661Y-76083965D01*
X135803711Y-76105319D01*
X135744353Y-76169798D01*
X135680528Y-76244528D01*
X135657285Y-76264378D01*
X135635922Y-76287586D01*
X135570436Y-76338555D01*
X135501568Y-76397375D01*
X135470052Y-76416687D01*
X135440422Y-76439750D01*
X135371945Y-76476807D01*
X135300902Y-76520343D01*
X135260820Y-76536945D01*
X135222543Y-76557660D01*
X135154011Y-76581186D01*
X135083465Y-76610408D01*
X135034996Y-76622044D01*
X134988228Y-76638100D01*
X134922290Y-76649103D01*
X134854623Y-76665349D01*
X134798439Y-76669770D01*
X134743869Y-76678877D01*
X134682731Y-76678877D01*
X134620000Y-76683814D01*
X134557268Y-76678877D01*
X134496131Y-76678877D01*
X134441561Y-76669770D01*
X134385376Y-76665349D01*
X134317706Y-76649102D01*
X134251772Y-76638100D01*
X134205005Y-76622045D01*
X134156534Y-76610408D01*
X134085982Y-76581184D01*
X134017457Y-76557660D01*
X133979182Y-76536946D01*
X133939097Y-76520343D01*
X133868045Y-76476802D01*
X133799578Y-76439750D01*
X133769951Y-76416690D01*
X133738431Y-76397375D01*
X133669552Y-76338546D01*
X133604078Y-76287586D01*
X133582717Y-76264382D01*
X133559471Y-76244528D01*
X133495632Y-76169783D01*
X133436289Y-76105319D01*
X133422341Y-76083970D01*
X133406624Y-76065568D01*
X133350771Y-75974425D01*
X133300789Y-75897921D01*
X133292978Y-75880115D01*
X133283656Y-75864902D01*
X133238727Y-75756435D01*
X133201274Y-75671049D01*
X133197992Y-75658092D01*
X133193591Y-75647465D01*
X133162361Y-75517388D01*
X133140458Y-75430892D01*
X133139858Y-75423656D01*
X133138650Y-75418623D01*
X133123683Y-75228456D01*
X133120000Y-75184000D01*
X133123683Y-75139547D01*
X133138650Y-74949376D01*
X133139858Y-74944342D01*
X133140458Y-74937108D01*
X133162357Y-74850629D01*
X133193591Y-74720534D01*
X133197993Y-74709905D01*
X133201274Y-74696951D01*
X133238720Y-74611581D01*
X133283656Y-74503097D01*
X133292980Y-74487881D01*
X133300789Y-74470079D01*
X133350762Y-74393589D01*
X133406624Y-74302431D01*
X133422344Y-74284025D01*
X133436289Y-74262681D01*
X133495620Y-74198229D01*
X133559471Y-74123471D01*
X133582722Y-74103612D01*
X133604078Y-74080414D01*
X133669539Y-74029463D01*
X133738431Y-73970624D01*
X133769957Y-73951304D01*
X133799578Y-73928250D01*
X133868031Y-73891204D01*
X133939097Y-73847656D01*
X133979190Y-73831048D01*
X134017457Y-73810340D01*
X134085968Y-73786820D01*
X134156534Y-73757591D01*
X134205015Y-73745951D01*
X134251772Y-73729900D01*
X134317692Y-73718899D01*
X134385376Y-73702650D01*
X134441573Y-73698227D01*
X134496131Y-73689123D01*
X134557256Y-73689123D01*
X134620000Y-73684185D01*
X134682744Y-73689123D01*
G37*
G36*
X144356243Y-73689123D02*
G01*
X144417369Y-73689123D01*
X144471927Y-73698227D01*
X144528123Y-73702650D01*
X144595804Y-73718899D01*
X144661728Y-73729900D01*
X144708486Y-73745952D01*
X144756965Y-73757591D01*
X144827526Y-73786818D01*
X144896043Y-73810340D01*
X144934313Y-73831050D01*
X144974402Y-73847656D01*
X145045459Y-73891200D01*
X145113922Y-73928250D01*
X145143546Y-73951307D01*
X145175068Y-73970624D01*
X145243949Y-74029454D01*
X145309422Y-74080414D01*
X145330781Y-74103616D01*
X145354028Y-74123471D01*
X145417865Y-74198214D01*
X145477211Y-74262681D01*
X145491159Y-74284030D01*
X145506875Y-74302431D01*
X145562721Y-74393564D01*
X145612711Y-74470079D01*
X145620522Y-74487886D01*
X145629843Y-74503097D01*
X145674761Y-74611540D01*
X145712226Y-74696951D01*
X145715508Y-74709911D01*
X145719908Y-74720534D01*
X145751123Y-74850553D01*
X145773042Y-74937108D01*
X145773641Y-74944348D01*
X145774849Y-74949376D01*
X145789796Y-75139307D01*
X145793500Y-75184000D01*
X145789796Y-75228696D01*
X145774849Y-75418623D01*
X145773642Y-75423650D01*
X145773042Y-75430892D01*
X145751118Y-75517464D01*
X145719908Y-75647465D01*
X145715508Y-75658085D01*
X145712226Y-75671049D01*
X145674754Y-75756476D01*
X145629843Y-75864902D01*
X145620523Y-75880109D01*
X145612711Y-75897921D01*
X145562711Y-75974450D01*
X145506875Y-76065568D01*
X145491161Y-76083965D01*
X145477211Y-76105319D01*
X145417853Y-76169798D01*
X145354028Y-76244528D01*
X145330785Y-76264378D01*
X145309422Y-76287586D01*
X145243936Y-76338555D01*
X145175068Y-76397375D01*
X145143552Y-76416687D01*
X145113922Y-76439750D01*
X145045445Y-76476807D01*
X144974402Y-76520343D01*
X144934320Y-76536945D01*
X144896043Y-76557660D01*
X144827511Y-76581186D01*
X144756965Y-76610408D01*
X144708496Y-76622044D01*
X144661728Y-76638100D01*
X144595790Y-76649103D01*
X144528123Y-76665349D01*
X144471939Y-76669770D01*
X144417369Y-76678877D01*
X144356231Y-76678877D01*
X144293499Y-76683814D01*
X144230768Y-76678877D01*
X144169631Y-76678877D01*
X144115061Y-76669770D01*
X144058876Y-76665349D01*
X143991206Y-76649102D01*
X143925272Y-76638100D01*
X143878505Y-76622045D01*
X143830034Y-76610408D01*
X143759482Y-76581184D01*
X143690957Y-76557660D01*
X143652682Y-76536946D01*
X143612597Y-76520343D01*
X143541545Y-76476802D01*
X143473078Y-76439750D01*
X143443451Y-76416690D01*
X143411931Y-76397375D01*
X143343052Y-76338546D01*
X143277578Y-76287586D01*
X143256217Y-76264382D01*
X143232971Y-76244528D01*
X143169132Y-76169783D01*
X143109789Y-76105319D01*
X143095841Y-76083970D01*
X143080124Y-76065568D01*
X143024271Y-75974425D01*
X142974289Y-75897921D01*
X142966478Y-75880115D01*
X142957156Y-75864902D01*
X142912227Y-75756435D01*
X142874774Y-75671049D01*
X142871492Y-75658092D01*
X142867091Y-75647465D01*
X142835861Y-75517388D01*
X142813958Y-75430892D01*
X142813358Y-75423656D01*
X142812150Y-75418623D01*
X142797183Y-75228456D01*
X142793500Y-75184000D01*
X142797183Y-75139547D01*
X142812150Y-74949376D01*
X142813358Y-74944342D01*
X142813958Y-74937108D01*
X142835857Y-74850629D01*
X142867091Y-74720534D01*
X142871493Y-74709905D01*
X142874774Y-74696951D01*
X142912220Y-74611581D01*
X142957156Y-74503097D01*
X142966480Y-74487881D01*
X142974289Y-74470079D01*
X143024262Y-74393589D01*
X143080124Y-74302431D01*
X143095844Y-74284025D01*
X143109789Y-74262681D01*
X143169120Y-74198229D01*
X143232971Y-74123471D01*
X143256222Y-74103612D01*
X143277578Y-74080414D01*
X143343039Y-74029463D01*
X143411931Y-73970624D01*
X143443457Y-73951304D01*
X143473078Y-73928250D01*
X143541531Y-73891204D01*
X143612597Y-73847656D01*
X143652690Y-73831048D01*
X143690957Y-73810340D01*
X143759468Y-73786820D01*
X143830034Y-73757591D01*
X143878515Y-73745951D01*
X143925272Y-73729900D01*
X143991192Y-73718899D01*
X144058876Y-73702650D01*
X144115073Y-73698227D01*
X144169631Y-73689123D01*
X144230755Y-73689123D01*
X144293499Y-73684185D01*
X144356243Y-73689123D01*
G37*
G36*
X148442201Y-76272709D02*
G01*
X148466533Y-76288967D01*
X148482791Y-76313299D01*
X148488500Y-76342000D01*
X148488500Y-76492000D01*
X148482791Y-76520701D01*
X148466533Y-76545033D01*
X148442201Y-76561291D01*
X148413500Y-76567000D01*
X147088500Y-76567000D01*
X147059799Y-76561291D01*
X147035467Y-76545033D01*
X147019209Y-76520701D01*
X147013500Y-76492000D01*
X147013500Y-76342000D01*
X147019209Y-76313299D01*
X147035467Y-76288967D01*
X147059799Y-76272709D01*
X147088500Y-76267000D01*
X148413500Y-76267000D01*
X148442201Y-76272709D01*
G37*
G36*
X156767201Y-76272709D02*
G01*
X156791533Y-76288967D01*
X156807791Y-76313299D01*
X156813500Y-76342000D01*
X156813500Y-76492000D01*
X156807791Y-76520701D01*
X156791533Y-76545033D01*
X156767201Y-76561291D01*
X156738500Y-76567000D01*
X155413500Y-76567000D01*
X155384799Y-76561291D01*
X155360467Y-76545033D01*
X155344209Y-76520701D01*
X155338500Y-76492000D01*
X155338500Y-76342000D01*
X155344209Y-76313299D01*
X155360467Y-76288967D01*
X155384799Y-76272709D01*
X155413500Y-76267000D01*
X156738500Y-76267000D01*
X156767201Y-76272709D01*
G37*
G36*
X118162000Y-76305000D02*
G01*
X117362000Y-76305000D01*
X117362000Y-76005000D01*
X118162000Y-76005000D01*
X118162000Y-76305000D01*
G37*
G36*
X128960000Y-76283000D02*
G01*
X127460000Y-76283000D01*
X127460000Y-75833000D01*
X128960000Y-75833000D01*
X128960000Y-76283000D01*
G37*
G36*
X148442201Y-75772709D02*
G01*
X148466533Y-75788967D01*
X148482791Y-75813299D01*
X148488500Y-75842000D01*
X148488500Y-75992000D01*
X148482791Y-76020701D01*
X148466533Y-76045033D01*
X148442201Y-76061291D01*
X148413500Y-76067000D01*
X147088500Y-76067000D01*
X147059799Y-76061291D01*
X147035467Y-76045033D01*
X147019209Y-76020701D01*
X147013500Y-75992000D01*
X147013500Y-75842000D01*
X147019209Y-75813299D01*
X147035467Y-75788967D01*
X147059799Y-75772709D01*
X147088500Y-75767000D01*
X148413500Y-75767000D01*
X148442201Y-75772709D01*
G37*
G36*
X156767201Y-75772709D02*
G01*
X156791533Y-75788967D01*
X156807791Y-75813299D01*
X156813500Y-75842000D01*
X156813500Y-75992000D01*
X156807791Y-76020701D01*
X156791533Y-76045033D01*
X156767201Y-76061291D01*
X156738500Y-76067000D01*
X155413500Y-76067000D01*
X155384799Y-76061291D01*
X155360467Y-76045033D01*
X155344209Y-76020701D01*
X155338500Y-75992000D01*
X155338500Y-75842000D01*
X155344209Y-75813299D01*
X155360467Y-75788967D01*
X155384799Y-75772709D01*
X155413500Y-75767000D01*
X156738500Y-75767000D01*
X156767201Y-75772709D01*
G37*
G36*
X141621348Y-74181964D02*
G01*
X141671540Y-74187787D01*
X141688689Y-74195359D01*
X141712170Y-74200030D01*
X141737307Y-74216826D01*
X141757195Y-74225608D01*
X141770778Y-74239191D01*
X141793276Y-74254224D01*
X141808308Y-74276721D01*
X141821891Y-74290304D01*
X141830671Y-74310189D01*
X141847470Y-74335330D01*
X141852140Y-74358811D01*
X141859712Y-74375959D01*
X141865536Y-74426163D01*
X141866499Y-74431002D01*
X141866499Y-74434458D01*
X141866500Y-74434467D01*
X141866500Y-74893533D01*
X141866500Y-75355999D01*
X141865534Y-75360851D01*
X141859712Y-75411040D01*
X141852141Y-75428185D01*
X141847470Y-75451670D01*
X141830670Y-75476812D01*
X141821891Y-75496695D01*
X141808310Y-75510275D01*
X141793276Y-75532776D01*
X141770775Y-75547810D01*
X141757195Y-75561391D01*
X141737312Y-75570170D01*
X141712170Y-75586970D01*
X141688687Y-75591640D01*
X141671540Y-75599212D01*
X141621336Y-75605036D01*
X141616498Y-75605999D01*
X141613041Y-75605999D01*
X141613033Y-75606000D01*
X140369967Y-75606000D01*
X140369966Y-75605999D01*
X140366501Y-75606000D01*
X140361649Y-75605035D01*
X140311459Y-75599212D01*
X140294312Y-75591640D01*
X140270830Y-75586970D01*
X140245689Y-75570171D01*
X140225804Y-75561391D01*
X140212221Y-75547808D01*
X140189724Y-75532776D01*
X140174691Y-75510278D01*
X140161108Y-75496695D01*
X140152326Y-75476807D01*
X140135530Y-75451670D01*
X140130860Y-75428191D01*
X140123287Y-75411040D01*
X140117463Y-75360836D01*
X140116501Y-75355998D01*
X140116500Y-75352540D01*
X140116500Y-75352532D01*
X140116500Y-74434467D01*
X140116500Y-74434466D01*
X140116500Y-74431001D01*
X140117464Y-74426151D01*
X140123287Y-74375959D01*
X140130859Y-74358808D01*
X140135530Y-74335330D01*
X140152325Y-74310193D01*
X140161108Y-74290304D01*
X140174693Y-74276718D01*
X140189724Y-74254224D01*
X140212218Y-74239193D01*
X140225804Y-74225608D01*
X140245693Y-74216825D01*
X140270830Y-74200030D01*
X140294307Y-74195360D01*
X140311459Y-74187787D01*
X140361665Y-74181963D01*
X140366502Y-74181001D01*
X140369958Y-74181000D01*
X140369967Y-74181000D01*
X141613033Y-74181000D01*
X141616499Y-74181000D01*
X141621348Y-74181964D01*
G37*
G36*
X148442201Y-75272709D02*
G01*
X148466533Y-75288967D01*
X148482791Y-75313299D01*
X148488500Y-75342000D01*
X148488500Y-75492000D01*
X148482791Y-75520701D01*
X148466533Y-75545033D01*
X148442201Y-75561291D01*
X148413500Y-75567000D01*
X147088500Y-75567000D01*
X147059799Y-75561291D01*
X147035467Y-75545033D01*
X147019209Y-75520701D01*
X147013500Y-75492000D01*
X147013500Y-75342000D01*
X147019209Y-75313299D01*
X147035467Y-75288967D01*
X147059799Y-75272709D01*
X147088500Y-75267000D01*
X148413500Y-75267000D01*
X148442201Y-75272709D01*
G37*
G36*
X156767201Y-75272709D02*
G01*
X156791533Y-75288967D01*
X156807791Y-75313299D01*
X156813500Y-75342000D01*
X156813500Y-75492000D01*
X156807791Y-75520701D01*
X156791533Y-75545033D01*
X156767201Y-75561291D01*
X156738500Y-75567000D01*
X155413500Y-75567000D01*
X155384799Y-75561291D01*
X155360467Y-75545033D01*
X155344209Y-75520701D01*
X155338500Y-75492000D01*
X155338500Y-75342000D01*
X155344209Y-75313299D01*
X155360467Y-75288967D01*
X155384799Y-75272709D01*
X155413500Y-75267000D01*
X156738500Y-75267000D01*
X156767201Y-75272709D01*
G37*
G36*
X115562000Y-75405000D02*
G01*
X114562000Y-75405000D01*
X114562000Y-74455000D01*
X115562000Y-74455000D01*
X115562000Y-75405000D01*
G37*
G36*
X121986850Y-73697964D02*
G01*
X122037040Y-73703787D01*
X122054189Y-73711359D01*
X122077671Y-73716030D01*
X122102810Y-73732827D01*
X122122696Y-73741608D01*
X122136277Y-73755189D01*
X122158777Y-73770223D01*
X122173810Y-73792722D01*
X122187391Y-73806303D01*
X122196170Y-73826186D01*
X122212970Y-73851329D01*
X122217641Y-73874812D01*
X122225212Y-73891959D01*
X122231033Y-73942139D01*
X122232000Y-73947000D01*
X122232000Y-74897000D01*
X122231032Y-74901863D01*
X122225212Y-74952040D01*
X122217641Y-74969185D01*
X122212970Y-74992671D01*
X122196169Y-75017815D01*
X122187391Y-75037696D01*
X122173812Y-75051274D01*
X122158777Y-75073777D01*
X122136274Y-75088812D01*
X122122696Y-75102391D01*
X122102815Y-75111169D01*
X122077671Y-75127970D01*
X122054185Y-75132641D01*
X122037040Y-75140212D01*
X121986861Y-75146032D01*
X121982000Y-75147000D01*
X121307000Y-75147000D01*
X121302138Y-75146032D01*
X121251959Y-75140212D01*
X121234812Y-75132641D01*
X121211329Y-75127970D01*
X121186186Y-75111170D01*
X121166303Y-75102391D01*
X121152722Y-75088810D01*
X121130223Y-75073777D01*
X121115189Y-75051277D01*
X121101608Y-75037696D01*
X121092827Y-75017810D01*
X121076030Y-74992671D01*
X121071359Y-74969189D01*
X121063787Y-74952040D01*
X121057964Y-74901849D01*
X121057000Y-74897000D01*
X121057000Y-73947000D01*
X121057964Y-73942150D01*
X121063787Y-73891959D01*
X121071359Y-73874808D01*
X121076030Y-73851329D01*
X121092826Y-73826191D01*
X121101608Y-73806303D01*
X121115191Y-73792719D01*
X121130223Y-73770223D01*
X121152719Y-73755191D01*
X121166303Y-73741608D01*
X121186191Y-73732826D01*
X121211329Y-73716030D01*
X121234808Y-73711359D01*
X121251959Y-73703787D01*
X121302151Y-73697964D01*
X121307000Y-73697000D01*
X121982000Y-73697000D01*
X121986850Y-73697964D01*
G37*
G36*
X124061850Y-73697964D02*
G01*
X124112040Y-73703787D01*
X124129189Y-73711359D01*
X124152671Y-73716030D01*
X124177810Y-73732827D01*
X124197696Y-73741608D01*
X124211277Y-73755189D01*
X124233777Y-73770223D01*
X124248810Y-73792722D01*
X124262391Y-73806303D01*
X124271170Y-73826186D01*
X124287970Y-73851329D01*
X124292641Y-73874812D01*
X124300212Y-73891959D01*
X124306033Y-73942139D01*
X124307000Y-73947000D01*
X124307000Y-74897000D01*
X124306032Y-74901863D01*
X124300212Y-74952040D01*
X124292641Y-74969185D01*
X124287970Y-74992671D01*
X124271169Y-75017815D01*
X124262391Y-75037696D01*
X124248812Y-75051274D01*
X124233777Y-75073777D01*
X124211274Y-75088812D01*
X124197696Y-75102391D01*
X124177815Y-75111169D01*
X124152671Y-75127970D01*
X124129185Y-75132641D01*
X124112040Y-75140212D01*
X124061861Y-75146032D01*
X124057000Y-75147000D01*
X123382000Y-75147000D01*
X123377138Y-75146032D01*
X123326959Y-75140212D01*
X123309812Y-75132641D01*
X123286329Y-75127970D01*
X123261186Y-75111170D01*
X123241303Y-75102391D01*
X123227722Y-75088810D01*
X123205223Y-75073777D01*
X123190189Y-75051277D01*
X123176608Y-75037696D01*
X123167827Y-75017810D01*
X123151030Y-74992671D01*
X123146359Y-74969189D01*
X123138787Y-74952040D01*
X123132964Y-74901849D01*
X123132000Y-74897000D01*
X123132000Y-73947000D01*
X123132964Y-73942150D01*
X123138787Y-73891959D01*
X123146359Y-73874808D01*
X123151030Y-73851329D01*
X123167826Y-73826191D01*
X123176608Y-73806303D01*
X123190191Y-73792719D01*
X123205223Y-73770223D01*
X123227719Y-73755191D01*
X123241303Y-73741608D01*
X123261191Y-73732826D01*
X123286329Y-73716030D01*
X123309808Y-73711359D01*
X123326959Y-73703787D01*
X123377151Y-73697964D01*
X123382000Y-73697000D01*
X124057000Y-73697000D01*
X124061850Y-73697964D01*
G37*
G36*
X148442201Y-74772709D02*
G01*
X148466533Y-74788967D01*
X148482791Y-74813299D01*
X148488500Y-74842000D01*
X148488500Y-74992000D01*
X148482791Y-75020701D01*
X148466533Y-75045033D01*
X148442201Y-75061291D01*
X148413500Y-75067000D01*
X147088500Y-75067000D01*
X147059799Y-75061291D01*
X147035467Y-75045033D01*
X147019209Y-75020701D01*
X147013500Y-74992000D01*
X147013500Y-74842000D01*
X147019209Y-74813299D01*
X147035467Y-74788967D01*
X147059799Y-74772709D01*
X147088500Y-74767000D01*
X148413500Y-74767000D01*
X148442201Y-74772709D01*
G37*
G36*
X156767201Y-74772709D02*
G01*
X156791533Y-74788967D01*
X156807791Y-74813299D01*
X156813500Y-74842000D01*
X156813500Y-74992000D01*
X156807791Y-75020701D01*
X156791533Y-75045033D01*
X156767201Y-75061291D01*
X156738500Y-75067000D01*
X155413500Y-75067000D01*
X155384799Y-75061291D01*
X155360467Y-75045033D01*
X155344209Y-75020701D01*
X155338500Y-74992000D01*
X155338500Y-74842000D01*
X155344209Y-74813299D01*
X155360467Y-74788967D01*
X155384799Y-74772709D01*
X155413500Y-74767000D01*
X156738500Y-74767000D01*
X156767201Y-74772709D01*
G37*
G36*
X148442201Y-74272709D02*
G01*
X148466533Y-74288967D01*
X148482791Y-74313299D01*
X148488500Y-74342000D01*
X148488500Y-74492000D01*
X148482791Y-74520701D01*
X148466533Y-74545033D01*
X148442201Y-74561291D01*
X148413500Y-74567000D01*
X147088500Y-74567000D01*
X147059799Y-74561291D01*
X147035467Y-74545033D01*
X147019209Y-74520701D01*
X147013500Y-74492000D01*
X147013500Y-74342000D01*
X147019209Y-74313299D01*
X147035467Y-74288967D01*
X147059799Y-74272709D01*
X147088500Y-74267000D01*
X148413500Y-74267000D01*
X148442201Y-74272709D01*
G37*
G36*
X156767201Y-74272709D02*
G01*
X156791533Y-74288967D01*
X156807791Y-74313299D01*
X156813500Y-74342000D01*
X156813500Y-74492000D01*
X156807791Y-74520701D01*
X156791533Y-74545033D01*
X156767201Y-74561291D01*
X156738500Y-74567000D01*
X155413500Y-74567000D01*
X155384799Y-74561291D01*
X155360467Y-74545033D01*
X155344209Y-74520701D01*
X155338500Y-74492000D01*
X155338500Y-74342000D01*
X155344209Y-74313299D01*
X155360467Y-74288967D01*
X155384799Y-74272709D01*
X155413500Y-74267000D01*
X156738500Y-74267000D01*
X156767201Y-74272709D01*
G37*
G36*
X148442201Y-73772709D02*
G01*
X148466533Y-73788967D01*
X148482791Y-73813299D01*
X148488500Y-73842000D01*
X148488500Y-73992000D01*
X148482791Y-74020701D01*
X148466533Y-74045033D01*
X148442201Y-74061291D01*
X148413500Y-74067000D01*
X147088500Y-74067000D01*
X147059799Y-74061291D01*
X147035467Y-74045033D01*
X147019209Y-74020701D01*
X147013500Y-73992000D01*
X147013500Y-73842000D01*
X147019209Y-73813299D01*
X147035467Y-73788967D01*
X147059799Y-73772709D01*
X147088500Y-73767000D01*
X148413500Y-73767000D01*
X148442201Y-73772709D01*
G37*
G36*
X156767201Y-73772709D02*
G01*
X156791533Y-73788967D01*
X156807791Y-73813299D01*
X156813500Y-73842000D01*
X156813500Y-73992000D01*
X156807791Y-74020701D01*
X156791533Y-74045033D01*
X156767201Y-74061291D01*
X156738500Y-74067000D01*
X155413500Y-74067000D01*
X155384799Y-74061291D01*
X155360467Y-74045033D01*
X155344209Y-74020701D01*
X155338500Y-73992000D01*
X155338500Y-73842000D01*
X155344209Y-73813299D01*
X155360467Y-73788967D01*
X155384799Y-73772709D01*
X155413500Y-73767000D01*
X156738500Y-73767000D01*
X156767201Y-73772709D01*
G37*
G36*
X148442201Y-73272709D02*
G01*
X148466533Y-73288967D01*
X148482791Y-73313299D01*
X148488500Y-73342000D01*
X148488500Y-73492000D01*
X148482791Y-73520701D01*
X148466533Y-73545033D01*
X148442201Y-73561291D01*
X148413500Y-73567000D01*
X147088500Y-73567000D01*
X147059799Y-73561291D01*
X147035467Y-73545033D01*
X147019209Y-73520701D01*
X147013500Y-73492000D01*
X147013500Y-73342000D01*
X147019209Y-73313299D01*
X147035467Y-73288967D01*
X147059799Y-73272709D01*
X147088500Y-73267000D01*
X148413500Y-73267000D01*
X148442201Y-73272709D01*
G37*
G36*
X156767201Y-73272709D02*
G01*
X156791533Y-73288967D01*
X156807791Y-73313299D01*
X156813500Y-73342000D01*
X156813500Y-73492000D01*
X156807791Y-73520701D01*
X156791533Y-73545033D01*
X156767201Y-73561291D01*
X156738500Y-73567000D01*
X155413500Y-73567000D01*
X155384799Y-73561291D01*
X155360467Y-73545033D01*
X155344209Y-73520701D01*
X155338500Y-73492000D01*
X155338500Y-73342000D01*
X155344209Y-73313299D01*
X155360467Y-73288967D01*
X155384799Y-73272709D01*
X155413500Y-73267000D01*
X156738500Y-73267000D01*
X156767201Y-73272709D01*
G37*
G36*
X148442201Y-72772709D02*
G01*
X148466533Y-72788967D01*
X148482791Y-72813299D01*
X148488500Y-72842000D01*
X148488500Y-72992000D01*
X148482791Y-73020701D01*
X148466533Y-73045033D01*
X148442201Y-73061291D01*
X148413500Y-73067000D01*
X147088500Y-73067000D01*
X147059799Y-73061291D01*
X147035467Y-73045033D01*
X147019209Y-73020701D01*
X147013500Y-72992000D01*
X147013500Y-72842000D01*
X147019209Y-72813299D01*
X147035467Y-72788967D01*
X147059799Y-72772709D01*
X147088500Y-72767000D01*
X148413500Y-72767000D01*
X148442201Y-72772709D01*
G37*
G36*
X156767201Y-72772709D02*
G01*
X156791533Y-72788967D01*
X156807791Y-72813299D01*
X156813500Y-72842000D01*
X156813500Y-72992000D01*
X156807791Y-73020701D01*
X156791533Y-73045033D01*
X156767201Y-73061291D01*
X156738500Y-73067000D01*
X155413500Y-73067000D01*
X155384799Y-73061291D01*
X155360467Y-73045033D01*
X155344209Y-73020701D01*
X155338500Y-72992000D01*
X155338500Y-72842000D01*
X155344209Y-72813299D01*
X155360467Y-72788967D01*
X155384799Y-72772709D01*
X155413500Y-72767000D01*
X156738500Y-72767000D01*
X156767201Y-72772709D01*
G37*
G36*
X130387403Y-71727918D02*
G01*
X130436066Y-71760434D01*
X130468582Y-71809097D01*
X130480000Y-71866500D01*
X130480000Y-72891500D01*
X130468582Y-72948903D01*
X130436066Y-72997566D01*
X130387403Y-73030082D01*
X130330000Y-73041500D01*
X130030000Y-73041500D01*
X129972597Y-73030082D01*
X129923934Y-72997566D01*
X129891418Y-72948903D01*
X129880000Y-72891500D01*
X129880000Y-71866500D01*
X129891418Y-71809097D01*
X129923934Y-71760434D01*
X129972597Y-71727918D01*
X130030000Y-71716500D01*
X130330000Y-71716500D01*
X130387403Y-71727918D01*
G37*
G36*
X131337403Y-71727918D02*
G01*
X131386066Y-71760434D01*
X131418582Y-71809097D01*
X131430000Y-71866500D01*
X131430000Y-72891500D01*
X131418582Y-72948903D01*
X131386066Y-72997566D01*
X131337403Y-73030082D01*
X131280000Y-73041500D01*
X130980000Y-73041500D01*
X130922597Y-73030082D01*
X130873934Y-72997566D01*
X130841418Y-72948903D01*
X130830000Y-72891500D01*
X130830000Y-71866500D01*
X130841418Y-71809097D01*
X130873934Y-71760434D01*
X130922597Y-71727918D01*
X130980000Y-71716500D01*
X131280000Y-71716500D01*
X131337403Y-71727918D01*
G37*
G36*
X132287403Y-71727918D02*
G01*
X132336066Y-71760434D01*
X132368582Y-71809097D01*
X132380000Y-71866500D01*
X132380000Y-72891500D01*
X132368582Y-72948903D01*
X132336066Y-72997566D01*
X132287403Y-73030082D01*
X132230000Y-73041500D01*
X131930000Y-73041500D01*
X131872597Y-73030082D01*
X131823934Y-72997566D01*
X131791418Y-72948903D01*
X131780000Y-72891500D01*
X131780000Y-71866500D01*
X131791418Y-71809097D01*
X131823934Y-71760434D01*
X131872597Y-71727918D01*
X131930000Y-71716500D01*
X132230000Y-71716500D01*
X132287403Y-71727918D01*
G37*
G36*
X121986850Y-71411964D02*
G01*
X122037040Y-71417787D01*
X122054189Y-71425359D01*
X122077671Y-71430030D01*
X122102810Y-71446827D01*
X122122696Y-71455608D01*
X122136277Y-71469189D01*
X122158777Y-71484223D01*
X122173810Y-71506722D01*
X122187391Y-71520303D01*
X122196170Y-71540186D01*
X122212970Y-71565329D01*
X122217641Y-71588812D01*
X122225212Y-71605959D01*
X122231033Y-71656139D01*
X122232000Y-71661000D01*
X122232000Y-72611000D01*
X122231032Y-72615863D01*
X122225212Y-72666040D01*
X122217641Y-72683185D01*
X122212970Y-72706671D01*
X122196169Y-72731815D01*
X122187391Y-72751696D01*
X122173812Y-72765274D01*
X122158777Y-72787777D01*
X122136274Y-72802812D01*
X122122696Y-72816391D01*
X122102815Y-72825169D01*
X122077671Y-72841970D01*
X122054185Y-72846641D01*
X122037040Y-72854212D01*
X121986861Y-72860032D01*
X121982000Y-72861000D01*
X121307000Y-72861000D01*
X121302138Y-72860032D01*
X121251959Y-72854212D01*
X121234812Y-72846641D01*
X121211329Y-72841970D01*
X121186186Y-72825170D01*
X121166303Y-72816391D01*
X121152722Y-72802810D01*
X121130223Y-72787777D01*
X121115189Y-72765277D01*
X121101608Y-72751696D01*
X121092827Y-72731810D01*
X121076030Y-72706671D01*
X121071359Y-72683189D01*
X121063787Y-72666040D01*
X121057964Y-72615849D01*
X121057000Y-72611000D01*
X121057000Y-71661000D01*
X121057964Y-71656150D01*
X121063787Y-71605959D01*
X121071359Y-71588808D01*
X121076030Y-71565329D01*
X121092826Y-71540191D01*
X121101608Y-71520303D01*
X121115191Y-71506719D01*
X121130223Y-71484223D01*
X121152719Y-71469191D01*
X121166303Y-71455608D01*
X121186191Y-71446826D01*
X121211329Y-71430030D01*
X121234808Y-71425359D01*
X121251959Y-71417787D01*
X121302151Y-71411964D01*
X121307000Y-71411000D01*
X121982000Y-71411000D01*
X121986850Y-71411964D01*
G37*
G36*
X124061850Y-71411964D02*
G01*
X124112040Y-71417787D01*
X124129189Y-71425359D01*
X124152671Y-71430030D01*
X124177810Y-71446827D01*
X124197696Y-71455608D01*
X124211277Y-71469189D01*
X124233777Y-71484223D01*
X124248810Y-71506722D01*
X124262391Y-71520303D01*
X124271170Y-71540186D01*
X124287970Y-71565329D01*
X124292641Y-71588812D01*
X124300212Y-71605959D01*
X124306033Y-71656139D01*
X124307000Y-71661000D01*
X124307000Y-72611000D01*
X124306032Y-72615863D01*
X124300212Y-72666040D01*
X124292641Y-72683185D01*
X124287970Y-72706671D01*
X124271169Y-72731815D01*
X124262391Y-72751696D01*
X124248812Y-72765274D01*
X124233777Y-72787777D01*
X124211274Y-72802812D01*
X124197696Y-72816391D01*
X124177815Y-72825169D01*
X124152671Y-72841970D01*
X124129185Y-72846641D01*
X124112040Y-72854212D01*
X124061861Y-72860032D01*
X124057000Y-72861000D01*
X123382000Y-72861000D01*
X123377138Y-72860032D01*
X123326959Y-72854212D01*
X123309812Y-72846641D01*
X123286329Y-72841970D01*
X123261186Y-72825170D01*
X123241303Y-72816391D01*
X123227722Y-72802810D01*
X123205223Y-72787777D01*
X123190189Y-72765277D01*
X123176608Y-72751696D01*
X123167827Y-72731810D01*
X123151030Y-72706671D01*
X123146359Y-72683189D01*
X123138787Y-72666040D01*
X123132964Y-72615849D01*
X123132000Y-72611000D01*
X123132000Y-71661000D01*
X123132964Y-71656150D01*
X123138787Y-71605959D01*
X123146359Y-71588808D01*
X123151030Y-71565329D01*
X123167826Y-71540191D01*
X123176608Y-71520303D01*
X123190191Y-71506719D01*
X123205223Y-71484223D01*
X123227719Y-71469191D01*
X123241303Y-71455608D01*
X123261191Y-71446826D01*
X123286329Y-71430030D01*
X123309808Y-71425359D01*
X123326959Y-71417787D01*
X123377151Y-71411964D01*
X123382000Y-71411000D01*
X124057000Y-71411000D01*
X124061850Y-71411964D01*
G37*
G36*
X136036350Y-71007964D02*
G01*
X136086540Y-71013787D01*
X136103689Y-71021359D01*
X136127171Y-71026030D01*
X136152310Y-71042827D01*
X136172196Y-71051608D01*
X136185777Y-71065189D01*
X136208277Y-71080223D01*
X136223310Y-71102722D01*
X136236891Y-71116303D01*
X136245670Y-71136186D01*
X136262470Y-71161329D01*
X136267141Y-71184812D01*
X136274712Y-71201959D01*
X136280533Y-71252139D01*
X136281500Y-71257000D01*
X136281500Y-72507000D01*
X136280532Y-72511863D01*
X136274712Y-72562040D01*
X136267141Y-72579185D01*
X136262470Y-72602671D01*
X136245669Y-72627815D01*
X136236891Y-72647696D01*
X136223312Y-72661274D01*
X136208277Y-72683777D01*
X136185774Y-72698812D01*
X136172196Y-72712391D01*
X136152315Y-72721169D01*
X136127171Y-72737970D01*
X136103685Y-72742641D01*
X136086540Y-72750212D01*
X136036361Y-72756032D01*
X136031500Y-72757000D01*
X135231500Y-72757000D01*
X135226638Y-72756032D01*
X135176459Y-72750212D01*
X135159312Y-72742641D01*
X135135829Y-72737970D01*
X135110686Y-72721170D01*
X135090803Y-72712391D01*
X135077222Y-72698810D01*
X135054723Y-72683777D01*
X135039689Y-72661277D01*
X135026108Y-72647696D01*
X135017327Y-72627810D01*
X135000530Y-72602671D01*
X134995859Y-72579189D01*
X134988287Y-72562040D01*
X134982464Y-72511849D01*
X134981500Y-72507000D01*
X134981500Y-71257000D01*
X134982464Y-71252150D01*
X134988287Y-71201959D01*
X134995859Y-71184808D01*
X135000530Y-71161329D01*
X135017326Y-71136191D01*
X135026108Y-71116303D01*
X135039691Y-71102719D01*
X135054723Y-71080223D01*
X135077219Y-71065191D01*
X135090803Y-71051608D01*
X135110691Y-71042826D01*
X135135829Y-71026030D01*
X135159308Y-71021359D01*
X135176459Y-71013787D01*
X135226651Y-71007964D01*
X135231500Y-71007000D01*
X136031500Y-71007000D01*
X136036350Y-71007964D01*
G37*
G36*
X139136350Y-71007964D02*
G01*
X139186540Y-71013787D01*
X139203689Y-71021359D01*
X139227171Y-71026030D01*
X139252310Y-71042827D01*
X139272196Y-71051608D01*
X139285777Y-71065189D01*
X139308277Y-71080223D01*
X139323310Y-71102722D01*
X139336891Y-71116303D01*
X139345670Y-71136186D01*
X139362470Y-71161329D01*
X139367141Y-71184812D01*
X139374712Y-71201959D01*
X139380533Y-71252139D01*
X139381500Y-71257000D01*
X139381500Y-72507000D01*
X139380532Y-72511863D01*
X139374712Y-72562040D01*
X139367141Y-72579185D01*
X139362470Y-72602671D01*
X139345669Y-72627815D01*
X139336891Y-72647696D01*
X139323312Y-72661274D01*
X139308277Y-72683777D01*
X139285774Y-72698812D01*
X139272196Y-72712391D01*
X139252315Y-72721169D01*
X139227171Y-72737970D01*
X139203685Y-72742641D01*
X139186540Y-72750212D01*
X139136361Y-72756032D01*
X139131500Y-72757000D01*
X138331500Y-72757000D01*
X138326638Y-72756032D01*
X138276459Y-72750212D01*
X138259312Y-72742641D01*
X138235829Y-72737970D01*
X138210686Y-72721170D01*
X138190803Y-72712391D01*
X138177222Y-72698810D01*
X138154723Y-72683777D01*
X138139689Y-72661277D01*
X138126108Y-72647696D01*
X138117327Y-72627810D01*
X138100530Y-72602671D01*
X138095859Y-72579189D01*
X138088287Y-72562040D01*
X138082464Y-72511849D01*
X138081500Y-72507000D01*
X138081500Y-71257000D01*
X138082464Y-71252150D01*
X138088287Y-71201959D01*
X138095859Y-71184808D01*
X138100530Y-71161329D01*
X138117326Y-71136191D01*
X138126108Y-71116303D01*
X138139691Y-71102719D01*
X138154723Y-71080223D01*
X138177219Y-71065191D01*
X138190803Y-71051608D01*
X138210691Y-71042826D01*
X138235829Y-71026030D01*
X138259308Y-71021359D01*
X138276459Y-71013787D01*
X138326651Y-71007964D01*
X138331500Y-71007000D01*
X139131500Y-71007000D01*
X139136350Y-71007964D01*
G37*
G36*
X141621348Y-71206964D02*
G01*
X141671540Y-71212787D01*
X141688689Y-71220359D01*
X141712170Y-71225030D01*
X141737307Y-71241826D01*
X141757195Y-71250608D01*
X141770778Y-71264191D01*
X141793276Y-71279224D01*
X141808308Y-71301721D01*
X141821891Y-71315304D01*
X141830671Y-71335189D01*
X141847470Y-71360330D01*
X141852140Y-71383811D01*
X141859712Y-71400959D01*
X141865536Y-71451163D01*
X141866499Y-71456002D01*
X141866499Y-71459458D01*
X141866500Y-71459467D01*
X141866500Y-71983533D01*
X141866500Y-72380999D01*
X141865534Y-72385851D01*
X141859712Y-72436040D01*
X141852141Y-72453185D01*
X141847470Y-72476670D01*
X141830670Y-72501812D01*
X141821891Y-72521695D01*
X141808310Y-72535275D01*
X141793276Y-72557776D01*
X141770775Y-72572810D01*
X141757195Y-72586391D01*
X141737312Y-72595170D01*
X141712170Y-72611970D01*
X141688687Y-72616640D01*
X141671540Y-72624212D01*
X141621336Y-72630036D01*
X141616498Y-72630999D01*
X141613041Y-72630999D01*
X141613033Y-72631000D01*
X140369967Y-72631000D01*
X140369966Y-72630999D01*
X140366501Y-72631000D01*
X140361649Y-72630035D01*
X140311459Y-72624212D01*
X140294312Y-72616640D01*
X140270830Y-72611970D01*
X140245689Y-72595171D01*
X140225804Y-72586391D01*
X140212221Y-72572808D01*
X140189724Y-72557776D01*
X140174691Y-72535278D01*
X140161108Y-72521695D01*
X140152326Y-72501807D01*
X140135530Y-72476670D01*
X140130860Y-72453191D01*
X140123287Y-72436040D01*
X140117463Y-72385836D01*
X140116501Y-72380998D01*
X140116500Y-72377540D01*
X140116500Y-72377532D01*
X140116500Y-71459467D01*
X140116500Y-71459466D01*
X140116500Y-71456001D01*
X140117464Y-71451151D01*
X140123287Y-71400959D01*
X140130859Y-71383808D01*
X140135530Y-71360330D01*
X140152325Y-71335193D01*
X140161108Y-71315304D01*
X140174693Y-71301718D01*
X140189724Y-71279224D01*
X140212218Y-71264193D01*
X140225804Y-71250608D01*
X140245693Y-71241825D01*
X140270830Y-71225030D01*
X140294307Y-71220360D01*
X140311459Y-71212787D01*
X140361665Y-71206963D01*
X140366502Y-71206001D01*
X140369958Y-71206000D01*
X140369967Y-71206000D01*
X141613033Y-71206000D01*
X141616499Y-71206000D01*
X141621348Y-71206964D01*
G37*
G36*
X148442201Y-72272709D02*
G01*
X148466533Y-72288967D01*
X148482791Y-72313299D01*
X148488500Y-72342000D01*
X148488500Y-72492000D01*
X148482791Y-72520701D01*
X148466533Y-72545033D01*
X148442201Y-72561291D01*
X148413500Y-72567000D01*
X147088500Y-72567000D01*
X147059799Y-72561291D01*
X147035467Y-72545033D01*
X147019209Y-72520701D01*
X147013500Y-72492000D01*
X147013500Y-72342000D01*
X147019209Y-72313299D01*
X147035467Y-72288967D01*
X147059799Y-72272709D01*
X147088500Y-72267000D01*
X148413500Y-72267000D01*
X148442201Y-72272709D01*
G37*
G36*
X156767201Y-72272709D02*
G01*
X156791533Y-72288967D01*
X156807791Y-72313299D01*
X156813500Y-72342000D01*
X156813500Y-72492000D01*
X156807791Y-72520701D01*
X156791533Y-72545033D01*
X156767201Y-72561291D01*
X156738500Y-72567000D01*
X155413500Y-72567000D01*
X155384799Y-72561291D01*
X155360467Y-72545033D01*
X155344209Y-72520701D01*
X155338500Y-72492000D01*
X155338500Y-72342000D01*
X155344209Y-72313299D01*
X155360467Y-72288967D01*
X155384799Y-72272709D01*
X155413500Y-72267000D01*
X156738500Y-72267000D01*
X156767201Y-72272709D01*
G37*
G36*
X119373350Y-71062964D02*
G01*
X119423540Y-71068787D01*
X119440689Y-71076359D01*
X119464171Y-71081030D01*
X119489310Y-71097827D01*
X119509196Y-71106608D01*
X119522777Y-71120189D01*
X119545277Y-71135223D01*
X119560310Y-71157722D01*
X119573891Y-71171303D01*
X119582670Y-71191186D01*
X119599470Y-71216329D01*
X119604141Y-71239812D01*
X119611712Y-71256959D01*
X119617533Y-71307139D01*
X119618500Y-71312000D01*
X119618500Y-71987000D01*
X119617532Y-71991863D01*
X119611712Y-72042040D01*
X119604141Y-72059185D01*
X119599470Y-72082671D01*
X119582669Y-72107815D01*
X119573891Y-72127696D01*
X119560312Y-72141274D01*
X119545277Y-72163777D01*
X119522774Y-72178812D01*
X119509196Y-72192391D01*
X119489315Y-72201169D01*
X119464171Y-72217970D01*
X119440685Y-72222641D01*
X119423540Y-72230212D01*
X119373361Y-72236032D01*
X119368500Y-72237000D01*
X118418500Y-72237000D01*
X118413638Y-72236032D01*
X118363459Y-72230212D01*
X118346312Y-72222641D01*
X118322829Y-72217970D01*
X118297686Y-72201170D01*
X118277803Y-72192391D01*
X118264222Y-72178810D01*
X118241723Y-72163777D01*
X118226689Y-72141277D01*
X118213108Y-72127696D01*
X118204327Y-72107810D01*
X118187530Y-72082671D01*
X118182859Y-72059189D01*
X118175287Y-72042040D01*
X118169464Y-71991849D01*
X118168500Y-71987000D01*
X118168500Y-71312000D01*
X118169464Y-71307150D01*
X118175287Y-71256959D01*
X118182859Y-71239808D01*
X118187530Y-71216329D01*
X118204326Y-71191191D01*
X118213108Y-71171303D01*
X118226691Y-71157719D01*
X118241723Y-71135223D01*
X118264219Y-71120191D01*
X118277803Y-71106608D01*
X118297691Y-71097826D01*
X118322829Y-71081030D01*
X118346308Y-71076359D01*
X118363459Y-71068787D01*
X118413651Y-71062964D01*
X118418500Y-71062000D01*
X119368500Y-71062000D01*
X119373350Y-71062964D01*
G37*
G36*
X148442201Y-71772709D02*
G01*
X148466533Y-71788967D01*
X148482791Y-71813299D01*
X148488500Y-71842000D01*
X148488500Y-71992000D01*
X148482791Y-72020701D01*
X148466533Y-72045033D01*
X148442201Y-72061291D01*
X148413500Y-72067000D01*
X147088500Y-72067000D01*
X147059799Y-72061291D01*
X147035467Y-72045033D01*
X147019209Y-72020701D01*
X147013500Y-71992000D01*
X147013500Y-71842000D01*
X147019209Y-71813299D01*
X147035467Y-71788967D01*
X147059799Y-71772709D01*
X147088500Y-71767000D01*
X148413500Y-71767000D01*
X148442201Y-71772709D01*
G37*
G36*
X156767201Y-71772709D02*
G01*
X156791533Y-71788967D01*
X156807791Y-71813299D01*
X156813500Y-71842000D01*
X156813500Y-71992000D01*
X156807791Y-72020701D01*
X156791533Y-72045033D01*
X156767201Y-72061291D01*
X156738500Y-72067000D01*
X155413500Y-72067000D01*
X155384799Y-72061291D01*
X155360467Y-72045033D01*
X155344209Y-72020701D01*
X155338500Y-71992000D01*
X155338500Y-71842000D01*
X155344209Y-71813299D01*
X155360467Y-71788967D01*
X155384799Y-71772709D01*
X155413500Y-71767000D01*
X156738500Y-71767000D01*
X156767201Y-71772709D01*
G37*
G36*
X143664350Y-70420964D02*
G01*
X143714540Y-70426787D01*
X143731689Y-70434359D01*
X143755171Y-70439030D01*
X143780310Y-70455827D01*
X143800196Y-70464608D01*
X143813777Y-70478189D01*
X143836277Y-70493223D01*
X143851310Y-70515722D01*
X143864891Y-70529303D01*
X143873670Y-70549186D01*
X143890470Y-70574329D01*
X143895141Y-70597812D01*
X143902712Y-70614959D01*
X143908533Y-70665139D01*
X143909500Y-70670000D01*
X143909500Y-71570000D01*
X143908532Y-71574863D01*
X143902712Y-71625040D01*
X143895141Y-71642185D01*
X143890470Y-71665671D01*
X143873669Y-71690815D01*
X143864891Y-71710696D01*
X143851312Y-71724274D01*
X143836277Y-71746777D01*
X143813774Y-71761812D01*
X143800196Y-71775391D01*
X143780315Y-71784169D01*
X143755171Y-71800970D01*
X143731685Y-71805641D01*
X143714540Y-71813212D01*
X143664361Y-71819032D01*
X143659500Y-71820000D01*
X142959500Y-71820000D01*
X142954638Y-71819032D01*
X142904459Y-71813212D01*
X142887312Y-71805641D01*
X142863829Y-71800970D01*
X142838686Y-71784170D01*
X142818803Y-71775391D01*
X142805222Y-71761810D01*
X142782723Y-71746777D01*
X142767689Y-71724277D01*
X142754108Y-71710696D01*
X142745327Y-71690810D01*
X142728530Y-71665671D01*
X142723859Y-71642189D01*
X142716287Y-71625040D01*
X142710464Y-71574849D01*
X142709500Y-71570000D01*
X142709500Y-70670000D01*
X142710464Y-70665150D01*
X142716287Y-70614959D01*
X142723859Y-70597808D01*
X142728530Y-70574329D01*
X142745326Y-70549191D01*
X142754108Y-70529303D01*
X142767691Y-70515719D01*
X142782723Y-70493223D01*
X142805219Y-70478191D01*
X142818803Y-70464608D01*
X142838691Y-70455826D01*
X142863829Y-70439030D01*
X142887308Y-70434359D01*
X142904459Y-70426787D01*
X142954651Y-70420964D01*
X142959500Y-70420000D01*
X143659500Y-70420000D01*
X143664350Y-70420964D01*
G37*
G36*
X145664350Y-70420964D02*
G01*
X145714540Y-70426787D01*
X145731689Y-70434359D01*
X145755171Y-70439030D01*
X145780310Y-70455827D01*
X145800196Y-70464608D01*
X145813777Y-70478189D01*
X145836277Y-70493223D01*
X145851310Y-70515722D01*
X145864891Y-70529303D01*
X145873670Y-70549186D01*
X145890470Y-70574329D01*
X145895141Y-70597812D01*
X145902712Y-70614959D01*
X145908533Y-70665139D01*
X145909500Y-70670000D01*
X145909500Y-71570000D01*
X145908532Y-71574863D01*
X145902712Y-71625040D01*
X145895141Y-71642185D01*
X145890470Y-71665671D01*
X145873669Y-71690815D01*
X145864891Y-71710696D01*
X145851312Y-71724274D01*
X145836277Y-71746777D01*
X145813774Y-71761812D01*
X145800196Y-71775391D01*
X145780315Y-71784169D01*
X145755171Y-71800970D01*
X145731685Y-71805641D01*
X145714540Y-71813212D01*
X145664361Y-71819032D01*
X145659500Y-71820000D01*
X144959500Y-71820000D01*
X144954638Y-71819032D01*
X144904459Y-71813212D01*
X144887312Y-71805641D01*
X144863829Y-71800970D01*
X144838686Y-71784170D01*
X144818803Y-71775391D01*
X144805222Y-71761810D01*
X144782723Y-71746777D01*
X144767689Y-71724277D01*
X144754108Y-71710696D01*
X144745327Y-71690810D01*
X144728530Y-71665671D01*
X144723859Y-71642189D01*
X144716287Y-71625040D01*
X144710464Y-71574849D01*
X144709500Y-71570000D01*
X144709500Y-70670000D01*
X144710464Y-70665150D01*
X144716287Y-70614959D01*
X144723859Y-70597808D01*
X144728530Y-70574329D01*
X144745326Y-70549191D01*
X144754108Y-70529303D01*
X144767691Y-70515719D01*
X144782723Y-70493223D01*
X144805219Y-70478191D01*
X144818803Y-70464608D01*
X144838691Y-70455826D01*
X144863829Y-70439030D01*
X144887308Y-70434359D01*
X144904459Y-70426787D01*
X144954651Y-70420964D01*
X144959500Y-70420000D01*
X145659500Y-70420000D01*
X145664350Y-70420964D01*
G37*
G36*
X148442201Y-71272709D02*
G01*
X148466533Y-71288967D01*
X148482791Y-71313299D01*
X148488500Y-71342000D01*
X148488500Y-71492000D01*
X148482791Y-71520701D01*
X148466533Y-71545033D01*
X148442201Y-71561291D01*
X148413500Y-71567000D01*
X147088500Y-71567000D01*
X147059799Y-71561291D01*
X147035467Y-71545033D01*
X147019209Y-71520701D01*
X147013500Y-71492000D01*
X147013500Y-71342000D01*
X147019209Y-71313299D01*
X147035467Y-71288967D01*
X147059799Y-71272709D01*
X147088500Y-71267000D01*
X148413500Y-71267000D01*
X148442201Y-71272709D01*
G37*
G36*
X156767201Y-71272709D02*
G01*
X156791533Y-71288967D01*
X156807791Y-71313299D01*
X156813500Y-71342000D01*
X156813500Y-71492000D01*
X156807791Y-71520701D01*
X156791533Y-71545033D01*
X156767201Y-71561291D01*
X156738500Y-71567000D01*
X155413500Y-71567000D01*
X155384799Y-71561291D01*
X155360467Y-71545033D01*
X155344209Y-71520701D01*
X155338500Y-71492000D01*
X155338500Y-71342000D01*
X155344209Y-71313299D01*
X155360467Y-71288967D01*
X155384799Y-71272709D01*
X155413500Y-71267000D01*
X156738500Y-71267000D01*
X156767201Y-71272709D01*
G37*
G36*
X130387403Y-69452918D02*
G01*
X130436066Y-69485434D01*
X130468582Y-69534097D01*
X130480000Y-69591500D01*
X130480000Y-70616500D01*
X130468582Y-70673903D01*
X130436066Y-70722566D01*
X130387403Y-70755082D01*
X130330000Y-70766500D01*
X130030000Y-70766500D01*
X129972597Y-70755082D01*
X129923934Y-70722566D01*
X129891418Y-70673903D01*
X129880000Y-70616500D01*
X129880000Y-69591500D01*
X129891418Y-69534097D01*
X129923934Y-69485434D01*
X129972597Y-69452918D01*
X130030000Y-69441500D01*
X130330000Y-69441500D01*
X130387403Y-69452918D01*
G37*
G36*
X132287403Y-69452918D02*
G01*
X132336066Y-69485434D01*
X132368582Y-69534097D01*
X132380000Y-69591500D01*
X132380000Y-70616500D01*
X132368582Y-70673903D01*
X132336066Y-70722566D01*
X132287403Y-70755082D01*
X132230000Y-70766500D01*
X131930000Y-70766500D01*
X131872597Y-70755082D01*
X131823934Y-70722566D01*
X131791418Y-70673903D01*
X131780000Y-70616500D01*
X131780000Y-69591500D01*
X131791418Y-69534097D01*
X131823934Y-69485434D01*
X131872597Y-69452918D01*
X131930000Y-69441500D01*
X132230000Y-69441500D01*
X132287403Y-69452918D01*
G37*
G36*
X149267201Y-69272709D02*
G01*
X149291533Y-69288967D01*
X149307791Y-69313299D01*
X149313500Y-69342000D01*
X149313500Y-70667000D01*
X149307791Y-70695701D01*
X149291533Y-70720033D01*
X149267201Y-70736291D01*
X149238500Y-70742000D01*
X149088500Y-70742000D01*
X149059799Y-70736291D01*
X149035467Y-70720033D01*
X149019209Y-70695701D01*
X149013500Y-70667000D01*
X149013500Y-69342000D01*
X149019209Y-69313299D01*
X149035467Y-69288967D01*
X149059799Y-69272709D01*
X149088500Y-69267000D01*
X149238500Y-69267000D01*
X149267201Y-69272709D01*
G37*
G36*
X149767201Y-69272709D02*
G01*
X149791533Y-69288967D01*
X149807791Y-69313299D01*
X149813500Y-69342000D01*
X149813500Y-70667000D01*
X149807791Y-70695701D01*
X149791533Y-70720033D01*
X149767201Y-70736291D01*
X149738500Y-70742000D01*
X149588500Y-70742000D01*
X149559799Y-70736291D01*
X149535467Y-70720033D01*
X149519209Y-70695701D01*
X149513500Y-70667000D01*
X149513500Y-69342000D01*
X149519209Y-69313299D01*
X149535467Y-69288967D01*
X149559799Y-69272709D01*
X149588500Y-69267000D01*
X149738500Y-69267000D01*
X149767201Y-69272709D01*
G37*
G36*
X150267201Y-69272709D02*
G01*
X150291533Y-69288967D01*
X150307791Y-69313299D01*
X150313500Y-69342000D01*
X150313500Y-70667000D01*
X150307791Y-70695701D01*
X150291533Y-70720033D01*
X150267201Y-70736291D01*
X150238500Y-70742000D01*
X150088500Y-70742000D01*
X150059799Y-70736291D01*
X150035467Y-70720033D01*
X150019209Y-70695701D01*
X150013500Y-70667000D01*
X150013500Y-69342000D01*
X150019209Y-69313299D01*
X150035467Y-69288967D01*
X150059799Y-69272709D01*
X150088500Y-69267000D01*
X150238500Y-69267000D01*
X150267201Y-69272709D01*
G37*
G36*
X150767201Y-69272709D02*
G01*
X150791533Y-69288967D01*
X150807791Y-69313299D01*
X150813500Y-69342000D01*
X150813500Y-70667000D01*
X150807791Y-70695701D01*
X150791533Y-70720033D01*
X150767201Y-70736291D01*
X150738500Y-70742000D01*
X150588500Y-70742000D01*
X150559799Y-70736291D01*
X150535467Y-70720033D01*
X150519209Y-70695701D01*
X150513500Y-70667000D01*
X150513500Y-69342000D01*
X150519209Y-69313299D01*
X150535467Y-69288967D01*
X150559799Y-69272709D01*
X150588500Y-69267000D01*
X150738500Y-69267000D01*
X150767201Y-69272709D01*
G37*
G36*
X151267201Y-69272709D02*
G01*
X151291533Y-69288967D01*
X151307791Y-69313299D01*
X151313500Y-69342000D01*
X151313500Y-70667000D01*
X151307791Y-70695701D01*
X151291533Y-70720033D01*
X151267201Y-70736291D01*
X151238500Y-70742000D01*
X151088500Y-70742000D01*
X151059799Y-70736291D01*
X151035467Y-70720033D01*
X151019209Y-70695701D01*
X151013500Y-70667000D01*
X151013500Y-69342000D01*
X151019209Y-69313299D01*
X151035467Y-69288967D01*
X151059799Y-69272709D01*
X151088500Y-69267000D01*
X151238500Y-69267000D01*
X151267201Y-69272709D01*
G37*
G36*
X151767201Y-69272709D02*
G01*
X151791533Y-69288967D01*
X151807791Y-69313299D01*
X151813500Y-69342000D01*
X151813500Y-70667000D01*
X151807791Y-70695701D01*
X151791533Y-70720033D01*
X151767201Y-70736291D01*
X151738500Y-70742000D01*
X151588500Y-70742000D01*
X151559799Y-70736291D01*
X151535467Y-70720033D01*
X151519209Y-70695701D01*
X151513500Y-70667000D01*
X151513500Y-69342000D01*
X151519209Y-69313299D01*
X151535467Y-69288967D01*
X151559799Y-69272709D01*
X151588500Y-69267000D01*
X151738500Y-69267000D01*
X151767201Y-69272709D01*
G37*
G36*
X152267201Y-69272709D02*
G01*
X152291533Y-69288967D01*
X152307791Y-69313299D01*
X152313500Y-69342000D01*
X152313500Y-70667000D01*
X152307791Y-70695701D01*
X152291533Y-70720033D01*
X152267201Y-70736291D01*
X152238500Y-70742000D01*
X152088500Y-70742000D01*
X152059799Y-70736291D01*
X152035467Y-70720033D01*
X152019209Y-70695701D01*
X152013500Y-70667000D01*
X152013500Y-69342000D01*
X152019209Y-69313299D01*
X152035467Y-69288967D01*
X152059799Y-69272709D01*
X152088500Y-69267000D01*
X152238500Y-69267000D01*
X152267201Y-69272709D01*
G37*
G36*
X152767201Y-69272709D02*
G01*
X152791533Y-69288967D01*
X152807791Y-69313299D01*
X152813500Y-69342000D01*
X152813500Y-70667000D01*
X152807791Y-70695701D01*
X152791533Y-70720033D01*
X152767201Y-70736291D01*
X152738500Y-70742000D01*
X152588500Y-70742000D01*
X152559799Y-70736291D01*
X152535467Y-70720033D01*
X152519209Y-70695701D01*
X152513500Y-70667000D01*
X152513500Y-69342000D01*
X152519209Y-69313299D01*
X152535467Y-69288967D01*
X152559799Y-69272709D01*
X152588500Y-69267000D01*
X152738500Y-69267000D01*
X152767201Y-69272709D01*
G37*
G36*
X153267201Y-69272709D02*
G01*
X153291533Y-69288967D01*
X153307791Y-69313299D01*
X153313500Y-69342000D01*
X153313500Y-70667000D01*
X153307791Y-70695701D01*
X153291533Y-70720033D01*
X153267201Y-70736291D01*
X153238500Y-70742000D01*
X153088500Y-70742000D01*
X153059799Y-70736291D01*
X153035467Y-70720033D01*
X153019209Y-70695701D01*
X153013500Y-70667000D01*
X153013500Y-69342000D01*
X153019209Y-69313299D01*
X153035467Y-69288967D01*
X153059799Y-69272709D01*
X153088500Y-69267000D01*
X153238500Y-69267000D01*
X153267201Y-69272709D01*
G37*
G36*
X153767201Y-69272709D02*
G01*
X153791533Y-69288967D01*
X153807791Y-69313299D01*
X153813500Y-69342000D01*
X153813500Y-70667000D01*
X153807791Y-70695701D01*
X153791533Y-70720033D01*
X153767201Y-70736291D01*
X153738500Y-70742000D01*
X153588500Y-70742000D01*
X153559799Y-70736291D01*
X153535467Y-70720033D01*
X153519209Y-70695701D01*
X153513500Y-70667000D01*
X153513500Y-69342000D01*
X153519209Y-69313299D01*
X153535467Y-69288967D01*
X153559799Y-69272709D01*
X153588500Y-69267000D01*
X153738500Y-69267000D01*
X153767201Y-69272709D01*
G37*
G36*
X154267201Y-69272709D02*
G01*
X154291533Y-69288967D01*
X154307791Y-69313299D01*
X154313500Y-69342000D01*
X154313500Y-70667000D01*
X154307791Y-70695701D01*
X154291533Y-70720033D01*
X154267201Y-70736291D01*
X154238500Y-70742000D01*
X154088500Y-70742000D01*
X154059799Y-70736291D01*
X154035467Y-70720033D01*
X154019209Y-70695701D01*
X154013500Y-70667000D01*
X154013500Y-69342000D01*
X154019209Y-69313299D01*
X154035467Y-69288967D01*
X154059799Y-69272709D01*
X154088500Y-69267000D01*
X154238500Y-69267000D01*
X154267201Y-69272709D01*
G37*
G36*
X154767201Y-69272709D02*
G01*
X154791533Y-69288967D01*
X154807791Y-69313299D01*
X154813500Y-69342000D01*
X154813500Y-70667000D01*
X154807791Y-70695701D01*
X154791533Y-70720033D01*
X154767201Y-70736291D01*
X154738500Y-70742000D01*
X154588500Y-70742000D01*
X154559799Y-70736291D01*
X154535467Y-70720033D01*
X154519209Y-70695701D01*
X154513500Y-70667000D01*
X154513500Y-69342000D01*
X154519209Y-69313299D01*
X154535467Y-69288967D01*
X154559799Y-69272709D01*
X154588500Y-69267000D01*
X154738500Y-69267000D01*
X154767201Y-69272709D01*
G37*
G36*
X121986850Y-69125964D02*
G01*
X122037040Y-69131787D01*
X122054189Y-69139359D01*
X122077671Y-69144030D01*
X122102810Y-69160827D01*
X122122696Y-69169608D01*
X122136277Y-69183189D01*
X122158777Y-69198223D01*
X122173810Y-69220722D01*
X122187391Y-69234303D01*
X122196170Y-69254186D01*
X122212970Y-69279329D01*
X122217641Y-69302812D01*
X122225212Y-69319959D01*
X122231033Y-69370139D01*
X122232000Y-69375000D01*
X122232000Y-70325000D01*
X122231032Y-70329863D01*
X122225212Y-70380040D01*
X122217641Y-70397185D01*
X122212970Y-70420671D01*
X122196169Y-70445815D01*
X122187391Y-70465696D01*
X122173812Y-70479274D01*
X122158777Y-70501777D01*
X122136274Y-70516812D01*
X122122696Y-70530391D01*
X122102815Y-70539169D01*
X122077671Y-70555970D01*
X122054185Y-70560641D01*
X122037040Y-70568212D01*
X121986861Y-70574032D01*
X121982000Y-70575000D01*
X121307000Y-70575000D01*
X121302138Y-70574032D01*
X121251959Y-70568212D01*
X121234812Y-70560641D01*
X121211329Y-70555970D01*
X121186186Y-70539170D01*
X121166303Y-70530391D01*
X121152722Y-70516810D01*
X121130223Y-70501777D01*
X121115189Y-70479277D01*
X121101608Y-70465696D01*
X121092827Y-70445810D01*
X121076030Y-70420671D01*
X121071359Y-70397189D01*
X121063787Y-70380040D01*
X121057964Y-70329849D01*
X121057000Y-70325000D01*
X121057000Y-69375000D01*
X121057964Y-69370150D01*
X121063787Y-69319959D01*
X121071359Y-69302808D01*
X121076030Y-69279329D01*
X121092826Y-69254191D01*
X121101608Y-69234303D01*
X121115191Y-69220719D01*
X121130223Y-69198223D01*
X121152719Y-69183191D01*
X121166303Y-69169608D01*
X121186191Y-69160826D01*
X121211329Y-69144030D01*
X121234808Y-69139359D01*
X121251959Y-69131787D01*
X121302151Y-69125964D01*
X121307000Y-69125000D01*
X121982000Y-69125000D01*
X121986850Y-69125964D01*
G37*
G36*
X124061850Y-69125964D02*
G01*
X124112040Y-69131787D01*
X124129189Y-69139359D01*
X124152671Y-69144030D01*
X124177810Y-69160827D01*
X124197696Y-69169608D01*
X124211277Y-69183189D01*
X124233777Y-69198223D01*
X124248810Y-69220722D01*
X124262391Y-69234303D01*
X124271170Y-69254186D01*
X124287970Y-69279329D01*
X124292641Y-69302812D01*
X124300212Y-69319959D01*
X124306033Y-69370139D01*
X124307000Y-69375000D01*
X124307000Y-70325000D01*
X124306032Y-70329863D01*
X124300212Y-70380040D01*
X124292641Y-70397185D01*
X124287970Y-70420671D01*
X124271169Y-70445815D01*
X124262391Y-70465696D01*
X124248812Y-70479274D01*
X124233777Y-70501777D01*
X124211274Y-70516812D01*
X124197696Y-70530391D01*
X124177815Y-70539169D01*
X124152671Y-70555970D01*
X124129185Y-70560641D01*
X124112040Y-70568212D01*
X124061861Y-70574032D01*
X124057000Y-70575000D01*
X123382000Y-70575000D01*
X123377138Y-70574032D01*
X123326959Y-70568212D01*
X123309812Y-70560641D01*
X123286329Y-70555970D01*
X123261186Y-70539170D01*
X123241303Y-70530391D01*
X123227722Y-70516810D01*
X123205223Y-70501777D01*
X123190189Y-70479277D01*
X123176608Y-70465696D01*
X123167827Y-70445810D01*
X123151030Y-70420671D01*
X123146359Y-70397189D01*
X123138787Y-70380040D01*
X123132964Y-70329849D01*
X123132000Y-70325000D01*
X123132000Y-69375000D01*
X123132964Y-69370150D01*
X123138787Y-69319959D01*
X123146359Y-69302808D01*
X123151030Y-69279329D01*
X123167826Y-69254191D01*
X123176608Y-69234303D01*
X123190191Y-69220719D01*
X123205223Y-69198223D01*
X123227719Y-69183191D01*
X123241303Y-69169608D01*
X123261191Y-69160826D01*
X123286329Y-69144030D01*
X123309808Y-69139359D01*
X123326959Y-69131787D01*
X123377151Y-69125964D01*
X123382000Y-69125000D01*
X124057000Y-69125000D01*
X124061850Y-69125964D01*
G37*
G36*
X119373350Y-68987964D02*
G01*
X119423540Y-68993787D01*
X119440689Y-69001359D01*
X119464171Y-69006030D01*
X119489310Y-69022827D01*
X119509196Y-69031608D01*
X119522777Y-69045189D01*
X119545277Y-69060223D01*
X119560310Y-69082722D01*
X119573891Y-69096303D01*
X119582670Y-69116186D01*
X119599470Y-69141329D01*
X119604141Y-69164812D01*
X119611712Y-69181959D01*
X119617533Y-69232139D01*
X119618500Y-69237000D01*
X119618500Y-69912000D01*
X119617532Y-69916863D01*
X119611712Y-69967040D01*
X119604141Y-69984185D01*
X119599470Y-70007671D01*
X119582669Y-70032815D01*
X119573891Y-70052696D01*
X119560312Y-70066274D01*
X119545277Y-70088777D01*
X119522774Y-70103812D01*
X119509196Y-70117391D01*
X119489315Y-70126169D01*
X119464171Y-70142970D01*
X119440685Y-70147641D01*
X119423540Y-70155212D01*
X119373361Y-70161032D01*
X119368500Y-70162000D01*
X118418500Y-70162000D01*
X118413638Y-70161032D01*
X118363459Y-70155212D01*
X118346312Y-70147641D01*
X118322829Y-70142970D01*
X118297686Y-70126170D01*
X118277803Y-70117391D01*
X118264222Y-70103810D01*
X118241723Y-70088777D01*
X118226689Y-70066277D01*
X118213108Y-70052696D01*
X118204327Y-70032810D01*
X118187530Y-70007671D01*
X118182859Y-69984189D01*
X118175287Y-69967040D01*
X118169464Y-69916849D01*
X118168500Y-69912000D01*
X118168500Y-69237000D01*
X118169464Y-69232150D01*
X118175287Y-69181959D01*
X118182859Y-69164808D01*
X118187530Y-69141329D01*
X118204326Y-69116191D01*
X118213108Y-69096303D01*
X118226691Y-69082719D01*
X118241723Y-69060223D01*
X118264219Y-69045191D01*
X118277803Y-69031608D01*
X118297691Y-69022826D01*
X118322829Y-69006030D01*
X118346308Y-69001359D01*
X118363459Y-68993787D01*
X118413651Y-68987964D01*
X118418500Y-68987000D01*
X119368500Y-68987000D01*
X119373350Y-68987964D01*
G37*
M02*
