%TF.GenerationSoftware,KiCad,Pcbnew,7.0.5*%
%TF.CreationDate,2023-07-22T13:56:30+02:00*%
%TF.ProjectId,eink-NFC,65696e6b-2d4e-4464-932e-6b696361645f,rev?*%
%TF.SameCoordinates,Original*%
%TF.FileFunction,Drillmap*%
%TF.FilePolarity,Positive*%
%FSLAX45Y45*%
G04 Gerber Fmt 4.5, Leading zero omitted, Abs format (unit mm)*
G04 Created by KiCad (PCBNEW 7.0.5) date 2023-07-22 13:56:30*
%MOMM*%
%LPD*%
G01*
G04 APERTURE LIST*
%ADD10C,0.038100*%
%ADD11C,0.200000*%
G04 APERTURE END LIST*
D10*
X11200000Y-6700000D02*
X17700000Y-6700000D01*
X17700000Y-9700000D01*
X11200000Y-9700000D01*
X11200000Y-6700000D01*
D11*
X11458872Y-10013389D02*
X11458872Y-9813389D01*
X11458872Y-9813389D02*
X11506491Y-9813389D01*
X11506491Y-9813389D02*
X11535062Y-9822913D01*
X11535062Y-9822913D02*
X11554110Y-9841960D01*
X11554110Y-9841960D02*
X11563634Y-9861008D01*
X11563634Y-9861008D02*
X11573157Y-9899103D01*
X11573157Y-9899103D02*
X11573157Y-9927675D01*
X11573157Y-9927675D02*
X11563634Y-9965770D01*
X11563634Y-9965770D02*
X11554110Y-9984817D01*
X11554110Y-9984817D02*
X11535062Y-10003865D01*
X11535062Y-10003865D02*
X11506491Y-10013389D01*
X11506491Y-10013389D02*
X11458872Y-10013389D01*
X11658872Y-10013389D02*
X11658872Y-9880055D01*
X11658872Y-9918151D02*
X11668396Y-9899103D01*
X11668396Y-9899103D02*
X11677919Y-9889579D01*
X11677919Y-9889579D02*
X11696967Y-9880055D01*
X11696967Y-9880055D02*
X11716015Y-9880055D01*
X11782681Y-10013389D02*
X11782681Y-9880055D01*
X11782681Y-9813389D02*
X11773157Y-9822913D01*
X11773157Y-9822913D02*
X11782681Y-9832436D01*
X11782681Y-9832436D02*
X11792205Y-9822913D01*
X11792205Y-9822913D02*
X11782681Y-9813389D01*
X11782681Y-9813389D02*
X11782681Y-9832436D01*
X11906491Y-10013389D02*
X11887443Y-10003865D01*
X11887443Y-10003865D02*
X11877919Y-9984817D01*
X11877919Y-9984817D02*
X11877919Y-9813389D01*
X12011253Y-10013389D02*
X11992205Y-10003865D01*
X11992205Y-10003865D02*
X11982681Y-9984817D01*
X11982681Y-9984817D02*
X11982681Y-9813389D01*
X12239824Y-10013389D02*
X12239824Y-9813389D01*
X12239824Y-9813389D02*
X12306491Y-9956246D01*
X12306491Y-9956246D02*
X12373157Y-9813389D01*
X12373157Y-9813389D02*
X12373157Y-10013389D01*
X12554110Y-10013389D02*
X12554110Y-9908627D01*
X12554110Y-9908627D02*
X12544586Y-9889579D01*
X12544586Y-9889579D02*
X12525538Y-9880055D01*
X12525538Y-9880055D02*
X12487443Y-9880055D01*
X12487443Y-9880055D02*
X12468396Y-9889579D01*
X12554110Y-10003865D02*
X12535062Y-10013389D01*
X12535062Y-10013389D02*
X12487443Y-10013389D01*
X12487443Y-10013389D02*
X12468396Y-10003865D01*
X12468396Y-10003865D02*
X12458872Y-9984817D01*
X12458872Y-9984817D02*
X12458872Y-9965770D01*
X12458872Y-9965770D02*
X12468396Y-9946722D01*
X12468396Y-9946722D02*
X12487443Y-9937198D01*
X12487443Y-9937198D02*
X12535062Y-9937198D01*
X12535062Y-9937198D02*
X12554110Y-9927675D01*
X12649348Y-9880055D02*
X12649348Y-10080055D01*
X12649348Y-9889579D02*
X12668396Y-9880055D01*
X12668396Y-9880055D02*
X12706491Y-9880055D01*
X12706491Y-9880055D02*
X12725538Y-9889579D01*
X12725538Y-9889579D02*
X12735062Y-9899103D01*
X12735062Y-9899103D02*
X12744586Y-9918151D01*
X12744586Y-9918151D02*
X12744586Y-9975294D01*
X12744586Y-9975294D02*
X12735062Y-9994341D01*
X12735062Y-9994341D02*
X12725538Y-10003865D01*
X12725538Y-10003865D02*
X12706491Y-10013389D01*
X12706491Y-10013389D02*
X12668396Y-10013389D01*
X12668396Y-10013389D02*
X12649348Y-10003865D01*
X12830300Y-9994341D02*
X12839824Y-10003865D01*
X12839824Y-10003865D02*
X12830300Y-10013389D01*
X12830300Y-10013389D02*
X12820777Y-10003865D01*
X12820777Y-10003865D02*
X12830300Y-9994341D01*
X12830300Y-9994341D02*
X12830300Y-10013389D01*
X12830300Y-9889579D02*
X12839824Y-9899103D01*
X12839824Y-9899103D02*
X12830300Y-9908627D01*
X12830300Y-9908627D02*
X12820777Y-9899103D01*
X12820777Y-9899103D02*
X12830300Y-9889579D01*
X12830300Y-9889579D02*
X12830300Y-9908627D01*
M02*
