%TF.GenerationSoftware,KiCad,Pcbnew,7.0.5*%
%TF.CreationDate,2023-07-22T13:56:16+02:00*%
%TF.ProjectId,eink-NFC,65696e6b-2d4e-4464-932e-6b696361645f,rev?*%
%TF.SameCoordinates,Original*%
%TF.FileFunction,Legend,Top*%
%TF.FilePolarity,Positive*%
%FSLAX46Y46*%
G04 Gerber Fmt 4.6, Leading zero omitted, Abs format (unit mm)*
G04 Created by KiCad (PCBNEW 7.0.5) date 2023-07-22 13:56:16*
%MOMM*%
%LPD*%
G01*
G04 APERTURE LIST*
G04 Aperture macros list*
%AMRoundRect*
0 Rectangle with rounded corners*
0 $1 Rounding radius*
0 $2 $3 $4 $5 $6 $7 $8 $9 X,Y pos of 4 corners*
0 Add a 4 corners polygon primitive as box body*
4,1,4,$2,$3,$4,$5,$6,$7,$8,$9,$2,$3,0*
0 Add four circle primitives for the rounded corners*
1,1,$1+$1,$2,$3*
1,1,$1+$1,$4,$5*
1,1,$1+$1,$6,$7*
1,1,$1+$1,$8,$9*
0 Add four rect primitives between the rounded corners*
20,1,$1+$1,$2,$3,$4,$5,0*
20,1,$1+$1,$4,$5,$6,$7,0*
20,1,$1+$1,$6,$7,$8,$9,0*
20,1,$1+$1,$8,$9,$2,$3,0*%
G04 Aperture macros list end*
%ADD10C,0.080000*%
%ADD11C,0.100000*%
%ADD12C,0.152400*%
%ADD13C,0.150000*%
%ADD14C,0.254000*%
%ADD15C,0.120000*%
%ADD16C,0.200000*%
%ADD17RoundRect,0.050800X-0.100000X0.100000X-0.100000X-0.100000X0.100000X-0.100000X0.100000X0.100000X0*%
%ADD18RoundRect,0.250000X0.574524X0.097227X0.097227X0.574524X-0.574524X-0.097227X-0.097227X-0.574524X0*%
%ADD19C,1.800000*%
%ADD20O,1.700000X1.700000*%
%ADD21R,1.700000X1.700000*%
%ADD22R,2.600000X3.500000*%
%ADD23RoundRect,0.250000X-1.050000X-0.550000X1.050000X-0.550000X1.050000X0.550000X-1.050000X0.550000X0*%
G04 APERTURE END LIST*
D10*
X142775154Y-91236430D02*
X142698964Y-91198335D01*
X142698964Y-91198335D02*
X142584678Y-91198335D01*
X142584678Y-91198335D02*
X142470392Y-91236430D01*
X142470392Y-91236430D02*
X142394202Y-91312620D01*
X142394202Y-91312620D02*
X142356107Y-91388811D01*
X142356107Y-91388811D02*
X142318011Y-91541192D01*
X142318011Y-91541192D02*
X142318011Y-91655478D01*
X142318011Y-91655478D02*
X142356107Y-91807859D01*
X142356107Y-91807859D02*
X142394202Y-91884049D01*
X142394202Y-91884049D02*
X142470392Y-91960240D01*
X142470392Y-91960240D02*
X142584678Y-91998335D01*
X142584678Y-91998335D02*
X142660869Y-91998335D01*
X142660869Y-91998335D02*
X142775154Y-91960240D01*
X142775154Y-91960240D02*
X142813250Y-91922144D01*
X142813250Y-91922144D02*
X142813250Y-91655478D01*
X142813250Y-91655478D02*
X142660869Y-91655478D01*
X143156107Y-91998335D02*
X143156107Y-91198335D01*
X143156107Y-91198335D02*
X143613250Y-91998335D01*
X143613250Y-91998335D02*
X143613250Y-91198335D01*
X143994202Y-91998335D02*
X143994202Y-91198335D01*
X143994202Y-91198335D02*
X144184678Y-91198335D01*
X144184678Y-91198335D02*
X144298964Y-91236430D01*
X144298964Y-91236430D02*
X144375154Y-91312620D01*
X144375154Y-91312620D02*
X144413249Y-91388811D01*
X144413249Y-91388811D02*
X144451345Y-91541192D01*
X144451345Y-91541192D02*
X144451345Y-91655478D01*
X144451345Y-91655478D02*
X144413249Y-91807859D01*
X144413249Y-91807859D02*
X144375154Y-91884049D01*
X144375154Y-91884049D02*
X144298964Y-91960240D01*
X144298964Y-91960240D02*
X144184678Y-91998335D01*
X144184678Y-91998335D02*
X143994202Y-91998335D01*
X140209754Y-95351230D02*
X140133564Y-95313135D01*
X140133564Y-95313135D02*
X140019278Y-95313135D01*
X140019278Y-95313135D02*
X139904992Y-95351230D01*
X139904992Y-95351230D02*
X139828802Y-95427420D01*
X139828802Y-95427420D02*
X139790707Y-95503611D01*
X139790707Y-95503611D02*
X139752611Y-95655992D01*
X139752611Y-95655992D02*
X139752611Y-95770278D01*
X139752611Y-95770278D02*
X139790707Y-95922659D01*
X139790707Y-95922659D02*
X139828802Y-95998849D01*
X139828802Y-95998849D02*
X139904992Y-96075040D01*
X139904992Y-96075040D02*
X140019278Y-96113135D01*
X140019278Y-96113135D02*
X140095469Y-96113135D01*
X140095469Y-96113135D02*
X140209754Y-96075040D01*
X140209754Y-96075040D02*
X140247850Y-96036944D01*
X140247850Y-96036944D02*
X140247850Y-95770278D01*
X140247850Y-95770278D02*
X140095469Y-95770278D01*
X140590707Y-96113135D02*
X140590707Y-95313135D01*
X140590707Y-95313135D02*
X141047850Y-96113135D01*
X141047850Y-96113135D02*
X141047850Y-95313135D01*
X141428802Y-96113135D02*
X141428802Y-95313135D01*
X141428802Y-95313135D02*
X141619278Y-95313135D01*
X141619278Y-95313135D02*
X141733564Y-95351230D01*
X141733564Y-95351230D02*
X141809754Y-95427420D01*
X141809754Y-95427420D02*
X141847849Y-95503611D01*
X141847849Y-95503611D02*
X141885945Y-95655992D01*
X141885945Y-95655992D02*
X141885945Y-95770278D01*
X141885945Y-95770278D02*
X141847849Y-95922659D01*
X141847849Y-95922659D02*
X141809754Y-95998849D01*
X141809754Y-95998849D02*
X141733564Y-96075040D01*
X141733564Y-96075040D02*
X141619278Y-96113135D01*
X141619278Y-96113135D02*
X141428802Y-96113135D01*
X138215850Y-92074535D02*
X137949183Y-91693582D01*
X137758707Y-92074535D02*
X137758707Y-91274535D01*
X137758707Y-91274535D02*
X138063469Y-91274535D01*
X138063469Y-91274535D02*
X138139659Y-91312630D01*
X138139659Y-91312630D02*
X138177754Y-91350725D01*
X138177754Y-91350725D02*
X138215850Y-91426916D01*
X138215850Y-91426916D02*
X138215850Y-91541201D01*
X138215850Y-91541201D02*
X138177754Y-91617392D01*
X138177754Y-91617392D02*
X138139659Y-91655487D01*
X138139659Y-91655487D02*
X138063469Y-91693582D01*
X138063469Y-91693582D02*
X137758707Y-91693582D01*
X138482516Y-91274535D02*
X139015850Y-92074535D01*
X139015850Y-91274535D02*
X138482516Y-92074535D01*
X135155221Y-95287735D02*
X135612364Y-95287735D01*
X135383792Y-96087735D02*
X135383792Y-95287735D01*
X135802840Y-95287735D02*
X136336174Y-96087735D01*
X136336174Y-95287735D02*
X135802840Y-96087735D01*
X131815107Y-92049135D02*
X131815107Y-91249135D01*
X131815107Y-91249135D02*
X132272250Y-92049135D01*
X132272250Y-92049135D02*
X132272250Y-91249135D01*
X133110345Y-92049135D02*
X132843678Y-91668182D01*
X132653202Y-92049135D02*
X132653202Y-91249135D01*
X132653202Y-91249135D02*
X132957964Y-91249135D01*
X132957964Y-91249135D02*
X133034154Y-91287230D01*
X133034154Y-91287230D02*
X133072249Y-91325325D01*
X133072249Y-91325325D02*
X133110345Y-91401516D01*
X133110345Y-91401516D02*
X133110345Y-91515801D01*
X133110345Y-91515801D02*
X133072249Y-91591992D01*
X133072249Y-91591992D02*
X133034154Y-91630087D01*
X133034154Y-91630087D02*
X132957964Y-91668182D01*
X132957964Y-91668182D02*
X132653202Y-91668182D01*
X133415106Y-92011040D02*
X133529392Y-92049135D01*
X133529392Y-92049135D02*
X133719868Y-92049135D01*
X133719868Y-92049135D02*
X133796059Y-92011040D01*
X133796059Y-92011040D02*
X133834154Y-91972944D01*
X133834154Y-91972944D02*
X133872249Y-91896754D01*
X133872249Y-91896754D02*
X133872249Y-91820563D01*
X133872249Y-91820563D02*
X133834154Y-91744373D01*
X133834154Y-91744373D02*
X133796059Y-91706278D01*
X133796059Y-91706278D02*
X133719868Y-91668182D01*
X133719868Y-91668182D02*
X133567487Y-91630087D01*
X133567487Y-91630087D02*
X133491297Y-91591992D01*
X133491297Y-91591992D02*
X133453202Y-91553897D01*
X133453202Y-91553897D02*
X133415106Y-91477706D01*
X133415106Y-91477706D02*
X133415106Y-91401516D01*
X133415106Y-91401516D02*
X133453202Y-91325325D01*
X133453202Y-91325325D02*
X133491297Y-91287230D01*
X133491297Y-91287230D02*
X133567487Y-91249135D01*
X133567487Y-91249135D02*
X133757964Y-91249135D01*
X133757964Y-91249135D02*
X133872249Y-91287230D01*
X134100821Y-91249135D02*
X134557964Y-91249135D01*
X134329392Y-92049135D02*
X134329392Y-91249135D01*
X128754411Y-96075040D02*
X128868697Y-96113135D01*
X128868697Y-96113135D02*
X129059173Y-96113135D01*
X129059173Y-96113135D02*
X129135364Y-96075040D01*
X129135364Y-96075040D02*
X129173459Y-96036944D01*
X129173459Y-96036944D02*
X129211554Y-95960754D01*
X129211554Y-95960754D02*
X129211554Y-95884563D01*
X129211554Y-95884563D02*
X129173459Y-95808373D01*
X129173459Y-95808373D02*
X129135364Y-95770278D01*
X129135364Y-95770278D02*
X129059173Y-95732182D01*
X129059173Y-95732182D02*
X128906792Y-95694087D01*
X128906792Y-95694087D02*
X128830602Y-95655992D01*
X128830602Y-95655992D02*
X128792507Y-95617897D01*
X128792507Y-95617897D02*
X128754411Y-95541706D01*
X128754411Y-95541706D02*
X128754411Y-95465516D01*
X128754411Y-95465516D02*
X128792507Y-95389325D01*
X128792507Y-95389325D02*
X128830602Y-95351230D01*
X128830602Y-95351230D02*
X128906792Y-95313135D01*
X128906792Y-95313135D02*
X129097269Y-95313135D01*
X129097269Y-95313135D02*
X129211554Y-95351230D01*
X129478221Y-95313135D02*
X129668697Y-96113135D01*
X129668697Y-96113135D02*
X129821078Y-95541706D01*
X129821078Y-95541706D02*
X129973459Y-96113135D01*
X129973459Y-96113135D02*
X130163936Y-95313135D01*
X130925841Y-96036944D02*
X130887745Y-96075040D01*
X130887745Y-96075040D02*
X130773460Y-96113135D01*
X130773460Y-96113135D02*
X130697269Y-96113135D01*
X130697269Y-96113135D02*
X130582983Y-96075040D01*
X130582983Y-96075040D02*
X130506793Y-95998849D01*
X130506793Y-95998849D02*
X130468698Y-95922659D01*
X130468698Y-95922659D02*
X130430602Y-95770278D01*
X130430602Y-95770278D02*
X130430602Y-95655992D01*
X130430602Y-95655992D02*
X130468698Y-95503611D01*
X130468698Y-95503611D02*
X130506793Y-95427420D01*
X130506793Y-95427420D02*
X130582983Y-95351230D01*
X130582983Y-95351230D02*
X130697269Y-95313135D01*
X130697269Y-95313135D02*
X130773460Y-95313135D01*
X130773460Y-95313135D02*
X130887745Y-95351230D01*
X130887745Y-95351230D02*
X130925841Y-95389325D01*
X131649650Y-96113135D02*
X131268698Y-96113135D01*
X131268698Y-96113135D02*
X131268698Y-95313135D01*
X131916317Y-96113135D02*
X131916317Y-95313135D01*
X132373460Y-96113135D02*
X132030602Y-95655992D01*
X132373460Y-95313135D02*
X131916317Y-95770278D01*
X126366811Y-91884040D02*
X126481097Y-91922135D01*
X126481097Y-91922135D02*
X126671573Y-91922135D01*
X126671573Y-91922135D02*
X126747764Y-91884040D01*
X126747764Y-91884040D02*
X126785859Y-91845944D01*
X126785859Y-91845944D02*
X126823954Y-91769754D01*
X126823954Y-91769754D02*
X126823954Y-91693563D01*
X126823954Y-91693563D02*
X126785859Y-91617373D01*
X126785859Y-91617373D02*
X126747764Y-91579278D01*
X126747764Y-91579278D02*
X126671573Y-91541182D01*
X126671573Y-91541182D02*
X126519192Y-91503087D01*
X126519192Y-91503087D02*
X126443002Y-91464992D01*
X126443002Y-91464992D02*
X126404907Y-91426897D01*
X126404907Y-91426897D02*
X126366811Y-91350706D01*
X126366811Y-91350706D02*
X126366811Y-91274516D01*
X126366811Y-91274516D02*
X126404907Y-91198325D01*
X126404907Y-91198325D02*
X126443002Y-91160230D01*
X126443002Y-91160230D02*
X126519192Y-91122135D01*
X126519192Y-91122135D02*
X126709669Y-91122135D01*
X126709669Y-91122135D02*
X126823954Y-91160230D01*
X127090621Y-91122135D02*
X127281097Y-91922135D01*
X127281097Y-91922135D02*
X127433478Y-91350706D01*
X127433478Y-91350706D02*
X127585859Y-91922135D01*
X127585859Y-91922135D02*
X127776336Y-91122135D01*
X128081098Y-91922135D02*
X128081098Y-91122135D01*
X128081098Y-91122135D02*
X128271574Y-91122135D01*
X128271574Y-91122135D02*
X128385860Y-91160230D01*
X128385860Y-91160230D02*
X128462050Y-91236420D01*
X128462050Y-91236420D02*
X128500145Y-91312611D01*
X128500145Y-91312611D02*
X128538241Y-91464992D01*
X128538241Y-91464992D02*
X128538241Y-91579278D01*
X128538241Y-91579278D02*
X128500145Y-91731659D01*
X128500145Y-91731659D02*
X128462050Y-91807849D01*
X128462050Y-91807849D02*
X128385860Y-91884040D01*
X128385860Y-91884040D02*
X128271574Y-91922135D01*
X128271574Y-91922135D02*
X128081098Y-91922135D01*
X128881098Y-91922135D02*
X128881098Y-91122135D01*
X129414431Y-91122135D02*
X129566812Y-91122135D01*
X129566812Y-91122135D02*
X129643002Y-91160230D01*
X129643002Y-91160230D02*
X129719193Y-91236420D01*
X129719193Y-91236420D02*
X129757288Y-91388801D01*
X129757288Y-91388801D02*
X129757288Y-91655468D01*
X129757288Y-91655468D02*
X129719193Y-91807849D01*
X129719193Y-91807849D02*
X129643002Y-91884040D01*
X129643002Y-91884040D02*
X129566812Y-91922135D01*
X129566812Y-91922135D02*
X129414431Y-91922135D01*
X129414431Y-91922135D02*
X129338240Y-91884040D01*
X129338240Y-91884040D02*
X129262050Y-91807849D01*
X129262050Y-91807849D02*
X129223954Y-91655468D01*
X129223954Y-91655468D02*
X129223954Y-91388801D01*
X129223954Y-91388801D02*
X129262050Y-91236420D01*
X129262050Y-91236420D02*
X129338240Y-91160230D01*
X129338240Y-91160230D02*
X129414431Y-91122135D01*
X124461821Y-95211535D02*
X124728488Y-96011535D01*
X124728488Y-96011535D02*
X124995154Y-95211535D01*
X125261821Y-96011535D02*
X125261821Y-95211535D01*
X125261821Y-95211535D02*
X125452297Y-95211535D01*
X125452297Y-95211535D02*
X125566583Y-95249630D01*
X125566583Y-95249630D02*
X125642773Y-95325820D01*
X125642773Y-95325820D02*
X125680868Y-95402011D01*
X125680868Y-95402011D02*
X125718964Y-95554392D01*
X125718964Y-95554392D02*
X125718964Y-95668678D01*
X125718964Y-95668678D02*
X125680868Y-95821059D01*
X125680868Y-95821059D02*
X125642773Y-95897249D01*
X125642773Y-95897249D02*
X125566583Y-95973440D01*
X125566583Y-95973440D02*
X125452297Y-96011535D01*
X125452297Y-96011535D02*
X125261821Y-96011535D01*
X126061821Y-96011535D02*
X126061821Y-95211535D01*
X126061821Y-95211535D02*
X126252297Y-95211535D01*
X126252297Y-95211535D02*
X126366583Y-95249630D01*
X126366583Y-95249630D02*
X126442773Y-95325820D01*
X126442773Y-95325820D02*
X126480868Y-95402011D01*
X126480868Y-95402011D02*
X126518964Y-95554392D01*
X126518964Y-95554392D02*
X126518964Y-95668678D01*
X126518964Y-95668678D02*
X126480868Y-95821059D01*
X126480868Y-95821059D02*
X126442773Y-95897249D01*
X126442773Y-95897249D02*
X126366583Y-95973440D01*
X126366583Y-95973440D02*
X126252297Y-96011535D01*
X126252297Y-96011535D02*
X126061821Y-96011535D01*
D11*
X126926017Y-71575695D02*
X126545065Y-71575695D01*
X126545065Y-71575695D02*
X126545065Y-70775695D01*
X127192684Y-71575695D02*
X127192684Y-70775695D01*
X128030779Y-71575695D02*
X127764112Y-71194742D01*
X127573636Y-71575695D02*
X127573636Y-70775695D01*
X127573636Y-70775695D02*
X127878398Y-70775695D01*
X127878398Y-70775695D02*
X127954588Y-70813790D01*
X127954588Y-70813790D02*
X127992683Y-70851885D01*
X127992683Y-70851885D02*
X128030779Y-70928076D01*
X128030779Y-70928076D02*
X128030779Y-71042361D01*
X128030779Y-71042361D02*
X127992683Y-71118552D01*
X127992683Y-71118552D02*
X127954588Y-71156647D01*
X127954588Y-71156647D02*
X127878398Y-71194742D01*
X127878398Y-71194742D02*
X127573636Y-71194742D01*
X128335540Y-70851885D02*
X128373636Y-70813790D01*
X128373636Y-70813790D02*
X128449826Y-70775695D01*
X128449826Y-70775695D02*
X128640302Y-70775695D01*
X128640302Y-70775695D02*
X128716493Y-70813790D01*
X128716493Y-70813790D02*
X128754588Y-70851885D01*
X128754588Y-70851885D02*
X128792683Y-70928076D01*
X128792683Y-70928076D02*
X128792683Y-71004266D01*
X128792683Y-71004266D02*
X128754588Y-71118552D01*
X128754588Y-71118552D02*
X128297445Y-71575695D01*
X128297445Y-71575695D02*
X128792683Y-71575695D01*
X129287922Y-70775695D02*
X129364112Y-70775695D01*
X129364112Y-70775695D02*
X129440303Y-70813790D01*
X129440303Y-70813790D02*
X129478398Y-70851885D01*
X129478398Y-70851885D02*
X129516493Y-70928076D01*
X129516493Y-70928076D02*
X129554588Y-71080457D01*
X129554588Y-71080457D02*
X129554588Y-71270933D01*
X129554588Y-71270933D02*
X129516493Y-71423314D01*
X129516493Y-71423314D02*
X129478398Y-71499504D01*
X129478398Y-71499504D02*
X129440303Y-71537600D01*
X129440303Y-71537600D02*
X129364112Y-71575695D01*
X129364112Y-71575695D02*
X129287922Y-71575695D01*
X129287922Y-71575695D02*
X129211731Y-71537600D01*
X129211731Y-71537600D02*
X129173636Y-71499504D01*
X129173636Y-71499504D02*
X129135541Y-71423314D01*
X129135541Y-71423314D02*
X129097445Y-71270933D01*
X129097445Y-71270933D02*
X129097445Y-71080457D01*
X129097445Y-71080457D02*
X129135541Y-70928076D01*
X129135541Y-70928076D02*
X129173636Y-70851885D01*
X129173636Y-70851885D02*
X129211731Y-70813790D01*
X129211731Y-70813790D02*
X129287922Y-70775695D01*
X129821255Y-70775695D02*
X130316493Y-70775695D01*
X130316493Y-70775695D02*
X130049827Y-71080457D01*
X130049827Y-71080457D02*
X130164112Y-71080457D01*
X130164112Y-71080457D02*
X130240303Y-71118552D01*
X130240303Y-71118552D02*
X130278398Y-71156647D01*
X130278398Y-71156647D02*
X130316493Y-71232838D01*
X130316493Y-71232838D02*
X130316493Y-71423314D01*
X130316493Y-71423314D02*
X130278398Y-71499504D01*
X130278398Y-71499504D02*
X130240303Y-71537600D01*
X130240303Y-71537600D02*
X130164112Y-71575695D01*
X130164112Y-71575695D02*
X129935541Y-71575695D01*
X129935541Y-71575695D02*
X129859350Y-71537600D01*
X129859350Y-71537600D02*
X129821255Y-71499504D01*
X130621255Y-70851885D02*
X130659351Y-70813790D01*
X130659351Y-70813790D02*
X130735541Y-70775695D01*
X130735541Y-70775695D02*
X130926017Y-70775695D01*
X130926017Y-70775695D02*
X131002208Y-70813790D01*
X131002208Y-70813790D02*
X131040303Y-70851885D01*
X131040303Y-70851885D02*
X131078398Y-70928076D01*
X131078398Y-70928076D02*
X131078398Y-71004266D01*
X131078398Y-71004266D02*
X131040303Y-71118552D01*
X131040303Y-71118552D02*
X130583160Y-71575695D01*
X130583160Y-71575695D02*
X131078398Y-71575695D01*
X131421256Y-71575695D02*
X131421256Y-70775695D01*
X131421256Y-71156647D02*
X131878399Y-71156647D01*
X131878399Y-71575695D02*
X131878399Y-70775695D01*
X132983160Y-71575695D02*
X132906970Y-71537600D01*
X132906970Y-71537600D02*
X132868875Y-71499504D01*
X132868875Y-71499504D02*
X132830779Y-71423314D01*
X132830779Y-71423314D02*
X132830779Y-71194742D01*
X132830779Y-71194742D02*
X132868875Y-71118552D01*
X132868875Y-71118552D02*
X132906970Y-71080457D01*
X132906970Y-71080457D02*
X132983160Y-71042361D01*
X132983160Y-71042361D02*
X133097446Y-71042361D01*
X133097446Y-71042361D02*
X133173637Y-71080457D01*
X133173637Y-71080457D02*
X133211732Y-71118552D01*
X133211732Y-71118552D02*
X133249827Y-71194742D01*
X133249827Y-71194742D02*
X133249827Y-71423314D01*
X133249827Y-71423314D02*
X133211732Y-71499504D01*
X133211732Y-71499504D02*
X133173637Y-71537600D01*
X133173637Y-71537600D02*
X133097446Y-71575695D01*
X133097446Y-71575695D02*
X132983160Y-71575695D01*
X133592685Y-71042361D02*
X133592685Y-71575695D01*
X133592685Y-71118552D02*
X133630780Y-71080457D01*
X133630780Y-71080457D02*
X133706970Y-71042361D01*
X133706970Y-71042361D02*
X133821256Y-71042361D01*
X133821256Y-71042361D02*
X133897447Y-71080457D01*
X133897447Y-71080457D02*
X133935542Y-71156647D01*
X133935542Y-71156647D02*
X133935542Y-71575695D01*
X134430780Y-71575695D02*
X134354590Y-71537600D01*
X134354590Y-71537600D02*
X134316495Y-71461409D01*
X134316495Y-71461409D02*
X134316495Y-70775695D01*
X134659352Y-71042361D02*
X134849828Y-71575695D01*
X135040305Y-71042361D02*
X134849828Y-71575695D01*
X134849828Y-71575695D02*
X134773638Y-71766171D01*
X134773638Y-71766171D02*
X134735543Y-71804266D01*
X134735543Y-71804266D02*
X134659352Y-71842361D01*
X117045408Y-91590895D02*
X116778741Y-91209942D01*
X116588265Y-91590895D02*
X116588265Y-90790895D01*
X116588265Y-90790895D02*
X116893027Y-90790895D01*
X116893027Y-90790895D02*
X116969217Y-90828990D01*
X116969217Y-90828990D02*
X117007312Y-90867085D01*
X117007312Y-90867085D02*
X117045408Y-90943276D01*
X117045408Y-90943276D02*
X117045408Y-91057561D01*
X117045408Y-91057561D02*
X117007312Y-91133752D01*
X117007312Y-91133752D02*
X116969217Y-91171847D01*
X116969217Y-91171847D02*
X116893027Y-91209942D01*
X116893027Y-91209942D02*
X116588265Y-91209942D01*
X117388265Y-91171847D02*
X117654931Y-91171847D01*
X117769217Y-91590895D02*
X117388265Y-91590895D01*
X117388265Y-91590895D02*
X117388265Y-90790895D01*
X117388265Y-90790895D02*
X117769217Y-90790895D01*
X118073979Y-91552800D02*
X118188265Y-91590895D01*
X118188265Y-91590895D02*
X118378741Y-91590895D01*
X118378741Y-91590895D02*
X118454932Y-91552800D01*
X118454932Y-91552800D02*
X118493027Y-91514704D01*
X118493027Y-91514704D02*
X118531122Y-91438514D01*
X118531122Y-91438514D02*
X118531122Y-91362323D01*
X118531122Y-91362323D02*
X118493027Y-91286133D01*
X118493027Y-91286133D02*
X118454932Y-91248038D01*
X118454932Y-91248038D02*
X118378741Y-91209942D01*
X118378741Y-91209942D02*
X118226360Y-91171847D01*
X118226360Y-91171847D02*
X118150170Y-91133752D01*
X118150170Y-91133752D02*
X118112075Y-91095657D01*
X118112075Y-91095657D02*
X118073979Y-91019466D01*
X118073979Y-91019466D02*
X118073979Y-90943276D01*
X118073979Y-90943276D02*
X118112075Y-90867085D01*
X118112075Y-90867085D02*
X118150170Y-90828990D01*
X118150170Y-90828990D02*
X118226360Y-90790895D01*
X118226360Y-90790895D02*
X118416837Y-90790895D01*
X118416837Y-90790895D02*
X118531122Y-90828990D01*
X118873980Y-91171847D02*
X119140646Y-91171847D01*
X119254932Y-91590895D02*
X118873980Y-91590895D01*
X118873980Y-91590895D02*
X118873980Y-90790895D01*
X118873980Y-90790895D02*
X119254932Y-90790895D01*
X119483504Y-90790895D02*
X119940647Y-90790895D01*
X119712075Y-91590895D02*
X119712075Y-90790895D01*
D12*
X145293786Y-94466851D02*
X145564720Y-94466851D01*
X145680834Y-94892603D02*
X145293786Y-94892603D01*
X145293786Y-94892603D02*
X145293786Y-94079803D01*
X145293786Y-94079803D02*
X145680834Y-94079803D01*
X146029176Y-94892603D02*
X146029176Y-94079803D01*
X146416224Y-94892603D02*
X146416224Y-94079803D01*
X146416224Y-94079803D02*
X146880681Y-94892603D01*
X146880681Y-94892603D02*
X146880681Y-94079803D01*
X147267729Y-94892603D02*
X147267729Y-94079803D01*
X147732186Y-94892603D02*
X147383844Y-94428146D01*
X147732186Y-94079803D02*
X147267729Y-94544260D01*
X148080529Y-94582965D02*
X148699806Y-94582965D01*
X149086853Y-94892603D02*
X149086853Y-94079803D01*
X149086853Y-94079803D02*
X149551310Y-94892603D01*
X149551310Y-94892603D02*
X149551310Y-94079803D01*
X150209292Y-94466851D02*
X149938358Y-94466851D01*
X149938358Y-94892603D02*
X149938358Y-94079803D01*
X149938358Y-94079803D02*
X150325406Y-94079803D01*
X151099501Y-94815194D02*
X151060797Y-94853899D01*
X151060797Y-94853899D02*
X150944682Y-94892603D01*
X150944682Y-94892603D02*
X150867273Y-94892603D01*
X150867273Y-94892603D02*
X150751159Y-94853899D01*
X150751159Y-94853899D02*
X150673749Y-94776489D01*
X150673749Y-94776489D02*
X150635044Y-94699079D01*
X150635044Y-94699079D02*
X150596340Y-94544260D01*
X150596340Y-94544260D02*
X150596340Y-94428146D01*
X150596340Y-94428146D02*
X150635044Y-94273327D01*
X150635044Y-94273327D02*
X150673749Y-94195918D01*
X150673749Y-94195918D02*
X150751159Y-94118508D01*
X150751159Y-94118508D02*
X150867273Y-94079803D01*
X150867273Y-94079803D02*
X150944682Y-94079803D01*
X150944682Y-94079803D02*
X151060797Y-94118508D01*
X151060797Y-94118508D02*
X151099501Y-94157213D01*
X151447844Y-94582965D02*
X152067121Y-94582965D01*
X152415464Y-94853899D02*
X152531578Y-94892603D01*
X152531578Y-94892603D02*
X152725102Y-94892603D01*
X152725102Y-94892603D02*
X152802511Y-94853899D01*
X152802511Y-94853899D02*
X152841216Y-94815194D01*
X152841216Y-94815194D02*
X152879921Y-94737784D01*
X152879921Y-94737784D02*
X152879921Y-94660375D01*
X152879921Y-94660375D02*
X152841216Y-94582965D01*
X152841216Y-94582965D02*
X152802511Y-94544260D01*
X152802511Y-94544260D02*
X152725102Y-94505556D01*
X152725102Y-94505556D02*
X152570283Y-94466851D01*
X152570283Y-94466851D02*
X152492873Y-94428146D01*
X152492873Y-94428146D02*
X152454168Y-94389441D01*
X152454168Y-94389441D02*
X152415464Y-94312032D01*
X152415464Y-94312032D02*
X152415464Y-94234622D01*
X152415464Y-94234622D02*
X152454168Y-94157213D01*
X152454168Y-94157213D02*
X152492873Y-94118508D01*
X152492873Y-94118508D02*
X152570283Y-94079803D01*
X152570283Y-94079803D02*
X152763806Y-94079803D01*
X152763806Y-94079803D02*
X152879921Y-94118508D01*
X153228263Y-94892603D02*
X153228263Y-94079803D01*
X153228263Y-94079803D02*
X153499197Y-94660375D01*
X153499197Y-94660375D02*
X153770130Y-94079803D01*
X153770130Y-94079803D02*
X153770130Y-94892603D01*
X154118473Y-94660375D02*
X154505520Y-94660375D01*
X154041063Y-94892603D02*
X154311996Y-94079803D01*
X154311996Y-94079803D02*
X154582930Y-94892603D01*
X155318320Y-94892603D02*
X155047387Y-94505556D01*
X154853863Y-94892603D02*
X154853863Y-94079803D01*
X154853863Y-94079803D02*
X155163501Y-94079803D01*
X155163501Y-94079803D02*
X155240911Y-94118508D01*
X155240911Y-94118508D02*
X155279616Y-94157213D01*
X155279616Y-94157213D02*
X155318320Y-94234622D01*
X155318320Y-94234622D02*
X155318320Y-94350737D01*
X155318320Y-94350737D02*
X155279616Y-94428146D01*
X155279616Y-94428146D02*
X155240911Y-94466851D01*
X155240911Y-94466851D02*
X155163501Y-94505556D01*
X155163501Y-94505556D02*
X154853863Y-94505556D01*
X155550549Y-94079803D02*
X156015006Y-94079803D01*
X155782778Y-94892603D02*
X155782778Y-94079803D01*
X156285939Y-94582965D02*
X156905216Y-94582965D01*
X157176149Y-94079803D02*
X157640606Y-94079803D01*
X157408378Y-94892603D02*
X157408378Y-94079803D01*
X157872835Y-94660375D02*
X158259882Y-94660375D01*
X157795425Y-94892603D02*
X158066358Y-94079803D01*
X158066358Y-94079803D02*
X158337292Y-94892603D01*
X159033978Y-94118508D02*
X158956568Y-94079803D01*
X158956568Y-94079803D02*
X158840454Y-94079803D01*
X158840454Y-94079803D02*
X158724340Y-94118508D01*
X158724340Y-94118508D02*
X158646930Y-94195918D01*
X158646930Y-94195918D02*
X158608225Y-94273327D01*
X158608225Y-94273327D02*
X158569521Y-94428146D01*
X158569521Y-94428146D02*
X158569521Y-94544260D01*
X158569521Y-94544260D02*
X158608225Y-94699079D01*
X158608225Y-94699079D02*
X158646930Y-94776489D01*
X158646930Y-94776489D02*
X158724340Y-94853899D01*
X158724340Y-94853899D02*
X158840454Y-94892603D01*
X158840454Y-94892603D02*
X158917863Y-94892603D01*
X158917863Y-94892603D02*
X159033978Y-94853899D01*
X159033978Y-94853899D02*
X159072682Y-94815194D01*
X159072682Y-94815194D02*
X159072682Y-94544260D01*
X159072682Y-94544260D02*
X158917863Y-94544260D01*
X159227502Y-94970013D02*
X159846778Y-94970013D01*
X159924187Y-94079803D02*
X160195120Y-94892603D01*
X160195120Y-94892603D02*
X160466054Y-94079803D01*
X160698283Y-94157213D02*
X160736987Y-94118508D01*
X160736987Y-94118508D02*
X160814397Y-94079803D01*
X160814397Y-94079803D02*
X161007921Y-94079803D01*
X161007921Y-94079803D02*
X161085330Y-94118508D01*
X161085330Y-94118508D02*
X161124035Y-94157213D01*
X161124035Y-94157213D02*
X161162740Y-94234622D01*
X161162740Y-94234622D02*
X161162740Y-94312032D01*
X161162740Y-94312032D02*
X161124035Y-94428146D01*
X161124035Y-94428146D02*
X160659578Y-94892603D01*
X160659578Y-94892603D02*
X161162740Y-94892603D01*
D13*
%TO.C,C4*%
X149033571Y-73684973D02*
X148966227Y-73684973D01*
X148966227Y-73684973D02*
X148831540Y-73617629D01*
X148831540Y-73617629D02*
X148764197Y-73550286D01*
X148764197Y-73550286D02*
X148696853Y-73415599D01*
X148696853Y-73415599D02*
X148696853Y-73280912D01*
X148696853Y-73280912D02*
X148730525Y-73179897D01*
X148730525Y-73179897D02*
X148831540Y-73011538D01*
X148831540Y-73011538D02*
X148932555Y-72910523D01*
X148932555Y-72910523D02*
X149100914Y-72809507D01*
X149100914Y-72809507D02*
X149201929Y-72775836D01*
X149201929Y-72775836D02*
X149336616Y-72775836D01*
X149336616Y-72775836D02*
X149471303Y-72843179D01*
X149471303Y-72843179D02*
X149538647Y-72910523D01*
X149538647Y-72910523D02*
X149605990Y-73045210D01*
X149605990Y-73045210D02*
X149605990Y-73112553D01*
X150043723Y-73887003D02*
X149572319Y-74358408D01*
X150144738Y-73449271D02*
X149471303Y-73785988D01*
X149471303Y-73785988D02*
X149909036Y-74223721D01*
D14*
%TO.C,S1*%
X117163880Y-94493842D02*
X117345309Y-94554318D01*
X117345309Y-94554318D02*
X117647690Y-94554318D01*
X117647690Y-94554318D02*
X117768642Y-94493842D01*
X117768642Y-94493842D02*
X117829118Y-94433365D01*
X117829118Y-94433365D02*
X117889595Y-94312413D01*
X117889595Y-94312413D02*
X117889595Y-94191461D01*
X117889595Y-94191461D02*
X117829118Y-94070508D01*
X117829118Y-94070508D02*
X117768642Y-94010032D01*
X117768642Y-94010032D02*
X117647690Y-93949556D01*
X117647690Y-93949556D02*
X117405785Y-93889080D01*
X117405785Y-93889080D02*
X117284833Y-93828603D01*
X117284833Y-93828603D02*
X117224356Y-93768127D01*
X117224356Y-93768127D02*
X117163880Y-93647175D01*
X117163880Y-93647175D02*
X117163880Y-93526222D01*
X117163880Y-93526222D02*
X117224356Y-93405270D01*
X117224356Y-93405270D02*
X117284833Y-93344794D01*
X117284833Y-93344794D02*
X117405785Y-93284318D01*
X117405785Y-93284318D02*
X117708166Y-93284318D01*
X117708166Y-93284318D02*
X117889595Y-93344794D01*
X119099119Y-94554318D02*
X118373404Y-94554318D01*
X118736261Y-94554318D02*
X118736261Y-93284318D01*
X118736261Y-93284318D02*
X118615309Y-93465746D01*
X118615309Y-93465746D02*
X118494357Y-93586699D01*
X118494357Y-93586699D02*
X118373404Y-93647175D01*
D13*
%TO.C,J2*%
X113458666Y-90894819D02*
X113458666Y-91609104D01*
X113458666Y-91609104D02*
X113411047Y-91751961D01*
X113411047Y-91751961D02*
X113315809Y-91847200D01*
X113315809Y-91847200D02*
X113172952Y-91894819D01*
X113172952Y-91894819D02*
X113077714Y-91894819D01*
X113887238Y-90990057D02*
X113934857Y-90942438D01*
X113934857Y-90942438D02*
X114030095Y-90894819D01*
X114030095Y-90894819D02*
X114268190Y-90894819D01*
X114268190Y-90894819D02*
X114363428Y-90942438D01*
X114363428Y-90942438D02*
X114411047Y-90990057D01*
X114411047Y-90990057D02*
X114458666Y-91085295D01*
X114458666Y-91085295D02*
X114458666Y-91180533D01*
X114458666Y-91180533D02*
X114411047Y-91323390D01*
X114411047Y-91323390D02*
X113839619Y-91894819D01*
X113839619Y-91894819D02*
X114458666Y-91894819D01*
D14*
%TO.C,BT1*%
X129321643Y-81443080D02*
X129503071Y-81503556D01*
X129503071Y-81503556D02*
X129563548Y-81564032D01*
X129563548Y-81564032D02*
X129624024Y-81684984D01*
X129624024Y-81684984D02*
X129624024Y-81866413D01*
X129624024Y-81866413D02*
X129563548Y-81987365D01*
X129563548Y-81987365D02*
X129503071Y-82047842D01*
X129503071Y-82047842D02*
X129382119Y-82108318D01*
X129382119Y-82108318D02*
X128898309Y-82108318D01*
X128898309Y-82108318D02*
X128898309Y-80838318D01*
X128898309Y-80838318D02*
X129321643Y-80838318D01*
X129321643Y-80838318D02*
X129442595Y-80898794D01*
X129442595Y-80898794D02*
X129503071Y-80959270D01*
X129503071Y-80959270D02*
X129563548Y-81080222D01*
X129563548Y-81080222D02*
X129563548Y-81201175D01*
X129563548Y-81201175D02*
X129503071Y-81322127D01*
X129503071Y-81322127D02*
X129442595Y-81382603D01*
X129442595Y-81382603D02*
X129321643Y-81443080D01*
X129321643Y-81443080D02*
X128898309Y-81443080D01*
X129986881Y-80838318D02*
X130712595Y-80838318D01*
X130349738Y-82108318D02*
X130349738Y-80838318D01*
X131801167Y-82108318D02*
X131075452Y-82108318D01*
X131438309Y-82108318D02*
X131438309Y-80838318D01*
X131438309Y-80838318D02*
X131317357Y-81019746D01*
X131317357Y-81019746D02*
X131196405Y-81140699D01*
X131196405Y-81140699D02*
X131075452Y-81201175D01*
D13*
%TO.C,C16*%
X147794742Y-68558580D02*
X147747123Y-68606200D01*
X147747123Y-68606200D02*
X147604266Y-68653819D01*
X147604266Y-68653819D02*
X147509028Y-68653819D01*
X147509028Y-68653819D02*
X147366171Y-68606200D01*
X147366171Y-68606200D02*
X147270933Y-68510961D01*
X147270933Y-68510961D02*
X147223314Y-68415723D01*
X147223314Y-68415723D02*
X147175695Y-68225247D01*
X147175695Y-68225247D02*
X147175695Y-68082390D01*
X147175695Y-68082390D02*
X147223314Y-67891914D01*
X147223314Y-67891914D02*
X147270933Y-67796676D01*
X147270933Y-67796676D02*
X147366171Y-67701438D01*
X147366171Y-67701438D02*
X147509028Y-67653819D01*
X147509028Y-67653819D02*
X147604266Y-67653819D01*
X147604266Y-67653819D02*
X147747123Y-67701438D01*
X147747123Y-67701438D02*
X147794742Y-67749057D01*
X148747123Y-68653819D02*
X148175695Y-68653819D01*
X148461409Y-68653819D02*
X148461409Y-67653819D01*
X148461409Y-67653819D02*
X148366171Y-67796676D01*
X148366171Y-67796676D02*
X148270933Y-67891914D01*
X148270933Y-67891914D02*
X148175695Y-67939533D01*
X149604266Y-67653819D02*
X149413790Y-67653819D01*
X149413790Y-67653819D02*
X149318552Y-67701438D01*
X149318552Y-67701438D02*
X149270933Y-67749057D01*
X149270933Y-67749057D02*
X149175695Y-67891914D01*
X149175695Y-67891914D02*
X149128076Y-68082390D01*
X149128076Y-68082390D02*
X149128076Y-68463342D01*
X149128076Y-68463342D02*
X149175695Y-68558580D01*
X149175695Y-68558580D02*
X149223314Y-68606200D01*
X149223314Y-68606200D02*
X149318552Y-68653819D01*
X149318552Y-68653819D02*
X149509028Y-68653819D01*
X149509028Y-68653819D02*
X149604266Y-68606200D01*
X149604266Y-68606200D02*
X149651885Y-68558580D01*
X149651885Y-68558580D02*
X149699504Y-68463342D01*
X149699504Y-68463342D02*
X149699504Y-68225247D01*
X149699504Y-68225247D02*
X149651885Y-68130009D01*
X149651885Y-68130009D02*
X149604266Y-68082390D01*
X149604266Y-68082390D02*
X149509028Y-68034771D01*
X149509028Y-68034771D02*
X149318552Y-68034771D01*
X149318552Y-68034771D02*
X149223314Y-68082390D01*
X149223314Y-68082390D02*
X149175695Y-68130009D01*
X149175695Y-68130009D02*
X149128076Y-68225247D01*
%TO.C,G\u002A\u002A\u002A*%
G36*
X167712816Y-81788781D02*
G01*
X167753455Y-81791044D01*
X167882869Y-81811532D01*
X168000972Y-81858364D01*
X168113688Y-81934175D01*
X168154667Y-81969597D01*
X168224663Y-82044958D01*
X168282356Y-82129350D01*
X168326532Y-82217907D01*
X168355975Y-82305763D01*
X168369470Y-82388051D01*
X168365802Y-82459907D01*
X168343756Y-82516464D01*
X168302117Y-82552857D01*
X168300507Y-82553607D01*
X168264324Y-82567983D01*
X168237203Y-82568248D01*
X168201294Y-82555613D01*
X168167421Y-82533482D01*
X168144639Y-82495166D01*
X168129454Y-82433728D01*
X168125157Y-82404484D01*
X168095170Y-82294174D01*
X168037854Y-82198020D01*
X167956657Y-82119170D01*
X167855031Y-82060770D01*
X167736424Y-82025966D01*
X167705109Y-82021390D01*
X167643944Y-82008744D01*
X167604084Y-81985483D01*
X167590710Y-81970923D01*
X167563398Y-81922665D01*
X167564895Y-81877713D01*
X167594092Y-81828640D01*
X167613840Y-81805870D01*
X167634279Y-81793037D01*
X167664305Y-81788040D01*
X167712816Y-81788781D01*
G37*
G36*
X167771205Y-80794251D02*
G01*
X167857466Y-80802756D01*
X167949291Y-80816559D01*
X168037970Y-80834751D01*
X168056066Y-80839219D01*
X168273896Y-80911383D01*
X168476532Y-81011789D01*
X168661913Y-81138741D01*
X168827976Y-81290543D01*
X168972658Y-81465500D01*
X169093897Y-81661917D01*
X169120200Y-81713964D01*
X169190064Y-81878695D01*
X169236655Y-82040400D01*
X169263147Y-82211709D01*
X169270116Y-82310553D01*
X169273422Y-82392613D01*
X169273886Y-82448423D01*
X169270859Y-82484353D01*
X169263692Y-82506768D01*
X169251738Y-82522037D01*
X169248263Y-82525190D01*
X169191936Y-82557889D01*
X169134960Y-82561237D01*
X169119059Y-82556367D01*
X169083973Y-82536281D01*
X169060485Y-82505165D01*
X169045875Y-82456488D01*
X169037421Y-82383717D01*
X169035678Y-82356198D01*
X169008308Y-82142034D01*
X168951269Y-81939203D01*
X168865561Y-81749955D01*
X168752185Y-81576538D01*
X168625395Y-81433975D01*
X168541501Y-81355558D01*
X168466008Y-81294462D01*
X168387163Y-81242269D01*
X168293214Y-81190562D01*
X168266765Y-81177115D01*
X168092726Y-81105218D01*
X167908777Y-81057602D01*
X167787516Y-81041213D01*
X167720989Y-81033292D01*
X167661970Y-81022032D01*
X167622694Y-81009796D01*
X167621342Y-81009138D01*
X167581737Y-80973780D01*
X167565097Y-80925823D01*
X167570153Y-80874608D01*
X167595636Y-80829473D01*
X167640276Y-80799760D01*
X167650204Y-80796782D01*
X167699214Y-80791957D01*
X167771205Y-80794251D01*
G37*
G36*
X167841528Y-79856543D02*
G01*
X167944324Y-79868008D01*
X168054372Y-79884560D01*
X168165563Y-79905460D01*
X168271790Y-79929967D01*
X168318726Y-79942652D01*
X168595316Y-80037707D01*
X168854457Y-80159098D01*
X169094795Y-80305149D01*
X169314979Y-80474183D01*
X169513654Y-80664526D01*
X169689470Y-80874501D01*
X169841073Y-81102433D01*
X169967111Y-81346647D01*
X170066232Y-81605465D01*
X170137082Y-81877214D01*
X170178310Y-82160216D01*
X170185143Y-82255041D01*
X170189288Y-82354278D01*
X170188588Y-82426436D01*
X170181939Y-82476914D01*
X170168240Y-82511106D01*
X170146387Y-82534411D01*
X170125414Y-82547257D01*
X170084654Y-82566200D01*
X170056980Y-82569453D01*
X170027275Y-82557859D01*
X170018597Y-82553198D01*
X169984406Y-82529864D01*
X169962557Y-82500066D01*
X169950463Y-82456465D01*
X169945539Y-82391720D01*
X169944949Y-82344205D01*
X169928683Y-82090383D01*
X169881189Y-81838454D01*
X169803895Y-81591774D01*
X169698229Y-81353695D01*
X169565620Y-81127570D01*
X169407496Y-80916753D01*
X169275819Y-80773494D01*
X169068707Y-80588380D01*
X168847487Y-80432649D01*
X168611760Y-80306116D01*
X168361130Y-80208594D01*
X168095199Y-80139898D01*
X167836551Y-80101985D01*
X167736223Y-80090311D01*
X167663864Y-80076716D01*
X167614750Y-80059504D01*
X167584161Y-80036983D01*
X167567375Y-80007459D01*
X167566615Y-80005151D01*
X167565732Y-79954597D01*
X167587732Y-79903686D01*
X167625942Y-79866030D01*
X167637728Y-79860082D01*
X167682122Y-79851839D01*
X167752091Y-79850907D01*
X167841528Y-79856543D01*
G37*
G36*
X167821652Y-78921737D02*
G01*
X167885292Y-78926888D01*
X168223979Y-78972614D01*
X168551722Y-79048178D01*
X168866967Y-79152619D01*
X169168160Y-79284979D01*
X169453744Y-79444298D01*
X169722165Y-79629618D01*
X169971868Y-79839978D01*
X170201298Y-80074421D01*
X170408900Y-80331986D01*
X170579484Y-80588883D01*
X170733420Y-80875972D01*
X170859203Y-81178846D01*
X170956292Y-81495790D01*
X171024147Y-81825093D01*
X171057731Y-82104795D01*
X171066920Y-82236122D01*
X171070096Y-82338758D01*
X171067031Y-82416185D01*
X171057495Y-82471885D01*
X171041257Y-82509341D01*
X171030164Y-82522693D01*
X170975160Y-82557427D01*
X170917168Y-82561201D01*
X170898205Y-82555461D01*
X170864244Y-82533638D01*
X170842521Y-82496845D01*
X170831003Y-82439347D01*
X170827657Y-82356576D01*
X170811822Y-82052952D01*
X170765335Y-81747668D01*
X170689622Y-81445366D01*
X170586106Y-81150692D01*
X170456213Y-80868288D01*
X170301366Y-80602799D01*
X170279511Y-80569820D01*
X170090198Y-80317171D01*
X169877398Y-80086114D01*
X169643165Y-79877840D01*
X169389553Y-79693539D01*
X169118618Y-79534401D01*
X168832414Y-79401616D01*
X168532994Y-79296374D01*
X168222414Y-79219866D01*
X167902728Y-79173281D01*
X167862594Y-79169652D01*
X167779381Y-79161266D01*
X167705595Y-79151306D01*
X167648642Y-79140946D01*
X167615929Y-79131359D01*
X167613816Y-79130214D01*
X167578386Y-79091737D01*
X167565647Y-79041217D01*
X167574488Y-78989019D01*
X167603797Y-78945507D01*
X167635739Y-78925825D01*
X167672918Y-78918667D01*
X167733791Y-78917300D01*
X167821652Y-78921737D01*
G37*
G36*
X167815704Y-83160668D02*
G01*
X167902822Y-83161477D01*
X167966564Y-83163324D01*
X168011588Y-83166615D01*
X168042550Y-83171759D01*
X168064108Y-83179162D01*
X168080917Y-83189233D01*
X168087693Y-83194365D01*
X168123264Y-83240036D01*
X168129577Y-83293347D01*
X168106508Y-83347112D01*
X168090640Y-83365543D01*
X168074492Y-83380536D01*
X168057173Y-83391236D01*
X168033228Y-83398365D01*
X167997198Y-83402648D01*
X167943630Y-83404809D01*
X167867065Y-83405572D01*
X167788259Y-83405663D01*
X167525997Y-83405663D01*
X167525997Y-83569112D01*
X167525997Y-83732561D01*
X167730309Y-83732561D01*
X167816919Y-83733067D01*
X167877082Y-83735157D01*
X167917033Y-83739692D01*
X167943005Y-83747532D01*
X167961234Y-83759536D01*
X167967310Y-83765251D01*
X167994565Y-83813592D01*
X167996366Y-83871017D01*
X167972612Y-83925975D01*
X167968759Y-83930976D01*
X167953654Y-83947126D01*
X167935036Y-83958274D01*
X167906698Y-83965584D01*
X167862431Y-83970226D01*
X167796031Y-83973365D01*
X167733056Y-83975294D01*
X167528593Y-83981025D01*
X167523209Y-84183283D01*
X167520314Y-84269960D01*
X167516387Y-84330147D01*
X167510416Y-84370045D01*
X167501392Y-84395854D01*
X167488304Y-84413773D01*
X167485135Y-84416931D01*
X167429359Y-84452979D01*
X167371473Y-84457471D01*
X167351358Y-84451471D01*
X167314908Y-84426135D01*
X167298237Y-84404699D01*
X167292900Y-84377642D01*
X167288509Y-84318652D01*
X167285085Y-84228471D01*
X167282650Y-84107843D01*
X167281225Y-83957512D01*
X167280824Y-83801864D01*
X167280824Y-83231567D01*
X167318653Y-83196028D01*
X167332625Y-83184195D01*
X167348949Y-83175327D01*
X167372209Y-83168998D01*
X167406991Y-83164780D01*
X167457881Y-83162248D01*
X167529465Y-83160975D01*
X167626329Y-83160533D01*
X167700554Y-83160489D01*
X167815704Y-83160668D01*
G37*
G36*
X168994835Y-83136554D02*
G01*
X169051222Y-83139740D01*
X169095725Y-83147684D01*
X169138745Y-83162542D01*
X169190684Y-83186469D01*
X169213176Y-83197525D01*
X169310356Y-83253582D01*
X169388137Y-83314655D01*
X169444554Y-83377594D01*
X169477639Y-83439248D01*
X169485428Y-83496466D01*
X169465954Y-83546099D01*
X169444321Y-83567926D01*
X169395219Y-83596465D01*
X169349533Y-83598402D01*
X169301675Y-83572507D01*
X169253517Y-83525930D01*
X169162401Y-83446364D01*
X169059812Y-83394920D01*
X168950139Y-83373681D01*
X168931660Y-83373224D01*
X168834586Y-83379264D01*
X168757009Y-83400546D01*
X168687559Y-83441561D01*
X168629091Y-83492682D01*
X168576047Y-83549320D01*
X168541907Y-83600854D01*
X168518387Y-83660328D01*
X168514653Y-83672847D01*
X168497173Y-83787793D01*
X168509800Y-83898764D01*
X168550474Y-84000738D01*
X168617135Y-84088689D01*
X168707724Y-84157591D01*
X168715019Y-84161632D01*
X168821771Y-84204998D01*
X168927634Y-84217221D01*
X169038994Y-84199027D01*
X169040409Y-84198622D01*
X169091037Y-84181400D01*
X169133653Y-84158837D01*
X169177196Y-84124798D01*
X169230608Y-84073150D01*
X169245291Y-84058071D01*
X169305244Y-83999190D01*
X169349881Y-83963195D01*
X169383546Y-83946856D01*
X169397224Y-83945045D01*
X169438537Y-83956988D01*
X169480140Y-83986321D01*
X169510855Y-84023296D01*
X169520077Y-84052160D01*
X169506550Y-84106016D01*
X169469602Y-84169305D01*
X169414680Y-84236127D01*
X169347233Y-84300579D01*
X169272709Y-84356760D01*
X169202551Y-84396083D01*
X169137402Y-84420751D01*
X169059846Y-84442670D01*
X168982455Y-84458919D01*
X168917802Y-84466578D01*
X168898970Y-84466618D01*
X168870008Y-84462562D01*
X168821734Y-84453497D01*
X168784556Y-84445702D01*
X168642284Y-84398910D01*
X168518237Y-84325957D01*
X168414843Y-84229287D01*
X168334528Y-84111341D01*
X168279719Y-83974561D01*
X168267573Y-83925376D01*
X168253742Y-83784311D01*
X168270417Y-83646118D01*
X168315443Y-83515101D01*
X168386668Y-83395564D01*
X168481938Y-83291810D01*
X168599100Y-83208142D01*
X168636248Y-83188552D01*
X168687387Y-83164672D01*
X168729824Y-83149363D01*
X168773614Y-83140737D01*
X168828814Y-83136905D01*
X168905477Y-83135977D01*
X168916163Y-83135972D01*
X168994835Y-83136554D01*
G37*
G36*
X166759840Y-83170657D02*
G01*
X166795546Y-83195326D01*
X166797784Y-83197265D01*
X166839606Y-83234041D01*
X166840323Y-83811689D01*
X166840243Y-83974630D01*
X166839499Y-84107461D01*
X166838009Y-84212756D01*
X166835687Y-84293089D01*
X166832449Y-84351035D01*
X166828209Y-84389168D01*
X166822884Y-84410062D01*
X166820517Y-84414067D01*
X166774299Y-84447900D01*
X166718333Y-84458741D01*
X166686080Y-84452439D01*
X166663371Y-84435248D01*
X166624647Y-84396794D01*
X166574041Y-84341560D01*
X166515683Y-84274028D01*
X166464244Y-84211756D01*
X166390982Y-84121297D01*
X166311665Y-84023438D01*
X166233989Y-83927668D01*
X166165651Y-83843481D01*
X166139586Y-83811399D01*
X165997748Y-83636890D01*
X165988829Y-84023883D01*
X165986190Y-84132689D01*
X165983579Y-84229976D01*
X165981138Y-84311189D01*
X165979012Y-84371777D01*
X165977342Y-84407186D01*
X165976570Y-84414542D01*
X165960575Y-84424405D01*
X165929302Y-84440910D01*
X165896079Y-84457322D01*
X165874235Y-84466906D01*
X165871886Y-84467443D01*
X165855170Y-84461174D01*
X165820871Y-84446721D01*
X165816314Y-84444743D01*
X165778219Y-84421690D01*
X165755483Y-84396131D01*
X165755020Y-84395011D01*
X165752518Y-84372598D01*
X165750227Y-84321471D01*
X165748216Y-84245606D01*
X165746559Y-84148978D01*
X165745325Y-84035562D01*
X165744587Y-83909334D01*
X165744401Y-83804033D01*
X165744401Y-83240728D01*
X165784521Y-83200608D01*
X165836689Y-83166989D01*
X165891480Y-83165550D01*
X165945379Y-83196366D01*
X165946372Y-83197265D01*
X165966884Y-83219247D01*
X166004830Y-83263113D01*
X166057192Y-83325248D01*
X166120951Y-83402034D01*
X166193087Y-83489857D01*
X166270582Y-83585099D01*
X166284100Y-83601802D01*
X166360614Y-83696004D01*
X166430839Y-83781660D01*
X166492064Y-83855529D01*
X166541581Y-83914370D01*
X166576681Y-83954944D01*
X166594655Y-83974008D01*
X166596083Y-83975011D01*
X166600432Y-83961041D01*
X166604238Y-83918404D01*
X166607338Y-83851119D01*
X166609570Y-83763205D01*
X166610771Y-83658683D01*
X166610932Y-83607250D01*
X166611511Y-83499427D01*
X166612995Y-83402233D01*
X166615231Y-83320546D01*
X166618067Y-83259245D01*
X166621350Y-83223206D01*
X166623191Y-83216057D01*
X166652781Y-83190160D01*
X166695998Y-83168482D01*
X166731283Y-83160489D01*
X166759840Y-83170657D01*
G37*
G36*
X166962098Y-79842379D02*
G01*
X167000068Y-79885587D01*
X167027106Y-79937390D01*
X167022412Y-79992649D01*
X166990981Y-80042696D01*
X166983614Y-80048904D01*
X166971885Y-80054147D01*
X166953187Y-80058507D01*
X166924915Y-80062063D01*
X166884463Y-80064897D01*
X166829226Y-80067089D01*
X166756597Y-80068721D01*
X166663972Y-80069873D01*
X166548743Y-80070626D01*
X166408307Y-80071061D01*
X166240057Y-80071258D01*
X166068767Y-80071300D01*
X165172329Y-80071300D01*
X165172329Y-82457658D01*
X165172329Y-84844015D01*
X167558687Y-84844015D01*
X169945045Y-84844015D01*
X169945045Y-84002252D01*
X169945079Y-83814798D01*
X169945251Y-83657300D01*
X169945661Y-83527025D01*
X169946413Y-83421239D01*
X169947608Y-83337210D01*
X169949348Y-83272203D01*
X169951737Y-83223486D01*
X169954875Y-83188324D01*
X169958866Y-83163985D01*
X169963811Y-83147734D01*
X169969812Y-83136839D01*
X169976972Y-83128566D01*
X169977735Y-83127799D01*
X170026076Y-83100544D01*
X170083502Y-83098743D01*
X170138461Y-83122496D01*
X170143459Y-83126348D01*
X170182046Y-83157586D01*
X170186532Y-84075211D01*
X170191017Y-84992836D01*
X170142841Y-85041012D01*
X170094664Y-85089189D01*
X167564031Y-85088083D01*
X167175632Y-85087810D01*
X166819741Y-85087344D01*
X166496176Y-85086684D01*
X166204753Y-85085829D01*
X165945292Y-85084777D01*
X165717610Y-85083527D01*
X165521525Y-85082078D01*
X165356855Y-85080429D01*
X165223419Y-85078578D01*
X165121033Y-85076523D01*
X165049517Y-85074265D01*
X165008688Y-85071800D01*
X164998486Y-85070072D01*
X164964689Y-85042184D01*
X164945365Y-85013202D01*
X164942840Y-84991485D01*
X164940491Y-84939249D01*
X164938317Y-84858667D01*
X164936318Y-84751909D01*
X164934495Y-84621148D01*
X164932847Y-84468555D01*
X164931374Y-84296300D01*
X164930075Y-84106555D01*
X164928951Y-83901493D01*
X164928002Y-83683283D01*
X164927227Y-83454098D01*
X164926626Y-83216109D01*
X164926200Y-82971486D01*
X164925947Y-82722403D01*
X164925868Y-82471030D01*
X164925962Y-82219537D01*
X164926230Y-81970098D01*
X164926671Y-81724883D01*
X164927286Y-81486063D01*
X164928073Y-81255811D01*
X164929033Y-81036296D01*
X164930166Y-80829691D01*
X164931472Y-80638168D01*
X164932950Y-80463896D01*
X164934600Y-80309049D01*
X164936423Y-80175797D01*
X164938417Y-80066311D01*
X164940583Y-79982763D01*
X164942921Y-79927325D01*
X164945430Y-79902167D01*
X164945714Y-79901346D01*
X164968528Y-79867241D01*
X164989812Y-79850814D01*
X165010381Y-79849058D01*
X165060704Y-79847426D01*
X165137845Y-79845943D01*
X165238869Y-79844638D01*
X165360840Y-79843537D01*
X165500823Y-79842666D01*
X165655881Y-79842052D01*
X165823079Y-79841723D01*
X165988724Y-79841696D01*
X166962098Y-79842379D01*
G37*
D15*
%TO.C,C4*%
X150258633Y-73065080D02*
X149889166Y-72695613D01*
X151298080Y-72025633D02*
X150928613Y-71656166D01*
D11*
%TO.C,S1*%
X113831500Y-93980000D02*
X113831500Y-93980000D01*
X113931500Y-93980000D02*
X113931500Y-93980000D01*
X115331500Y-92230000D02*
X121331500Y-92230000D01*
X115331500Y-95730000D02*
X121331500Y-95730000D01*
X113931500Y-93980000D02*
G75*
G03*
X113831500Y-93980000I-50000J0D01*
G01*
X113831500Y-93980000D02*
G75*
G03*
X113931500Y-93980000I50000J0D01*
G01*
D15*
%TO.C,J2*%
X126766793Y-92395293D02*
X144606793Y-92395293D01*
X124166793Y-92395293D02*
X125496793Y-92395293D01*
X124166793Y-93725293D02*
X124166793Y-92395293D01*
X144606793Y-95055293D02*
X144606793Y-92395293D01*
X126766793Y-95055293D02*
X126766793Y-92395293D01*
X126766793Y-95055293D02*
X144606793Y-95055293D01*
%TO.C,G\u002A\u002A\u002A*%
G36*
X165501418Y-71740779D02*
G01*
X165501418Y-72168183D01*
X165661694Y-72168183D01*
X165821971Y-72168183D01*
X165821971Y-72267401D01*
X165821971Y-72366620D01*
X165539579Y-72366620D01*
X165257187Y-72366620D01*
X165257187Y-71839998D01*
X165257187Y-71313375D01*
X165379303Y-71313375D01*
X165501418Y-71313375D01*
X165501418Y-71740779D01*
G37*
G36*
X165547211Y-74663916D02*
G01*
X165547211Y-74869986D01*
X165623533Y-74869986D01*
X165699855Y-74869986D01*
X165699855Y-74923411D01*
X165699855Y-74976837D01*
X165562476Y-74976837D01*
X165425096Y-74976837D01*
X165425096Y-74717341D01*
X165425096Y-74457846D01*
X165486153Y-74457846D01*
X165547211Y-74457846D01*
X165547211Y-74663916D01*
G37*
G36*
X168340601Y-71412594D02*
G01*
X168340601Y-71511813D01*
X168226117Y-71511813D01*
X168111634Y-71511813D01*
X168111634Y-71939216D01*
X168111634Y-72366620D01*
X167989519Y-72366620D01*
X167867403Y-72366620D01*
X167867403Y-71939216D01*
X167867403Y-71511813D01*
X167752920Y-71511813D01*
X167638437Y-71511813D01*
X167638437Y-71412594D01*
X167638437Y-71313375D01*
X167989519Y-71313375D01*
X168340601Y-71313375D01*
X168340601Y-71412594D01*
G37*
G36*
X171042403Y-71412594D02*
G01*
X171042403Y-71511813D01*
X170927920Y-71511813D01*
X170813437Y-71511813D01*
X170813437Y-71939216D01*
X170813437Y-72366620D01*
X170691322Y-72366620D01*
X170569206Y-72366620D01*
X170569206Y-71939216D01*
X170569206Y-71511813D01*
X170462355Y-71511813D01*
X170355504Y-71511813D01*
X170355504Y-71412594D01*
X170355504Y-71313375D01*
X170698954Y-71313375D01*
X171042403Y-71313375D01*
X171042403Y-71412594D01*
G37*
G36*
X172294086Y-72977197D02*
G01*
X172294086Y-73084048D01*
X172187235Y-73084048D01*
X172080384Y-73084048D01*
X172080384Y-73511452D01*
X172080384Y-73938856D01*
X171958269Y-73938856D01*
X171836153Y-73938856D01*
X171836153Y-73511452D01*
X171836153Y-73084048D01*
X171721670Y-73084048D01*
X171607187Y-73084048D01*
X171607187Y-72977197D01*
X171607187Y-72870346D01*
X171950637Y-72870346D01*
X172294086Y-72870346D01*
X172294086Y-72977197D01*
G37*
G36*
X166432548Y-74511272D02*
G01*
X166430185Y-74547079D01*
X166416853Y-74561764D01*
X166383189Y-74564691D01*
X166379122Y-74564697D01*
X166325697Y-74564697D01*
X166325697Y-74770767D01*
X166325697Y-74976837D01*
X166257007Y-74976837D01*
X166188317Y-74976837D01*
X166188317Y-74770767D01*
X166188317Y-74564697D01*
X166134891Y-74564697D01*
X166099084Y-74562334D01*
X166084399Y-74549003D01*
X166081473Y-74515338D01*
X166081466Y-74511272D01*
X166081466Y-74457846D01*
X166257007Y-74457846D01*
X166432548Y-74457846D01*
X166432548Y-74511272D01*
G37*
G36*
X167592644Y-72977197D02*
G01*
X167592644Y-73084048D01*
X167432367Y-73084048D01*
X167272091Y-73084048D01*
X167272091Y-73183267D01*
X167272091Y-73282486D01*
X167394206Y-73282486D01*
X167516322Y-73282486D01*
X167516322Y-73381704D01*
X167516322Y-73480923D01*
X167394206Y-73480923D01*
X167272091Y-73480923D01*
X167272091Y-73709889D01*
X167272091Y-73938856D01*
X167149976Y-73938856D01*
X167027860Y-73938856D01*
X167027860Y-73404601D01*
X167027860Y-72870346D01*
X167310252Y-72870346D01*
X167592644Y-72870346D01*
X167592644Y-72977197D01*
G37*
G36*
X174385312Y-74741412D02*
G01*
X174385312Y-75024978D01*
X174340693Y-75069597D01*
X174294675Y-75104945D01*
X174256684Y-75111321D01*
X174227332Y-75088703D01*
X174219205Y-75073913D01*
X174209121Y-75041032D01*
X174219215Y-75015221D01*
X174232019Y-75000424D01*
X174243559Y-74986042D01*
X174251850Y-74968029D01*
X174257422Y-74941478D01*
X174260809Y-74901481D01*
X174262540Y-74843131D01*
X174263148Y-74761522D01*
X174263197Y-74712541D01*
X174263197Y-74457846D01*
X174324254Y-74457846D01*
X174385312Y-74457846D01*
X174385312Y-74741412D01*
G37*
G36*
X165058750Y-71412594D02*
G01*
X165058750Y-71511813D01*
X164890841Y-71511813D01*
X164722932Y-71511813D01*
X164722932Y-71618664D01*
X164722932Y-71725514D01*
X164852680Y-71725514D01*
X164982428Y-71725514D01*
X164982428Y-71824733D01*
X164982428Y-71923952D01*
X164852680Y-71923952D01*
X164722932Y-71923952D01*
X164722932Y-72046067D01*
X164722932Y-72168183D01*
X164906105Y-72168183D01*
X165089278Y-72168183D01*
X165089278Y-72267401D01*
X165089278Y-72366620D01*
X164783990Y-72366620D01*
X164478702Y-72366620D01*
X164478702Y-71839998D01*
X164478702Y-71313375D01*
X164768726Y-71313375D01*
X165058750Y-71313375D01*
X165058750Y-71412594D01*
G37*
G36*
X166569928Y-71412594D02*
G01*
X166569928Y-71511813D01*
X166402019Y-71511813D01*
X166234110Y-71511813D01*
X166234110Y-71618664D01*
X166234110Y-71725514D01*
X166371490Y-71725514D01*
X166508870Y-71725514D01*
X166508870Y-71824733D01*
X166508870Y-71923952D01*
X166371490Y-71923952D01*
X166234110Y-71923952D01*
X166234110Y-72046067D01*
X166234110Y-72168183D01*
X166417283Y-72168183D01*
X166600456Y-72168183D01*
X166600456Y-72267401D01*
X166600456Y-72366620D01*
X166295168Y-72366620D01*
X165989879Y-72366620D01*
X165989879Y-71839998D01*
X165989879Y-71313375D01*
X166279903Y-71313375D01*
X166569928Y-71313375D01*
X166569928Y-71412594D01*
G37*
G36*
X167440000Y-74557065D02*
G01*
X167440000Y-74656284D01*
X167493425Y-74656284D01*
X167546851Y-74656284D01*
X167546851Y-74557065D01*
X167546851Y-74457846D01*
X167615540Y-74457846D01*
X167684230Y-74457846D01*
X167684230Y-74717341D01*
X167684230Y-74976837D01*
X167615540Y-74976837D01*
X167546851Y-74976837D01*
X167546851Y-74869986D01*
X167546851Y-74763135D01*
X167493425Y-74763135D01*
X167440000Y-74763135D01*
X167440000Y-74869986D01*
X167440000Y-74976837D01*
X167378942Y-74976837D01*
X167317884Y-74976837D01*
X167317884Y-74717341D01*
X167317884Y-74457846D01*
X167378942Y-74457846D01*
X167440000Y-74457846D01*
X167440000Y-74557065D01*
G37*
G36*
X171790360Y-71412594D02*
G01*
X171790360Y-71511813D01*
X171622452Y-71511813D01*
X171454543Y-71511813D01*
X171454543Y-71618664D01*
X171454543Y-71725514D01*
X171584290Y-71725514D01*
X171714038Y-71725514D01*
X171714038Y-71824733D01*
X171714038Y-71923952D01*
X171584290Y-71923952D01*
X171454543Y-71923952D01*
X171454543Y-72046067D01*
X171454543Y-72168183D01*
X171630084Y-72168183D01*
X171805625Y-72168183D01*
X171805625Y-72267401D01*
X171805625Y-72366620D01*
X171507968Y-72366620D01*
X171210312Y-72366620D01*
X171210312Y-71839998D01*
X171210312Y-71313375D01*
X171500336Y-71313375D01*
X171790360Y-71313375D01*
X171790360Y-71412594D01*
G37*
G36*
X173072572Y-71511813D02*
G01*
X173072572Y-71710250D01*
X173187055Y-71710250D01*
X173301538Y-71710250D01*
X173301538Y-71511813D01*
X173301538Y-71313375D01*
X173423653Y-71313375D01*
X173545769Y-71313375D01*
X173545769Y-71839998D01*
X173545769Y-72366620D01*
X173423653Y-72366620D01*
X173301538Y-72366620D01*
X173301538Y-72137654D01*
X173301538Y-71908688D01*
X173187055Y-71908688D01*
X173072572Y-71908688D01*
X173072572Y-72137654D01*
X173072572Y-72366620D01*
X172950456Y-72366620D01*
X172828341Y-72366620D01*
X172828341Y-71839998D01*
X172828341Y-71313375D01*
X172950456Y-71313375D01*
X173072572Y-71313375D01*
X173072572Y-71511813D01*
G37*
G36*
X167972276Y-74583778D02*
G01*
X168032663Y-74709709D01*
X168033987Y-74583778D01*
X168035312Y-74457846D01*
X168096370Y-74457846D01*
X168157428Y-74457846D01*
X168157428Y-74717341D01*
X168157428Y-74976837D01*
X168089162Y-74976837D01*
X168048501Y-74975333D01*
X168024254Y-74966038D01*
X168006543Y-74941775D01*
X167989386Y-74904331D01*
X167964248Y-74846888D01*
X167938570Y-74788805D01*
X167930520Y-74770767D01*
X167903165Y-74709709D01*
X167910095Y-74843273D01*
X167917025Y-74976837D01*
X167854053Y-74976837D01*
X167791081Y-74976837D01*
X167791081Y-74717341D01*
X167791081Y-74457846D01*
X167851485Y-74457846D01*
X167911888Y-74457846D01*
X167972276Y-74583778D01*
G37*
G36*
X168706947Y-69802197D02*
G01*
X168703968Y-69832964D01*
X168688862Y-69845583D01*
X168653521Y-69847990D01*
X168600096Y-69847990D01*
X168600096Y-70273695D01*
X168600096Y-70699401D01*
X168653521Y-70709423D01*
X168689731Y-70719637D01*
X168704494Y-70737763D01*
X168706947Y-70764547D01*
X168706947Y-70809649D01*
X168523774Y-70809649D01*
X168340601Y-70809649D01*
X168340601Y-70764547D01*
X168344627Y-70733276D01*
X168362731Y-70717398D01*
X168394264Y-70709378D01*
X168447928Y-70699311D01*
X168443874Y-70277467D01*
X168439819Y-69855623D01*
X168390210Y-69850839D01*
X168355795Y-69843910D01*
X168342451Y-69826113D01*
X168340601Y-69801230D01*
X168340601Y-69756404D01*
X168523774Y-69756404D01*
X168706947Y-69756404D01*
X168706947Y-69802197D01*
G37*
G36*
X170279182Y-74506140D02*
G01*
X170270658Y-74545489D01*
X170246304Y-74605412D01*
X170207952Y-74681581D01*
X170195228Y-74704739D01*
X170161747Y-74765305D01*
X170134607Y-74815586D01*
X170116814Y-74849934D01*
X170111274Y-74862515D01*
X170125083Y-74866607D01*
X170160704Y-74869321D01*
X170195228Y-74869986D01*
X170279182Y-74869986D01*
X170279182Y-74923411D01*
X170279182Y-74976837D01*
X170111274Y-74976837D01*
X169943365Y-74976837D01*
X169943575Y-74934859D01*
X169951020Y-74905390D01*
X169971106Y-74856672D01*
X170000719Y-74795611D01*
X170034756Y-74732606D01*
X170125727Y-74572329D01*
X170042178Y-74567752D01*
X169958629Y-74563174D01*
X169958629Y-74510510D01*
X169958629Y-74457846D01*
X170118906Y-74457846D01*
X170279182Y-74457846D01*
X170279182Y-74506140D01*
G37*
G36*
X171499877Y-74515088D02*
G01*
X171493064Y-74556613D01*
X171471963Y-74611534D01*
X171434705Y-74684359D01*
X171416109Y-74717341D01*
X171332799Y-74862353D01*
X171416568Y-74866931D01*
X171500336Y-74871509D01*
X171500336Y-74924173D01*
X171500336Y-74976837D01*
X171340060Y-74976837D01*
X171179783Y-74976837D01*
X171179783Y-74928543D01*
X171188308Y-74889194D01*
X171212661Y-74829271D01*
X171251014Y-74753102D01*
X171263738Y-74729944D01*
X171297219Y-74669378D01*
X171324359Y-74619097D01*
X171342152Y-74584749D01*
X171347692Y-74572168D01*
X171333954Y-74567905D01*
X171298830Y-74565200D01*
X171271370Y-74564697D01*
X171195048Y-74564697D01*
X171195048Y-74511272D01*
X171195048Y-74457846D01*
X171347692Y-74457846D01*
X171500336Y-74457846D01*
X171499877Y-74515088D01*
G37*
G36*
X175561015Y-71530893D02*
G01*
X175561356Y-71748411D01*
X175676416Y-71530893D01*
X175791476Y-71313375D01*
X175920305Y-71313375D01*
X175978714Y-71313994D01*
X176023305Y-71315643D01*
X176047044Y-71318016D01*
X176049134Y-71319030D01*
X176041990Y-71333487D01*
X176022165Y-71370120D01*
X175992068Y-71424566D01*
X175954109Y-71492460D01*
X175916510Y-71559171D01*
X175783885Y-71793657D01*
X175932796Y-72080725D01*
X176081706Y-72367793D01*
X175940364Y-72363390D01*
X175799022Y-72358988D01*
X175683664Y-72112649D01*
X175568305Y-71866311D01*
X175564120Y-72116466D01*
X175559935Y-72366620D01*
X175438188Y-72366620D01*
X175316442Y-72366620D01*
X175316442Y-71839998D01*
X175316442Y-71313375D01*
X175438557Y-71313375D01*
X175560673Y-71313375D01*
X175561015Y-71530893D01*
G37*
G36*
X174721129Y-72944760D02*
G01*
X174719746Y-72989669D01*
X174712305Y-73013079D01*
X174693870Y-73023999D01*
X174675336Y-73028333D01*
X174629543Y-73037492D01*
X174629543Y-73409944D01*
X174629543Y-73782395D01*
X174675336Y-73791554D01*
X174703591Y-73799757D01*
X174716947Y-73815637D01*
X174720926Y-73848625D01*
X174721129Y-73869784D01*
X174721129Y-73938856D01*
X174499795Y-73938856D01*
X174278461Y-73938856D01*
X174278461Y-73870602D01*
X174280240Y-73827836D01*
X174289659Y-73805549D01*
X174312842Y-73793730D01*
X174328071Y-73789502D01*
X174377680Y-73776654D01*
X174381766Y-73408197D01*
X174385852Y-73039739D01*
X174332156Y-73029666D01*
X174300086Y-73022029D01*
X174284283Y-73008870D01*
X174278992Y-72981114D01*
X174278461Y-72944970D01*
X174278461Y-72870346D01*
X174499795Y-72870346D01*
X174721129Y-72870346D01*
X174721129Y-72944760D01*
G37*
G36*
X175133269Y-71381373D02*
G01*
X175131717Y-71423703D01*
X175122664Y-71445152D01*
X175099510Y-71455358D01*
X175079843Y-71459394D01*
X175026418Y-71469417D01*
X175026418Y-71841005D01*
X175026418Y-72212593D01*
X175079843Y-72222615D01*
X175113055Y-72230880D01*
X175128534Y-72245527D01*
X175133030Y-72276287D01*
X175133269Y-72299629D01*
X175133269Y-72366620D01*
X174911935Y-72366620D01*
X174690601Y-72366620D01*
X174690601Y-72299143D01*
X174692448Y-72256696D01*
X174701805Y-72235033D01*
X174724398Y-72224461D01*
X174736394Y-72221608D01*
X174782187Y-72211550D01*
X174782187Y-71840693D01*
X174782187Y-71469835D01*
X174736394Y-71460677D01*
X174708139Y-71452473D01*
X174694783Y-71436594D01*
X174690804Y-71403606D01*
X174690601Y-71382447D01*
X174690601Y-71313375D01*
X174911935Y-71313375D01*
X175133269Y-71313375D01*
X175133269Y-71381373D01*
G37*
G36*
X176659711Y-71381373D02*
G01*
X176658160Y-71423703D01*
X176649106Y-71445152D01*
X176625952Y-71455358D01*
X176606286Y-71459394D01*
X176552860Y-71469417D01*
X176552860Y-71841005D01*
X176552860Y-72212593D01*
X176606286Y-72222615D01*
X176639497Y-72230880D01*
X176654976Y-72245527D01*
X176659472Y-72276287D01*
X176659711Y-72299629D01*
X176659711Y-72366620D01*
X176438377Y-72366620D01*
X176217043Y-72366620D01*
X176217043Y-72299143D01*
X176218890Y-72256696D01*
X176228247Y-72235033D01*
X176250840Y-72224461D01*
X176262836Y-72221608D01*
X176308629Y-72211550D01*
X176308629Y-71840693D01*
X176308629Y-71469835D01*
X176262836Y-71460677D01*
X176234582Y-71452473D01*
X176221225Y-71436594D01*
X176217246Y-71403606D01*
X176217043Y-71382447D01*
X176217043Y-71313375D01*
X176438377Y-71313375D01*
X176659711Y-71313375D01*
X176659711Y-71381373D01*
G37*
G36*
X174156346Y-74511272D02*
G01*
X174156346Y-74564697D01*
X174080024Y-74564697D01*
X174034843Y-74565698D01*
X174012313Y-74571849D01*
X174004559Y-74587877D01*
X174003702Y-74610490D01*
X174006113Y-74639853D01*
X174019179Y-74652907D01*
X174051648Y-74656211D01*
X174064759Y-74656284D01*
X174103852Y-74657901D01*
X174121225Y-74667888D01*
X174125680Y-74693945D01*
X174125817Y-74709709D01*
X174123968Y-74743916D01*
X174112555Y-74759117D01*
X174082776Y-74763015D01*
X174064759Y-74763135D01*
X174025666Y-74764752D01*
X174008293Y-74774739D01*
X174003838Y-74800796D01*
X174003702Y-74816560D01*
X174003702Y-74869986D01*
X174087656Y-74869986D01*
X174171610Y-74869986D01*
X174171610Y-74923411D01*
X174171610Y-74976837D01*
X174018966Y-74976837D01*
X173866322Y-74976837D01*
X173866322Y-74717341D01*
X173866322Y-74457846D01*
X174011334Y-74457846D01*
X174156346Y-74457846D01*
X174156346Y-74511272D01*
G37*
G36*
X166798894Y-74511272D02*
G01*
X166798894Y-74564697D01*
X166714940Y-74564697D01*
X166666944Y-74565466D01*
X166641963Y-74570505D01*
X166632481Y-74583914D01*
X166630985Y-74609790D01*
X166630985Y-74610490D01*
X166632976Y-74638649D01*
X166644473Y-74651986D01*
X166673761Y-74656025D01*
X166699675Y-74656284D01*
X166741881Y-74657424D01*
X166761867Y-74665154D01*
X166767941Y-74685935D01*
X166768365Y-74709709D01*
X166766899Y-74742536D01*
X166756961Y-74758081D01*
X166730242Y-74762805D01*
X166699675Y-74763135D01*
X166657469Y-74764275D01*
X166637483Y-74772005D01*
X166631409Y-74792786D01*
X166630985Y-74816560D01*
X166630985Y-74869986D01*
X166722572Y-74869986D01*
X166814158Y-74869986D01*
X166814158Y-74923411D01*
X166814158Y-74976837D01*
X166661514Y-74976837D01*
X166508870Y-74976837D01*
X166508870Y-74717341D01*
X166508870Y-74457846D01*
X166653882Y-74457846D01*
X166798894Y-74457846D01*
X166798894Y-74511272D01*
G37*
G36*
X168694737Y-74545617D02*
G01*
X168699315Y-74633387D01*
X168744472Y-74545617D01*
X168769792Y-74498271D01*
X168789278Y-74472011D01*
X168810762Y-74460626D01*
X168842077Y-74457903D01*
X168855139Y-74457846D01*
X168895000Y-74459835D01*
X168918225Y-74464841D01*
X168920649Y-74467415D01*
X168913743Y-74484294D01*
X168895344Y-74520947D01*
X168868926Y-74570545D01*
X168858438Y-74589683D01*
X168796227Y-74702381D01*
X168866070Y-74830510D01*
X168896164Y-74886613D01*
X168919750Y-74932282D01*
X168933605Y-74961187D01*
X168935913Y-74967738D01*
X168922262Y-74973173D01*
X168887738Y-74976426D01*
X168867434Y-74976837D01*
X168798954Y-74976837D01*
X168746069Y-74873802D01*
X168693184Y-74770767D01*
X168692433Y-74873802D01*
X168691682Y-74976837D01*
X168622992Y-74976837D01*
X168554303Y-74976837D01*
X168554303Y-74717341D01*
X168554303Y-74457846D01*
X168622231Y-74457846D01*
X168690159Y-74457846D01*
X168694737Y-74545617D01*
G37*
G36*
X170660793Y-74511272D02*
G01*
X170660793Y-74564697D01*
X170576839Y-74564697D01*
X170528843Y-74565466D01*
X170503862Y-74570505D01*
X170494380Y-74583914D01*
X170492884Y-74609790D01*
X170492884Y-74610490D01*
X170494875Y-74638649D01*
X170506372Y-74651986D01*
X170535660Y-74656025D01*
X170561574Y-74656284D01*
X170603780Y-74657424D01*
X170623766Y-74665154D01*
X170629840Y-74685935D01*
X170630264Y-74709709D01*
X170628798Y-74742536D01*
X170618860Y-74758081D01*
X170592141Y-74762805D01*
X170561574Y-74763135D01*
X170519368Y-74764275D01*
X170499382Y-74772005D01*
X170493308Y-74792786D01*
X170492884Y-74816560D01*
X170492884Y-74869986D01*
X170584471Y-74869986D01*
X170676057Y-74869986D01*
X170676057Y-74923411D01*
X170676057Y-74976837D01*
X170523413Y-74976837D01*
X170370769Y-74976837D01*
X170370769Y-74717341D01*
X170370769Y-74457846D01*
X170515781Y-74457846D01*
X170660793Y-74457846D01*
X170660793Y-74511272D01*
G37*
G36*
X173243535Y-74545617D02*
G01*
X173248113Y-74633387D01*
X173293906Y-74545653D01*
X173319587Y-74498347D01*
X173339315Y-74472092D01*
X173360902Y-74460690D01*
X173392162Y-74457945D01*
X173404573Y-74457882D01*
X173444208Y-74459867D01*
X173467157Y-74464901D01*
X173469447Y-74467415D01*
X173462541Y-74484294D01*
X173444142Y-74520947D01*
X173417724Y-74570545D01*
X173407236Y-74589683D01*
X173345025Y-74702381D01*
X173414868Y-74830510D01*
X173444962Y-74886613D01*
X173468548Y-74932282D01*
X173482403Y-74961187D01*
X173484711Y-74967738D01*
X173471060Y-74973173D01*
X173436536Y-74976426D01*
X173416232Y-74976837D01*
X173347752Y-74976837D01*
X173294867Y-74873802D01*
X173241982Y-74770767D01*
X173241231Y-74873802D01*
X173240480Y-74976837D01*
X173171790Y-74976837D01*
X173103101Y-74976837D01*
X173103101Y-74717341D01*
X173103101Y-74457846D01*
X173171029Y-74457846D01*
X173238957Y-74457846D01*
X173243535Y-74545617D01*
G37*
G36*
X166183721Y-72873520D02*
G01*
X166301240Y-72877978D01*
X166410423Y-73109889D01*
X166449381Y-73193186D01*
X166485962Y-73272402D01*
X166517186Y-73341012D01*
X166540077Y-73392494D01*
X166548583Y-73412477D01*
X166577560Y-73483154D01*
X166572363Y-73176750D01*
X166567167Y-72870346D01*
X166683030Y-72870346D01*
X166798894Y-72870346D01*
X166798894Y-73405218D01*
X166798894Y-73940090D01*
X166673234Y-73935657D01*
X166547574Y-73931224D01*
X166444677Y-73702257D01*
X166407654Y-73619533D01*
X166372957Y-73541384D01*
X166343464Y-73474338D01*
X166322053Y-73424923D01*
X166314658Y-73407366D01*
X166305378Y-73385461D01*
X166298581Y-73373427D01*
X166293977Y-73374367D01*
X166291276Y-73391386D01*
X166290191Y-73427585D01*
X166290432Y-73486069D01*
X166291710Y-73569940D01*
X166292971Y-73640149D01*
X166298406Y-73938856D01*
X166182304Y-73938856D01*
X166066202Y-73938856D01*
X166066202Y-73403959D01*
X166066202Y-72869062D01*
X166183721Y-72873520D01*
G37*
G36*
X167028178Y-71523261D02*
G01*
X167028496Y-71733147D01*
X167138399Y-71523261D01*
X167248303Y-71313375D01*
X167374680Y-71313375D01*
X167432473Y-71314474D01*
X167476381Y-71317403D01*
X167499305Y-71321606D01*
X167501057Y-71323244D01*
X167493948Y-71339151D01*
X167474233Y-71377132D01*
X167444329Y-71432685D01*
X167406657Y-71501307D01*
X167371123Y-71565138D01*
X167241188Y-71797164D01*
X167386387Y-72073079D01*
X167430196Y-72156739D01*
X167468704Y-72231065D01*
X167499788Y-72291894D01*
X167521325Y-72335062D01*
X167531191Y-72356404D01*
X167531586Y-72357807D01*
X167517470Y-72361723D01*
X167479706Y-72364745D01*
X167425174Y-72366423D01*
X167396889Y-72366620D01*
X167262191Y-72366620D01*
X167146342Y-72126206D01*
X167030493Y-71885791D01*
X167029177Y-72126206D01*
X167027860Y-72366620D01*
X166905745Y-72366620D01*
X166783629Y-72366620D01*
X166783629Y-71839998D01*
X166783629Y-71313375D01*
X166905745Y-71313375D01*
X167027860Y-71313375D01*
X167028178Y-71523261D01*
G37*
G36*
X170065480Y-69984461D02*
G01*
X170065480Y-70212518D01*
X170172331Y-70176176D01*
X170279182Y-70139833D01*
X170279182Y-70212241D01*
X170279182Y-70284650D01*
X170172331Y-70319063D01*
X170065480Y-70353477D01*
X170065480Y-70512873D01*
X170065480Y-70672269D01*
X170241021Y-70672269D01*
X170416562Y-70672269D01*
X170416562Y-70740959D01*
X170416562Y-70809649D01*
X170164699Y-70809649D01*
X169912836Y-70809649D01*
X169912836Y-70611212D01*
X169911799Y-70534338D01*
X169908932Y-70472292D01*
X169904597Y-70430135D01*
X169899159Y-70412928D01*
X169898565Y-70412774D01*
X169874698Y-70417794D01*
X169845140Y-70427661D01*
X169821698Y-70435053D01*
X169810186Y-70429545D01*
X169806361Y-70404761D01*
X169805985Y-70368811D01*
X169807462Y-70323978D01*
X169815527Y-70299985D01*
X169835632Y-70287167D01*
X169855595Y-70280862D01*
X169905204Y-70266649D01*
X169909389Y-70011527D01*
X169913574Y-69756404D01*
X169989527Y-69756404D01*
X170065480Y-69756404D01*
X170065480Y-69984461D01*
G37*
G36*
X165883028Y-72946668D02*
G01*
X165881622Y-72992147D01*
X165875091Y-73014875D01*
X165859965Y-73022586D01*
X165848684Y-73023224D01*
X165826285Y-73024022D01*
X165809029Y-73028405D01*
X165796297Y-73039870D01*
X165787467Y-73061914D01*
X165781921Y-73098035D01*
X165779038Y-73151729D01*
X165778198Y-73226495D01*
X165778782Y-73325829D01*
X165779711Y-73412347D01*
X165783810Y-73776655D01*
X165833419Y-73789502D01*
X165864169Y-73799912D01*
X165878595Y-73816607D01*
X165882822Y-73849597D01*
X165883028Y-73870602D01*
X165883028Y-73938856D01*
X165661694Y-73938856D01*
X165440360Y-73938856D01*
X165440360Y-73869784D01*
X165442052Y-73826829D01*
X165450809Y-73804931D01*
X165472152Y-73794661D01*
X165486153Y-73791554D01*
X165531947Y-73782395D01*
X165531947Y-73409944D01*
X165531947Y-73037492D01*
X165486153Y-73028333D01*
X165458687Y-73020592D01*
X165445197Y-73005802D01*
X165440746Y-72974955D01*
X165440360Y-72944760D01*
X165440360Y-72870346D01*
X165661694Y-72870346D01*
X165883028Y-72870346D01*
X165883028Y-72946668D01*
G37*
G36*
X173625499Y-73091322D02*
G01*
X173629723Y-73312297D01*
X173744206Y-73091577D01*
X173858690Y-72870857D01*
X173984621Y-72870602D01*
X174042296Y-72872070D01*
X174086078Y-72876205D01*
X174108856Y-72882217D01*
X174110553Y-72884535D01*
X174103346Y-72901854D01*
X174083364Y-72941037D01*
X174053065Y-72997493D01*
X174014904Y-73066627D01*
X173979397Y-73129686D01*
X173848242Y-73360647D01*
X173905202Y-73470395D01*
X173936096Y-73529657D01*
X173975719Y-73605289D01*
X174018506Y-73686686D01*
X174051622Y-73749483D01*
X174085616Y-73814587D01*
X174113671Y-73869756D01*
X174133051Y-73909502D01*
X174141018Y-73928339D01*
X174141081Y-73928840D01*
X174126966Y-73933292D01*
X174089207Y-73936727D01*
X174034684Y-73938633D01*
X174006492Y-73938856D01*
X173871902Y-73938856D01*
X173747111Y-73675545D01*
X173622320Y-73412233D01*
X173622205Y-73675545D01*
X173622091Y-73938856D01*
X173507608Y-73938856D01*
X173393125Y-73938856D01*
X173393125Y-73404601D01*
X173393125Y-72870346D01*
X173507200Y-72870346D01*
X173621275Y-72870346D01*
X173625499Y-73091322D01*
G37*
G36*
X164674018Y-74458492D02*
G01*
X164716155Y-74461831D01*
X164744300Y-74469963D01*
X164766718Y-74484989D01*
X164785164Y-74502465D01*
X164813020Y-74535604D01*
X164826235Y-74570497D01*
X164829770Y-74620851D01*
X164829783Y-74625755D01*
X164826787Y-74677865D01*
X164814492Y-74713461D01*
X164787938Y-74746248D01*
X164785164Y-74749044D01*
X164748143Y-74779027D01*
X164707894Y-74791742D01*
X164670681Y-74793664D01*
X164600817Y-74793664D01*
X164600817Y-74885250D01*
X164600817Y-74976837D01*
X164539759Y-74976837D01*
X164478702Y-74976837D01*
X164478702Y-74717341D01*
X164478702Y-74625755D01*
X164600817Y-74625755D01*
X164602990Y-74665182D01*
X164612877Y-74682699D01*
X164635533Y-74686807D01*
X164637109Y-74686813D01*
X164673795Y-74677498D01*
X164692779Y-74663464D01*
X164703900Y-74630132D01*
X164692711Y-74595639D01*
X164665018Y-74570712D01*
X164639305Y-74564697D01*
X164614516Y-74567978D01*
X164603498Y-74583551D01*
X164600833Y-74620010D01*
X164600817Y-74625755D01*
X164478702Y-74625755D01*
X164478702Y-74457846D01*
X164609623Y-74457846D01*
X164674018Y-74458492D01*
G37*
G36*
X168142163Y-69811204D02*
G01*
X168138342Y-69835317D01*
X168126058Y-69871448D01*
X168104081Y-69922186D01*
X168071181Y-69990119D01*
X168026127Y-70077834D01*
X167967688Y-70187920D01*
X167928461Y-70260666D01*
X167874312Y-70360945D01*
X167825210Y-70452411D01*
X167782959Y-70531659D01*
X167749364Y-70595284D01*
X167726229Y-70639884D01*
X167715360Y-70662054D01*
X167714759Y-70663799D01*
X167729096Y-70666895D01*
X167768399Y-70669484D01*
X167827106Y-70671337D01*
X167899655Y-70672225D01*
X167920829Y-70672269D01*
X168126899Y-70672269D01*
X168126899Y-70740959D01*
X168126899Y-70809649D01*
X167821610Y-70809649D01*
X167516322Y-70809649D01*
X167516322Y-70748423D01*
X167518824Y-70725393D01*
X167527297Y-70695266D01*
X167543196Y-70654943D01*
X167567971Y-70601329D01*
X167603075Y-70531325D01*
X167649961Y-70441833D01*
X167710080Y-70329758D01*
X167729267Y-70294306D01*
X167942212Y-69901416D01*
X167744532Y-69897157D01*
X167546851Y-69892898D01*
X167546851Y-69824651D01*
X167546851Y-69756404D01*
X167844507Y-69756404D01*
X168142163Y-69756404D01*
X168142163Y-69811204D01*
G37*
G36*
X172748854Y-73026807D02*
G01*
X172774876Y-73093628D01*
X172797486Y-73152328D01*
X172813879Y-73195587D01*
X172820509Y-73213796D01*
X172828039Y-73223113D01*
X172839119Y-73211568D01*
X172855649Y-73176158D01*
X172873623Y-73129841D01*
X172899115Y-73063203D01*
X172925554Y-72996782D01*
X172947383Y-72944528D01*
X172948116Y-72942852D01*
X172979900Y-72870346D01*
X173102558Y-72870346D01*
X173163959Y-72872147D01*
X173206550Y-72877094D01*
X173224892Y-72884504D01*
X173225216Y-72885755D01*
X173218921Y-72903594D01*
X173201333Y-72944635D01*
X173174398Y-73004567D01*
X173140059Y-73079082D01*
X173100263Y-73163871D01*
X173087836Y-73190068D01*
X172950456Y-73478973D01*
X172950456Y-73708914D01*
X172950456Y-73938856D01*
X172828341Y-73938856D01*
X172706226Y-73938856D01*
X172706226Y-73719750D01*
X172706226Y-73500645D01*
X172590048Y-73250369D01*
X172550401Y-73164742D01*
X172513212Y-73084024D01*
X172481229Y-73014209D01*
X172457200Y-72961293D01*
X172445578Y-72935220D01*
X172417286Y-72870346D01*
X172552445Y-72870346D01*
X172687603Y-72870346D01*
X172748854Y-73026807D01*
G37*
G36*
X174492163Y-71839998D02*
G01*
X174492163Y-72366620D01*
X174372455Y-72366620D01*
X174252747Y-72366620D01*
X174125946Y-72080412D01*
X174087647Y-71994106D01*
X174053678Y-71917823D01*
X174025922Y-71855773D01*
X174006264Y-71812166D01*
X173996589Y-71791211D01*
X173995949Y-71790002D01*
X173995334Y-71803129D01*
X173995521Y-71842180D01*
X173996437Y-71902562D01*
X173998013Y-71979684D01*
X174000178Y-72068952D01*
X174000367Y-72076210D01*
X174007981Y-72366620D01*
X173891358Y-72366620D01*
X173774735Y-72366620D01*
X173774735Y-71839998D01*
X173774735Y-71313375D01*
X173893034Y-71313944D01*
X174011334Y-71314513D01*
X174121707Y-71554359D01*
X174160253Y-71638508D01*
X174196301Y-71717913D01*
X174227047Y-71786344D01*
X174249689Y-71837576D01*
X174259087Y-71859558D01*
X174268234Y-71881020D01*
X174274973Y-71892778D01*
X174279589Y-71891740D01*
X174282371Y-71874812D01*
X174283604Y-71838903D01*
X174283576Y-71780918D01*
X174282574Y-71697766D01*
X174281388Y-71619144D01*
X174276682Y-71313375D01*
X174384422Y-71313375D01*
X174492163Y-71313375D01*
X174492163Y-71839998D01*
G37*
G36*
X167168318Y-74456087D02*
G01*
X167178227Y-74459339D01*
X167212950Y-74474445D01*
X167224265Y-74493053D01*
X167215691Y-74524886D01*
X167208158Y-74542015D01*
X167191184Y-74567184D01*
X167166414Y-74574752D01*
X167126155Y-74565783D01*
X167101346Y-74556793D01*
X167068268Y-74557378D01*
X167041623Y-74583443D01*
X167023086Y-74630316D01*
X167014327Y-74693321D01*
X167017018Y-74767787D01*
X167019405Y-74785866D01*
X167037281Y-74844130D01*
X167068344Y-74876471D01*
X167110590Y-74881543D01*
X167143760Y-74869228D01*
X167173258Y-74856958D01*
X167193399Y-74864215D01*
X167211980Y-74885799D01*
X167235236Y-74919998D01*
X167236279Y-74941370D01*
X167213262Y-74959829D01*
X167196527Y-74968812D01*
X167132366Y-74988209D01*
X167059721Y-74989594D01*
X166992904Y-74973320D01*
X166973218Y-74963320D01*
X166934134Y-74928535D01*
X166905002Y-74884343D01*
X166904528Y-74883239D01*
X166890627Y-74829406D01*
X166883952Y-74758512D01*
X166884288Y-74681344D01*
X166891419Y-74608685D01*
X166905127Y-74551320D01*
X166911476Y-74536782D01*
X166954452Y-74486093D01*
X167016034Y-74454456D01*
X167089548Y-74443808D01*
X167168318Y-74456087D01*
G37*
G36*
X165988424Y-69975529D02*
G01*
X166020511Y-70052373D01*
X166047846Y-70120264D01*
X166068343Y-70173828D01*
X166079917Y-70207692D01*
X166081723Y-70215944D01*
X166087054Y-70212709D01*
X166101111Y-70186148D01*
X166121356Y-70141311D01*
X166132388Y-70115118D01*
X166164583Y-70038083D01*
X166200993Y-69952389D01*
X166233864Y-69876285D01*
X166234556Y-69874703D01*
X166286316Y-69756404D01*
X166375233Y-69756404D01*
X166424502Y-69757319D01*
X166449075Y-69761451D01*
X166454765Y-69770878D01*
X166449901Y-69783117D01*
X166439367Y-69804474D01*
X166418023Y-69848985D01*
X166388003Y-69912152D01*
X166351444Y-69989481D01*
X166310478Y-70076474D01*
X166296720Y-70105763D01*
X166157788Y-70401696D01*
X166157788Y-70605673D01*
X166157788Y-70809649D01*
X166081466Y-70809649D01*
X166005144Y-70809649D01*
X166005144Y-70596108D01*
X166005144Y-70382567D01*
X165860132Y-70074573D01*
X165818218Y-69985332D01*
X165781054Y-69905788D01*
X165750492Y-69839939D01*
X165728384Y-69791782D01*
X165716581Y-69765315D01*
X165715120Y-69761491D01*
X165728982Y-69758789D01*
X165764961Y-69756944D01*
X165805251Y-69756404D01*
X165895381Y-69756404D01*
X165988424Y-69975529D01*
G37*
G36*
X165147916Y-74446941D02*
G01*
X165219242Y-74467571D01*
X165271735Y-74511665D01*
X165306027Y-74579905D01*
X165317716Y-74630136D01*
X165323552Y-74704205D01*
X165319930Y-74783832D01*
X165308059Y-74857341D01*
X165289151Y-74913059D01*
X165288179Y-74914914D01*
X165252561Y-74952287D01*
X165197316Y-74978447D01*
X165131921Y-74991392D01*
X165065856Y-74989116D01*
X165014428Y-74972795D01*
X164967670Y-74939420D01*
X164936212Y-74892402D01*
X164917411Y-74826161D01*
X164909435Y-74751025D01*
X164909780Y-74736915D01*
X165042681Y-74736915D01*
X165047227Y-74799461D01*
X165058372Y-74846095D01*
X165083133Y-74876108D01*
X165119315Y-74886147D01*
X165154498Y-74873869D01*
X165162750Y-74865788D01*
X165177999Y-74831214D01*
X165187769Y-74777447D01*
X165191160Y-74715475D01*
X165187274Y-74656289D01*
X165182036Y-74630104D01*
X165160140Y-74579399D01*
X165130829Y-74554491D01*
X165097733Y-74557030D01*
X165071145Y-74579714D01*
X165055152Y-74616371D01*
X165045493Y-74672328D01*
X165042681Y-74736915D01*
X164909780Y-74736915D01*
X164912084Y-74642680D01*
X164933647Y-74557411D01*
X164973754Y-74495690D01*
X165032032Y-74457990D01*
X165108113Y-74444783D01*
X165147916Y-74446941D01*
G37*
G36*
X164890841Y-72946668D02*
G01*
X164889435Y-72992147D01*
X164882903Y-73014875D01*
X164867777Y-73022586D01*
X164856496Y-73023224D01*
X164834098Y-73024022D01*
X164816842Y-73028405D01*
X164804109Y-73039870D01*
X164795280Y-73061914D01*
X164789733Y-73098035D01*
X164786850Y-73151729D01*
X164786010Y-73226495D01*
X164786594Y-73325829D01*
X164787523Y-73412347D01*
X164791622Y-73776655D01*
X164841232Y-73789502D01*
X164871981Y-73799912D01*
X164886407Y-73816607D01*
X164890634Y-73849597D01*
X164890841Y-73870602D01*
X164890841Y-73938856D01*
X164661875Y-73938856D01*
X164432908Y-73938856D01*
X164432908Y-73871799D01*
X164438015Y-73822227D01*
X164457050Y-73795872D01*
X164495581Y-73786589D01*
X164510479Y-73786212D01*
X164519590Y-73784930D01*
X164526587Y-73778715D01*
X164531748Y-73764016D01*
X164535351Y-73737279D01*
X164537675Y-73694954D01*
X164538998Y-73633486D01*
X164539599Y-73549323D01*
X164539757Y-73438914D01*
X164539759Y-73412670D01*
X164539759Y-73039128D01*
X164490150Y-73026348D01*
X164459678Y-73015896D01*
X164444260Y-72998716D01*
X164437654Y-72965098D01*
X164435888Y-72941957D01*
X164431236Y-72870346D01*
X164661038Y-72870346D01*
X164890841Y-72870346D01*
X164890841Y-72946668D01*
G37*
G36*
X168411718Y-74458455D02*
G01*
X168443688Y-74461793D01*
X168458416Y-74470133D01*
X168462545Y-74485744D01*
X168462716Y-74494374D01*
X168454190Y-74526030D01*
X168439819Y-74539688D01*
X168429626Y-74549169D01*
X168422855Y-74571583D01*
X168418902Y-74611826D01*
X168417160Y-74674793D01*
X168416923Y-74724495D01*
X168417532Y-74801699D01*
X168419771Y-74853139D01*
X168424258Y-74883562D01*
X168431610Y-74897715D01*
X168439819Y-74900514D01*
X168458235Y-74913784D01*
X168462716Y-74938676D01*
X168461145Y-74958613D01*
X168451996Y-74970023D01*
X168428618Y-74975283D01*
X168384357Y-74976767D01*
X168355865Y-74976837D01*
X168300041Y-74976275D01*
X168268092Y-74973008D01*
X168253365Y-74964659D01*
X168249209Y-74948851D01*
X168249014Y-74938676D01*
X168256976Y-74907983D01*
X168271911Y-74900514D01*
X168281953Y-74895831D01*
X168288645Y-74878616D01*
X168292602Y-74844123D01*
X168294443Y-74787602D01*
X168294807Y-74724495D01*
X168294083Y-74645851D01*
X168291505Y-74592816D01*
X168286468Y-74560493D01*
X168278364Y-74543986D01*
X168271911Y-74539688D01*
X168254119Y-74519259D01*
X168249014Y-74494374D01*
X168250794Y-74475280D01*
X168260560Y-74464351D01*
X168284955Y-74459316D01*
X168330622Y-74457905D01*
X168355865Y-74457846D01*
X168411718Y-74458455D01*
G37*
G36*
X169645309Y-74460189D02*
G01*
X169715264Y-74463605D01*
X169761954Y-74468791D01*
X169792642Y-74477368D01*
X169814591Y-74490958D01*
X169824666Y-74500247D01*
X169849633Y-74543375D01*
X169860451Y-74600536D01*
X169856673Y-74659138D01*
X169837849Y-74706587D01*
X169832264Y-74713604D01*
X169813756Y-74745940D01*
X169819463Y-74781331D01*
X169832124Y-74817860D01*
X169848464Y-74869061D01*
X169857476Y-74898761D01*
X169881144Y-74978462D01*
X169810431Y-74973833D01*
X169739718Y-74969204D01*
X169715584Y-74877822D01*
X169695970Y-74818148D01*
X169675809Y-74786949D01*
X169664763Y-74781300D01*
X169650353Y-74782258D01*
X169642255Y-74796226D01*
X169638744Y-74829361D01*
X169638077Y-74876499D01*
X169638077Y-74976837D01*
X169569387Y-74976837D01*
X169500697Y-74976837D01*
X169500697Y-74715868D01*
X169500697Y-74618123D01*
X169638077Y-74618123D01*
X169640171Y-74654572D01*
X169651011Y-74668797D01*
X169677433Y-74669041D01*
X169680054Y-74668746D01*
X169710250Y-74660191D01*
X169721120Y-74637366D01*
X169722031Y-74618123D01*
X169717374Y-74584645D01*
X169697597Y-74570511D01*
X169680054Y-74567499D01*
X169652279Y-74567070D01*
X169640567Y-74580043D01*
X169638082Y-74614661D01*
X169638077Y-74618123D01*
X169500697Y-74618123D01*
X169500697Y-74454899D01*
X169645309Y-74460189D01*
G37*
G36*
X171864259Y-74459581D02*
G01*
X171919245Y-74486729D01*
X171957153Y-74534531D01*
X171979679Y-74605342D01*
X171988521Y-74701517D01*
X171988798Y-74725993D01*
X171982133Y-74824714D01*
X171961539Y-74898186D01*
X171926117Y-74948767D01*
X171895911Y-74969877D01*
X171841151Y-74986575D01*
X171775037Y-74991013D01*
X171712788Y-74982978D01*
X171684981Y-74972795D01*
X171636150Y-74937560D01*
X171603814Y-74887857D01*
X171585459Y-74818399D01*
X171579377Y-74750656D01*
X171580101Y-74713078D01*
X171714038Y-74713078D01*
X171716109Y-74772766D01*
X171721559Y-74823364D01*
X171729242Y-74854527D01*
X171729840Y-74855725D01*
X171757413Y-74880264D01*
X171794059Y-74883532D01*
X171827365Y-74865946D01*
X171837555Y-74852103D01*
X171847607Y-74816671D01*
X171853794Y-74762321D01*
X171855755Y-74700461D01*
X171853127Y-74642499D01*
X171845551Y-74599843D01*
X171845544Y-74599823D01*
X171821403Y-74565627D01*
X171785100Y-74555017D01*
X171746644Y-74570593D01*
X171743473Y-74573319D01*
X171727563Y-74593528D01*
X171718490Y-74623432D01*
X171714589Y-74670929D01*
X171714038Y-74713078D01*
X171580101Y-74713078D01*
X171581433Y-74643873D01*
X171598778Y-74562413D01*
X171632672Y-74504483D01*
X171684377Y-74468291D01*
X171755157Y-74452042D01*
X171790497Y-74450732D01*
X171864259Y-74459581D01*
G37*
G36*
X172337321Y-74460816D02*
G01*
X172393305Y-74465478D01*
X172417047Y-74595134D01*
X172440789Y-74724790D01*
X172462840Y-74595134D01*
X172484891Y-74465478D01*
X172549765Y-74460785D01*
X172589110Y-74460492D01*
X172611722Y-74465283D01*
X172613912Y-74468417D01*
X172610769Y-74486845D01*
X172602543Y-74529889D01*
X172590273Y-74592257D01*
X172574997Y-74668654D01*
X172563613Y-74724974D01*
X172514040Y-74969204D01*
X172446528Y-74969204D01*
X172379016Y-74969204D01*
X172355291Y-74832671D01*
X172331566Y-74696138D01*
X172311428Y-74815985D01*
X172299175Y-74887027D01*
X172288853Y-74933299D01*
X172277173Y-74960110D01*
X172260845Y-74972769D01*
X172236581Y-74976585D01*
X172211762Y-74976837D01*
X172147968Y-74976837D01*
X172105308Y-74759319D01*
X172089362Y-74678037D01*
X172074902Y-74604375D01*
X172063245Y-74545039D01*
X172055707Y-74506733D01*
X172054343Y-74499823D01*
X172051073Y-74474023D01*
X172059666Y-74461802D01*
X172087383Y-74458093D01*
X172114509Y-74457846D01*
X172182979Y-74457846D01*
X172203735Y-74597932D01*
X172213601Y-74661363D01*
X172220794Y-74697569D01*
X172226405Y-74709618D01*
X172231525Y-74700583D01*
X172234939Y-74685702D01*
X172243977Y-74640690D01*
X172255839Y-74581920D01*
X172263362Y-74544770D01*
X172281338Y-74456153D01*
X172337321Y-74460816D01*
G37*
G36*
X165948892Y-74458322D02*
G01*
X165983025Y-74461178D01*
X165999492Y-74468557D01*
X166004723Y-74482604D01*
X166005144Y-74496007D01*
X165997182Y-74526699D01*
X165982247Y-74534168D01*
X165972375Y-74538761D01*
X165965734Y-74555652D01*
X165961740Y-74589513D01*
X165959808Y-74645013D01*
X165959351Y-74717341D01*
X165959925Y-74796315D01*
X165962036Y-74849445D01*
X165966269Y-74881402D01*
X165973206Y-74896856D01*
X165982247Y-74900514D01*
X166000662Y-74913784D01*
X166005144Y-74938676D01*
X166003717Y-74958086D01*
X165995150Y-74969464D01*
X165973011Y-74974953D01*
X165930871Y-74976696D01*
X165890661Y-74976837D01*
X165832430Y-74976361D01*
X165798296Y-74973505D01*
X165781829Y-74966126D01*
X165776598Y-74952079D01*
X165776178Y-74938676D01*
X165783333Y-74908751D01*
X165806706Y-74900514D01*
X165819779Y-74898665D01*
X165828474Y-74889688D01*
X165833677Y-74868438D01*
X165836276Y-74829771D01*
X165837159Y-74768541D01*
X165837235Y-74723545D01*
X165836863Y-74647442D01*
X165835153Y-74596481D01*
X165831217Y-74565276D01*
X165824166Y-74548442D01*
X165813112Y-74540596D01*
X165806706Y-74538591D01*
X165781060Y-74518172D01*
X165776178Y-74494227D01*
X165777827Y-74475713D01*
X165787057Y-74464860D01*
X165810289Y-74459626D01*
X165853944Y-74457971D01*
X165890661Y-74457846D01*
X165948892Y-74458322D01*
G37*
G36*
X169169685Y-74458322D02*
G01*
X169203819Y-74461178D01*
X169220285Y-74468557D01*
X169225516Y-74482604D01*
X169225937Y-74496007D01*
X169217975Y-74526699D01*
X169203040Y-74534168D01*
X169193169Y-74538761D01*
X169186528Y-74555652D01*
X169182533Y-74589513D01*
X169180601Y-74645013D01*
X169180144Y-74717341D01*
X169180718Y-74796315D01*
X169182829Y-74849445D01*
X169187062Y-74881402D01*
X169193999Y-74896856D01*
X169203040Y-74900514D01*
X169221456Y-74913784D01*
X169225937Y-74938676D01*
X169224510Y-74958086D01*
X169215943Y-74969464D01*
X169193805Y-74974953D01*
X169151664Y-74976696D01*
X169111454Y-74976837D01*
X169053223Y-74976361D01*
X169019089Y-74973505D01*
X169002622Y-74966126D01*
X168997392Y-74952079D01*
X168996971Y-74938676D01*
X169004126Y-74908751D01*
X169027500Y-74900514D01*
X169040573Y-74898665D01*
X169049267Y-74889688D01*
X169054470Y-74868438D01*
X169057069Y-74829771D01*
X169057953Y-74768541D01*
X169058028Y-74723545D01*
X169057656Y-74647442D01*
X169055946Y-74596481D01*
X169052010Y-74565276D01*
X169044960Y-74548442D01*
X169033905Y-74540596D01*
X169027500Y-74538591D01*
X169001854Y-74518172D01*
X168996971Y-74494227D01*
X168998620Y-74475713D01*
X169007850Y-74464860D01*
X169031082Y-74459626D01*
X169074737Y-74457971D01*
X169111454Y-74457846D01*
X169169685Y-74458322D01*
G37*
G36*
X173718483Y-74458322D02*
G01*
X173752617Y-74461178D01*
X173769084Y-74468557D01*
X173774314Y-74482604D01*
X173774735Y-74496007D01*
X173766774Y-74526699D01*
X173751839Y-74534168D01*
X173741967Y-74538761D01*
X173735326Y-74555652D01*
X173731331Y-74589513D01*
X173729399Y-74645013D01*
X173728942Y-74717341D01*
X173729516Y-74796315D01*
X173731627Y-74849445D01*
X173735860Y-74881402D01*
X173742798Y-74896856D01*
X173751839Y-74900514D01*
X173770254Y-74913784D01*
X173774735Y-74938676D01*
X173773308Y-74958086D01*
X173764741Y-74969464D01*
X173742603Y-74974953D01*
X173700462Y-74976696D01*
X173660252Y-74976837D01*
X173602021Y-74976361D01*
X173567887Y-74973505D01*
X173551421Y-74966126D01*
X173546190Y-74952079D01*
X173545769Y-74938676D01*
X173552924Y-74908751D01*
X173576298Y-74900514D01*
X173589371Y-74898665D01*
X173598065Y-74889688D01*
X173603268Y-74868438D01*
X173605868Y-74829771D01*
X173606751Y-74768541D01*
X173606827Y-74723545D01*
X173606454Y-74647442D01*
X173604744Y-74596481D01*
X173600808Y-74565276D01*
X173593758Y-74548442D01*
X173582703Y-74540596D01*
X173576298Y-74538591D01*
X173550652Y-74518172D01*
X173545769Y-74494227D01*
X173547418Y-74475713D01*
X173556648Y-74464860D01*
X173579880Y-74459626D01*
X173623535Y-74457971D01*
X173660252Y-74457846D01*
X173718483Y-74458322D01*
G37*
G36*
X171017054Y-74457038D02*
G01*
X171017727Y-74457259D01*
X171059913Y-74479904D01*
X171072773Y-74510756D01*
X171056585Y-74550569D01*
X171053702Y-74554632D01*
X171036043Y-74571127D01*
X171011547Y-74571642D01*
X170983694Y-74563229D01*
X170945308Y-74553370D01*
X170921238Y-74558949D01*
X170910777Y-74567667D01*
X170895262Y-74596522D01*
X170908999Y-74623614D01*
X170952510Y-74649632D01*
X170981562Y-74661038D01*
X171047386Y-74695219D01*
X171086629Y-74743105D01*
X171101124Y-74807659D01*
X171099211Y-74851328D01*
X171085109Y-74913147D01*
X171056262Y-74953903D01*
X171007964Y-74977436D01*
X170935510Y-74987589D01*
X170932056Y-74987771D01*
X170849306Y-74985584D01*
X170787422Y-74970501D01*
X170785648Y-74969718D01*
X170754767Y-74951702D01*
X170742546Y-74936054D01*
X170743212Y-74933527D01*
X170754410Y-74910270D01*
X170766786Y-74879874D01*
X170778223Y-74854291D01*
X170792312Y-74847643D01*
X170819619Y-74857520D01*
X170834324Y-74864469D01*
X170887545Y-74881065D01*
X170931235Y-74878518D01*
X170959185Y-74858322D01*
X170966081Y-74832796D01*
X170960055Y-74807420D01*
X170937356Y-74787774D01*
X170896643Y-74769670D01*
X170827889Y-74733298D01*
X170786019Y-74685422D01*
X170768520Y-74622766D01*
X170767644Y-74601651D01*
X170780489Y-74534770D01*
X170816155Y-74484384D01*
X170870340Y-74452977D01*
X170938741Y-74443034D01*
X171017054Y-74457038D01*
G37*
G36*
X166856135Y-69756489D02*
G01*
X166962052Y-69758000D01*
X167043214Y-69763409D01*
X167105298Y-69774187D01*
X167153982Y-69791803D01*
X167194942Y-69817729D01*
X167233855Y-69853434D01*
X167235008Y-69854628D01*
X167277693Y-69907492D01*
X167309017Y-69968163D01*
X167330308Y-70041764D01*
X167342890Y-70133415D01*
X167348091Y-70248240D01*
X167348413Y-70292706D01*
X167345763Y-70410521D01*
X167336847Y-70503607D01*
X167320214Y-70577377D01*
X167294413Y-70637249D01*
X167257993Y-70688639D01*
X167236056Y-70712140D01*
X167193926Y-70748092D01*
X167146613Y-70774421D01*
X167088786Y-70792428D01*
X167015112Y-70803412D01*
X166920262Y-70808673D01*
X166836304Y-70809649D01*
X166661514Y-70809649D01*
X166661514Y-70283026D01*
X166661514Y-69874505D01*
X166814158Y-69874505D01*
X166814158Y-70273387D01*
X166814158Y-70672269D01*
X166914886Y-70672269D01*
X166994276Y-70666813D01*
X167057709Y-70651654D01*
X167069591Y-70646656D01*
X167116027Y-70612300D01*
X167150451Y-70557429D01*
X167174164Y-70479070D01*
X167188433Y-70374613D01*
X167191454Y-70293646D01*
X167188354Y-70207227D01*
X167180055Y-70123266D01*
X167167479Y-70049674D01*
X167151546Y-69994361D01*
X167141853Y-69974847D01*
X167104077Y-69931949D01*
X167053493Y-69903684D01*
X166983682Y-69887263D01*
X166927733Y-69881793D01*
X166814158Y-69874505D01*
X166661514Y-69874505D01*
X166661514Y-69756404D01*
X166856135Y-69756489D01*
G37*
G36*
X169838784Y-72873628D02*
G01*
X169993698Y-72877978D01*
X170059700Y-73129841D01*
X170081667Y-73215684D01*
X170100588Y-73293470D01*
X170115141Y-73357451D01*
X170124004Y-73401878D01*
X170126120Y-73418593D01*
X170127721Y-73442135D01*
X170132178Y-73446423D01*
X170140081Y-73429576D01*
X170152020Y-73389711D01*
X170168585Y-73324947D01*
X170190364Y-73233401D01*
X170191365Y-73229060D01*
X170370769Y-73229060D01*
X170378401Y-73236692D01*
X170386033Y-73229060D01*
X170378401Y-73221428D01*
X170370769Y-73229060D01*
X170191365Y-73229060D01*
X170207705Y-73158169D01*
X170271751Y-72877978D01*
X170435743Y-72873646D01*
X170599735Y-72869313D01*
X170599735Y-73404085D01*
X170599735Y-73938856D01*
X170485252Y-73938856D01*
X170370769Y-73938856D01*
X170369589Y-73614487D01*
X170368408Y-73290118D01*
X170331933Y-73427498D01*
X170311586Y-73503666D01*
X170290215Y-73582913D01*
X170271737Y-73650737D01*
X170268059Y-73664096D01*
X170240659Y-73763315D01*
X170131014Y-73767783D01*
X170021368Y-73772251D01*
X169988766Y-73662777D01*
X169965561Y-73580921D01*
X169939625Y-73483267D01*
X169914587Y-73383877D01*
X169894076Y-73296810D01*
X169892589Y-73290118D01*
X169890585Y-73295644D01*
X169888663Y-73327871D01*
X169886927Y-73382971D01*
X169885484Y-73457117D01*
X169884438Y-73546481D01*
X169884078Y-73599222D01*
X169882307Y-73938856D01*
X169783089Y-73938856D01*
X169683870Y-73938856D01*
X169683870Y-73404067D01*
X169683870Y-72869278D01*
X169838784Y-72873628D01*
G37*
G36*
X171450842Y-73393153D02*
G01*
X171483529Y-73514552D01*
X171513538Y-73626612D01*
X171539969Y-73725924D01*
X171561922Y-73809081D01*
X171578496Y-73872674D01*
X171588793Y-73913294D01*
X171591948Y-73927407D01*
X171577852Y-73932620D01*
X171540301Y-73936590D01*
X171486362Y-73938683D01*
X171464301Y-73938856D01*
X171336680Y-73938856D01*
X171314753Y-73835821D01*
X171292826Y-73732786D01*
X171177041Y-73728360D01*
X171061255Y-73723934D01*
X171034921Y-73831395D01*
X171008586Y-73938856D01*
X170888115Y-73938856D01*
X170821717Y-73937143D01*
X170782662Y-73931689D01*
X170767943Y-73922022D01*
X170767644Y-73919942D01*
X170771708Y-73901303D01*
X170783260Y-73856805D01*
X170801344Y-73789923D01*
X170825001Y-73704137D01*
X170853274Y-73602922D01*
X170871545Y-73538165D01*
X171104085Y-73538165D01*
X171117345Y-73540440D01*
X171151615Y-73541805D01*
X171172151Y-73541981D01*
X171213236Y-73538787D01*
X171237750Y-73530689D01*
X171240841Y-73525914D01*
X171237622Y-73502833D01*
X171229315Y-73459429D01*
X171217949Y-73405070D01*
X171205549Y-73349119D01*
X171194144Y-73300944D01*
X171185759Y-73269910D01*
X171184854Y-73267221D01*
X171178898Y-73273616D01*
X171167586Y-73302712D01*
X171152978Y-73347596D01*
X171137136Y-73401353D01*
X171122120Y-73457072D01*
X171109991Y-73507837D01*
X171104085Y-73538165D01*
X170871545Y-73538165D01*
X170885204Y-73489757D01*
X170914813Y-73385687D01*
X171061982Y-72870346D01*
X171185847Y-72870346D01*
X171309712Y-72870346D01*
X171450842Y-73393153D01*
G37*
G36*
X172929063Y-74453118D02*
G01*
X172977805Y-74470818D01*
X172979605Y-74471925D01*
X172992610Y-74486371D01*
X172990010Y-74510388D01*
X172981569Y-74532758D01*
X172967097Y-74564643D01*
X172957744Y-74579768D01*
X172957230Y-74579962D01*
X172941128Y-74575149D01*
X172911273Y-74564308D01*
X172864063Y-74554721D01*
X172830131Y-74563814D01*
X172815621Y-74589287D01*
X172816003Y-74599981D01*
X172833264Y-74629025D01*
X172877759Y-74653590D01*
X172884056Y-74655981D01*
X172947739Y-74684237D01*
X172986555Y-74716424D01*
X173005984Y-74759818D01*
X173011505Y-74821692D01*
X173011514Y-74825201D01*
X173009789Y-74877369D01*
X173001836Y-74910381D01*
X172983487Y-74935539D01*
X172964550Y-74952583D01*
X172926301Y-74978261D01*
X172883514Y-74989665D01*
X172838618Y-74991504D01*
X172781372Y-74986821D01*
X172728026Y-74975679D01*
X172710042Y-74969344D01*
X172676284Y-74954091D01*
X172663422Y-74940517D01*
X172666901Y-74917270D01*
X172677190Y-74887528D01*
X172689476Y-74853633D01*
X172701136Y-74842458D01*
X172723094Y-74850020D01*
X172746458Y-74862259D01*
X172804851Y-74882755D01*
X172851558Y-74878562D01*
X172875196Y-74861074D01*
X172886411Y-74830211D01*
X172867390Y-74800891D01*
X172818015Y-74772970D01*
X172797323Y-74764865D01*
X172738254Y-74730548D01*
X172699364Y-74682269D01*
X172680509Y-74626266D01*
X172681545Y-74568776D01*
X172702328Y-74516036D01*
X172742716Y-74474285D01*
X172802563Y-74449759D01*
X172804593Y-74449367D01*
X172866387Y-74445331D01*
X172929063Y-74453118D01*
G37*
G36*
X169008419Y-72872628D02*
G01*
X169101280Y-72875105D01*
X169169652Y-72878208D01*
X169219575Y-72882770D01*
X169257087Y-72889625D01*
X169288229Y-72899604D01*
X169319039Y-72913541D01*
X169324363Y-72916204D01*
X169384499Y-72951261D01*
X169424918Y-72989253D01*
X169449598Y-73037338D01*
X169462520Y-73102672D01*
X169467090Y-73172912D01*
X169465646Y-73263084D01*
X169452534Y-73330367D01*
X169425272Y-73380986D01*
X169381382Y-73421166D01*
X169363589Y-73432733D01*
X169317788Y-73460586D01*
X169354464Y-73495041D01*
X169373382Y-73519204D01*
X169393721Y-73558866D01*
X169416690Y-73617234D01*
X169443495Y-73697512D01*
X169475343Y-73802908D01*
X169491619Y-73859302D01*
X169514663Y-73940025D01*
X169382950Y-73935625D01*
X169251236Y-73931224D01*
X169200920Y-73748051D01*
X169173812Y-73656244D01*
X169149173Y-73590666D01*
X169124498Y-73547421D01*
X169097281Y-73522617D01*
X169065018Y-73512360D01*
X169048705Y-73511452D01*
X169012235Y-73511452D01*
X169012235Y-73725154D01*
X169012235Y-73938856D01*
X168890120Y-73938856D01*
X168768004Y-73938856D01*
X168768004Y-73403002D01*
X168768004Y-73084048D01*
X169012235Y-73084048D01*
X169012235Y-73206164D01*
X169012235Y-73328279D01*
X169086192Y-73328279D01*
X169140445Y-73323908D01*
X169175713Y-73308598D01*
X169189226Y-73296147D01*
X169212878Y-73248155D01*
X169218305Y-73195698D01*
X169211238Y-73140421D01*
X169187289Y-73105725D01*
X169142333Y-73088138D01*
X169085640Y-73084048D01*
X169012235Y-73084048D01*
X168768004Y-73084048D01*
X168768004Y-72867147D01*
X169008419Y-72872628D01*
G37*
G36*
X168276500Y-72869616D02*
G01*
X168364372Y-72905688D01*
X168437706Y-72967028D01*
X168495548Y-73051566D01*
X168536946Y-73157229D01*
X168560950Y-73281949D01*
X168566607Y-73423654D01*
X168562893Y-73492672D01*
X168545445Y-73624320D01*
X168515783Y-73730291D01*
X168472567Y-73813436D01*
X168414454Y-73876605D01*
X168367104Y-73908844D01*
X168307705Y-73931285D01*
X168229191Y-73946012D01*
X168142138Y-73952411D01*
X168057122Y-73949870D01*
X167984719Y-73937776D01*
X167966622Y-73932041D01*
X167898823Y-73893682D01*
X167835107Y-73834049D01*
X167783562Y-73762130D01*
X167754954Y-73696711D01*
X167730107Y-73583105D01*
X167719095Y-73461971D01*
X167719945Y-73412233D01*
X167982611Y-73412233D01*
X167985694Y-73523099D01*
X167994502Y-73607472D01*
X168009858Y-73668993D01*
X168032586Y-73711302D01*
X168055141Y-73732739D01*
X168103758Y-73751414D01*
X168162683Y-73753824D01*
X168216422Y-73740012D01*
X168229915Y-73732227D01*
X168258637Y-73699727D01*
X168279509Y-73646475D01*
X168293102Y-73569842D01*
X168299987Y-73467202D01*
X168301097Y-73404601D01*
X168297307Y-73284119D01*
X168283948Y-73191015D01*
X168260169Y-73123414D01*
X168225121Y-73079437D01*
X168177954Y-73057205D01*
X168142163Y-73053519D01*
X168087687Y-73062753D01*
X168045589Y-73091804D01*
X168014970Y-73142694D01*
X167994930Y-73217448D01*
X167984569Y-73318088D01*
X167982611Y-73412233D01*
X167719945Y-73412233D01*
X167721188Y-73339490D01*
X167735656Y-73221843D01*
X167761770Y-73115209D01*
X167798799Y-73025768D01*
X167841436Y-72964453D01*
X167907364Y-72914015D01*
X167993405Y-72878222D01*
X168092053Y-72858710D01*
X168195801Y-72857115D01*
X168276500Y-72869616D01*
G37*
G36*
X172442933Y-71296931D02*
G01*
X172529115Y-71312782D01*
X172599456Y-71339081D01*
X172622119Y-71353127D01*
X172637844Y-71366393D01*
X172642867Y-71380798D01*
X172636089Y-71404056D01*
X172616410Y-71443883D01*
X172606490Y-71462749D01*
X172580788Y-71506971D01*
X172558653Y-71537154D01*
X172545585Y-71546541D01*
X172523444Y-71539533D01*
X172483912Y-71525575D01*
X172459841Y-71516730D01*
X172381194Y-71498319D01*
X172316638Y-71506725D01*
X172266563Y-71541836D01*
X172241180Y-71580502D01*
X172228087Y-71611975D01*
X172219433Y-71647576D01*
X172214427Y-71694156D01*
X172212277Y-71758567D01*
X172212105Y-71832365D01*
X172214916Y-71938936D01*
X172222992Y-72019846D01*
X172237573Y-72079698D01*
X172259899Y-72123096D01*
X172291210Y-72154640D01*
X172300742Y-72161315D01*
X172352039Y-72179066D01*
X172415037Y-72178845D01*
X172477710Y-72161886D01*
X172517092Y-72139066D01*
X172559201Y-72105943D01*
X172609684Y-72186672D01*
X172635754Y-72232599D01*
X172652582Y-72270520D01*
X172656445Y-72289412D01*
X172641637Y-72308549D01*
X172607916Y-72333172D01*
X172582981Y-72347313D01*
X172513751Y-72372166D01*
X172427982Y-72387533D01*
X172338540Y-72392121D01*
X172258296Y-72384632D01*
X172243981Y-72381445D01*
X172144111Y-72342853D01*
X172065442Y-72282433D01*
X172007267Y-72199507D01*
X171977873Y-72126138D01*
X171963198Y-72056519D01*
X171953822Y-71966351D01*
X171949760Y-71864905D01*
X171951030Y-71761451D01*
X171957647Y-71665262D01*
X171969626Y-71585608D01*
X171976903Y-71557196D01*
X172017684Y-71466093D01*
X172076909Y-71389802D01*
X172149142Y-71334624D01*
X172182157Y-71319221D01*
X172260173Y-71299435D01*
X172350192Y-71292244D01*
X172442933Y-71296931D01*
G37*
G36*
X169299291Y-69756543D02*
G01*
X169386214Y-69756683D01*
X169537276Y-70264086D01*
X169572927Y-70383700D01*
X169606000Y-70494409D01*
X169635443Y-70592710D01*
X169660203Y-70675100D01*
X169679228Y-70738076D01*
X169691465Y-70778135D01*
X169695684Y-70791388D01*
X169692652Y-70802623D01*
X169669508Y-70807524D01*
X169621463Y-70806995D01*
X169614629Y-70806653D01*
X169526227Y-70802017D01*
X169485399Y-70657005D01*
X169444571Y-70511993D01*
X169290695Y-70507656D01*
X169136819Y-70503320D01*
X169113512Y-70583978D01*
X169095581Y-70647221D01*
X169077421Y-70713072D01*
X169070950Y-70737143D01*
X169051697Y-70809649D01*
X168969880Y-70809649D01*
X168922717Y-70808372D01*
X168899681Y-70803005D01*
X168894420Y-70791243D01*
X168896256Y-70782936D01*
X168945222Y-70623350D01*
X168992746Y-70468585D01*
X169025224Y-70362900D01*
X169180144Y-70362900D01*
X169194160Y-70364857D01*
X169231216Y-70366302D01*
X169283824Y-70366965D01*
X169293833Y-70366981D01*
X169407522Y-70366981D01*
X169393330Y-70325004D01*
X169383907Y-70293715D01*
X169369075Y-70240573D01*
X169350955Y-70173310D01*
X169333690Y-70107486D01*
X169316313Y-70042975D01*
X169301899Y-69994409D01*
X169291873Y-69966233D01*
X169287661Y-69962891D01*
X169287618Y-69963821D01*
X169283195Y-69990361D01*
X169271607Y-70039183D01*
X169254604Y-70103370D01*
X169233937Y-70176007D01*
X169233569Y-70177258D01*
X169213210Y-70246757D01*
X169196424Y-70304647D01*
X169184862Y-70345194D01*
X169180173Y-70362668D01*
X169180144Y-70362900D01*
X169025224Y-70362900D01*
X169037527Y-70322867D01*
X169078267Y-70190421D01*
X169113666Y-70075474D01*
X169142423Y-69982251D01*
X169159161Y-69928129D01*
X169212369Y-69756404D01*
X169299291Y-69756543D01*
G37*
G36*
X169899316Y-71298624D02*
G01*
X169980469Y-71319951D01*
X170049400Y-71358370D01*
X170082087Y-71385094D01*
X170132627Y-71442496D01*
X170169841Y-71513450D01*
X170195230Y-71602466D01*
X170210299Y-71714060D01*
X170214578Y-71783033D01*
X170213711Y-71942591D01*
X170196115Y-72077047D01*
X170161564Y-72186984D01*
X170109832Y-72272984D01*
X170040695Y-72335630D01*
X169990133Y-72362517D01*
X169939786Y-72376461D01*
X169871096Y-72386353D01*
X169796080Y-72391375D01*
X169726751Y-72390711D01*
X169676238Y-72383845D01*
X169581965Y-72347117D01*
X169506547Y-72291061D01*
X169449349Y-72214375D01*
X169409733Y-72115758D01*
X169387065Y-71993909D01*
X169380709Y-71847527D01*
X169381138Y-71832365D01*
X169645709Y-71832365D01*
X169647140Y-71940327D01*
X169652127Y-72022216D01*
X169661714Y-72082386D01*
X169676942Y-72125190D01*
X169698854Y-72154981D01*
X169727954Y-72175820D01*
X169781756Y-72195807D01*
X169832431Y-72190845D01*
X169865651Y-72176535D01*
X169896110Y-72155819D01*
X169918633Y-72126744D01*
X169934301Y-72084948D01*
X169944196Y-72026068D01*
X169949399Y-71945743D01*
X169950993Y-71839611D01*
X169950997Y-71832365D01*
X169950392Y-71740794D01*
X169948196Y-71674056D01*
X169943836Y-71626474D01*
X169936739Y-71592368D01*
X169926334Y-71566061D01*
X169923627Y-71560909D01*
X169882912Y-71516400D01*
X169823947Y-71494657D01*
X169798353Y-71492879D01*
X169733779Y-71505547D01*
X169685762Y-71541901D01*
X169673079Y-71560909D01*
X169661892Y-71586286D01*
X169654137Y-71618249D01*
X169649240Y-71662476D01*
X169646630Y-71724645D01*
X169645733Y-71810434D01*
X169645709Y-71832365D01*
X169381138Y-71832365D01*
X169382535Y-71783033D01*
X169390955Y-71670196D01*
X169405985Y-71580996D01*
X169429566Y-71508901D01*
X169463641Y-71447376D01*
X169494055Y-71407942D01*
X169562615Y-71347927D01*
X169647952Y-71309963D01*
X169752898Y-71292965D01*
X169797989Y-71291776D01*
X169899316Y-71298624D01*
G37*
G36*
X168764188Y-71315905D02*
G01*
X168859475Y-71318085D01*
X168929750Y-71320736D01*
X168980533Y-71324583D01*
X169017340Y-71330356D01*
X169045690Y-71338781D01*
X169071098Y-71350585D01*
X169084740Y-71358162D01*
X169146385Y-71407261D01*
X169186732Y-71473259D01*
X169207256Y-71559272D01*
X169210673Y-71624091D01*
X169206077Y-71685291D01*
X169193930Y-71745855D01*
X169176688Y-71798221D01*
X169156810Y-71834829D01*
X169137856Y-71848115D01*
X169118092Y-71856797D01*
X169098685Y-71869844D01*
X169081481Y-71885549D01*
X169081090Y-71901513D01*
X169098390Y-71928567D01*
X169104075Y-71936294D01*
X169119400Y-71965556D01*
X169140289Y-72016618D01*
X169164200Y-72081844D01*
X169188590Y-72153601D01*
X169210916Y-72224256D01*
X169228635Y-72286173D01*
X169239205Y-72331721D01*
X169241058Y-72347540D01*
X169230923Y-72357764D01*
X169198113Y-72363907D01*
X169139294Y-72366473D01*
X169114820Y-72366620D01*
X168988439Y-72366620D01*
X168944563Y-72202528D01*
X168920843Y-72115533D01*
X168902157Y-72053387D01*
X168886187Y-72011309D01*
X168870615Y-71984517D01*
X168853122Y-71968231D01*
X168831391Y-71957668D01*
X168824680Y-71955241D01*
X168791114Y-71944043D01*
X168767497Y-71940371D01*
X168752083Y-71948188D01*
X168743121Y-71971458D01*
X168738864Y-72014143D01*
X168737563Y-72080209D01*
X168737476Y-72152918D01*
X168737476Y-72366620D01*
X168622992Y-72366620D01*
X168508509Y-72366620D01*
X168508509Y-71838711D01*
X168508509Y-71511813D01*
X168737476Y-71511813D01*
X168737476Y-71633928D01*
X168737476Y-71756043D01*
X168817614Y-71755810D01*
X168866663Y-71753596D01*
X168904031Y-71748196D01*
X168915878Y-71744051D01*
X168939375Y-71714737D01*
X168955602Y-71668655D01*
X168960544Y-71619393D01*
X168958231Y-71600766D01*
X168933830Y-71551888D01*
X168886138Y-71522314D01*
X168814816Y-71511839D01*
X168810401Y-71511813D01*
X168737476Y-71511813D01*
X168508509Y-71511813D01*
X168508509Y-71310802D01*
X168764188Y-71315905D01*
G37*
G36*
X165154256Y-70118934D02*
G01*
X165174654Y-70222220D01*
X165193241Y-70317257D01*
X165209119Y-70399383D01*
X165221391Y-70463934D01*
X165229160Y-70506246D01*
X165231371Y-70519625D01*
X165234433Y-70536468D01*
X165238218Y-70542270D01*
X165243375Y-70534398D01*
X165250552Y-70510219D01*
X165260399Y-70467102D01*
X165273564Y-70402413D01*
X165290695Y-70313520D01*
X165312442Y-70197792D01*
X165317896Y-70168543D01*
X165336677Y-70068105D01*
X165353991Y-69976198D01*
X165368928Y-69897602D01*
X165380576Y-69837095D01*
X165388025Y-69799457D01*
X165389881Y-69790749D01*
X165398626Y-69770061D01*
X165417957Y-69759819D01*
X165456420Y-69756547D01*
X165474323Y-69756404D01*
X165519349Y-69757538D01*
X165540907Y-69763249D01*
X165546034Y-69777001D01*
X165544116Y-69790749D01*
X165539383Y-69813596D01*
X165529043Y-69862479D01*
X165513910Y-69933589D01*
X165494795Y-70023117D01*
X165472512Y-70127254D01*
X165447874Y-70242188D01*
X165431735Y-70317371D01*
X165326009Y-70809649D01*
X165232505Y-70809649D01*
X165139001Y-70809649D01*
X165068346Y-70451951D01*
X165048286Y-70349008D01*
X165030284Y-70253983D01*
X165015203Y-70171653D01*
X165003910Y-70106801D01*
X164997268Y-70064204D01*
X164995873Y-70051260D01*
X164992625Y-70044368D01*
X164985564Y-70063526D01*
X164976013Y-70104689D01*
X164972476Y-70122750D01*
X164961182Y-70181149D01*
X164946284Y-70255978D01*
X164928927Y-70341718D01*
X164910257Y-70432850D01*
X164891418Y-70523856D01*
X164873555Y-70609219D01*
X164857813Y-70683418D01*
X164845335Y-70740935D01*
X164837268Y-70776252D01*
X164835530Y-70782936D01*
X164824908Y-70798520D01*
X164799916Y-70806740D01*
X164753408Y-70809558D01*
X164738197Y-70809649D01*
X164685433Y-70807837D01*
X164655906Y-70801093D01*
X164642467Y-70787455D01*
X164640841Y-70782936D01*
X164635833Y-70761858D01*
X164625338Y-70714736D01*
X164610183Y-70645393D01*
X164591198Y-70557656D01*
X164569213Y-70455347D01*
X164545056Y-70342291D01*
X164532444Y-70283026D01*
X164507503Y-70166035D01*
X164484303Y-70057881D01*
X164463674Y-69962391D01*
X164446447Y-69883388D01*
X164433456Y-69824697D01*
X164425531Y-69790142D01*
X164423730Y-69783117D01*
X164422890Y-69767739D01*
X164436636Y-69759670D01*
X164471278Y-69756685D01*
X164499541Y-69756404D01*
X164550610Y-69758484D01*
X164578623Y-69766135D01*
X164590857Y-69781474D01*
X164591378Y-69783117D01*
X164597185Y-69808003D01*
X164607549Y-69857504D01*
X164621425Y-69926222D01*
X164637768Y-70008760D01*
X164655535Y-70099723D01*
X164673681Y-70193714D01*
X164691162Y-70285336D01*
X164706934Y-70369191D01*
X164719952Y-70439885D01*
X164729171Y-70492019D01*
X164732422Y-70511993D01*
X164743961Y-70588315D01*
X164756368Y-70511993D01*
X164763249Y-70472926D01*
X164774576Y-70412270D01*
X164789285Y-70335398D01*
X164806315Y-70247682D01*
X164824602Y-70154496D01*
X164843084Y-70061212D01*
X164860699Y-69973204D01*
X164876384Y-69895845D01*
X164889077Y-69834506D01*
X164897715Y-69794562D01*
X164900504Y-69783117D01*
X164911253Y-69767344D01*
X164936699Y-69759133D01*
X164984039Y-69756455D01*
X164995243Y-69756404D01*
X165082323Y-69756404D01*
X165154256Y-70118934D01*
G37*
G36*
X161032601Y-69656740D02*
G01*
X161308408Y-69687367D01*
X161576939Y-69746752D01*
X161841163Y-69835515D01*
X162044026Y-69924501D01*
X162294398Y-70062058D01*
X162526588Y-70223400D01*
X162739360Y-70406920D01*
X162931478Y-70611010D01*
X163101708Y-70834061D01*
X163248814Y-71074466D01*
X163371560Y-71330616D01*
X163468711Y-71600905D01*
X163535390Y-71865431D01*
X163547127Y-71926873D01*
X163555932Y-71983454D01*
X163562197Y-72041176D01*
X163566316Y-72106037D01*
X163568683Y-72184040D01*
X163569691Y-72281183D01*
X163569762Y-72389517D01*
X163569278Y-72506359D01*
X163568001Y-72598779D01*
X163565464Y-72672880D01*
X163561201Y-72734767D01*
X163554747Y-72790544D01*
X163545635Y-72846316D01*
X163533399Y-72908187D01*
X163528317Y-72932295D01*
X163453450Y-73213271D01*
X163351595Y-73481962D01*
X163223936Y-73736627D01*
X163071659Y-73975526D01*
X162895948Y-74196918D01*
X162697988Y-74399062D01*
X162478964Y-74580219D01*
X162341682Y-74675679D01*
X162093387Y-74819105D01*
X161830583Y-74936207D01*
X161555995Y-75025862D01*
X161403981Y-75062424D01*
X161331657Y-75076741D01*
X161264658Y-75087437D01*
X161195811Y-75095153D01*
X161117941Y-75100531D01*
X161023872Y-75104210D01*
X160906827Y-75106825D01*
X160803920Y-75107813D01*
X160703887Y-75107286D01*
X160613538Y-75105392D01*
X160539685Y-75102277D01*
X160489139Y-75098087D01*
X160487055Y-75097813D01*
X160368959Y-75077564D01*
X160234654Y-75047667D01*
X160095700Y-75011156D01*
X159963656Y-74971066D01*
X159851020Y-74930805D01*
X159586754Y-74810163D01*
X159358661Y-74676147D01*
X159876605Y-74676147D01*
X159975760Y-74713264D01*
X160133921Y-74766443D01*
X160297120Y-74810346D01*
X160456985Y-74843175D01*
X160605147Y-74863133D01*
X160698849Y-74868507D01*
X160788527Y-74869986D01*
X160780592Y-74828008D01*
X160775674Y-74798774D01*
X160767304Y-74745615D01*
X160756449Y-74674813D01*
X160744077Y-74592649D01*
X160736801Y-74543709D01*
X160723721Y-74461351D01*
X160710728Y-74390217D01*
X160698912Y-74335542D01*
X160689366Y-74302559D01*
X160684969Y-74295257D01*
X160667660Y-74300146D01*
X160626590Y-74316978D01*
X160565346Y-74344121D01*
X160487514Y-74379946D01*
X160396680Y-74422822D01*
X160296428Y-74471120D01*
X160272799Y-74482636D01*
X159876605Y-74676147D01*
X159358661Y-74676147D01*
X159340082Y-74665231D01*
X159112192Y-74497462D01*
X159105140Y-74491047D01*
X159563474Y-74491047D01*
X159576006Y-74513135D01*
X159607908Y-74540016D01*
X159628431Y-74552726D01*
X159693305Y-74588836D01*
X159952800Y-74464159D01*
X160053462Y-74415618D01*
X160162329Y-74362823D01*
X160269448Y-74310621D01*
X160364863Y-74263857D01*
X160411785Y-74240706D01*
X160611276Y-74141931D01*
X160148725Y-73910804D01*
X160024089Y-73848631D01*
X159923975Y-73799066D01*
X159845650Y-73760967D01*
X159786381Y-73733185D01*
X159743437Y-73714577D01*
X159714084Y-73703996D01*
X159695590Y-73700298D01*
X159685221Y-73702337D01*
X159680247Y-73708967D01*
X159678881Y-73713864D01*
X159673554Y-73743340D01*
X159664925Y-73796273D01*
X159653754Y-73867547D01*
X159640799Y-73952049D01*
X159626822Y-74044662D01*
X159612580Y-74140273D01*
X159598834Y-74233767D01*
X159586343Y-74320029D01*
X159575867Y-74393944D01*
X159568165Y-74450397D01*
X159563997Y-74484274D01*
X159563474Y-74491047D01*
X159105140Y-74491047D01*
X158904272Y-74308312D01*
X158717510Y-74099236D01*
X158553094Y-73871688D01*
X158412211Y-73627123D01*
X158296050Y-73366996D01*
X158205798Y-73092763D01*
X158158223Y-72883835D01*
X158407580Y-72883835D01*
X158411169Y-72905255D01*
X158428464Y-72976822D01*
X158454395Y-73066622D01*
X158485791Y-73164732D01*
X158519482Y-73261231D01*
X158551205Y-73343543D01*
X158644355Y-73540232D01*
X158760936Y-73736961D01*
X158895194Y-73924806D01*
X159022669Y-74074890D01*
X159070787Y-74124755D01*
X159125038Y-74177605D01*
X159180873Y-74229425D01*
X159233743Y-74276201D01*
X159279096Y-74313917D01*
X159312383Y-74338561D01*
X159329054Y-74346116D01*
X159329659Y-74345751D01*
X159333254Y-74329730D01*
X159340969Y-74286281D01*
X159352363Y-74218161D01*
X159366995Y-74128127D01*
X159384423Y-74018937D01*
X159404205Y-73893348D01*
X159425901Y-73754118D01*
X159449068Y-73604005D01*
X159457984Y-73545806D01*
X159769859Y-73545806D01*
X160204779Y-73763569D01*
X160312776Y-73817062D01*
X160410699Y-73864439D01*
X160495444Y-73904283D01*
X160563904Y-73935175D01*
X160612974Y-73955697D01*
X160639550Y-73964431D01*
X160643437Y-73963910D01*
X160642204Y-73944583D01*
X160636770Y-73899387D01*
X160627731Y-73832605D01*
X160615682Y-73748517D01*
X160601216Y-73651406D01*
X160588496Y-73568450D01*
X160572116Y-73464650D01*
X160556839Y-73371083D01*
X160543384Y-73291905D01*
X160532473Y-73231273D01*
X160532086Y-73229355D01*
X160787664Y-73229355D01*
X160789015Y-73244750D01*
X160794618Y-73287532D01*
X160804066Y-73354914D01*
X160816951Y-73444112D01*
X160832864Y-73552340D01*
X160851398Y-73676815D01*
X160872144Y-73814749D01*
X160894696Y-73963359D01*
X160905963Y-74037144D01*
X160929353Y-74190301D01*
X160951287Y-74334455D01*
X160971339Y-74466769D01*
X160989082Y-74584406D01*
X161004091Y-74684529D01*
X161015940Y-74764302D01*
X161024202Y-74820888D01*
X161028452Y-74851449D01*
X161028942Y-74855996D01*
X161043062Y-74863656D01*
X161085599Y-74863207D01*
X161156822Y-74854621D01*
X161256997Y-74837869D01*
X161341863Y-74821784D01*
X161598893Y-74755981D01*
X161847813Y-74661775D01*
X162085935Y-74540807D01*
X162310570Y-74394717D01*
X162519029Y-74225148D01*
X162708622Y-74033738D01*
X162788722Y-73938856D01*
X162880501Y-73824373D01*
X162767552Y-73805086D01*
X162429064Y-73739668D01*
X162083021Y-73658364D01*
X161738178Y-73563632D01*
X161403291Y-73457928D01*
X161087117Y-73343710D01*
X160998413Y-73308633D01*
X160925294Y-73279472D01*
X160862939Y-73255327D01*
X160816448Y-73238114D01*
X160790920Y-73229754D01*
X160787664Y-73229355D01*
X160532086Y-73229355D01*
X160524825Y-73193342D01*
X160521539Y-73182134D01*
X160506272Y-73186510D01*
X160467376Y-73203030D01*
X160408442Y-73230013D01*
X160333060Y-73265781D01*
X160244822Y-73308653D01*
X160147318Y-73356952D01*
X160141560Y-73359831D01*
X159769859Y-73545806D01*
X159457984Y-73545806D01*
X159463619Y-73509028D01*
X159483585Y-73377955D01*
X159731412Y-73377955D01*
X159744427Y-73374606D01*
X159781006Y-73359135D01*
X159837491Y-73333247D01*
X159910228Y-73298646D01*
X159995561Y-73257036D01*
X160069696Y-73220221D01*
X160407925Y-73050972D01*
X160249052Y-72966777D01*
X160168813Y-72923545D01*
X160082164Y-72875717D01*
X160001981Y-72830448D01*
X159962115Y-72807363D01*
X159907250Y-72775766D01*
X159863266Y-72751622D01*
X159836006Y-72738073D01*
X159830063Y-72736372D01*
X159826866Y-72751734D01*
X159820023Y-72791892D01*
X159810364Y-72851445D01*
X159798721Y-72924991D01*
X159785923Y-73007126D01*
X159772801Y-73092449D01*
X159760187Y-73175558D01*
X159748910Y-73251050D01*
X159739802Y-73313523D01*
X159733692Y-73357575D01*
X159731413Y-73377803D01*
X159731412Y-73377955D01*
X159483585Y-73377955D01*
X159487261Y-73353825D01*
X159509352Y-73207932D01*
X159529486Y-73074093D01*
X159547257Y-72955048D01*
X159562258Y-72853538D01*
X159574084Y-72772304D01*
X159582329Y-72714088D01*
X159586586Y-72681630D01*
X159587051Y-72675650D01*
X159571753Y-72677047D01*
X159532320Y-72683657D01*
X159474502Y-72694447D01*
X159404046Y-72708379D01*
X159394301Y-72710359D01*
X159298094Y-72728660D01*
X159182700Y-72748556D01*
X159056039Y-72768866D01*
X158926029Y-72788407D01*
X158800587Y-72805998D01*
X158687631Y-72820456D01*
X158595081Y-72830599D01*
X158579002Y-72832068D01*
X158502961Y-72839057D01*
X158452572Y-72845646D01*
X158423063Y-72853917D01*
X158409657Y-72865952D01*
X158407580Y-72883835D01*
X158158223Y-72883835D01*
X158149938Y-72847450D01*
X158136375Y-72748144D01*
X158126957Y-72626614D01*
X158121687Y-72490881D01*
X158120754Y-72373093D01*
X158358011Y-72373093D01*
X158358640Y-72465942D01*
X158361103Y-72549392D01*
X158365395Y-72614490D01*
X158367355Y-72631469D01*
X158377041Y-72702141D01*
X158432228Y-72694971D01*
X158468038Y-72690524D01*
X158526520Y-72683488D01*
X158600019Y-72674775D01*
X158680881Y-72665297D01*
X158693485Y-72663830D01*
X158771483Y-72653976D01*
X158865221Y-72640900D01*
X158968947Y-72625532D01*
X159076911Y-72608798D01*
X159139978Y-72598624D01*
X159929942Y-72598624D01*
X159942546Y-72609075D01*
X159977222Y-72631386D01*
X160029226Y-72662823D01*
X160093813Y-72700654D01*
X160166240Y-72742145D01*
X160241764Y-72784566D01*
X160315639Y-72825181D01*
X160383122Y-72861259D01*
X160410733Y-72875590D01*
X160452386Y-72896973D01*
X160480539Y-72911481D01*
X160488094Y-72915429D01*
X160486245Y-72901458D01*
X160480461Y-72862450D01*
X160471517Y-72803529D01*
X160460190Y-72729820D01*
X160453090Y-72683969D01*
X160440364Y-72603642D01*
X160428960Y-72534712D01*
X160419793Y-72482477D01*
X160413777Y-72452236D01*
X160412150Y-72446903D01*
X160396149Y-72448879D01*
X160357260Y-72458747D01*
X160301384Y-72474652D01*
X160234421Y-72494737D01*
X160162274Y-72517145D01*
X160090842Y-72540019D01*
X160026027Y-72561503D01*
X159973729Y-72579740D01*
X159939850Y-72592873D01*
X159929942Y-72598624D01*
X159139978Y-72598624D01*
X159183364Y-72591625D01*
X159282555Y-72574942D01*
X159368733Y-72559676D01*
X159436149Y-72546753D01*
X159478932Y-72537135D01*
X159524055Y-72525059D01*
X159451222Y-72474949D01*
X159396443Y-72435261D01*
X159873739Y-72435261D01*
X159888426Y-72438781D01*
X159894962Y-72437023D01*
X159919977Y-72429244D01*
X159967058Y-72414501D01*
X160029152Y-72395004D01*
X160090180Y-72375807D01*
X160120327Y-72366232D01*
X160658811Y-72366232D01*
X160662336Y-72408536D01*
X160669514Y-72470370D01*
X160679544Y-72546464D01*
X160691628Y-72631546D01*
X160704965Y-72720344D01*
X160718758Y-72807586D01*
X160732206Y-72888001D01*
X160744510Y-72956318D01*
X160754871Y-73007264D01*
X160762489Y-73035569D01*
X160764446Y-73039242D01*
X160785133Y-73051171D01*
X160829981Y-73071718D01*
X160894447Y-73099098D01*
X160973989Y-73131528D01*
X161064067Y-73167225D01*
X161160137Y-73204405D01*
X161257658Y-73241284D01*
X161352088Y-73276080D01*
X161438885Y-73307008D01*
X161496076Y-73326538D01*
X161689843Y-73388180D01*
X161896353Y-73448740D01*
X162103129Y-73504734D01*
X162297694Y-73552681D01*
X162344116Y-73563260D01*
X162430798Y-73582099D01*
X162525511Y-73601782D01*
X162622677Y-73621246D01*
X162716720Y-73639430D01*
X162802061Y-73655271D01*
X162873125Y-73667707D01*
X162924333Y-73675675D01*
X162947137Y-73678114D01*
X162963813Y-73674029D01*
X162981959Y-73657756D01*
X163004512Y-73625185D01*
X163034411Y-73572207D01*
X163065475Y-73512603D01*
X163134859Y-73363117D01*
X163196656Y-73202908D01*
X163248603Y-73039599D01*
X163288433Y-72880810D01*
X163313883Y-72734162D01*
X163321542Y-72650878D01*
X163326238Y-72561157D01*
X163043846Y-72503993D01*
X162706765Y-72430622D01*
X162394034Y-72351572D01*
X162099734Y-72265145D01*
X161817947Y-72169645D01*
X161629829Y-72098407D01*
X161383541Y-72001154D01*
X161225322Y-72083646D01*
X161147226Y-72122969D01*
X161053050Y-72168276D01*
X160954907Y-72213841D01*
X160868665Y-72252305D01*
X160796577Y-72283992D01*
X160734654Y-72311934D01*
X160688251Y-72333661D01*
X160662724Y-72346702D01*
X160659738Y-72348730D01*
X160658811Y-72366232D01*
X160120327Y-72366232D01*
X160163683Y-72352462D01*
X160232261Y-72330320D01*
X160287235Y-72312201D01*
X160315375Y-72302576D01*
X160372661Y-72282205D01*
X160157518Y-72155357D01*
X160085329Y-72113236D01*
X160022886Y-72077643D01*
X159974643Y-72051048D01*
X159945050Y-72035920D01*
X159937822Y-72033471D01*
X159933881Y-72049650D01*
X159926670Y-72089737D01*
X159917269Y-72147423D01*
X159908247Y-72206344D01*
X159897332Y-72278125D01*
X159887270Y-72341674D01*
X159879337Y-72389090D01*
X159875439Y-72409815D01*
X159873739Y-72435261D01*
X159396443Y-72435261D01*
X159383405Y-72425815D01*
X159300565Y-72362014D01*
X159210120Y-72289578D01*
X159119489Y-72214539D01*
X159036090Y-72142927D01*
X158973503Y-72086538D01*
X158864277Y-71984821D01*
X158620463Y-72010839D01*
X158376649Y-72036857D01*
X158367158Y-72127656D01*
X158362267Y-72194998D01*
X158359219Y-72279794D01*
X158358011Y-72373093D01*
X158120754Y-72373093D01*
X158120563Y-72348966D01*
X158123587Y-72208890D01*
X158130760Y-72078675D01*
X158142083Y-71966342D01*
X158149853Y-71916320D01*
X158158463Y-71879722D01*
X158406355Y-71879722D01*
X158515575Y-71869068D01*
X158584334Y-71862096D01*
X158653633Y-71854649D01*
X158701117Y-71849205D01*
X158777440Y-71839998D01*
X158781070Y-71420226D01*
X158782324Y-71287367D01*
X158782463Y-71257183D01*
X159031083Y-71257183D01*
X159031232Y-71355564D01*
X159032019Y-71465300D01*
X159032247Y-71487341D01*
X159033727Y-71614192D01*
X159035286Y-71714088D01*
X159037194Y-71790601D01*
X159039719Y-71847304D01*
X159043130Y-71887770D01*
X159047697Y-71915571D01*
X159053688Y-71934281D01*
X159061373Y-71947473D01*
X159067464Y-71954846D01*
X159098884Y-71986145D01*
X159146788Y-72029246D01*
X159206957Y-72080786D01*
X159275172Y-72137404D01*
X159347215Y-72195740D01*
X159418865Y-72252431D01*
X159485905Y-72304116D01*
X159544115Y-72347435D01*
X159589275Y-72379025D01*
X159617168Y-72395526D01*
X159622628Y-72397149D01*
X159627516Y-72382669D01*
X159636140Y-72341729D01*
X159647843Y-72278083D01*
X159661969Y-72195481D01*
X159677861Y-72097676D01*
X159694862Y-71988421D01*
X159699429Y-71958297D01*
X159711111Y-71880871D01*
X160001375Y-71880871D01*
X160175525Y-71984359D01*
X160240115Y-72022228D01*
X160294637Y-72053222D01*
X160334112Y-72074583D01*
X160353563Y-72083555D01*
X160354676Y-72083580D01*
X160354613Y-72067708D01*
X160350566Y-72028051D01*
X160343266Y-71970984D01*
X160335596Y-71917217D01*
X160325719Y-71849409D01*
X160317803Y-71792554D01*
X160312795Y-71753598D01*
X160311514Y-71740178D01*
X160298880Y-71740627D01*
X160264545Y-71753061D01*
X160213854Y-71775312D01*
X160156445Y-71803054D01*
X160001375Y-71880871D01*
X159711111Y-71880871D01*
X159716717Y-71843712D01*
X159732854Y-71736897D01*
X159736506Y-71712763D01*
X159986734Y-71712763D01*
X160099514Y-71656292D01*
X160152031Y-71629752D01*
X160192937Y-71608621D01*
X160215447Y-71596419D01*
X160217656Y-71594977D01*
X160207887Y-71586327D01*
X160177140Y-71568110D01*
X160131881Y-71544135D01*
X160128003Y-71542171D01*
X160079229Y-71520049D01*
X160040929Y-71507286D01*
X160021036Y-71506492D01*
X160020654Y-71506826D01*
X160012634Y-71527658D01*
X160004025Y-71569363D01*
X159997526Y-71616104D01*
X159986734Y-71712763D01*
X159736506Y-71712763D01*
X159747186Y-71642174D01*
X159759058Y-71563864D01*
X159767816Y-71506289D01*
X159772804Y-71473771D01*
X159773266Y-71470816D01*
X159780935Y-71422187D01*
X159578709Y-71321007D01*
X160042095Y-71321007D01*
X160150092Y-71376712D01*
X160200636Y-71402394D01*
X160239091Y-71421196D01*
X160258881Y-71429927D01*
X160260178Y-71430138D01*
X160259434Y-71422187D01*
X160506275Y-71422187D01*
X160514098Y-71470816D01*
X160518642Y-71500017D01*
X160526933Y-71554215D01*
X160538182Y-71628221D01*
X160551600Y-71716840D01*
X160566400Y-71814883D01*
X160571908Y-71851446D01*
X160586728Y-71947933D01*
X160600415Y-72033394D01*
X160612231Y-72103516D01*
X160621440Y-72153985D01*
X160627304Y-72180488D01*
X160628649Y-72183447D01*
X160644488Y-72177718D01*
X160682485Y-72162144D01*
X160736842Y-72139144D01*
X160797828Y-72112849D01*
X160883721Y-72074520D01*
X160979193Y-72030354D01*
X161069269Y-71987334D01*
X161109080Y-71967698D01*
X161257908Y-71893145D01*
X161257908Y-71876730D01*
X161502139Y-71876730D01*
X161574645Y-71908853D01*
X161762933Y-71985991D01*
X161978118Y-72062829D01*
X162216578Y-72138282D01*
X162474689Y-72211267D01*
X162748832Y-72280698D01*
X163028105Y-72343940D01*
X163131491Y-72366243D01*
X163208645Y-72382275D01*
X163263373Y-72391226D01*
X163299481Y-72392284D01*
X163320773Y-72384640D01*
X163331055Y-72367481D01*
X163334133Y-72339998D01*
X163333811Y-72301379D01*
X163333567Y-72278850D01*
X163328910Y-72160469D01*
X163314760Y-72037108D01*
X163289942Y-71900381D01*
X163264902Y-71789353D01*
X163245036Y-71715045D01*
X163219263Y-71630864D01*
X163189958Y-71543383D01*
X163159496Y-71459173D01*
X163130251Y-71384804D01*
X163104598Y-71326848D01*
X163085328Y-71292439D01*
X163068969Y-71280422D01*
X163035392Y-71268047D01*
X162981265Y-71254469D01*
X162903252Y-71238841D01*
X162806789Y-71221803D01*
X162672398Y-71198602D01*
X162559819Y-71178113D01*
X162460661Y-71158599D01*
X162366533Y-71138324D01*
X162269043Y-71115553D01*
X162159801Y-71088549D01*
X162146693Y-71085242D01*
X162075266Y-71066008D01*
X161990483Y-71041312D01*
X161898295Y-71013090D01*
X161804652Y-70983279D01*
X161715504Y-70953815D01*
X161636802Y-70926633D01*
X161574496Y-70903669D01*
X161534536Y-70886860D01*
X161530271Y-70884688D01*
X161522609Y-70881721D01*
X161516480Y-70883875D01*
X161511714Y-70894117D01*
X161508138Y-70915410D01*
X161505583Y-70950719D01*
X161503878Y-71003008D01*
X161502852Y-71075240D01*
X161502335Y-71170382D01*
X161502156Y-71291396D01*
X161502139Y-71373181D01*
X161502139Y-71876730D01*
X161257908Y-71876730D01*
X161257908Y-71473512D01*
X161257638Y-71363899D01*
X161256876Y-71264967D01*
X161255694Y-71180614D01*
X161254163Y-71114738D01*
X161252357Y-71071237D01*
X161250347Y-71054009D01*
X161250154Y-71053880D01*
X161234993Y-71060440D01*
X161196171Y-71078942D01*
X161137300Y-71107612D01*
X161061995Y-71144682D01*
X160973870Y-71188379D01*
X160876539Y-71236932D01*
X160874338Y-71238034D01*
X160506275Y-71422187D01*
X160259434Y-71422187D01*
X160258772Y-71415114D01*
X160253410Y-71375827D01*
X160244935Y-71318163D01*
X160234187Y-71248008D01*
X160233669Y-71244685D01*
X160218303Y-71145771D01*
X160206740Y-71072985D01*
X160197710Y-71022351D01*
X160189946Y-70989891D01*
X160185519Y-70979482D01*
X160437991Y-70979482D01*
X160438950Y-70989006D01*
X160445408Y-71019884D01*
X160453083Y-71066581D01*
X160456129Y-71087898D01*
X160465931Y-71160078D01*
X160652034Y-71067079D01*
X160720485Y-71032684D01*
X160778564Y-71003143D01*
X160821083Y-70981123D01*
X160842850Y-70969290D01*
X160844497Y-70968187D01*
X160832544Y-70966056D01*
X160795356Y-70964269D01*
X160738227Y-70962978D01*
X160666449Y-70962336D01*
X160641215Y-70962293D01*
X160557521Y-70962585D01*
X160499853Y-70963855D01*
X160463709Y-70966698D01*
X160444589Y-70971709D01*
X160437991Y-70979482D01*
X160185519Y-70979482D01*
X160182179Y-70971630D01*
X160173141Y-70963591D01*
X160161564Y-70961797D01*
X160146179Y-70962272D01*
X160143605Y-70962293D01*
X160125871Y-70962191D01*
X160112919Y-70964843D01*
X160103169Y-70974689D01*
X160095039Y-70996165D01*
X160086947Y-71033712D01*
X160077312Y-71091768D01*
X160064553Y-71174771D01*
X160062025Y-71191260D01*
X160042095Y-71321007D01*
X159578709Y-71321007D01*
X159412873Y-71238034D01*
X159315331Y-71189384D01*
X159226864Y-71145555D01*
X159151096Y-71108318D01*
X159091653Y-71079445D01*
X159052159Y-71060710D01*
X159036239Y-71053883D01*
X159036185Y-71053880D01*
X159034125Y-71068503D01*
X159032564Y-71109818D01*
X159031539Y-71173989D01*
X159031083Y-71257183D01*
X158782463Y-71257183D01*
X158782802Y-71183809D01*
X158781419Y-71108325D01*
X158777090Y-71059689D01*
X158768728Y-71036675D01*
X158755248Y-71038055D01*
X158735565Y-71062604D01*
X158708593Y-71109095D01*
X158673246Y-71176301D01*
X158633414Y-71253412D01*
X158578782Y-71367111D01*
X158525996Y-71492162D01*
X158478824Y-71618623D01*
X158441033Y-71736551D01*
X158420967Y-71814067D01*
X158406355Y-71879722D01*
X158158463Y-71879722D01*
X158216238Y-71634126D01*
X158309553Y-71364209D01*
X158428422Y-71108119D01*
X158514139Y-70963880D01*
X159433810Y-70963880D01*
X159624615Y-71060655D01*
X159815420Y-71157431D01*
X159825264Y-71117104D01*
X159834293Y-71073710D01*
X159842880Y-71022976D01*
X159843385Y-71019535D01*
X159851662Y-70962293D01*
X159642736Y-70963086D01*
X159433810Y-70963880D01*
X158514139Y-70963880D01*
X158571470Y-70867407D01*
X158683038Y-70716869D01*
X158991141Y-70716869D01*
X159440534Y-70713650D01*
X159889926Y-70710430D01*
X159890311Y-70707886D01*
X160133429Y-70707886D01*
X160135524Y-70716961D01*
X160143605Y-70718063D01*
X160156170Y-70712478D01*
X160153782Y-70707886D01*
X160135666Y-70706059D01*
X160133429Y-70707886D01*
X159890311Y-70707886D01*
X159931527Y-70435671D01*
X159945538Y-70343286D01*
X159958592Y-70257500D01*
X159969750Y-70184452D01*
X159978076Y-70130283D01*
X159978377Y-70128350D01*
X160317202Y-70128350D01*
X160320765Y-70169576D01*
X160327518Y-70229519D01*
X160336674Y-70302461D01*
X160347444Y-70382683D01*
X160359040Y-70464465D01*
X160370675Y-70542091D01*
X160381561Y-70609839D01*
X160390909Y-70661993D01*
X160397493Y-70691350D01*
X160401953Y-70699662D01*
X160412350Y-70706043D01*
X160432267Y-70710735D01*
X160465285Y-70713980D01*
X160514985Y-70716022D01*
X160584951Y-70717103D01*
X160678763Y-70717466D01*
X160781924Y-70717387D01*
X161158690Y-70716711D01*
X161100091Y-70683042D01*
X160941355Y-70586608D01*
X160784092Y-70481286D01*
X160635348Y-70372207D01*
X160502171Y-70264502D01*
X160407294Y-70178657D01*
X160367362Y-70142562D01*
X160335714Y-70118499D01*
X160318484Y-70111060D01*
X160317616Y-70111560D01*
X160317202Y-70128350D01*
X159978377Y-70128350D01*
X159982199Y-70103831D01*
X159991270Y-70046752D01*
X159910977Y-70078263D01*
X159734042Y-70158894D01*
X159552212Y-70262535D01*
X159372996Y-70384301D01*
X159203902Y-70519307D01*
X159128521Y-70587392D01*
X158991141Y-70716869D01*
X158683038Y-70716869D01*
X158737323Y-70643622D01*
X158924606Y-70438315D01*
X159131944Y-70253036D01*
X159357962Y-70089335D01*
X159601286Y-69948762D01*
X159621911Y-69939542D01*
X160398172Y-69939542D01*
X160403913Y-69953468D01*
X160428824Y-69982953D01*
X160468905Y-70023675D01*
X160520157Y-70071316D01*
X160520288Y-70071433D01*
X160722854Y-70241368D01*
X160931732Y-70393515D01*
X161149879Y-70529173D01*
X161380254Y-70649645D01*
X161625815Y-70756229D01*
X161889519Y-70850227D01*
X162174326Y-70932939D01*
X162483193Y-71005667D01*
X162772213Y-71061553D01*
X162846871Y-71074757D01*
X162909830Y-71085942D01*
X162955456Y-71094103D01*
X162978111Y-71098234D01*
X162979541Y-71098524D01*
X162973837Y-71087515D01*
X162954762Y-71057328D01*
X162926157Y-71014001D01*
X162919616Y-71004270D01*
X162754241Y-70785438D01*
X162568349Y-70587852D01*
X162364038Y-70412633D01*
X162143402Y-70260905D01*
X161908539Y-70133791D01*
X161661544Y-70032414D01*
X161404513Y-69957896D01*
X161139541Y-69911360D01*
X160868726Y-69893930D01*
X160846803Y-69893827D01*
X160768385Y-69895398D01*
X160684403Y-69899733D01*
X160601031Y-69906203D01*
X160524441Y-69914178D01*
X160460807Y-69923030D01*
X160416301Y-69932129D01*
X160398172Y-69939542D01*
X159621911Y-69939542D01*
X159860540Y-69832868D01*
X160057655Y-69765165D01*
X160221871Y-69720534D01*
X160380597Y-69688524D01*
X160545196Y-69667308D01*
X160727026Y-69655055D01*
X160746550Y-69654254D01*
X161032601Y-69656740D01*
G37*
D16*
%TO.C,BT1*%
X146469500Y-81634000D02*
X146469500Y-81634000D01*
X146469500Y-81434000D02*
X146469500Y-81434000D01*
D11*
X144319500Y-85034000D02*
X140069500Y-85034000D01*
X144319500Y-78034000D02*
X140069500Y-78034000D01*
X140069500Y-85034000D02*
X137689500Y-89584000D01*
X140069500Y-78034000D02*
X137689500Y-73484000D01*
X137689500Y-89584000D02*
X122449500Y-89584000D01*
X137689500Y-73484000D02*
X122449500Y-73484000D01*
X122449500Y-89584000D02*
X120069500Y-85034000D01*
X122449500Y-73484000D02*
X120069500Y-78034000D01*
X120069500Y-85034000D02*
X115819500Y-85034000D01*
X120069500Y-78034000D02*
X115819500Y-78034000D01*
D16*
X146469500Y-81434000D02*
G75*
G03*
X146469500Y-81634000I0J-100000D01*
G01*
X146469500Y-81634000D02*
G75*
G03*
X146469500Y-81434000I0J100000D01*
G01*
D15*
%TO.C,C16*%
X146554000Y-67740000D02*
X146554000Y-68940000D01*
X146554000Y-72260000D02*
X146554000Y-71060000D01*
X143098437Y-67740000D02*
X146554000Y-67740000D01*
X143098437Y-72260000D02*
X146554000Y-72260000D01*
X142034000Y-68804437D02*
X143098437Y-67740000D01*
X142034000Y-68804437D02*
X142034000Y-68940000D01*
X142034000Y-71195563D02*
X143098437Y-72260000D01*
X142034000Y-71195563D02*
X142034000Y-71060000D01*
X141544000Y-68190000D02*
X141544000Y-68690000D01*
X141294000Y-68440000D02*
X141794000Y-68440000D01*
%TD*%
%LPC*%
D17*
%TO.C,ANT1*%
X165740000Y-86304000D03*
X159740000Y-77504000D03*
%TD*%
D18*
%TO.C,C4*%
X151327246Y-73094246D03*
X149860000Y-71627000D03*
%TD*%
D19*
%TO.C,S1*%
X115131500Y-93980000D03*
X121531500Y-93980000D03*
%TD*%
D20*
%TO.C,J2*%
X143276793Y-93725293D03*
X140736793Y-93725293D03*
X138196793Y-93725293D03*
X135656793Y-93725293D03*
X133116793Y-93725293D03*
X130576793Y-93725293D03*
X128036793Y-93725293D03*
D21*
X125496793Y-93725293D03*
%TD*%
D22*
%TO.C,BT1*%
X144769500Y-81534000D03*
X115369500Y-81534000D03*
%TD*%
D23*
%TO.C,C16*%
X146094000Y-70000000D03*
X142494000Y-70000000D03*
%TD*%
%LPD*%
M02*
